<svg xmlns="http://www.w3.org/2000/svg" width="17" height="14" viewBox="0 0 17 14">
    <g fill="none" fill-rule="nonzero">
        <path fill="#FFB503" d="M9 9.185v-.37C9 8.365 8.552 8 8 8s-1 .365-1 .815v.37c0 .45.448.815 1 .815s1-.365 1-.815z"/>
        <path fill="#B58000" d="M9.964 9.223c-.192.585-.772 1.015-1.464 1.015s-1.271-.43-1.464-1.015H1.054C.677 9.223.32 9.141 0 9v3.69C0 13.41.635 14 1.41 14h14.18c.775 0 1.41-.59 1.41-1.31V9c-.32.142-.677.223-1.054.223H9.964zM15.59 2.168h-3.249A2.577 2.577 0 0 0 9.801 0H7.198a2.578 2.578 0 0 0-2.54 2.168H1.41c-.776 0-1.41.61-1.41 1.354v3.124c0 .747.606 1.353 1.353 1.353h5.678c.019-.388.186-.74.45-.992.008-.008.018-.014.026-.021.059-.054.12-.105.186-.149.024-.016.051-.027.076-.04.055-.032.109-.065.168-.09.046-.019.096-.03.145-.045.042-.012.082-.029.126-.037a1.464 1.464 0 0 1 .584 0c.043.008.084.025.126.037.049.015.098.026.145.046.059.024.113.057.167.088.025.015.052.025.077.041.066.044.127.095.185.149.009.007.02.013.027.022.264.253.431.603.45.992h5.678C16.394 8 17 7.394 17 6.647V3.522c0-.745-.634-1.354-1.41-1.354zm-9.629 0A1.306 1.306 0 0 1 7.2 1.267h2.603c.578 0 1.064.38 1.237.901H5.96z"/>
    </g>
</svg>
