<svg xmlns="http://www.w3.org/2000/svg" width="15" height="26" viewBox="0 0 15 26">
    <g fill="#4D4D4D" fill-rule="nonzero">
        <path d="M6 5.038L6.002 5h2.996L9 5.038C9 6.274 8.724 7.81 8.394 9c-.036-.027-.074-.053-.12-.053H6.726c-.047 0-.085.026-.121.053C6.274 7.803 6 6.267 6 5.038zM8 9H7v1h1z"/>
        <path d="M.317 10.186l4.01-3.884c.18-.176.414-.264.654-.302.003.894.303 3.023.929 4.528-.257.017-.462.207-.462.445v1.915c0 .25.223.452.496.452H9.057c.273 0 .496-.203.496-.452v-1.915c0-.238-.205-.428-.462-.445.638-1.537.926-3.664.928-4.527.24.037.473.126.654.3l4.01 3.885c.523.506.38 1.326-.288 1.66l-3.587 1.795c0 .527.004 4.327.004 11.083 0 .705-.627 1.276-1.4 1.276-.774 0-1.401-.571-1.401-1.276v-7.605H6.99v7.605c0 .705-.627 1.276-1.4 1.276-.774 0-1.4-.571-1.4-1.276 0-8.597.003-10.697.003-11.083L.605 11.847c-.668-.335-.811-1.156-.288-1.661zm11.633.457l-1.142-1.107v1.678l1.142-.571zm-7.757.572v-1.68L3.05 10.643l1.143.572z"/>
        <path d="M9 11a1 1 0 1 1-2 0c0-.237.094-.446.233-.618A.982.982 0 0 1 8 10c.125 0 .242.03.352.071a.419.419 0 0 0-.205.355.42.42 0 1 0 .782.222c.042.11.071.227.071.352zM7.5 5A2.5 2.5 0 1 1 7.5 0a2.5 2.5 0 0 1 .002 5z"/>
    </g>
</svg>
