<svg id="Layer_1" enable-background="new 0 0 60 50" height="512" viewBox="0 0 60 50" width="512" xmlns="http://www.w3.org/2000/svg"><path d="m59.03 50h-52c-.552 0-1-.448-1-1v-42c0-.552.448-1 1-1h52c.552 0 1 .448 1 1v42c0 .552-.448 1-1 1zm-51-2h50v-40h-50z"/><path d="m7.03 44h-6c-.552 0-1-.448-1-1v-42c0-.552.448-1 1-1h52c.552 0 1 .448 1 1v6c0 .552-.448 1-1 1h-45v35c0 .552-.448 1-1 1zm-5-2h4v-35c0-.552.448-1 1-1h45v-4h-50z"/><path d="m59.03 50h-26.778c-.394 0-.751-.231-.912-.59s-.097-.78.165-1.074l15.778-17.75c.379-.427 1.115-.427 1.495 0l11 12.375c.163.183.252.419.252.665v5.374c0 .552-.448 1-1 1zm-24.551-2h23.551v-3.995l-10-11.25z"/><path d="m32.252 50h-25.222c-.552 0-1-.448-1-1v-16.625c0-.245.09-.481.253-.665l13-14.625c.379-.427 1.115-.427 1.495 0l20 22.5c.337.379.337.95 0 1.329l-7.778 8.75c-.19.214-.462.336-.748.336zm-24.222-2h23.773l6.889-7.75-18.662-20.995-12 13.5z"/><path d="m41.03 25c-2.757 0-5-2.243-5-5s2.243-5 5-5 5 2.243 5 5-2.243 5-5 5zm0-8c-1.654 0-3 1.346-3 3s1.346 3 3 3 3-1.346 3-3-1.346-3-3-3z"/></svg>