<svg xmlns="http://www.w3.org/2000/svg" width="13" height="13" viewBox="0 0 13 13">
    <path fill="#B58000" fill-rule="nonzero" d="M6.05.294A.502.502 0 0 1 6.5 0c.192 0 .367.114.452.294L8.57 3.729a.506.506 0 0 0 .38.288l3.62.551a.51.51 0 0 1 .405.359c.06.19.01.4-.127.54L10.229 8.14a.543.543 0 0 0-.145.467l.618 3.776a.54.54 0 0 1-.2.516.486.486 0 0 1-.53.04l-3.238-1.783a.483.483 0 0 0-.468 0L3.028 12.94a.485.485 0 0 1-.53-.04.54.54 0 0 1-.2-.516l.618-3.776a.543.543 0 0 0-.145-.467L.152 5.467a.545.545 0 0 1-.127-.54.51.51 0 0 1 .406-.359l3.62-.55a.506.506 0 0 0 .38-.29L6.048.295z"/>
</svg>
