<svg xmlns="http://www.w3.org/2000/svg" width="19" height="19" viewBox="0 0 19 19">
    <g fill="#000" fill-rule="nonzero">
        <path d="M.419 0A.419.419 0 0 0 0 .419V6.58C0 6.812.188 7 .419 7h.733a.419.419 0 0 0 .419-.419V1.99c0-.232.187-.42.419-.42H6.58A.419.419 0 0 0 7 1.153V.419A.419.419 0 0 0 6.581 0H.42zM19 4.024V.419A.419.419 0 0 0 18.581 0H12.42A.419.419 0 0 0 12 .419v.733c0 .231.188.419.419.419h4.591c.232 0 .42.187.42.419V6.58c0 .231.187.419.418.419h.733A.419.419 0 0 0 19 6.581V4.024zM.419 19H6.58A.419.419 0 0 0 7 18.581v-.733a.419.419 0 0 0-.419-.419H1.99a.419.419 0 0 1-.42-.419V12.42A.419.419 0 0 0 1.153 12H.419a.419.419 0 0 0-.419.419v6.162c0 .231.188.419.419.419zM12.419 19h6.162a.419.419 0 0 0 .419-.419V12.42a.419.419 0 0 0-.419-.419h-.733a.419.419 0 0 0-.419.419v4.591a.419.419 0 0 1-.419.42H12.42a.419.419 0 0 0-.419.418v.733c0 .231.188.419.419.419z"/>
        <path d="M14.547 16c.25 0 .453-.196.453-.438v-1.378c0-.757-.24-1.502-.679-2.128-.492-.703-1.18-1.056-1.925-1.442-.48-.25-.926-.612-1.142-1.085 1.38-.636 2.334-1.997 2.334-3.574C13.588 3.771 11.758 2 9.5 2S5.412 3.77 5.412 5.955c0 1.577.954 2.938 2.334 3.574-.216.473-.662.836-1.142 1.085-.745.386-1.433.739-1.925 1.442A3.723 3.723 0 0 0 4 14.184v1.378c0 .242.203.438.453.438h10.094z"/>
    </g>
</svg>
