<?xml version="1.0" encoding="utf-8"?>
<!-- Generator: Adobe Illustrator 23.0.3, SVG Export Plug-In . SVG Version: 6.00 Build 0)  -->
<svg version="1.1" id="Layer_1" xmlns="http://www.w3.org/2000/svg" xmlns:xlink="http://www.w3.org/1999/xlink" x="0px" y="0px"
	 viewBox="0 0 512 512" style="enable-background:new 0 0 512 512;" xml:space="preserve">
<style type="text/css">
	.st0{display:none;}
	.st1{display:inline;}
	.st2{fill:#FFB503;}
</style>
<g id="Page-1" class="st0">
	<g transform="translate(-663.000000, -2986.000000)" class="st1">
		<g id="Group-13" transform="translate(328.000000, 2986.000000)">
			<g id="Group-22">
				<g id="get-vetted" transform="translate(335.500000, 0.000000)">
					<g id="positive-verified-symbol-of-a-clipboard-copy">
						<path id="Shape" d="M308.73,168.48v-6.99c0-5.88-4.8-10.65-10.75-10.65h-15.85c1.51-3.04,2.36-6.33,2.36-9.85
							c0-12.01-9.86-21.83-21.98-21.83c-12.12,0-21.98,9.83-21.98,21.85c0,3.53,0.86,6.79,2.36,9.83h-21.24
							c-5.94,0-10.74,4.76-10.74,10.65v6.99h-27.07c-9.62,0-17.42,7.73-17.42,17.26v177c0,9.54,7.8,17.26,17.42,17.26h151.97
							c9.63,0,17.42-7.73,17.42-17.26v-177c0-9.53-7.81-17.26-17.42-17.26H308.73z M249.4,141.01c0-7.16,5.88-13.03,13.1-13.03
							s13.1,5.88,13.1,13.05c0,3.91-1.75,7.46-4.5,9.83h-17.19C251.15,148.48,249.4,144.92,249.4,141.01z M335.42,353.41
							c0,4.94-4.05,8.97-9.04,8.97H193.24c-4.99,0-9.04-4.01-9.04-8.97V195.06c0-4.95,4.05-8.96,9.04-8.96h17.65
							c0,4.87,3.98,8.81,8.89,8.81h80.05c4.92,0,8.9-3.95,8.9-8.81h17.66c4.99,0,9.04,4,9.04,8.96L335.42,353.41L335.42,353.41z"/>
						<path id="Path" d="M253.43,278.14l-10.85-10.81c-1.22-1.21-2.88-1.9-4.61-1.9s-3.38,0.69-4.61,1.9l-3.37,3.35
							c-2.54,2.53-2.54,6.63,0,9.16l19.06,18.97c1.24,1.23,2.95,1.92,4.7,1.88c1.76-0.02,3.44-0.75,4.65-2.03l33.11-34.91
							c2.47-2.6,2.35-6.69-0.26-9.15l-3.46-3.24c-1.25-1.19-2.92-1.82-4.66-1.77c-1.72,0.05-3.36,0.79-4.55,2.03L253.43,278.14z"/>
						<path class="st2" d="M259.8,209.05c-35.96,0-65.2,28.86-65.2,64.33c0,35.45,29.25,64.32,65.2,64.32
							c35.95,0,65.21-28.86,65.21-64.32C325.01,237.91,295.77,209.05,259.8,209.05z M259.8,320.14c-26.13,0-47.37-20.97-47.37-46.75
							s21.25-46.76,47.37-46.76c26.12,0,47.38,20.97,47.38,46.76C307.18,299.16,285.92,320.14,259.8,320.14z"/>
					</g>
				</g>
			</g>
		</g>
	</g>
</g>
<g id="Page-1_1_" class="st0">
	<g transform="translate(-328.000000, -2998.000000)" class="st1">
		<g id="Group-13_1_" transform="translate(328.000000, 2986.000000)">
			<g id="Group-22_1_">
				<g id="Group-21" transform="translate(0.000000, 12.000000)">
					<g id="enter">
						<polygon id="Path_1_" points="358.07,132.54 358.07,334.25 265.69,380.8 265.69,334.25 173.31,334.25 173.31,272.19 
							188.71,272.19 188.71,318.74 265.69,318.74 265.69,179.09 327.28,148.06 188.71,148.06 188.71,210.12 173.31,210.12 
							173.31,132.54 						"/>
						<polygon class="st2" points="242.6,242.09 198.12,207.6 198.12,227.68 154.07,227.68 154.07,257.38 198.12,257.38 
							198.12,276.88 						"/>
					</g>
				</g>
			</g>
		</g>
	</g>
</g>
<g id="Page-1_2_">
	<g transform="translate(-999.000000, -3002.000000)">
		<g id="Group-13_2_" transform="translate(328.000000, 2986.000000)">
			<g id="Group-22_2_">
				<g transform="translate(671.000000, 16.000000)">
					<path id="Path_2_" class="st2" d="M273.28,172.43c2.61-3.38,4.23-7.63,4.23-12.26c0-10.93-8.68-19.82-19.39-19.82
						s-19.4,8.89-19.4,19.82c0,4.63,1.39,8.88,4,12.26c-7.99,5.17-13.49,14.28-13.49,24.63v24.11c0,3.67,3.28,6.86,6.88,6.86h44.08
						c3.59,0,6.3-3.19,6.3-6.86v-24.11C286.49,186.71,281.27,177.61,273.28,172.43z"/>
					<path d="M211.33,250.06v-24.19c0-10.39-5.07-19.52-13.19-24.71c2.65-3.39,4.4-7.66,4.4-12.3c0-10.96-8.76-19.88-19.63-19.88
						c-10.87,0-19.67,8.92-19.67,19.88c0,4.64,1.63,8.91,4.28,12.3c-8.12,5.19-13.47,14.32-13.47,24.71v24.19
						c0,3.68,2.91,6.61,6.56,6.61h44.76C209.04,256.67,211.33,253.74,211.33,250.06z"/>
					<path d="M344.9,201.16c2.65-3.39,4.41-7.66,4.41-12.3c0-10.96-8.76-19.88-19.62-19.88s-19.67,8.92-19.67,19.88
						c0,4.64,1.62,8.91,4.27,12.3c-8.12,5.19-13.48,14.32-13.48,24.71v24.19c0,3.68,2.93,6.61,6.58,6.61h44.76
						c3.65,0,5.92-2.93,5.92-6.61v-24.19C358.07,215.49,353.01,206.35,344.9,201.16z"/>
					<path id="Shape_1_" d="M273.28,317.46c2.61-3.38,4.23-7.65,4.23-12.29c0-10.96-8.68-19.87-19.39-19.87s-19.4,8.91-19.4,19.87
						c0,4.64,1.39,8.91,4,12.29c-7.99,5.19-13.49,14.32-13.49,24.7v24.18c0,3.68,3.28,6.65,6.88,6.65h44.08
						c3.59,0,6.3-2.97,6.3-6.65v-24.18C286.49,331.78,281.27,322.65,273.28,317.46z M258.15,298.63c3.53,0,6.4,2.94,6.4,6.55
						c0,3.61-2.87,6.55-6.4,6.55c-3.53,0-6.4-2.94-6.4-6.55S254.62,298.63,258.15,298.63z M273.48,359.66h-31.23v-17.5
						c0-8.77,7.05-15.9,15.62-15.9c8.57,0,15.62,7.13,15.62,15.9V359.66z"/>
					<path d="M263.23,261.01v-21.2c0-3.53-2.8-6.4-6.26-6.4c-3.46,0-6.26,2.86-6.26,6.4v21.2c0,3.53,2.8,6.4,6.26,6.4
						C260.42,267.41,263.23,264.54,263.23,261.01z"/>
					<path d="M193.87,263.85c-2.66-2.51-6.84-2.4-9.36,0.25c-2.51,2.65-2.4,6.84,0.26,9.36l33.29,31.5
						c1.28,1.21,2.92,1.81,4.55,1.81c1.75,0,3.51-0.69,4.81-2.07c2.51-2.65,2.4-6.84-0.26-9.36L193.87,263.85z"/>
					<path d="M320.02,263.86l-33.26,31.52c-2.65,2.51-2.76,6.7-0.23,9.34c1.3,1.37,3.05,2.05,4.81,2.05c1.64,0,3.29-0.6,4.57-1.82
						l33.26-31.52c2.65-2.51,2.76-6.7,0.23-9.34C326.87,261.45,322.67,261.35,320.02,263.86z"/>
				</g>
			</g>
		</g>
	</g>
</g>
</svg>
