<svg xmlns="http://www.w3.org/2000/svg" width="13" height="17" viewBox="0 0 13 17">
    <path fill="#000" fill-rule="nonzero" d="M11.61 15.778c.242-.172.447-.189.69-.189.241 0 .372-.12.372-.361 0-.24.447-.017.298-.344-.15-.326-.67-1.254-.968-2.062-.298-.808-.726-2.389-1.08-3.162-.354-.773-2.327-3.952-2.625-4.657-.298-.704.398-1.976.398-1.976s.232-1.198.274-1.347c.015-.054-.036-.114-.107-.168a.288.288 0 0 0 .153-.245.276.276 0 0 0-.028-.118.274.274 0 0 0 .066-.171V.975c.25-.012.16-.102.496-.28.363-.194.028-.143.056-.349S9.479.114 9.38.024c-.097-.09-.21.103-.21.103-.571-.026-.097.4-.376.362-.131-.018-.167.09-.137.208-.14.032-.245.143-.245.281 0 .043.01.082.028.119a.275.275 0 0 0-.066.17l.001.007c-.074-.006-.15.022-.191.147 0 0-.214-.126-.308.1 0 0-.307-.014-.353.235 0 0-.847-.016-1.024.205-.177-.221-1.024-.205-1.024-.205-.046-.25-.354-.235-.354-.235-.093-.227-.307-.1-.307-.1-.04-.125-.118-.153-.191-.147v-.006a.276.276 0 0 0-.065-.171.27.27 0 0 0 .028-.119c0-.138-.106-.249-.245-.28.03-.119-.006-.226-.137-.208-.279.037.196-.388-.377-.362 0 0-.112-.194-.21-.103-.097.09-.25.115-.223.322.029.206-.307.154.056.348.337.179.246.268.497.28v.003c0 .065.027.122.065.171a.273.273 0 0 0-.027.119c0 .104.062.192.152.245-.07.054-.122.113-.107.168.042.148.274 1.347.274 1.347s.696 1.271.398 1.976c-.298.704-2.271 3.884-2.625 4.657-.354.773-.782 2.354-1.08 3.162-.297.807-.819 1.735-.968 2.062-.149.326.298.103.298.344 0 .24.13.36.373.36.242 0 .447.018.689.19.242.171.465.326.763.275.298-.052 1.434.24 1.527.446.093.206 1.023.72 1.452.395.373-.282 1.169-.36 1.368-.374.2.015.996.092 1.369.374.428.324 1.359-.189 1.452-.395.092-.206 1.229-.498 1.526-.446.298.05.521-.104.763-.276zM8.69.775c.05.099.144.185.272.197l.001.006a.192.192 0 0 1-.03.098.325.325 0 0 0-.237-.103.327.327 0 0 0-.18.057c-.004-.017-.011-.033-.011-.052 0-.102.08-.183.185-.203zm.184.366a.231.231 0 0 1-.32-.036.235.235 0 0 1 .142-.049c.073 0 .136.035.178.085zm-.378.03a.326.326 0 0 0 .238.102.328.328 0 0 0 .18-.057c.004.017.01.033.01.052 0 .086-.056.16-.137.193a1.874 1.874 0 0 0-.229-.118s-.035-.026-.085-.046c-.002-.01-.006-.019-.006-.03 0-.035.012-.067.029-.097zM4.038.977l.001-.006a.35.35 0 0 0 .272-.197c.104.02.185.101.185.203 0 .019-.007.035-.012.052a.329.329 0 0 0-.179-.058.326.326 0 0 0-.238.104.195.195 0 0 1-.03-.098zm.408.127a.231.231 0 0 1-.179.085.237.237 0 0 1-.14-.049.231.231 0 0 1 .178-.085c.054 0 .102.02.14.049zm.082.192a.48.48 0 0 0-.085.046s-.119.05-.229.118a.212.212 0 0 1-.138-.193c0-.019.007-.035.012-.052a.33.33 0 0 0 .179.057c.096 0 .18-.04.238-.103.017.03.03.062.03.098 0 .01-.005.019-.007.029z"/>
</svg>
