<?xml version="1.0"?>
<svg xmlns="http://www.w3.org/2000/svg" id="icons" enable-background="new 0 0 64 64" height="512px" viewBox="0 0 64 64" width="512px"><g><path d="m29.03 51h-.01c-.552 0-.994.447-.994 1s.452 1 1.005 1c.552 0 1-.447 1-1s-.449-1-1.001-1z" data-original="#000000" class="active-path" data-old_color="#000000" fill="#FFA500"/><path d="m32.03 52h-.01c-.552 0-.994.447-.994 1s.452 1 1.005 1c.552 0 1-.447 1-1s-.449-1-1.001-1z" data-original="#000000" class="active-path" data-old_color="#000000" fill="#FFA500"/><path d="m35.03 51h-.01c-.552 0-.994.447-.994 1s.452 1 1.005 1c.552 0 1-.447 1-1s-.449-1-1.001-1z" data-original="#000000" class="active-path" data-old_color="#000000" fill="#FFA500"/><path d="m63 48.002c-.553 0-1 .447-1 1v12.998h-9v-5.998c0-1.901-.765-3.626-2-4.89v-27.112-.001c-.003-10.475-8.525-18.995-19-18.995s-18.997 8.521-19 18.995v.001 27.113c-1.235 1.263-2 2.988-2 4.891l.001 5.996h-9.001v-12.998c0-.553-.447-1-1-1s-1 .447-1 1v13.998c0 .553.447 1 1 1h13.998c.553 0 1-.447 1-1s-.447-1-1-1h-1.997l-.001-5.996c0-2.758 2.244-5.002 5.002-5.002h3.584l9.707 9.705c.195.195.451.293.707.293s.512-.098.707-.293l9.707-9.705h3.586c2.757 0 5 2.243 5 5v5.998h-1.998c-.553 0-1 .447-1 1s.447 1 1 1h13.998c.553 0 1-.447 1-1v-13.998c0-.553-.447-1-1-1zm-14-23.998v25.684c-.911-.435-1.926-.686-3-.686h-7v-3.635c5.319-2.603 9-8.056 9-14.365v-4.002c0-2.757-2.243-5-5-5h-3c-3.859 0-7-3.141-7-7v-7.945c8.908.521 16 7.913 16 16.949zm-31 6.998v-3.834c0-.029-.015-.055-.017-.084.002-.029.017-.055.017-.084 0-1.654 1.346-3 3-3h3c3.483 0 6.505-1.993 8-4.896 1.495 2.903 4.517 4.896 8 4.896h3c1.654 0 3 1.346 3 3v4.002c0 7.72-6.28 14-14 14s-14-6.28-14-14zm13-23.947v7.945c0 3.859-3.141 7-7 7h-3c-2.757 0-5 2.243-5 5 0 .029.015.055.017.084-.002.029-.017.055-.017.084v3.834c0 6.31 3.681 11.762 9 14.365v3.635h-6.998c-1.075 0-2.091.251-3.002.686v-25.684c0-9.036 7.092-16.428 16-16.949zm1 51.531-7.586-7.584h1.586c.553 0 1-.447 1-1v-3.812c1.575.521 3.253.812 5 .812s3.425-.291 5-.812v3.812c0 .553.447 1 1 1h1.586z" data-original="#000000" class="active-path" data-old_color="#000000" fill="#FFA500"/><path d="m1 15.998c.553 0 1-.447 1-1v-12.998h12.998c.553 0 1-.447 1-1s-.447-1-1-1h-13.998c-.553 0-1 .447-1 1v13.998c0 .553.447 1 1 1z" data-original="#000000" class="active-path" data-old_color="#000000" fill="#FFA500"/><path d="m63 0h-13.998c-.553 0-1 .447-1 1s.447 1 1 1h12.998v12.998c0 .553.447 1 1 1s1-.447 1-1v-13.998c0-.553-.447-1-1-1z" data-original="#000000" class="active-path" data-old_color="#000000" fill="#FFA500"/><path d="m33 35v-2h2.001c.553 0 1-.447 1-1s-.447-1-1-1h-2.001v-2.002c0-.553-.447-1-1-1s-1 .447-1 1v2.002h-2.001c-.553 0-1 .447-1 1s.447 1 1 1h2.001v2c0 .553.447 1 1 1s1-.447 1-1z" data-original="#000000" class="active-path" data-old_color="#000000" fill="#FFA500"/></g> </svg>
