<svg xmlns="http://www.w3.org/2000/svg" xmlns:xlink="http://www.w3.org/1999/xlink" width="402.867" height="241.134" viewBox="0 0 402.867 241.134"><defs><clipPath id="a"><rect width="402.867" height="241.134" fill="none"/></clipPath><clipPath id="b"><rect width="601.07" height="241.134" fill="none"/></clipPath><linearGradient id="c" x1="0.5" y1="0.448" x2="0.5" y2="0.013" gradientUnits="objectBoundingBox"><stop offset="0" stop-color="#c9e7e2"/><stop offset="1" stop-color="#a4dce9"/></linearGradient><linearGradient id="d" x1="-2.869" y1="0.053" x2="-2.658" y2="0.426" gradientUnits="objectBoundingBox"><stop offset="0" stop-color="#fff"/><stop offset="1" stop-color="#fff" stop-opacity="0"/></linearGradient><linearGradient id="e" x1="-2.117" y1="0.031" x2="-1.824" y2="0.479" xlink:href="#d"/><linearGradient id="f" x1="0.04" y1="0.057" x2="0.474" y2="0.837" xlink:href="#d"/><linearGradient id="g" x1="2.332" y1="0.044" x2="2.842" y2="0.596" xlink:href="#d"/><linearGradient id="h" x1="0.594" y1="0.048" x2="1.138" y2="0.587" xlink:href="#d"/><linearGradient id="i" x1="2.914" y1="0.011" x2="3.168" y2="0.477" xlink:href="#d"/><clipPath id="j"><path d="M774.969,460.073l-1.5-15.759-.726-10.24-2.438-8.363-13.164-2.041-16.279,2.79-.78,3.161,3.13,29.274,15.7,1.177-.214-18.22,2.419,11.295-.1,6.926Z" transform="translate(-740.08 -423.67)" fill="none"/></clipPath></defs><g transform="translate(-75 -785)"><g transform="translate(-120 58)"><g transform="translate(195 727)"><g transform="translate(0 0)"><g clip-path="url(#a)"><g transform="translate(-42.663 9.147)" clip-path="url(#b)"><rect width="601.07" height="241.134" fill="url(#c)"/><path d="M1475.567,0l-93.009,238.535H1308.51L1406.534,0Z" transform="translate(-874.496)" opacity="0.34" fill="url(#d)"/><path d="M1243.745,0,1135.979,238.535H1097.39L1217.013,0Z" transform="translate(-744.07)" opacity="0.34" fill="url(#e)"/><path d="M840.07,0,721.406,238.535H642.05L766.321,0Z" transform="translate(-462.77)" opacity="0.34" fill="url(#f)"/><path d="M344.036,0,230.169,238.535H191.58L311.2,0Z" transform="translate(-184.478)" opacity="0.34" fill="url(#g)"/><path d="M702.66,0,580.006,238.535H563.15L682.773,0Z" transform="translate(-414.027)" opacity="0.34" fill="url(#h)"/><path d="M175.832,0,46.287,238.535H0L143.481,0Z" transform="translate(-66.124)" opacity="0.34" fill="url(#i)"/><path d="M774.067,425.6V291.92s-63.808-6.7-114.979.26-138.769,9.51-174.625-.26-129.909-12.843-177.892,2.8S173,283.894,173,283.894V425.6Z" transform="translate(-173 -184.467)" fill="#8ec9ce"/><path d="M774.067,466.3V356.36s-63.808-5.508-114.979.214-138.769,7.82-174.625-.214S354.543,345.8,306.57,358.653,173,349.759,173,349.759V466.3Z" transform="translate(-173 -225.167)" fill="#a5d0d6"/><path d="M774.067,508.932V423.858s-63.808-4.262-114.979.164-138.768,6.051-174.624-.164-129.909-8.176-177.892,1.785S173,418.763,173,418.763v90.169Z" transform="translate(-173 -267.802)" fill="#bfdade"/><path d="M774.067,549.542H173V506.5s57.834-22.085,256.851-22.085,344.2,16.367,344.2,16.367Z" transform="translate(-173 -308.412)" fill="#ffe3ac"/><path d="M173,569.61s77.3,10.974,303.906,10.974,297.16-10.974,297.16-10.974v32.561H173Z" transform="translate(-173 -361.041)" fill="#fcc787"/><circle cx="24.286" cy="24.286" r="24.286" transform="matrix(0.159, -0.987, 0.987, 0.159, 261.45, 70.483)" fill="#ffd600"/><circle cx="16.978" cy="16.978" r="16.978" transform="translate(272.327 33.391)" fill="#faac18"/><path d="M929.211,54.241a1.679,1.679,0,1,0-3.321.023l.061,7.671a1.677,1.677,0,1,0,3.322,0Z" transform="translate(-638.121 -41.475)" fill="#ffd600"/><path d="M929.211,230.031a1.678,1.678,0,1,0-3.321.019l.061,7.671a1.678,1.678,0,1,0,3.322-.019Z" transform="translate(-638.121 -150.075)" fill="#ffd600"/><path d="M989.1,84.24a1.67,1.67,0,1,0-2.374-2.293l-5.382,5.466a1.678,1.678,0,1,0,2.374,2.324Z" transform="translate(-672.005 -59.369)" fill="#ffd600"/><path d="M864.783,208.573a1.679,1.679,0,1,0-2.374-2.328l-5.389,5.466a1.679,1.679,0,1,0,2.374,2.328Z" transform="translate(-595.2 -136.173)" fill="#ffd600"/><path d="M1012.8,154.2a1.677,1.677,0,1,0,0-3.321l-7.671.057a1.68,1.68,0,1,0,.019,3.325Z" transform="translate(-685.894 -102.357)" fill="#ffd600"/><path d="M836.981,154.2a1.678,1.678,0,1,0-.019-3.321l-7.671.057a1.679,1.679,0,1,0,0,3.325Z" transform="translate(-577.263 -102.357)" fill="#ffd600"/><path d="M986.721,214.085a1.679,1.679,0,1,0,2.328-2.374l-5.466-5.382a1.679,1.679,0,1,0-2.328,2.374Z" transform="translate(-671.936 -136.238)" fill="#ffd600"/><path d="M862.417,89.779a1.679,1.679,0,1,0,2.328-2.374l-5.47-5.385a1.676,1.676,0,1,0-2.324,2.37Z" transform="translate(-595.143 -59.442)" fill="#ffd600"/><path d="M306.55,539.19c-4.415,3.784,33.865,9.877,43.741.94S316.441,530.716,306.55,539.19Z" transform="translate(-255.286 -338.498)" fill="#fcc787"/><path d="M438.344,556.286c-4.969,4.992,9.406,8.936,15.988,4.235S445.4,549.234,438.344,556.286Z" transform="translate(-336.292 -350.901)" fill="#fcc787"/><path d="M1045.313,563.594c-7.537,4.269,14.211,7.644,24.16,3.623S1055.973,557.555,1045.313,563.594Z" transform="translate(-710.936 -355.69)" fill="#fcc787"/><path d="M781.538,513.638c-13,6.727,25.865,7.052,35.741,2.351S795.175,506.586,781.538,513.638Z" transform="translate(-547.318 -324.24)" fill="#fcc787"/><path d="M656.61,541.492c-8.562,5.29,23.747,9.555,29.228,2.633S666.192,535.571,656.61,541.492Z" transform="translate(-470.878 -341.427)" fill="#fcc787"/><path d="M1164.993,494.613c-26.717,1.911-41.364,3.669-46,15.415-6.115,15.491,165.6,18.209,199.9,10.5C1358.858,511.514,1293.625,485.336,1164.993,494.613Z" transform="translate(-757.317 -313.498)" fill="#fcc787"/><path d="M941.439,237.422s-1.751-6.88.1-8.936,7.262-4.483,8.271-2.9a85.043,85.043,0,0,1,3.532,8.382Z" transform="translate(-647.264 -148.193)" fill="#fff588"/><path d="M949.106,227.5a71.7,71.7,0,0,1,3.192,7.484l3.509-1.021a86.583,86.583,0,0,0-3.532-8.382c-.894-1.414-5.351.382-7.595,2.259C946.606,226.986,948.548,226.619,949.106,227.5Z" transform="translate(-649.729 -148.192)" fill="#ffd26c"/><path d="M1179.65,192.9s5.451-9.888,8.879-13,57.581-6.15,63.368-3.172,7.576,17.07,7.04,21.672S1179.65,192.9,1179.65,192.9Z" transform="translate(-794.889 -117.577)" fill="#ffd26c"/><path d="M1196.353,185.462c3.058-2.756,45.748-5.447,59.576-3.971a10.012,10.012,0,0,0-4.032-4.82c-5.787-2.977-59.936.057-63.368,3.172s-8.879,13-8.879,13,4.074.524,10.366,1.277C1191.889,191.058,1194.438,187.2,1196.353,185.462Z" transform="translate(-794.889 -117.538)" fill="#fff588"/><path d="M890.92,292.089s.348,16.531,2,21.844a38.2,38.2,0,0,0,5.47,10.274s68.157,12.327,79.051,12.644,77.27-6.226,77.27-6.226l32.221-10.867a246.658,246.658,0,0,0,3.773-56.01c-1.475-30.952-8.791-45.052-10.037-46.34s-24.649-9.192-93.858-4.323c-56.041,3.941-78.867,16.023-84.061,19.875S891.253,245.975,890.92,292.089Z" transform="translate(-616.517 -139.817)" fill="#e84e41"/><path d="M1111.59,330.626l32.221-10.866a246.646,246.646,0,0,0,3.772-56.01c-1.475-30.952-8.791-45.052-10.037-46.34-1.059-1.078-17.716-6.823-63.987-5.76,14,1.494,35.134,7.029,42.178,26.446,10.87,29.97-10.912,55.154-56.442,75.6S983,326.235,983,326.235l11.371,4.8c17.3,2.909,34.878,5.657,39.95,5.821C1045.214,337.174,1111.59,330.626,1111.59,330.626Z" transform="translate(-673.402 -139.819)" fill="#cb4438"/><path d="M980.769,417.481s-4.51-30.627-2.427-43.221a268.755,268.755,0,0,1,5.58,43.256Z" transform="translate(-670.185 -240.357)" fill="#bf3f34"/><path d="M1277.746,429.688s-4.51-30.623-2.431-43.218a268.429,268.429,0,0,1,5.584,43.256Z" transform="translate(-853.65 -247.9)" fill="#bf3f34"/><path d="M890.436,437.711c-1.552,1.051,1.063,18.939,2.855,21.324s6.9,1.529,7.644,1.529-.164-17.834-.86-20.755S894.652,434.844,890.436,437.711Z" transform="translate(-615.926 -278.704)" fill="#fff57e"/><path d="M904.675,443.21c.352,3.325,1,11.3-.382,15.35-1.644,4.869-5.787,4.384-6.3,4.3v.019c.382.168,2.794,1.189,5,2.083,1.365.019,2.538-.145,2.859-.141.73,0-.164-17.834-.86-20.755A3.439,3.439,0,0,0,904.675,443.21Z" transform="translate(-620.885 -282.953)" fill="#ffd000"/><path d="M922.762,457.931c-.321.573-.382,9.368.436,9.938s3.172,1.219,3.727.405.191-9.1-.248-10.373S923.32,456.938,922.762,457.931Z" transform="translate(-636.052 -291.509)" fill="#fff57e"/><path d="M927.33,457.984a1.3,1.3,0,0,0-1.036-.764c.421,1.682.738,9.433.2,10.217-.42.615-1.861.382-2.9,0a.975.975,0,0,0,.252.516c.814.554,3.172,1.219,3.727.405S927.77,459.261,927.33,457.984Z" transform="translate(-636.706 -291.608)" fill="#ffd000"/><path d="M1393.426,413.09c-.914-1.235-8.719-1.433-10.461,2.553s-2.951,14.284-2.24,15.866,6.991,3.841,9.429,2.9S1396.056,416.637,1393.426,413.09Z" transform="translate(-918.981 -263.86)" fill="#ec1c24"/><path d="M1384.117,417.233c1.529-3.478,7.644-3.769,9.808-2.966a3.87,3.87,0,0,0-.539-1.177c-.914-1.235-8.719-1.433-10.461,2.553s-2.951,14.284-2.24,15.866a2.793,2.793,0,0,0,1.059,1.021C1381.388,429.846,1382.535,420.887,1384.117,417.233Z" transform="translate(-918.956 -263.86)" fill="#c2151c"/><path d="M1388.854,476.073c-.558-1.055-7.614-2.511-8.355-1.43s-.527,3.757.317,4.373,7.392.688,8,.21S1389.584,477.411,1388.854,476.073Z" transform="translate(-918.69 -302.137)" fill="#fff"/><path d="M1381.213,475.734c.661-.963,6.314.084,7.946,1.07a4.154,4.154,0,0,0-.306-.741c-.558-1.055-7.614-2.511-8.355-1.43s-.527,3.757.317,4.373a1.027,1.027,0,0,0,.13.065A4.629,4.629,0,0,1,1381.213,475.734Z" transform="translate(-918.69 -302.13)" fill="#fff100"/><path d="M896.8,301.879c-.929,2.676-4.564,34.377-3.023,42.552.516,2.733,22.039-1.4,24.844-7.186s.787-37.84-1.529-41.513S897.928,298.6,896.8,301.879Z" transform="translate(-618.048 -191.173)" fill="#cb4438"/><path d="M893.336,299.318c-.933,2.676-4.564,34.377-3.023,42.552.516,2.733,22.035-1.391,24.844-7.186s.784-37.84-1.529-41.509S894.463,296.05,893.336,299.318Z" transform="translate(-615.91 -189.594)" fill="#c4e8fa"/><path d="M918.593,293.169c-2.324-3.666-19.142,2.878-20.258,6.142a11.475,11.475,0,0,0-.325,1.475c3.818-3.383,17.223-8.145,19.279-4.911,2.16,3.409,4.048,31.342,2.056,39.911a4.7,4.7,0,0,0,.787-1.116C922.927,328.887,920.916,296.834,918.593,293.169Z" transform="translate(-620.897 -189.591)" fill="#91c6eb"/><path d="M992.923,276.484c-1.357,1.414-.122,27.294,2.588,28.965s18.553.764,19.673-1.6-.237-27.665-2.756-30.241S995.668,273.6,992.923,276.484Z" transform="translate(-679.19 -177.52)" fill="#cb4438"/><path d="M1076.974,263.459c-1.758,2.767,1.667,30.23,3.654,31.525s19.99,2.588,22.02.061,1.823-32.917-.7-34.782S1079.382,259.656,1076.974,263.459Z" transform="translate(-731.157 -169.406)" fill="#cb4438"/><path d="M995.423,272.86c-1.357,1.418-.122,27.3,2.588,28.968s18.553.764,19.673-1.6-.237-27.665-2.756-30.241S998.183,269.982,995.423,272.86Z" transform="translate(-680.735 -175.284)" fill="#c4e8fa"/><path d="M1079.474,259.82c-1.758,2.771,1.666,30.23,3.654,31.525s19.99,2.591,22.02.065,1.823-32.921-.7-34.782S1081.882,256.028,1079.474,259.82Z" transform="translate(-732.702 -167.162)" fill="#c4e8fa"/><path d="M1179.356,259.728c-2.5,2.446.933,30.769,3.822,32.439s21.259,2.786,24.038-1.368.13-28.024-2.381-31.342S1183.036,256.132,1179.356,259.728Z" transform="translate(-794.174 -167.915)" fill="#cb4438"/><path d="M1276.65,256.122c-1.911,2.293-1.231,28.923,1.663,30.578s20.885,3.692,23.315-.833,2.133-28-.023-30.578S1280.892,251.073,1276.65,256.122Z" transform="translate(-854.148 -165.345)" fill="#f6921e"/><path d="M1175.6,255.881c-2.5,2.446.929,30.769,3.822,32.439s21.263,2.786,24.038-1.368.13-28.028-2.377-31.342S1179.279,252.284,1175.6,255.881Z" transform="translate(-791.854 -165.539)" fill="#c4e8fa"/><path d="M1272.888,252.272c-1.911,2.293-1.235,28.923,1.659,30.578s20.888,3.688,23.315-.833,2.133-28-.023-30.578S1277.13,247.223,1272.888,252.272Z" transform="translate(-851.823 -162.967)" fill="#c4e8fa"/><path d="M1015.182,269.987c-2.519-2.576-16.745,0-19.493,2.874a3.964,3.964,0,0,0-.409,1.777c3.922-2.626,16.435-4.7,18.794-2.293,2.232,2.293,3.547,22.379,3.058,28.586a1.8,1.8,0,0,0,.829-.7C1019.058,297.874,1017.7,272.563,1015.182,269.987Z" transform="translate(-680.989 -175.285)" fill="#91c6eb"/><path d="M1104.613,256.631c-2.526-1.85-22.551-.615-24.97,3.176a4.263,4.263,0,0,0-.382,1.617c4.331-3.211,21.878-4.162,24.233-2.439,2.228,1.628,2.653,25.471,1.326,32.8a1.73,1.73,0,0,0,.5-.382C1107.345,288.89,1107.139,258.493,1104.613,256.631Z" transform="translate(-732.87 -167.165)" fill="#91c6eb"/><path d="M1177.4,257.376c3.249-3.18,18.66-3.524,23.954-1.288a3.608,3.608,0,0,0-.275-.451c-2.511-3.3-21.787-3.337-25.483.26-2.5,2.446.929,30.769,3.822,32.439a5.091,5.091,0,0,0,1.005.382C1177.752,283.2,1175.122,259.609,1177.4,257.376Z" transform="translate(-791.848 -165.556)" fill="#91c6eb"/><path d="M1274.692,253.764c3.719-4.43,18.442-3.692,23.457-1.709a2.3,2.3,0,0,0-.321-.581c-2.156-2.572-20.7-4.235-24.94.814-1.911,2.293-1.235,28.923,1.659,30.578a5.675,5.675,0,0,0,1.07.432C1273.354,278.058,1272.945,255.839,1274.692,253.764Z" transform="translate(-851.823 -162.983)" fill="#91c6eb"/><path d="M1377.985,256.051c-.631-.978-9.254-2.469-11.291.784s-4.495,27.432-1.254,30.578,15.782,4.545,17.437,3.107S1386.214,268.894,1377.985,256.051Z" transform="translate(-908.696 -166.585)" fill="#c4e8fa"/><path d="M1374.623,258.9c-.63-.978-9.257-2.469-11.295.764s-4.491,27.432-1.25,30.578,15.782,4.545,17.437,3.107S1382.864,271.728,1374.623,258.9Z" transform="translate(-906.618 -168.341)" fill="#f6921e"/><path d="M1377.985,256.051c-.631-.978-9.254-2.469-11.291.784s-4.495,27.432-1.254,30.578,15.782,4.545,17.437,3.107S1386.214,268.894,1377.985,256.051Z" transform="translate(-908.696 -166.585)" fill="#c4e8fa"/><path d="M1368.311,258.7c1.728-2.756,8.187-2.106,10.5-1.246q-.382-.7-.826-1.376c-.631-.979-9.254-2.469-11.291.784s-4.495,27.432-1.254,30.578a5.7,5.7,0,0,0,.963.722C1364.2,282.462,1366.43,261.7,1368.311,258.7Z" transform="translate(-908.696 -166.604)" fill="#91c6eb"/><path d="M1024.474,398.9c-.764.562-.619,1.33.225,1.823s6.9,1.292,7.644.692,1.361-2.045.516-2.676S1025.453,398.2,1024.474,398.9Z" transform="translate(-698.716 -255.219)" fill="#41322b"/><path d="M1032.864,399.207a1.392,1.392,0,0,0-.413-.157,2.591,2.591,0,0,1-.91,1.812c-.715.581-6.452-.153-7.541-.65a1.238,1.238,0,0,0,.715.967c.841.5,6.9,1.292,7.644.692S1033.708,399.826,1032.864,399.207Z" transform="translate(-698.731 -255.672)" fill="#342620"/><path d="M1325.053,387.045c-.764.558-.619,1.326.222,1.819s6.9,1.292,7.644.7,1.357-2.049.516-2.676S1326.032,386.318,1325.053,387.045Z" transform="translate(-884.408 -247.89)" fill="#41322b"/><path d="M1333.444,387.331a1.318,1.318,0,0,0-.413-.161,2.576,2.576,0,0,1-.91,1.812c-.715.585-6.452-.153-7.541-.65a1.243,1.243,0,0,0,.711.967c.845.5,6.9,1.292,7.644.7S1334.3,387.946,1333.444,387.331Z" transform="translate(-884.424 -248.333)" fill="#342620"/><path d="M1072.7,433.221s-4.537-49.8-2.026-57.291c0,0,5.313,45.438,4.931,58.051" transform="translate(-727.099 -241.389)" fill="#bf3f34"/><path d="M1363.3,413.45s-.382-50,2.733-57.26c0,0,1.529,45.721.1,58.258" transform="translate(-908.333 -229.194)" fill="#bf3f34"/><path d="M917.542,496.613S902.616,494.347,895.27,492c-3.142-1.005-5.886,5.756,1.586,10.209s73.126,13.68,104.193,13.053,72.186-5.527,89.21-13.8c3.417-1.663-.6-11.168-4.74-10.247s-54.275,15.411-92.363,13.76S917.542,496.613,917.542,496.613Z" transform="translate(-617.228 -312.567)" fill="#fcb813"/><path d="M1086.748,491.209c-.344.08-1.021.252-1.976.5.478,1.911.268,3.734-1.051,4.376-17.02,8.275-58.139,13.183-89.206,13.806-28.055.562-84.3-6.907-100.455-11.639a10.384,10.384,0,0,0,4.025,3.948c7.472,4.453,73.126,13.68,104.193,13.053s72.186-5.527,89.21-13.8C1094.9,499.793,1090.88,490.288,1086.748,491.209Z" transform="translate(-618.457 -312.567)" fill="#f6921e"/><path d="M970.029,475.925c-11.577,1.147-20.04,10.06-15.629,22.574s16.909,17.659,27.573,7.771S989.889,473.968,970.029,475.925Z" transform="translate(-655 -303.09)" fill="#41322b"/><path d="M992.783,480.91c7.453,6.383,6.693,19.875-.936,26.939-6.383,5.921-13.424,6.452-19,3.241,5.836,4.827,13.97,5.087,21.251-1.666C1002.438,501.7,1002.583,486.334,992.783,480.91Z" transform="translate(-667.132 -306.243)" fill="#342620"/><path d="M994.318,508.066a10.373,10.373,0,1,1-10.263-10.477,10.373,10.373,0,0,1,10.263,10.477Z" transform="translate(-667.578 -316.547)" fill="#342620"/><circle cx="10.373" cy="10.373" r="10.373" transform="translate(301.588 196.421) rotate(-68.89)" fill="#fcb813"/><path d="M988.443,496.138a10.362,10.362,0,0,1-7.209,17.926,10.5,10.5,0,0,1-2.614-.382,10.366,10.366,0,1,0,9.823-17.552Z" transform="translate(-670.697 -315.646)" fill="#f6921e"/><path d="M986.943,508.609a1.911,1.911,0,1,1-1.911-1.949A1.934,1.934,0,0,1,986.943,508.609Z" transform="translate(-673.477 -322.151)" fill="#4b3b34"/><path d="M986.618,507.25a1.916,1.916,0,0,1-2.328,2.97,1.911,1.911,0,1,0,2.328-2.97Z" transform="translate(-674.2 -322.516)" fill="#41322b"/><path d="M1007,508.849a1.911,1.911,0,1,1-1.911-1.949A1.93,1.93,0,0,1,1007,508.849Z" transform="translate(-685.87 -322.3)" fill="#4b3b34"/><path d="M1006.682,507.47a1.921,1.921,0,0,1-1.468,3.2,1.886,1.886,0,0,1-.864-.226,1.911,1.911,0,1,0,2.332-2.97Z" transform="translate(-686.592 -322.652)" fill="#41322b"/><path d="M986.713,528.559a1.911,1.911,0,1,1-.546-1.376A1.911,1.911,0,0,1,986.713,528.559Z" transform="translate(-673.335 -334.476)" fill="#4b3b34"/><path d="M986.4,527.19a1.911,1.911,0,0,1-2.328,2.974,1.911,1.911,0,1,0,2.328-2.974Z" transform="translate(-674.063 -334.834)" fill="#41322b"/><path d="M1006.823,528.779a1.911,1.911,0,1,1-.546-1.376,1.911,1.911,0,0,1,.546,1.376Z" transform="translate(-685.759 -334.612)" fill="#4b3b34"/><path d="M1006.458,527.42a1.911,1.911,0,0,1-1.464,3.192,1.879,1.879,0,0,1-.864-.222,1.928,1.928,0,1,0,2.328-2.97Z" transform="translate(-686.456 -334.976)" fill="#41322b"/><path d="M1288.688,479.485c-11.581,1.147-20.04,10.06-15.629,22.574s16.909,17.662,27.573,7.771S1308.548,477.524,1288.688,479.485Z" transform="translate(-851.861 -305.288)" fill="#41322b"/><path d="M1311.449,484.47c7.453,6.387,6.7,19.875-.933,26.943-6.387,5.921-13.427,6.448-19,3.237,5.833,4.827,13.97,5.087,21.251-1.666C1321.1,505.259,1321.249,489.894,1311.449,484.47Z" transform="translate(-864 -308.443)" fill="#342620"/><path d="M1312.978,511.637a10.373,10.373,0,1,1-10.255-10.488A10.373,10.373,0,0,1,1312.978,511.637Z" transform="translate(-864.44 -318.746)" fill="#342620"/><path d="M1309.468,509.217a10.373,10.373,0,1,1-10.259-10.488A10.373,10.373,0,0,1,1309.468,509.217Z" transform="translate(-862.272 -317.251)" fill="#fcb813"/><path d="M1307.129,499.71a10.351,10.351,0,0,1-9.819,17.552,10.366,10.366,0,1,0,9.819-17.552Z" transform="translate(-867.577 -317.858)" fill="#f6921e"/><path d="M1305.593,512.169a1.911,1.911,0,1,1-.546-1.376A1.911,1.911,0,0,1,1305.593,512.169Z" transform="translate(-870.333 -324.351)" fill="#4b3b34"/><path d="M1305.238,510.81a1.911,1.911,0,0,1-2.328,2.97,1.928,1.928,0,1,0,2.328-2.97Z" transform="translate(-871.037 -324.715)" fill="#41322b"/><path d="M1325.663,512.4a1.911,1.911,0,1,1-1.911-1.949,1.934,1.934,0,0,1,1.911,1.949Z" transform="translate(-882.732 -324.493)" fill="#4b3b34"/><path d="M1325.338,511a1.917,1.917,0,0,1-2.328,2.974,1.911,1.911,0,1,0,2.328-2.974Z" transform="translate(-883.454 -324.832)" fill="#41322b"/><path d="M1305.373,532.119a1.911,1.911,0,1,1-.546-1.376,1.911,1.911,0,0,1,.546,1.376Z" transform="translate(-870.197 -336.675)" fill="#4b3b34"/><path d="M1305.058,530.75a1.911,1.911,0,0,1-2.328,2.974,1.911,1.911,0,1,0,2.328-2.974Z" transform="translate(-870.925 -337.034)" fill="#41322b"/><path d="M1325.433,532.343a1.911,1.911,0,1,1-.544-1.378A1.911,1.911,0,0,1,1325.433,532.343Z" transform="translate(-882.59 -336.811)" fill="#4b3b34"/><path d="M1325.118,531a1.911,1.911,0,0,1-1.464,3.2,1.884,1.884,0,0,1-.864-.226,1.928,1.928,0,1,0,2.328-2.97Z" transform="translate(-883.318 -337.188)" fill="#41322b"/><path d="M901.593,313.745s-2.9-.52-3.662,1.911-2.89,19.875-1.529,27.405C896.414,343.049,896.926,319.031,901.593,313.745Z" transform="translate(-619.63 -202.943)" fill="#fff"/><path d="M903.175,320.554c-1.4-1.074-4.9,4.311-2.748,7.006S905.1,322.033,903.175,320.554Z" transform="translate(-621.968 -207.092)" fill="#fff"/><path d="M909.65,267.565s5.688-9.4,28.575-16.435C938.225,251.141,915.9,252.609,909.65,267.565Z" transform="translate(-628.088 -164.29)" fill="#fff"/><path d="M894.459,444.42s-.829,8.971,2.022,14.582C896.481,459,897.077,449.06,894.459,444.42Z" transform="translate(-618.634 -283.701)" fill="#fff"/><path d="M1206,185.947a87.351,87.351,0,0,1,32.313-3.52S1215.938,187.514,1206,185.947Z" transform="translate(-811.168 -121.688)" fill="#fff"/><path d="M1000.851,289.44a33.292,33.292,0,0,0,1.032,16.271S1003.707,294.325,1000.851,289.44Z" transform="translate(-684.083 -187.957)" fill="#fff"/><path d="M1085.114,275.15a31.306,31.306,0,0,0,.554,15.778S1088.681,281.743,1085.114,275.15Z" transform="translate(-736.014 -179.129)" fill="#fff"/><path d="M1186.954,270a25.208,25.208,0,0,0,.054,16.745C1187.008,286.726,1189.794,276.567,1186.954,270Z" transform="translate(-798.52 -175.947)" fill="#fff"/><path d="M1283.182,265.3a51.526,51.526,0,0,0,.539,16.749S1286.74,272.375,1283.182,265.3Z" transform="translate(-858.57 -173.044)" fill="#fff"/><path d="M1378.434,270.21a17.445,17.445,0,0,0-1.376,14.543S1380.78,277.514,1378.434,270.21Z" transform="translate(-916.235 -176.077)" fill="#fff"/><path d="M980.525,500.09s-6.823,2.351-5.233,12.074C975.293,512.164,971.039,502.169,980.525,500.09Z" transform="translate(-668.054 -318.092)" fill="#fff"/><path d="M1299.236,504.29s-6.085,1.628-5.47,11.585C1293.766,515.875,1290.254,504.431,1299.236,504.29Z" transform="translate(-864.97 -320.687)" fill="#fff"/><path d="M944.516,232.94s-2.676.363-1.563,5.852C942.953,238.792,942.62,234.492,944.516,232.94Z" transform="translate(-648.495 -153.052)" fill="#fff"/><path d="M1101.7,97.064h41.715c8,0,4.354-8.428,0-7.866,0,0,.138-8.409-8.848-6.46,0,0-.986-8.848-10.4-8.569s-10.392,9.968-9.555,11.444c0,0-8.286-2.874-9.972,5.271,0,0-4.353-.138-5.057,1.827S1099.73,97.064,1101.7,97.064Z" transform="translate(-745.276 -54.963)" fill="#fff"/><path d="M559.31,77.8h31.533c6.05,0,3.291-6.368,0-5.944,0,0,.1-6.372-6.689-4.885,0,0-.745-6.689-7.858-6.475s-7.855,7.534-7.216,8.65c0,0-6.265-2.175-7.537,3.983,0,0-3.291-.107-3.822,1.38S557.823,77.8,559.31,77.8Z" transform="translate(-410.558 -46.52)" fill="#fff"/><path d="M1495.241,122.584h38.386c7.365,0,4.006-7.755,0-7.235,0,0,.13-7.755-8.141-5.947,0,0-.906-8.141-9.556-7.881s-9.555,9.173-8.791,10.53c0,0-7.625-2.649-9.173,4.847,0,0-4.006-.126-4.652,1.682S1493.437,122.584,1495.241,122.584Z" transform="translate(-988.525 -71.86)" fill="#fff"/><path d="M195.54,191.126h27.776c5.332,0,2.9-5.611,0-5.236,0,0,.1-5.611-5.894-4.3a6.5,6.5,0,0,0-6.918-5.707c-6.265.187-6.922,6.635-6.36,7.621,0,0-5.519-1.911-6.643,3.509,0,0-2.9-.1-3.364,1.215S194.229,191.126,195.54,191.126Z" transform="translate(-185.958 -117.801)" fill="#fff"/><path d="M961.932,548.6l.023-.046s.023-.05.034-.08l.027-.057.054-.134c0-.031.023-.054.034-.088s.042-.115.069-.18.023-.069.038-.107.05-.145.076-.226.027-.076.042-.118.053-.172.08-.264.023-.08.038-.126.05-.191.077-.291a.846.846,0,0,0,.031-.138c.008-.046.046-.206.069-.31l.023-.141a2.486,2.486,0,0,1,.05-.325v-.138a1.4,1.4,0,0,1,.027-.333v-.138a3.14,3.14,0,0,0,0-.329V544.9a3.019,3.019,0,0,0-.046-.317.211.211,0,0,0-.027-.122c-.027-.1-.053-.2-.088-.3l-.05-.1a1.947,1.947,0,0,0-.141-.283c-.019-.027-.042-.053-.061-.084a2.2,2.2,0,0,0-.206-.252c-.023,0-.05-.034-.069-.053a2,2,0,0,0-.73-.424c-3.467-1.147-9.093,3.761-9.093,3.761s-8.237-1.693-10.737-.657l-.073.031a1.613,1.613,0,0,0-.279.157.176.176,0,0,0-.073.153.529.529,0,0,0,.061.241,2.314,2.314,0,0,0,.18.31,7.731,7.731,0,0,0,.642.787c.264.29.573.6.9.921s.665.638,1,.944c1.181,1.078,2.293,2,2.293,2s-7.835,2.079-9.628,4.587h0a2.12,2.12,0,0,0-.218.382h0a1.751,1.751,0,0,0-.111.329.7.7,0,0,0,0,.088,1.51,1.51,0,0,0,0,.264v.1a1.257,1.257,0,0,0,.084.344c.275.688,1.208,1.043,2.5,1.181.187,0,.382.034.577.046.382,0,.818.027,1.258,0a68.073,68.073,0,0,0,11.967-1.873,25.637,25.637,0,0,0,2.228,2.4,14.412,14.412,0,0,0,4.059,2.844,4.777,4.777,0,0,0,2.179.405c3.765-.313.294-6.937.294-6.937s1.445-.413,3.123-.982a29.3,29.3,0,0,0,4.063-1.647,2.5,2.5,0,0,0,.986-.764C970.085,551.112,961.932,548.6,961.932,548.6Z" transform="translate(-644.469 -344.469)" fill="#fcc787"/><path d="M960.025,539.269c-3.467-1.147-9.093,3.761-9.093,3.761s-9.15-1.88-11.084-.47c-.764.566,5,5.351,5,5.351s-11.149,2.958-9.9,6.093,16.3-.627,16.3-.627,4.705,5.959,8.466,5.645.294-6.937.294-6.937,7.545-2.156,8.172-3.409-7.526-3.765-7.526-3.765S962.849,540.206,960.025,539.269Z" transform="translate(-643.658 -342.189)" fill="#da3080"/><path d="M960.027,552.687s7.545-2.156,8.172-3.409-7.526-3.765-7.526-3.765,1.946-4.174-.191-5.443c.986,2.37-1.3,5.351-1.3,5.351s7.683,2.584,6.115,3.761-6.115,2.274-6.115,2.274,1.8,5.252-.627,5.642-6.5-4.858-6.5-4.858-10.58,2.744-14.734,2.037c-1.326-.226-1.911-.673-2.083-1.181a1.529,1.529,0,0,0-.268,1.495c1.254,3.134,16.3-.627,16.3-.627s4.705,5.959,8.466,5.645S960.027,552.687,960.027,552.687Z" transform="translate(-643.68 -342.791)" fill="#bc266f"/><path d="M954.419,552.361s-4.866-3.058-5.924-5.011a2.169,2.169,0,0,0-.707.31c-.764.566,5,5.351,5,5.351C953.7,552.628,954.419,552.361,954.419,552.361Z" transform="translate(-651.605 -347.289)" fill="#bc266f"/><path d="M968.4,543.97c-.764-.57-6.429,3.44-6.429,3.44s-5.328-1.254-5.955-.627,2.675,3.44,2.675,3.44S951.7,552.739,951.7,554s11.054-1.265,11.054-1.265,3.291,3.685,4.7,3.211-.382-3.918-.382-3.918,4.235-.55,4.311-1.334-4.388-2.74-4.388-2.74S969.336,544.674,968.4,543.97Z" transform="translate(-654.066 -345.167)" fill="#ee5595"/><path d="M465.215,520.351a5.989,5.989,0,0,0-1.858-1.005c-.268-.107-.539-.21-.8-.3s-.5-.176-.707-.245c-.413-.141-.692-.229-.692-.229v-.027l.019-.042v-.031l.034-.08a.363.363,0,0,0,0-.038.363.363,0,0,1,.042-.111.228.228,0,0,1,.019-.046.465.465,0,0,1,.042-.13l.023-.061a.562.562,0,0,1,.042-.145l.023-.073a.849.849,0,0,1,.038-.157.553.553,0,0,0,.019-.076,1,1,0,0,1,.038-.172V517.3a1.393,1.393,0,0,1,.027-.176v-.26a.491.491,0,0,0,0-.076v-.252a1.392,1.392,0,0,0-.023-.176c0-.019,0-.042,0-.065a1.019,1.019,0,0,0-.05-.164.38.38,0,0,0-.027-.061,1.153,1.153,0,0,0-.076-.153l-.034-.046a.988.988,0,0,0-.115-.138l-.034-.031a1.112,1.112,0,0,0-.4-.233c-1.911-.634-4.992,2.064-4.992,2.064s-4.143-.849-5.7-.42h0l-.038.019a1.087,1.087,0,0,0-.348.153c-.428.31,2.741,2.935,2.741,2.935s-4.308,1.147-5.278,2.534h0c-.031.046-.054.092-.08.138a.287.287,0,0,0-.031.057.851.851,0,0,0-.076.268.462.462,0,0,0,0,.073.669.669,0,0,0,.046.283h0a.665.665,0,0,0,.214.283,1.386,1.386,0,0,0,.382.2,3.938,3.938,0,0,0,1.108.191,33.064,33.064,0,0,0,7.262-1.017s.252.321.661.764a7.783,7.783,0,0,0,.562.566,11.031,11.031,0,0,0,1.047.875,5.7,5.7,0,0,0,1.181.684,2.638,2.638,0,0,0,1.2.222.948.948,0,0,0,.764-.417,1.181,1.181,0,0,0,.172-.543,2.606,2.606,0,0,0-.031-.661,5.068,5.068,0,0,0-.161-.7,9.528,9.528,0,0,0-.6-1.491s4.143-1.185,4.487-1.873A.223.223,0,0,0,465.215,520.351Z" transform="translate(-342.251 -327.537)" fill="#fcc787"/><path d="M459.021,513.014c-1.911-.634-4.992,2.064-4.992,2.064s-5.022-1.032-6.089-.256c-.428.31,2.744,2.935,2.744,2.935s-6.116,1.624-5.431,3.344,8.948-.344,8.948-.344,2.584,3.272,4.648,3.1.161-3.822.161-3.822,4.143-1.181,4.487-1.869-4.132-2.068-4.132-2.068S460.573,513.53,459.021,513.014Z" transform="translate(-341.16 -326.017)" fill="#f89c1c"/><path d="M459.007,520.382s4.143-1.181,4.487-1.869-4.132-2.068-4.132-2.068,1.07-2.293-.1-2.985c.539,1.3-.715,2.943-.715,2.943s4.2,1.422,3.36,2.064a13.37,13.37,0,0,1-3.36,1.25s.99,2.882-.344,3.1-3.57-2.676-3.57-2.676-5.81,1.506-8.092,1.116c-.726-.122-1.043-.382-1.147-.646a.818.818,0,0,0-.145.818c.688,1.724,8.948-.344,8.948-.344s2.584,3.272,4.648,3.1S459.007,520.382,459.007,520.382Z" transform="translate(-341.157 -326.352)" fill="#f37721"/><path d="M455.957,520.2s-2.676-1.667-3.249-2.752a1.145,1.145,0,0,0-.382.172c-.428.31,2.744,2.935,2.744,2.935C455.563,520.336,455.957,520.2,455.957,520.2Z" transform="translate(-345.538 -328.817)" fill="#f37721"/><path d="M463.632,515.592c-.417-.31-3.532,1.911-3.532,1.911s-2.924-.688-3.268-.344,1.46,1.892,1.46,1.892-3.822,1.376-3.822,2.064,6.07-.688,6.07-.688,1.808,2.022,2.58,1.766-.214-2.152-.214-2.152,2.324-.3,2.366-.73-2.408-1.506-2.408-1.506S464.148,515.982,463.632,515.592Z" transform="translate(-346.887 -327.651)" fill="#fbb216"/></g><g transform="translate(-40.989 240.405)" opacity="0.4"><path d="M339.705,628.982a277.821,277.821,0,0,0-31.067,1.491c-3.9.451-7.717,1.441-11.627,1.842-7.809.8-15.476,2.293-23.315,2.977-6.307.554-12.644.883-18.935,1.586a64.151,64.151,0,0,1-18.282-.6c-4.334-.8-8.688-1.258-12.946-2.553a50.992,50.992,0,0,0-14.907-2.446c-7.083.054-13.978.061-20.755,2.618a20.268,20.268,0,0,0-7.094,4.254c-4.136,4.315-4.7,15.075-.566,19.547,6.953,7.526,21.786,10.48,31.541,10.618,10.683.153,21.06-.673,31.759-1.147,9.938-.451,19.852-1.093,29.813-1.07,20.334.046,40.672,0,60.972-1.414,19.069-1.326,38.187-.871,57.3-.871,19.6,0,39.067.161,58.525,2.87,8.478,1.181,17.112,1.594,25.635,2.419,7.644.742,14.964,0,22.551-.7a52.166,52.166,0,0,0,18.519-5.16c4.587-2.293,12.774-9.368,14.18-14.811,3.944-15.266-55.605-14.907-64.752-14.865-10.228.038-20.537.382-30.757,0a69.847,69.847,0,0,1-12.732-2c-4.193-.959-8.409-.711-12.613-1.112-17.678-1.67-35.39-1.426-53.128-1.426C351.252,629,345.477,628.947,339.705,628.982Z" transform="translate(-177.381 -628.971)" fill="#f7f7f7"/></g><path d="M801.64,500.56l.183,11.023c-.076,3.058.2,6.115.382,9.173.172,2.828-.382,5.733.944,8.371.424.826,1.319,1.4,2,.447.527-.734.287-2,.417-2.851.975-6.387,2.79-12.613,3.7-19.023C810.213,500.977,807.622,501.152,801.64,500.56Z" transform="translate(-604.025 -309.236)" fill="#eac1a4"/><path d="M802.137,545.778l-.707,1.842,3.486,3.069,3.2.13,1.032-1.686-4.3-3.734Z" transform="translate(-603.895 -327.791)" fill="#3b455a"/><path d="M766.82,499.8l-1.991,10.84c-.7,4.847-2.293,9.556-2.977,14.417a12.62,12.62,0,0,1-.543,3.386c-.466,1.051-1.349,1.07-2.137.382-1.055-.933-.57-2.6-.55-3.883.13-8.508-.539-16.9-.7-25.418a.281.281,0,0,1,.348-.363C759.095,499.208,766.777,500.033,766.82,499.8Z" transform="translate(-577.013 -308.369)" fill="#eac1a4"/><path d="M757.865,547.58l-1.1,1.632,2.7,3.776,3.085.849,1.384-1.41-3.341-4.606Z" transform="translate(-576.299 -329.138)" fill="#3b455a"/><g transform="translate(174.086 161.935)" clip-path="url(#j)"><path d="M756.234,487.8l-.069-.161a.482.482,0,0,0-.642-.168c-1.235.554-1.823,3.115-2.16,4.281-.443,1.548-1.036,3.8-.6,5.389a.443.443,0,0,0,.845,0c.413-1.43.287-3.027.638-4.5a20.173,20.173,0,0,1,.592-1.991c.195-.535.6-2.159,1.2-2.385a.325.325,0,0,0,.191-.466Z" transform="translate(-747.822 -463.049)" fill="none"/><path d="M755.282,462.8a1.3,1.3,0,0,0-1.663-.879,1.5,1.5,0,0,0-1,1.735,1.41,1.41,0,0,0,1.338,1.04h.092a1.265,1.265,0,0,0,1.147-.841,1.181,1.181,0,0,0,.057-.512A1.09,1.09,0,0,0,755.282,462.8Z" transform="translate(-747.806 -447.258)" fill="none"/><path d="M773.426,507.81a2.178,2.178,0,0,0-3.757-.176c-.348-.31-.585-.726-1.082-.879a2.293,2.293,0,0,0-1.6.222c-.726.333-1.43.94-1.021,1.77.061.13.241.08.283-.034.291-.849,1.617-1.6,2.419-.963.352.275.5.654.929.872a.432.432,0,0,0,.585-.157,1.335,1.335,0,0,1,2.45-.191C772.937,508.78,773.735,508.306,773.426,507.81Z" transform="translate(-755.997 -474.927)" fill="none"/><path d="M781.457,498.812c-.245-2.095-2.928-2.439-4.2-1.089-.845-.6-2.171-.791-2.347.539-.038.29.355.306.489.13l1.529.21a.459.459,0,0,0,.764,0c.52-.818,2.542-1.173,2.675.21C780.437,499.507,781.541,499.5,781.457,498.812Z" transform="translate(-761.593 -468.922)" fill="none"/><path d="M759.4,479.958a5.583,5.583,0,0,0-5.393-.531,4.083,4.083,0,0,0,.2-.573,5.206,5.206,0,0,1,1.72-.864c.856-.248,1.831,0,2.63-.3a.164.164,0,0,0,.073-.271c-.764-.734-2.316-.382-3.218-.1a5.851,5.851,0,0,0-1.032.462,6.784,6.784,0,0,0-.577-3.127c-.149-.321-.638-.092-.554.233a8.335,8.335,0,0,1,.329,2.435,5.536,5.536,0,0,1-.195,1.173c-.153.134-.3.279-.443.432a6.022,6.022,0,0,0-1.147-2.385,2.76,2.76,0,0,0-2.744-.94.161.161,0,0,0,0,.306,3.906,3.906,0,0,1,2.7,1.911A5.737,5.737,0,0,1,752.1,479a4.76,4.76,0,0,0-1.4,0c-.764.092-2.022.233-2.186,1.181a.16.16,0,0,0,.233.18c.9-.5,2.633-1.089,3.677-.485a10.174,10.174,0,0,0-1.33.829c-.508.382-1.177.764-1.372,1.4a.226.226,0,0,0,.271.271,5.941,5.941,0,0,0,1.716-1.078c.268-.172.539-.336.81-.489a4.063,4.063,0,0,1,.359,1.605c-.023.707-.268,1.384-.333,2.087-.023.271.344.317.474.13a4.268,4.268,0,0,0,.382-4.078.42.42,0,0,0,.256-.046l.214-.1a4.2,4.2,0,0,1,1.594,1.147,3.184,3.184,0,0,1,.638,1.911.241.241,0,0,0,.382.107c.654-.764.13-1.953-.44-2.626a5.445,5.445,0,0,0-1.028-.944,8.683,8.683,0,0,1,4.109.382C759.4,480.451,759.623,480.126,759.4,479.958Z" transform="translate(-745.286 -455.075)" fill="none"/><path d="M819.441,448.852l-.073-.161a.478.478,0,0,0-.638-.168c-1.235.554-1.827,3.115-2.16,4.281-.447,1.548-1.04,3.8-.6,5.389a.443.443,0,0,0,.845,0c.413-1.43.287-3.027.638-4.5a18.291,18.291,0,0,1,.592-1.991c.191-.535.6-2.16,1.2-2.385a.329.329,0,0,0,.191-.466Z" transform="translate(-786.868 -438.987)" fill="none"/><path d="M795.9,496.345a1.3,1.3,0,0,0-1.663-.875,1.5,1.5,0,0,0-1.005,1.731,1.414,1.414,0,0,0,1.338,1.043h.084a1.258,1.258,0,0,0,1.147-.837,1.147,1.147,0,0,0,.061-.516,1.185,1.185,0,0,0,.038-.547Z" transform="translate(-772.894 -467.984)" fill="none"/><path d="M819.866,492.37a2.176,2.176,0,0,0-3.757-.172c-.352-.31-.585-.73-1.082-.883a2.317,2.317,0,0,0-1.6.225c-.726.329-1.429.936-1.021,1.77a.153.153,0,0,0,.279-.038c.294-.849,1.617-1.594,2.423-.963.352.279.5.657.925.871a.436.436,0,0,0,.589-.153,1.334,1.334,0,0,1,2.45-.191C819.377,493.341,820.176,492.879,819.866,492.37Z" transform="translate(-784.686 -465.39)" fill="none"/><path d="M827.9,483.372c-.248-2.095-2.928-2.439-4.2-1.089-.841-.6-2.167-.791-2.343.539-.038.294.355.31.489.134l1.529.206a.455.455,0,0,0,.764,0c.524-.814,2.546-1.17,2.676.21C826.883,484.067,827.984,484.064,827.9,483.372Z" transform="translate(-790.289 -459.384)" fill="none"/><path d="M822.65,441.008a5.589,5.589,0,0,0-5.4-.531,4.082,4.082,0,0,0,.206-.573,5.2,5.2,0,0,1,1.72-.864c.856-.248,1.827,0,2.63-.3a.164.164,0,0,0,.073-.271c-.764-.734-2.316-.382-3.218-.1a5.852,5.852,0,0,0-1.032.462,6.784,6.784,0,0,0-.577-3.126c-.149-.321-.638-.092-.554.233a8.336,8.336,0,0,1,.329,2.435,5.781,5.781,0,0,1-.195,1.173,5.885,5.885,0,0,0-.443.432,6.021,6.021,0,0,0-1.147-2.385,2.753,2.753,0,0,0-2.74-.94.161.161,0,0,0,0,.306,3.9,3.9,0,0,1,2.7,1.911,5.5,5.5,0,0,1,.352,1.173,4.759,4.759,0,0,0-1.4,0c-.765.092-2.022.233-2.19,1.181a.164.164,0,0,0,.237.18c.894-.5,2.634-1.089,3.673-.485a10.707,10.707,0,0,0-1.33.829c-.5.382-1.173.764-1.368,1.4a.222.222,0,0,0,.271.271,5.94,5.94,0,0,0,1.716-1.078c.268-.172.535-.336.81-.489a4.129,4.129,0,0,1,.359,1.605c-.027.707-.268,1.384-.333,2.087-.023.271.344.317.474.13a4.278,4.278,0,0,0,.382-4.078.421.421,0,0,0,.256-.046l.21-.1a4.147,4.147,0,0,1,1.594,1.147,3.187,3.187,0,0,1,.642,1.911.237.237,0,0,0,.382.107c.657-.764.134-1.953-.436-2.626a5.445,5.445,0,0,0-1.028-.944,8.71,8.71,0,0,1,4.109.382C822.631,441.5,822.856,441.176,822.65,441.008Z" transform="translate(-784.363 -431.013)" fill="none"/><path d="M745.294,431.512l-.069-.161a.482.482,0,0,0-.642-.168c-1.234.554-1.823,3.115-2.16,4.281-.443,1.529-1.036,3.8-.6,5.385a.44.44,0,0,0,.845,0c.413-1.426.287-3.023.642-4.495a18.876,18.876,0,0,1,.589-1.991c.195-.535.608-2.16,1.2-2.385a.325.325,0,0,0,.191-.466Z" transform="translate(-741.063 -428.274)" fill="none"/><path d="M762.486,451.51a2.176,2.176,0,0,0-3.757-.172c-.348-.31-.585-.726-1.082-.883a2.32,2.32,0,0,0-1.6.226c-.722.333-1.43.94-1.021,1.77.061.13.241.08.283-.034.294-.849,1.617-1.6,2.419-.963.352.275.5.654.929.871a.432.432,0,0,0,.585-.157,1.335,1.335,0,0,1,2.45-.191.463.463,0,0,0,.8-.466Z" transform="translate(-749.239 -440.147)" fill="none"/><path d="M770.527,442.519c-.248-2.095-2.932-2.442-4.2-1.089-.845-.6-2.171-.791-2.347.539-.038.29.355.306.489.13l1.529.21a.459.459,0,0,0,.764,0c.52-.818,2.546-1.173,2.676.21C769.5,443.215,770.607,443.207,770.527,442.519Z" transform="translate(-754.841 -434.145)" fill="none"/><path d="M748.492,423.668a5.582,5.582,0,0,0-5.393-.531,4.247,4.247,0,0,0,.2-.573,5.206,5.206,0,0,1,1.72-.864c.856-.248,1.831,0,2.634-.3a.164.164,0,0,0,.069-.271c-.764-.734-2.316-.382-3.218-.1a5.853,5.853,0,0,0-1.032.462,6.785,6.785,0,0,0-.577-3.127c-.149-.321-.638-.092-.554.233a8.337,8.337,0,0,1,.329,2.435,5.455,5.455,0,0,1-.191,1.17,5.949,5.949,0,0,0-.443.436,6,6,0,0,0-1.147-2.385,2.757,2.757,0,0,0-2.744-.94.161.161,0,0,0,0,.306,3.906,3.906,0,0,1,2.7,1.911,5.979,5.979,0,0,1,.344,1.185,4.785,4.785,0,0,0-1.4,0c-.764.092-2.018.233-2.186,1.181a.161.161,0,0,0,.233.18c.9-.5,2.637-1.089,3.677-.489a10.631,10.631,0,0,0-1.33.833c-.5.382-1.177.764-1.368,1.4a.222.222,0,0,0,.271.271c.627-.126,1.181-.738,1.716-1.078.264-.172.535-.336.806-.489a4.063,4.063,0,0,1,.359,1.605c-.023.707-.268,1.384-.329,2.087-.027.271.344.317.47.13a4.268,4.268,0,0,0,.382-4.078.421.421,0,0,0,.256-.046l.214-.1a4.166,4.166,0,0,1,1.594,1.147,3.183,3.183,0,0,1,.638,1.911.241.241,0,0,0,.382.107c.654-.764.13-1.953-.44-2.626a5.316,5.316,0,0,0-1.028-.944,8.684,8.684,0,0,1,4.109.382C748.476,424.157,748.7,423.836,748.492,423.668Z" transform="translate(-738.546 -420.301)" fill="none"/><path d="M794.385,426.98a1.433,1.433,0,0,0-.493-.279,1.391,1.391,0,0,0-1.2-.1,1.342,1.342,0,0,0-1.147.822.765.765,0,0,0,.2.826.582.582,0,0,0,.031.073.988.988,0,0,0,.038.241,1.1,1.1,0,0,0,1.2.707,1.831,1.831,0,0,0,1.181-.52,1.222,1.222,0,0,0,.382-.363,1.047,1.047,0,0,0-.2-1.407Z" transform="translate(-771.846 -425.425)" fill="none"/></g><path d="M882.807,564.286A11.563,11.563,0,0,1,880.69,564a36.458,36.458,0,0,1,.849-7.4c1.1,1.227,2.037.512,2,2.821C883.526,560.166,882.662,563.151,882.807,564.286Z" transform="translate(-652.861 -343.857)" fill="#eac1a4"/><path d="M874.979,572.641c-.833-.3-1.021,1.693-1.028,2.163a3.441,3.441,0,0,1-.042.841,2.231,2.231,0,0,1-.47.791l-1.212,1.529a2.678,2.678,0,0,0-.463.738,1.556,1.556,0,0,0,.8,1.816c2.24,1.147,4.285-1.609,4.77-3.417.073-.275.126-.558.18-.841.115-.581.554-1.854.325-2.423-.271-.665-1.089-.183-1.624-.432S875.316,572.76,874.979,572.641Z" transform="translate(-647.31 -353.748)" fill="#3b455a"/><path d="M893.5,435.361c-2.087,5.684-4.5,11.241-5.871,17.2-1.7,7.35-4.434,14.524-5.836,21.882a18.46,18.46,0,0,1-2.718-.118c-1.036-.122-2.675-.382-3.058-1.529a6.546,6.546,0,0,1,.038-2.114c.1-1.911.229-3.822.382-5.752a144.509,144.509,0,0,1,1.67-16.252c1.051-5.622,2.056-11.264,2.977-16.886.478-2.9,1.066-5.791,1.789-8.646.183-.738,2.125-8.317,2.5-8.256a35.5,35.5,0,0,1,12.678,4.548,1.816,1.816,0,0,1,.887.9,1.67,1.67,0,0,1-.111,1.116c-1.177,3.493-2.744,6.773-4,10.251C894.4,432.9,893.952,434.119,893.5,435.361Z" transform="translate(-649.921 -256.31)" fill="#3b455a"/><path d="M925.06,562.09a11.655,11.655,0,0,0,2.106.355,36.317,36.317,0,0,0,1.391-7.316c-1.418.841-2.095-.115-2.744,2.095C925.6,557.943,925.538,561.051,925.06,562.09Z" transform="translate(-680.272 -342.949)" fill="#eac1a4"/><path d="M927.4,570.742c0,1.361,1.074,2.828,1.666,4.052a1.145,1.145,0,0,1,.145.455,1.112,1.112,0,0,1-.283.642,1.708,1.708,0,0,1-.711.669,1.664,1.664,0,0,1-.956,0c-.531-.115-1.055-.256-1.575-.42a1.146,1.146,0,0,1-.382-.168,1.169,1.169,0,0,1-.271-.382,3.961,3.961,0,0,1-.657-2.079,12.772,12.772,0,0,0-.027-2.565c-.077-.409-.18-.929.168-1.147.271-.176.764.065,1.059.111a4,4,0,0,1,1.475.325.73.73,0,0,1,.252.218.6.6,0,0,1,.1.291Z" transform="translate(-679.784 -351.971)" fill="#3b455a"/><path d="M921.646,431.028c.306,6.047.952,12.07.493,18.159-.566,7.518-.084,15.174-.933,22.624a18.339,18.339,0,0,0,2.626.7c1.024.191,2.676.413,3.367-.554a6.838,6.838,0,0,0,.589-2.03c.482-1.861.921-3.73,1.357-5.6a147.937,147.937,0,0,0,3.237-16.015c.673-5.68,1.391-11.363,2.182-17,.409-2.916.7-5.848.864-8.791.042-.764.443-8.573.065-8.63a35.546,35.546,0,0,0-13.458.573,1.812,1.812,0,0,0-1.112.6,1.678,1.678,0,0,0-.229,1.1c.084,3.685.608,7.281.764,10.977C921.52,428.417,921.566,429.705,921.646,431.028Z" transform="translate(-677.565 -255.448)" fill="#3b455a"/><path d="M898.645,331.471l-.218.08a12.215,12.215,0,0,0-3.26,2.106c-1.529,1.227-2.266,1.766-2.855,3.581a43.84,43.84,0,0,0-1.223,5.233c-1.72,8.967-2.053,17.892-3.287,26.927-.336,2.458-.6,5.351,1.223,7.037,3.226-2.511,7.281-2.656,11.2-2.675,2.748,0,5.435-.891,8.187-.585,2.634.294,4.934-.363,7.606-.191.642.042,1.464.034,1.716-.558-.925-2.771-.906-5.752-1.116-8.665-.543-7.537-3.058-14.773-4.048-22.26-.34-2.542-.524-6.769-2.5-8.7-2.141-2.091-7.025-2.133-9.777-1.724A9.346,9.346,0,0,0,898.645,331.471Z" transform="translate(-657.105 -204.41)" fill="#f7f7f7"/><path d="M875.624,269.265a.7.7,0,0,1,.543.577,1.723,1.723,0,0,1-.382,1.093,17.465,17.465,0,0,0-2.32,4.09c-.26.822-.359,2.351-1.529,2.335a2.434,2.434,0,0,1-.849-.107,2.157,2.157,0,0,1-.592-.382c-.138-.118-.382-.275-.405-.455-.08-1,.623-2.58.765-3.635.08-.638,1.17-8.321,1.529-8.252l1.571.294a.6.6,0,0,1,.287.107.588.588,0,0,1,.138.348,9.458,9.458,0,0,1-.111,3.36,1.7,1.7,0,0,0-.05.883.551.551,0,0,0,.692.382c.264-.13.271-.409.466-.55A.382.382,0,0,1,875.624,269.265Z" transform="translate(-646.308 -163.421)" fill="#eac1a4"/><path d="M858.947,303.424c1.1-4.881,3.176-13.378,4.182-13.217a12.189,12.189,0,0,1,4.5,1.647c-.807,3.44-2,7.056-1.663,10.622.283,2.916,3.165,3.493,5.577,3.822,3.375.474,6.559.925,9.995,1.108a1.052,1.052,0,0,1,.65.18.994.994,0,0,1,.252.688,9.621,9.621,0,0,1-.038,1.59,10.351,10.351,0,0,1-2.01,5.531,6.22,6.22,0,0,1-5.164,2.484,10.15,10.15,0,0,1-3.264-1.009,50.8,50.8,0,0,1-6.265-3.8,58.649,58.649,0,0,1-7.021-5.156,1.3,1.3,0,0,1-.47-.6,1.328,1.328,0,0,1,.023-.612C858.293,306.409,858.561,305.14,858.947,303.424Z" transform="translate(-638.957 -179.283)" fill="#f7f7f7"/><path d="M916.746,307.883a1.027,1.027,0,0,0,.187.252,2.137,2.137,0,0,0,1.2.558,5.39,5.39,0,0,0,1.747-.122c.764-.149.764-.6.86-1.311.065-.382.1-.764.13-1.147,0-.214-.065-.978.069-1.128s.47-.065.635-.153a1.822,1.822,0,0,0,.634-.631,5.022,5.022,0,0,0,.528-1.292l.711-2.335a12.328,12.328,0,0,0,.566-2.423,5.141,5.141,0,0,0-1.028-3.918,5.645,5.645,0,0,0-3.257-1.269,6.792,6.792,0,0,0-4.411.891,3.651,3.651,0,0,0-1.345,1.33,5.716,5.716,0,0,0-.382,3.058l.141,2.9c.057,1.108.195,2.389,1.024,2.989.443.321,1.021.382,1.4.8a2.867,2.867,0,0,1,.463,1.934A2.386,2.386,0,0,0,916.746,307.883Z" transform="translate(-673.161 -180.948)" fill="#eac1a4"/><path d="M928.657,290.478a1.7,1.7,0,0,1,.13.283c.18.512.057,1.089.233,1.6.271.814,1.223,1.3,1.365,2.152.118.692-.356,1.349-.382,2.053-.046.764.447,1.491.382,2.244a5.051,5.051,0,0,1-.875,2.106c.122-.161,1.219-.1,1.506-.279a1.146,1.146,0,0,0,.615-.891,9.649,9.649,0,0,1,.229-1.361c.249-.566.765-.982.933-1.59.241-.826-.2-1.7-.164-2.561.054-1.3,1.181-2.53.764-3.769-.241-.726-.948-1.189-1.342-1.846a9.9,9.9,0,0,1-.623-1.624,1.949,1.949,0,0,0-1.124-1.246c-.31-.092-.646-.054-.963-.115a12.445,12.445,0,0,1-1.529-.657,2.892,2.892,0,0,0-2.53,1.147c-.443.638-.218,1.177.233,1.739C926.241,288.8,928.042,289.416,928.657,290.478Z" transform="translate(-680.26 -176.023)" fill="#3b455a"/><path d="M903.37,284.8a14.389,14.389,0,0,0-1.43.963,4.244,4.244,0,0,0-.986,3.058,20.523,20.523,0,0,0-.352,2.886,2.5,2.5,0,0,0,.925,1.793c.7.508,1.8.592,2.106,1.4.34.875-.566,1.976,0,2.737.3.417.9.478,1.33.764a4.189,4.189,0,0,1,1.028,1.372,1.742,1.742,0,0,0,1.319,1,4.814,4.814,0,0,0-.325-2.374c-.218-.466-.864-1.33-.382-1.835.31-.42,1.043-.558,1.063-1.082a1.185,1.185,0,0,0-.3-.661,3.012,3.012,0,0,1-.222-2.737,3.925,3.925,0,0,1,1.945-2c1-.485.841-.73,1.147-1.689.268-.887.764-1.093,1.567-1.414a1.676,1.676,0,0,0,1.208-1.147,1.926,1.926,0,0,0,.149-1.621,3.325,3.325,0,0,0-1.009-1.043,4.3,4.3,0,0,0-2.737-1.193c-.566.042-1.1.306-1.663.336-.382.023-.764-.061-1.128-.073a2.974,2.974,0,0,0-1.842.558c-.524.382-.512.787-.8,1.338A1.942,1.942,0,0,1,903.37,284.8Z" transform="translate(-665.152 -174.193)" fill="#3b455a"/><path d="M896.66,272.715c.1-.612.034-1.407-.55-1.613a5.869,5.869,0,0,0-1.009-.057c-.707-.145-.952-1-1.323-1.621a.535.535,0,0,0-.218-.233.891.891,0,0,0-.459,0c-.707.088-1.242-.608-1.911-.86a1.663,1.663,0,0,0-2.1,1.043c-.1.348-.084.719-.18,1.066-.382,1.414-2.454,2.014-2.507,3.478-.034.986.933,1.934.558,2.848-.241.589-.994.986-.91,1.613a.879.879,0,0,0,.895.673,1.762,1.762,0,0,0,1.085-.5c.485-.424.852-.971,1.319-1.422a2.205,2.205,0,0,1,1.72-.734c.623.076,1.185.562,1.8.459.493-.084.86-.524,1.345-.65a4.242,4.242,0,0,1,1.391.092c.466.027,1.043-.214,1.055-.684a1.1,1.1,0,0,1,0-.336c.1-.3.615-.287.711-.589-.245-.382-.589-.241-.764-.73A2.676,2.676,0,0,1,896.66,272.715Z" transform="translate(-656.167 -165.716)" fill="#3b455a"/><path d="M.05,0H1.961A.069.069,0,0,1,2.03.069V1.307H0V.069A.069.069,0,0,1,.05,0Z" transform="translate(244.796 95.388) rotate(-14.07)" fill="#ccd2d9"/><path d="M.073,0H4.961a.073.073,0,0,1,.073.073V1.559H0V.073A.073.073,0,0,1,.073,0Z" transform="translate(247.132 94.458) rotate(-14.07)" fill="#ccd2d9"/><path d="M.069,0H4.957A.073.073,0,0,1,5.03.073V1.559H0V.073A.073.073,0,0,1,.069,0Z" transform="translate(270.212 88.84) rotate(-14.07)" fill="#ccd2d9"/><rect width="38.902" height="27.237" rx="0.42" transform="translate(241.729 97.333) rotate(-14.07)" fill="#b3b8bc"/><rect width="38.883" height="19.298" transform="translate(243.158 102.928) rotate(-14.07)" fill="#3b455a"/><path d="M951.686,218.981l-.176-5.768,1.819-4.235,6.287-1.579,3.314,2.951,2.63,5.152Z" transform="translate(-696.612 -118.981)" fill="#ccd2d9"/><rect width="6.192" height="2.335" rx="0.21" transform="translate(244.198 98.841) rotate(-14.07)" fill="#fff"/><path d="M945.388,253.873a1.108,1.108,0,1,1-1.338-.764A1.093,1.093,0,0,1,945.388,253.873Z" transform="translate(-691.488 -156.342)" fill="#3b455a"/><path d="M1006.361,268.23a1.072,1.072,0,0,0-.283-.115l-.455-1.812a.536.536,0,0,0-1.04.26l.455,1.816a.957.957,0,0,0-.195.233,1.051,1.051,0,0,0,.382,1.475,1.147,1.147,0,0,0,1.529-.382,1.051,1.051,0,0,0-.394-1.475Z" transform="translate(-729.39 -164.267)" fill="#fff"/><path d="M951.97,232.078l1.074,3.241L966.72,232.1l-.875-3.5Z" transform="translate(-696.896 -132.078)" fill="#000100" opacity="0.09"/><path d="M975.51,264.867a9.37,9.37,0,0,0-1.949-1.777c.126.134.245.268.382.409a9.173,9.173,0,0,1,2.041,6.773,9.47,9.47,0,0,1-2.293,5.236,9.911,9.911,0,0,1-4.9,3.039,10.041,10.041,0,0,1-5.943-.256,9.442,9.442,0,0,1-2.121-1.093,9.555,9.555,0,0,0,3.711,2.462,9.938,9.938,0,0,0,10.84-2.786,9.448,9.448,0,0,0,2.293-5.233,9.765,9.765,0,0,0,.034-1.456A9.173,9.173,0,0,0,975.51,264.867Z" transform="translate(-702.308 -162.532)" fill="#000100" opacity="0.15"/><ellipse cx="9.571" cy="9.292" rx="9.571" ry="9.292" transform="translate(252.9 100.442) rotate(-14.07)" fill="#3b455a"/><ellipse cx="8.248" cy="8.007" rx="8.248" ry="8.007" transform="translate(254.495 101.362) rotate(-14.07)" fill="#fff"/><path d="M966.867,257.078a10.087,10.087,0,0,0-5.454-2.263,10.37,10.37,0,0,0-6.058,1.284,10.1,10.1,0,0,0-4.086,4.308,9.517,9.517,0,0,0,1.907,11.1,10,10,0,0,0,5.259,2.645,10.4,10.4,0,0,0,6.115-.841,10.144,10.144,0,0,0,4.4-3.99,9.651,9.651,0,0,0,1.323-5.733,10.318,10.318,0,0,0-.248-1.487A9.6,9.6,0,0,0,966.867,257.078Zm2.324,10.779a9.636,9.636,0,0,1-3.57,4.357,9.964,9.964,0,0,1-5.691,1.647,9.72,9.72,0,0,1-5.351-1.777,9.173,9.173,0,0,1-3.406-10.224,9.632,9.632,0,0,1,3.226-4.587,9.9,9.9,0,0,1,5.546-2.053,9.525,9.525,0,0,1,9.2,5.611,8.788,8.788,0,0,1,.463,1.372,9.2,9.2,0,0,1-.42,5.649Z" transform="translate(-695.847 -157.392)" fill="#ccd2d9"/><ellipse cx="5.32" cy="5.168" rx="5.32" ry="5.168" transform="translate(258.026 103.409) rotate(-14.07)" fill="#3b455a"/><path d="M978.063,297.631H977.7a.569.569,0,0,0-.21.038.584.584,0,0,0-.157.134,8.746,8.746,0,0,0-1.215,1.953c-.13.264-.153.279-.027.558s.313.608.482.9c.08.451.18.9.222,1.361.111,1.166-.9,3.734.455,4.331a2.248,2.248,0,0,0,.81.241,1.849,1.849,0,0,0,.669-.138c.168-.061.451-.111.527-.283a3,3,0,0,0-.027-.883c0-.592-.034-1.185-.05-1.777s0-1.265.447-1.579a2.563,2.563,0,0,0,.291-.195,1.01,1.01,0,0,0,.21-.355,7.142,7.142,0,0,0,.436-1.5c.076-.47-.187-.711-.424-1.082s-.248-.856-.459-1.254a1.03,1.03,0,0,0-1.017-.482C978.465,297.628,978.266,297.628,978.063,297.631Z" transform="translate(-711.748 -183.864)" fill="#eac1a4"/><path d="M953.238,330.886c.195-1.231.382-2.488.638-3.765a39.119,39.119,0,0,0,.677-10.958,10.786,10.786,0,0,0-4.659-.218s-1.911,8.546-2.312,9.406c-1.07,2.217-.982,1.957-2.935,1.017-1.708-.826-3.283-2.083-4.969-2.989s-3.417-1.7-5.248-1.456c-.168,2.11-.256,4.231-.268,6.349a6.084,6.084,0,0,0,.283,2.247,6.343,6.343,0,0,0,1.246,1.8c3.02,3.417,6.158,6.93,10.289,8.86a1.827,1.827,0,0,0,.642.2,1.911,1.911,0,0,0,1-.333C951.5,338.893,952.569,335.094,953.238,330.886Z" transform="translate(-685.887 -195.087)" fill="#f7f7f7"/><path d="M512.527,369.091c-.027-1.468-.08-2.935-.176-4.4a96.728,96.728,0,0,0-8.76-33.1c-1.686-3.7-4.789-10.878-8.94-12.285a13.261,13.261,0,0,0-9.284.764l-.161.08c-2.569,1.273-4.262,6.07-5.225,8.887a55.689,55.689,0,0,0-2.859,16.374c-.176,5.768-.7,11.635-.975,17.311-.115,2.366-.191,4.74-.187,7.128l.069,26.228,2.5.279a3.554,3.554,0,0,0,.382.206c1.911.845,4.113.627,6.219.52,8.5.936,15.518-.508,24.015.424,1.315-4.587,2.01-6.268,2.121-11.046C511.4,380.944,512.622,374.626,512.527,369.091Z" transform="translate(-402.826 -196.94)" fill="#ccd2d9"/><path d="M573.343,294.664a32.236,32.236,0,0,0,1.674-3.727l-1.605-.657-1.5,2.454-.619-.65c-.73,3.341-2.251,4.938-4.694,7.377-.252.252-.524.646-.306.929a.764.764,0,0,0,.313.2l1.529.665a2.27,2.27,0,0,0,.913.252c.883,0,1.422-.944,1.8-1.747C570.855,299.748,572.185,297.053,573.343,294.664Z" transform="translate(-458.582 -179.329)" fill="#eac1a4"/><path d="M525.08,287.972l9.082,2.5,5.886-7.277,9.517,4.965-14.054,18.094-8.738-10.121Z" transform="translate(-433.172 -165.803)" fill="#ccd2d9"/><path d="M491.76,414.921l1.468,26.293-.608,19.9,3.008,1.066,3.44-17.754,7.121-32.408Z" transform="translate(-412.587 -245.392)" fill="#eac1a4"/><path d="M496.293,542.966l.256,2.014-.914,3.776-2.507-.313-.248-5.657.405-.887Z" transform="translate(-413.279 -325.629)" fill="#3b455a"/><path d="M535.865,415.8l-2.247,22.643-6.953,31.5-3.081-.161,2.542-29.362L523.21,413.14Z" transform="translate(-432.016 -246.083)" fill="#eac1a4"/><path d="M525.9,560.33l3.838,2.725-.566,1.9-7.151-1.819.7-2.748Z" transform="translate(-431.281 -337.015)" fill="#3b455a"/><path d="M513.9,423.4l-.256-19.585-2.58-9.208-9-.78.115-1.078-11.967-2.8-1.911,8.015-1.25,18.155-1.082,4.885,13,1.785,1.288-12.051.3,13.393Z" transform="translate(-409.01 -231.757)" fill="#3b455a"/><path d="M514.816,359.87c-9.127.424-16.172-.933-22.83,1.38.138-.046-.443-7.954-.436-8.76a82.233,82.233,0,0,1,.554-8.439,30.469,30.469,0,0,1,1.751-7.686A38,38,0,0,0,496,327.485a25.563,25.563,0,0,1,.623-4.1c.5-1.735,1.3-3.176,3.234-3.539,1.666-.317,3.96-.191,4.946,1.231,2.225,3.211,3.023,8.6,4.2,12.3C511.62,341.765,512.924,351.286,514.816,359.87Z" transform="translate(-412.457 -197.507)" fill="#f7f7f7"/><path d="M496.4,288.823c1.529-5.015,8.653-6.88,10.415-1.147a11.724,11.724,0,0,1,.554,5.351A5.747,5.747,0,0,1,504.4,297.3h-.027a19.193,19.193,0,0,0,1.238,3.157,8.218,8.218,0,0,1,.608,3.161,10.011,10.011,0,0,1-1.984,4.7q-1.529-1.911-2.87-3.964a4.232,4.232,0,0,1-.7-1.41,5.152,5.152,0,0,1,.076-1.808,13.333,13.333,0,0,0,.1-2.439c-.042-.883-.031-1.028-.65-1.529a11.132,11.132,0,0,1-2.412-2.114A7.127,7.127,0,0,1,496.4,288.823Z" transform="translate(-415.302 -175.537)" fill="#eac1a4"/><path d="M515.346,285.279a6.334,6.334,0,0,1,.382,4.327c-.252,1.441-.153,2.8-.535,4.2.141.225.482.092.7-.061q1.911-1.342,3.765-2.737a1.094,1.094,0,0,0,.333-.329,1.121,1.121,0,0,0,.088-.585c-.126-3.948-1.552-6.88-3.631-10.075-1.013-1.552-3.822-3.333-5.5-1.6a3.016,3.016,0,0,0-.661,1.5,2.549,2.549,0,0,0-.069.99c.245,1.3,1.452,1.277,2.381,1.728a6.574,6.574,0,0,1,2.748,2.633Z" transform="translate(-423.977 -171.565)" fill="#3b455a"/><path d="M486.842,282.4a12.152,12.152,0,0,0,.466,3.516c.1.382.764,1.269.791,1.529.038.73-1.529,2.381-1.945,3l-6.88-4.181a1.146,1.146,0,0,1-.428-.413,1.168,1.168,0,0,1-.092-.554,23.976,23.976,0,0,1,2.649-10.32c1.548-3.314,4.824-5.894,8.543-5.512,3.008.31,5.03,2.614,3.822,5.68-.925,2.293-3.86,2.676-5.515,4.231a3.922,3.922,0,0,0-1.41,3.02Z" transform="translate(-404.55 -166.45)" fill="#3b455a"/><path d="M749.461,312.639c-.023.535-.038,1.066-.05,1.6-.187,10.805.405,21.752.474,32.653a120.6,120.6,0,0,1,16.875-1.441c1.307-.019,7.262.9,8.08.119,1.124-1.063-.111-.86-.031-2.244.107-1.785-.764-3.245-.428-5.351.382-2.488,1.147-4.946,1.575-7.434a108.688,108.688,0,0,0,1.559-15.105c.153-4.487,0-9.139-1.942-13.194-4.759-10-20.1-9.819-24.313.619A30.045,30.045,0,0,0,749.461,312.639Z" transform="translate(-571.737 -182.172)" fill="#eac1a4"/><path d="M824.822,241.4a18.13,18.13,0,0,0,2.947-7.35c.489-2.156.894-4.338,1.292-6.5a23.11,23.11,0,0,0,.508-4.139c0-1.208.661-2.886-.413-3.822a.906.906,0,0,1,1.338-.333.557.557,0,0,0,.206.138.382.382,0,0,0,.355-.191,3.057,3.057,0,0,0,.348-1.193,4.772,4.772,0,0,1,.852-2.209,4.353,4.353,0,0,1,1.433-.826.47.47,0,0,1,.294-.053.458.458,0,0,1,.206.157,20.411,20.411,0,0,1,1.6,1.816c-.711.608-.822,1.5-1.223,2.293a7.825,7.825,0,0,0-1.246,3.111c-.115,1.911-.08,3.822-.218,5.733-.275,3.734-.764,7.442-1.257,11.149a27.689,27.689,0,0,1-1.632,7.262,13.8,13.8,0,0,1-4.2,5.244,4.207,4.207,0,0,1-1.411.921,2.928,2.928,0,0,1-2.438-.493,4.82,4.82,0,0,1-1.529-6.02,10.8,10.8,0,0,1,2.416-2.714A14.372,14.372,0,0,0,824.822,241.4Z" transform="translate(-615.457 -132.772)" fill="#eac1a4"/><path d="M788.162,288.717,784,296.312l.654,23.013q.149,5.305.3,10.607c.034,1.227.065,2.458.1,3.685,0,.55-.134,1.479.18,1.911.68.978,3.176.673,4.266.764a18.816,18.816,0,0,1,5.015.86,17.339,17.339,0,0,0,3.2,1.147.96.96,0,0,0,.73-.118,1.059,1.059,0,0,0,.279-.784c.382-5.267.382-10.7.692-16.019.237-4.357.849-8.959.47-13.32a2.142,2.142,0,0,0-.027-.218c-.382-2.1,0-9.028,0-9.028,0-.294,1.013-1.047,1.208-1.246l2.974-3.058c1.976-2.041,5.794-4.568,4.262-7.87a4.279,4.279,0,0,0-.765-1.074c-2.24-2.4-5.1-3.746-6.708-6.7-2.809,1.387-5.095,4.124-8.084,5.263a8.053,8.053,0,0,1-4.824.382c-.956-.233-3.016-.978-2.5.913C785.7,286.5,787.44,287.85,788.162,288.717Z" transform="translate(-593.127 -172.274)" fill="#d34e4e"/><path d="M751.524,299.119l4.166,7.595c-.084,0-.528,18.614-.562,19.875q-.206,7.167-.409,14.337a26.188,26.188,0,0,1-.118,4.2c-.382,1.823-2.293,1.464-3.914,1.609-3.578.325-7.342.933-10.932.764-1.032-.053.329-21.641.325-23.656,0-7.262-1.5-15.289,2.179-21.859,1.074-1.911,2.962-4.969,5.045-5.921,1.942-.879,4.72-1.028,6.83-1.529l.111,1.365Z" transform="translate(-565.555 -181.961)" fill="#d34e4e"/><path d="M490.531,249.805a9.98,9.98,0,0,0-.738-.81,9.582,9.582,0,0,0-15.1,11.444,8.739,8.739,0,0,0,.459.764l1.315,1.965.05-.023a63.916,63.916,0,0,0,15.881-10.63h0l-1.319-1.968A5.326,5.326,0,0,0,490.531,249.805Z" transform="translate(-401.328 -152.152)" fill="#d34e4e"/><g transform="translate(78.584 94.19)" opacity="0.1"><path d="M500.838,249.893a9.972,9.972,0,0,0-.738-.81,9.555,9.555,0,0,0-5.844-2.653s8.3,6.826-4.036,15.094c1.6-.879,3.279-1.911,4.969-3.031A59.938,59.938,0,0,0,502.7,252.6h0l-1.319-1.968A5.192,5.192,0,0,0,500.838,249.893Z" transform="translate(-490.22 -246.43)" fill="#3b455a"/></g><path d="M495.514,255.562a24.653,24.653,0,0,0-6.83,1.728l.631.936h0a63.916,63.916,0,0,1-15.881,10.629l-.046.027h0l-.615-.925h0a24.755,24.755,0,0,0-4.159,5.6.673.673,0,0,0,.631,1c3.169-.191,8.975-2.733,15.01-6.777s10.526-8.382,11.941-11.237a.673.673,0,0,0-.68-.975Z" transform="translate(-398.236 -157.878)" fill="#d34e4e"/><path d="M479.63,270.807l.619.925.05-.023a63.915,63.915,0,0,0,15.881-10.63h0l-.612-.91a63.43,63.43,0,0,1-15.939,10.637Z" transform="translate(-405.093 -160.728)" fill="#fff"/><path d="M508.911,239.735l-4.338-.715-.073,1.854,3.773-.612Z" transform="translate(-420.458 -138.515)" fill="#fff"/><path d="M515.337,233.852l-.5-4.422,1.988.39-1.082,3.612Z" transform="translate(-426.846 -132.591)" fill="#fff"/><g transform="translate(84.058 97.681)" opacity="0.1"><path d="M517.761,255.565a24.652,24.652,0,0,0-6.83,1.728l.627.929h0s4.885,2.828-7.018,10.805q.963-.6,1.945-1.258c5.986-4.013,10.526-8.382,11.941-11.237a.673.673,0,0,0-.665-.967Z" transform="translate(-504.54 -255.563)" fill="#000100"/></g><path d="M481.137,250c-.237.1-.474.21-.711.329a8.81,8.81,0,0,0-3.948,11.547A12.885,12.885,0,0,1,481.137,250Z" transform="translate(-402.637 -154.445)" fill="#000100" opacity="0.2"/><rect width="0.608" height="12.151" transform="translate(126.899 78.388) rotate(25.67)" fill="#3b455a"/><path d="M605.688,173l-9.888.05,1.552,1.1,1.7,1.181,2.133,1.208,2.32,1.2,2.389,1.059,2.351.948,1.98.589,1.613.413Z" transform="translate(-476.861 -97.73)" fill="#3b455a"/><path d="M605.688,173l-8.336,1.154-1.552-1.1Z" transform="translate(-476.861 -97.73)" fill="#ccd2d9"/><path d="M604.3,175.335,610.939,173l-4.506,3.543Z" transform="translate(-482.112 -97.73)" fill="#ccd2d9"/><path d="M615.95,177.747,618.136,173l.2,5.806Z" transform="translate(-489.309 -97.73)" fill="#ccd2d9"/><path d="M624.223,179.754,621.67,173l4.533,7.342Z" transform="translate(-492.843 -97.73)" fill="#ccd2d9"/><rect width="5.535" height="5.531" rx="2.765" transform="translate(106.504 87.502) rotate(-73.51)" fill="#efefef"/><g transform="translate(107.48 83.03)" opacity="0.6"><path d="M569.57,217.755s-.038-.05-.054-.054l-1.529-.413a1.384,1.384,0,0,0-1.716.933l-.451,1.529v.042A3.1,3.1,0,0,1,569.57,217.755Z" transform="translate(-565.82 -217.232)" fill="#fff"/></g><path d="M593.383,218.15l1.529-1.773a1.6,1.6,0,0,1,2.255-.183l1.774,1.529a1.605,1.605,0,0,1,.18,2.259l-1.529,1.773a1.6,1.6,0,0,1-2.255.183l-1.774-1.529A1.605,1.605,0,0,1,593.383,218.15Z" transform="translate(-475.132 -133.324)" fill="#efefef"/><g transform="translate(122.115 83.515)" opacity="0.6"><path d="M604.45,222.746l.031-.034,1.028-1.208a1.384,1.384,0,0,0-.153-1.949l-1.212-1.028-.034-.027A3.107,3.107,0,0,1,604.45,222.746Z" transform="translate(-604.11 -218.5)" fill="#fff"/></g><path d="M584.071,214.64l-2.018,1.17a1.6,1.6,0,0,1-2.186-.585l-1.166-2a1.605,1.605,0,0,1,.581-2.19l2.018-1.166a1.6,1.6,0,0,1,2.186.581l1.17,2.022A1.605,1.605,0,0,1,584.071,214.64Z" transform="translate(-466.164 -129.52)" fill="#efefef"/><g transform="translate(112.789 80.969)" opacity="0.6"><path d="M581.731,211.84a.15.15,0,0,0-.042.023l-1.338.852a1.38,1.38,0,0,0-.424,1.911l.852,1.338a.138.138,0,0,0,.027.038A3.1,3.1,0,0,1,581.731,211.84Z" transform="translate(-579.709 -211.84)" fill="#fff"/></g><path d="M558.616,221.975a9.7,9.7,0,0,0-1.766,5.592v12.64a9.72,9.72,0,0,0,9.724,9.712h3.73a9.724,9.724,0,0,0,9.7-9.735V227.548a9.643,9.643,0,0,0-1.774-5.588Z" transform="translate(-452.798 -137.123)" fill="#eaca42"/><path d="M546.983,202.842l-.046,1.433-.638-1.3a8.573,8.573,0,0,0-3.585,1.785l.684,1.28-1.2-.806a8.637,8.637,0,0,0-2.079,3.237l1.311.814-1.529-.1a8.584,8.584,0,0,0-.287,2.228v.306h7.56a2.263,2.263,0,0,1,2.125-1.674v-7.293a15.716,15.716,0,0,0-2.312.088Z" transform="translate(-442.148 -125.251)" fill="#eaca42"/><path d="M545.15,199.171v.275l4.365-.279-4.365-.268Z" transform="translate(-445.57 -113.73)" fill="#ebb044"/><path d="M547.161,191.323l-.141.237,3.9,1.984-3.62-2.454Z" transform="translate(-446.726 -108.905)" fill="#ebb044"/><path d="M553.495,185.01l-.245.126,2.274,3.738-1.789-3.994Z" transform="translate(-450.574 -105.069)" fill="#ebb044"/><path d="M561.545,182.958l-.275,0,.363,4.361.183-4.373Z" transform="translate(-455.529 -103.876)" fill="#ebb044"/><path d="M586.249,222h-.669l.333.333Z" transform="translate(-470.547 -137.147)" fill="#ebb044"/><rect width="3.039" height="3.039" transform="matrix(0.707, -0.708, 0.708, 0.707, 107.55, 88.693)" fill="#ebb044"/><path d="M575.578,225.153,577.722,223l-1.017-1h-2.255l-1.021,1.021Z" transform="translate(-463.041 -137.147)" fill="#ebb044"/><rect width="3.039" height="3.039" transform="matrix(0.707, -0.708, 0.708, 0.707, 118.889, 88.682)" fill="#ebb044"/><rect width="3.039" height="3.039" transform="matrix(0.706, -0.708, 0.708, 0.706, 121.731, 91.531)" fill="#ebb044"/><path d="M590.4,225.109l2.144-2.148-1.024-1.021h-2.251l-1.021,1.024Z" transform="translate(-472.197 -137.11)" fill="#ebb044"/><rect width="3.039" height="3.039" transform="matrix(0.707, -0.708, 0.708, 0.707, 104.725, 91.531)" fill="#ebb044"/><rect width="3.039" height="3.039" transform="matrix(0.706, -0.708, 0.708, 0.706, 104.743, 102.894)" fill="#ebb044"/><rect width="3.039" height="3.039" transform="matrix(0.706, -0.708, 0.708, 0.706, 107.578, 105.725)" fill="#ebb044"/><path d="M556.86,217.4l0,4.266,2.129-2.137Z" transform="translate(-452.805 -125.159)" fill="#ebb044"/><path d="M583.054,261.84l-2.144,2.152,1.407,1.407,1.483,0,1.4-1.407Z" transform="translate(-467.662 -152.613)" fill="#ebb044"/><rect width="3.039" height="3.039" transform="matrix(0.707, -0.708, 0.708, 0.707, 116.077, 108.534)" fill="#ebb044"/><rect width="3.039" height="3.039" transform="matrix(0.707, -0.708, 0.708, 0.707, 110.407, 108.541)" fill="#ebb044"/><rect width="3.039" height="3.039" transform="matrix(0.707, -0.708, 0.708, 0.707, 118.908, 105.696)" fill="#ebb044"/><path d="M610.52,219.448l2.148,2.148.5-.508,0-3.283-.5-.5Z" transform="translate(-485.955 -125.097)" fill="#ebb044"/><path d="M556.88,232.24l0,4.266,2.129-2.137Z" transform="translate(-452.817 -134.327)" fill="#ebb044"/><rect width="3.039" height="3.039" transform="matrix(0.707, -0.708, 0.708, 0.707, 118.892, 94.354)" fill="#ebb044"/><rect width="3.039" height="3.039" transform="matrix(0.706, -0.708, 0.708, 0.706, 116.064, 91.537)" fill="#ebb044"/><rect width="3.039" height="3.039" transform="matrix(0.707, -0.708, 0.708, 0.707, 116.067, 97.196)" fill="#ebb044"/><rect width="3.039" height="3.039" transform="matrix(0.707, -0.708, 0.708, 0.707, 113.219, 88.689)" fill="#ebb044"/><rect width="3.039" height="3.039" transform="matrix(0.707, -0.708, 0.708, 0.707, 113.233, 100.031)" fill="#ebb044"/><rect width="3.039" height="3.039" transform="matrix(0.707, -0.708, 0.708, 0.707, 113.226, 94.359)" fill="#ebb044"/><rect width="3.039" height="3.039" transform="matrix(0.707, -0.708, 0.708, 0.707, 110.394, 97.196)" fill="#ebb044"/><rect width="3.039" height="3.039" transform="matrix(0.707, -0.708, 0.708, 0.707, 116.068, 102.861)" fill="#ebb044"/><rect width="3.039" height="3.039" transform="matrix(0.707, -0.708, 0.708, 0.707, 121.727, 97.188)" fill="#ebb044"/><rect width="3.039" height="3.039" transform="matrix(0.707, -0.708, 0.708, 0.707, 118.902, 100.023)" fill="#ebb044"/><rect width="3.039" height="3.039" transform="matrix(0.707, -0.708, 0.708, 0.707, 110.404, 102.869)" fill="#ebb044"/><rect width="3.039" height="3.039" transform="matrix(0.706, -0.708, 0.708, 0.706, 107.572, 100.056)" fill="#ebb044"/><rect width="3.039" height="3.039" transform="matrix(0.706, -0.708, 0.708, 0.706, 110.397, 91.545)" fill="#ebb044"/><rect width="3.039" height="3.039" transform="matrix(0.707, -0.708, 0.708, 0.707, 107.56, 94.366)" fill="#ebb044"/><rect width="3.039" height="3.039" transform="matrix(0.707, -0.708, 0.708, 0.707, 104.728, 97.207)" fill="#ebb044"/><rect width="3.039" height="3.039" transform="matrix(0.706, -0.708, 0.708, 0.706, 113.246, 105.719)" fill="#ebb044"/><path d="M568.99,285.79l-1.67,1.678a9.624,9.624,0,0,0,2.851,1.437l.971-.971Z" transform="translate(-459.267 -176.556)" fill="#ebb044"/><path d="M592.06,293.9h0a9.559,9.559,0,0,0,1.334-.1l-.627-.627Z" transform="translate(-474.551 -181.121)" fill="#ebb044"/><path d="M561.8,278.38l-1.529,1.529a9.688,9.688,0,0,0,1.911,2.374l1.77-1.754Z" transform="translate(-454.911 -171.978)" fill="#ebb044"/><path d="M556.93,271a9.721,9.721,0,0,0,.822,3.417l1.3-1.3Z" transform="translate(-452.848 -167.419)" fill="#ebb044"/><path d="M577.67,293.729a9.744,9.744,0,0,0,1.273.134l-.7-.7Z" transform="translate(-465.661 -181.109)" fill="#ebb044"/><path d="M595.74,287.908l1.086,1.086a9.67,9.67,0,0,0,2.951-1.345l-1.892-1.888Z" transform="translate(-476.824 -176.537)" fill="#ebb044"/><path d="M603.14,280.534l1.991,1.991a9.846,9.846,0,0,0,2-2.293l-1.85-1.842Z" transform="translate(-481.396 -171.984)" fill="#ebb044"/><path d="M612.694,270.9l-2.144,2.152L612.2,274.7a9.67,9.67,0,0,0,.948-3.344Z" transform="translate(-485.973 -167.357)" fill="#ebb044"/><path d="M612.648,231.026l.5-.5a9.717,9.717,0,0,0-.719-3.581l-1.934,1.934Z" transform="translate(-485.942 -140.199)" fill="#ebb044"/><path d="M605.228,225.092l2.144-2.152-1.021-1.021H604.1l-1.021,1.021Z" transform="translate(-481.358 -137.098)" fill="#ebb044"/><path d="M610.53,234.282l2.148,2.148.508-.508,0-3.283-.508-.508Z" transform="translate(-485.961 -134.259)" fill="#ebb044"/><rect width="3.039" height="3.039" transform="matrix(0.706, -0.708, 0.708, 0.706, 121.746, 102.878)" fill="#ebb044"/><path d="M601.073,221.93H600.4l.336.336Z" transform="translate(-479.703 -137.104)" fill="#ebb044"/><path d="M563.393,223.009,562.372,222H560.2a9.708,9.708,0,0,0-.787,1.334l1.839,1.835Z" transform="translate(-454.38 -137.147)" fill="#ebb044"/><path d="M557.423,228a9.686,9.686,0,0,0-.573,3.291v.4l2.129-2.133Z" transform="translate(-452.798 -140.854)" fill="#ebb044"/><path d="M571.419,222h-.669l.336.336Z" transform="translate(-461.386 -137.147)" fill="#ebb044"/><g transform="translate(107.262 90.494)" opacity="0.1"><path d="M565.25,256.536a9.7,9.7,0,0,0,6.528,2.515h3.73a9.724,9.724,0,0,0,9.7-9.735V236.76C585.072,238.641,583.363,256.505,565.25,256.536Z" transform="translate(-565.25 -236.76)" fill="#000100"/></g><path d="M756.477,338.727l31.873-2.366a3.841,3.841,0,0,1,4.124,3.532l1.609,21.687a3.841,3.841,0,0,1-3.558,4.1l-31.877,2.362a3.841,3.841,0,0,1-4.124-3.543l-1.609-21.687a3.822,3.822,0,0,1,3.562-4.086Z" transform="translate(-573.917 -207.791)" fill="#3b455a"/><path d="M825.03,362.5l7.595-.562a1.036,1.036,0,0,0,.959-1.108l-.558-7.541a1.032,1.032,0,0,0-1.112-.952l-7.595.562a1.036,1.036,0,0,0-.963,1.1l.562,7.545a1.032,1.032,0,0,0,1.112.952Z" transform="translate(-617.439 -217.663)" fill="#fff"/><path d="M827.385,392.338l7.6-.566a1.032,1.032,0,0,0,.959-1.1l-.577-7.541a1.036,1.036,0,0,0-1.112-.952l-7.6.562a1.036,1.036,0,0,0-.959,1.1l.562,7.545a1.036,1.036,0,0,0,1.128.952Z" transform="translate(-618.885 -236.098)" fill="#fff"/><path d="M794.006,364.8l7.595-.562a1.036,1.036,0,0,0,.959-1.108L802,355.586a1.032,1.032,0,0,0-1.112-.952l-7.595.562a1.036,1.036,0,0,0-.959,1.1l.558,7.545a1.032,1.032,0,0,0,1.112.952Z" transform="translate(-598.276 -219.084)" fill="#fff"/><path d="M796.38,394.656l7.61-.562a1.04,1.04,0,0,0,.959-1.108l-.577-7.53a1.032,1.032,0,0,0-1.112-.952l-7.595.569a1.036,1.036,0,0,0-.959,1.1l.562,7.545a1.036,1.036,0,0,0,1.112.933Z" transform="translate(-599.74 -237.538)" fill="#fff"/><path d="M762.976,367.1l7.595-.562a1.04,1.04,0,0,0,.963-1.108l-.562-7.541a1.032,1.032,0,0,0-1.112-.952l-7.595.562a1.036,1.036,0,0,0-.959,1.108l.558,7.526a1.032,1.032,0,0,0,1.112.967Z" transform="translate(-579.105 -220.505)" fill="#fff"/><path d="M765.362,396.938l7.595-.562a1.04,1.04,0,0,0,.959-1.108l-.55-7.541a1.032,1.032,0,0,0-1.112-.952l-7.595.562a1.036,1.036,0,0,0-.963,1.1l.562,7.545A1.032,1.032,0,0,0,765.362,396.938Z" transform="translate(-580.582 -238.94)" fill="#fff"/><path d="M832.352,328.865l1.108-.08a1.1,1.1,0,0,1,1.177,1.009l.3,4.071a1.089,1.089,0,0,1-1.017,1.17l-1.108.084a1.1,1.1,0,0,1-1.177-1.009l-.3-4.071A1.1,1.1,0,0,1,832.352,328.865Z" transform="translate(-622.369 -203.115)" fill="#ccd2d9"/><path d="M767.353,333.709l1.108-.084a1.1,1.1,0,0,1,1.177,1.009l.3,4.074a1.093,1.093,0,0,1-1.017,1.17l-1.1.08a1.093,1.093,0,0,1-1.177-1.005l-.306-4.074A1.1,1.1,0,0,1,767.353,333.709Z" transform="translate(-582.214 -206.105)" fill="#ccd2d9"/><path d="M737.712,300.023a13.57,13.57,0,0,0-3.207,2.293,11.965,11.965,0,0,0-2.114,3.478,45.133,45.133,0,0,0-2.9,9.028q4.858,1.147,9.67,2.427a40.934,40.934,0,0,1,4.881-8.684,5.539,5.539,0,0,0,.994-1.724,4.9,4.9,0,0,0,.038-1.873c-.149-1.292-.355-2.584-.623-3.86-.172-.822-.3-2.84-.94-3.417C742.3,296.583,738.9,299.354,737.712,300.023Z" transform="translate(-559.452 -183.748)" fill="#d34e4e"/><path d="M728.5,337.938c.608-2.813,1.021-6.008,4.686-6.261,1.961-.138,4.009,1.494,3.914,3.463a6.009,6.009,0,0,1-.891,2.484l-3.279,6.085a2.1,2.1,0,0,0-.306.852,2,2,0,0,0,.31,1,27.628,27.628,0,0,0,5.053,6.834,4.3,4.3,0,0,0,2.427,1.433c.474.107,2.752.524,1.4,1.468a.765.765,0,0,1-1.055-.226,10.755,10.755,0,0,1,2.626,2.106.615.615,0,0,1,.161.81c-.183.47-.382.936-.558,1.407a.314.314,0,0,1-.115.172.344.344,0,0,1-.241,0l-2.737-.535c-1.712-.336-2.293-2.614-3.5-3.849l-7.43-7.6a8.15,8.15,0,0,1-1.613-2.064c-.592-1.246-.057-2.045.2-3.23Q728.03,340.112,728.5,337.938Z" transform="translate(-557.962 -204.899)" fill="#eac1a4"/><path d="M791.24,253.534a8.439,8.439,0,0,1,1.028,3.8,1.2,1.2,0,0,0,.325.963c.3.222.038.711.267.413a6.643,6.643,0,0,0,1.055-1.7,14.224,14.224,0,0,0,0-2.645,3.822,3.822,0,0,0-.734-2.144,4.252,4.252,0,0,0-1.082-.826,5.55,5.55,0,0,0-1.8-.806c-1.116-.206-1.8.195-.814.975A6.836,6.836,0,0,1,791.24,253.534Z" transform="translate(-596.224 -154.772)" fill="#3b455a"/><path d="M770.075,268.943c0,.543-.1,1.1.382,1.529a1.644,1.644,0,0,0,.841.333,5.225,5.225,0,0,0,2.343-.168,2.126,2.126,0,0,0,.856-.451,1.059,1.059,0,0,0,.3-.864,9.9,9.9,0,0,1,.153-1.238,27.129,27.129,0,0,0,.195-2.729c1.342-.229,2.916-.661,3.375-2.068a4.564,4.564,0,0,0,.153-1.391l.042-5.836a5.61,5.61,0,0,0-.222-1.991,4.069,4.069,0,0,0-2.439-2.16,8.761,8.761,0,0,0-7.939.485,4.33,4.33,0,0,0-1.594,1.6,6.632,6.632,0,0,0-.382,3.62l.241,3.413c.092,1.311.29,2.817,1.3,3.509.543.382,1.238.436,1.7.91.81.829.424,2.068.665,3.058A2.049,2.049,0,0,1,770.075,268.943Z" transform="translate(-582.049 -155.179)" fill="#eac1a4"/><path d="M779.115,275.577c-.023-.359-.18-1.418-.722-.764a1.074,1.074,0,0,0-.187.65,2.418,2.418,0,0,1-.069.688,1.216,1.216,0,0,1-1.215.719,1.235,1.235,0,0,1-.569-.134,1.775,1.775,0,0,1-.432-.382l-.948-1.089c-.543-.623-1.621-.355-2.354-.26a4.7,4.7,0,0,0-2.377.921l-.206.172a2.537,2.537,0,0,1-.527.382,1.6,1.6,0,0,1-1.911-.608c-.21-.271-.405-.623-.73-.669a.669.669,0,0,0-.635.382,1.911,1.911,0,0,0-.183.8,5.914,5.914,0,0,0,.508,2.935c.948,1.93,2.771,2.167,4.606,2.125l2.179-.053a6.873,6.873,0,0,0,3.845-.856,4.754,4.754,0,0,0,1.808-3.058A7.419,7.419,0,0,0,779.115,275.577Zm-4.854,2.741a2.546,2.546,0,0,1-2.244.26c-.332-.1-.191-.657.138-.558a2.048,2.048,0,0,0,1.838-.2C774.284,277.622,774.552,278.119,774.261,278.318Z" transform="translate(-582.024 -169.645)" fill="#3b455a"/><path d="M777.34,245.187a10.756,10.756,0,0,0,.283-1.437,2.8,2.8,0,0,1-1.407.122v-.841c0-.283-3.149-.382-3.406-.417-2.393-.195-4.587-.382-6.746.9a6.5,6.5,0,0,0-3.318,4.869,9.961,9.961,0,0,0,1.575,6.395,14.435,14.435,0,0,1-.191-2.339,4.585,4.585,0,0,1,.5-1.475,6.076,6.076,0,0,1,2.137-2.244,11.784,11.784,0,0,1,4.663-1.571,12.674,12.674,0,0,1,4.785,0c.711.191.826.382,1.257-.348a11.741,11.741,0,0,0,.615-1.6Z" transform="translate(-579.969 -149.797)" fill="#3b455a"/><path d="M685.823,276.708l2.481-.225.107-4.143-2.3-1.219-1.934,1.128,1.086,1.651-.466.042-.5-.432-.424.516Z" transform="translate(-531.269 -158.346)" fill="#eac1a4"/><path d="M670.2,332.419a36.136,36.136,0,0,1-6.4-18.033c-.057-.81.149-1.911.959-1.953a1.418,1.418,0,0,1,.883.348c2.144,1.559,3.138,4.231,4.831,6.272.336.405.921.81,1.334.485a1.013,1.013,0,0,0,.3-.692c.222-1.8-.1-3.723.019-5.565.088-1.361-.252-5.439.791-6.116.222-.138,3.325-.382,3.318-.436l1.812,9.88,1.353,7.423c.677,3.7.3,9.536-1.953,12.663a2.391,2.391,0,0,1-1.651,1.147A2.788,2.788,0,0,1,673.7,336.7a35.115,35.115,0,0,1-3.5-4.277Z" transform="translate(-518.862 -189.492)" fill="#f7f7f7"/><path d="M639.219,556.7l-.367,2.026-3.941,1.357-1.422-2.354,2.156-1.689,3.937-1.361Z" transform="translate(-500.145 -333.524)" fill="#3b455a"/><path d="M646.245,425.021l-8.157,49.8-3.688.145-2.19-34.629-1.04-17.2Z" transform="translate(-498.712 -252.261)" fill="#3b455a"/><path d="M675.494,426.68l-5.244,48.813-3.383.325L663.29,438.41l-2.84-11.027Z" transform="translate(-516.801 -254.448)" fill="#3b455a"/><path d="M680.858,553.11l-3.658.348.164,2.1,3.826,1.754,1.663-2.274Z" transform="translate(-527.148 -332.554)" fill="#3b455a"/><path d="M630.8,410.567l-1.667-5.752,1.667-6.524,25.349.952v9.9Z" transform="translate(-497.452 -236.909)" fill="#484f5b"/><path d="M649.044,276.41c-2.561,1.724-6.181.738-8.524,2.817a6.6,6.6,0,0,0-1.724,5.928,5.485,5.485,0,0,0,1.173,2.733,4.6,4.6,0,0,0,1.491,1.078,6.012,6.012,0,0,0,2.293.577,14.137,14.137,0,0,1-.359,2.293l4.415-.539q-.141-1.391-.279-2.779a6.306,6.306,0,0,0,1.009-.806,8.331,8.331,0,0,0,2.033-7.706A15.889,15.889,0,0,0,649.044,276.41Z" transform="translate(-503.358 -170.761)" fill="#eac1a4"/><path d="M636.832,265.835l.317-.118a10.652,10.652,0,0,1,4.808-.5,4.231,4.231,0,0,1,1.716.52,3.822,3.822,0,0,1,1.552,2.244,10.036,10.036,0,0,1,.306,2.832,1.77,1.77,0,0,0,.856-.738,8.52,8.52,0,0,0,1.567-3.253c.218-1.185-.176-2.572.283-3.688a6.34,6.34,0,0,1,.975-1.326,4.021,4.021,0,0,0,.615-3.459,2.882,2.882,0,0,0-1.342-1.774c-1.086-.562-2.393-.076-3.574-.355-.6-.141-1.147-.478-1.751-.585a4.259,4.259,0,0,0-3.474,1.483,12.529,12.529,0,0,1-3.031,2.557c-.948.443-2.014.5-2.993.864a6.085,6.085,0,0,0-3.5,3.853,6.375,6.375,0,0,0,.871,5.982,21.078,21.078,0,0,1,1.8,2.511c.195.3,1.323,1.414,1.238.245-.065-.91-.4-1.777-.462-2.676A4.741,4.741,0,0,1,636.832,265.835Z" transform="translate(-497.869 -157.9)" fill="#3b455a"/><path d="M639.326,315.271l-12.258-1.1s-4.036,5.668-8.493,21.978a69.809,69.809,0,0,0-1.147,30.742s13.829-2.676,33.356-.271l-5.691-40.462Z" transform="translate(-489.493 -194.088)" fill="#f7f7f7"/><path d="M652.08,408.685h-.138V406.1a2.851,2.851,0,0,0-2.848-2.848h-14.6a2.848,2.848,0,0,0-2.848,2.848v2.588h-.153a.864.864,0,0,0-.864.86v1.636h4.4v-1.632a.864.864,0,0,0-.864-.86h-.382v-2.095A1.219,1.219,0,0,1,635,405.371h13.55a1.223,1.223,0,0,1,1.223,1.223v2.095h-.382a.86.86,0,0,0-.86.86v1.632h4.407v-1.632a.86.86,0,0,0-.86-.864Z" transform="translate(-498.378 -249.12)" fill="#3b455a"/><rect width="55.747" height="42.583" rx="11.72" transform="translate(115.533 161.43)" fill="#ebb044"/><rect width="2.794" height="43.474" rx="1.19" transform="translate(124.431 161.098)" fill="#3b455a"/><rect width="2.794" height="43.474" rx="1.397" transform="translate(159.328 161.098)" fill="#3b455a"/><circle cx="2.878" cy="2.878" r="2.878" transform="translate(151.947 200.149) rotate(-78.73)" fill="#474ebb"/><path d="M687.522,459.569l-5.431-2.049-.08,7.713,5.389-2.358-3.987-1.506Z" transform="translate(-530.12 -273.501)" fill="#d34e4e"/><rect width="4.189" height="3.509" transform="translate(146.707 194.076)" fill="#7fc5a3"/><path d="M630.729,327.449a38.284,38.284,0,0,1-1.911,3.612c-2.293,4.2-3.608,8.871-4.908,13.488a5.8,5.8,0,0,0-.237,3.172c.237.894.673,1.208.382,2.152-.707,2.217-2.205,2.374-3.7,1.063a44.762,44.762,0,0,1-5.821-6.18,4.441,4.441,0,0,1-.921-1.644,4.5,4.5,0,0,1,.145-2.072,59.322,59.322,0,0,1,9.7-21.2,4.465,4.465,0,0,1,2.293-1.945,3.5,3.5,0,0,1,2.855.822,7.2,7.2,0,0,1,2.7,6.712A8.834,8.834,0,0,1,630.729,327.449Z" transform="translate(-487.829 -196.348)" fill="#f7f7f7"/><path d="M636.944,376.99l-1.384,1.861,3.008,2.863,2.343-.757.371-2.095-1.9-.367.264-.348.635-.061-.119-.638Z" transform="translate(-501.424 -223.751)" fill="#eac1a4"/><path d="M830.268,202.184a33.739,33.739,0,0,0-9.227-3.15,6.994,6.994,0,0,1-1.972-.791,33.685,33.685,0,0,0-8.856-4.078c-.573-.161-1.147-.3-1.751-.405l-.462,1.2a1.326,1.326,0,0,1,.673,1.77l-.29.715a3.918,3.918,0,0,0,.061,3.012,4.347,4.347,0,0,0,2.4,2.163,7.438,7.438,0,0,0,2.779.764,5.237,5.237,0,0,0,2.293-.44,5.312,5.312,0,0,0,1.911-1.41,5.213,5.213,0,0,0,.5-.684c.069-.118.138-.237.2-.359a1.108,1.108,0,0,1,.279-.382.764.764,0,0,1,.871-.031.791.791,0,0,1,.3.417.8.8,0,0,1,0,.474h0c-.05.161-.092.317-.126.478a5.249,5.249,0,0,0-.115.837,5.309,5.309,0,0,0,1.762,4.239,6.81,6.81,0,0,0,4.522,1.758,3.921,3.921,0,0,0,3.367-2.45l.287-.711a1.322,1.322,0,0,1,1.7-.818s.206-.508.482-1.2C831.315,202.769,830.8,202.467,830.268,202.184Z" transform="translate(-607.954 -119.701)" fill="#3b455a"/><path d="M819.536,201.311a29.213,29.213,0,0,0-7.01-3.188l-.382-.1-.764,1.938-.061.145-.145.382a2.721,2.721,0,0,0,.119,2.2,3.642,3.642,0,0,0,1.911,1.636,6.5,6.5,0,0,0,2.186.623,4.2,4.2,0,0,0,1.774-.268,3.769,3.769,0,0,0,1.456-.982,3.57,3.57,0,0,0,.382-.489c.054-.084.1-.168.149-.256h0l.6-1.494Z" transform="translate(-609.805 -122.333)" fill="#ebb044"/><path d="M842.171,210.738a29.051,29.051,0,0,1,7.262,2.519l.348.187-.764,1.938-.061.149c-.061.149-.145.382-.145.382a2.714,2.714,0,0,1-1.605,1.51,3.646,3.646,0,0,1-2.523-.141,6.449,6.449,0,0,1-2.01-1.055,4.3,4.3,0,0,1-1.1-1.418,3.754,3.754,0,0,1-.382-1.716,3.287,3.287,0,0,1,.069-.608c.019-.1.042-.195.069-.287h0l.6-1.5A1.134,1.134,0,0,1,842.171,210.738Z" transform="translate(-628.457 -130.166)" fill="#ebb044"/><g transform="translate(201.19 75.687)" opacity="0.1"><path d="M811.417,200.332l.057-.145.764-1.938c.126.031.252.069.382.1a29.105,29.105,0,0,1,7.006,3.188l.057.034.061-.145-.218-.118a29.214,29.214,0,0,0-7-3.188l-.382-.1-.764,1.938-.061.145-.145.382a2.7,2.7,0,0,0,.092,2.14,2.676,2.676,0,0,1,0-1.911Z" transform="translate(-810.994 -198.02)" fill="#000100"/></g><g transform="translate(212.746 80.518)" opacity="0.1"><path d="M841.374,212.648a2.647,2.647,0,0,1,.073-.287h0l.6-1.494.237.061a29.153,29.153,0,0,1,7.262,2.523l.21.111.054-.13-.348-.187a29.048,29.048,0,0,0-7.262-2.519.975.975,0,0,1-.237-.065l-.6,1.5h0c-.027.092-.05.191-.069.287a3.291,3.291,0,0,0-.069.608,3.727,3.727,0,0,0,.344,1.651,3.724,3.724,0,0,1-.26-1.449,3.293,3.293,0,0,1,.061-.608Z" transform="translate(-841.227 -210.66)" fill="#ffd559"/></g><g transform="translate(201.456 79.249)" opacity="0.1"><path d="M811.69,208.357l.031.065a3.642,3.642,0,0,0,1.911,1.636,6.5,6.5,0,0,0,2.186.623,4.2,4.2,0,0,0,1.773-.268,3.65,3.65,0,0,0,1.491-1.021,3.374,3.374,0,0,0,.336-.451c.054-.084.1-.168.149-.256h0l.539-1.345S817.454,210.65,811.69,208.357Z" transform="translate(-811.69 -207.34)" fill="#000100"/></g><g transform="translate(213.328 84.853)" opacity="0.1"><path d="M842.75,222.168a4.27,4.27,0,0,0,.887,1.024,6.448,6.448,0,0,0,2.01,1.055,3.647,3.647,0,0,0,2.523.141,2.714,2.714,0,0,0,1.605-1.51s.084-.218.145-.382l.061-.149.126-.348C848.865,222.8,846.446,223.64,842.75,222.168Z" transform="translate(-842.75 -222)" fill="#000100"/></g><path d="M814.992,199.662c-.459-.172-.94-.333-1.433-.47h0a.359.359,0,0,0-.428.229l-.539,1.342-.05.126-.092.226A2.435,2.435,0,0,1,814.992,199.662Z" transform="translate(-610.703 -123.05)" fill="#fff"/><path d="M844.238,212.169a10.178,10.178,0,0,0-1.338-.382h0a.332.332,0,0,0-.382.2l-.482,1.208-.046.111-.08.2A2.293,2.293,0,0,1,844.238,212.169Z" transform="translate(-628.903 -130.833)" fill="#fff"/><path d="M484.189,371.307a23.872,23.872,0,0,1,.1,5.5,39.153,39.153,0,0,1-1.72,5.955,28.552,28.552,0,0,0-1.12,10.993,14.083,14.083,0,0,0,2.427,7.262c1,1.311,2.37,2.393,2.966,3.929a68.469,68.469,0,0,1-10.7-.8c-1.911-16.107,1.319-32.34,1.88-48.542.245-8.1-.011-16.7,4.193-23.621.531-.879,2.163-3.1,3.019-1.605.592,1.032-.608,4.185-.784,5.324a105.543,105.543,0,0,0-1.12,11.872A178.889,178.889,0,0,0,484.189,371.307Z" transform="translate(-402.57 -203.792)" fill="#ccd2d9"/><path d="M523.7,338.632c.8,3.822,2,7.557,2.6,11.413,1.013,6.555.218,13.255.8,19.875.592,6.742,2.611,13.515,1.391,20.174-.489,2.676-1.495,5.313-1.254,8.027l5.332,1.124a2.462,2.462,0,0,0,1.475,0,2.057,2.057,0,0,0,.883-.9,11.452,11.452,0,0,0,1.2-4.636,197.543,197.543,0,0,0,.711-22.364c-.046-6.88-.122-13.825-1.4-20.6a115.2,115.2,0,0,0-5.022-16.959c-1.529-4.3-3.207-8.791-6.708-11.734-.764-.638-3.26-2.786-3.688-1.181-.294,1.108,1.38,4.491,1.647,5.771C522.5,330.6,522.875,334.654,523.7,338.632Z" transform="translate(-430.027 -197.865)" fill="#ccd2d9"/><path d="M469.16,272.036l1.231-3.7,1.59.478-.287,2.729.849-.126-1.433,3.031-1.716-.275Z" transform="translate(-398.625 -156.629)" fill="#eac1a4"/><path d="M469.529,329.866a10.79,10.79,0,0,0,1.571-.057,5.007,5.007,0,0,0,2.786-1.021,5.937,5.937,0,0,0,1.575-3.44c.508-2.561,1.563-6.639.921-9.219-.661-2.676-3.539.115-4.774,1.422a5.766,5.766,0,0,1-1.357,1.215,1.651,1.651,0,0,1-1.731,0,2.411,2.411,0,0,1-.726-1.754,76.089,76.089,0,0,1-.6-8.864l-5.978-.638-.539,10.232c-.172,3.237-1.418,6.88,1.258,9.15a12.407,12.407,0,0,0,7.591,2.974Z" transform="translate(-393.115 -189.974)" fill="#ccd2d9"/></g></g></g><g transform="translate(370.75 890.258)"><path d="M452.729,967.963s-1.914,22.873,1.185,25.152,11.756,3.372,11.756,3.372h2.187V969.968l2,2.187,1.094,22.6a15.23,15.23,0,0,0,8.931,4.283c5.194.365,4.83-4.283,4.83-4.283s-.729-25.79-2.552-26.792-14.307-2.1-14.307-2.1l-9.187,1.273Z" transform="translate(-452.145 -965.867)" fill="#ffb603"/></g></g></g></svg>