<svg xmlns="http://www.w3.org/2000/svg" width="297.687" height="297.702" viewBox="0 0 297.687 297.702"><g transform="translate(-1399 -437)"><g transform="translate(1399 437)"><path d="M0,297.21V199.94a3.56,3.56,0,0,1,1.63-1.46c8.61-4.88,17.14-9.9,25.71-14.83,2.79-1.61,5.57-3.23,8.38-4.8.68-.38,1.43-1,2.28-.23a6.89,6.89,0,0,1,.35,3.28c-1,1.38-2.64,1.75-4,2.66-.45.32-1.14.4-1.18,1.15a32.79,32.79,0,0,0,.15,3.84,1.79,1.79,0,0,1-.07.51,4.57,4.57,0,0,0-.14,1.47c0,6.14-.09,12.29.08,18.42a.92.92,0,0,0,.28.31,4.61,4.61,0,0,0,3.41.86c1.12.84,1.36,2.25,2.1,3.33s1,2.24,2.62,1.8c.08,0,.2.19.26.33a7.61,7.61,0,0,1-.2,2.93,15.52,15.52,0,0,0-.21,4.56,30.46,30.46,0,0,0,.12,8.26c-.13.73-.72,1-1.27,1.35-1.39.84-2.82,1.62-4.23,2.44a2.8,2.8,0,0,0-1.41,1.24,14.17,14.17,0,0,0,.09,3.68,8.63,8.63,0,0,1,.14,2.21v18.34a8,8,0,0,0,.08,1.76,1.56,1.56,0,0,0,.22.4,8.531,8.531,0,0,0,2.49,1.57c3.26,1.73,6.47,3.57,9.63,5.49A26,26,0,0,0,50,272.15a1.358,1.358,0,0,1,.34.23c.34.34.25.88.57,1.23l.28.25c.71.39,1.25,1.16,2.2,1a7,7,0,0,0,1.8-1.12,3.059,3.059,0,0,1,.54-.34c3.27-1.65,6.27-3.68,9.42-5.4.68-.36,1.36-1,2.09-.07a13.19,13.19,0,0,1,.24,4.11c0,1.87.08,3.75,0,5.62a3,3,0,0,0,1.74,3.25,5.339,5.339,0,0,0,.82.43c4.14,2.32,8.19,4.81,12.34,7.11a2.32,2.32,0,0,1,1.69,2.35c.14,1.61.68,2.13,2.46,2.4a3.45,3.45,0,0,0,2-1.3,2.43,2.43,0,0,1,.28-.78c1.81-1.37,3.89-2.3,5.81-3.49,2.75-1.71,5.66-3.17,8.38-5,.83-.55,1.69-1,2.55-1.57a.82.82,0,0,1,.84,0c1,1.18.8,2.85,1.8,4.19a3.51,3.51,0,0,0,.55-2.11c.16-1.84.63-2.07,2.23-1.06a39.931,39.931,0,0,0,3.53,2.19,6.87,6.87,0,0,0,7.52-.84c.39-.36.94-.73.73-1.34s-.88-.54-1.41-.55a7.69,7.69,0,0,1-3.88-.83c-1.54-1.85-2.9-3.85-4.47-5.68-.78-.9-.49-2.09-.36-3.16.43-3.53.86-7,1.24-10.59.33-3,.7-6,1-9,.07-.58,0-1.2.56-1.62,1.42,1.68,3.61,2.29,5.18,3.76.28,1.22.48,2.49,2,2.93a1.39,1.39,0,0,0,1,0,3.46,3.46,0,0,0,2.2-1.82C130.1,253,134.6,250.55,139,248c.45-.27,1-.57,1.42.11.46,1.54.19,3.12.23,4.69.05,2,.06,3.92,0,5.89a2.64,2.64,0,0,0,1.41,2.67,2.6,2.6,0,0,1,.36.3,9.6,9.6,0,0,0,2.91,2c3.51,2.12,7.2,3.94,10.61,6.22a4.4,4.4,0,0,1,.4.46l.28.28c.79.34,1.4,1.13,2.4.92a4.8,4.8,0,0,0,2.1-1.62,13.9,13.9,0,0,1,3.24-2.06c4.44-2.57,8.92-5.07,13.29-7.77a4.61,4.61,0,0,1,3.94.48,6.05,6.05,0,0,0,6.72-.25c1.59-1.08,3.3-2,4.79-3.22a4.63,4.63,0,0,0,1.77-2.65c.16-.87.2-1.77-.71-2.2s-2-.76-2.87.06c-.35.31-.57.58-.89,0-.46-2-.24-4-.5-6a90.68,90.68,0,0,1-.25-9.33c-.11-4.3.21-8.6.21-12.9a32,32,0,0,0-.46-5.17c-.5-3.16-2.14-4.55-5.33-4.67a16.279,16.279,0,0,1-3-.15,10,10,0,0,0-9.35.12c-.62.31-1.29.8-2.07.32a4,4,0,0,1-.63-2.69c-.12-5.13.7-10.17,1.34-15.23a20.212,20.212,0,0,1,.46-3.09c.34-1.14.59-1.22,1.5-.43a4.72,4.72,0,0,0,1.2.84,5.54,5.54,0,0,1,1.75,1.79A45.731,45.731,0,0,0,178.7,200c2.52,2.73,5.87,3.76,9.31,4.62.73.19,1-.26,1.08-.87a47.072,47.072,0,0,0,.87-5.27,30.841,30.841,0,0,1,0-4.9c.1-4.22-.9-8.26-1.66-12.35a15.939,15.939,0,0,1-.4-3.08,12,12,0,0,0-.74-3.66,2.69,2.69,0,0,1,.39-2c.8-1.42.78-1.43-.77-1.57a2.09,2.09,0,0,1-1.82-.77.77.77,0,0,1,0-.54c-.23,0-.18.29-.31.41a1.79,1.79,0,0,1-.44.34,7.481,7.481,0,0,1-2.79,0,27.739,27.739,0,0,1-4.27-.18c-1-.2-1.55.33-2,1.13-1,1.65-1.77,3.4-2.82,5-.31.49-.55,1.06-1.14,1.31a12.56,12.56,0,0,1-6-1.46,1.17,1.17,0,0,1-.22-1.6c.39-.52.91-.21,1.36-.05,1,.36,1.47-.31,1.88-1a44.459,44.459,0,0,0,3.16-7.5c.42-1.15.4-2.46,1.2-3.47a3.24,3.24,0,0,0,1-3.39c-.73-3.74-2.79-5.75-6.56-6.43-.78-.14-1.54-.37-2.32-.53-6.16-1.21-9.87,1.75-10.5,8.11a17.35,17.35,0,0,0,2.13,10.91,3.15,3.15,0,0,1,.41,1.12,2.62,2.62,0,0,1-.76,2.51,7.53,7.53,0,0,1-2.75.41,8,8,0,0,0-5.47,2.86,19.65,19.65,0,0,0-3.63,6.2c-.23.59-.27,1.43-1.24,1.4a4.67,4.67,0,0,1-1.15-2.53c-.9-3.2-1.85-6.38-2.7-9.59-1.13-4.27-3.42-7.54-7.67-9.18a1.85,1.85,0,0,1-.37-.25c-.8-1.07-1.47-2.24-2.3-3.3-.33-2.08,0-2.5,2-2.37a2.09,2.09,0,0,0,1.95-1.11c1.65-2.45,2.1-5.27,2.34-8.14.06-.73,0-1.48.13-2.21.44-1.29,1.38-2.37,1.4-3.86,0-3.06-1.73-5-4.79-5.23h-1c-2.2-.18-4.36-.85-6.62-.15a10.19,10.19,0,0,0-4.6,2.25,1.46,1.46,0,0,1-1.18.53c.06-1.67-.94-1.89-2.28-1.75a1.24,1.24,0,0,1-1.19-.48c-.44-1.05-.55.59-.93.12a9.12,9.12,0,0,1-2.5-.09,9.881,9.881,0,0,1-3.46-.37c-.46-1,.5-1.06,1-1.31,4-2.19,7.88-4.56,11.82-6.83,8.8-5.06,17.6-10.1,26.37-15.21a3.7,3.7,0,0,1,1.77-.7,3,3,0,0,1,1.53.53c7.49,4.26,14.88,8.69,22.38,12.93,9,5.07,17.84,10.29,26.76,15.43L222.3,156c5.78,3.34,11.49,6.82,17.37,10,3,1.62,5.9,3.45,8.88,5.13,1.16.65,2.29,1.37,3.51,1.93,0,1.37,1.44,2.1,1.61,3.42A44.739,44.739,0,0,0,255.38,190a71.38,71.38,0,0,1,2.21,19.82,6.81,6.81,0,0,1-.2,2.06c-.35.84-1.18,1-1.91,1.25a11.7,11.7,0,0,0-5.91,4.73,7.54,7.54,0,0,0-.78,6.95c.18.56.44,1.09.63,1.65a14.83,14.83,0,0,0,8.64,7c5.55,1.89,11.08,2.1,16.36-.87,3.31-1.87,5.42-4.61,5.34-8.61a9.9,9.9,0,0,0-2.44-5.92c-.58-.73-1.42-1.25-1.77-2.17a22.388,22.388,0,0,1,1-5.51,22.36,22.36,0,0,0-.19-13.4c-.77-2.18-1.25-4.47-1.87-6.71a3.16,3.16,0,0,1,.07-2.72c.67-.84,1.42-.5,2.11-.08,4.16,2.48,8.45,4.72,12.57,7.25,2.19,1.35,4.49,2.49,6.66,3.86.74.47,1.6.88,1.6,2v94.88c0,2-.2,2.17-2.23,2.22H2.9C1.94,297.64.9,297.92,0,297.21Z" fill="#94d8fd"/><path d="M148.76,114.26a30,30,0,0,0-4.79,2.61q-9.37,5.37-18.71,10.79c-4.4,2.54-8.77,5.12-13.16,7.66-1.45.84-2.93,1.61-4.39,2.41a.67.67,0,0,1-.54.27c-.58,0-1.19-.32-1.68.24a7.35,7.35,0,0,1-1.86,2.46c-2.37,1.24-4.58,2.76-7,3.89a2.17,2.17,0,0,1-1.75-.44c-.47-1.51-.27-1.88,1.08-1.6a1.74,1.74,0,0,0,2.12-1.16,45.63,45.63,0,0,0,3.24-8.13,11.75,11.75,0,0,1,.82-2.38c1.44-1.38,1.45-3,.9-4.78s-1.75-3.08-2.57-4.65c.16-1.22,1.27-1.46,2.08-1.92q7.77-4.36,15.48-8.84a2.65,2.65,0,0,0,1.07-.77,2.79,2.79,0,0,0,.1-1.18V36.05a5.06,5.06,0,0,0-.17-1.9c-.61-.9-1.17-.14-1.64.12l-11.25,6.36C98.39,45,90.74,49.47,83,53.74c-1.69.93-2.75,2-2.64,4a7.29,7.29,0,0,0-.14,1.92v68.75a7.62,7.62,0,0,0,.13,1.91c.25,1.51.24,1.51,1.72.94.49-.18,1-.45,1.48,0,.53,1.43.57,3,1,4.42s1.35,2.93,1.86,4.47a2.85,2.85,0,0,1-.49,2.38c-1.28.71-2.74.57-4.11.88A6.25,6.25,0,0,0,77.67,146c-3,3.09-4.26,7-5.12,11.09a7.11,7.11,0,0,1-.25,1.3c-1,1.07-2,2.1-3.68,1.92-.67-.39-.79-1.1-1-1.76a84,84,0,0,1-2.28-10.87c-.27-1.73-.5-3.42-1.75-4.78a1.06,1.06,0,0,1-.27-1.1,3.84,3.84,0,0,1,1.7-1.39c3.82-2.11,7.56-4.37,11.4-6.44a3.28,3.28,0,0,0,1.93-3.29q-.06-36.21,0-72.43v-.89c0-.83-.42-.9-1.06-.57l-.91.51c-11.41,6.41-22.71,13-34.15,19.36A3.34,3.34,0,0,0,40.4,80q.06,24.77,0,49.52a8.11,8.11,0,0,1-.31,2.94c-.2.19-.38.47-.63.06-.07-17.44,0-34.88,0-52.33v52.14a1.71,1.71,0,0,1,.15,1.77,12.64,12.64,0,0,0-.75,2.64,3.63,3.63,0,0,1-.1.45,3.84,3.84,0,0,0,0,2.61,2.52,2.52,0,0,1,.1.46,8.27,8.27,0,0,1,0,1.65,23.51,23.51,0,0,1-1.7,4.74c-1.6,4-3.36,8-4,12.39a9.859,9.859,0,0,0-.16,1.33c0,2.14.54,2.64,2.63,2.34,1.32-.19,2.65-.35,4-.52a2.07,2.07,0,0,1,1.58.16,9.62,9.62,0,0,1-1.35,8.44c-.75,1.15-1.25,2.19-.76,3.53-.39,1.4-.11,3-1.26,4.16-2,.45-3.61,1.77-5.35,2.75Q22.13,187,11.92,193C8,195.36,4.05,197.73,0,199.94V1.46C0,.27.2,0,1.43,0Q75.1.06,148.77,0a2.36,2.36,0,0,1,.57,1.65c0,.49,0,1,0,1.48v108C149.35,112.2,149.59,113.34,148.76,114.26Z" fill="#74cbfe"/><path d="M148.76,114.26V.03H297.5a2.28,2.28,0,0,1,.15,1.31V199.72c0,.2-.2.31-.42.21l-14-8.2c-2.22-1.3-4.42-2.61-6.64-3.88-.49-.28-1-.77-1.63-.41a.86.86,0,0,1-.27-.94c.72-2.46.94-5,1.93-7.43.47-.74,1.49-.83,1.91-1.63-.21-2.51-.1-5-.22-7.54a53.57,53.57,0,0,0-1.37-12.75,4.683,4.683,0,0,1-.11-1.18c.15-.77.81-1.09,1.39-1.44,1.43-.87,2.81-1.84,4.23-2.73a3,3,0,0,0,1.47-2.57c0-.69,0-1.38,0-2.08.07-3.45-.07-6.9.24-10.36a42.689,42.689,0,0,0-.57-10.34,8,8,0,0,0-2.5-5.08,17.31,17.31,0,0,0-6-2.45c-.7-.3-1.52-.41-2-1.16a3.77,3.77,0,0,1-.24-2.78c.43-.49.9-.18,1.35,0,2.84.83,4.41.09,5.35-2.56q1.5-4.25-2.44-5.9a5.79,5.79,0,0,1-.67-.31.73.73,0,0,1-.26-.36,15.179,15.179,0,0,1,.7-3.46,7.05,7.05,0,0,0-4.9-8.47,5.28,5.28,0,0,0-3.53,0,13.58,13.58,0,0,0-2.84.83c-2.86,1.26-4,3.55-4,6.53a8.32,8.32,0,0,1-.1,1.11,3,3,0,0,0,.21,2.73c.33,1.64.38,3.32.8,5,.59,2.31,1.39,4.43,3.84,5.4a1.51,1.51,0,0,1-.2,1.87,2.1,2.1,0,0,1-1.33.49,8.87,8.87,0,0,0-4.09.75c-1.38,0-2.09,1.08-3.06,1.74-.47.32-.89,1.1-1.56.27A4.08,4.08,0,0,1,256,119q0-18.72,0-37.42c.21-1.11-.39-1.71-1.29-2.19-.65-.35-1.33-.62-2-1-3.33-2.26-6.92-4.06-10.38-6.09C230.62,65.47,218.8,58.69,207,51.89,193.34,44,179.73,36.08,166,28.3a.49.49,0,0,0-.34.12,3.87,3.87,0,0,0-.12,1.62q0,35.85,0,71.68a3.49,3.49,0,0,0,2,3.43q25.08,14.41,50.11,28.9,18.28,10.56,36.57,21.12a5.64,5.64,0,0,1,2.44,1.88,2.22,2.22,0,0,1-.17,1.58,83.48,83.48,0,0,0-3.6,12.79c-.15.66-.18,1.4-.93,1.75-.6.34-1.05-.1-1.5-.35-4.95-2.86-9.9-5.72-14.88-8.52-8-4.49-15.82-9.25-23.74-13.86-3.33-1.93-6.72-3.75-10-5.67-4.79-2.77-9.55-5.58-14.32-8.37-4.34-2.54-8.62-5.18-13-7.57-4.06-2.2-8-4.6-12-6.94-4.25-2.5-8.55-4.91-12.83-7.34a4.62,4.62,0,0,0-.93-.29Z" fill="#a6dffe"/><path d="M297.47,199.94v97.58H0v-.3H296.08c.73,0,1.12-.31,1.12-1.05V199.93Z" fill="#99d9fd"/><path d="M131,163.93c4.25,1.12,6.64,4.16,7.91,8.1,1.46,4.51,2.64,9.1,3.94,13.66.67.69.31,1.47.13,2.19a4.33,4.33,0,0,0,0,2.71,12.71,12.71,0,0,1-1,6.7c-.77.41-1.32-.09-1.88-.48-2.29-1.55-3.69-3.82-5-6.16-1.65-2.91-1.25-3.19-3.54-.16a5.72,5.72,0,0,0-1.11,2.56c-.25,1.61-.68,3.2-.77,4.84s.22,2.14,2,2.16a38.163,38.163,0,0,1,4.14.4,4.73,4.73,0,0,1,4,2.48c1.74,3.38,1.29,6.92.78,10.46a9.258,9.258,0,0,1-.31,1.46,2.37,2.37,0,0,1-1.84,1.91c-4.73,1.28-9.46,2.58-14.45,2.15-1.08-.1-2.21,0-3-.94-.54-2.11-.22-4.29-.58-6.42-.08-.37.59-.88-.23-1.11a2.73,2.73,0,0,1-.57-.19,10.38,10.38,0,0,0-1.7-.85c-.85-.33-1.73-.73-2.48.39-.39.6-1.29.24-2,.37a15.73,15.73,0,0,0-6.79.27c-1.06-1.21-.46-2.64-.51-4a7.66,7.66,0,0,1,1.5-4.78,20.748,20.748,0,0,1,1.71-2,17.46,17.46,0,0,0,2.49-4.49,4.27,4.27,0,0,0-.13-3.16c0-3.56-.22-7.12-.48-10.67a47.67,47.67,0,0,1,.72-12.57,13.24,13.24,0,0,1,1.51-3.7,2,2,0,0,0,.44-1.38c0-.38.3-.52.65-.55,1.64.84,1.85,1.76.68,3a2.69,2.69,0,0,0,.54,4.2,5.19,5.19,0,0,0,8-3.13c.24-.88,0-1.91.81-2.62C126.64,164.24,128.82,164.13,131,163.93Z" fill="#de624a"/><path d="M173.81,194.29c-1.26.3-1.7-.67-2.38-1.86-.54,4.55-1.08,8.73-1.52,12.92a35.189,35.189,0,0,0,0,9.17,6.61,6.61,0,0,1,.7,4.32c-1.44,3.78-4.43,5.68-8.2,6.4a21.24,21.24,0,0,1-8.8-.23,25.14,25.14,0,0,1-3.7-1,6.69,6.69,0,0,1-3.65-3.33,5.6,5.6,0,0,1-.26-3.06c.35-2.79,1-5.55,1.11-8.38,0-.52,0-1.12.75-1.29.38.54.06,1.16.29,1.72-.9-2.9,0-5.8-.09-8.6-.17.87.22,1.89-.2,2.85-1-.4-.77-1.28-.79-2-.07-2.51,0-5-.26-7.51a7,7,0,0,0-.78-2.93,4.17,4.17,0,0,0,.75-2.77c0-2.31,0-4.63,0-6.94a11.279,11.279,0,0,1,.54-3.78c2-3.09,5.16-3.22,8.35-3.25,2.15,2.18,6.88,2.77,9.47,1.2a45.239,45.239,0,0,0,5.93,1.52c2.86-.47,4.79,1.12,6.51,3a52.72,52.72,0,0,1,3.71,4.82,3.68,3.68,0,0,1,.54,4,11.32,11.32,0,0,1-6.4,5,2.14,2.14,0,0,1-1.62.01Z" fill="#a78978"/><path d="M41.14,224c-.64-2.14.19-4.21.35-6.31a13.631,13.631,0,0,1,.14-1.46,2.41,2.41,0,0,1-.19-2c.79-5.74-.11-11.46,0-17.19a1.85,1.85,0,0,0-1.74-2,7.77,7.77,0,0,1-2.48-1,1.74,1.74,0,0,1-.92-2c.39-1.43.66-2.9,1.19-4.3a44.834,44.834,0,0,1,1.89-4.11c1.91-3.19,4.27-5.78,8.28-6.13.93-.08,1.87-.27,2.66.46,2,2.27,7,2.82,9.23,1a10.39,10.39,0,0,1,5.24,1.43.89.89,0,0,1-.18,1.31c-1.58,1.43-1.4,3.28-1.14,5.09A25.82,25.82,0,0,0,65.3,193a7,7,0,0,1,.91,3.24c.09,3-.6,5.9-.88,8.85-.18,1.87-.45,3.73-.54,5.61-.11,2.29.25,4.59,0,6.88a10.16,10.16,0,0,1,0,5.25c-1.7,3.55-4.76,5.11-8.44,5.79a23.319,23.319,0,0,1-8.53-.38,16.72,16.72,0,0,1-4.59-1.66A3.74,3.74,0,0,1,41.14,224Z" fill="#5b5b59"/><path d="M153.56,224.61a32.37,32.37,0,0,0,7.68.33,10.93,10.93,0,0,0,9-6c.15-.24.12-.59.43-.75,3-1.55,6.11-3.05,9.24-4.41a4.85,4.85,0,0,1,1-.2c1.18,0,2.37-.07,3.55,0,3.23.22,4.85,1.67,5.44,4.85a38.911,38.911,0,0,1,.42,10,121.358,121.358,0,0,0,.31,19.72,17.579,17.579,0,0,1,.07,4.29,7.07,7.07,0,0,1-6,2.89c-1.77.06-3.48-.35-4.29-2.28a65.173,65.173,0,0,0-.89-10.63c-.48-3.75-.07-7.52-.56-11.25-.17-1.28-.24-1.38-1.42-.84a22.066,22.066,0,0,1-2.43,1.1c-2.64,1.21-5.18,2.63-7.82,3.84-3.53,1.62-7.09,2-10.66.06-2.86-1.95-3.61-4.91-3.86-8.11-.06-.74.12-1.47.05-2.22C152.78,224.52,153.06,224.37,153.56,224.61Z" fill="#0d6da6"/><path d="M251.94,173.17a110.216,110.216,0,0,1,3.29-12.61c.43-1.16.84-2.32,1.25-3.49a1.71,1.71,0,0,1,0-.87c.55-1.67,1.42-3.21,2.1-4.83.23-.57.47-1.21,1.26-1.26a28.1,28.1,0,0,0,7.89,1.91c1,.07,2.07-.31,3.09.07.69.72,0,1.07-.45,1.37-3,2.14-5.76,4.68-9.42,5.79a16.3,16.3,0,0,0-3,1.47,2.39,2.39,0,0,0,1.15-.17c.53-.1,1.12-.37,1.51.17s0,1.05-.29,1.48a47.76,47.76,0,0,0-2.95,5.16c.62-.52,1-1.25,1.71-1.71.28-.19.6-.45.93-.15a.77.77,0,0,1,.08.84c-.27.8-.66,1.55-1,2.63.6-.63.91-1.15,1.32-1.58s.6-.65,1-.46.4.73.31,1.18a8.731,8.731,0,0,0-.33,1.26c.75-.68.75-1.78,1.61-2.24a.56.56,0,0,1,.5.33,2.07,2.07,0,0,1,.14.92,66.054,66.054,0,0,0,2.61-7.32,2.75,2.75,0,0,1,1.73-1.87,84.2,84.2,0,0,0,7.77-3.3,1.26,1.26,0,0,1,1.27-.11,47.642,47.642,0,0,1,1.71,14.11,43.29,43.29,0,0,0,0,8.05c-.38.79-1.31.69-1.89,1.15-1,1-2.23,1-3.43,1.07a42.128,42.128,0,0,1-6.74,0,24.671,24.671,0,0,1-4-.59,25.709,25.709,0,0,1-7.64-2.12c-.65-.3-1.4-.53-1.67-1.32C252.51,175.34,251.35,174.69,251.94,173.17Z" fill="#bf3e4a"/><path d="M115.7,250.74c-.35,2.68-.74,5.35-1,8-.57,4.89-1.07,9.79-1.65,14.68a1.82,1.82,0,0,0,.49,1.61,32.609,32.609,0,0,1,4.2,5.51c.44.38,1,.77.7,1.43s-1,.5-1.6.43a10.31,10.31,0,0,1-4.48-1.36c-1.41-.9-2.91-1.65-4.36-2.48-.55-.31-1.15-.6-1.38-1.27a1.48,1.48,0,0,1,.16-1.15,5.56,5.56,0,0,0,.37-4.56c-.61-2.43-1.08-4.9-1.81-7.3a2.09,2.09,0,0,1-.08-.5c-.31-3.35.41-6.64.57-10,.1-1.5.1-1.5-2.1-1.47a1.77,1.77,0,0,1-1.21-.69,3.47,3.47,0,0,1,.08-2.46,11.28,11.28,0,0,0-.3-7.1,2.51,2.51,0,0,1-.21-2.14,1.7,1.7,0,0,1,1.23-.34,47.858,47.858,0,0,1,5.22-.22,6.9,6.9,0,0,0,2,.2,7.12,7.12,0,0,1,4.56,1.36,4.64,4.64,0,0,1,1.69,3.92,29.359,29.359,0,0,1-.62,5.11,1,1,0,0,1-.47.79Z" fill="#feede4"/><path d="M266.54,179.69a40.94,40.94,0,0,0,10.37-.6q-1,4.18-2,8.35c-.52,1.09-.05,2.11.2,3.16.92,3.83,2.36,7.53,2.87,11.47.35,2.71-.31,5.29-.82,7.89-.4,2-.89,4-1.34,6.06a9.45,9.45,0,0,1-.06,3.89c-.71,3.53-3.32,5.5-6.06,7.34a3.64,3.64,0,0,1-2.29.5c-1.72-.09-2.32-.87-2-2.63a14.74,14.74,0,0,1,3.31-4.52,4.51,4.51,0,0,0,1.28-3.48,36.208,36.208,0,0,0-.28-4.88,89.56,89.56,0,0,0-1.88-17.05A17.672,17.672,0,0,0,267,192c-1.48-3.54-1.5-7.21-1.16-10.93a2.47,2.47,0,0,1,.7-1.38Z" fill="#feede4"/><path d="M156.22,172.14a17.24,17.24,0,0,1-2.05-14.79c1.41-4.73,5.23-6.75,10.08-5.74,1.4.29,2.78.63,4.2.87,3.2.54,6.32,5.62,5.49,8.74a2.08,2.08,0,0,1-1.37,1.63c-.61.06-.72.61-1,1-2,3-4.1,6.06-6.24,9a3.4,3.4,0,0,1-3.7,1.56C159.7,174,157.61,173.9,156.22,172.14Z" fill="#987a69"/><path d="M253.41,176.13a30.8,30.8,0,0,0,9.27,3.05.84.84,0,0,1,.26.69c-1.39,3.74-.64,7.38.55,11,.12.38.15.79.3,1.15,2.17,5.44,1.54,10.87,0,16.3-.27,1-.42,1.93-.68,2.89a32.733,32.733,0,0,0-.57,3.81c-.32,3.38-2.68,5.32-5.11,7.21a4.35,4.35,0,0,1-3.59,1c-1.36-.27-1.82-1-1.61-2.42a13.25,13.25,0,0,1,3.07-4.33c.87-1,1.59-1.88,1.37-3.27a1.12,1.12,0,0,1,.42-1.06,79.191,79.191,0,0,0-2.53-23.47,35.4,35.4,0,0,1-1.33-11.08A2.65,2.65,0,0,1,253.41,176.13Z" fill="#feede4"/><path d="M262.13,215a10.52,10.52,0,0,1,.55-3.81,1.32,1.32,0,0,1,.91-.41c2.27.19,4.57.27,6.57,1.6.43,2.15.16,4.33.24,6.5a2,2,0,0,1-.8,1.36,27.639,27.639,0,0,0-3.9,5,7.451,7.451,0,0,1-2.05,2.28,3.53,3.53,0,0,0-.85.83c-.37.52-.83,1.06-.55,1.75s1.06.82,1.75.87a8.29,8.29,0,0,0,4.49-1.31,51.729,51.729,0,0,0,5.78-3.84,3.78,3.78,0,0,0,1.52-4.28,7.382,7.382,0,0,1-.3-1.74,9.38,9.38,0,0,1,.33-3.8c6.2,4.78,6.16,13.14-1.52,17.15-6.4,3.35-12.89,2.57-19.15-.48a14.77,14.77,0,0,1-6-5.59,2,2,0,0,1-.14-.71c.57-.33,1.16-.07,1.74-.06a9.29,9.29,0,0,0,5-1.47,53.565,53.565,0,0,0,5-3.39,4,4,0,0,0,1.58-4.56A9.9,9.9,0,0,1,262.13,215Z" fill="#75cbfe"/><path d="M118.12,140.44a11.39,11.39,0,0,1,11.34-3.09,8.76,8.76,0,0,0,1.16.12c2.42,1.4,3.29,3.64,3.42,6.28a20.391,20.391,0,0,1-.15,4.55,18.52,18.52,0,0,1-2.7,6.37c-2.17,3.36-5.24,4.51-8.77,3.38a14.721,14.721,0,0,1-2.64-1.78c-.22-.17-.45-.31-.68-.46-.67-.44-.65-1-.41-1.69a10.68,10.68,0,0,1,1.56-2.67c.31-.43.75-.92.32-1.46s-.91-.08-1.33.11a4.81,4.81,0,0,1-2.86.5c-.48-.34-.51-.91-.7-1.4-.22-2.57-.23-5.12,1.11-7.46C117.14,141.21,117.39,140.58,118.12,140.44Z" fill="#626564"/><path d="M156.22,270.68l-.32-.55a3.07,3.07,0,0,1-.54-1.52c0-5.54-.17-11.08.09-16.62-.11-1.17,0-2.35-.12-3.52.06-.92-.5-1.4-1.21-1.84-2.89-1.77-5.91-3.3-8.78-5.11-2.31-.92-2-.73-2,1.42,0,4.38-.48,8.76-.31,13.15a23.872,23.872,0,0,0,.25,3.68c.17.91.2,1.92-1.14,2.09a2.6,2.6,0,0,1-2-3c.13-3.65,0-7.31,0-11a4.54,4.54,0,0,0-2.35-3,1.84,1.84,0,0,1-1-1.42A23.1,23.1,0,0,0,137,239c-.12-4.87-.25-9.75.07-14.62.36-1.2,1.35-1.55,2.43-1.78,1.13.1,1.1,1,1.11,1.77.05,2.48.1,5,0,7.43a2.47,2.47,0,0,0,1.44,2.6c5.1,2.86,10.15,5.79,15.23,8.68.83.47,1.66.93,1.8,2a17.6,17.6,0,0,1,0,3.48,43.752,43.752,0,0,1,.11,5.49v17.83c-1.34.58-2-.69-2.9-1.15a52.941,52.941,0,0,0,.1-6q0-6.45,0-12.9v17.61A2.51,2.51,0,0,1,156.22,270.68Z" fill="#987968"/><path d="M69.31,281.47c-1.89-.53-2.51-1.71-2.41-3.69.16-3.34,0-6.68,0-10a2.58,2.58,0,0,1-.49-1.8c0-1.92-.05-3.83,0-5.74a6.38,6.38,0,0,0-.31-2.6c-.3-1.44-.59-2.9.2-4.29,1.17-.48,2,.48,2.77.91,5.28,2.88,10.44,6,15.65,9A4.38,4.38,0,0,1,87,266.85a7,7,0,0,1,0,2.29c-.22,6,0,12-.1,18.06a58.778,58.778,0,0,1-.16,6.5,2.77,2.77,0,0,1-3.08-2.48,13.953,13.953,0,0,0-.05-1.46,4.34,4.34,0,0,1-.52-1.84c0-5.37-.1-10.75.06-16.13.48-2.82-.25-5-3.25-5.89a3.6,3.6,0,0,1-.76-.43c-2.19-1.46-4.57-2.6-6.76-4.06-2.15-.91-2.16-.91-2.16,1.39v16.61C70.15,280.14,70.51,281.17,69.31,281.47Z" fill="#987968"/><path d="M34.26,236.83c2.22-1.61,4.71-2.79,7.06-4.17.59.09.79.57,1,1,1.14,3,3.55,3.92,6.43,4.13.84.06,1.68,0,2.52.13a12.51,12.51,0,0,0,11.26-.67c1.72-1,3.56-1.7,5.32-2.6a2.85,2.85,0,0,1,1.39-.47c1.3.47,2.61.94,3.35,2.25a.83.83,0,0,1-.34.81c-4.11,2.17-8.11,4.55-12.12,6.93-1.61,1-3.27,1.85-4.89,2.82a2.61,2.61,0,0,0-1.49,2.64,4.05,4.05,0,0,1-.22,2.2.5.5,0,0,1-.36.21c-.81-.48-.65-1.31-.58-2a3,3,0,0,0-1.81-3.21L40.47,241c-1.88-1.08-3.7-2.27-5.66-3.21C34.43,237.57,34.45,237.14,34.26,236.83Z" fill="#9f7f6c"/><path d="M34.84,237.42c2.51.8,4.54,2.49,6.82,3.73,3.42,1.89,6.73,4,10.15,5.87a2.13,2.13,0,0,1,1.2,2.25c0,.9-.31,1.87.27,2.72a2.29,2.29,0,0,1,.55,1.93v19.69a4.33,4.33,0,0,1-.27,1.59c-1.26.45-1.87-.68-2.76-1.14a12.28,12.28,0,0,1-.36-3.36v-18a2.85,2.85,0,0,0-.27-1.86c-3.44-2-6.87-3.93-10.3-5.89a2.42,2.42,0,0,1-1.93-.76c-.31,7.08-.17,14.09-.22,21.11a.61.61,0,0,1-.29.36,8.519,8.519,0,0,1-2.32-1.39,1,1,0,0,1-.13-.42q0-10.69,0-21.37c0-.2,0-.39.22-.46L35,242v19.92a5.64,5.64,0,0,1-.13,2.2c-.44-.46-.23-1-.23-1.56V242.98a3.57,3.57,0,0,0-.32-2,9.22,9.22,0,0,0,.11-2.29C34.42,238.22,34.29,237.7,34.84,237.42Z" fill="#987968"/><path d="M66.87,260v7.75a47.671,47.671,0,0,0-5.42,2.89c-1.89,1-3.58,2.4-5.65,3.07-.83-.41-.58-1.19-.59-1.84v-17.3a1.38,1.38,0,0,1,.53-.86c.51-.29.95-.05,1.39.19,2.88,1.64,5.74,3.3,8.62,4.94A2.05,2.05,0,0,1,66.87,260Z" fill="#75cbfe"/><path d="M177.62,260.34c-1.21,1.53-3.09,2.06-4.67,3-3.53,2.15-7.17,4.12-10.76,6.17a8,8,0,0,0-.83.61,1.51,1.51,0,0,1-.64-1.42c-.05-5.43-.1-10.86,0-16.29a2.321,2.321,0,0,1,.13-.58c.44-1,1.19-.66,1.86-.35a50.288,50.288,0,0,1,5.79,3.34c1.29.83,2.83,1.23,3.91,2.39.38.56.14,1.26.42,1.84a5.78,5.78,0,0,0,1.85,1.16c.77.23,1.34-.5,2.07-.44a1,1,0,0,1,.87.57Z" fill="#75cbfe"/><path d="M173.81,194.29c3.08-.93,5.84-2.34,7.63-5.18,1.06-.06,1.43.88,2.07,1.45,1.57,1.86,3.41,3.47,4.89,5.42a24.07,24.07,0,0,1,2,2.75,52.122,52.122,0,0,1-.9,5.82c-.11.83-.7.74-1.36.61-5.46-1.13-9.88-3.78-12.78-8.69C174.87,195.71,174.32,195,173.81,194.29Z" fill="#feede4"/><path d="M83.56,271.32v18.44l-12.39-7.25c-.43-.25-.84-.52-1.26-.78a.47.47,0,0,1,.14-.52c1.51-.76,1.89-2.12,2-3.63a2.67,2.67,0,0,1,1.1-.95c2.92-1.8,5.93-3.45,8.89-5.19C82.55,271.16,83,270.87,83.56,271.32Z" fill="#75cbfe"/><path d="M155.91,251.7v18.43q-6.6-3.74-13.19-7.5a2.48,2.48,0,0,1-.5-.52,10.926,10.926,0,0,1,1.13-.68,2.59,2.59,0,0,0,1.7-2.78,2.22,2.22,0,0,1,.25-1.28,66.807,66.807,0,0,1,6.7-4c.79-.49,1.6-1,2.43-1.41C154.88,251.69,155.33,251.27,155.91,251.7Z" fill="#75cbfe"/><path d="M136.91,243.59a8.329,8.329,0,0,0,2.46,1.78c1.19.55.68,1.59.7,2.48l-13.25,7.67a6.559,6.559,0,0,1-.81.34.78.78,0,0,1-.53-.63c-.08-4.25-.11-8.51,0-12.77a1,1,0,0,1,.41-.62c1-.07.81,1.11,1.56,1.54.49-.75.24-1.6.33-2.37.16-1.34.54-1.56,1.72-.9a27.81,27.81,0,0,1,2.35,1.53C133.39,242.71,135.22,243,136.91,243.59Z" fill="#75cbfe"/><path d="M37.44,265.62a1.088,1.088,0,0,1,.07-.24c.02-.08.09-.33.2-.39a3.52,3.52,0,0,0,1.81-3.56,1.1,1.1,0,0,1,.21-.55c2.85-2.05,6-3.57,9-5.36.58-.34,1.25-.4,1.59.43.2,5.12.06,10.24.08,15.35a1.66,1.66,0,0,1-.42,1.22c-2.72-.87-4.88-2.77-7.41-4C40.83,267.67,39.15,266.6,37.44,265.62Z" fill="#75cbfe"/><path d="M37.22,193.7a9.091,9.091,0,0,0,2.53.81c1.9,0,2.15,1.1,2.16,2.67,0,5.68.74,11.36.07,17-.08.69-.23,1.37-.35,2.05-1.09,1-1.77.63-2.37-.6-.72-1.5-1.56-2.94-2.36-4.41-1.64-1.88-1.69-4.18-1.62-6.49a23.66,23.66,0,0,1,.35-2.76,37.71,37.71,0,0,0,.77-6.17A2.568,2.568,0,0,1,37.22,193.7Z" fill="#feede4"/><path d="M123.76,257.91a2.79,2.79,0,0,1-3.29-2.23,4.622,4.622,0,0,0-.07-1,4.46,4.46,0,0,1-.45-1.55c0-5.17-.14-10.34.08-15.51a21.162,21.162,0,0,1,0-4,8.289,8.289,0,0,1,0-.86,2.78,2.78,0,0,0-2-3.28,13.826,13.826,0,0,1-2.72-1.84,5.76,5.76,0,0,1,2.84-3.58,21,21,0,0,1,5,2.58,1.67,1.67,0,0,1,.71,1.23,17.73,17.73,0,0,1,0,4,26.36,26.36,0,0,0-.15,3.55C123.75,242.91,123.73,250.41,123.76,257.91Z" fill="#987968"/><path d="M103.26,283.05q-5.085,3-10.16,6c-1.32.76-2.66,1.47-4,2.21-.74-.39-.56-1.09-.56-1.7v-7.81a1.15,1.15,0,0,1,.4-.9c.92.1,1.34-.18,1.4-1.24.18-2.73.76-3,3-1.41a15.07,15.07,0,0,0,4.4,2.31c2.09-.05,3.62,1.23,5.31,2.16a.58.58,0,0,1,.21.38Z" fill="#75cbfd"/><path d="M180.61,253.11c2.66,2.34,4.83,2.5,8.21.58.64-.37,1.26-.78,1.88-1.17.52-1.13,1.72-1.54,3.25-1.05a2.06,2.06,0,0,1,1.5,2.51,4.25,4.25,0,0,1-2.06,3.37,12.63,12.63,0,0,0-3.7,1.82c-2.82,1.95-5.7,1.61-8.6.37-1-.42-1.81-1.06-2.77,0-.36.41-.66,0-.71-.36a18.27,18.27,0,0,1,0-4.73c.07-.55.58-.77,1-1C179.27,253.24,179.88,252.85,180.61,253.11Z" fill="#f2f4f6"/><path d="M190.36,198.73c-1.37-.41-1.71-1.84-2.54-2.75-1.27-1.39-2.48-2.85-3.87-4.15a1.57,1.57,0,0,1-.67-1.1,1.5,1.5,0,0,1-.34-.95c.27-2.51.18-5.07,1-7.5.19-.19.9.12.54-.64a.88.88,0,0,1,.43-1,13.88,13.88,0,0,0,3.44-2.7,39.682,39.682,0,0,0,1.28,7.27A52.57,52.57,0,0,1,190.36,198.73Z" fill="#fde9de"/><path d="M103.56,140.44a7,7,0,0,0,1.5-2.64,3.23,3.23,0,0,1,2.06-.08h.59a20.259,20.259,0,0,0,3.57.08c-.08.89-1.23,1.2-1.19,2.24,0,.21-.32.43.1.66a2.81,2.81,0,0,1,1.39,2.15,1,1,0,0,1-.47.93c-.76.06-1.15.2-.71,1.15a6.74,6.74,0,0,0,2.6,3c.45.29,1,.52.77,1.25a16.649,16.649,0,0,0-1.64,2.72c-.33.63-.6,1.35-1.43,1.52-.56,0-.82-.5-1.12-.89-.89-1.18-1.84-2.31-2.8-3.43a8.68,8.68,0,0,0-4.2-2.89c-.59-.17-1.3-.21-1.59-.93a10.78,10.78,0,0,1,2.57-4.84Z" fill="#e5e5e5"/><path d="M180.88,185.35c-1.13-1.43-2.26-2.85-3.36-4.29a9.27,9.27,0,0,0-6.48-3.67c1.24-2.17,2.53-4.31,3.68-6.52a1.94,1.94,0,0,1,2.36-1.22,20.369,20.369,0,0,0,4.41.23c-.73.73-.33,2.22-1.77,2.59a2.89,2.89,0,0,1,2,2.48,1.16,1.16,0,0,1-.43,1c-.83,0-1.23.13-.72,1.11a6,6,0,0,0,1.77,2.27c.59.42,1.24.83,1.29,1.67C183,182.63,182.44,184.3,180.88,185.35Z" fill="#e5e5e5"/><path d="M51.18,238.25a30.588,30.588,0,0,1-3.82-.12c-3.39-.36-5-2.58-6-5.47a19.9,19.9,0,0,1-.18-8.62,8,8,0,0,0,5,3.33c.51.13,1,.34,1.5.51a7.83,7.83,0,0,1,.44,1.68,12.25,12.25,0,0,0,2.8,7.9.84.84,0,0,1,.26.79Z" fill="#156795"/><path d="M120.4,237.42v17.23c-1.34-.78-2.65-1.63-4.05-2.29-.83-.4-.48-1.06-.65-1.62.17-1.61.34-3.23.52-4.84a5.08,5.08,0,0,0-1.36-4.62c-.45-.29-.69-.73-.2-1.07a24.4,24.4,0,0,1,5.07-3A.59.59,0,0,1,120.4,237.42Z" fill="#75cbfd"/><path d="M106.77,277.35c2.2,1.24,4.38,2.51,6.59,3.72a11.67,11.67,0,0,0,5,1l-.64-1.49a14.389,14.389,0,0,0,4.22.69c.56,0,1.27-.19,1.51.59s-.22,1.21-.69,1.67a7.23,7.23,0,0,1-8.76,1.11c-1.54-.87-3-1.9-4.6-2.93-.41,1.16-.15,2.3-.36,3.37-.09.43.16,1.05-.64,1.11s-.82-.39-1-.88c-.4-1.38-.81-2.75-1.22-4.13-.69-.85-.32-1.85-.37-2.79C106,277.88,106.05,277.32,106.77,277.35Z" fill="#bf3e4a"/><path d="M36.05,202.08a17.41,17.41,0,0,0,.85,9.18c-1.44,1.15-2.4-.17-3.52-.67a1,1,0,0,1-.26-1c.19-6.42,0-12.85.08-19.27a2.36,2.36,0,0,0-.11-.79c-.68-1.34-.25-2.77-.29-4.16.11-.25.34-.46.57-.34,1.56.79,3.4,1.13,4.46,2.74l-1.19,4.19c-.79.17-.39.75-.39,1.19C36.26,196.11,36.15,199.09,36.05,202.08Z" fill="#987968"/><path d="M156.22,172.14a15.3,15.3,0,0,0,6.17,2,2.41,2.41,0,0,0,2.37-1.16c2.27-3.37,4.6-6.68,6.91-10l.77-1.09c.06.48.1.75.13,1a48,48,0,0,1-3.36,9.58,10.124,10.124,0,0,1-.61,1.18c-1.13,1.92-1.42,2-3.38.92-.41.42-.24.88-.11,1.34,0,.77-.37,1.12-1.15,1.22a16.11,16.11,0,0,1-7.26-.78c-.75-.25-1.34-.69-1.06-1.64a4.67,4.67,0,0,0,.58-2.57Z" fill="#fcede4"/><path d="M123.76,257.91c-.29-.34-.67-.5-.66-1.17.08-7.65.07-15.3.09-23a3.71,3.71,0,0,1,.29-2c.77-.58,1.47-1.41,2.6-.75.64,1.36.06,2.8.29,4.19a2.22,2.22,0,0,1,.21,1.19,14.3,14.3,0,0,0-.15,4c0,.53.19,1.1-.29,1.53l-.27.28a61.7,61.7,0,0,0-.14,7.81,26,26,0,0,0,.14,5.29,3.157,3.157,0,0,0,.14.59C125.93,257.28,124.66,257.38,123.76,257.91Z" fill="#9f7e6c"/><path d="M89.29,280.8c-.27.13-.26.42-.33.65a88.83,88.83,0,0,0,0,10.7c-.44,1-1.46,1.1-2.25,1.55a1,1,0,0,1-.51-1q.06-11.25.11-22.51c0-.44-.09-.9.3-1.25.72-.72,1.41-1.57,2.59-.78.45,1.16.12,2.37.25,3.56a16.482,16.482,0,0,1,.12,2,56.89,56.89,0,0,0,0,5.84A1.42,1.42,0,0,1,89.29,280.8Z" fill="#9f7f6c"/><path d="M161.34,251.39v18.75c-.34,1.08-1.38,1.27-2.21,1.72-.72-.46-.56-1.2-.56-1.88V248.42a7.658,7.658,0,0,1,1.48-1c.58-.24,1.14-.34,1.51.36A4.57,4.57,0,0,1,161.34,251.39Z" fill="#9f7e6b"/><path d="M103.26,283.05,103,283c-.79-.48-.63-1.25-.62-2,.09-6.46.05-12.92,0-19.37a6,6,0,0,0-.15-1.47c.38-1.29,1.59-1.49,2.59-1.9.67-.27.64.34.66.78a43.708,43.708,0,0,0,.13,5.12h.06a59.35,59.35,0,0,1,.26,14.77,5.28,5.28,0,0,1-.29,2.52Z" fill="#9f7f6c"/><path d="M145.5,257.36c0,.54-.05,1.07-.05,1.61,0,2-1.11,3.08-3.24,3.14a.72.72,0,0,0-.07-.25,1.68,1.68,0,0,0,.55-2.31,2.39,2.39,0,0,1-.16-1c-.22-5.92.33-11.83.28-17.75,0-.94.32-1,1-.54a19.647,19.647,0,0,0,1.94,1c.58,1.91,0,3.84.14,5.76v1.78c.21,2.36.08,4.72.07,7.08A2.18,2.18,0,0,1,145.5,257.36Z" fill="#9f7e6c"/><path d="M122.3,157.61c3.55,1,5.85.28,8.14-2.68a15.94,15.94,0,0,0,2.58-5.1,4,4,0,0,1,.63-1.62c.43-.62.77-1.35,1.72-1.25a21.41,21.41,0,0,1-1.44,9,8.5,8.5,0,0,1-1.57,2.48,1.49,1.49,0,0,1-1.84.58c-1.36-.68-1.78-.11-1.66,1.22a6.153,6.153,0,0,1,0,.74c-1.43,1.25-3.08,1.14-4.77.74a5.27,5.27,0,0,1-2.15-2.68,1.42,1.42,0,0,1,.36-1.43Z" fill="#fdede4"/><path d="M72.42,277.55a2,2,0,0,0,0,.59,2.56,2.56,0,0,1-1.87,3.16,2.36,2.36,0,0,0-.58.43l-.61-.26c.52-.48.32-1.11.32-1.68V261.42c0-1.9,0-1.9,1.74-1.06.52.25,1,.56,1.53.85a16.579,16.579,0,0,0-.1,2.73c.18,4,0,7.95.07,11.92a4.48,4.48,0,0,1-.5,1.69Z" fill="#9f7e6c"/><path d="M183.28,180.93c-.07-.7-.7-1-1.15-1.25-1.59-.75-1.71-2.45-2.58-3.66a.43.43,0,0,1,.1-.65c.61-.32,1,.11,1.42.47,1-.78,1.11-2.09,1.79-3.07s.82-2,1.89-2.5a4.72,4.72,0,0,1,2.71,4.08,6.2,6.2,0,0,1,.87,3.57,2.72,2.72,0,0,1-2.27,2.43c-1.22.38-1.49,1.4-1.45,2.6l-.37-.86C183.64,181.93,183.72,181.22,183.28,180.93Z" fill="#feede4"/><path d="M262.13,215a13.551,13.551,0,0,1,.78,1.9,4,4,0,0,1-1.37,4.5c-2.63,2-5.26,4-8.47,5.09a5.27,5.27,0,0,1-4-.14,2.45,2.45,0,0,1-.57-1.41,6.17,6.17,0,0,1,4.26-4.33c-.44,1.54-.05,2.1,1.51,2.18a3.6,3.6,0,0,0,2.52-.69C259.11,220.21,261.71,218.45,262.13,215Z" fill="#4d4d4d"/><path d="M252.71,220.65a14.19,14.19,0,0,0-4.26,4.33,8.27,8.27,0,0,1,1.8-8.9,13.27,13.27,0,0,1,6.82-4,5,5,0,0,1-1.73,5,9.57,9.57,0,0,0-2.63,3.57Z" fill="#74cbfd"/><path d="M55.7,254.39a.27.27,0,0,1,0,.26c-.36.49-.17,1-.17,1.58-.06,5.94.08,11.88-.08,17.82a5,5,0,0,1-1.86,1.15c-.56-.77-.28-1.66-.28-2.48V251.99h0c.52-.79,1-1.71,2.21-1.18C56,252,55.57,253.2,55.7,254.39Z" fill="#9f7f6c"/><path d="M50.1,178.12c-3.15-.39-6,.16-8.1,2.76-.81,1-1.6,2-2.4,3-1.12-.1-1.46-.86-1.55-1.83l-.27-3.56a27.53,27.53,0,0,1,.94-4.21,1.32,1.32,0,0,1,1.39.13,17.19,17.19,0,0,0,9.46,1.75,1.69,1.69,0,0,1,1,.15C51.07,177.09,51.1,177.74,50.1,178.12Z" fill="#de624a"/><path d="M147.29,177.92c.59,1,0,2.08,0,3.12.06,3,0,6,0,9,0,1-.31,1.38-1.26,1.3-1.39.65-2.46,0-3.45-.88-.62-.55-.48-1.23-.3-1.9a10,10,0,0,0,.54-2.87c.62-1.36,1.2-2.75,1.86-4.09a11.89,11.89,0,0,1,2.61-3.68Z" fill="#987968"/><path d="M180.91,213.6a21.679,21.679,0,0,1-4.1,2.09c-2.19,1.1-4.39,2.18-6.59,3.27l-.33-4.44c2.36-1.1,4.65-2.46,7.43-2.12A6.59,6.59,0,0,1,180.91,213.6Z" fill="#156795"/><path d="M135.37,147c-.62.35-1,1-1.72,1.25-.28-1.92.08-3.86-.26-5.81a6,6,0,0,0-2.67-4.3c-.28-.18-.18-.4-.1-.63a5,5,0,0,1,5.47,2.37A5.37,5.37,0,0,1,136,146C135.81,146.31,135.59,146.64,135.37,147Z" fill="#5a5b59"/><path d="M178.81,253.81a1.41,1.41,0,0,0-.91,1.48c.08,1.32,0,2.66,0,4a1.79,1.79,0,0,1,2.69-.62c1.89,1.47,6.43,1.94,8.81.08,1.08-.84,2.33-1.86,4-1.45a31.182,31.182,0,0,1-5.87,3.93,5.73,5.73,0,0,1-5.8-.15,5.87,5.87,0,0,0-4.1-.79l-.84-.3a28.32,28.32,0,0,0,.35-5.12,1.78,1.78,0,0,1,.43-1.23.91.91,0,0,1,1.24.17Z" fill="#e9ebef"/><path d="M124,161.3c1.67.5,3.26,0,4.87-.33,1.25.6,1.59,1.85,2.14,3-2,1.19-4.26.93-6.46.89C123.49,163.78,123.66,162.55,124,161.3Z" fill="#fcfcfc"/><path d="M38.05,182.06l1.55,1.83-1.77,3.86c-1.41-.77-2.83-1.53-4.22-2.32a.74.74,0,0,0-.81-.08c.49-1.1,1.69-1.21,2.55-1.81a27.14,27.14,0,0,1,2.7-1.48Z" fill="#9f7e6c"/><path d="M181.44,175c-.31-1.52-1.67-2-3-2.56a1.79,1.79,0,0,1,2.14-.37c-.06-.51-.4-.5-.61-.61s-.5-.17-.42-.48a.59.59,0,0,1,.55-.41c.53-.05,1.1,0,1.37-.64l2.62.3A9.62,9.62,0,0,1,181.44,175Z" fill="#fbece5"/><path d="M111.3,142.84c-.44-.67-.5-1.63-1.52-1.87-.41-.09-1-.26-1-.74.09-.7.84-.19,1.31-.53-.58-.41-1.07-.9.07-1.23.42-.12.88-.19,1.1-.66l2.68.27c.27,1.46-.85,2.39-1.4,3.52C112.31,142.1,112.15,142.87,111.3,142.84Z" fill="#fbece4"/><path d="M118.12,140.44l-.85,1.21c-.73.15-.87-.5-1.11-.9-.48-.8-1.38-1.22-1.77-2.08,0-.31,0-.62.42-.61.9.56,1.91.28,2.87.29s1.51.22.74,1.27a3.311,3.311,0,0,0-.3.82Z" fill="#e2e4e4"/><path d="M50.25,250.32c.17-.19.43-.4.54,0a4.81,4.81,0,0,1,.11,1.32q0,11.11.07,22.23c0,.08-.1.16-.15.24a.55.55,0,0,1-.22-.06,15.16,15.16,0,0,1-.29-2.93c0-6.73,0-13.46-.15-20.2a1.05,1.05,0,0,1,.09-.6Z" fill="#99735e"/><path d="M187.46,174.35a9.14,9.14,0,0,0-2.73-3.87c-.15-.3-.21-.55.26-.55.79.73,1.77.5,2.69.54,1.34.07,1.47.31.76,1.48C188,172.7,187.28,173.34,187.46,174.35Z" fill="#e4e5e4"/><path d="M50.31,250.52c.53.48.28,1.12.28,1.68V274c-.48-.41-.21-1-.32-1.47-.28-2.81-.05-5.63-.12-8.45s.17-5.82-.14-8.73C49.68,253.71,49.35,252.08,50.31,250.52Z" fill="#86b0c9"/><path d="M34.84,264.12v-22.4h.28v22.51Z" fill="#96755a"/><path d="M33.08,210.57c-.46.16-.32-.22-.32-.4V190.65a2.89,2.89,0,0,1,.24-.83c.47.49.33,1.11.33,1.69v16.73a8.69,8.69,0,0,1-.25,2.33Z" fill="#8fdffb"/><path d="M33.08,210.57q0-10.37-.07-20.75a1.29,1.29,0,0,1,.08-.31l.27.32a3.48,3.48,0,0,1,.13,1.6v16.7a3.65,3.65,0,0,1-.12,1.61c0,.28,0,.56,0,.85h-.15Z" fill="#99999b"/><path d="M55.44,274.05c0-3.63-.06-7.27-.08-10.9v-7c0-.52-.17-1.1.32-1.53l.06,17.29a14.967,14.967,0,0,0,.07,1.77Z" fill="#9f7a61"/><path d="M50.28,255.27v17.26H50v-17C49.94,255.3,50,255.21,50.28,255.27Z" fill="#6fd2fe"/><path d="M114.81,138.06l-.27.57c-.38,2.1-1.72,3.71-2.83,5.42-.31.47-.87.55-.78-.35.12-.29.24-.57.37-.86a30.79,30.79,0,0,0,2.66-4.76c.55-.36.48-1.27,1.27-1.47C115.51,137.25,114.8,137.55,114.81,138.06Z" fill="#f0c479"/><path d="M185,169.93c-.09.19-.17.37-.26.55-.9,1.56-1.77,3.13-2.71,4.66-.18.31-.15,1.13-1,.7.13-.3.25-.59.37-.89l2.67-4.77,1.13-1.77C185.65,169.14,185.11,169.5,185,169.93Z" fill="#f1c477"/><path d="M89,292.15c-.78-.32-.53-1.33-.48-1.58.51-2.82,0-5.65.22-8.46a2.63,2.63,0,0,1,.27-.66l.15,9.81A2.537,2.537,0,0,0,89,292.15Z" fill="#a47964"/><path d="M105.64,281.46V279c.36-.17-.19-.91.53-.84v3Z" fill="#7fbadf"/><path d="M34.84,237.42c-.69,1.1.09,2.44-.56,3.55a17.38,17.38,0,0,1,0-4.14Z" fill="#9b725c"/><path d="M119.28,110.33c-2.86,2-6,3.56-9,5.33-3.23,1.9-6.5,3.75-9.74,5.61-1.44,0-2.84-.08-3.86-1.31a2.8,2.8,0,0,1,1.64-1.42,2.39,2.39,0,0,0,1.46-2.48c0-5.35,0-10.7,0-16V73.11c0-.68-.31-.9-1-.61-.31.15-.62.3-.92.48-4.51,2.6-9,5.14-13.56,7.72a2.86,2.86,0,0,0-1.63,2.85q0,21.26,0,42.51a1.94,1.94,0,0,0,.81,1.92c.46,1.09.69,2.16-.23,3.14-.49.24-1,.46-1.45.72-1.64.88-1.64.89-1.75-.92a3.27,3.27,0,0,1-.14-1.61V58.75a3.12,3.12,0,0,1,.14-1.6c-.32-1.82.71-2.66,2.17-3.48C94.12,47,106,40.2,117.85,33.49c.39-.22.88-1.09,1.45-.15.29.4.16.86.16,1.3v74.71C119.46,109.68,119.59,110.05,119.28,110.33Z" fill="#fdfdfd"/><path d="M39.63,132.76l.23-.31a7,7,0,0,1,1.69-2.78,11,11,0,0,0,2.91-4.57c.86-2.41,1.61-4.87,2.6-7.24,1.48-3.55,3.52-5,7.3-4.65a17,17,0,0,1,5.49,1,15.739,15.739,0,0,1,2.31,1.1A8.94,8.94,0,0,1,65.25,118a5.12,5.12,0,0,1,.45,4.28,1.41,1.41,0,0,1-1.62,1.2c-.93-.52-1.52-.47-1.6.81a10.23,10.23,0,0,1-.43,2.46,7.85,7.85,0,0,0,.54,6.41c.44,1.89,1.07,3.77.39,5.73-.27,4.8-2.74,8.31-6.55,11a17.083,17.083,0,0,1-1.64,1c-4.54,1.85-10.23,1.49-13.84-3-1.33-1.75-2.45-3.59-2.43-5.9l-.14-1.88c.08-1.09,0-2.18,0-3.27-.09-1.52.79-2.75,1.21-4.11Z" fill="#de624a"/><path d="M77.35,145.75a4.63,4.63,0,0,1,3.31-2.53,14.85,14.85,0,0,1,5-.66,3.22,3.22,0,0,0,2.58,1.72,23.4,23.4,0,0,0,4.09.47A6.23,6.23,0,0,0,95,144l1.76.33a6.32,6.32,0,0,1,3.92.83c.31.68-.22,1-.63,1.31a3.54,3.54,0,0,0-1.31,2.84c-.18,3.31,1,6.28,2.27,9.22a4.63,4.63,0,0,1,.66,1.93c0,4-.89,8-1.26,12-.17,1.78-.13,3.57-.29,5.34a2.055,2.055,0,0,1-.49,1.66c-.49.45-1-.11-1.26-.47a8.58,8.58,0,0,0-3.18-2.15c-1.53-.7-3.1-1.31-4.66-1.92a6.83,6.83,0,0,0-5.87.67c-.67.37-1.27,1-2.17.7-.41-.66.21-1.19.24-1.87-1.05-.41-2.35.27-3.28-.69a.93.93,0,0,1-.09-.81,2.54,2.54,0,0,1-.37.64,1,1,0,0,1-.93.22,1.34,1.34,0,0,1-.83-1.3c-.35-4.32-.39-8.65-.58-13a81.588,81.588,0,0,1,.16-11.7,6.13,6.13,0,0,1,.54-2.03Z" fill="#b2b2b2"/><path d="M61.92,115.54l-2.12-1a3,3,0,0,1-.5-2.26q0-7.875,0-15.76c0-1.84-.13-1.93-1.66-1Q50.85,99.34,44,103.15a3.28,3.28,0,0,0-1.86,3.33c.06,7,0,14,0,21a5.77,5.77,0,0,1-.46,2.6l-1.89,2.4v-54c0-1,.61-1.38,1.29-1.76L61.65,65q8-4.52,15.89-9c.91-.52,1.31-.69,1.31.67v75.26a1.85,1.85,0,0,1-1.09,1.87c-4.79,2.69-9.56,5.43-14.34,8.15-.61.25-.82-.05-.78-.6v-2.2a3,3,0,0,1,1.61-1.65c3.45-2,7-4,10.4-6a2.84,2.84,0,0,0,1.61-2.72q0-21,0-42c0-1.62-.24-1.76-1.71-.92-3.46,2-7,4-10.43,6-1.93,1.11-2.06,1.45-1.52,3.74.07,6.1,0,12.19,0,18.28C62.4,114.36,62.63,115.14,61.92,115.54Z" fill="#fdfdfd"/><path d="M96.7,120.18a10.19,10.19,0,0,1,3.81,1.1,10.81,10.81,0,0,1,3.27,5.8c.42,1.91,0,2.91-1.37,3.79,0,0-.11-.06-.12-.09s-.15-.21-.19-.11a19.83,19.83,0,0,1-2.17,3.52c-1.47,2.23-3.13,4.33-4.59,6.56a3.52,3.52,0,0,1-4,1.7,25.56,25.56,0,0,1-4-1.18,1.83,1.83,0,0,1-1.27-1.15,18,18,0,0,1-2.81-9c0-1.06,0-2.11.07-3.17-.47-2.23.52-4.1,1.77-5.73,2.94-3.85,7.24-3.91,11.09-2.54a1.09,1.09,0,0,1,.51.5Z" fill="#f2af36"/><path d="M62.83,139c.25,1-.67,2.18.58,3,2.18,1.84,2.25,4.47,2.65,7a87.079,87.079,0,0,0,2.19,10,8.4,8.4,0,0,0,.48,1.06c1.47,0,3.12.32,3.71-1.68,1.71-.38,3.16.38,4.61,1.09.2,4.23.41,8.45.58,12.68,0,.68,0,1.32,1,1.27,0,1.75-1.42,4.09-2.78,4.63-.79-.34-1.12-1.22-1.92-1.57a.8.8,0,0,1-.55-.94c.15-.64.64-.65,1.14-.57-1-.46-1-.46-.23-1.38-1.09-.1-2.32.38-3.16-.74a6.52,6.52,0,0,1-.24-4.29c0-.34.59-.84-.25-1-1.21.16-2.47,0-3.55.76-.86,2.36-1.61,4.77-2.66,7.06a19.06,19.06,0,0,1-1.26,2.36,1.9,1.9,0,0,1-2.25,1,1,1,0,0,0-1.3.38,1.1,1.1,0,0,1-1.13,1.23,15.76,15.76,0,0,1-7.39-.88c-.61-.23-1.19-.57-.95-1.41a2.65,2.65,0,0,0,.46-1.66.81.81,0,0,1-.1-.87c.64-.57,1.22-.11,1.79.12a16,16,0,0,0,4.14,1.14,2.79,2.79,0,0,0,2.8-1.27q3-4.3,6-8.66a3.418,3.418,0,0,1,1.94-1.72c.65-.14.75-.7.81-1.27a7.54,7.54,0,0,0-6.12-7.88,8.78,8.78,0,0,1-3.69-.99,11.88,11.88,0,0,0-2-1.66c-.82-.73-1.82-1.41-1.46-2.78a20,20,0,0,0,4.78-4,14.09,14.09,0,0,0,3.18-7.63Z" fill="#feede4"/><path d="M50.65,175.43l-.09,1a16.07,16.07,0,0,1-10.77-1.68c-.35-.18-.72-.33-1.07-.49-.93-1.15-.79-2.12.26-3.21,2.34-2.43,2-5.58,2.1-8.6a2.81,2.81,0,0,1-.47-2.39c.13-1,.19-2,.31-3-.16-.82.11-1.65,0-2.46a19.88,19.88,0,0,1-.34-5.55c0-.57,0-1.19.64-1.54,3.79,4.25,8.42,4.62,13.5,2.93a4.74,4.74,0,0,0,2.88,3.13c.53.16.53.65.63,1.07-.48.57-1.16.45-1.78.48a7.35,7.35,0,0,0-7.19,5.37,17,17,0,0,0,.82,12.67C50.35,173.94,51,174.56,50.65,175.43Z" fill="#f2af36"/><path d="M41.22,157.16a36.329,36.329,0,0,1-.14,5.32c-2.24.3-4.5.54-6.73.94-1,.18-1.32-.18-1.59-1a9.33,9.33,0,0,1,.18-5.11c1.13-4.83,3.21-9.32,5-13.91.18-.45.37-.91.55-1.37a18.43,18.43,0,0,0,2.67,5.56v7.11C41.14,155.52,40.12,156.35,41.22,157.16Z" fill="#feede4"/><path d="M86.06,140.12a16.15,16.15,0,0,0,5.84,2A2.5,2.5,0,0,0,94.58,141c2.18-3.23,4.42-6.41,6.64-9.61.33-.47.65-.94,1.11-1.62a10.576,10.576,0,0,0,.08,1.1,44.89,44.89,0,0,1-3.72,10.31c-1.15,2.31-1.29,2.33-3.63,1.52-.3.4-.11.84-.11,1.27a1.23,1.23,0,0,1-1.29,1.17,16,16,0,0,1-7.23-.91c-.77-.3-1.28-.75-.8-1.67a7,7,0,0,0,.43-2.44Z" fill="#fdede4"/><path d="M77.05,159.5c-1.58.13-2.94-.84-4.48-.92a.39.39,0,0,1-.5-.32,20.4,20.4,0,0,1,2.45-8.59,10.55,10.55,0,0,1,2.83-3.92C76.94,150.33,77.14,154.92,77.05,159.5Z" fill="#cbcbcb"/><path d="M119.28,110.33v-77c.53.54.3,1.22.3,1.84v72.44a10.58,10.58,0,0,0,.18,2.51C119.81,110.21,119.82,111.19,119.28,110.33Z" fill="#6bc7fd"/><path d="M80.05,57.15v73.77c-.46-.45-.29-1-.29-1.55V58.7C79.76,58.17,79.59,57.6,80.05,57.15Z" fill="#6dc9fb"/><path d="M39.62,132.77c-.51-.54-.31-1.22-.31-1.85V80.37c0-.87-.34-1.76.27-2.63v55.01Z" fill="#6ec7fb"/><path d="M100.56,145.29a16.51,16.51,0,0,1-3.85-1,39.1,39.1,0,0,1,6.85-3.86c-.47,1.76-1.73,3.12-2.4,4.78a.47.47,0,0,1-.6.08Z" fill="#95d8fb"/><path d="M72.07,158.26l.5.32c-.08.48-.18.95-.24,1.43s-.24.71-.64.57c-1-.35-2,.06-3-.49C70.08,159.92,71,158.89,72.07,158.26Z" fill="#94d7fb"/><path d="M38.41,136.88a3.82,3.82,0,0,1,0,3.27.18.18,0,0,1,0-.23,6.77,6.77,0,0,1,0-2.8A.21.21,0,0,1,38.41,136.88Z" fill="#e35a37"/><path d="M38.38,137.12v2.8A4.4,4.4,0,0,1,38.38,137.12Z" fill="#de624a"/><path d="M107.12,137.72l-2.06.08a1.73,1.73,0,0,1,2.06-.08Z" fill="#94d8fd"/><path d="M256.75,156.52a.52.52,0,0,1-.27.55l-57.14-33q-16.47-9.51-33-19a2.09,2.09,0,0,1-1.24-2.08V28.78c0-.36-.56-1.24.57-1.12a3,3,0,0,0-.17,1.74v-.14a2.635,2.635,0,0,1,.17-1.59c6.1,3.49,12.21,7,18.3,10.47Q210.81,53.56,237.56,69q7.14,4.11,14.27,8.26c.4.24,1,.33,1.08.92a3,3,0,0,0,1.44,2c1,.48,1.07,1.42,1.07,2.42v33.88a8.4,8.4,0,0,1-.32,3.4c-.1.44.29.24.1.25v-.09a.81.81,0,0,1,.36-.89.87.87,0,0,1,.43-.21c.29,0,.38.25.53.42l.12,1.46c-.17.85-.27,1.76-1.44,1.83-1-.56-.77-1.52-.77-2.39v-34a7.711,7.711,0,0,0-.09-1.92,7.79,7.79,0,0,1,.09,1.93v33.9c0,1.32.43,2.66,0,4-.32.47-.63.31-1,0a1.2,1.2,0,0,1-.11-.56,19.238,19.238,0,0,0,.06-2.52V84.18a2.282,2.282,0,0,0-.11-.45c-.27-.49-.29-1.11-.8-1.46-6.74-4-13.55-7.85-20.32-11.78Q218.71,62.71,205.31,55l-36-20.78c-.42.09-.32.47-.41.74-.05,21.91,0,43.82,0,65.72a3.21,3.21,0,0,0,.1.88,2.13,2.13,0,0,0,.23.42c5.09,3.17,10.34,6.06,15.52,9.06q21.76,12.56,43.51,25.13,11.715,6.765,23.43,13.51a.9.9,0,0,0,.71.16c.27-3.2-.11-6.45.2-9.68a14.92,14.92,0,0,1,2.71-3.5c.28-.31.63-.72,1.11-.21a1.72,1.72,0,0,1,.09,1.26,12.142,12.142,0,0,0-.14,3.24c0,4.44-.13,8.89.08,13.32.11.31.22.62.32.93S256.56,156.08,256.75,156.52Z" fill="#987968"/><path d="M271.07,152.4a20.61,20.61,0,0,1-9.71-1.25,4.83,4.83,0,0,1-1.68-.91,1.38,1.38,0,0,1-.34-1.37c1-4-.08-7.92-.3-11.88a3.43,3.43,0,0,1,.13-1.74c.29-.53.82-.48,1.3-.45a16.41,16.41,0,0,1,6.19,1.25,5.85,5.85,0,0,0,4.72.26,5.94,5.94,0,0,1-4.84-.32,14.58,14.58,0,0,0-5.6-1.16,8,8,0,0,1-2.71-.61,2.59,2.59,0,0,1-.61-.38c-1.6-2.07-1.91-4.56-.28-6.7a13.68,13.68,0,0,0,2.71-7.34c.05-.52.08-1.1.65-1.41,1.12-1.41,2.65-1,4.1-.9.41,1-.42,1.88-.42,2.85,0,.43-.22,1,.18,1.25s.81-.18,1.18-.38a17.4,17.4,0,0,0,1.68-1.43.79.79,0,0,1,.62,0c.64.67.54,1.66,1.07,2.4s1.06,1,1.91.34a25.922,25.922,0,0,0,3-2.85c.36-.4.62-.92,1.23-1,1.09-.39,1.94.34,2.85.69a32.076,32.076,0,0,1,3,1.48,1.22,1.22,0,0,1-.48,1.31c-3.1,3.17-3.4,7.09-3,11.19a10.061,10.061,0,0,1,0,3.24,64.918,64.918,0,0,0-1.76,6.85c-.33,1.78.26,3.61.21,5.43a7.32,7.32,0,0,1-5,3.54Z" fill="#666"/><path d="M271.07,152.4a32,32,0,0,0,4.69-3.31,3.27,3.27,0,0,1,1.32-1.36,2.09,2.09,0,0,0,1.05-2.49c-.22-1.61-.51-3.21-.74-4.82a15.36,15.36,0,0,1-.15-3.95c-.07-1.33-.1-2.67-.22-4-.39-4.49.69-8.45,4.06-11.62a4.76,4.76,0,0,1,2.3,3c1.51,4.49,1.49,9.15,1.22,13.77-.2,3.46-.15,6.91-.18,10.37,0,2.14-.36,3.86-2.6,4.88a41.5,41.5,0,0,0-4.77,3,70.9,70.9,0,0,1-9,3.83,2,2,0,0,0-1.38,1.52,51.468,51.468,0,0,1-2.51,7.26c-.19.41-.26,1.19-.82,1s-.09-.84-.1-1.29a4,4,0,0,1,.07-.59c.05-.13.09-.27,0-.37a.19.19,0,0,0-.25.08c-.37.81-.72,1.63-1.11,2.43-.18.37-.29,1-.88.74s-.19-.78-.11-1.19c.14-.74.68-1.4.46-2.54l-2,2.82c-.21.28-.46.6-.85.32s-.13-.54,0-.81a17.849,17.849,0,0,0,1.22-3.57c-.67.78-1.33,1.57-2,2.33-.27.31-.52.91-1,.54s.06-.71.22-1a45.709,45.709,0,0,1,3.85-6.47c-1.45-.25-2.58.9-4.37.15C261.86,158.6,266.83,156.09,271.07,152.4Z" fill="#feede4"/><path d="M260.7,118.39c-.34,3.18-.64,6.29-2.91,8.93a5.06,5.06,0,0,0,.13,6.31c.27,1.14-.76,1.61-1.23,2.38a.71.71,0,0,1-.55.21l-3.27,3.93c-1.15,2.22-3.11,3.69-4.92,5.29-.83.73-1.67.24-2.43-.3a19.4,19.4,0,0,1-6.33-8.27c-1.34-2.94-2.34-6-3.41-9a3.94,3.94,0,0,0-2-2.6,1,1,0,0,1-.12-.08c-3.84-2.6-4.46-4.41-3-8.77a1.28,1.28,0,0,1,1.76-.87,8.34,8.34,0,0,1,1.55.85,3.53,3.53,0,0,1,1.75,3.35c-.08.76,1.6,4.71,2.24,5.67.34-.5-.08-1.11.31-1.52.84-.27,1.14.47,1.48.91,2.53,3.28,5.42,6.28,7.78,10,1.95-2.35,3.53-4.87,5.29-7.26A7.049,7.049,0,0,0,254,125.2a2.5,2.5,0,0,1,.15-.38c.54-.7.39-1.81,1.36-2.24.38-.59.42-1.38,1.09-1.79a11.13,11.13,0,0,1,3.06-2.45C260,118.18,260.39,117.64,260.7,118.39Z" fill="#feede4"/><path d="M261.47,105.08c-1-.84-.34-1.84-.3-2.79a2.55,2.55,0,0,1,.15,1.58,7.83,7.83,0,0,0-.1-2.69c0-4.48,2.45-7.1,7.14-7.73h3.85a6.911,6.911,0,0,1,5.3,6.68,13.709,13.709,0,0,1-1.11,5.79,2.26,2.26,0,0,1-3.09-1.15c-.74-1.33-2.21-2.11-3-3.44-.34-.56-.74-.28-1.1.06-.71.69-1.36,1.44-2.13,2.06a6.25,6.25,0,0,1-5.61,1.63Z" fill="#4d4d4d"/><path d="M261.47,105.08a10,10,0,0,0,7.38-3.89c.75-.9,1.33-1.34,2,.14a8.56,8.56,0,0,0,2.19,2.39,2.76,2.76,0,0,1,.76.89c.33.81.58,1.53,1.69,1,.32-.17.63.19.92.38h0c1,1.89.07,3.73-2.33,4.68a1.63,1.63,0,0,0-1.08.9c-1.36,1.61-2.77,3.17-4.89,3.81-.6.18-1.18.48-1.83.15-2.6,0-3.11-2.19-3.75-4A16.511,16.511,0,0,1,261.47,105.08Z" fill="#feede4"/><path d="M273.64,110.36c2.25-.85,2.92-1.94,2.73-4.43a4.2,4.2,0,0,1,4.06,5c-.44,3.47-2.51,5.36-5.27,4.75a13.64,13.64,0,0,1-2-.83.76.76,0,0,1-.19-.38c.07-.82,0-1.65.06-2.47a2.44,2.44,0,0,1,.61-1.64Z" fill="#4d4d4d"/><path d="M255.86,119c0,.74-1.14,1.09-.9,2V82.63c0-1.16-.15-2-1.46-2.34-1.1-.31-1.15-1.17-.61-2.09,1.33.15,2.27,1.1,3.39,1.68.44.23.26.68.18,1.06a1.37,1.37,0,0,0-.28.5c-.11,8,0,15.91,0,23.86v12A2.49,2.49,0,0,1,255.86,119Z" fill="#977a69"/><path d="M273.1,114.56v.33c.1,1,.21,2,.31,2.93-.12,1.68-1.55,1.82-2.7,2.18a5.56,5.56,0,0,1-2.75,0h-.48c-2.13-.84-2.34-1.22-1.52-2.71a3.59,3.59,0,0,0,.26-1.8,12.79,12.79,0,0,0,6.58-4.18C273.37,112.34,273,113.47,273.1,114.56Z" fill="#fce9de"/><path d="M268,120c.5-.6,1.19-.35,1.81-.39a4.3,4.3,0,0,0,3.64-1.8c.53.44,1.41.13,1.8.86a18.67,18.67,0,0,1-4.63,4.75c-.47.38-.76.47-1.18-.09A5.53,5.53,0,0,1,268,120Z" fill="#f2f4f5"/><path d="M266,117.27c-.74,1.61.88,1.89,1.52,2.71-.74,1.42-2.1,2-3.52,2.63a8.63,8.63,0,0,1,.82-5.12Z" fill="#f1f2f4"/><path d="M256.15,81h.33v38.39l-.32-.31a2,2,0,0,1-.14-1.16V82.11A2,2,0,0,1,256.15,81Z" fill="#997458"/><path d="M278.8,177.94c-.55-.52-.35-1.2-.32-1.8.12-2.08-.36-4.19.28-6.25a69.747,69.747,0,0,1,.04,8.05Z" fill="#c2323d"/><path d="M272.21,93.47a5.66,5.66,0,0,1-3.85,0,6.64,6.64,0,0,1,3.85,0Z" fill="#464441"/><path d="M261.22,101.18c.61,1,.1,2.1.08,3.17,0-.69-.08-1.37-.13-2.06Z" fill="#464241"/><path d="M142.59,190.46c1.18.14,2.21.91,3.45.88,1.13.12,1.26.85,1.29,1.84.12,3.57.33,7.14.5,10.71a8.54,8.54,0,0,1,0,4c-.48,3.64-1,7.28-1.42,10.93a8.25,8.25,0,0,0,.22,1.89c.56,2.69.15,5.44.45,8.14a3,3,0,0,1-3.15,2.09c-1-1-.77-2.5-1.35-3.68a19.889,19.889,0,0,1-.48-6.66c.17-1.19.31-2.39.57-3.56a2.36,2.36,0,0,1,.16-.56c.36-1.38.31-1.39-1.11-1.27-.68.06-1.45.54-2-.3.75-4,1.27-8-.36-11.94a3,3,0,0,0,1.62-2.82c.06-.92-.15-2,.72-2.74A31.879,31.879,0,0,0,142.59,190.46Z" fill="#feede4"/><path d="M111.88,192.15a2.113,2.113,0,0,1,.49,2.75,13.11,13.11,0,0,1-2.86,5,.84.84,0,0,1-.37-.61c-.37-1.64-.37-1.64-2-.89a24.112,24.112,0,0,0-2.37,1.22c-2.25.91-4.32,2.22-6.65,3-2-1-4.19-1.54-5.86-3.1a8.46,8.46,0,0,1,.83-4.7,1.11,1.11,0,0,1,1.13,0c1.21.6,1.79-.1,2.31-1.05.73-1.35.78-2.92,1.37-4.32a15.181,15.181,0,0,0,2-3.8c1.69.38,3-.67,4.4-1.23.86-.34,1.61-1.18,2.69-.75a4.26,4.26,0,0,1-.24,2.73,6.75,6.75,0,0,0,.09,3.78c.53,1.71,1.18,2.17,3,2C110.53,192.17,111.2,191.83,111.88,192.15Z" fill="#626564"/><path d="M124,161.3a10.25,10.25,0,0,1,.55,3.52c-.17,2.17-.6,4.2-2.38,5.72-2.77,2.37-7.46,1.15-8.24-2.16a2,2,0,0,1,.62-2.3c1.8-1,.89-1.87.06-2.82-1.76-1.49-1.43-3.48-1.25-5.41,0-.57.2-1.15.25-1.73a12.29,12.29,0,0,1,1.85-4.49,3.55,3.55,0,0,1,1.21-1.07,29.067,29.067,0,0,0,3.55-1.4c.39-.23.71.16.92.53a1.14,1.14,0,0,1,0,1.37,14.1,14.1,0,0,0-2,3.25c-.18.54-.26.91.27,1.23a3.12,3.12,0,0,0,.88,1.09,9.07,9.07,0,0,1,2.07,2.5Z" fill="#5b5b59"/><path d="M139.72,214.9a8.589,8.589,0,0,0,2.62-.26c1.5-.24,1.55-.2,1.13,1.28-.1.33-.22.66-.33,1a42.061,42.061,0,0,0-6.74,3.71c-3.86,2.31-7.86,4.38-11.67,6.77a1.18,1.18,0,0,1-1.25.22c-.3-.74-1-1-1.65-1.29-1.25-.65-2.49-1.33-3.74-2-.42-.72.17-1.21.42-1.76.41-.95.78-1.93,1.25-2.85.35-.69.34-1.62,1.25-2a3.49,3.49,0,0,0,1.95.59c5.47.58,10.66-.84,15.86-2.25C139.54,215.91,139.49,215.35,139.72,214.9Z" fill="#9f7f6c"/><path d="M106.88,210.5a1.84,1.84,0,0,1,2.22-1.14c1.5.25,3,.26,4.57.37,1.25.87,2.15,1.91,1.94,3.58a1.13,1.13,0,0,1-1,.78c-.3,0-.52-.23-.85-.45a7,7,0,0,0,.91,4.24,2.28,2.28,0,0,1,.6,1.6,15.486,15.486,0,0,1-3.63,2.79c-1.25.88-2.79,1.89-4.19,2.82-.8.53-1.49.38-1.72-.57a67.252,67.252,0,0,1-1.94-9A19.481,19.481,0,0,1,105,213C105.76,212.23,105.83,211,106.88,210.5Z" fill="#e5e5e5"/><path d="M141.7,197.4c-.12,1.51-.29,3-.36,4.54s-1.26.79-2,1c-.92-1.52-2.45-1.92-4.05-2.1s-3.06-.26-4.59-.31c-1.12,0-1.59-.54-1.55-1.67.13-4.34.8-8.47,4.45-11.65C135.81,190.94,137.58,195.13,141.7,197.4Z" fill="#94d8fd"/><path d="M111.88,192.15a5.89,5.89,0,0,1-4.17.35,1.1,1.1,0,0,1-.93-.82c-.61-1.74-1.14-3.47-.52-5.34a23.211,23.211,0,0,0,.54-2.76c-.45-1.14.18-2.2.26-3.3.85-3.47,1.58-7,2.55-10.42a19.54,19.54,0,0,1,1-3.4c.65-1.43,1.44-2.82,3.35-2.82.45.1,1,.16.42.78-1.1,1.11-1.15,2.72-2,4-.5.75-.19,2-.36,3a36.819,36.819,0,0,0-.19,10.43,8,8,0,0,1,.05,1.62,47.728,47.728,0,0,0,.38,7.07,3.42,3.42,0,0,1-.38,1.61Z" fill="#dd5c42"/><path d="M114,163.64a5.73,5.73,0,0,0-3.4,4.43,15,15,0,0,1-.54,1.81c-.74.13-1.21-.38-1.64-.81a35.829,35.829,0,0,1-4.48-5.83,1.28,1.28,0,0,1-.22-.84c.17-.6.69-.81,1.19-1a11.44,11.44,0,0,0,5.8-4.12.91.91,0,0,1,.62-.36c.7,0,1,.61,1.52,1,.35-1-.32-2.2,1-2.69.36.18.32.45.18.75-.29,2.47-.66,4.93.59,7.27Z" fill="#feede4"/><path d="M115.15,219.27c-1.56-1.57-1.86-3.58-2-5.67,0-.26,0-.52.2-.63a.62.62,0,0,1,.76.28c.18.22.34.46.51.69.51,0,.76-.39,1-.78.46-1,1.55-1.41,2.27-2.16.56-.21.94-.71,1.5-.93h.19l.56.13a1.31,1.31,0,0,1,.52,1c.21,2.17.75,4.33.32,6.54l-.84,2.05a31.452,31.452,0,0,1-4.99-.52Z" fill="#fdede4"/><path d="M108,201.66a9.45,9.45,0,0,0-1.55,4.54c-.29,1-1.26,1.25-2,1.78-.7.36-1.29,1-2.21.69a7.86,7.86,0,0,1-1.62-3.3c.1-.55.58-.79,1-1,1.69-1.07,3.43-2.05,5.12-3.12a1,1,0,0,1,1.22.05.35.35,0,0,1,.09.25C108.07,201.61,108.05,201.66,108,201.66Z" fill="#a78977"/><path d="M118,211.24c-.36,1-1.67,1.13-2.11,2.08-.18.17-.33.14-.45-.08-.06-1.43-1.26-2.29-1.77-3.51.47-.3,1,.15,1.45,0,.18-.41-.67-.51-.32-.94.21-.25.55-.08.83-.12a4.36,4.36,0,0,1,4,1.41h0C119,210.37,118.67,211,118,211.24Z" fill="#faebe4"/><path d="M108,201.66a2,2,0,0,0,0-.24c-.68-.55-1.64-.51-2.31-1.1-.35-.31-.86-.45-.94-1,1.09-1,2.64-1.24,3.83-2.11.54-.38.84.06.88.55.07.73,0,1.47.05,2.2Z" fill="#5b5b58"/><path d="M104.44,207.66c.5-.73,1.51-.77,2-1.46.22,1.42-.4,2.92.39,4.29a10.42,10.42,0,0,1-1.5,2.61.81.81,0,0,1-.63-.89C104.77,210.69,104.28,209.2,104.44,207.66Z" fill="#a07d6b"/><path d="M120.69,211.22c-.27-.3-.84-.44-.52-1,.32,0,.7-.17.88.19S120.87,211,120.69,211.22Z" fill="#e9e5ed"/><path d="M146.82,229.2a20,20,0,0,1-.19-8.5c1.32,2.2,3.5,3,5.81,3.6.38.09.75.2,1.12.31-.22.06-.52,0-.47.4.35,2.48.15,5,1.49,7.38a9.53,9.53,0,0,0,2.22,2.6.69.69,0,0,1-.31.3c-3.38,1.27-8.5-1.2-9.62-4.64a2.19,2.19,0,0,1-.05-1.45Z" fill="#156795"/><path d="M183.28,180.93c.81,0,.88.57,1,1.16l-1,8.64-1.84-1.62c.68-1.38.2-2.59-.56-3.76a37,37,0,0,0,2.4-4.42Z" fill="#95d8fb"/><path d="M147.83,207.88v-7.52h.25v9.89h-.14Z" fill="#a28777"/><path d="M51.18,238.25c-2.55-1.95-3-4.84-3.56-7.73-.15-.8.47-1.77-.53-2.43-.09-.06.36-.14.56-.21,1.52.17,3,.37,4.54.48,4.63.33,9.66-1,12.14-5.51,1.3-2.52,3.89-2.74,6.19-3.48a5.319,5.319,0,0,1,3,.36A46.56,46.56,0,0,1,75.37,232a2.88,2.88,0,0,1-1.14,2.18c-.13.06-.36.17-.4.1-.91-1.43-1.91-.57-2.89-.12a2.68,2.68,0,0,1-1.66.35c-2.7,1.3-5.38,2.65-8.11,3.9a11,11,0,0,1-9.99-.16Z" fill="#0d6da6"/><path d="M65.78,196.08c-.22-2.08-1.53-3.78-2-5.78a21.59,21.59,0,0,1-1-5.35,4,4,0,0,1,1.59-3.62c.3-.2.39-.4.22-.72.38-.4.84-.18,1.27-.16,3.08,0,5.09,1.88,6.88,4.05,1,1.22,1.93,2.49,2.83,3.79a8.42,8.42,0,0,0,1,1.53,5.42,5.42,0,0,1-.1,2.5,15.41,15.41,0,0,1-4.72,4.41,20.69,20.69,0,0,1-3.36,1.21,2.58,2.58,0,0,1-1.35-.11C66.27,197.52,66.23,196.65,65.78,196.08Z" fill="#626564"/><path d="M65.67,180.82l-1.09-.21-5-1.43a2,2,0,0,1,.07-1.29c2.32,1,2.46,1,3.71-1.42a64.28,64.28,0,0,0,3.31-8.38c1.35.44,2.71.06,4.07.07a.65.65,0,0,1,.54.26,12.93,12.93,0,0,0,.14,4.43c-1.57.77-2.14,2.33-3,3.69S67.07,179.71,65.67,180.82Z" fill="#de624a"/><path d="M65.78,196.08c.85.13.79,1,1.18,1.47.94,1,.52,2.35.55,3.53a21.13,21.13,0,0,0,.19,3.18,17,17,0,0,0,0,5.23c-.22,1.18-.05,2.39-.31,3.57a2.14,2.14,0,0,1-2.91-1.42c-.08-.33.09-.7-.17-1,0-3.27.7-6.47,1-9.71A36,36,0,0,0,65.78,196.08Z" fill="#987967"/><path d="M70.27,219.85c-2.15.67-4.31,1.3-5.94,3,.67-1.69,0-3.38,0-5.07,1.08-1,2.21-1.91,3.85-1.63a40.8,40.8,0,0,0,2.09,3.7Z" fill="#156795"/><path d="M68.21,216.12l-3.88,1.66a58.478,58.478,0,0,1,0-7.13,2.93,2.93,0,0,0,3,2.36.79.79,0,0,1,1-.45,1.23,1.23,0,0,1,.6,1.05C68.87,214.51,69.25,215.51,68.21,216.12Z" fill="#93d5f8"/><path d="M36.05,202.08c-.73-3.34,0-6.73-.31-10.09,0-.25-.15-.67.27-.72s.57.3.63.67c0,.65-.23,1.38.58,1.76C36.79,196.49,36.77,199.33,36.05,202.08Z" fill="#a07f6d"/><ellipse cx="0.09" cy="2.82" rx="0.09" ry="2.82" transform="translate(63.75 211.4)" fill="#59534b"/><path d="M146.82,229.2c1.57,4.46,3.61,5.88,8.36,5.81h1.62a11.1,11.1,0,0,0,10.1,0c2.69-1.22,5.24-2.73,8-3.77,1.25.35,2.64.51,3.11,2a23.3,23.3,0,0,1-5.16,3.35c-4.1,2.36-8.12,4.84-12.32,7-.68.36-1.1,1.14-2,1.18,0-.51-.36-.75-.77-1q-7.4-4.14-14.76-8.31a3,3,0,0,0-.38-.23c-2.31-.83-2.8-2.51-2.57-4.8a58.839,58.839,0,0,0,0-6.37c0-.51.21-1.15-.58-1.32a6.52,6.52,0,0,1,3-2.38,28.939,28.939,0,0,0,.54,6.76,18.252,18.252,0,0,0,.2,2.86c0,.5.4.6.74.77a13.451,13.451,0,0,0,2.87-1.55Z" fill="#9f7f6c"/><path d="M178,233.23c-.84-.93-2.18-1.11-3.05-2a32.663,32.663,0,0,1,3.65-1.82c.87-.35,1-.16,1.07.68.12,4.32,0,8.63.53,13a81.731,81.731,0,0,1,.85,9.13c0,.4-.24.62-.4.92l-1.8.7H177.7a1.55,1.55,0,0,1-.62-1.43c0-4.8-.23-9.6.13-14.39C177.91,236.48,177.49,234.78,178,233.23Z" fill="#156795"/><path d="M189.76,232.8V240h-.14v-7.2Z" fill="#096aa4"/><path d="M256.46,135.81c.3-.85,1.23-1.29,1.46-2.18l.39.28c.43.34,1,.51,1.1,1.18.27,2.75.43,5.52.82,8.25.35,2.37-.39,4.6-.55,6.9q-1.46,3.15-2.93,6.28c-.38-.33-.13-.81-.28-1.2a4.58,4.58,0,0,1-.31-2.17V139.04a16,16,0,0,1,.3-3.23Z" fill="#a6ddfc"/><path d="M262.68,179.69v-.51l3.86.51c0,.42.11.87-.27,1.21-.26.88-.7,1.27-1.57.59C264,180.93,262.9,180.8,262.68,179.69Z" fill="#a5dbf7"/><path d="M263,167.25a.87.87,0,0,1,.42-.72.8.8,0,0,1-.12,1Z" fill="#d48189"/><path d="M73.84,234.17a5.17,5.17,0,0,0,1-4.43c-.62-3.25-1-6.56-1.48-9.84a3.66,3.66,0,0,1,3.83-.86,3.91,3.91,0,0,0,3.71-.9,39.77,39.77,0,0,0,9.61-12.29,18.7,18.7,0,0,0,1.31-4.55c.14-.61.13-1.3.76-1.69a32,32,0,0,1,5.58,2.73,4.48,4.48,0,0,1,2.68,3,15.67,15.67,0,0,1,1.56,3.25,1.53,1.53,0,0,1,.66.78c.5,2,1.26,3.95,1,6.08.7,3.22,1.41,6.44,2.17,9.93l8.85-6.07a6.69,6.69,0,0,1,5,.54q-1.035,2.25-2.08,4.51l-2.63,3.19c-.2,1.14-1.26,1.61-1.87,2.42a39.87,39.87,0,0,1-4.79,3.91c-.91.51-1.67,1.25-2.61,1.7-1.29.11-2-.93-3-1.43a12.94,12.94,0,0,1-3.42-3.42c-.77-1.19-1.56-2.38-2.27-3.61-1.35-2.3-1.09-2.38-2.76-.22-2.09,2.71-2.1,5.89-2.23,9,0,1,.76,1.3,1.62,1.31a24.309,24.309,0,0,1,4.74.36,6.23,6.23,0,0,1,2.46,1,1.622,1.622,0,0,1,.91,1.56c1.68,3.76,1.42,7.6.51,11.47a1.62,1.62,0,0,1-1.25,2.27c-6.6,1.81-13.22,3.56-20.09,1.29a8.9,8.9,0,0,0-4.38-.35c-2.3.41-4-.84-5.53-2.3a14.1,14.1,0,0,1-1.93-2.4,11.89,11.89,0,0,1-.91-7.2c.35-2.39,1.07-4.56,3.39-5.81a.81.81,0,0,0,.37-.63,4.28,4.28,0,0,1,1.51-2.3Z" fill="#bf3e4a"/><path d="M69.91,249.92a27,27,0,0,0,2.2,2.55,5.916,5.916,0,0,0,6,1.69c1.23-.36,2.45.21,3.62.55a25.19,25.19,0,0,0,14,.06c1.52-.41,3.06-.78,4.61-1.05,1.29-.22,2.23-.7,2.4-2.12l1.13.45c.87.3,2,.23,2.23,1.45.11.74-.52.85-1,1.11q-7.815,4.5-15.66,9c-1.25.73-2.41,1.44-2.85,2.92-.31-2.76-2.78-3.39-4.64-4.51-4.24-2.55-8.6-4.92-12.88-7.41-.8-.46-1.89-.48-2.36-1.46-.21-.3,0-.54.12-.78A5.1,5.1,0,0,0,69.91,249.92Z" fill="#9f7e6d"/><path d="M100.05,230.56l3.22,3.25a7.45,7.45,0,0,1,0,6.23l-1,.09c-.83-1.43-2.22-1.86-3.71-2.14a38.53,38.53,0,0,0-5-.35c-1.08,0-1.58-.49-1.57-1.64,0-4.45.82-8.62,4.46-11.83L97.84,227a3.75,3.75,0,0,1-.71,2.17c-.33.61-.13.9.54,1S99.35,230,100.05,230.56Z" fill="#75cbfe"/><path d="M86.59,266.57c-.21-1.32.3-2,1.55-2.7,5.58-3.08,11.06-6.36,16.55-9.61.41-.25,1.16,0,1.25-.81.11-.12.18-.1.23.05.21,3.57-.91,7.07-.56,10.65-.64-1.8,0-3.67-.37-5.64L102.36,260c-.32.94-1.36,1.11-1.94,1.78a1.38,1.38,0,0,1-.35.22,46.5,46.5,0,0,0-4.64,2.55c-1.94,1.12-3.88,2.26-5.85,3.35a1,1,0,0,1-.6.13L86.6,269Z" fill="#a78a78"/><path d="M120.4,237.42c-2.07.64-3.68,2.13-5.58,3.08-.36.19,0,.52,0,.78-1.9-1.27-4.12-1.06-6.23-1.39a.864.864,0,0,1,.07-.21c3-2.08,6.3-3.8,9.49-5.62.67-.38,1.23-1.22,2.21-.8Z" fill="#94d8fd"/><path d="M106.18,278.19l-.53.84V264.17a68.7,68.7,0,0,1,2.32,9.59c.24,1.37-1,2.32-1.22,3.59Z" fill="#95d7fc"/><path d="M103.22,240v-6.23c1.1.27,1.76,1.4,3,1.47a2.27,2.27,0,0,1,.2,1.71c-.09,1.22.11,2.15,1.63,2.13a.93.93,0,0,1,.53.23.49.49,0,0,1,.15.43.11.11,0,0,0-.1.11Z" fill="#987967"/><path d="M106.17,253.5l-.23-.05-2.1-1.4c.34-.05.67-.09,1-.15C106.67,251.54,106.76,251.65,106.17,253.5Z" fill="#99d8f5"/><path d="M262.68,179.69a26.63,26.63,0,0,1,2.52,1.65c.76.61.69-.37,1.07-.44.11,3.09-.33,6.21.67,9.25a70.9,70.9,0,0,1,3.22,22.27c-1.76-.12-3.4-.83-5.16-1-.77-.08-1.54-.14-2.32-.19a19.579,19.579,0,0,1,1-4.63,23.27,23.27,0,0,0-.44-14.86c-.55-1.58-.83-3.26-1.37-4.85C261,184.34,261.92,182,262.68,179.69Z" fill="#94d8fd"/><path d="M275.49,219.82c1.52,2.46,1.27,4.43-.84,6.24a32.4,32.4,0,0,1-6.93,4.52,7.14,7.14,0,0,1-4.44.82c-1.73-.32-2.25-1.54-1.15-2.89a14.94,14.94,0,0,1,3.57-3.25c-.23,1.63.12,2,1.74,2.08a3,3,0,0,0,2-.39c2.33-1.86,5.08-3.36,5.75-6.66a1.34,1.34,0,0,1,.3-.47Z" fill="#4d4d4d"/><path d="M110.93,143.7c.51.8.62.05.78-.23,1-1.6,1.89-3.22,2.83-4.83,1.32.63,1.93,1.91,2.73,3a13.76,13.76,0,0,0-1.19,7.61c.1.23.18.52-.07.65a.377.377,0,0,1-.52-.33,4.32,4.32,0,0,1-.1-2.13c-.43.52.54,2.24-1.32,1.9a.79.79,0,0,1-.39-.33c-.05-.42-.4-.48-.71-.63-1.93-.89-2.72-2.68-3.5-4.47-.11-.25-.14-.52.12-.63C110.13,143.06,110.49,143.54,110.93,143.7Z" fill="#fdede4"/><path d="M113.91,149.09c1.38.18,1.27-.81,1.41-1.7a9.921,9.921,0,0,0,.47,2c.22.49.19-.1.29-.17.19.43.38.86.56,1.3A17.25,17.25,0,0,0,114,156a.84.84,0,0,0-.34-.67,1.37,1.37,0,0,1-.46-1.2,15.32,15.32,0,0,1,.71-5.04Z" fill="#fae9de"/><path d="M122.26,159.13a12.78,12.78,0,0,1-2.35-2.18c-.16-.35-.29-.7.06-1l2.33,1.69C122.29,158.12,122.27,158.62,122.26,159.13Z" fill="#9ad5f1"/><path d="M120,155.92l-.06,1c-.25-.45-1-.67-.6-1.41C119.57,155.59,119.84,155.63,120,155.92Z" fill="#f0e3d6"/><path d="M178,233.23c.21,1.52.67,3.05-.33,4.48-.55,1.26-1.82,1.57-2.86,2.18A2.66,2.66,0,0,0,173,243q0,7.185,0,14.36a3.82,3.82,0,0,1-.22,1.89,1.891,1.891,0,0,0-.2.2c-.49-.63-.11-1.39-.28-2.06a3.11,3.11,0,0,1-.53-2.25V243.72a3.79,3.79,0,0,0-.13-1.63,3.15,3.15,0,0,0-1.72.74c-2.38,1.43-4.82,2.74-7.18,4.18a2.48,2.48,0,0,1-1.5.56c-1.06-.22-1.53,1.29-2.64.89v-3.57c.79-1.54,2.47-1.88,3.78-2.66C167.52,239.14,172.76,236.21,178,233.23Z" fill="#a78a78"/><path d="M142.53,220.46c-.64,1.24-1.91,1.69-3,2.38-.71.44-1.58.59-2.13,1.28-1.29,1.56-3.21,2.19-4.82,3.27-1.92,1-3.7,2.13-5.57,3.16-.37.11-.68.46-1.12.33-.82.26-1.49.94-2.43.88V227.6l9.67-5.65c2.88-1.68,5.76-3.35,8.62-5.07a1.24,1.24,0,0,1,1.37,0C142.93,218.09,142.73,219.27,142.53,220.46Z" fill="#a78a78"/><path d="M145.5,257.36v-8.65c.37-.29.29-.7.3-1.09a7.808,7.808,0,0,1,.05-1.08c.38-2.92.52-3,3-1.32a11.69,11.69,0,0,0,6.06,2.48,1,1,0,0,1,.78.36c.61,1.18.2,2.42.25,3.64-2.81,1.57-5.63,3.14-8.43,4.73a6.9,6.9,0,0,1-2.01.93Z" fill="#94d8fd"/><path d="M132.39,227l5-2.92v15a.88.88,0,0,1-.89.28,2,2,0,0,1-1.08-1,32.82,32.82,0,0,0-3.22-4.26,3,3,0,0,1-.77-2.74C131.78,230,131.41,228.38,132.39,227Z" fill="#94d8fc"/><path d="M136.5,239.23l.93-.06v3a1.4,1.4,0,0,1-.56,1.39,7.63,7.63,0,0,1-5.16-1.46,24.091,24.091,0,0,0-3.6-2.24v3.26c0,.42,0,.92-.61,1s-.79-.4-.93-.88-.31-.93-.46-1.4a20.31,20.31,0,0,1-.26-4.47c0-.47-.12-1,.49-1.24a2.012,2.012,0,0,1,1.66.35c1.37.68,2.63,1.59,4,2.23S134.89,240.25,136.5,239.23Z" fill="#dd634b"/><path d="M155.66,248.06a7.78,7.78,0,0,1-5.69-1.54c-1.11-.72-2.2-1.46-3.36-2.24-.53.81-.07,1.72-.47,2.44A.77.77,0,0,1,146,246a5,5,0,0,0,.12,1.86c.12.51.11.93-.59.89v-6.07c0-.47-.14-1,.3-1.39q4.52,2.64,9,5.29C155.37,246.87,156.18,247.11,155.66,248.06Z" fill="#dd634b"/><path d="M156.22,270.68V249.85a1.91,1.91,0,0,1,.27,1.48q0,8.55,0,17.1a3.63,3.63,0,0,0,.24,2c.18.29-.29.23-.5.26Z" fill="#98745f"/><path d="M72.42,277.55c-.09-4.67-.14-9.34,0-14a2.42,2.42,0,0,1,3.31.29,1.68,1.68,0,0,0,1.34.56c.74.22,1.46.48,2.19.69a8.1,8.1,0,0,0,1.31.67c2.85.88,3.51,2.9,3,5.57-2,.66-3.6,1.94-5.4,2.9C76.2,275.25,74.33,276.44,72.42,277.55Z" fill="#94d8fd"/><path d="M67,252.58c-.1.2-.19.4-.28.61a7.37,7.37,0,0,0-.1,4.21,7.18,7.18,0,0,1,.26,2.6l-10.54-6.13a1.14,1.14,0,0,0-.43-.08c-.78-.5-.22-1.28-.39-1.91A3.2,3.2,0,0,1,57.43,249c2.66-1.4,5.23-3,7.84-4.44.64-.37,1.38-1,2,0C67.53,247.27,68,250,67,252.58Z" fill="#94d8fd"/><path d="M79.28,265.08a6.09,6.09,0,0,1-2.5-.3,7.691,7.691,0,0,1-1.2-.56c-.84-1.19-2.07-.54-3.14-.68.15-.78-.72-1.76.47-2.33Z" fill="#e9e9ed"/><path d="M66.94,244.31c-2.4.94-4.46,2.48-6.73,3.65-1,.52-1.94,1.17-3,1.69a2.47,2.47,0,0,0-1.56,2.11c-.36-.23,0-.7-.34-.95-.84.14-1.37.81-2.08,1.18,0-4.49,0-4.48,3.87-6.69,4.56-2.61,9.1-5.25,13.66-7.85.35-.2.69-.62,1.2-.35a10.14,10.14,0,0,0-3,5.68A2.88,2.88,0,0,1,66.94,244.31Z" fill="#a78a78"/><path d="M73.84,234.17a4.22,4.22,0,0,1-1.46,2.3l-3.1-2,2.82-1.31C73.71,232.45,73.71,232.45,73.84,234.17Z" fill="#156794"/><path d="M50.28,255.27l-.28.28c-1,0-1.68.74-2.47,1.18-2.52,1.4-4.94,3-7.56,4.19a1.86,1.86,0,0,1-.64-1.72v-13c0-.64-.06-1.43.84-1.69l10.07,5.81a.36.36,0,0,0,.06.2Z" fill="#94d8fd"/><path d="M40.18,244.51a1,1,0,0,0-.27.82L40,260.92a3.16,3.16,0,0,0,0,.86c.41,2-.64,3.05-2.41,3.6a5.75,5.75,0,0,1-.28-2.32q0-9.36,0-18.71c0-.75,0-1.56,1.08-.88C38.91,243.85,39.31,244.59,40.18,244.51Z" fill="#9f7e6b"/><path d="M55.36,250.81c.33.24.26.62.34.95.07.68.14,1.35.2,2-.07.2-.13.4-.2.6C55,253.25,55.37,252,55.36,250.81Z" fill="#9f7a61"/><path d="M161.23,247.53a6.19,6.19,0,0,1,2.16-1.52c2.48-1.44,5-2.88,7.46-4.3a2.08,2.08,0,0,1,1.45-.51v16.15c-3.32-1.49-6.26-3.66-9.48-5.32-.47-.24-1-.42-1.48-.64C161.31,250.11,161.27,248.82,161.23,247.53Z" fill="#94d8fd"/><path d="M174.65,239.5l3-1.79q0,8.06.07,16.11c0,1.46-.09,2.93,0,4.39a1.81,1.81,0,0,1-.89,1.83c-.76,0-1.22,1.14-2.15.61a26.7,26.7,0,0,1-.14-7.52c.31-4.06.15-8.1.15-12.15A10.456,10.456,0,0,1,174.65,239.5Z" fill="#9e7e6c"/><path d="M174.65,239.5c.33.05.48.19.49.58a110.35,110.35,0,0,1-.12,12.6c-.19,2-.06,4.06-.07,6.09a3.46,3.46,0,0,1-.32,1.88,6.94,6.94,0,0,1-2-1.24v-.07c.12-5.61.18-11.22,0-16.83C172.11,240.72,173.37,240.1,174.65,239.5Z" fill="#987a68"/><path d="M125.87,255.27a1.28,1.28,0,0,1-.3-1.09q0-5.46,0-10.91a1.443,1.443,0,0,1,.3-1.1Z" fill="#9f795f"/><path d="M108.73,239.78l-.1-.28a6.73,6.73,0,0,1,0-5.95l4.74-3.84c1.59-.14,3.12-.77,4.74-.66,2.51,1.13,2.52,1.15,2.29,4.21-3.53,2-7.06,4.07-10.59,6.13a1.76,1.76,0,0,1-1.08.39Z" fill="#75cbfe"/><path d="M118.11,229.05c-1.52.64-3,1.32-4.74.66l2.09-2.2a11.321,11.321,0,0,1,2.65,1.54Z" fill="#e8e9ed"/><path d="M100.26,261.84c.18-1.2,1.39-1.22,2.1-1.81.71.13.6.69.59,1.17-.09,6.92.21,13.85-.17,20.78a2.06,2.06,0,0,0,.19,1,2.24,2.24,0,0,1-.7-.16c-1.48-.85-2.84-2-4.68-1.93l.09-.12c.58-.67,2.15,0,2.11-1.54a8.21,8.21,0,0,0-.23-2.75,4.23,4.23,0,0,1,.34-.92,3.93,3.93,0,0,0,.24-1.89c0-3.85-.08-7.71.06-11.56Z" fill="#987a67"/><path d="M99.69,276.46c1.11,1.19.71,2.69.41,3.91-.25,1-1.66.25-2.51.51-2.52-.43-4.24-2.38-6.58-3.57-.08,1.19-.14,2.25-.22,3.3,0,.37.09.81-.47.94s-.89-.22-1-.75a18.94,18.94,0,0,1,0-7.12c1.21-.23,2,.61,3,1.11a17.48,17.48,0,0,0,5.44,2.31c.75.1,1.25,0,1.46-.81A.42.42,0,0,1,99.69,276.46Z" fill="#bf3e4a"/><path d="M111.3,157.09c-1.4,2.45-3.67,3.74-6.19,4.7a2.87,2.87,0,0,0-1.29.65c-1.67.36-1.86.21-2.62-2-.61-1.86-1.57-3.57-2.17-5.44a18.26,18.26,0,0,1-.83-6.39c.07-1.64,1.3-2.39,2.36-3.29l.6-.07c1.92.63,3.89,1.19,5.29,2.77,1.18,1.33,2.26,2.74,3.38,4.12.31.38.61.77.91,1.16C112.23,154.44,112.44,155.88,111.3,157.09Z" fill="#cbcbcb"/><path d="M111.3,157.09c.71-1.4.06-2.61-.56-3.82a19.849,19.849,0,0,0,1.84-3.19c.25-.47.43-1,1.1-1.06a.39.39,0,0,0,.23.07c.4,2.1-.48,4.14-.26,6.23-.54,1-.06,2.22-.53,3.35C112.24,158.42,112,157.44,111.3,157.09Z" fill="#94d8fb"/><path d="M33.37,209.74V189.83c.38.36.28.83.28,1.26v17.39C33.64,208.91,33.74,209.38,33.37,209.74Z" fill="#987361"/><path d="M136.5,239.23l.32,1a11.09,11.09,0,0,1-5.66-1.46c-1.55-1-3.19-1.76-4.79-2.63l-.34-.58a23.08,23.08,0,0,0,.72-5.29l5.64-3.27a27.52,27.52,0,0,1-.39,4,3.28,3.28,0,0,0,1,3.43,27.109,27.109,0,0,1,3.5,4.8Z" fill="#feede4"/><path d="M126.75,230.31a5.49,5.49,0,0,1-.72,5.29l-.12-4.72C126.16,230.65,126.32,230.28,126.75,230.31Z" fill="#98d1ed"/><path d="M99.05,276.36l.63,1.3a10.909,10.909,0,0,1-5.47-1.28c-1.6-1-3.29-1.81-4.93-2.7a2.44,2.44,0,0,1-.17-1.76,13.64,13.64,0,0,0,.18-4.18,66.392,66.392,0,0,1,5.87-3.46c.62.52.38,1.23.24,1.79a6.78,6.78,0,0,0,2.34,7.35C98.13,274.42,99.13,275.15,99.05,276.36Z" fill="#fdede4"/><path d="M89.29,267.74c.58,1.42.94,2.83-.18,4.18,0-1.29-.09-2.57-.13-3.86Z" fill="#7dd1f7"/><path d="M96.7,120.18a24.441,24.441,0,0,0-5-.8c-4.1,0-7.16,2.72-8.08,7.13-.11.48-.23,1-.34,1.44-.93.59-1.2.35-1.2-.75V82.47A1.63,1.63,0,0,1,83,80.79c5.36-3,10.7-6,16-9.09,1.17-.68,1.25-.29,1.25.78v44.28a1.87,1.87,0,0,1-1.17,2,24.724,24.724,0,0,0-2.38,1.42Z" fill="#94d8fd"/><path d="M102.38,93.1v-22a1.9,1.9,0,0,1,1-1.93c4.15-2.31,8.28-4.67,12.43-7,1.37-.76,1.41-.72,1.41.88v43.86a2,2,0,0,1-1.19,2c-4.13,2.35-8.26,4.7-12.35,7.12-1.12.66-1.34.51-1.33-.77V93.11Z" fill="#94d8fd"/><path d="M82.14,78.49V58.01A1.33,1.33,0,0,1,83,56.77c5.39-3.14,10.79-6.25,16.18-9.4.74-.43,1.08-.36,1.08.56V67.4c0,.91-.68,1.17-1.25,1.49-4.64,2.66-9.3,5.28-14,7.92Z" fill="#94d8fd"/><path d="M102.39,66.73V46.96a2.19,2.19,0,0,1,1.29-2.23q6.23-3.48,12.36-7.12c.92-.54,1.21-.4,1.21.66V57.59a1.36,1.36,0,0,1-.72,1.34L103,66.64a1.76,1.76,0,0,1-.61.09Z" fill="#94d8fd"/><path d="M62.83,139a.39.39,0,0,0-.18,0,19.75,19.75,0,0,0-.5-6,7,7,0,0,1,.39-2.17,15.24,15.24,0,0,0,1-5.64c0-.7-.17-1.51.6-2,.64.27.85-.14,1.07-.62a4.64,4.64,0,0,0-1.29-5.45c-.61-.56-1.3-1-1.95-1.53.27-.41-.17-1,.26-1.33s.16-.95.16-1.42V94.33c0-.2-.13,0-.12,0a.88.88,0,0,1-.08,1c-.59-2.26-.39-2.8,1.48-3.87,4-2.24,7.93-4.46,11.87-6.72.93-.53,1.27-.45,1.26.72v44.25c0,1.15-.65,1.53-1.43,2l-11.81,6.83A7.341,7.341,0,0,0,62.83,139Z" fill="#94d8fd"/><path d="M41.75,130.05q0-12.63-.06-25.26a1.45,1.45,0,0,1,.88-1.39q8.085-4.5,16.14-9.15c1-.59,1.13-.29,1.12.67v19.62a19.58,19.58,0,0,0-5.94-.9c-2.89-.22-4.56.68-5.94,3.44a64.539,64.539,0,0,0-2.71,7.38C44.46,126.58,43.65,128.65,41.75,130.05Z" fill="#94d8fd"/><path d="M64.09,123.14c-.08,2.79,0,5.59-1.19,8.23-.24.53-.5,1-.75,1.58a6.91,6.91,0,0,1-.68-5.8c.43-1.61.62-3.29.94-5.05a3.36,3.36,0,0,1,1.68,1.04Z" fill="#fbece3"/><path d="M92.6,199.61c-.45,5.93-3.7,10.5-7.33,14.86a24,24,0,0,1-4,4c-1.3,1-2.58,1.76-4.34,1-1.2-.54-2.39.3-3.58.49l-3.12-.05c-1.72-.67-1.93-2.18-2.06-3.73.09-.81.19-1.62.28-2.42a1.4,1.4,0,0,0,0-1.2,8.25,8.25,0,0,1-1.15-2.8,11.91,11.91,0,0,1,0-5.6,10.73,10.73,0,0,1,1.83-4.8,19.9,19.9,0,0,1,2.6-2.91,27.07,27.07,0,0,0,4.49-4.2c.59-.54,1-1.21,1.6-1.75l.42-.47c.47-1.23.12-2.51.22-3.76v-1.65c.37-2.75.93-5.44,2.78-7.66.35-.32.67-.7,1.22-.65,2.27-1.47,4.75-3.09,7.42-2.07,3.36,1.29,7.2,2,9.52,5.25,1,.72.76,1.79.74,2.8a3.22,3.22,0,0,1-.11,1c-.49,1-.7,2.09-1.82,2.6-1.22-.32-1.73.13-1.79,1.41a12.07,12.07,0,0,1-2,6.53c-.27.41-.47.87-1,1.09a21,21,0,0,0-.82,4.69Z" fill="#f2af36"/><path d="M99.79,182.44a7.71,7.71,0,0,0-.41-3,13.41,13.41,0,0,0,.26-3.79c.12-4.28.93-8.49,1.37-12.74.09-.83.12-1.66.19-2.49.7.9,1.19,2.08,2.62,2,1.91,2.61,3.49,5.5,6.19,7.44l-2.56,10.52a2.27,2.27,0,0,1-1.24.39,12.22,12.22,0,0,0-4.34,1.24C101.23,182.34,100.58,182.8,99.79,182.44Z" fill="#94d8fd"/><path d="M82.44,176.25l-.87.86A12.56,12.56,0,0,1,79,173.8c0-.24.1-.42.4-.33a7.18,7.18,0,0,0,3,.27c.88,0,1.19.2.66,1.06a12,12,0,0,0-.62,1.45Z" fill="#e5e5e5"/><path d="M79.44,173.47l-.22.31a10,10,0,0,1-2.88,5.12c-.35,0-.48-.29-.58-.58a.45.45,0,0,1,.14-.39c1.3-1.25,1.84-3,2.68-4.48.56-.41.51-1.31,1.32-1.59C80.21,172.56,79.37,172.89,79.44,173.47Z" fill="#f0c279"/><path d="M59.82,69.39c0,6.17-.12,12.06.06,17.94.07,2.43-.44,3.94-2.78,5.13-4.81,2.44-9.43,5.23-14.1,7.92-1,.6-1.32.41-1.32-.78V81.03a1.61,1.61,0,0,1,.78-1.61Z" fill="#94d8fd"/><path d="M62.17,69.05c-.47-.66,0-1,.47-1.29l13.8-8c.49.27.33.66.33,1V79.94a1.73,1.73,0,0,1-.9,1.83c-4.1,2.29-8.17,4.65-12.25,7a3.84,3.84,0,0,1-.93.46c-.83.22-.86-.17-.53-.78.25-.23.18-.54.18-.83V69.97C62.35,69.6,62.42,69.29,62.17,69.05Z" fill="#94d8fd"/><path d="M62.18,95.27V92.92a2.47,2.47,0,0,1,.31,1.69c.09,6.53-.12,13.06.1,19.6,0,.68-.26.52-.41,0Z" fill="#8cd5fe"/><path d="M62.17,69.05c.47.37.32.9.33,1.38,0,5.82,0,11.65.08,17.48,0,.34-.14.42-.41.46Z" fill="#8cd5fe"/><path d="M50.65,175.43a17.73,17.73,0,0,1-2.06-14.51c1.27-4.37,4-6.26,8.57-6.2h1a39.658,39.658,0,0,0,4.32,1c3.51.43,6.86,5.65,5.88,9-.25.86-.52,1-1.49.9-.52-.07-.57.43-.76.7-2.23,3.2-4.49,6.39-6.65,9.65a2.92,2.92,0,0,1-3.13,1.42,17.85,17.85,0,0,1-5.68-1.96Z" fill="#987a69"/><path d="M75.9,177.93v.31c.07.45-.2.65-.57.76-.62,0-.72.25-.51.83a6.85,6.85,0,0,0,2.42,3c.45.35,1,.58,1.1,1.28-.73,1.24-1.28,2.58-2.09,3.78-.25.33-.4.79-1,.71a64.679,64.679,0,0,0-4.06-5.12,7.79,7.79,0,0,0-5.59-2.71c1.32-2.43,2.68-4.83,3.94-7.29.45-.88,1.22-.41,1.8-.68.7.58,1.52.2,2.28.31.56.09,1.2-.22,1.67.37-.39.41-1.11.18-1.41.83.38.5,1.08.47,1.58.89h-1c-.34,0-.79-.11-.9.32-.16.63.43.5.76.62C75.22,176.5,75.46,177.3,75.9,177.93Z" fill="#e5e5e5"/><path d="M70.85,168.36c-1.23.61-2.58.19-3.86.4-.38.06-.29-.41-.33-.67,0-.43.19-.6.6-.63l3.48-.25C71.2,167.55,71.14,167.94,70.85,168.36Z" fill="#dd5f45"/><path d="M70.85,168.36c0-.38-.08-.77-.11-1.15,1.27-.09.45.76.53,1.21Z" fill="#88dffe"/><path d="M41.22,157.16c-1.16.23-1.6-.09-.89-1.22.26-.43.23-1.07.87-1.24A7,7,0,0,1,41.22,157.16Z" fill="#82cae4"/><path d="M253.17,127.65c-1.85,2.61-3.71,5.22-5.65,7.94-2.74-4.31-6.1-8-9.23-11.81l-.14-.15a6.48,6.48,0,0,1-.25-2.17c.28-2.18-.89-3.84-1.81-5.61-.33-.63-.72-.51-1.19-.31a2,2,0,0,1-1-2.36,42.166,42.166,0,0,0,4.71-3.17,20.11,20.11,0,0,0,3.34-3.5,1.76,1.76,0,0,0,.24-.42,7.74,7.74,0,0,0,.1-1.92V82.71a7.4,7.4,0,0,0-.09-1.76,1.33,1.33,0,0,0-.24-.39l-.37-.24c-4-2.46-8.18-4.72-12.26-7.08a10.18,10.18,0,0,1-2.22-1.44,10.28,10.28,0,0,0-4.41-5.89c-2-1.28-4-1.57-6.09-.27a2.58,2.58,0,0,1-1.65-.57c-2.72-1.53-5.43-3.06-8.11-4.66a2.29,2.29,0,0,0-2.62,0c-1.78,1.06-3.56,2.13-5.38,3.14-.6.34-1.25.65-1.43,1.42-.16,2.44.28,4.88-.09,7.31-.57,2-.1,4-.33,6-.19.85-.89,1.14-1.59,1.39-1.59.55-3.14,1.2-4.75,1.67a28.679,28.679,0,0,0-3.79,1.39c-1.78.58-3.54,1.24-5.31,1.85-3.59,1.07-5,2.85-5,6.67A22.7,22.7,0,0,0,185,108.77a6.75,6.75,0,0,0,7.7,1.28c1.89-.69,3.81-1.31,5.67-2.11a25.669,25.669,0,0,0,3.6-1.18c4-1.36,8-3,12.13-4.12a4.45,4.45,0,0,1,2,.93c4.16,2.74,8.33,5.47,12.68,7.92,1.31.73,2.77,1,4,1.79.59,1,1.53,2,1,3.39l-1-.55c-1.22-.67-1.44-.48-1.67.87a24.768,24.768,0,0,0-.7,3.59,2.15,2.15,0,0,0,.69,1.78,12.929,12.929,0,0,0,3.83,3,1.81,1.81,0,0,1,.92,1.26c1.18,3.29,2.25,6.63,3.67,9.84a19.79,19.79,0,0,0,6.33,8.41c.93.67,1.57.72,2.4-.16,1.49-1.57,3.09-3,4.64-4.55,0,3.17,0,6.34.06,9.51,0,1.16-.35,1.1-1.17.62Q240.92,144,230,137.7l-37.44-21.6q-11.83-6.84-23.63-13.73l-.06-.28a16.614,16.614,0,0,1,0-2.23V37.67a12.511,12.511,0,0,0-.09-2.37,3.09,3.09,0,0,1,.23-1.67c4,2.28,8,4.54,12,6.83q21.06,12.12,42.09,24.27,14.73,8.52,29.43,17.07a.68.68,0,0,0,.29,0,9,9,0,0,1,.52,3.16q0,18.585,0,37.17a28.58,28.58,0,0,1-.17,5.52Z" fill="#cbcbcb"/><path d="M165.75,27.67v75.15a2.41,2.41,0,0,1-.28-1.64q0-35.84,0-71.67c0-.62-.22-1.31.31-1.85Z" fill="#95755f"/><path d="M169,33.63v1.52a2.22,2.22,0,0,1,.13,1.17v65a3.3,3.3,0,0,1-.07,1h-.36a2.45,2.45,0,0,1-.15-1.44q0-32.6,0-65.19a3.49,3.49,0,0,1,.11-1.47C168.79,34.06,168.47,33.63,169,33.63Z" fill="#bbaca1"/><path d="M168.67,34.26v68.1c-.48-.43-.3-1-.3-1.54v-65C168.41,35.3,168.24,34.73,168.67,34.26Z" fill="#917468"/><path d="M253.17,127.65c-.46-.46-.24-1-.24-1.55V83.77c0-.64-.07-1.28-.11-1.92.58.33.3,1.05.68,1.48v38a13.9,13.9,0,0,1-.14,2.81,3.2,3.2,0,0,0,0,.44,1,1,0,0,1,.15-.46l.59.3c.37.21,0,.64.29.89a6.5,6.5,0,0,1-1.22,2.34Z" fill="#977a69"/><path d="M255.5,122.58l-1.08,2.5c-.34-.39-.19-.86-.19-1.29V84.48a2,2,0,0,1,.14-1.15c.49.49.29,1.12.29,1.69v35.16a2.56,2.56,0,0,0,.84,2.4Z" fill="#977a69"/><path d="M253.48,124.08a4.21,4.21,0,0,1-.3,2V85c0-.58-.19-1.2.29-1.7h0a2.32,2.32,0,0,1,.14,1.3q0,18.93,0,37.85a2.32,2.32,0,0,1-.14,1.3Z" fill="#987560"/><path d="M254.37,83.33v41.75a.23.23,0,0,1-.06.19c-.31-.23-.28-.57-.29-.89V85.17C254.08,84.55,253.86,83.88,254.37,83.33Z" fill="#9e7863"/><path d="M253.48,123.78V83.33c.45.44.29,1,.29,1.54v37.37C253.77,122.76,253.93,123.34,253.48,123.78Z" fill="#977a69"/><path d="M256.15,81v38h-.29V82.78C255.87,82.18,255.65,81.5,256.15,81Z" fill="#987d70"/><path d="M256.46,135.81v19.51a.68.68,0,0,1-.32-.6,4.17,4.17,0,0,1-.13-1.89V138.92a2.87,2.87,0,0,1,.14-1.45v-1.25Z" fill="#997358"/><path d="M256.15,137.47v17.25c-.38-.35-.29-.81-.29-1.25V138.71C255.86,138.28,255.77,137.82,256.15,137.47Z" fill="#987c6f"/><path d="M253.79,81c.49,0,.57.3.55.62s-.14.37-.36.23-.59-.21-.53-.57C253.47,81.14,253.71,81.05,253.79,81Z" fill="#977a69"/><path d="M277.24,136.47c.41,2.46.82,4.93,1.22,7.39v.59c.33,3.1.22,3.29-2.73,4.64a17.28,17.28,0,0,1,.64-10A20.624,20.624,0,0,0,277.24,136.47Z" fill="#a6defc"/><path d="M259.41,135.09l-1.1-1.18c1.84.8,3.85.5,5.75.89a5.9,5.9,0,0,1,2,.52c2.24,1.38,4.47,1.16,6.83.09-.95,1.65-3.68,2.14-6,1.17A19.8,19.8,0,0,0,259.41,135.09Z" fill="#4d4d4d"/><path d="M233.79,116.67l-1.23-3.39c-.7-.35-.88-1-1.12-1.69-2.67-7-5.29-14-7.92-21-.27-.74-.94-1.84.06-2.22s1.19.94,1.48,1.65c2.9,7,5.75,14.12,8.61,21.2a3.14,3.14,0,0,1,.44,2,5.25,5.25,0,0,0,.9,2.29,1.1,1.1,0,0,1,.68.73c.92,2.5,2.17,4.89,2.62,7.56h0c.12.43.23.86.37,1.27a.74.74,0,0,1-.34,1,.69.69,0,0,1-1-.51c-.59-2.28-2.27-4.22-2-6.79C235.41,117.82,234.24,117.42,233.79,116.67Z" fill="#f4c271"/><path d="M273.1,114.56c-.43-1.06-.06-2.19-.28-3.27.14-.42.05-1.05.82-.93C273.1,111.72,273.77,113.23,273.1,114.56Z" fill="#444342"/><path d="M144,230.85c-.66.54-1.21.83-1.11-.46a12.49,12.49,0,0,1,.17-3.17C143.38,228.43,143.69,229.64,144,230.85Z" fill="#9addf9"/><path d="M99.79,182.44c2-.73,3.72-2,5.91-2.08h1.75a11.54,11.54,0,0,1-.65,3.18,38.441,38.441,0,0,1-5.75,2.76c-.79.34-.71-.42-1-.69-.79-.71-.59-1.57-.36-2.43Z" fill="#5a5b59"/><path d="M100.86,205.3c-.89-1-1.78-2-2.68-3a59.116,59.116,0,0,1,6.57-3c1.07.72,2.37,1.1,3.25,2.11-.61-.26-1,.17-1.44.45C104.67,203,102.76,204.16,100.86,205.3Z" fill="#a07e6c"/><path d="M93.44,194.83c.51-1.75,1.94-3.11,2.14-5,.14-1.23.47-2.44.49-3.66s.44-1.46,1.45-.84a4.089,4.089,0,0,0,.68.29c1,1.3.5,2.61,0,3.92a16.63,16.63,0,0,1-1.07,4.1C96.05,195.94,95.7,196.05,93.44,194.83Z" fill="#fcece5"/><path d="M98.22,189.54v-3.92l1.47-2.4.36,2.43C100.22,187.32,99.23,188.44,98.22,189.54Z" fill="#b2b1b1"/><path d="M104.13,215.41c-.57-2.29-1.14-4.57-1.72-6.86.8,0,1.26-.8,2-.88.45.22.76.66.57,1.07-.61,1.27.72,2.44.11,3.7-.07.14.17.44.26.66a8.91,8.91,0,0,1-1.22,2.31Z" fill="#997968"/><path d="M115.44,213.24l.45.08c-.43.17-.55,1-1.23.62Z" fill="#de624a"/><path d="M118,211.24c.52-.42.91-1,1.62-1.2C119.16,210.56,118.78,211.17,118,211.24Z" fill="#de624a"/><path d="M69.46,199.28c-.73,1.61-1.47,3.22-2.2,4.82-.46-2.17,0-4.37-.3-6.55h1.43C69.13,197.89,69.66,198.36,69.46,199.28Z" fill="#a07f6b"/><path d="M69.46,199.28l-1.07-1.73,3.3-1.16a7.21,7.21,0,0,1-2.23,2.89Z" fill="#f8e8e0"/><path d="M78.09,190.71c-.57.58-1,1.29-1.91,1.48.27-.79-.19-1.66.27-2.43a.82.82,0,0,1-.08-1.08C77.65,188.76,77.81,189.79,78.09,190.71Z" fill="#5c5b58"/><path d="M76.51,188.71l-.06,1c-.83.08-.83-.67-1.13-1.11.2-.33.41-.65.62-1C76.58,187.77,76.8,188.1,76.51,188.71Z" fill="#ca6554"/><path d="M67.29,209.7c.4.93,1.43,1.53,1.45,2.68-.12.3-.43.19-.64.29l-.85.34a6,6,0,0,1,.04-3.31Z" fill="#a17f6d"/><path d="M68.1,212.67l.64-.29a2.32,2.32,0,0,1-.25,1.32C68.42,213.33,68.47,212.92,68.1,212.67Z" fill="#9fd1db"/><path d="M178,252.33v-14h.18v14Z" fill="#0b6792"/><path d="M66.94,244.31c.34-1,1.54-.83,2.1-1.53a13.62,13.62,0,0,0,.87,7.14c-.85.26,1,1.43-.62,1.66-.71.1-1.41.91-2.3,1C67,249.82,67,247.07,66.94,244.31Z" fill="#987967"/><path d="M108.63,233.55v5.95c-3-.06-2.66.52-2.7-2.78a3.3,3.3,0,0,1,.29-1.43,6.6,6.6,0,0,1,2.41-1.74Z" fill="#9f7e6b"/><path d="M100.05,230.56a.762.762,0,0,1-.15,0c-1.23-.12-3,.57-3.57-.44-.47-.82,1-2.07,1.51-3.14C98.58,228.18,99.32,229.37,100.05,230.56Z" fill="#e2e3e4"/><path d="M97.51,273.72c-.85-.94-1.69-1.89-2.55-2.83a1.79,1.79,0,0,1-.34-1.52c.16-1.7.36-3.39.54-5.09,1.62-.83,3-2.17,4.85-2.48a.82.82,0,0,1,.19.4c.16,4,.08,8,0,12,0,1-.71,1.05-1.46.75C98.22,274.69,98,274.1,97.51,273.72Z" fill="#95d8fc"/><path d="M97.51,273.72c.76.29,1.48,1.32,2.18.92s.27-1.54.28-2.34V261.8a1,1,0,0,1,.25,0h0a16.63,16.63,0,0,1,.13,4.11,101.489,101.489,0,0,1-.13,10.17l-.59.37-.64-.1A12.661,12.661,0,0,1,97.51,273.72Z" fill="#79ccf7"/><path d="M172.6,242.51a1.16,1.16,0,0,1,.26,1v15a1,1,0,0,1-.23.82Z" fill="#9a735f"/><path d="M146.08,247.82c-.55-.74-.2-1.54-.08-2.33a10.291,10.291,0,0,0,.14,1.23Z" fill="#e45a3b"/><path d="M75.58,264.22a1.63,1.63,0,0,1,1.2.56A1.13,1.13,0,0,1,75.58,264.22Z" fill="#b6def6"/><path d="M100.28,276.09V261.81a1.3,1.3,0,0,1,.3,1.1V275a1.28,1.28,0,0,1-.3,1.09Z" fill="#9c735e"/><ellipse cx="0.09" cy="29.97" rx="0.09" ry="29.97" transform="translate(102.72 63.02)" fill="#8fd7f5"/><ellipse cx="0.1" cy="12.11" rx="0.1" ry="12.11" transform="translate(102.71 43.25)" fill="#8fd7f5"/><path d="M78.25,184.2c-.85-.72-1.67-1.48-2.57-2.14s-1-2-1.66-2.86a.37.37,0,0,1,.14-.61,1,1,0,0,1,1.18.31c.3.16.58,0,.86-.06q1.5-2.52,3-5.06a8.24,8.24,0,0,1,2.35,3.33c-1.75,2.14-2.23,4.75-2.7,7.36a.45.45,0,0,1-.34.15A.339.339,0,0,1,78.25,184.2Z" fill="#fdede4"/><path d="M78.25,184.2l.29.29c.33.58.1,1.21.17,1.81a14.09,14.09,0,0,1-.42,4.19l-.2.22c-.53-.67-1-1.34-1.58-2a1.18,1.18,0,0,0-.57-1C76.87,186.62,76.94,185,78.25,184.2Z" fill="#b2b2b2"/><path d="M78.29,190.49c-.21-1.43.31-2.81.3-4.23.07-.15.16-.16.24,0,0,1,.08,2,.1,2.93C78.93,189.71,79,190.3,78.29,190.49Z" fill="#f3e4da"/><path d="M78.83,186.25h-.24v-1.77h.33C78.86,185.07,78.84,185.66,78.83,186.25Z" fill="#e5d3cd"/><path d="M76.2,178.84c-.24.71-.53.73-.86.06l.58-.66C76,178.44,76.11,178.64,76.2,178.84Z" fill="#edbe61"/><path d="M234.11,113.22c-1.61-3.13-2.72-6.47-4.07-9.7-1.91-4.57-3.72-9.18-5.59-13.76a1.85,1.85,0,0,0-1.28-1.48l9.39,25a6.77,6.77,0,0,1-3.48-1.12c-5.12-2.8-10-6.07-14.85-9.25a.72.72,0,0,1,.37-.75c2.47-1.82,2.87-4.46,2.62-7.19a23.74,23.74,0,0,0-7.35-15.18c-2.71-2.64-5.7-3.69-9.31-2a11.149,11.149,0,0,1-2.09.77c-.5.12-1.07.41-1.45-.26a23.55,23.55,0,0,1-.09-6c0-2.67,0-5.34.08-8,.72,0,.63.65.79,1.06a4.44,4.44,0,0,0,4.5,3.17,7.47,7.47,0,0,1,4.9,1.26c.94.72,1.88,0,2.82-.2,3.84-.23,8,3,9.18,7.14,1.3,1.47,3.1,2.22,4.74,3.17,2.3,1.34,4.71,2.47,7,3.87a3.42,3.42,0,0,0,4.23.06c1.59-1.15,3.36-2.06,5-3.13.64-.42,1.47-1.06,2.09.14.15,6.51,0,13,.07,19.52v5.92a.91.91,0,0,1-.14.54,16.62,16.62,0,0,1-8.08,6.4Z" fill="#4d4d4d"/><path d="M197.16,78.54c1.3-.47,2.64-.85,3.9-1.42a7.17,7.17,0,0,1,8.11,1.4,23.48,23.48,0,0,1,8.55,17.86c0,2.65-.72,5.21-3.49,6.53l-12.18,4.25c-.73-.2-.33-.66-.16-1,2-3.36,1.8-6.91.78-10.46a22.69,22.69,0,0,0-7.44-11.84,11.9,11.9,0,0,0-3.59-2c-.47-.17-1.14-.14-1.19-.89l6.24-2.33C196.77,78.34,197,78.43,197.16,78.54Z" fill="#5c5c5c"/><path d="M181.49,84.22a43.66,43.66,0,0,1,5.34-1.83c2.78-.11,4.85,1.41,6.59,3.23,4.65,4.85,7.42,10.58,7.26,17.45-.05,2-.41,4-2.23,5.26a34.44,34.44,0,0,1-5.65,2.07c-.69-.25-.27-.68-.08-1,2.32-3.29,1.86-6.84.9-10.39a23.32,23.32,0,0,0-6.32-10.9,11.37,11.37,0,0,0-4.71-3C182.12,85,181.47,85,181.49,84.22Z" fill="#5c5c5c"/><path d="M181.49,84.22a14.64,14.64,0,0,1,6.88,4.33,25,25,0,0,1,6.26,13.14,12.7,12.7,0,0,1-.7,6.8c-.28.72-1.19,1-1.13,1.91a6.24,6.24,0,0,1-7.24-.64c-6.32-4.82-9.58-11.28-9.35-19.24C176.32,87,177.75,84.85,181.49,84.22Z" fill="#727272"/><path d="M210.05,69.94a2.77,2.77,0,0,1-3.93-.22,3.31,3.31,0,0,0-2.49-.68c-4.3,0-5.42-.8-6.62-4.72,2.55-1.88,5.44-3.21,8.12-4.87.56-.35.94,0,1.35.27l8.79,5c.42.24.88.42,1.32.63.25.54-.18.72-.51.89C214,67.29,212.16,68.87,210.05,69.94Z" fill="#5c5c5c"/><path d="M210.05,69.94c-.29-.55.25-.53.49-.68l6.05-3.92a4.07,4.07,0,0,1,4.8-.63c3.09,1.37,5.37,3.45,6,7a1.69,1.69,0,0,1-1,1.22c-2.13,1.23-4,2.78-6.15,4-.52.3-1,.66-1.61.19a6.82,6.82,0,0,0-2.57-4.47A9,9,0,0,0,210.05,69.94Z" fill="#666"/><path d="M218.68,77.07c1.7-.33,2.93-1.56,4.29-2.46a50.1,50.1,0,0,0,4.43-3L241.89,80c.08.09.11.17.07.25s-.06.11-.09.11a81.483,81.483,0,0,0-7.22,4.32c-1.46,1.06-2.5.31-3.51-.24-4.08-2.22-8.08-4.58-12.09-6.89A1.979,1.979,0,0,1,218.68,77.07Z" fill="#5c5c5c"/><path d="M198.45,108.33c3.6-6.43,1.37-12.23-1.93-17.9a21.67,21.67,0,0,0-4.7-5.63c-1.5-1.28-3.34-1.58-5-2.41A16.719,16.719,0,0,1,190.45,81c7.33,2.25,10.58,8,12.72,14.74a14.34,14.34,0,0,1,0,9c-.28.86-1.09,1.44-1.13,2.4a12.66,12.66,0,0,1-3.59,1.19Z" fill="#727272"/><path d="M169.07,102.33c0-.3-.07-.6-.07-.89V35.15c.44.46.28,1,.28,1.56v64.18C169.29,101.38,169.42,101.89,169.07,102.33Z" fill="#d0d0d0"/><path d="M238.31,123.8a82.192,82.192,0,0,1-3.3-8.29c.08-.39.12-.92.5-1s.55.47.78.78a11.35,11.35,0,0,1,2.02,8.51Z" fill="#fcede5"/><path d="M242.47,80.06c.46.44.29,1,.29,1.54v23.7c0,.52.2,1.11-.36,1.5a4.5,4.5,0,0,1-.23-1.75V81.77A2.49,2.49,0,0,1,242.47,80.06Z" fill="#d5d5d5"/><path d="M242.47,80.06v25.41c0,.45-.06.89-.09,1.33h-.21l-.06-.34A4,4,0,0,1,242,105V81.47a2.76,2.76,0,0,1,.14-1.45,1.5,1.5,0,0,1,.33.04Z" fill="#8b8b8b"/><path d="M242.17,80.06V106.5c-.43-.52-.24-1.14-.24-1.71V79.98A.57.57,0,0,1,242.17,80.06Z" fill="#444"/><path d="M197.16,78.54l-.47.13c.1-2.11-.35-4.25.24-6.34Q197.035,75.435,197.16,78.54Z" fill="#d4d4d4"/><path d="M218.82,98.61a16.29,16.29,0,0,0-1-8.57c-.39-.9-.32-1.41.94-1.13a3.89,3.89,0,0,1,2.65,2A6.54,6.54,0,0,1,220.32,98a1.77,1.77,0,0,1-1.5.61Z" fill="#5b5b5b"/><path d="M192.85,102.6c.06,2.27-.28,4.49-2.51,5.47s-4.06,0-5.71-1.5a17.77,17.77,0,0,1-6.37-15.41c.28-3.55,4.28-4.94,7.37-2.56C190.22,92.12,192.42,96.92,192.85,102.6Z" fill="#989898"/><path d="M201.14,65.19c.89,0,1.62.13,1.6.91s-.77.79-1.35.84-1.28-.16-1.3-.85S200.72,65.2,201.14,65.19Z" fill="#4d4d4d"/><path d="M235.63,78.27c1,1,.87,2.37-.3,2.79a10.73,10.73,0,0,1-7.37-.17c-1-.34-.93-1.76-.06-2.63,1.42-.29,2.81.15,4.23.13C233.3,78.37,234.45,77.88,235.63,78.27Z" fill="#4d4d4d"/><path d="M235.63,78.27a11.11,11.11,0,0,1-7.73,0c-.39-.59-.19-1.15.4-1.31a11.72,11.72,0,0,1,7.08,0C236.24,77.26,236.08,77.73,235.63,78.27Z" fill="#656565"/><path d="M184.12,97.4c-.13.55-.16,1.15-.77,1.49a1.52,1.52,0,0,1-1.67-.16,5.59,5.59,0,0,1-2.26-5c.22-1.2,1.38-1.57,2.54-.75C183.47,94,183.69,95.76,184.12,97.4Z" fill="#b2b2b2"/></g></g></svg>