<svg xmlns="http://www.w3.org/2000/svg" xmlns:xlink="http://www.w3.org/1999/xlink" width="252.616" height="155.285" viewBox="0 0 252.616 155.285"><defs><linearGradient id="a" x1="0.5" y1="1" x2="0.5" gradientUnits="objectBoundingBox"><stop offset="0" stop-color="gray" stop-opacity="0.251"/><stop offset="0.54" stop-color="gray" stop-opacity="0.122"/><stop offset="1" stop-color="gray" stop-opacity="0.102"/></linearGradient></defs><g transform="translate(-1069.2 -130)"><path d="M180.707,247.822c4.88-.278,10.935-3.59,15.642-5.052q8.358-2.6,16.782-4.99,29.317-8.34,59.275-14.22,2.8-.548,5.6-1.073a39.669,39.669,0,0,0-13.085-15.715,40.142,40.142,0,0,0,.221-4.145c0-21.891-17.5-39.638-39.084-39.638a38.481,38.481,0,0,0-18.968,4.977c-15.28-10.051-35.224-16.135-57.045-16.135-31.007,0-58.226,12.286-73.65,30.781l72.5,12.246,44.459,7.508c-50.683,1.513-101.524,3.016-152.061-.534A40.06,40.06,0,0,0,35.526,252.4h0c0,.793.033,1.577.093,2.356,1.287.371,2.531.726,3.646.963q26.853,5.671,54.051,9.495c-13.361,8.239-29.633,9.4-45.046,12.891a45.176,45.176,0,0,0,28.768,9.95H243.329c18.007,0,32.6-12.538,32.6-28h0a39.777,39.777,0,0,0,5.3-14.547C247.911,248.71,214.175,245.917,180.707,247.822Z" transform="translate(1040.356 -10.028)" fill="#7f7f7f" opacity="0.1"/><path d="M280.6,237.425a39.746,39.746,0,0,0-16.782-32.552,40.83,40.83,0,0,0,.221-4.145c0-21.894-17.5-39.638-39.084-39.638a38.461,38.461,0,0,0-18.972,4.975c-15.278-10.051-35.224-16.135-57.045-16.135-35.5,0-66.045,16.106-79.595,39.206-.753-.044-1.51-.068-2.274-.068-21.582,0-39.084,17.745-39.084,39.636a39.857,39.857,0,0,0,6.43,21.788h0c0,19.7,18.59,35.664,41.513,35.664h166.3c18.005,0,32.6-12.536,32.6-28h0a39.872,39.872,0,0,0,5.768-20.728Z" transform="translate(1041.22 -8.547)" fill="#ffb603" opacity="0.53"/><path d="M824.264,98.38s-16.561,8.515-8.038,18.606a3.17,3.17,0,0,0,3.127,2.038s-.464-.848,1.325-1.521a8.594,8.594,0,0,0,1.786-.947,4.2,4.2,0,0,0,1.605-2.135h0s3.4-4.522.788-12.907c0,0,.344-2.369.049-2.751l-2.018,2.751a5.635,5.635,0,0,1,2.31,3.449s-2.157-3.442-2.628-3.052c-.095.079-1,1.506-1,1.506s3.6,2.451,3.86,5.626c0,0-2.023-4.449-4.211-5.079l-1.243,2.235s3.93,2.4,4.368,6.008c0,0-2.274-4.575-4.606-5.5l-.925,2.363s3.787,2.429,4.131,5.421c0,0-3.164-5.024-4.308-4.858a12.267,12.267,0,0,0-.625,2.9s2.678,1.8,2.723,3.56c0,0-2.469-3.131-2.851-2.926a13.12,13.12,0,0,0,.594,4.778,9.539,9.539,0,0,1-1.086-4.778,5.226,5.226,0,0,0-1.592,2.55s-.711-1.731,1.643-3.312a11.828,11.828,0,0,1,.5-2.745,11.456,11.456,0,0,0-3.624,2.754s.4-2.268,3.847-3.387l.883-2.4s-3.447,1.453-4.513,2.736c0,0,.768-2.25,4.785-3.312l1.195-2.208a19.52,19.52,0,0,0-4.56,2.195s1.161-1.934,4.926-2.813l.969-1.38s-2.224.788-2.842,1.073-.746.141-.746.141a8.033,8.033,0,0,1,3.97-1.822S824.416,98.528,824.264,98.38Z" transform="translate(428.929 31.62)" fill="#6c63ff" opacity="0.1"/><path d="M761.74,144.51s1.29,8.316,6.832,6.1a1.445,1.445,0,0,0,1.325-1.051s-.431.077-.466-.782a3.888,3.888,0,0,0-.15-.9,1.894,1.894,0,0,0-.689-.991h0s-1.453-2.1-5.421-2.177c0,0-.967-.486-1.172-.413l.883,1.256a2.541,2.541,0,0,1,1.808-.5s-1.784.442-1.683.691c.02.053.5.645.5.645a4.2,4.2,0,0,1,2.963-.855s-2.195.234-2.782,1.082l.782.85a4.408,4.408,0,0,1,3.2-1.016s-2.288.325-3.016,1.192l.883.733s1.579-1.281,2.915-1c0,0-2.606.643-2.7,1.155a5.466,5.466,0,0,0,1.155.68s1.153-.883,1.914-.662c0,0-1.694.612-1.661.8a5.965,5.965,0,0,0,2.133.428,4.3,4.3,0,0,1-2.208-.221,2.377,2.377,0,0,0,.868,1.047s-.844.057-1.186-1.177a5.213,5.213,0,0,1-1.1-.605,5.2,5.2,0,0,0,.662,1.948,2.3,2.3,0,0,1-.905-2.133l-.9-.718a7.328,7.328,0,0,0,.53,2.325,2.9,2.9,0,0,1-.744-2.526l-.775-.826a8.627,8.627,0,0,0,.294,2.268,3.5,3.5,0,0,1-.506-2.513l-.442-.612s.022,1.064.055,1.371-.046.34-.046.34a3.621,3.621,0,0,1-.2-1.965A8.769,8.769,0,0,0,761.74,144.51Z" transform="translate(469.484 -4.15)" fill="#6c63ff" opacity="0.1"/><path d="M884.885,161.076s-8.23-1.749-8.135,4.213a1.435,1.435,0,0,0,.51,1.608s.082-.431.9-.157a3.836,3.836,0,0,0,.894.179,1.9,1.9,0,0,0,1.172-.287h0s2.482-.612,3.975-4.293c0,0,.8-.731.8-.947l-1.493.386a2.539,2.539,0,0,1-.177,1.866s.221-1.822-.046-1.819c-.057,0-.782.241-.782.241a4.2,4.2,0,0,1-.258,3.074s.565-2.135-.02-2.985l-1.073.426a4.4,4.4,0,0,1-.19,3.352s.512-2.252-.038-3.242l-1,.563s.634,1.928-.1,3.076c0,0,.329-2.661-.117-2.932a5.643,5.643,0,0,0-1.049.837s.424,1.4-.064,2.025c0,0,.031-1.8-.161-1.839a5.933,5.933,0,0,0-1.159,1.842,4.305,4.305,0,0,1,.987-1.987,2.378,2.378,0,0,0-1.287.442s.247-.808,1.524-.689a5.5,5.5,0,0,1,.958-.819,5.179,5.179,0,0,0-2.056-.073,2.294,2.294,0,0,1,2.314-.084l.991-.587a7.377,7.377,0,0,0-2.36-.333,2.9,2.9,0,0,1,2.623.205l1.049-.442a8.819,8.819,0,0,0-2.224-.534,3.491,3.491,0,0,1,2.528.424l.733-.205s-1-.36-1.3-.442-.3-.163-.3-.163a3.615,3.615,0,0,1,1.91.51A8.8,8.8,0,0,0,884.885,161.076Z" transform="translate(379.925 -17.046)" fill="#6c63ff" opacity="0.1"/><ellipse cx="8.879" cy="1.502" rx="8.879" ry="1.502" transform="translate(1208.754 274.845)" fill="#7f7f7f"/><path d="M687.846,735.559a2.571,2.571,0,0,0,.846-1.279,1.134,1.134,0,0,0-.592-1.3c-.543-.208-1.124.17-1.563.55a2.1,2.1,0,0,1-1.519.733,2.318,2.318,0,0,0,.715-2.166.91.91,0,0,0-.2-.442c-.3-.322-.848-.185-1.21.068a4.507,4.507,0,0,0-1.475,3.771,7.09,7.09,0,0,1-.02-1.546,1.593,1.593,0,0,0-.585-1.376,1.747,1.747,0,0,0-.883-.208,1.833,1.833,0,0,0-1.442.408,1.423,1.423,0,0,0,.055,1.767,5.666,5.666,0,0,0,1.495,1.2,3.312,3.312,0,0,1,1.067,1.018.914.914,0,0,1,.079.183h3.237A9,9,0,0,0,687.846,735.559Z" transform="translate(533.46 -461.672)" fill="#7f7f7f"/><ellipse cx="8.879" cy="1.502" rx="8.879" ry="1.502" transform="translate(1229.29 279.502)" fill="#7f7f7f"/><path d="M780.846,756.669a2.57,2.57,0,0,0,.846-1.279,1.133,1.133,0,0,0-.592-1.3,1.658,1.658,0,0,0-1.563.55,2.087,2.087,0,0,1-1.519.733,2.318,2.318,0,0,0,.715-2.166.9.9,0,0,0-.2-.442c-.3-.323-.848-.186-1.21.068a4.507,4.507,0,0,0-1.475,3.772,7.087,7.087,0,0,1-.02-1.546,1.593,1.593,0,0,0-.585-1.376,1.748,1.748,0,0,0-.883-.208,1.833,1.833,0,0,0-1.442.409,1.423,1.423,0,0,0,.055,1.766,5.711,5.711,0,0,0,1.495,1.2,3.313,3.313,0,0,1,1.067,1.018.911.911,0,0,1,.079.183h3.237A9.077,9.077,0,0,0,780.846,756.669Z" transform="translate(460.995 -478.121)" fill="#7f7f7f"/><ellipse cx="8.879" cy="1.502" rx="8.879" ry="1.502" transform="translate(1100.114 277.846)" fill="#7f7f7f"/><path d="M195.846,749.169a2.57,2.57,0,0,0,.846-1.279,1.134,1.134,0,0,0-.592-1.3c-.543-.208-1.124.17-1.563.55a2.087,2.087,0,0,1-1.519.733,2.319,2.319,0,0,0,.715-2.166.911.911,0,0,0-.2-.442c-.3-.322-.848-.185-1.21.068a4.51,4.51,0,0,0-1.475,3.771,7.089,7.089,0,0,1-.02-1.546,1.593,1.593,0,0,0-.585-1.376,1.746,1.746,0,0,0-.883-.208,1.834,1.834,0,0,0-1.442.411,1.423,1.423,0,0,0,.055,1.767,5.622,5.622,0,0,0,1.495,1.2,3.312,3.312,0,0,1,1.067,1.018.918.918,0,0,1,.079.183h3.237A9,9,0,0,0,195.846,749.169Z" transform="translate(916.819 -472.277)" fill="#7f7f7f"/><path d="M343.375,375.849a.563.563,0,0,0,0-.06,1.767,1.767,0,0,0-.157-.819c-.358-.724-1.219-.844-1.95-.969a9.617,9.617,0,0,1-3.4-1.279,2.738,2.738,0,0,1-1.486-1.914c0-.179.013-.358,0-.521v-.349c0-.466-.026-.894-.373-.978a6.716,6.716,0,0,1-4.575-4.513c-.152-.477-.258-.974-.455-1.431-.625-1.449-2.016-2.235-3.067-3.33a13.011,13.011,0,0,1-2.765-5.459c-.581-2.012-.983-4.094-1.744-6.03-1.27-3.231-2.416-6.671-4.569-9.252-.325-.391-.682-.791-1.06-1.195-1.914-2.8-3.215-6.1-4.873-9.117a9.128,9.128,0,0,0-1.15-1.729,14.558,14.558,0,0,0-1.948-1.61c-3.191-2.491-5.231-6.4-7.98-9.479a12.486,12.486,0,0,1-1.579-1.939,6.184,6.184,0,0,1,.1-1.126,10.086,10.086,0,0,0,.57-2.72,3.827,3.827,0,0,1-.046-.55,1.987,1.987,0,0,1,.168-.614,6.071,6.071,0,0,1,.561-1.206,5.13,5.13,0,0,0,.773-2.034c.55-.521.788-1.475,1.475-1.716.382-.132.883-.042,1.1-.419a1.012,1.012,0,0,0,.1-.415,6.322,6.322,0,0,0-.188-2.221,5.463,5.463,0,0,0,.044-1.155,6.946,6.946,0,0,0-.806-2.745,2.093,2.093,0,0,0-1.208-1.192c-.119-.026-.241-.033-.355-.068-.7-.205-.945-1.29-1.579-1.625.815.442,1.647.941,2.413.57.963-.47,1.042-1.937.969-3.107l-.256-4.335c-.137-2.208-.309-4.551-1.446-6.37a8.337,8.337,0,0,0-4.416-3.246,5.252,5.252,0,0,0-3.575-.258c.068-.049.135-.1.2-.141a3.211,3.211,0,0,0-.413.155,7.7,7.7,0,0,0-1.66,1.139,5.993,5.993,0,0,0,.42-2.208,5.869,5.869,0,0,0-.923-3.193l1.294-1.089-.3-.492.57-.543a.4.4,0,0,0-.34-.19.48.48,0,0,0-.079,0,1.179,1.179,0,0,0-.04-.484l-.04.038a1.457,1.457,0,0,0-.159-.384h.046a1.424,1.424,0,0,0-.091-.144v.068a3.19,3.19,0,0,0-.676-.722,6.193,6.193,0,0,0-3.348-1.577c-.6-.044-1.195.051-1.791,0-.8-.055-1.583-.36-2.389-.393a2.05,2.05,0,0,0-2.047,1.1c-.144.353-.163.751-.272,1.115a5.41,5.41,0,0,1-1.429,1.976,2.8,2.8,0,0,0-.9,2.246,3.227,3.227,0,0,0,.278.768l2.8,6.042a11.85,11.85,0,0,1-.04,1.325q-.027.285-.073.576c-.013.082-.029.166-.049.25a1.4,1.4,0,0,0-.844.486.694.694,0,0,0-.146.349,3.153,3.153,0,0,0,.106.6,1.546,1.546,0,0,1-.179.749,5.81,5.81,0,0,1-1.055,1.8c-.194.2-.415.369-.612.567a6.084,6.084,0,0,0-.612.766,5.189,5.189,0,0,0-.98,1.89c-.247,1.17-.746,2.283-1.1,3.425a1.17,1.17,0,0,1-.188.252c-.221.208-.5.3-.72.5a2.263,2.263,0,0,0-.322,2c.428,2.6,1.179,5.134,1.477,7.757a28.582,28.582,0,0,0,.4,3.08,3.754,3.754,0,0,0,.475,1.228,8.777,8.777,0,0,1-.283,2.9c-.163.411-.391.786-.59,1.179a17.31,17.31,0,0,0-.731,1.74l-1.2,3.158c-.221.6-.455,1.2-.627,1.824a18.779,18.779,0,0,0-.428,5.642.243.243,0,0,1-.035.168c-.035.044-.119.031-.121-.029-.016.11-.077.3-.091.406a3.12,3.12,0,0,0,1.731.113v.174a.283.283,0,0,0,0,.042,3.715,3.715,0,0,0,.055.537v.013c.015.09.035.179.055.267a.106.106,0,0,0,.018.071c.02.079.042.161.066.238.013.042.024.08.038.119s.033.1.051.143.02.06.031.088c.146.38.32.746.486,1.117a5.961,5.961,0,0,1,.563,1.824c.013.146.018.291.024.442v.152a4.184,4.184,0,0,0,.04.47c.04.252.115.492.174.74.035.146.062.3.088.442s.051.338.073.506q.25,1.872.369,3.754c.02.3.038.607.053.91.1,2.208.077,4.416.051,6.638a13.309,13.309,0,0,1-.221,2.16c-.369,2.091-1.131,4.123-1.634,6.2-.053.221-.1.442-.148.662a8.885,8.885,0,0,0-.221,1.424,10.067,10.067,0,0,0,.172,1.908q.163,1.146.252,2.3a6.452,6.452,0,0,0-.782,2.327c-.267,2.458-2.349,4.3-2.632,6.759a3.039,3.039,0,0,0-.02.47,2.35,2.35,0,0,0,0,.3,1.988,1.988,0,0,0,.066.777,1.546,1.546,0,0,0,1.287.969,5.611,5.611,0,0,0,1.621-.159c.243-.042.486-.068.729-.093a1.6,1.6,0,0,1,0,.252,4.344,4.344,0,0,0-.291.64,2.264,2.264,0,0,0-.25.833,1.851,1.851,0,0,0,.25.98,3.267,3.267,0,0,0,2.665,1.546,22.572,22.572,0,0,0,3.107-.194h.177a1.922,1.922,0,0,0,.13.283,3.263,3.263,0,0,0,2.663,1.546,22.612,22.612,0,0,0,3.109-.192c.309-.016.62-.016.93-.038a9.054,9.054,0,0,0,1.873-.342,10.855,10.855,0,0,0,1.5,1.72c1.819,1.546,4.335,1.457,6.609,1.155s4.838-.863,6.911.221c1.59-.174,2.537,2.349,4.134,2.414a2.7,2.7,0,0,0,1.921-1.051,1.945,1.945,0,0,1,.685-.561,1.346,1.346,0,0,1,.682-.022,5.118,5.118,0,0,1,3.122,1.886c.4.5.813,1.137,1.415,1.15.541,0,1.02-.51,1.557-.442a2.851,2.851,0,0,1,.978.552c.989.585,2.208.044,3.158-.6s1.965-1.424,3.078-1.307a7.319,7.319,0,0,1,2.038.819,5.268,5.268,0,0,0,6.11-1.625c.236-.3.479-.638.828-.715a1.3,1.3,0,0,1,.685.1,7.308,7.308,0,0,0,3.836.514,3.183,3.183,0,0,0,2.517-2.89,2.124,2.124,0,0,0-.011-.265c0-.055.011-.113.011-.17A1.23,1.23,0,0,0,343.375,375.849ZM293.25,292.885a1.305,1.305,0,0,1-.442.583c-.018-.095-.035-.19-.055-.287-.08-.411-.17-.819-.267-1.226a4.693,4.693,0,0,0,.938.464c-.064.155-.117.32-.181.466Zm-3.237-9.968v.046a1.6,1.6,0,0,0,.662,1.475,5.962,5.962,0,0,0-.662,2.751,4.671,4.671,0,0,1-.442-.351,2.982,2.982,0,0,1-.581-.855.3.3,0,0,0,.185-.029c.113-.077.108-.258.093-.4a8.676,8.676,0,0,1,.545-4.087,4.443,4.443,0,0,0,.744-.342,3.663,3.663,0,0,0-.541,1.767.076.076,0,0,0-.011.029ZM300.819,294a5.581,5.581,0,0,0-.188,1.312,3.348,3.348,0,0,0-1.68-1.325,2.374,2.374,0,0,0-.247-.06,1.436,1.436,0,0,1,.166-.141c.634-.442,1.347-.133,2.076.254a1.055,1.055,0,0,0-.133-.04Z" transform="translate(849.912 -99.891)" fill="url(#a)"/><path d="M278.4,744.289a1.738,1.738,0,0,0,.285,1,3.809,3.809,0,0,0,3.03,1.57,29.157,29.157,0,0,0,3.533-.2c.353-.016.707-.018,1.058-.038a18.676,18.676,0,0,0,5.3-1.4c.283-.1.612-.272.627-.57a.7.7,0,0,0-.291-.521,2.994,2.994,0,0,0-.753-.481c-.958-.422-2.107-.311-3.016-.83-.2-.115-.384-.256-.594-.351a2.53,2.53,0,0,0-.768-.177,11.747,11.747,0,0,0-3.418.113,23.912,23.912,0,0,1-2.577.472,3.294,3.294,0,0,1-.987-.064c-.221-.051-.5-.25-.711-.117s-.327.554-.426.742A2.158,2.158,0,0,0,278.4,744.289Z" transform="translate(846.098 -470.051)" fill="#3f3d56"/><path d="M278.4,744.289a1.738,1.738,0,0,0,.285,1,3.809,3.809,0,0,0,3.03,1.57,29.157,29.157,0,0,0,3.533-.2c.353-.016.707-.018,1.058-.038a18.676,18.676,0,0,0,5.3-1.4c.283-.1.612-.272.627-.57a.7.7,0,0,0-.291-.521,2.994,2.994,0,0,0-.753-.481c-.958-.422-2.107-.311-3.016-.83-.2-.115-.384-.256-.594-.351a2.53,2.53,0,0,0-.768-.177,11.747,11.747,0,0,0-3.418.113,23.912,23.912,0,0,1-2.577.472,3.294,3.294,0,0,1-.987-.064c-.221-.051-.5-.25-.711-.117s-.327.554-.426.742A2.158,2.158,0,0,0,278.4,744.289Z" transform="translate(846.098 -470.051)" opacity="0.05"/><path d="M309.718,751.784a1.722,1.722,0,0,0,.285,1,3.806,3.806,0,0,0,3.03,1.57,29.109,29.109,0,0,0,3.533-.2c.353-.015.7-.018,1.058-.038a18.683,18.683,0,0,0,5.3-1.4c.283-.106.612-.272.627-.572a.7.7,0,0,0-.292-.519,2.936,2.936,0,0,0-.753-.481c-.958-.422-2.107-.313-3.016-.832-.2-.113-.384-.256-.594-.349a2.6,2.6,0,0,0-.768-.179,11.749,11.749,0,0,0-3.418.115,23.368,23.368,0,0,1-2.577.47,3.215,3.215,0,0,1-.987-.062c-.221-.051-.5-.25-.711-.117s-.329.554-.426.742A2.121,2.121,0,0,0,309.718,751.784Z" transform="translate(821.695 -475.89)" fill="#3f3d56"/><path d="M280.789,382.549a1.159,1.159,0,0,0-.42-.552c-.461-.256-1.007.221-1.208.7s-.267,1.067-.662,1.413c-.241.221-.572.3-.819.508a2.12,2.12,0,0,0-.367,2.031c.488,2.65,1.343,5.224,1.683,7.894a27.972,27.972,0,0,0,.442,3.136,2.957,2.957,0,0,0,.883,1.612,1.345,1.345,0,0,0,1.711.06,19.624,19.624,0,0,1-1.212-6.967c.013-1.546.221-3.091.263-4.655.046-1.365-.022-2.731-.091-4.1a2.547,2.547,0,0,0-.194-1.022.883.883,0,0,0-.832-.523" transform="translate(847.01 -189.315)" fill="#fbbebe"/><ellipse cx="5.558" cy="5.558" rx="5.558" ry="5.558" transform="translate(1132.156 171.725)" fill="#cb8c8e"/><ellipse cx="5.576" cy="5.576" rx="5.576" ry="5.576" transform="translate(1139.629 182.841)" fill="#fbbebe"/><path d="M357.461,381.307c.049.442.221.956.643,1.069a4.723,4.723,0,0,0,.59.033,1,1,0,0,1,.726.561,1.8,1.8,0,0,1,.152.934,2.941,2.941,0,0,1-.455,1.365,3.919,3.919,0,0,1-2.045,1.5,11.022,11.022,0,0,1-2.531.466,3.024,3.024,0,0,1-1.146-.035,2.429,2.429,0,0,1-.662-.336,6.539,6.539,0,0,1-1.627-1.559,3.908,3.908,0,0,1-.7-1.433,2.155,2.155,0,0,1,.205-1.546.762.762,0,0,1,.371-.351c.473-.17.9.415,1.4.428a1.083,1.083,0,0,0,.883-.7,4.709,4.709,0,0,1,.519-1.064,2.291,2.291,0,0,1,1.214-.632,7.6,7.6,0,0,1,2.473-.406c.422.042.146.294.049.6A2.685,2.685,0,0,0,357.461,381.307Z" transform="translate(790.038 -187.492)" fill="#fbbebe"/><path d="M357.034,398.233c.678-.3,1.053-1.04,1.658-1.475a7.775,7.775,0,0,1,1.722-.727,5.023,5.023,0,0,0,1.59-1.016,4.325,4.325,0,0,1,1.325-1.078,2.062,2.062,0,0,1,1.25,0,4.232,4.232,0,0,1,2.539,2.343,12.6,12.6,0,0,1,.9,3.436l.287,1.767a16.23,16.23,0,0,1,.307,3.277,5.454,5.454,0,0,1-1,3.091,6.035,6.035,0,0,0-.638,1.225,1.87,1.87,0,0,0-.188.627,3.435,3.435,0,0,0,.051.559,9.138,9.138,0,0,1-.649,2.767,7.967,7.967,0,0,0-.1,1.892.464.464,0,0,0,.049.239.442.442,0,0,0,.188.15c.146.077.3.15.442.221a16.538,16.538,0,0,1-3.712.393c-2.188-.051-4.324-.662-6.5-.916a20.586,20.586,0,0,1,.254-2.959,11.993,11.993,0,0,0-.121-1.948,23.625,23.625,0,0,1,.051-5.3c.075-.618.177-1.234.205-1.857.033-.738-.033-1.477.02-2.208.051-.7.221-1.393.238-2.1A.362.362,0,0,0,357.034,398.233Z" transform="translate(785.209 -198.599)" fill="#f4f6fb"/><path d="M285.878,481.556c2.288.013,4.3.079,6.585.236.4.662-.561,2.449-.015,3,3.127,3.133,3.822,7.344,7.452,9.881.753.526,2.871.952,3.533,1.6.519.515-.274.148.11.773,2.208,3.6,7.188,7.161,10.074,10.259,2.447,2.625,3.754,6.128,5.2,9.416a63.73,63.73,0,0,1,1.987,6.136,12.794,12.794,0,0,0,3.147,5.551c1.2,1.117,2.78,1.917,3.489,3.389a14.111,14.111,0,0,1,.519,1.457,7.287,7.287,0,0,0,5.207,4.591c.643.141.349,1.212.415,1.868a2.837,2.837,0,0,0,1.691,1.963,11.851,11.851,0,0,0,3.862,1.3c.83.126,1.811.25,2.208.985a1.649,1.649,0,0,1,.179.835,3.385,3.385,0,0,1-2.871,2.941,9.163,9.163,0,0,1-4.363-.523,1.64,1.64,0,0,0-.779-.1,1.94,1.94,0,0,0-.943.729,6.437,6.437,0,0,1-6.949,1.654,8.926,8.926,0,0,0-2.319-.835c-1.267-.119-2.413.676-3.5,1.325s-2.469,1.206-3.593.609a3.576,3.576,0,0,0-1.1-.561c-.612-.071-1.157.459-1.767.442-.685-.013-1.155-.662-1.612-1.17a5.976,5.976,0,0,0-3.555-1.9,1.67,1.67,0,0,0-.775.022,2.18,2.18,0,0,0-.779.57,3.151,3.151,0,0,1-2.184,1.069c-1.817-.064-2.9-2.632-4.706-2.455-2.358-1.1-5.277-.534-7.863-.221s-5.45.4-7.521-1.175c-1.091-.835-1.831-2.047-2.848-2.972a14.244,14.244,0,0,0-5.867-2.7c-3.312-.945-6.753-1.9-10.157-1.385a7.563,7.563,0,0,1-1.846.161,1.71,1.71,0,0,1-1.464-.985,1.927,1.927,0,0,1-.062-.919c.32-2.5,2.69-4.377,2.992-6.878a7.7,7.7,0,0,1,1.53-3.354,28.923,28.923,0,0,0,1.654-2.851,59.529,59.529,0,0,0,3.246-6.748,58.482,58.482,0,0,0,2.129-7.576c.574-2.466.848-4.993,1.261-7.492.3-1.817.771-3.6,1.241-5.383a93.13,93.13,0,0,1,5.079-15.5A18.359,18.359,0,0,0,285.878,481.556Z" transform="translate(858.829 -266.232)" fill="#e3e8f4"/><path d="M285.878,484.556c2.288.013,4.3-.141,6.585.015a12.866,12.866,0,0,0,1.8,1.972c3.127,3.138,5.45,7.112,9.078,9.647a15.885,15.885,0,0,1,2.208,1.638,9.191,9.191,0,0,1,1.309,1.766c2.208,3.606,3.866,7.618,6.752,10.716,2.447,2.625,3.754,6.128,5.2,9.415a63.728,63.728,0,0,1,1.987,6.136,12.794,12.794,0,0,0,3.147,5.551c1.2,1.117,2.78,1.917,3.489,3.39a14.113,14.113,0,0,1,.519,1.457,7.287,7.287,0,0,0,5.207,4.591c.643.141.349,1.212.415,1.868a2.837,2.837,0,0,0,1.691,1.963,11.85,11.85,0,0,0,3.862,1.3c.83.126,1.811.25,2.208.985a1.65,1.65,0,0,1,.179.835,3.386,3.386,0,0,1-2.871,2.941,9.164,9.164,0,0,1-4.363-.523,1.641,1.641,0,0,0-.779-.1,1.941,1.941,0,0,0-.943.729A6.437,6.437,0,0,1,325.6,552.5a8.933,8.933,0,0,0-2.319-.835c-1.267-.119-2.413.676-3.5,1.325s-2.469,1.206-3.593.609a3.577,3.577,0,0,0-1.1-.561c-.612-.071-1.157.459-1.766.442-.685-.013-1.155-.662-1.612-1.17a5.975,5.975,0,0,0-3.546-1.906,1.67,1.67,0,0,0-.775.022,2.18,2.18,0,0,0-.779.57,3.151,3.151,0,0,1-2.184,1.069c-1.817-.064-2.9-2.632-4.706-2.455-2.358-1.1-5.277-.534-7.863-.221s-5.45.4-7.521-1.175c-1.091-.835-1.831-2.047-2.848-2.972a14.244,14.244,0,0,0-5.867-2.7c-3.312-.945-6.753-1.9-10.157-1.384a7.56,7.56,0,0,1-1.846.161,1.71,1.71,0,0,1-1.464-.985,1.927,1.927,0,0,1-.062-.919c.32-2.5,2.69-4.377,2.992-6.878a7.7,7.7,0,0,1,1.53-3.354,28.909,28.909,0,0,0,1.654-2.851,59.529,59.529,0,0,0,3.246-6.748,58.482,58.482,0,0,0,2.129-7.576c.574-2.466.848-4.993,1.261-7.492.3-1.817.771-3.6,1.241-5.383a93.13,93.13,0,0,1,5.079-15.5A18.359,18.359,0,0,0,285.878,484.556Z" transform="translate(858.829 -268.569)" fill="#e3e8f4"/><path d="M285.878,482.556c2.288.013,4.3-.141,6.585.015a12.868,12.868,0,0,0,1.8,1.972c3.127,3.138,5.45,7.112,9.078,9.647a15.889,15.889,0,0,1,2.208,1.638,9.189,9.189,0,0,1,1.309,1.767c2.208,3.606,3.866,7.618,6.752,10.716,2.447,2.625,3.754,6.128,5.2,9.416a63.728,63.728,0,0,1,1.987,6.136,12.794,12.794,0,0,0,3.147,5.551c1.2,1.117,2.78,1.917,3.489,3.39a14.108,14.108,0,0,1,.519,1.457,7.287,7.287,0,0,0,5.207,4.591c.643.141.349,1.212.415,1.868a2.837,2.837,0,0,0,1.691,1.963,11.85,11.85,0,0,0,3.862,1.3c.83.126,1.811.25,2.208.985a1.65,1.65,0,0,1,.179.835,3.385,3.385,0,0,1-2.871,2.941,9.163,9.163,0,0,1-4.363-.523,1.641,1.641,0,0,0-.779-.1,1.94,1.94,0,0,0-.943.729A6.437,6.437,0,0,1,325.6,550.5a8.931,8.931,0,0,0-2.319-.835c-1.267-.119-2.413.676-3.5,1.325s-2.469,1.206-3.593.609a3.575,3.575,0,0,0-1.1-.561c-.612-.071-1.157.459-1.766.442-.685-.013-1.155-.662-1.612-1.17a5.975,5.975,0,0,0-3.546-1.906,1.67,1.67,0,0,0-.775.022,2.181,2.181,0,0,0-.779.57,3.151,3.151,0,0,1-2.184,1.069c-1.817-.064-2.9-2.632-4.706-2.455-2.358-1.1-5.277-.534-7.863-.221s-5.45.4-7.521-1.175c-1.091-.835-1.831-2.047-2.848-2.972a14.244,14.244,0,0,0-5.867-2.7c-3.312-.945-6.753-1.9-10.157-1.384a7.56,7.56,0,0,1-1.846.161,1.71,1.71,0,0,1-1.464-.985,1.927,1.927,0,0,1-.062-.919c.32-2.5,2.69-4.377,2.992-6.878a7.7,7.7,0,0,1,1.53-3.354,28.923,28.923,0,0,0,1.654-2.851,59.529,59.529,0,0,0,3.246-6.748,58.486,58.486,0,0,0,2.129-7.576c.574-2.466.848-4.993,1.261-7.492.3-1.817.771-3.6,1.241-5.383a93.132,93.132,0,0,1,5.079-15.5A18.358,18.358,0,0,0,285.878,482.556Z" transform="translate(858.829 -267.011)" fill="#f4f6fb"/><path d="M277.387,531.68a2.9,2.9,0,0,0-.137,3.056,11.037,11.037,0,0,1,1.192,2.994c.04.358.018.72.079,1.075.046.256.133.5.2.753a8.49,8.49,0,0,1,.185.967q.351,2.358.477,4.748c.121,2.248.091,4.5.06,6.755-.044,3.151-1.546,6.1-2.277,9.166a7.924,7.924,0,0,0-.252,1.449,9.423,9.423,0,0,0,.192,1.941,31.859,31.859,0,0,1-.386,12.1,2.4,2.4,0,0,1,.965,2.221,8.858,8.858,0,0,0,4.286.042,20.032,20.032,0,0,1,2.429-.949c.662-.122,1.429-.06,1.9-.541a2.015,2.015,0,0,0,.406-.773c1.616-4.7,1.164-9.824,1.073-14.794-.049-2.672,0-5.346-.1-8.016a62.065,62.065,0,0,0-2.226-14.07,24.137,24.137,0,0,0-2.429-6.375,3.329,3.329,0,0,0-1.011-1.139,3.759,3.759,0,0,0-1.559-.413C279.323,531.751,278.513,531.808,277.387,531.68Z" transform="translate(847.405 -306.001)" fill="#3f3d56"/><path d="M286.7,576.674a2.022,2.022,0,0,1-.406.771c-.468.484-1.237.42-1.9.543-.084.015-.168.035-.25.057-.753.2-1.433.645-2.177.883a9,9,0,0,1-4.288-.042,2.4,2.4,0,0,0-.965-2.224,31.848,31.848,0,0,0,.389-12.094,9.274,9.274,0,0,1-.194-1.941,8.087,8.087,0,0,1,.252-1.448c.726-3.067,2.232-6.017,2.277-9.168.031-2.252.062-4.507-.057-6.755q-.13-2.385-.479-4.747a8.98,8.98,0,0,0-.183-.967c-.068-.25-.155-.5-.2-.753-.064-.353-.042-.718-.082-1.075a10.955,10.955,0,0,0-1.192-2.992,4.428,4.428,0,0,1-.344-1.285,2.208,2.208,0,0,1,.481-1.767c.757.084,1.369.082,2.031.11.325.013.662.035,1.031.077a3.688,3.688,0,0,1,1.561.413,3.312,3.312,0,0,1,1.009,1.139c.119.192.232.386.34.583a26.668,26.668,0,0,1,2.089,5.79,62.086,62.086,0,0,1,2.226,14.07c.113,2.67.053,5.344.1,8.018C287.869,566.852,288.319,571.969,286.7,576.674Z" transform="translate(847.405 -305.994)" opacity="0.05"/><path d="M303.728,532.374v1.161q-.015,5.6-.029,11.189a44.377,44.377,0,0,1-.159,4.6c-.391,3.975-1.844,7.823-1.689,11.8a36.183,36.183,0,0,1-.36,8.649c-.221,1.086-.543,2.155-.7,3.253a6.142,6.142,0,0,0,.294,3.277,5.484,5.484,0,0,1,.813,2.208,2.166,2.166,0,0,1-1.044,1.652,4.964,4.964,0,0,1-1.912.638,14.675,14.675,0,0,1-2.546.2c-1.221-.013-2.612-.28-3.244-1.325a3.15,3.15,0,0,1-.188-2.391c.024-.093.049-.183.075-.274.208-.7.5-1.365.662-2.071a5.765,5.765,0,0,0-.236-3.35c-.075-.2-.311-.574-.523-.55a9.007,9.007,0,0,1-.442-2.762l-.311-6.337a16.337,16.337,0,0,1,.15-4.129c.221-1.1.691-2.155.824-3.275a10.834,10.834,0,0,0-.011-2.021,89.714,89.714,0,0,0-1.342-10.319,1.238,1.238,0,0,0-.17-.49c-.146-.2-.4-.3-.579-.475-.375-.367-.34-.965-.428-1.484a7.9,7.9,0,0,0-1.259-2.53,9.274,9.274,0,0,1-1.243-4.321,9.064,9.064,0,0,1,.174-2.144c.018-.095.04-.19.062-.285a57.743,57.743,0,0,1,14.384.883,1.174,1.174,0,0,1,.9.477A1.194,1.194,0,0,1,303.728,532.374Z" transform="translate(838.522 -304.964)" fill="#3f3d56"/><path d="M470.048,597.792a128.01,128.01,0,0,1,6.651,12.8c1.535,3.588,2.793,7.41,5.368,10.343,2.411,2.745,5.741,4.458,9.011,6.108l-2.928-2.579c-2.939-2.595-5.94-5.262-7.806-8.709a49.782,49.782,0,0,1-2.429-5.927,54.35,54.35,0,0,0-8.088-14.273A40.267,40.267,0,0,0,466.78,592,44.41,44.41,0,0,0,470.048,597.792Z" transform="translate(699.313 -353.002)" fill="#e3e8f4"/><path d="M421.143,729.884a17.741,17.741,0,0,0,2.535,4.182,3.224,3.224,0,0,0-.8-2,17.114,17.114,0,0,1-1.585-3.641,10.609,10.609,0,0,0-1.63-3.674C419.224,726.322,420.48,728.533,421.143,729.884Z" transform="translate(736.098 -456.439)" fill="#e3e8f4"/><path d="M370.165,581.9c.208,1.1.329,2.208.607,3.288a23.445,23.445,0,0,0,1,2.849l4.655,11.6c-.04-1.577-.883-3-1.42-4.482-.662-1.817-.9-3.754-1.442-5.622-.442-1.515-1.082-2.961-1.546-4.469-.645-2.126-.916-4.348-1.422-6.512a47.631,47.631,0,0,0-1.707-5.52,5.382,5.382,0,0,0-1.345-2.327,1.894,1.894,0,0,0-2.471-.119c-.908.9.468,1.462.921,2.047a21.954,21.954,0,0,1,4.16,9.274Z" transform="translate(778.793 -335.998)" fill="#e3e8f4"/><path d="M405.512,504.762a4.232,4.232,0,0,1,.64.83,11.4,11.4,0,0,0,.662,1.422,13.893,13.893,0,0,0-1.881-2.138c-.424-.364-.883-.678-1.309-1.042-.325-.278-1.747-1.484-1.464-1.895A13.171,13.171,0,0,1,405.512,504.762Z" transform="translate(749.693 -282.828)" fill="#e3e8f4"/><path d="M317.988,316.393a3.177,3.177,0,0,1-.572,1.245,7.969,7.969,0,0,0-1.137,3.853,7.728,7.728,0,0,0,.053,1.195c.018.148.022.333-.106.411a.371.371,0,0,1-.221.029c-.15-.013-.3-.031-.442-.055-2.36-.378-4.427-1.987-6.8-2.394a1.135,1.135,0,0,0,.607-.718,3.228,3.228,0,0,0,.144-.548c.035-.2.062-.393.082-.585a25.448,25.448,0,0,0-.146-4.173c-.091-1.683,1.987-1.128,3.206-1.15a10.107,10.107,0,0,1,2.919.232,3.424,3.424,0,0,1,2.25,1.742A1.766,1.766,0,0,1,317.988,316.393Z" transform="translate(822.44 -135.945)" fill="#cb8c8e"/><path d="M318.369,341.774a.371.371,0,0,1-.221.029c-.15-.013-.3-.031-.442-.055-.2-.19-.4-.389-.587-.6a12.9,12.9,0,0,0-1.351-1.446,4.69,4.69,0,0,0-2.76-.985,9.084,9.084,0,0,1-1.5-.084,3.227,3.227,0,0,0,.144-.548c.035-.2.062-.393.082-.585a7.412,7.412,0,0,1,.835-.06,4.011,4.011,0,0,1,.989-.02,5.05,5.05,0,0,1,1.517.64,18.064,18.064,0,0,1,2.034,1.051c.194.137.38.287.565.442.252.205.5.413.753.616a7.725,7.725,0,0,0,.053,1.195C318.492,341.509,318.5,341.7,318.369,341.774Z" transform="translate(820.297 -154.623)" fill="#e3e8f4"/><path d="M295.405,532.366v1.161c-.919.026-1.857.161-2.771.221-.859.062-1.72.064-2.581.053a7.493,7.493,0,0,1-2-.221c-.47-.137-.912-.362-1.38-.5a6.646,6.646,0,0,0-2.749-.128c-.76.088-1.526.221-2.283.289a3.065,3.065,0,0,1-1.457-.15,2.7,2.7,0,0,1-.375-.208,5.127,5.127,0,0,0-.583-.338,3.453,3.453,0,0,0-1.755-.146,2.208,2.208,0,0,1,.481-1.766c.757.084,1.369.082,2.031.11.018-.095.04-.19.062-.285a57.745,57.745,0,0,1,14.384.883,1.174,1.174,0,0,1,.9.477A1.2,1.2,0,0,1,295.405,532.366Z" transform="translate(846.844 -304.956)" opacity="0.1"/><path d="M278.528,341.2a1.946,1.946,0,0,0-1.3.548.663.663,0,0,0-.166.355,2.975,2.975,0,0,0,.119.609,1.424,1.424,0,0,1-.2.76,5.911,5.911,0,0,1-1.2,1.835c-.221.205-.473.375-.7.576a6.157,6.157,0,0,0-.7.782,5.077,5.077,0,0,0-1.115,1.921c-.3,1.261-.919,2.451-1.325,3.683a7.966,7.966,0,0,0-.442,3.82c.1.605.314,1.186.459,1.782.234.956.3,1.945.548,2.9.157.594.382,1.168.552,1.766a9.623,9.623,0,0,1,.294,3.95c-.166,1.208.113,2.493-.375,3.608a13.624,13.624,0,0,1-.662,1.2,16.762,16.762,0,0,0-.832,1.767l-1.362,3.215a18.669,18.669,0,0,0-.713,1.855,17.106,17.106,0,0,0-.49,5.741.243.243,0,0,1-.038.172c-.042.044-.137.031-.139-.029-.018.11-.088.3-.1.413,1.159.5,2.586-.258,3.741.256.336.15.621.4.958.545a3.038,3.038,0,0,0,1.457.152c1.685-.139,3.414-.662,5.03-.163.47.144.91.369,1.38.506a7.52,7.52,0,0,0,2,.221c.861.013,1.722.011,2.581-.053,1.848-.135,3.789-.539,5.492.194a1.976,1.976,0,0,0,.614-1.711l.124-3.84.457-14.121a14.131,14.131,0,0,0-.108-2.915,13.946,13.946,0,0,0-2.208-4.812l-4.392-7.066c-.291-.468,0-.991.2-1.506a9.75,9.75,0,0,0,.565-2.292,2.056,2.056,0,0,0-.325-1.654,7.077,7.077,0,0,0-.784-.583,3.647,3.647,0,0,1-.808-1.128,7.287,7.287,0,0,0-2.581-2.69A5.46,5.46,0,0,0,278.528,341.2Z" transform="translate(853.701 -157.534)" fill="#3f3d56"/><path d="M322.129,368.727c-1.561.431-2.528,2.016-2.957,3.577a13.519,13.519,0,0,0,.075,6.717,37.671,37.671,0,0,0,2.352,6.359,15.269,15.269,0,0,0,.724,1.479,7.086,7.086,0,0,0,3.242,2.943,5.988,5.988,0,0,0,4.343.192,2.552,2.552,0,0,0,.729-.371,3.52,3.52,0,0,0,.961-2.7l.2-3.451a1.737,1.737,0,0,0-.027-.545,1.986,1.986,0,0,0-.4-.662,8.254,8.254,0,0,1-1.413-2.809,14.287,14.287,0,0,0-.616-2.131c-.185-.406-.442-.777-.643-1.177a11.256,11.256,0,0,1-.806-2.767q-.272-1.232-.649-2.44a4.112,4.112,0,0,0-.563-1.252,4.259,4.259,0,0,0-2.683-1.325,3.092,3.092,0,0,0-1.453-.071,3.212,3.212,0,0,0-1.358.969" transform="translate(814.631 -178.652)" opacity="0.1"/><path d="M323.129,367.727c-1.561.431-2.528,2.016-2.957,3.577a13.519,13.519,0,0,0,.075,6.717,37.671,37.671,0,0,0,2.352,6.359,15.28,15.28,0,0,0,.724,1.479,7.086,7.086,0,0,0,3.242,2.943,5.989,5.989,0,0,0,4.343.192,2.554,2.554,0,0,0,.729-.371,3.52,3.52,0,0,0,.961-2.7l.2-3.451a1.738,1.738,0,0,0-.026-.545,1.988,1.988,0,0,0-.4-.662,8.253,8.253,0,0,1-1.413-2.809,14.287,14.287,0,0,0-.616-2.131c-.185-.406-.442-.777-.643-1.177a11.256,11.256,0,0,1-.806-2.767q-.272-1.232-.649-2.44a4.111,4.111,0,0,0-.563-1.252,4.259,4.259,0,0,0-2.683-1.325,3.091,3.091,0,0,0-1.453-.071,3.212,3.212,0,0,0-1.358.969" transform="translate(813.852 -177.873)" fill="#3f3d56"/><path d="M402.123,398a5.2,5.2,0,0,1-.291-3.734c.866.221,1.1,1.5,1.987,1.725.13.033.269.04.4.068a2.268,2.268,0,0,1,1.376,1.215,6.533,6.533,0,0,1,.919,2.791,4.675,4.675,0,0,1-.662,2.837c.022-.033-1.546-1.641-1.678-1.806q-.413-.484-.808-.987a7.083,7.083,0,0,1-.744-1c-.075-.141-.091-.3-.157-.455C402.361,398.435,402.231,398.223,402.123,398Z" transform="translate(750.09 -198.933)" fill="#cb8c8e"/><path d="M320.773,420.534a9.647,9.647,0,0,1-2.745,5.6,1.656,1.656,0,0,1-1.232.616c-.51-.053-.861-.517-1.225-.883a23.763,23.763,0,0,0-2.281-1.636,11.631,11.631,0,0,1-1.078-1.009,25.091,25.091,0,0,1-3.034-3.5,19.933,19.933,0,0,0-1.484-2.155c-.457-.519-1.007-.947-1.488-1.442a3.458,3.458,0,0,1-1.02-1.766c-.121-.72-.883-1.188-1.362-1.74a6.13,6.13,0,0,1-1.336-5.118,1.174,1.174,0,0,1,.609-.947.987.987,0,0,1,.455-.029,3.886,3.886,0,0,1,2.226,1.627,13.608,13.608,0,0,1,1.137,1.5,13.333,13.333,0,0,1,1.4,3.95c.192.8.987,1.387,1.559,1.974l1.435,1.473c.342.351.685.7,1.06,1.02a13.776,13.776,0,0,0,3.489,1.987,4.427,4.427,0,0,1,.486-1.131,1.468,1.468,0,0,1,.989-.662,2.219,2.219,0,0,1,1.546.662l1.689,1.325C320.662,420.335,320.786,420.419,320.773,420.534Z" transform="translate(827.415 -208.475)" fill="#fbbebe"/><path d="M373.587,408.44a2.443,2.443,0,0,1,.484.764,5.017,5.017,0,0,1,.492,2.493,7.444,7.444,0,0,1-.3,1.362l-.526,1.808a84.276,84.276,0,0,1-2.74,8.32c-.908-1.177-2.5-1.532-3.785-2.268a1.067,1.067,0,0,1-.333-.258.949.949,0,0,1-.166-.565,4.224,4.224,0,0,1,.349-1.577c.8-2.157,1.919-4.264,2.049-6.56a12.346,12.346,0,0,1,.082-1.279,3.626,3.626,0,0,1,1.7-2.451A2.374,2.374,0,0,1,373.587,408.44Z" transform="translate(777.288 -209.56)" opacity="0.1"/><path d="M372.587,406.148a2.466,2.466,0,0,1,.484.764,5.017,5.017,0,0,1,.492,2.493,7.409,7.409,0,0,1-.3,1.38l-.526,1.808a84.276,84.276,0,0,1-2.74,8.32c-.908-1.175-2.5-1.532-3.785-2.268a1.059,1.059,0,0,1-.333-.256.961.961,0,0,1-.166-.565,4.227,4.227,0,0,1,.349-1.579c.8-2.157,1.919-4.262,2.049-6.56a12.253,12.253,0,0,1,.082-1.276,3.624,3.624,0,0,1,1.7-2.453A2.364,2.364,0,0,1,372.587,406.148Z" transform="translate(778.067 -207.78)" fill="#f4f6fb"/><path d="M352.831,324.855a3.055,3.055,0,0,1,.638,1.793,11.756,11.756,0,0,1-.322,4.964A5.975,5.975,0,0,1,350,335.318c2.137.347,4.677.563,6.125-1.049a4.659,4.659,0,0,1,.872-.919c1.535-.967,3.482,1.583,5.147.859,1.1-.477,1.184-1.97,1.1-3.162l-.3-4.416c-.155-2.254-.351-4.637-1.643-6.483a9.571,9.571,0,0,0-5.017-3.312,6.4,6.4,0,0,0-4.308-.172c-1.733.711-5.079,3.551-5.059,5.651C346.957,325.434,351.374,323.314,352.831,324.855Z" transform="translate(792.707 -138.223)" fill="#3f3d56"/><path d="M363.659,414.734a2.209,2.209,0,0,0,.733-.095c.375-.139.662-.488,1.067-.545.2-.029.464,0,.552-.192a.764.764,0,0,0,.029-.276c.031-.537.7-.722,1.159-1.009a3.4,3.4,0,0,0,.753-.724l1.568-1.853a1.175,1.175,0,0,1,.6-.453,1.064,1.064,0,0,1,.775.221,6.057,6.057,0,0,1,2.676,5.618.951.951,0,0,1-.115.431c-.245.384-.821.291-1.256.428-.832.261-1.086,1.34-1.8,1.842-.32.221-.715.316-1.027.545a6.987,6.987,0,0,0-.832.943,5.258,5.258,0,0,1-1.676,1.1l-1.848.9a7.256,7.256,0,0,1-1.133.473,7.139,7.139,0,0,1-2.058.174l-1.354-.018a.8.8,0,0,1-.442-.088.74.74,0,0,1-.2-.221,4.858,4.858,0,0,1-.59-3.624,7.212,7.212,0,0,1,1.415-3.2C361.288,414.445,362.785,414.752,363.659,414.734Z" transform="translate(783.195 -210.863)" fill="#3f3d56"/><path d="M309.627,277.769a1,1,0,0,1,.51-1.073l1.678-1.261-.344-.5.647-.554a.47.47,0,0,0-.477-.185c.1-.682-.481-1.259-1.036-1.665a7.508,7.508,0,0,0-3.811-1.605c-.678-.044-1.358.053-2.036,0-.914-.057-1.8-.367-2.718-.4a2.423,2.423,0,0,0-2.33,1.148,10.88,10.88,0,0,0-.309,1.135,5.605,5.605,0,0,1-1.625,2.009,2.692,2.692,0,0,0-1.025,2.283,3.008,3.008,0,0,0,.316.784l3.423,6.609a1.522,1.522,0,0,1,1.15-.793,7.14,7.14,0,0,1,1.674.256,2.65,2.65,0,0,0,2.277-.883c.755-.87.938-3.091,2.25-3.312.464-.079,1.206.506,1.61.274C309.925,279.772,309.635,278.259,309.627,277.769Z" transform="translate(831.821 -102.509)" fill="#3f3d56"/><g transform="translate(1139.615 178.221)" opacity="0.1"><path d="M351.286,334.957a6,6,0,0,0,3.147-3.707,11.726,11.726,0,0,0,.322-4.964,3.04,3.04,0,0,0-.638-1.793c-1.457-1.546-5.874.579-5.913-2.526-.024-1.791,2.411-4.118,4.2-5.207a4.047,4.047,0,0,0-.47.157c-1.733.711-5.079,3.553-5.059,5.651.04,3.1,4.456.987,5.913,2.528a3.05,3.05,0,0,1,.638,1.793,11.745,11.745,0,0,1-.322,4.962,5.985,5.985,0,0,1-3.147,3.707c1.886.3,4.083.508,5.569-.554A10.7,10.7,0,0,1,351.286,334.957Z" transform="translate(-346.87 -316.76)"/><path d="M397.056,389.466a1.96,1.96,0,0,0-.426.384c1.354.088,2.893,1.665,4.248,1.075a1.524,1.524,0,0,0,.6-.473C400,390.4,398.374,388.636,397.056,389.466Z" transform="translate(-385.642 -373.238)"/></g><g transform="translate(1128.621 170.687)" opacity="0.1"><path d="M363.165,282.784c-.033-.049-.068-.1-.1-.144a1.241,1.241,0,0,1-.011.152A.5.5,0,0,1,363.165,282.784Z" transform="translate(-348.483 -282.64)"/><path d="M312.455,285.592a.47.47,0,0,0-.477-.185,1.071,1.071,0,0,0-.044-.5l-.457.391.344.5-1.678,1.263a1,1,0,0,0-.51,1.073c0,.49.3,2-.179,2.274-.4.232-1.146-.353-1.608-.274-1.312.221-1.495,2.429-2.25,3.312a2.65,2.65,0,0,1-2.277.883,7.145,7.145,0,0,0-1.674-.254,1.53,1.53,0,0,0-1.153.793l-3.414-6.6v.049a3.089,3.089,0,0,0,.318.784l3.418,6.6a1.53,1.53,0,0,1,1.153-.793,7.138,7.138,0,0,1,1.674.256,2.65,2.65,0,0,0,2.277-.883c.755-.87.938-3.091,2.25-3.312.461-.079,1.206.506,1.608.274.477-.272.188-1.784.179-2.274a1.345,1.345,0,0,1,.1-.662,1.325,1.325,0,0,1,.413-.417l1.678-1.261-.344-.5Z" transform="translate(-297.08 -284.409)"/></g><path d="M272.9,485.83c-.221.943-.36,1.906-.662,2.826-.133.415-.3.819-.426,1.234-.117.378-.205.76-.3,1.144l-.36,1.546a.7.7,0,0,0,.548-.309,2.091,2.091,0,0,0,.272-.592l.6-1.793.442-1.325c.627-1.866,1.256-3.736,1.733-5.648.119-.473.221-.945.325-1.422.04-.183.329-1.206.033-1.12-.21.06-.565.991-.662,1.195-.221.406-.4.821-.581,1.243A18.389,18.389,0,0,0,272.9,485.83Z" transform="translate(851.738 -266.019)" opacity="0.1"/><path d="M326.833,392.055s-1-.36-1.243.068c0,0,1.815.662,2.182,1.616,0,0,.468-.481-.172-1.093l-.119-.9Z" transform="translate(809.326 -196.97)" fill="#00a66c"/><path d="M332.594,385.192s.055-.455-.174-.5a1.407,1.407,0,0,0-1.535,1.766c.25,1.725,2.047,1.078,2.047,1.078l.788-.919a1.361,1.361,0,0,0-.936-1.51Z" transform="translate(805.222 -191.46)" fill="#6c63ff"/><path d="M329.952,382.76a1.811,1.811,0,0,0-.7,2.4l.51-.3S330.4,383.376,329.952,382.76Z" transform="translate(806.612 -189.965)" opacity="0.1"/><path d="M329.739,382.6a1.811,1.811,0,0,0-.7,2.4l.4.232S330.192,383.216,329.739,382.6Z" transform="translate(806.776 -189.84)" fill="#6c63ff"/><path d="M336.433,390.509a1.175,1.175,0,0,0,.415.6c.318.221-.316.731-.316.731s-.857.974-1.667.5c-.484-.815-.119-.927-.119-.927S335.757,390.3,336.433,390.509Z" transform="translate(802.295 -195.983)" opacity="0.1"/><path d="M336.067,390.719a1.175,1.175,0,0,0,.415.6c.316.221-.318.731-.318.731s-.855.974-1.667.5-.119-.925-.119-.925S335.38,390.511,336.067,390.719Z" transform="translate(802.694 -196.146)" fill="#6c63ff"/><path d="M325.807,380.425s-1,.349-.923.837c0,0,1.828-.627,2.714-.117,0,0,.06-.662-.821-.742l-.662-.623Z" transform="translate(809.88 -187.643)" fill="#5f3839"/><path d="M327.067,372.119s-.243-.389-.442-.283a1.411,1.411,0,0,0-.084,2.334c1.274,1.179,2.27-.442,2.27-.442l.022-1.21a1.36,1.36,0,0,0-1.678-.583Z" transform="translate(809.044 -181.438)" fill="#6c63ff"/><path d="M323.578,373.49a1.81,1.81,0,0,0,.974,2.307l.21-.55S324.311,373.687,323.578,373.49Z" transform="translate(810.987 -182.742)" opacity="0.1"/><path d="M323.281,373.5a1.813,1.813,0,0,0,.974,2.307l.453-.068S324.02,373.694,323.281,373.5Z" transform="translate(811.219 -182.75)" fill="#6c63ff"/><path d="M333.85,373.41a1.184,1.184,0,0,0,.7.208c.389-.024.221.766.221.766s-.053,1.3-.983,1.438c-.883-.329-.676-.645-.676-.645S333.195,373.675,333.85,373.41Z" transform="translate(803.48 -182.68)" opacity="0.1"/><path d="M334.041,373.51a1.177,1.177,0,0,0,.7.208c.389-.024.221.766.221.766s-.051,1.3-.98,1.438-.676-.645-.676-.645S333.385,373.775,334.041,373.51Z" transform="translate(803.337 -182.758)" fill="#6c63ff"/><path d="M309.59,384.213s.318-.278.492.088l-.148.821-.912,8.135-.583,1.067Z" transform="translate(822.69 -191.018)" fill="#00a66c"/><path d="M284.41,277.62l-3.82,12.41.347.192,3.789-12.52Z" transform="translate(850.573 -86.318)" fill="#00a66c"/><path d="M312.05,401.48a18.732,18.732,0,0,1-1.8,4.531,3.385,3.385,0,0,0-.766,2.363l.309.095,2.539-6.764Z" transform="translate(821.888 -204.551)" fill="#00a66c"/><path d="M288.07,290.19l-5.45,9.491.261.141,5.62-9.563Z" transform="translate(848.991 -96.112)" fill="#00a66c"/><path d="M288.8,301.54l-6.788,7.075.2.263,6.874-7.179Z" transform="translate(849.466 -104.956)" fill="#00a66c"/><path d="M319.08,401.129s-.091-.4-.4-.322-6.3,6.737-6.3,6.737l.254.2Z" transform="translate(819.62 -204.019)" fill="#00a66c"/><path d="M308.87,380.448s-1.025.278-.976.771c0,0,1.866-.5,2.714.071,0,0,.106-.662-.768-.8l-.614-.662Z" transform="translate(823.116 -187.682)" fill="#00a66c"/><path d="M310.723,372.123s-.221-.4-.431-.311a1.408,1.408,0,0,0-.247,2.321c1.188,1.263,2.3-.292,2.3-.292l.117-1.206a1.361,1.361,0,0,0-1.634-.7Z" transform="translate(821.837 -181.423)" fill="#6c63ff"/><path d="M307.276,373.09a1.81,1.81,0,0,0,.81,2.369l.247-.534S308,373.335,307.276,373.09Z" transform="translate(823.728 -182.43)" opacity="0.1"/><path d="M307.006,373.08a1.81,1.81,0,0,0,.81,2.369l.457-.035S307.73,373.325,307.006,373.08Z" transform="translate(823.938 -182.422)" fill="#6c63ff"/><path d="M317.249,373.88a1.181,1.181,0,0,0,.687.247c.389,0,.159.779.159.779s-.141,1.29-1.078,1.367c-.863-.389-.629-.691-.629-.691S316.578,374.1,317.249,373.88Z" transform="translate(816.519 -183.046)" opacity="0.1"/><path d="M317.391,374a1.192,1.192,0,0,0,.687.256c.389,0,.159.779.159.779s-.141,1.287-1.078,1.365-.629-.689-.629-.689S316.72,374.221,317.391,374Z" transform="translate(816.423 -183.139)" fill="#6c63ff"/><path d="M320.693,371.818s-1.025.278-.978.771c0,0,1.866-.5,2.714.068,0,0,.108-.662-.768-.795l-.614-.662Z" transform="translate(813.906 -180.958)" fill="#00a66c"/><path d="M322.543,363.513s-.221-.4-.431-.311a1.408,1.408,0,0,0-.247,2.321c1.188,1.263,2.3-.291,2.3-.291l.117-1.206a1.361,1.361,0,0,0-1.634-.7Z" transform="translate(812.627 -174.714)" fill="#6c63ff"/><path d="M319.1,364.48a1.81,1.81,0,0,0,.81,2.369l.247-.534S319.827,364.725,319.1,364.48Z" transform="translate(814.518 -175.721)" opacity="0.1"/><path d="M318.829,364.47a1.812,1.812,0,0,0,.81,2.369l.457-.038S319.553,364.715,318.829,364.47Z" transform="translate(814.725 -175.714)" fill="#6c63ff"/><path d="M329.073,365.27a1.173,1.173,0,0,0,.685.254c.389,0,.159.779.159.779s-.141,1.29-1.078,1.367c-.861-.391-.629-.691-.629-.691S328.4,365.489,329.073,365.27Z" transform="translate(807.307 -176.337)" opacity="0.1"/><path d="M329.214,365.38a1.173,1.173,0,0,0,.685.254c.389,0,.159.779.159.779s-.141,1.29-1.078,1.367-.629-.691-.629-.691S328.54,365.6,329.214,365.38Z" transform="translate(807.213 -176.423)" fill="#6c63ff"/><path d="M329.753,384.925s-1-.36-1.243.068c0,0,1.815.662,2.184,1.616,0,0,.468-.481-.172-1.093l-.119-.9Z" transform="translate(807.051 -191.414)" fill="#00a66c"/><path d="M335.484,378.032s.055-.455-.174-.5a1.417,1.417,0,0,0-1.546,1.767c.236,1.725,2.049,1.078,2.049,1.078l.788-.919a1.364,1.364,0,0,0-.938-1.51Z" transform="translate(802.977 -185.881)" fill="#6c63ff"/><path d="M332.906,375.64a1.809,1.809,0,0,0-.7,2.4l.508-.3S333.348,376.256,332.906,375.64Z" transform="translate(804.309 -184.417)" opacity="0.1"/><path d="M332.662,375.48a1.811,1.811,0,0,0-.7,2.4l.4.232S333.112,376.1,332.662,375.48Z" transform="translate(804.5 -184.292)" fill="#6c63ff"/><path d="M339.356,383.389a1.192,1.192,0,0,0,.415.6c.318.221-.316.731-.316.731s-.857.974-1.667.5c-.481-.813-.119-.927-.119-.927S338.68,383.181,339.356,383.389Z" transform="translate(800.017 -190.435)" opacity="0.1"/><path d="M338.958,383.6a1.186,1.186,0,0,0,.415.6c.318.221-.316.729-.316.729s-.857.974-1.667.5-.119-.927-.119-.927S338.282,383.391,338.958,383.6Z" transform="translate(800.439 -190.599)" fill="#6c63ff"/><path d="M337.011,397.175s-1-.36-1.241.071c0,0,1.813.662,2.182,1.616,0,0,.468-.484-.172-1.093l-.119-.9Z" transform="translate(801.394 -200.959)" fill="#00a66c"/><path d="M342.771,390.281s.055-.455-.174-.5a1.406,1.406,0,0,0-1.532,1.766c.25,1.727,2.047,1.08,2.047,1.08l.788-.921a1.361,1.361,0,0,0-.938-1.508Z" transform="translate(797.29 -195.428)" fill="#6c63ff"/><path d="M340.126,387.88a1.811,1.811,0,0,0-.7,2.407l.508-.3S340.579,388.5,340.126,387.88Z" transform="translate(798.683 -193.954)" opacity="0.1"/><path d="M339.9,387.72a1.811,1.811,0,0,0-.7,2.4l.4.232S340.355,388.336,339.9,387.72Z" transform="translate(798.859 -193.83)" fill="#6c63ff"/><path d="M346.578,395.629a1.19,1.19,0,0,0,.413.6c.318.221-.316.729-.316.729s-.857.974-1.667.5c-.481-.815-.119-.927-.119-.927S345.916,395.421,346.578,395.629Z" transform="translate(794.391 -199.972)" opacity="0.1"/><path d="M346.208,395.849a1.175,1.175,0,0,0,.415.6c.318.221-.316.731-.316.731s-.857.974-1.667.5-.119-.927-.119-.927S345.532,395.641,346.208,395.849Z" transform="translate(794.79 -200.143)" fill="#6c63ff"/><path d="M337.923,401.285s-1-.36-1.243.071c0,0,1.815.662,2.182,1.616,0,0,.47-.484-.17-1.093l-.121-.9Z" transform="translate(800.685 -204.162)" fill="#00a66c"/><path d="M343.685,394.389s.055-.453-.174-.5a1.407,1.407,0,0,0-1.535,1.766c.247,1.727,2.047,1.08,2.047,1.08l.788-.919a1.361,1.361,0,0,0-.936-1.51Z" transform="translate(796.579 -198.629)" fill="#6c63ff"/><path d="M341.05,392a1.805,1.805,0,0,0-.693,2.4l.51-.3S341.5,392.614,341.05,392Z" transform="translate(797.963 -197.165)" opacity="0.1"/><path d="M340.829,391.83a1.811,1.811,0,0,0-.7,2.4l.4.234S341.288,392.446,340.829,391.83Z" transform="translate(798.135 -197.032)" fill="#6c63ff"/><path d="M347.522,399.739a1.186,1.186,0,0,0,.415.6c.318.221-.316.729-.316.729s-.857.976-1.667.5c-.484-.815-.119-.927-.119-.927S346.847,399.531,347.522,399.739Z" transform="translate(793.654 -203.175)" opacity="0.1"/><path d="M347.125,399.959a1.175,1.175,0,0,0,.415.6c.318.221-.318.731-.318.731s-.855.974-1.665.5-.121-.927-.121-.927S346.452,399.751,347.125,399.959Z" transform="translate(794.076 -203.346)" fill="#6c63ff"/><path d="M315.9,398.6s-1-.362-1.243.068c0,0,1.815.662,2.182,1.616,0,0,.468-.481-.172-1.093l-.119-.9Z" transform="translate(817.843 -202.066)" fill="#00a66c"/><path d="M321.664,391.7s.055-.453-.174-.5a1.407,1.407,0,0,0-1.535,1.766c.25,1.725,2.047,1.08,2.047,1.08l.788-.919a1.361,1.361,0,0,0-.936-1.51Z" transform="translate(813.738 -196.533)" fill="#6c63ff"/><path d="M319.044,389.31a1.807,1.807,0,0,0-.689,2.4l.51-.3S319.494,389.926,319.044,389.31Z" transform="translate(815.106 -195.069)" opacity="0.1"/><path d="M318.809,389.15a1.809,1.809,0,0,0-.7,2.4l.4.221S319.273,389.766,318.809,389.15Z" transform="translate(815.293 -194.944)" fill="#6c63ff"/><path d="M325.5,397.049a1.177,1.177,0,0,0,.415.6c.318.221-.316.731-.316.731s-.857.974-1.667.5c-.484-.815-.119-.927-.119-.927S324.827,396.841,325.5,397.049Z" transform="translate(810.812 -201.079)" opacity="0.1"/><path d="M325.067,397.269a1.174,1.174,0,0,0,.415.6c.316.221-.318.731-.318.731s-.855.974-1.667.5-.119-.927-.119-.927S324.4,397.061,325.067,397.269Z" transform="translate(811.265 -201.25)" fill="#6c63ff"/><path d="M318.373,385.127s-1-.362-1.243.068c0,0,1.815.662,2.182,1.616,0,0,.468-.481-.172-1.093l-.119-.9Z" transform="translate(815.918 -191.57)" fill="#00a66c"/><path d="M324.1,378.189s.055-.442-.174-.5a1.412,1.412,0,0,0-1.546,1.767c.238,1.725,2.047,1.08,2.047,1.08l.788-.919a1.364,1.364,0,0,0-.938-1.51Z" transform="translate(811.845 -186.003)" fill="#6c63ff"/><path d="M321.489,375.84a1.809,1.809,0,0,0-.7,2.4l.51-.3S321.942,376.456,321.489,375.84Z" transform="translate(813.205 -184.573)" opacity="0.1"/><path d="M321.276,375.68a1.807,1.807,0,0,0-.7,2.4l.393.232S321.729,376.3,321.276,375.68Z" transform="translate(813.371 -184.448)" fill="#6c63ff"/><path d="M327.973,383.579a1.186,1.186,0,0,0,.415.6c.318.221-.316.731-.316.731s-.857.974-1.667.5c-.484-.815-.119-.927-.119-.927S327.295,383.371,327.973,383.579Z" transform="translate(808.887 -190.583)" opacity="0.1"/><path d="M327.568,383.807a1.175,1.175,0,0,0,.415.6c.318.221-.316.731-.316.731s-.857.974-1.667.5-.119-.927-.119-.927S326.892,383.611,327.568,383.807Z" transform="translate(809.314 -190.762)" fill="#6c63ff"/><path d="M306.184,406.58s2.736.3,4.222,5.061-3.189,1.2-3.189,1.2-1.232.247-1.424-2.237A10.131,10.131,0,0,1,306.184,406.58Z" transform="translate(824.782 -208.525)" fill="#fbbebe"/><rect width="1.02" height="0.303" rx="0.151" transform="translate(1130.476 201.899) rotate(-23.92)" fill="#e3e8f4"/><path d="M245.835,322.448l-.442-.4c-1.585-1.457-2.634-2.4-2.634-3.582a1.676,1.676,0,0,1,1.7-1.7,1.822,1.822,0,0,1,1.387.651,1.815,1.815,0,0,1,1.387-.651,1.676,1.676,0,0,1,1.694,1.7c0,1.179-1.047,2.124-2.634,3.582Z" transform="translate(873.867 -138.538)" fill="#6c63ff" opacity="0.1"/><path d="M217.917,208.988l-.442-.4c-1.588-1.455-2.637-2.4-2.637-3.579a1.676,1.676,0,0,1,1.7-1.7,1.822,1.822,0,0,1,1.387.651,1.82,1.82,0,0,1,1.387-.651A1.676,1.676,0,0,1,221,205c0,1.177-1.047,2.124-2.634,3.579Z" transform="translate(895.622 -50.132)" fill="#6c63ff" opacity="0.1"/><path d="M427.365,263.378l-.442-.4c-1.588-1.455-2.634-2.4-2.634-3.579a1.676,1.676,0,0,1,1.694-1.7,1.8,1.8,0,0,0,2.773,0,1.676,1.676,0,0,1,1.7,1.7c0,1.177-1.049,2.124-2.634,3.579Z" transform="translate(732.422 -92.512)" fill="#6c63ff" opacity="0.1"/><path d="M844.545,268.149a1.158,1.158,0,0,0-1.884,1.345c.221.325.453.64.676.941,2.72,3.672,4.129,8.13,5.344,12.536a5.919,5.919,0,0,1,.245,3.312,20.658,20.658,0,0,0-.563-8.629,53.4,53.4,0,0,0-3.054-8.148A7.314,7.314,0,0,0,844.545,268.149Z" transform="translate(406.594 -100.291)" fill="#7f7f7f" opacity="0.5"/><path d="M766.711,304.8c-1.835-.055-2.067,2.727-.241,2.871.479.038.963.049,1.422.062,5.617.152,10.93,2.19,16.033,4.381a6.946,6.946,0,0,1,3.312,2.29,24.118,24.118,0,0,0-8.554-6.059,63.242,63.242,0,0,0-10.087-3.259A8.732,8.732,0,0,0,766.711,304.8Z" transform="translate(466.779 -129.217)" fill="#7f7f7f"/><path d="M771.682,335.765c-1.157.044-.9,1.689.269,1.7.3,0,.609-.011.9-.024,3.533-.144,7.172.835,10.692,1.91a5.459,5.459,0,0,1,2.4,1.21,19.3,19.3,0,0,0-6.249-3.208,47.482,47.482,0,0,0-6.8-1.495A6.237,6.237,0,0,0,771.682,335.765Z" transform="translate(462.32 -153.346)" fill="#7f7f7f" opacity="0.2"/><path d="M879.923,421.419c.329,1.1,1.857.442,1.579-.682-.073-.3-.163-.587-.247-.866-1.018-3.4-.969-7.154-.8-10.831a5.458,5.458,0,0,1,.574-2.63,19.294,19.294,0,0,0-1.557,6.845,47.763,47.763,0,0,0,.239,6.958A6.184,6.184,0,0,0,879.923,421.419Z" transform="translate(377.788 -208.393)" fill="#7f7f7f" opacity="0.5"/><path d="M781.936,262.8c-.7-.121-.751.894-.055,1.049.183.04.367.071.541.1a20.078,20.078,0,0,1,6.143,2.5,3.344,3.344,0,0,1,1.283,1.029,11.736,11.736,0,0,0-3.325-2.709,28.858,28.858,0,0,0-3.871-1.767A3.646,3.646,0,0,0,781.936,262.8Z" transform="translate(454.177 -96.489)" fill="#7f7f7f" opacity="0.2"/><path d="M732.329,372.471c-1.767.912-.274,3.412,1.546,2.581.475-.221.941-.459,1.382-.691,5.408-2.8,11.69-3.836,17.866-4.637a8.746,8.746,0,0,1,4.536.236,30.658,30.658,0,0,0-11.827-.711,77.594,77.594,0,0,0-11.551,2.484A10.353,10.353,0,0,0,732.329,372.471Z" transform="translate(493.017 -179.235)" fill="#7f7f7f"/><path d="M756.559,396.271c-1.272,1.186.713,2.588,2.047,1.449.349-.3.682-.614,1-.912,3.875-3.637,9-6.227,14.095-8.612,1.252-.585,6.4-1.184,7.777-1.15-3.59.32-10.928,1.442-14.19,2.926a78.729,78.729,0,0,0-9.257,5.194A9.91,9.91,0,0,0,756.559,396.271Z" transform="translate(473.84 -193.303)" fill="#7f7f7f" opacity="0.5"/><path d="M798.955,422.438c-.371,1.7,2.058,1.72,2.508.024.117-.442.221-.883.3-1.325,1.122-5.187,3.862-10.221,6.7-15.079.7-1.192,4.6-4.613,5.741-5.368-2.773,2.307-8.17,7.4-10.012,10.475a78.361,78.361,0,0,0-4.659,9.522A10.116,10.116,0,0,0,798.955,422.438Z" transform="translate(440.517 -203.936)" fill="#7f7f7f"/><path d="M872.228,226.295c-.866-1.767-3.341-.314-2.555,1.5.205.475.442.938.662,1.38,2.667,5.394,3.584,11.635,4.268,17.767a8.75,8.75,0,0,1-.3,4.494,30.813,30.813,0,0,0,.883-11.7,77.014,77.014,0,0,0-2.261-11.482A10.317,10.317,0,0,0,872.228,226.295Z" transform="translate(385.503 -67.426)" fill="#7f7f7f"/><path d="M811.931,237.026a.329.329,0,0,0,.15.044c.095,0,.163-.1.2-.185.221-.468.093-1.078.424-1.475a5.079,5.079,0,0,1,.808,1.356l1.272-.393a1.886,1.886,0,0,1-.241,1.455,1.965,1.965,0,0,1,.6.406.663.663,0,0,1,.157.673,3.237,3.237,0,0,1-.9.088,5.877,5.877,0,0,1-.1,1.669.311.311,0,0,1-.108.221.3.3,0,0,1-.311-.053,2.945,2.945,0,0,1-1.044-1.1l-.473,1.111a.488.488,0,0,1-.221.283.336.336,0,0,1-.4-.135,1.036,1.036,0,0,1-.141-.428l-.177-1.075a.263.263,0,0,0-.057-.152.276.276,0,0,0-.179-.038q-.662-.02-1.345-.013c-.077-.238.161-.461.389-.561s.5-.177.618-.4c.234-.453-.373-1.084-.115-1.477C811.05,236.379,811.54,236.832,811.931,237.026Z" transform="translate(432.003 -75.152)" fill="#7f7f7f"/><path d="M914.107,268.149a1.159,1.159,0,0,1,1.886,1.345c-.221.325-.442.64-.676.941-2.72,3.672-4.129,8.13-5.344,12.536a5.92,5.92,0,0,0-.245,3.312,20.658,20.658,0,0,1,.563-8.629,53.4,53.4,0,0,1,3.054-8.148A7.425,7.425,0,0,1,914.107,268.149Z" transform="translate(354.355 -100.291)" fill="#7f7f7f" opacity="0.5"/><path d="M937.857,304.8c1.835-.055,2.067,2.727.241,2.871-.479.038-.963.049-1.422.062-5.617.152-10.93,2.19-16.033,4.381a6.946,6.946,0,0,0-3.312,2.29,24.117,24.117,0,0,1,8.554-6.059,63.17,63.17,0,0,1,10.087-3.259A8.733,8.733,0,0,1,937.857,304.8Z" transform="translate(348.251 -129.217)" fill="#7f7f7f"/><path d="M957.657,335.765c1.157.044.9,1.689-.269,1.7-.3,0-.609-.011-.9-.024-3.544-.144-7.172.835-10.692,1.91a5.518,5.518,0,0,0-2.4,1.21,19.281,19.281,0,0,1,6.249-3.208,47.544,47.544,0,0,1,6.8-1.495,6.229,6.229,0,0,1,1.217-.093Z" transform="translate(327.945 -153.346)" fill="#7f7f7f" opacity="0.5"/><path d="M970.522,262.8c.7-.121.751.894.055,1.049-.183.04-.367.071-.541.1a20.079,20.079,0,0,0-6.143,2.5,3.343,3.343,0,0,0-1.283,1.029,11.736,11.736,0,0,1,3.325-2.709,28.855,28.855,0,0,1,3.871-1.767A3.643,3.643,0,0,1,970.522,262.8Z" transform="translate(312.969 -96.489)" fill="#7f7f7f" opacity="0.2"/><path d="M911.755,451.828c-.157.689-1.115.347-.989-.355.033-.183.075-.364.115-.537a20,20,0,0,0,.064-6.624,3.348,3.348,0,0,0-.455-1.581,11.764,11.764,0,0,1,1.217,4.107,29.079,29.079,0,0,1,.128,4.248A3.807,3.807,0,0,1,911.755,451.828Z" transform="translate(353.581 -236.693)" fill="#7f7f7f" opacity="0.2"/><path d="M958.931,424.718c.545.923-.793.861-1.38-.064-.155-.241-.3-.484-.431-.715a50.52,50.52,0,0,0-6.726-8.309,9.28,9.28,0,0,0-2.085-1.8,32.777,32.777,0,0,1,5.465,4.675c1.632,1.707,3.074,3.484,4.485,5.26A8.614,8.614,0,0,1,958.931,424.718Z" transform="translate(324.112 -214.174)" fill="#7f7f7f" opacity="0.5"/><path d="M776.548,424.718c-.545.923.793.861,1.382-.064.152-.241.294-.484.431-.715a49.732,49.732,0,0,1,6.726-8.309,9.278,9.278,0,0,1,2.085-1.8A32.776,32.776,0,0,0,781.7,418.5c-1.632,1.707-3.074,3.484-4.485,5.26A8.646,8.646,0,0,0,776.548,424.718Z" transform="translate(458.046 -214.174)" fill="#7f7f7f" opacity="0.2"/><path d="M856.837,451.828c.157.689,1.1.347.989-.355-.033-.183-.075-.364-.115-.537a20,20,0,0,1-.064-6.624,3.348,3.348,0,0,1,.455-1.581,11.765,11.765,0,0,0-1.219,4.114,29.1,29.1,0,0,0-.128,4.248,3.818,3.818,0,0,0,.082.735Z" transform="translate(395.471 -236.693)" fill="#7f7f7f" opacity="0.2"/><path d="M945.242,294.195c.7-.121.749.9.053,1.049-.181.042-.364.071-.539.1a20.113,20.113,0,0,0-6.145,2.5,3.357,3.357,0,0,0-1.281,1.029,11.8,11.8,0,0,1,3.312-2.709,29.443,29.443,0,0,1,3.873-1.767,3.974,3.974,0,0,1,.726-.2Z" transform="translate(332.667 -120.948)" fill="#7f7f7f" opacity="0.2"/><path d="M923.931,232.293c.6-.373,1.031.55.442.952-.155.106-.313.2-.464.3a20.145,20.145,0,0,0-4.765,4.613,3.3,3.3,0,0,0-.8,1.433,11.741,11.741,0,0,1,2.069-3.754,29.3,29.3,0,0,1,2.935-3.078A3.923,3.923,0,0,1,923.931,232.293Z" transform="translate(347.464 -72.655)" fill="#7f7f7f" opacity="0.2"/><path d="M957.819,372.471c1.766.912.274,3.412-1.546,2.581-.477-.221-.941-.459-1.385-.691-5.406-2.8-11.688-3.836-17.866-4.637a8.739,8.739,0,0,0-4.533.236,30.657,30.657,0,0,1,11.827-.711,77.588,77.588,0,0,1,11.551,2.484A10.352,10.352,0,0,1,957.819,372.471Z" transform="translate(336.439 -179.235)" fill="#7f7f7f"/><path d="M936.371,396.271c1.272,1.186-.713,2.588-2.047,1.449-.351-.3-.682-.614-1-.912-3.875-3.637-9-6.227-14.095-8.612-1.252-.585-6.4-1.184-7.779-1.15,3.593.32,10.93,1.442,14.192,2.926a78.533,78.533,0,0,1,9.254,5.194A9.815,9.815,0,0,1,936.371,396.271Z" transform="translate(352.832 -193.303)" fill="#7f7f7f" opacity="0.5"/><path d="M912.654,425.087c.157,1.731-2.259,1.451-2.493-.287-.06-.455-.1-.91-.135-1.345-.462-5.3-2.55-10.641-4.759-15.819-.541-1.27-3.975-5.152-5.028-6.046,2.462,2.637,7.181,8.367,8.612,11.646a80.307,80.307,0,0,1,3.434,10.043,10.014,10.014,0,0,1,.369,1.808Z" transform="translate(361.567 -204.637)" fill="#7f7f7f"/><path d="M950.983,237.026a.329.329,0,0,1-.15.044c-.095,0-.163-.1-.2-.185-.221-.468-.093-1.078-.424-1.475a5.078,5.078,0,0,0-.808,1.356l-1.272-.393a1.886,1.886,0,0,0,.241,1.455,1.965,1.965,0,0,0-.6.406.662.662,0,0,0-.157.673,3.237,3.237,0,0,0,.9.088,5.879,5.879,0,0,0,.095,1.669.312.312,0,0,0,.108.221.3.3,0,0,0,.311-.053,2.945,2.945,0,0,0,1.045-1.1l.473,1.111a.487.487,0,0,0,.221.283.336.336,0,0,0,.4-.135,1,1,0,0,0,.139-.428l.177-1.075a.283.283,0,0,1,.06-.152.276.276,0,0,1,.188-.053q.662-.02,1.345-.013c.077-.238-.161-.461-.389-.561s-.5-.177-.618-.4c-.234-.453.371-1.084.115-1.477C951.866,236.379,951.378,236.832,950.983,237.026Z" transform="translate(324.682 -75.152)" fill="#7f7f7f"/><path d="M968.372,474.034a.283.283,0,0,1-.15.044c-.095,0-.163-.095-.2-.183-.221-.47-.093-1.08-.424-1.475a5.037,5.037,0,0,0-.808,1.354l-1.272-.393a1.892,1.892,0,0,0,.241,1.457,1.928,1.928,0,0,0-.6.406.663.663,0,0,0-.157.662,3.24,3.24,0,0,0,.9.091,5.884,5.884,0,0,0,.095,1.669.236.236,0,0,0,.42.161,2.946,2.946,0,0,0,1.044-1.1l.473,1.128a.5.5,0,0,0,.221.283.338.338,0,0,0,.4-.137.991.991,0,0,0,.139-.428l.177-1.075a.274.274,0,0,1,.06-.15.267.267,0,0,1,.188-.055q.662-.015,1.345-.013c.077-.238-.161-.459-.389-.561s-.5-.174-.618-.4c-.234-.455.371-1.086.115-1.477C969.253,473.387,968.763,473.84,968.372,474.034Z" transform="translate(311.131 -259.827)" fill="#7f7f7f" opacity="0.2"/><path d="M1017.133,315.166a.338.338,0,0,1-.15.044c-.1,0-.163-.1-.2-.186-.221-.47-.093-1.08-.426-1.475a5.082,5.082,0,0,0-.808,1.356l-1.27-.4a1.89,1.89,0,0,0,.241,1.457,1.938,1.938,0,0,0-.6.406.662.662,0,0,0-.157.673,3.236,3.236,0,0,0,.9.088,5.884,5.884,0,0,0,.1,1.669.3.3,0,0,0,.108.221c.093.06.221,0,.311-.051a2.946,2.946,0,0,0,1.044-1.1l.473,1.128a.5.5,0,0,0,.21.283.34.34,0,0,0,.4-.137.983.983,0,0,0,.139-.428l.177-1.073a.265.265,0,0,1,.06-.152.274.274,0,0,1,.188-.055q.662-.015,1.345-.013c.077-.238-.161-.459-.391-.559s-.5-.177-.616-.4c-.234-.455.371-1.086.115-1.477C1018.014,314.517,1017.524,314.974,1017.133,315.166Z" transform="translate(273.139 -136.037)" fill="#7f7f7f"/><path d="M817.432,495.56a.419.419,0,0,1-.208.062c-.135,0-.221-.135-.285-.256-.3-.662-.128-1.5-.592-2.056a7.087,7.087,0,0,0-1.126,1.888l-1.767-.548a2.621,2.621,0,0,0,.336,2.027,2.7,2.7,0,0,0-.835.568.921.921,0,0,0-.221.938,4.5,4.5,0,0,0,1.25.124,8.311,8.311,0,0,0,.133,2.327.442.442,0,0,0,.152.3c.13.082.3,0,.442-.073a4.126,4.126,0,0,0,1.457-1.546l.662,1.572a.687.687,0,0,0,.294.393.475.475,0,0,0,.552-.19,1.37,1.37,0,0,0,.194-.6l.247-1.5a.353.353,0,0,1,.082-.221.369.369,0,0,1,.261-.075q.938-.026,1.875-.02c.108-.331-.221-.64-.543-.779s-.7-.247-.859-.556c-.327-.634.517-1.513.159-2.058C818.659,494.659,817.977,495.291,817.432,495.56Z" transform="translate(429.786 -276.104)" fill="#7f7f7f"/><path d="M736.284,317.662a.429.429,0,0,1-.21.062c-.132,0-.221-.135-.283-.258-.3-.662-.128-1.5-.592-2.056a7.085,7.085,0,0,0-1.135,1.9l-1.766-.548a2.634,2.634,0,0,0,.333,2.029,2.715,2.715,0,0,0-.833.567.923.923,0,0,0-.221.936,4.6,4.6,0,0,0,1.252.126,8.22,8.22,0,0,0,.132,2.325.426.426,0,0,0,.152.3c.13.084.3,0,.431-.071A4.1,4.1,0,0,0,735,321.423l.662,1.572a.705.705,0,0,0,.292.4.475.475,0,0,0,.552-.192,1.381,1.381,0,0,0,.2-.6l.245-1.5a.4.4,0,0,1,.082-.221.375.375,0,0,1,.263-.075q.938-.027,1.875-.018c.106-.333-.221-.643-.545-.782s-.7-.245-.859-.556c-.325-.632.519-1.513.159-2.058C737.511,316.759,736.829,317.391,736.284,317.662Z" transform="translate(493.022 -137.487)" fill="#7f7f7f"/><path d="M990.315,431.555a.221.221,0,0,1-.113.033c-.071,0-.119-.071-.15-.137-.159-.347-.068-.8-.314-1.091a3.785,3.785,0,0,0-.6,1l-.941-.292a1.4,1.4,0,0,0,.177,1.078,1.455,1.455,0,0,0-.442.3.486.486,0,0,0-.115.5,2.385,2.385,0,0,0,.662.066,4.466,4.466,0,0,0,.071,1.237.236.236,0,0,0,.082.157c.068.044.159,0,.221-.038a2.173,2.173,0,0,0,.773-.821l.351.835a.36.36,0,0,0,.155.21.252.252,0,0,0,.294-.1.713.713,0,0,0,.1-.316l.13-.8a.2.2,0,0,1,.044-.11.192.192,0,0,1,.139-.04c.331-.011.662-.013,1-.011.057-.177-.119-.34-.289-.415s-.371-.13-.457-.294c-.172-.338.276-.8.086-1.1C990.966,431.075,990.6,431.411,990.315,431.555Z" transform="translate(293.346 -227.054)" fill="#7f7f7f" opacity="0.2"/><path d="M880.114,495.177a.221.221,0,0,1-.11.033c-.073,0-.121-.073-.152-.137-.159-.349-.066-.8-.313-1.093a3.786,3.786,0,0,0-.6,1l-.941-.291a1.4,1.4,0,0,0,.179,1.08,1.433,1.433,0,0,0-.442.3.488.488,0,0,0-.115.5,2.4,2.4,0,0,0,.662.066,4.385,4.385,0,0,0,.071,1.237.221.221,0,0,0,.08.157c.068.044.159,0,.221-.038a2.181,2.181,0,0,0,.775-.821l.349.837a.367.367,0,0,0,.157.208.247.247,0,0,0,.291-.1.731.731,0,0,0,.1-.318l.133-.795a.2.2,0,0,1,.042-.113.192.192,0,0,1,.139-.04c.331,0,.662-.013,1-.011.057-.177-.119-.34-.289-.415s-.371-.13-.455-.294c-.174-.338.274-.8.084-1.093C880.777,494.7,880.406,495.031,880.114,495.177Z" transform="translate(379.211 -276.626)" fill="#7f7f7f" opacity="0.2"/><path d="M773.477,272.487a.222.222,0,0,1-.11.033c-.071,0-.121-.073-.15-.137-.161-.347-.068-.8-.316-1.093a3.8,3.8,0,0,0-.6,1l-.941-.292a1.394,1.394,0,0,0,.179,1.078,1.434,1.434,0,0,0-.442.3.5.5,0,0,0-.115.5,2.4,2.4,0,0,0,.662.066,4.363,4.363,0,0,0,.071,1.234.168.168,0,0,0,.3.119,2.191,2.191,0,0,0,.775-.819l.349.835a.371.371,0,0,0,.157.221.254.254,0,0,0,.294-.1.773.773,0,0,0,.1-.318l.143-.8a.2.2,0,0,1,.044-.113.207.207,0,0,1,.139-.04h.994c.057-.177-.119-.34-.287-.415s-.373-.13-.457-.3c-.174-.336.274-.8.084-1.093C774.128,272.008,773.768,272.343,773.477,272.487Z" transform="translate(462.301 -103.109)" fill="#7f7f7f" opacity="0.5"/><path d="M830.237,397.938a.221.221,0,0,1-.11.033c-.071,0-.121-.073-.15-.137-.161-.349-.068-.8-.316-1.1a3.693,3.693,0,0,0-.6,1l-.943-.283a1.4,1.4,0,0,0,.179,1.078,1.46,1.46,0,0,0-.442.3.5.5,0,0,0-.115.5,2.4,2.4,0,0,0,.662.066,4.372,4.372,0,0,0,.071,1.234.174.174,0,0,0,.309.119,2.191,2.191,0,0,0,.775-.819l.349.835a.389.389,0,0,0,.157.21.254.254,0,0,0,.294-.1.712.712,0,0,0,.1-.318l.13-.795a.15.15,0,0,1,.183-.152c.331,0,.662-.013,1,0,.055-.177-.119-.34-.289-.415s-.371-.13-.457-.3c-.172-.336.274-.8.084-1.093C830.89,397.452,830.528,397.794,830.237,397.938Z" transform="translate(418.074 -200.85)" fill="#7f7f7f" opacity="0.5"/><path d="M789.035,349.057a.22.22,0,0,1-.11.033c-.073,0-.121-.073-.152-.137-.159-.349-.066-.8-.314-1.093a3.761,3.761,0,0,0-.6,1l-.941-.291a1.4,1.4,0,0,0,.177,1.078,1.448,1.448,0,0,0-.442.3.49.49,0,0,0-.115.5,2.4,2.4,0,0,0,.662.066,4.363,4.363,0,0,0,.071,1.234.172.172,0,0,0,.309.119,2.168,2.168,0,0,0,.773-.819l.351.835a.38.38,0,0,0,.157.221.252.252,0,0,0,.292-.1.712.712,0,0,0,.1-.318l.133-.795a.147.147,0,0,1,.181-.152c.331,0,.662-.013,1,0,.057-.177-.119-.34-.289-.415s-.371-.13-.455-.3c-.174-.336.274-.8.084-1.093C789.687,348.578,789.325,348.913,789.035,349.057Z" transform="translate(450.18 -162.771)" fill="#7f7f7f" opacity="0.5"/><path d="M965.978,360.577a.221.221,0,0,1-.11.033c-.071,0-.119-.073-.15-.137-.161-.349-.068-.8-.314-1.093a3.7,3.7,0,0,0-.6,1l-.941-.291a1.4,1.4,0,0,0,.177,1.078,1.461,1.461,0,0,0-.442.3.5.5,0,0,0-.115.5,2.5,2.5,0,0,0,.662.066,4.374,4.374,0,0,0,.071,1.234.174.174,0,0,0,.311.119,2.183,2.183,0,0,0,.773-.819l.351.835a.375.375,0,0,0,.155.21.254.254,0,0,0,.294-.1.723.723,0,0,0,.1-.318l.13-.795a.2.2,0,0,1,.044-.113.2.2,0,0,1,.139-.04c.331,0,.662-.013,1-.011.055-.174-.119-.34-.289-.413s-.371-.13-.457-.3c-.172-.336.276-.8.084-1.093C966.631,360.1,966.269,360.433,965.978,360.577Z" transform="translate(312.307 -171.748)" fill="#7f7f7f" opacity="0.5"/><path d="M880.121,350.955a.22.22,0,0,1-.11.033c-.073,0-.121-.071-.152-.137-.159-.347-.066-.8-.313-1.091a3.785,3.785,0,0,0-.6,1l-.938-.287a1.391,1.391,0,0,0,.179,1.078,1.44,1.44,0,0,0-.442.3.486.486,0,0,0-.115.5,2.4,2.4,0,0,0,.662.066,4.385,4.385,0,0,0,.071,1.237.22.22,0,0,0,.08.157c.068.044.159,0,.221-.038a2.208,2.208,0,0,0,.795-.826l.349.835a.371.371,0,0,0,.157.21.25.25,0,0,0,.292-.1.713.713,0,0,0,.086-.325l.132-.8a.194.194,0,0,1,.042-.11.205.205,0,0,1,.139-.042c.331,0,.662-.011,1,0,.057-.177-.119-.34-.289-.415s-.371-.13-.455-.294c-.174-.338.274-.8.084-1.1C880.783,350.475,880.412,350.811,880.121,350.955Z" transform="translate(379.204 -164.252)" fill="#7f7f7f" opacity="0.2"/><path d="M853.173,362.675a.221.221,0,0,1-.113.033c-.071,0-.119-.071-.15-.137-.159-.347-.068-.8-.314-1.091a3.785,3.785,0,0,0-.6,1l-.941-.291a1.4,1.4,0,0,0,.177,1.078,1.456,1.456,0,0,0-.442.3.492.492,0,0,0-.117.5,2.414,2.414,0,0,0,.662.066,4.466,4.466,0,0,0,.071,1.237.236.236,0,0,0,.082.157c.068.044.159,0,.221-.038a2.173,2.173,0,0,0,.773-.821l.351.835a.36.36,0,0,0,.155.21.25.25,0,0,0,.294-.1.714.714,0,0,0,.1-.316l.13-.795a.2.2,0,0,1,.044-.113.192.192,0,0,1,.139-.04c.331-.011.662-.013,1-.011.057-.177-.119-.34-.289-.415s-.371-.13-.457-.294c-.172-.338.276-.8.086-1.1C853.82,362.2,853.462,362.531,853.173,362.675Z" transform="translate(400.206 -173.384)" fill="#7f7f7f" opacity="0.3"/><path d="M828.111,291.785a.221.221,0,0,1-.11.033c-.071,0-.119-.071-.15-.137-.161-.347-.068-.8-.314-1.091a3.726,3.726,0,0,0-.6,1L826,291.3a1.4,1.4,0,0,0,.177,1.078,1.424,1.424,0,0,0-.442.3.5.5,0,0,0-.117.5,2.411,2.411,0,0,0,.662.066,4.363,4.363,0,0,0,.071,1.234.243.243,0,0,0,.082.159c.068.044.159,0,.221-.04a2.168,2.168,0,0,0,.773-.819l.351.835a.369.369,0,0,0,.155.221.252.252,0,0,0,.294-.1.714.714,0,0,0,.1-.316l.13-.8a.2.2,0,0,1,.044-.113.221.221,0,0,1,.139-.04h1c.055-.177-.119-.34-.289-.415s-.371-.13-.457-.3c-.172-.336.276-.8.084-1.093C828.753,291.3,828.391,291.632,828.111,291.785Z" transform="translate(419.732 -118.147)" fill="#7f7f7f" opacity="0.2"/><path d="M877.537,384.3a.221.221,0,0,1-.11.033.2.2,0,0,1-.15-.137c-.161-.347-.068-.8-.316-1.091a3.785,3.785,0,0,0-.6,1l-.941-.291a1.4,1.4,0,0,0,.179,1.078,1.474,1.474,0,0,0-.442.3.5.5,0,0,0-.115.5,2.4,2.4,0,0,0,.662.066,4.363,4.363,0,0,0,.071,1.234.169.169,0,0,0,.3.121,2.209,2.209,0,0,0,.775-.821l.349.835a.371.371,0,0,0,.157.21.252.252,0,0,0,.294-.1.773.773,0,0,0,.1-.316l.13-.8a.15.15,0,0,1,.183-.152h.994c.057-.177-.119-.34-.287-.415s-.373-.13-.457-.3c-.172-.336.274-.8.084-1.093C878.188,383.825,877.828,384.161,877.537,384.3Z" transform="translate(381.219 -190.238)" fill="#7f7f7f" opacity="0.3"/></g></svg>