<svg xmlns="http://www.w3.org/2000/svg" width="12" height="14" viewBox="0 0 12 14">
    <path fill="#4D4D4D" fill-rule="nonzero" d="M2.4 5.919a1.422 1.422 0 0 0-.195-.583l9.224-3.42-.484-1.61c-.07-.235-.298-.361-.509-.283L.402 3.743c-.21.078-.324.331-.254.565l.238.79a1.405 1.405 0 0 0-.386.98c0 .5.25.938.617 1.167v6.308c0 .247.18.447.403.447h10.578c.222 0 .402-.2.402-.447V5.92H2.4zm5.879-4.57l1.22-.453-.293 1.319-1.221.453.294-1.32zM5.26 2.467l1.222-.453-.294 1.32-1.221.452.293-1.319zM1.204 6.76c-.338 0-.613-.306-.613-.681 0-.376.275-.681.613-.681.338 0 .614.305.614.68 0 .376-.276.682-.614.682zm1.04-3.173l1.222-.453-.294 1.32-1.222.452.294-1.32zm1.2 3.841H2.157L2.81 6.28H4.1l-.655 1.147zM5.992 6.28H7.28l-.655 1.147H5.337l.655-1.147zm-.316 5.547V8.799l2.172 1.514-2.172 1.514zm4.13-4.4H8.518l.655-1.147h1.288l-.655 1.147z"/>
</svg>
