<svg xmlns="http://www.w3.org/2000/svg" width="32" height="26" viewBox="0 0 32 26">
    <g fill="#4D4D4D" fill-rule="nonzero">
        <path d="M31.68 4.968a2.187 2.187 0 0 0-1.36-.947L13.285.061A2.32 2.32 0 0 0 12.76 0c-1.02 0-1.901.653-2.145 1.589l-.512 1.97-8.516 2.556C.449 6.455-.22 7.582.066 8.678l4.096 15.746c.142.545.5 1.002 1.01 1.287a2.267 2.267 0 0 0 1.68.218l13.118-3.317 5.198 1.209c.172.04.35.06.526.06 1.02 0 1.902-.653 2.145-1.588l4.097-15.747c.14-.54.05-1.1-.257-1.578zM6.48 23.622L2.486 8.277 9.416 6.2 6.519 17.335c-.14.54-.05 1.1.256 1.578s.789.814 1.36.947l6.889 1.602-8.545 2.16zm20.968-9.536l-2.33-3.392a1.537 1.537 0 0 0-1.269-.664 1.58 1.58 0 0 0-.955.32l-4.96 3.731a.866.866 0 0 1-.526.171.873.873 0 0 1-.655-.283l-1.88-2.114c-.36-.405-.936-.647-1.543-.647-.299 0-.589.062-.838.18l-2.165 1.019 2.612-10.04 16.556 3.85-2.047 7.869z"/>
        <path d="M16.522 8.942a1.995 1.995 0 0 0 2.42-1.464A2.002 2.002 0 0 0 16.999 5c-.922 0-1.72.626-1.94 1.522a2.002 2.002 0 0 0 1.463 2.42z"/>
    </g>
</svg>
