<svg xmlns="http://www.w3.org/2000/svg" width="24" height="21" viewBox="0 0 24 21">
    <path fill="#4D4D4D" fill-rule="nonzero" d="M4.364 9.948c0-.612-.489-1.107-1.09-1.107H2.18v-6.63h1.093c.601 0 1.09-.495 1.09-1.106 0-.609-.489-1.104-1.09-1.104H1.092A1.096 1.096 0 0 0 0 1.105V9.95c0 .61.488 1.104 1.092 1.104h2.183a1.1 1.1 0 0 0 1.089-1.105zM22.913 0h-2.184c-.604 0-1.093.495-1.093 1.104 0 .612.489 1.106 1.093 1.106h1.092v6.63H20.73c-.604 0-1.093.494-1.093 1.107 0 .61.489 1.104 1.093 1.104h2.184c.599 0 1.087-.495 1.087-1.104V1.105C24 .495 23.512 0 22.913 0zm-4.365 14.368h-4.364V11.69a5.526 5.526 0 0 0 3.271-5.058c0-3.052-2.441-5.528-5.456-5.528-3.012 0-5.456 2.476-5.456 5.528a5.526 5.526 0 0 0 3.274 5.058v2.678H5.456c-1.206 0-2.182.99-2.182 2.211v3.314c0 .612.488 1.107 1.09 1.107.604 0 1.092-.495 1.092-1.107V16.58h13.093v3.314c0 .612.488 1.107 1.087 1.107.605 0 1.093-.495 1.093-1.107V16.58c-.001-1.221-.978-2.21-2.181-2.21zM8.727 6.632c0-1.832 1.467-3.316 3.274-3.316 1.806 0 3.27 1.484 3.27 3.316 0 1.832-1.464 3.316-3.27 3.316-1.807 0-3.274-1.484-3.274-3.316z"/>
</svg>
