<svg xmlns="http://www.w3.org/2000/svg" width="21" height="13" viewBox="0 0 21 13">
    <g fill="#000" fill-rule="nonzero">
        <path d="M3.255 2.59l4.857.564c.17.39 1.024 2.306 1.184 2.65h-.002C7.887 6.432 6.48 7.06 5.073 7.69c.488-.08.983-.121 1.48-.121.652 0 1.29.07 1.898.21 1.229.282 2.34.734 3.412 1.172.956.39 1.862.758 2.765.97.127.03.25.057.372.079-1.07-1.983-3.949-7.328-4.518-8.504C10.215.94 9.847.735 9.325.674L3.621.011c-.787-.091-1.507.411-1.61 1.123-.098.713.457 1.364 1.244 1.455z"/>
        <path d="M.372 12.55a.977.977 0 0 0 .636.137.924.924 0 0 0 .609-.316c.578-.702 1.473-1.253 2.515-1.557a6.646 6.646 0 0 1 1.836-.26c2.224 0 4.132 1.158 6.14 1.824 1.075.358 2.198.622 3.418.622a8.35 8.35 0 0 0 1.595-.153c1.297-.25 2.408-.785 3.211-1.537.192-.18.366-.371.52-.575.272-.358.158-.84-.252-1.076a.98.98 0 0 0-.491-.129.934.934 0 0 0-.745.348c-.07.091-.145.179-.228.264-.558.58-1.394.995-2.398 1.187-.926.177-1.948.125-2.86-.081-.96-.218-1.888-.581-2.874-.968-1.05-.41-2.131-.835-3.305-1.095A7.99 7.99 0 0 0 5.966 9c-.806 0-1.625.115-2.403.34a7.705 7.705 0 0 0-1.879.822 6.082 6.082 0 0 0-1.52 1.301.756.756 0 0 0-.069.101c-.194.336-.087.758.277.985z"/>
        <circle cx="16" cy="6" r="3"/>
    </g>
</svg>
