<svg xmlns="http://www.w3.org/2000/svg" width="13" height="12" viewBox="0 0 13 12">
    <path fill="#4D4D4D" fill-rule="nonzero" d="M11.95 1.036A3.677 3.677 0 0 0 9.403 0C8.83 0 8.291.13 7.772.391c-.518.26-.94.618-1.272 1.07A3.497 3.497 0 0 0 5.228.391 3.572 3.572 0 0 0 3.596 0C2.62 0 1.694.405 1.05 1.036A3.567 3.567 0 0 0 0 3.554c0 .665.142 1.311.318 1.798.087.24.219.502.394.768.178.27.34.494.477.672.139.179.336.402.602.66a27.492 27.492 0 0 0 1.362 1.234 35.558 35.558 0 0 1 1.508 1.365c.629.597 1.09 1.147 1.528 1.777a.363.363 0 0 0 .31.172.372.372 0 0 0 .326-.172c.28-.416.603-.842.982-1.262.382-.424.7-.753.954-.988.258-.238.628-.57 1.107-.995.295-.262.532-.46.691-.604.16-.144.367-.343.623-.596.255-.254.458-.473.601-.652.147-.184.302-.407.477-.673.358-.543.514-.973.643-1.578.065-.301.097-.61.097-.926 0-.967-.408-1.887-1.05-2.518zm.22 3.218c-.133.761-.534 1.508-1.203 2.243-.292.321-.828.832-1.611 1.524-.406.358-.733.652-.989.885-.249.226-.555.533-.92.92-.361.382-.677.76-.947 1.131a13.15 13.15 0 0 0-.982-1.111 21.703 21.703 0 0 0-.878-.865c-.214-.192-.541-.478-.989-.871l-.477-.419-.436-.39a6.342 6.342 0 0 1-.428-.412c-.092-.102-.215-.234-.367-.398a3.542 3.542 0 0 1-.346-.426c-.158-.24-.427-.6-.525-.899L.913 4.68C.797 4.324.761 3.96.761 3.554c0-.768.276-1.427.83-1.97A2.758 2.758 0 0 1 3.596.763c.546 0 1.051.144 1.514.439.464.295.82.684 1.051 1.173.067.142.18.213.34.213.158 0 .281-.066.352-.213A2.785 2.785 0 0 1 7.883 1.2c.464-.295.975-.44 1.522-.44.781 0 1.445.275 1.998.817.553.542.83 1.2.83 1.976 0 .24-.023.473-.063.7z"/>
</svg>
