<svg xmlns="http://www.w3.org/2000/svg" width="22" height="19" viewBox="0 0 22 19">
    <g fill="#000" fill-rule="nonzero">
        <path d="M14.094 7.888a6.584 6.584 0 0 0-.705-.61 4.097 4.097 0 0 0-1.635 1.112 4.824 4.824 0 0 1 1.465 7.827 4.824 4.824 0 0 1-6.824 0 4.824 4.824 0 0 1 1.813-7.965 7.24 7.24 0 0 1 1.338-2.27A6.493 6.493 0 0 0 5.65 7.237l-.208-2.88a.397.397 0 0 0-.123-.25l-.99-.99a.37.37 0 0 0-.541.002L.125 6.78c-.156.156-.172.4-.016.555l.98.98a.394.394 0 0 0 .249.118l2.906.208a6.51 6.51 0 1 0 9.85-.753zM1.382 7.49l-.424-.424L4.06 3.963l.424.424-3.102 3.102zm3.513.399l-2.605-.19 2.425-2.424.182 2.61-.002.004z"/>
        <path d="M21.44 3.733l.529-1.266a.362.362 0 0 0-.205-.488L17.07.033c-.2-.083-.427-.007-.51.192l-.523 1.251a.382.382 0 0 0-.014.27l.899 2.705c-3.013-.744-6.201.792-7.43 3.736-1.26 3.014-.018 6.442 2.775 7.998a4.08 4.08 0 0 0 1.044-.833 4.713 4.713 0 0 1-2.461-6.13 4.744 4.744 0 0 1 6.194-2.545 4.712 4.712 0 0 1 2.553 6.17 4.726 4.726 0 0 1-3.324 2.79A7.04 7.04 0 0 1 15.334 17a6.392 6.392 0 0 0 5.956-3.922c1.228-2.938.08-6.271-2.566-7.878l2.535-1.263a.393.393 0 0 0 .181-.204zm-3.587 1.026h-.005l-.803-2.427 3.109 1.289-2.301 1.138zm3.019-1.677l-3.977-1.649.226-.541 3.976 1.648-.225.542z"/>
    </g>
</svg>
