<?xml version="1.0"?>
<svg xmlns="http://www.w3.org/2000/svg" id="icons" enable-background="new 0 0 64 64" height="512px" viewBox="0 0 64 64" width="512px"><g><path d="m11.997 42.487c0-1.654-1.347-3.001-3.001-3.001s-3.001 1.347-3.001 3.001 1.347 3.001 3.001 3.001 3.001-1.346 3.001-3.001zm-4.002 0c0-.552.449-1.001 1.001-1.001s1.001.449 1.001 1.001-.449 1.001-1.001 1.001-1.001-.449-1.001-1.001z" data-original="#000000" class="active-path" data-old_color="#000000" fill="#FFA500"/><path d="m1 61.505h39.006c.553 0 1-.447 1-1v-26.013c0-.553-.447-1-1-1h-39.006c-.553 0-1 .447-1 1v26.013c0 .553.447 1 1 1zm17.004-10.302 1.28 1.762-4.797 6.54h-2.521zm7.999-4.018 9.034 12.32h-18.068zm-24.003-11.693h37.006v24.013h-1.487l-10.707-14.602c-.036-.049-.087-.077-.13-.118-.031-.03-.051-.069-.088-.097-.012-.009-.025-.01-.037-.018-.065-.044-.136-.069-.209-.096-.051-.02-.099-.045-.151-.055-.067-.014-.133-.009-.201-.008-.062 0-.121-.005-.181.007-.058.011-.109.037-.164.059-.069.026-.137.051-.199.093-.012.008-.026.009-.038.018-.037.027-.057.066-.089.098-.042.04-.093.068-.129.117l-4.67 6.368-1.712-2.354c-.035-.049-.086-.077-.128-.117-.034-.033-.056-.075-.095-.104-.011-.008-.023-.009-.034-.016-.064-.044-.136-.068-.207-.095-.053-.02-.102-.046-.155-.057-.062-.012-.122-.006-.186-.007-.067 0-.133-.006-.198.008-.051.01-.097.034-.146.053-.075.027-.147.053-.215.098-.011.008-.022.008-.033.016-.039.028-.06.069-.094.102-.042.041-.093.069-.129.119l-7.699 10.588h-7.495z" data-original="#000000" class="active-path" data-old_color="#000000" fill="#FFA500"/><path d="m11.997 11.489c0-1.655-1.347-3.001-3.001-3.001s-3.001 1.346-3.001 3.001 1.347 3.001 3.001 3.001 3.001-1.346 3.001-3.001zm-4.002 0c0-.552.449-1.001 1.001-1.001s1.001.449 1.001 1.001-.449 1.001-1.001 1.001-1.001-.449-1.001-1.001z" data-original="#000000" class="active-path" data-old_color="#000000" fill="#FFA500"/><path d="m1 30.508h39.006c.553 0 1-.448 1-1v-26.013c0-.552-.447-1-1-1h-39.006c-.553 0-1 .448-1 1v26.013c0 .552.447 1 1 1zm17.004-10.301 1.28 1.761-4.796 6.54h-2.521zm7.999-4.019 9.034 12.32h-18.068zm-24.003-11.693h37.006v24.013h-1.488l-10.706-14.601c-.035-.048-.085-.076-.127-.116-.033-.032-.053-.072-.091-.1-.012-.009-.026-.01-.038-.018-.064-.043-.135-.069-.207-.096-.052-.019-.1-.044-.152-.055-.066-.013-.132-.008-.198-.007-.063 0-.123-.005-.185.007-.056.011-.107.038-.161.058-.07.027-.138.051-.201.093-.012.008-.026.009-.038.018-.038.028-.058.068-.091.1-.042.04-.092.067-.127.116l-4.67 6.368-1.712-2.355c-.035-.049-.086-.077-.128-.117-.033-.033-.055-.075-.095-.104-.011-.008-.023-.009-.034-.016-.063-.042-.132-.066-.202-.092-.055-.021-.105-.048-.162-.059-.058-.011-.116-.005-.176-.006-.07-.001-.139-.006-.207.007-.05.01-.095.035-.143.052-.075.027-.149.053-.217.099-.01.007-.022.008-.033.015-.039.029-.061.07-.095.103-.042.041-.093.069-.128.118l-7.699 10.588h-7.495z" data-original="#000000" class="active-path" data-old_color="#000000" fill="#FFA500"/><path d="m54 57.49c2.671 0 5.182-1.04 7.071-2.929 3.899-3.898 3.899-10.243 0-14.142-1.889-1.89-4.4-2.93-7.071-2.93-2.672 0-5.183 1.04-7.071 2.93-3.899 3.898-3.899 10.243 0 14.142 1.888 1.889 4.399 2.929 7.071 2.929zm-5.657-15.656c1.511-1.512 3.521-2.344 5.657-2.344s4.146.832 5.657 2.344c3.119 3.119 3.119 8.194 0 11.313-1.511 1.511-3.52 2.343-5.657 2.343-2.138 0-4.146-.832-5.657-2.343-3.119-3.119-3.119-8.194 0-11.313z" data-original="#000000" class="active-path" data-old_color="#000000" fill="#FFA500"/><path d="m50.79 50.7c.195.195.451.293.707.293s.512-.098.707-.293l1.793-1.793 1.793 1.793c.195.195.451.293.707.293s.512-.098.707-.293c.391-.391.391-1.023 0-1.414l-1.793-1.793 1.793-1.793c.391-.391.391-1.023 0-1.414s-1.023-.391-1.414 0l-1.793 1.793-1.793-1.793c-.391-.391-1.023-.391-1.414 0s-.391 1.023 0 1.414l1.793 1.793-1.793 1.793c-.391.391-.391 1.024 0 1.414z" data-original="#000000" class="active-path" data-old_color="#000000" fill="#FFA500"/><path d="m54 26.501c2.671 0 5.182-1.041 7.071-2.929 3.899-3.899 3.899-10.243 0-14.142-1.889-1.889-4.4-2.93-7.071-2.93-2.672 0-5.183 1.041-7.071 2.93-3.899 3.899-3.899 10.243 0 14.142 1.888 1.889 4.399 2.929 7.071 2.929zm-5.657-15.656c1.511-1.512 3.52-2.344 5.657-2.344s4.146.833 5.657 2.344c3.119 3.119 3.119 8.194 0 11.313-1.512 1.511-3.521 2.343-5.657 2.343-2.138 0-4.146-.833-5.657-2.343-3.119-3.119-3.119-8.194 0-11.313z" data-original="#000000" class="active-path" data-old_color="#000000" fill="#FFA500"/><path d="m52.277 19.2c.002.002.006.003.008.005s.003.005.005.008c.195.195.451.293.707.293s.512-.098.707-.293l4.007-4.008c.391-.391.391-1.024 0-1.414-.391-.391-1.023-.391-1.414 0l-3.3 3.301-1.295-1.295c-.391-.391-1.023-.391-1.414 0s-.391 1.023 0 1.414z" data-original="#000000" class="active-path" data-old_color="#000000" fill="#FFA500"/></g> </svg>
