<svg xmlns="http://www.w3.org/2000/svg" width="196.761" height="203.007" viewBox="0 0 196.761 203.007">
  <g id="Group_52" data-name="Group 52" transform="translate(-1451.239 -443)">
    <g id="Group_40" data-name="Group 40" transform="translate(427.239 6)">
      <g id="Layer_2" data-name="Layer 2" transform="translate(1024 437)">
        <g id="Layer_1" data-name="Layer 1" transform="translate(0 0)">
          <path id="Path_1214" data-name="Path 1214" d="M157.4,132.767v55.824a.985.985,0,0,1-1.04.156c-.18-.086-.352-.164-.531-.234a8.1,8.1,0,0,0-1.845-.094H1.294a1,1,0,0,1-.578-.149c-.336-.063-.586-.211-.594-.586s0-.922,0-1.383V52.268C.02,50.923.1,50.275,1.865,50.329c6.011.172,12.029,0,18.048.094,1.172,0,1.5-.375,1.462-1.509-.07-2.306,0-4.627,0-6.941,0-.492-.156-1.04.281-1.454a1.673,1.673,0,0,1,.485,1.4q.07,5.9,0,11.8a3.126,3.126,0,0,1-.274,1.337c-.7,1.086-1.712,1.892-2.47,2.939-5.761,7.98.68,17.493,8.035,18.016A11.584,11.584,0,0,0,39.993,64.782a11.123,11.123,0,0,0-3.463-8.316A4.69,4.69,0,0,1,35.4,55.215c-.36-1.626-.688-3.252.172-4.83H77.081c.782,0,1.735-.414,2.275.61a.977.977,0,0,1,.211.993c-.782,2.345-1.016,4.854-1.782,7.222a50.013,50.013,0,0,0-2.611,12.709,42.762,42.762,0,0,0-.117,9.34,1.7,1.7,0,0,1-.141.9c-.367.6-.985.657-1.563.782-1.923.336-2.7,1.149-2.751,3.08-.07,2.767-.063,5.542,0,8.309.047,2.009,1.18,3.033,3.228,3.126,1.423.078,2.876-.219,4.275.258,1.258,1.11,1.485,2.743,2.071,4.182.281.688-.109,1.18-.868,1.305-.5.086-1.016.047-1.563.094h-4c-2.149.078-3.126,1-3.173,3.126-.07,2.767-.07,5.542,0,8.309a2.869,2.869,0,0,0,2.994,3.041c2.869.094,5.745.078,8.6,0,1.806-.047,2.759-1.094,2.892-2.939.055-.782-.211-1.673.61-2.259a1.219,1.219,0,0,1,1.282.649,63.866,63.866,0,0,0,8.277,9.036.782.782,0,0,1,.289.68c-.406.836-1.2.649-1.884.688-2.47.164-3.549,1.165-3.635,3.627s-.094,5.12,0,7.683c.078,2.118,1.188,3.173,3.314,3.212,2.72.047,5.432.039,8.152,0,2.063,0,3.126-1.141,3.314-3.236.133-1.68-.2-3.384.242-5.049a.492.492,0,0,1,.625-.281c1.454.672,3.056,1.079,4.15,2.345a10.294,10.294,0,0,1,.227,2.892c.133,2.212,1.172,3.275,3.377,3.314s4.4-.078,6.589.039c1.954.1,3.65-.211,4.9-1.852a15.094,15.094,0,0,1,5.127.414,2.1,2.1,0,0,1,.469.211,4.385,4.385,0,0,0,3.361,1.227c2.415-.063,4.838-.078,7.246,0a3.6,3.6,0,0,0,3.6-1.86,1.656,1.656,0,0,1,.6-.461,72.942,72.942,0,0,0,10.786-3.126C156.517,132.627,156.963,132.392,157.4,132.767Z" transform="translate(0.034 -8.837)" fill="#f1f1f1"/>
          <path id="Path_1215" data-name="Path 1215" d="M98.8,50.177q.938-4.01,1.884-8.019a63.046,63.046,0,0,1,8.246-16.61C119.941,10.377,134.721,1.638,153.48.184a59.747,59.747,0,0,1,63.4,47.632,37.821,37.821,0,0,1,1.04,8.848,28.005,28.005,0,0,0,0,6.472,53.729,53.729,0,0,1-2.939,15.929l-.782,2.486c-1.774,6.37-5.393,11.724-9.5,16.758A60.123,60.123,0,0,1,180.595,116c-.782.313-1.563.539-2.345.852a55.721,55.721,0,0,1-11.724,2.876,54.784,54.784,0,0,1-15.335.266c-1.446-.3-2.931-.32-4.369-.688a64.709,64.709,0,0,1-14.069-4.533,86.509,86.509,0,0,1-8.989-5.127,73.011,73.011,0,0,1-9.168-7.816c-1.3-1.368-2.5-2.814-3.7-4.268a59.4,59.4,0,0,1-11.826-24.77c-.782-3.666-1.563-7.316-1.2-11.1a7.035,7.035,0,0,0,0-3.619C97.446,55.351,98.235,52.78,98.8,50.177Z" transform="translate(-21.292 0.015)" fill="#ed1d25"/>
          <path id="Path_1216" data-name="Path 1216" d="M41.463,48.55c.078,1.665-.3,3.345.258,4.979a27.5,27.5,0,0,1,.149,4.244c-.063,1.563,0,3.181,0,4.768A7.379,7.379,0,1,1,27.112,62.4V57.781a27.967,27.967,0,0,1,.141-4.283,2.759,2.759,0,0,0,.313-1.477V38.686A6.839,6.839,0,0,1,35.429,32.2a6.972,6.972,0,0,1,6.058,7.128C41.377,42.4,41.455,45.478,41.463,48.55Z" transform="translate(-5.86 -7.002)" fill="#d0d2d4"/>
          <path id="Path_1217" data-name="Path 1217" d="M200.905,139.239a76.661,76.661,0,0,0,12.186-6.136,59.982,59.982,0,0,0,23.074-27.857c.133-.328.32-.633.485-.946a20.166,20.166,0,0,1-1.36,5.62,60.185,60.185,0,0,1-19.666,28.185,49.109,49.109,0,0,1-14.069,8.238,2.071,2.071,0,0,1-.735-1.915,44.253,44.253,0,0,1,.086-5.19Z" transform="translate(-43.791 -22.765)" fill="#ddd"/>
          <path id="Path_1218" data-name="Path 1218" d="M156.427,229.822l.93.047a.391.391,0,0,1,0,.3,1.649,1.649,0,0,1-.821.4,27.354,27.354,0,0,1-2.775.055H3.705c-2.923,0-2.923,0-2.923,2.947v16.2a5.667,5.667,0,0,0,.149,2.024,1.165,1.165,0,0,0,1.063.508H154.152c2.767,0,2.767,0,2.767-2.775v-17.11a2.937,2.937,0,0,1,.446-2.212c.406.375.242.868.242,1.313v20.049c0,1.227-.32,1.563-1.563,1.563q-77.271-.047-154.55,0c-1.2,0-1.563-.3-1.563-1.563.063-6.738,0-13.475.039-20.2,0-.571-.274-1.3.625-1.516a4.822,4.822,0,0,1,1.97-.25H154.621A3.064,3.064,0,0,1,156.427,229.822Z" transform="translate(0.07 -50.115)" fill="#ed8186"/>
          <path id="Path_1219" data-name="Path 1219" d="M197.529,149c.367.328.344.719.352,1.2,0,1.97-.313,3.955.266,5.9l-.3.32a71.742,71.742,0,0,1-10.841,3.244c-.4.07-.782.086-1.212.125a1.8,1.8,0,0,1-.438-1.415c-.047-1.829,0-3.666-.039-5.471,0-.414,0-.821.485-1.032A86.27,86.27,0,0,0,197.529,149Z" transform="translate(-40.415 -32.526)" fill="#d1d1d1"/>
          <path id="Path_1220" data-name="Path 1220" d="M156.625,229.778c-.563,0-1.133.047-1.7.047H2.528c-.563,0-1.126-.039-1.688-.055v-.242h.313a3.345,3.345,0,0,1,1.665-.141H154.945a3.346,3.346,0,0,1,1.665.141Z" transform="translate(-0.129 -50.07)" fill="#f0fefc"/>
          <path id="Path_1221" data-name="Path 1221" d="M251.348,78.972a14.586,14.586,0,0,1,0-6.472A31.419,31.419,0,0,1,251.348,78.972Z" transform="translate(-54.754 -15.82)" fill="#ed0d17"/>
          <path id="Path_1222" data-name="Path 1222" d="M130.24,206.107v4c0,2.517-1.5,3.978-4.041,3.994s-5.026,0-7.543,0a3.814,3.814,0,0,1-4.111-3.971c-.078-2.665-.063-5.338,0-8a3.488,3.488,0,0,1,3.783-3.728q4.221-.07,8.457,0a3.439,3.439,0,0,1,3.463,3.556C130.264,203.34,130.24,204.724,130.24,206.107Z" transform="translate(-24.948 -43.306)" fill="#d0d2d4"/>
          <path id="Path_1223" data-name="Path 1223" d="M23.79,198.4h4a3.464,3.464,0,0,1,3.8,3.7q.094,4,0,8A3.8,3.8,0,0,1,27.5,214.1c-2.525.047-5.229.047-7.816,0a3.619,3.619,0,0,1-3.767-3.791c-.047-2.72-.055-5.471,0-8.152.047-2.446,1.446-3.744,3.908-3.76C21.1,198.382,22.43,198.39,23.79,198.4Z" transform="translate(-3.413 -43.311)" fill="#d0d2d4"/>
          <path id="Path_1224" data-name="Path 1224" d="M173.671,187.779h-4.627a3.127,3.127,0,0,1-3.212-3.22q-.062-4.471,0-8.942a3.314,3.314,0,0,1,3.212-3.252c2.986,0,5.964-.039,8.95,0a3.424,3.424,0,0,1,3.533,3.486c.047,2.72.055,5.471,0,8.168-.055,2.493-1.4,3.767-3.853,3.767Z" transform="translate(-36.152 -37.625)" fill="#d0d2d4"/>
          <path id="Path_1225" data-name="Path 1225" d="M41.088,206.128v-4.307a3.244,3.244,0,0,1,3.463-3.424h8.457a3.338,3.338,0,0,1,3.494,3.3c.07,3.025.063,6.05,0,9.075-.047,2.024-1.423,3.275-3.658,3.33-2.775.063-5.542.055-8.309,0a3.361,3.361,0,0,1-3.439-3.509C41.081,209.1,41.088,207.613,41.088,206.128Z" transform="translate(-8.917 -43.312)" fill="#d0d2d4"/>
          <path id="Path_1226" data-name="Path 1226" d="M148.016,187.779H143.7a3.345,3.345,0,0,1-3.517-3.3c-.078-2.923-.07-5.854,0-8.785a3.33,3.33,0,0,1,3.463-3.345h8.473a3.412,3.412,0,0,1,3.76,3.7v8.012c0,2.431-1.313,3.7-3.7,3.713Z" transform="translate(-30.546 -37.624)" fill="#d0d2d4"/>
          <path id="Path_1227" data-name="Path 1227" d="M23.669,187.776H19.2a3.127,3.127,0,0,1-3.33-3.252v-8.637a3.361,3.361,0,0,1,3.6-3.541h8.481a3.377,3.377,0,0,1,3.65,3.541c.047,2.72.063,5.471,0,8.16-.047,1.892-1.094,3.994-3.908,3.752C26.35,187.706,25.006,187.776,23.669,187.776Z" transform="translate(-3.409 -37.622)" fill="#d0d2d4"/>
          <path id="Path_1228" data-name="Path 1228" d="M80.995,206.351V210.2c0,2.5-1.258,3.838-3.744,3.908q-4.166.094-8.324,0a3.369,3.369,0,0,1-3.369-3.611v-8.637a3.244,3.244,0,0,1,3.306-3.439q4.4-.1,8.785,0a3.267,3.267,0,0,1,3.338,3.47C81.026,203.374,80.995,204.859,80.995,206.351Z" transform="translate(-14.259 -43.308)" fill="#d0d2d4"/>
          <path id="Path_1229" data-name="Path 1229" d="M105.091,206.364v3.853c0,2.423-1.188,3.8-3.564,3.908-2.876.1-5.753.086-8.6,0a3.338,3.338,0,0,1-3.252-3.564v-8.316c0-2.462,1.352-3.8,3.807-3.814H101.3c2.579,0,3.767,1.3,3.775,3.8Z" transform="translate(-19.527 -43.32)" fill="#d0d2d4"/>
          <path id="Path_1230" data-name="Path 1230" d="M23.681,135.684H19.367a3.338,3.338,0,0,1-3.5-3.306c-.07-2.923-.07-5.854,0-8.778a3.353,3.353,0,0,1,3.611-3.353h8.316c2.282,0,3.666,1.219,3.744,3.541.1,2.767.109,5.542,0,8.309-.078,1.9-1.18,3.838-3.853,3.6C26.355,135.583,25.018,135.684,23.681,135.684Z" transform="translate(-3.398 -26.245)" fill="#d0d2d4"/>
          <path id="Path_1231" data-name="Path 1231" d="M122.346,187.777h-4c-2.4,0-3.689-1.063-3.8-3.439-.125-2.822-.109-5.651,0-8.465.078-2.275,1.516-3.517,3.807-3.525h8.16a3.478,3.478,0,0,1,3.721,3.767v8c0,2.478-1.251,3.65-3.721,3.658Z" transform="translate(-24.94 -37.623)" fill="#d0d2d4"/>
          <path id="Path_1232" data-name="Path 1232" d="M23.73,161.688H19.415a3.361,3.361,0,0,1-3.556-3.408q-.078-4.315,0-8.6a3.33,3.33,0,0,1,3.431-3.392q4.385-.07,8.77,0c2.087,0,3.439,1.446,3.494,3.689.063,2.767.055,5.542,0,8.309a3.283,3.283,0,0,1-3.517,3.424C26.6,161.727,25.16,161.688,23.73,161.688Z" transform="translate(-3.4 -31.927)" fill="#d0d2d4"/>
          <path id="Path_1233" data-name="Path 1233" d="M56.518,154.177v4.471a2.9,2.9,0,0,1-3.126,3.072H44.45a3.083,3.083,0,0,1-3.4-3.431v-8.473c0-2.446,1.126-3.517,3.6-3.525h8.316a3.276,3.276,0,0,1,3.517,3.572C56.534,151.3,56.526,152.738,56.518,154.177Z" transform="translate(-8.91 -31.934)" fill="#d0d2d4"/>
          <path id="Path_1234" data-name="Path 1234" d="M65.553,127.939v-4.463c0-2.04,1.047-3.189,3.08-3.228,3.072-.063,6.151-.055,9.231,0a3.033,3.033,0,0,1,3.126,3.126c.047,3.08.055,6.159,0,9.231a3.189,3.189,0,0,1-3.1,3.072c-3.072.047-6.151.055-9.231,0a3.025,3.025,0,0,1-3.126-3.252C65.538,130.917,65.553,129.424,65.553,127.939Z" transform="translate(-14.255 -26.238)" fill="#d0d2d4"/>
          <path id="Path_1235" data-name="Path 1235" d="M97.332,187.772H92.869a2.907,2.907,0,0,1-3.2-2.962c-.078-3.181-.07-6.362,0-9.544a3.2,3.2,0,0,1,3.056-2.915c3.08-.039,6.159-.047,9.231,0a3.22,3.22,0,0,1,3.127,3.3c0,2.869,0,5.745,0,8.6,0,2.5-1.063,3.51-3.588,3.51Z" transform="translate(-19.514 -37.618)" fill="#d0d2d4"/>
          <path id="Path_1236" data-name="Path 1236" d="M65.558,153.981v-4.455a2.884,2.884,0,0,1,2.962-3.22c3.173-.078,6.362-.063,9.536,0a3.2,3.2,0,0,1,2.915,3.056q.07,4.619,0,9.231a3.033,3.033,0,0,1-3.127,3.126c-3.126.047-6.253,0-9.379,0a2.986,2.986,0,0,1-2.908-2.947C65.534,157.162,65.565,155.575,65.558,153.981Z" transform="translate(-14.259 -31.926)" fill="#d0d2d4"/>
          <path id="Path_1237" data-name="Path 1237" d="M48.819,120.237h4.315a3.126,3.126,0,0,1,3.369,3.33v8.926a3.212,3.212,0,0,1-3.126,3.166c-3.08.047-6.159.055-9.231,0a3.127,3.127,0,0,1-3.126-3.283V123.45a3.056,3.056,0,0,1,3.283-3.212Z" transform="translate(-8.902 -26.243)" fill="#d0d2d4"/>
          <path id="Path_1238" data-name="Path 1238" d="M73.259,187.76H68.639a2.908,2.908,0,0,1-3.072-3.126q0-4.537,0-9.075a3.126,3.126,0,0,1,3.126-3.259c2.978-.047,5.948-.055,8.926,0A3.246,3.246,0,0,1,81,175.856v8.3c0,2.392-1.2,3.556-3.588,3.556Z" transform="translate(-14.262 -37.606)" fill="#d0d2d4"/>
          <path id="Path_1239" data-name="Path 1239" d="M97.515,161.685H92.9a3.126,3.126,0,0,1-3.236-3.2v-8.942a3.213,3.213,0,0,1,3.181-3.275c3.033-.039,6.065-.047,9.1,0a3.041,3.041,0,0,1,3.127,3.127q.07,4.776,0,9.559a2.743,2.743,0,0,1-2.767,2.736C100.7,161.755,99.11,161.685,97.515,161.685Z" transform="translate(-19.525 -31.923)" fill="#d0d2d4"/>
          <path id="Path_1240" data-name="Path 1240" d="M48.55,187.782H44.243a2.908,2.908,0,0,1-3.126-3.033q-.094-4.69,0-9.379a3.127,3.127,0,0,1,3.259-3h8.6a3.33,3.33,0,0,1,3.509,3.291c.078,3.025.07,6.058,0,9.082A3.048,3.048,0,0,1,53.3,187.79C51.739,187.814,50.145,187.782,48.55,187.782Z" transform="translate(-8.914 -37.628)" fill="#d0d2d4"/>
          <path id="Path_1241" data-name="Path 1241" d="M105.689,130.114c-1.008.258-.571,1.086-.586,1.665-.055,2.759-1.149,3.908-3.908,3.908H93.23a3.277,3.277,0,0,1-3.58-3.5V123.72c0-2.251,1.258-3.447,3.556-3.47h4.158a6.777,6.777,0,0,0,2.509.227c.836.532,1.016,1.485,1.469,2.267,1.2,2.056,2.47,4.072,3.7,6.112C105.251,129.278,105.869,129.5,105.689,130.114Z" transform="translate(-19.523 -26.248)" fill="#d0d2d4"/>
          <path id="Path_1242" data-name="Path 1242" d="M130.269,152.618v5.237a3.418,3.418,0,0,1-3.752,3.7h-8.473a3.244,3.244,0,0,1-3.47-3.306c-.07-2.829-.078-5.659,0-8.481.063-2.345,1.477-3.572,3.861-3.674.649,0,1.563.571,1.954-.578.571-.156.633.453.969.641a84.944,84.944,0,0,0,8.387,5.8,1.7,1.7,0,0,1,.524.664Z" transform="translate(-24.953 -31.759)" fill="#d0d2d4"/>
          <path id="Path_1243" data-name="Path 1243" d="M127,145.586a.727.727,0,0,1-.641-.32,7.339,7.339,0,0,0,.141-2.736,3.041,3.041,0,0,0-3.244-3c-1.845-.055-3.681.063-5.518-.133l-.649-.922c-2.1-1.157-3.517-3.08-5.127-4.76a32.963,32.963,0,0,1-4.111-5.12l-.914-.922c-.164-1.821-.086-3.642-.125-5.471-.047-2.017-.946-2.931-3-3.041a10.941,10.941,0,0,1-1.821-.133c-.9.524-1.657-.055-2.454-.3h.914c1.258.117,1.376-.375.86-1.407s-1-2.345-1.493-3.494l.2-.2a17.5,17.5,0,0,1,5.745-.172,102.265,102.265,0,0,0,5.784,8.692,48.123,48.123,0,0,1,.18,6.456,15.093,15.093,0,0,0,.109,2.306,3.017,3.017,0,0,0,3.127,2.767c2.259.063,4.518,0,6.784,0a6.675,6.675,0,0,1,2.564.422c2.876,1.79,5.792,3.517,8.825,5.034a.524.524,0,0,1,0,.7c-1.563,1.43-1.438,3.3-1.415,5.159a5.526,5.526,0,0,1-.25,2.572,2.132,2.132,0,0,1-.2.18Z" transform="translate(-21.68 -24.727)" fill="#d1d1d1"/>
          <path id="Path_1244" data-name="Path 1244" d="M40.2,63.784c.133-1.438-.3-2.915.281-4.322a11.771,11.771,0,0,1-5.6,20.971A11.545,11.545,0,0,1,22.508,73.64C20.163,68.52,21.593,63.1,26,59.43c.649,1.415.164,2.908.3,4.361-.782,2.157-1.774,4.221-1.2,6.667A8.324,8.324,0,0,0,41.525,68.9C41.6,67.137,40.759,65.5,40.2,63.784Z" transform="translate(-4.616 -12.966)" fill="#bcbdc1"/>
          <path id="Path_1245" data-name="Path 1245" d="M181.406,152.68v7.949l-.313.3c-1.7,1.063-3.674.868-5.526,1.047-2.54.242-5.112.07-7.668.063a3.532,3.532,0,0,1-1.61-.446h0a1.751,1.751,0,0,1-1.016-1.438,53.515,53.515,0,0,1,0-6.433,1.157,1.157,0,0,1,.406-.782,70.939,70.939,0,0,0,15.726-.266Z" transform="translate(-36.016 -33.33)" fill="#b5b7b8"/>
          <path id="Path_1246" data-name="Path 1246" d="M97.645,109.6H93.026a3.259,3.259,0,0,1-3.377-3.408c0-2.775,0-5.542,0-8.316,0-2.493.993-3.549,3.447-3.7a2.736,2.736,0,0,0,1.172-.32.946.946,0,0,1,.3.414,72.69,72.69,0,0,0,3.072,14.116,1.516,1.516,0,0,1,.039,1.2Z" transform="translate(-19.522 -20.485)" fill="#d0d2d4"/>
          <path id="Path_1247" data-name="Path 1247" d="M155.623,162a3.509,3.509,0,0,1-3.7,2.165c-2.72-.109-5.471,0-8.176,0a3.33,3.33,0,0,1-3.572-3.541v-3.236l.047-.039a2.173,2.173,0,0,1,1.618.313,58.488,58.488,0,0,0,12.209,3.689,3.768,3.768,0,0,1,1.454.485,1.832,1.832,0,0,0,.117.164Z" transform="translate(-30.555 -34.34)" fill="#d1d3d4"/>
          <path id="Path_1248" data-name="Path 1248" d="M156.715,229.475H1.25c.453-.508,1.063-.3,1.6-.3H155.12C155.66,229.178,156.262,228.975,156.715,229.475Z" transform="translate(-0.218 -50.026)" fill="#f1eded"/>
          <path id="Path_1249" data-name="Path 1249" d="M95.493,87.657v-.32a55.19,55.19,0,0,1,2.345-22.315,5.893,5.893,0,0,1,.383-.782c-.149,2.681-.782,5.331-.571,8.035a9.427,9.427,0,0,1,0,3.377c-.164,3.908.625,7.636,1.235,11.42.274.578-.07.782-.539.782A13.979,13.979,0,0,1,95.493,87.657Z" transform="translate(-20.738 -14.017)" fill="#d1d1d0"/>
          <path id="Path_1250" data-name="Path 1250" d="M164.489,152.811v6.55a3.189,3.189,0,0,0,.617,2.126l-5.2-.6-.039-.047a78.461,78.461,0,0,1-.141-8.137c0-.3.086-.633.531-.555Z" transform="translate(-34.818 -33.211)" fill="#d1d1d1"/>
          <path id="Path_1251" data-name="Path 1251" d="M166.59,163.9a97.61,97.61,0,0,0,14.8-.664,3.2,3.2,0,0,1-3.439,2.2c-2.751-.07-5.471-.055-8.262,0a3.283,3.283,0,0,1-3.1-1.54Z" transform="translate(-36.324 -35.636)" fill="#d0d2d3"/>
          <path id="Path_1252" data-name="Path 1252" d="M159.9,7.51A54.057,54.057,0,1,1,105.85,61.239C105.865,31.678,130.2,7.479,159.9,7.51Z" transform="translate(-23.06 -1.628)" fill="#fefefe"/>
          <path id="Path_1253" data-name="Path 1253" d="M155.963,150.868c0,2.259-.055,4.518-.078,6.777a3.306,3.306,0,0,1-.313,1.915,53.379,53.379,0,0,1-12.889-3.509c-.852-.336-1.673-.782-2.5-1.126,0-1.126.078-2.259,0-3.377a5.807,5.807,0,0,1,1.876-5.2,74.252,74.252,0,0,0,13.905,4.518Z" transform="translate(-30.543 -31.947)" fill="#b5b7b8"/>
          <path id="Path_1254" data-name="Path 1254" d="M95.57,94.027a4.913,4.913,0,0,1,2.642-.274c.352,0,.7.2.782-.344a71.315,71.315,0,0,0,5.893,15.7c-1.931.7-3.908.211-5.9.328A54.244,54.244,0,0,1,95.57,94.027Z" transform="translate(-20.815 -20.387)" fill="#b5b7b8"/>
          <path id="Path_1255" data-name="Path 1255" d="M127.582,136.569c-3.33,0-6.667.086-10,.039A2.767,2.767,0,0,1,114.8,134.2a30.132,30.132,0,0,1,0-9.591,71.98,71.98,0,0,0,12.78,11.959Z" transform="translate(-24.932 -27.2)" fill="#b5b7b8"/>
          <path id="Path_1256" data-name="Path 1256" d="M98.36,77.857V74.48a4.229,4.229,0,0,1,0,3.377Z" transform="translate(-21.425 -16.253)" fill="#ef1119"/>
          <path id="Path_1257" data-name="Path 1257" d="M35.034,33.468c-2.478,1.516-3.259,3.814-3.236,6.613.063,7,.094,13.983,0,20.971-.055,3.126.43,5.807,3.4,7.707a3.963,3.963,0,0,1-4.143-1.923A7.863,7.863,0,0,1,29.68,62.5V39.675c0-3.126,1.8-5.8,4.244-6.456C34.331,33.109,34.706,32.945,35.034,33.468Z" transform="translate(-6.427 -7.217)" fill="#f0f1f1"/>
          <path id="Path_1258" data-name="Path 1258" d="M41.073,65a8.223,8.223,0,0,1,.367,9.614,8.66,8.66,0,0,1-9.168,3.908,8.8,8.8,0,0,1-6.667-6.894,7.652,7.652,0,0,1,1.563-6.6v4.768a6.847,6.847,0,0,0,6.949,6.933,6.964,6.964,0,0,0,6.949-6.917C41.089,68.212,41.073,66.626,41.073,65Z" transform="translate(-5.494 -14.183)" fill="#fdfdfd"/>
          <path id="Path_1259" data-name="Path 1259" d="M157.495,230.338c0,7-.063,13.983,0,20.971,0,1.227-.242,1.649-1.563,1.649Q79,252.9,2.053,252.9c-.524,0-1.43.516-1.563-.649a.782.782,0,0,1,.492-.149H154.235c.782,0,1.665.344,2.267-.492a5.8,5.8,0,0,0,.18-1.829c0-6.253.047-12.561-.047-18.845a.977.977,0,0,1,.227-.539l.633-.07Z" transform="translate(-0.052 -50.287)" fill="#ea1017"/>
          <path id="Path_1260" data-name="Path 1260" d="M.752,252.255H.47c0-6.933,0-13.874-.07-20.815,0-.922.352-1.172,1.18-1.094a9.053,9.053,0,0,0,.922,0H155c.617,0,1.227,0,1.845.055v.25a1.212,1.212,0,0,1-.516.328,13.648,13.648,0,0,1-2.767.109H3.886c-.836,0-1.782-.3-2.423.563a5.3,5.3,0,0,0-.211,2.126c0,5.229,0,10.45,0,15.632A7.769,7.769,0,0,1,1.1,251.7a1.133,1.133,0,0,1-.344.555Z" transform="translate(-0.033 -50.287)" fill="#f00d19"/>
          <path id="Path_1261" data-name="Path 1261" d="M102.66,120.543c2.439-1.016,5.737.234,5.307,3.416a28.217,28.217,0,0,0,0,4.737c0,.352-.117.446-.4.485C105.958,126.3,104.075,123.561,102.66,120.543Z" transform="translate(-22.364 -26.236)" fill="#b5b7b8"/>
          <path id="Path_1262" data-name="Path 1262" d="M122.82,146.565a15.859,15.859,0,0,1,6.933-.125c2.228.383,3.252,4.51,1.688,6a102.678,102.678,0,0,1-8.621-5.87Z" transform="translate(-26.766 -31.896)" fill="#b5b6b8"/>
          <path id="Path_1263" data-name="Path 1263" d="M174.78,64.234q6.816-9.708,13.632-19.4c2.392-3.4,4.807-6.785,7.207-10.161.555-.782,1.141-1.626,2.228-.883s.586,1.563,0,2.407q-9.4,14.108-18.806,28.318a3.95,3.95,0,0,0-.219.4,1.36,1.36,0,0,1-2.032.6A6.472,6.472,0,0,1,174.78,64.234Z" transform="translate(-38.113 -7.304)" fill="#6c6e71"/>
          <path id="Path_1264" data-name="Path 1264" d="M178.4,76.6l12.858,9.755c2,1.516,4.01,3.033,6.026,4.518.735.547,1.274,1.172.68,2.056s-1.469.7-2.275.149q-9.8-6.784-19.611-13.546C176.916,78.6,177.409,77.4,178.4,76.6Z" transform="translate(-38.397 -16.716)" fill="#6c6e71"/>
          <path id="Path_1265" data-name="Path 1265" d="M169.4,75.766c-.516,1.172-.977,2.407-2.345,2.931l-.633.1a1.43,1.43,0,0,1-1.563-.047,3.963,3.963,0,0,0-2.7-.7c-8.34,2.54-16.68,5.088-25.012,7.582-.719.211-1.884,1.212-2.251,0s1.157-1.024,1.876-1.266c8.668-2.869,17.36-5.667,26.052-8.488.4-1.352.719-2.775,2.478-3.009l.782-.086c.539.164,1.219.18,1.563.524a1.735,1.735,0,0,0,2.462.156c.672-.063,1.227.063,1.321.868s-.446.93-1.008,1.079C170.067,75.531,169.739,75.656,169.4,75.766Z" transform="translate(-29.391 -15.881)" fill="#ed1d26"/>
          <path id="Path_1266" data-name="Path 1266" d="M172.923,134.314a20.753,20.753,0,0,0,0-2.611c-.156-1.329.391-1.563,1.626-1.563s1.618.266,1.563,1.563a45.82,45.82,0,0,0,0,5.675c.078,1.274-.406,1.563-1.563,1.493-1.032-.039-1.8,0-1.618-1.423A25.014,25.014,0,0,0,172.923,134.314Z" transform="translate(-37.702 -28.408)" fill="#6c6e71"/>
          <path id="Path_1267" data-name="Path 1267" d="M176.052,16.439a19.261,19.261,0,0,0,.063,2.626c.188,1.438-.383,1.837-1.766,1.759-1.008-.055-1.454-.211-1.4-1.344a59.515,59.515,0,0,0,0-6.136c-.078-1.493.883-1.126,1.688-1.188s1.61,0,1.485,1.243A20.641,20.641,0,0,0,176.052,16.439Z" transform="translate(-37.712 -2.639)" fill="#6c6e71"/>
          <path id="Path_1268" data-name="Path 1268" d="M110.534,77.58c.125-.938-.782-2.063.477-2.814a48.619,48.619,0,0,1,7.816,0h0a6.254,6.254,0,0,1,0,2.814h0A49.524,49.524,0,0,1,110.534,77.58Z" transform="translate(-24.04 -16.281)" fill="#6d6e72"/>
          <path id="Path_1269" data-name="Path 1269" d="M227.907,108.3c-2.345-1.368-4.69-2.689-6.988-4.166-.453-.289.274-.86.469-1.3s.516-.375.883-.156c2.079,1.212,4.174,2.407,6.253,3.611.344.2.61.406.32.836S228.485,108.107,227.907,108.3Z" transform="translate(-48.157 -22.375)" fill="#6e6f73"/>
          <path id="Path_1270" data-name="Path 1270" d="M201.974,122.539c.641-.039.711.32.852.563,1.165,1.993,2.275,4.01,3.478,5.979.524.86-.086,1.016-.586,1.368s-.852.281-1.18-.313c-1.094-1.97-2.251-3.908-3.361-5.87a1.165,1.165,0,0,1,.8-1.727Z" transform="translate(-43.843 -26.747)" fill="#6e6f72"/>
          <path id="Path_1271" data-name="Path 1271" d="M142.767,130.76a1.133,1.133,0,0,1-.6-1.782c1.071-1.868,2.2-3.7,3.212-5.589.438-.782.782-.782,1.563-.391.868.453.532.9.211,1.454-1.086,1.852-2.142,3.728-3.236,5.573C143.736,130.306,143.673,130.815,142.767,130.76Z" transform="translate(-30.94 -26.792)" fill="#6e6f73"/>
          <path id="Path_1272" data-name="Path 1272" d="M202.66,28.515c-1.282.039-1.907-.961-1.477-1.712,1.079-1.915,2.2-3.8,3.267-5.721.375-.68.711-.821,1.423-.4s.782.782.367,1.446c-1.141,1.876-2.212,3.791-3.322,5.69a3.987,3.987,0,0,0-.258.7Z" transform="translate(-43.849 -4.453)" fill="#6e6f72"/>
          <path id="Path_1273" data-name="Path 1273" d="M119.627,108.284c-.563-.156-.594-.782-.891-1.141s0-.633.32-.782c2.087-1.2,4.182-2.392,6.253-3.627.6-.36.852-.07,1.04.4s.868.829.109,1.282c-2.165,1.266-4.354,2.509-6.534,3.76a2.621,2.621,0,0,1-.3.109Z" transform="translate(-25.848 -22.388)" fill="#6d6e72"/>
          <path id="Path_1274" data-name="Path 1274" d="M125.682,49.252l-.532-.3c-1.954-1.126-3.908-2.345-5.87-3.361-.829-.438-.6-.829-.281-1.423s.61-.782,1.282-.383c1.97,1.2,3.986,2.345,5.979,3.486.367.2.782.391.406.914C126.377,48.6,126.346,49.19,125.682,49.252Z" transform="translate(-25.868 -9.503)" fill="#6d6e72"/>
          <path id="Path_1275" data-name="Path 1275" d="M229.013,44.8c0,.485-.36.555-.61.7-1.993,1.157-4.01,2.275-5.979,3.47-.782.453-.938,0-1.274-.485s-.414-.93.281-1.313c1.978-1.086,3.908-2.251,5.87-3.361.274-.156.586-.594.93-.227a8.118,8.118,0,0,1,.782,1.212Z" transform="translate(-48.185 -9.476)" fill="#6d6f72"/>
          <path id="Path_1276" data-name="Path 1276" d="M147.527,27.433c-.047.617-.688.625-1.055.922s-.617.211-.852-.211q-1.821-3.2-3.689-6.386c-.3-.516-.086-.782.344-.938s.875-.9,1.3-.211c1.337,2.189,2.587,4.424,3.908,6.644C147.464,27.3,147.488,27.339,147.527,27.433Z" transform="translate(-30.908 -4.426)" fill="#6d6e72"/>
          <path id="Path_1277" data-name="Path 1277" d="M228.56,77.356v-.3c.36-2,.36-2,2.532-2h4.784c.782,0,1.016.352,1.008,1.032s.1,1.563-.836,1.563C233.547,77.606,231.038,78.012,228.56,77.356Z" transform="translate(-49.857 -16.377)" fill="#6d6e71"/>
          <path id="Path_1278" data-name="Path 1278" d="M172.4,72.412c-1.4.532-1.641,2.017-2.478,3.009-.446-.344-.883-.7-1.337-1.024-1.376-1-1.438-1.516-.438-2.892.743-1.024,1.563-1.3,2.572-.422C171.268,71.545,171.839,71.974,172.4,72.412Z" transform="translate(-36.516 -15.396)" fill="#6d6e71"/>
          <path id="Path_1279" data-name="Path 1279" d="M169.618,79.4a1.694,1.694,0,0,1,2.423.172,2.783,2.783,0,0,0,1.852.578c-.266.43-.516.868-.782,1.29-1.157,1.743-1.61,1.931-2.837,1.172C168.712,81.66,168.626,81.206,169.618,79.4Z" transform="translate(-36.844 -17.234)" fill="#6d6e71"/>
          <path id="Path_1280" data-name="Path 1280" d="M228.557,77.282h6.886c.86,0,1.172-.289,1.165-1.157s-.391-1.04-1.133-1.024c-1.837,0-3.681.1-5.471,0-1.626-.109-.727,1.423-1.407,1.884-.141-2.275-.141-2.275,2.024-2.275h5.675c.7,0,.977.258.829.883-.18.782.61,2.071-.618,2.165-2.54.2-5.1.047-7.652,0C228.572,77.766,228.557,77.5,228.557,77.282Z" transform="translate(-49.854 -16.303)" fill="#626366"/>
          <path id="Path_1281" data-name="Path 1281" d="M110.59,78.41h8.34a28.67,28.67,0,0,1-8.34,0Z" transform="translate(-24.095 -17.111)" fill="#78797d"/>
          <path id="Path_1282" data-name="Path 1282" d="M119.046,74.8H111.23a33.718,33.718,0,0,1,7.816,0Z" transform="translate(-24.235 -16.272)" fill="#78797d"/>
          <path id="Path_1283" data-name="Path 1283" d="M121.25,77.664V74.85A3.7,3.7,0,0,1,121.25,77.664Z" transform="translate(-26.423 -16.334)" fill="#78797d"/>
          <path id="Path_1284" data-name="Path 1284" d="M156.628,230.76h.313a3.462,3.462,0,0,1,.313,1.938q0,9.684,0,19.353a1.352,1.352,0,0,1-.852.289q-37.784.047-75.567,0H3.1a3.528,3.528,0,0,1-2.251-.3V231.37a.914.914,0,0,1,.9-.422H154.658A4.2,4.2,0,0,0,156.628,230.76Z" transform="translate(-0.131 -50.381)" fill="#ed1d25"/>
          <path id="Path_1285" data-name="Path 1285" d="M156.721,258h.61a.625.625,0,0,1-.727.61H1.249c-.039-.336.164-.43.461-.446h153.2a3.7,3.7,0,0,0,1.813-.164Z" transform="translate(-0.217 -56.329)" fill="#ed1d2a"/>
          <path id="Path_1286" data-name="Path 1286" d="M156.642,258c-.563.555-1.274.3-1.907.3H3.1c-.641,0-1.344-.258-1.907.289l-.313-.3V258Z" transform="translate(-0.137 -56.329)" fill="#ec1c1f"/>
          <path id="Path_1287" data-name="Path 1287" d="M156.623,230.758c-.563.547-1.274.289-1.907.289H3.081a3.979,3.979,0,0,0-2.251.3c.047-.336.2-.578.571-.594s.821,0,1.235,0Z" transform="translate(-0.126 -50.379)" fill="#e82126"/>
          <path id="Path_1288" data-name="Path 1288" d="M176.039,76.33a1.563,1.563,0,0,1-3.08-.117,1.415,1.415,0,0,1,1.563-1.485A1.441,1.441,0,0,1,176.039,76.33Z" transform="translate(-37.715 -16.305)" fill="#6f6b6e"/>
        </g>
      </g>
    </g>
  </g>
</svg>
