<svg xmlns="http://www.w3.org/2000/svg" xmlns:xlink="http://www.w3.org/1999/xlink" width="200.5" height="200.5" viewBox="0 0 200.5 200.5">
  <defs>
    <clipPath id="clip-path">
      <rect id="Rectangle_108" data-name="Rectangle 108" width="199.867" height="119.63" fill="none"/>
    </clipPath>
    <clipPath id="clip-path-2">
      <rect id="Rectangle_72" data-name="Rectangle 72" width="298.198" height="119.63" fill="none"/>
    </clipPath>
    <linearGradient id="linear-gradient" x1="0.5" y1="0.448" x2="0.5" y2="0.013" gradientUnits="objectBoundingBox">
      <stop offset="0" stop-color="#c9e7e2"/>
      <stop offset="1" stop-color="#a4dce9"/>
    </linearGradient>
    <linearGradient id="linear-gradient-2" x1="-2.869" y1="0.053" x2="-2.658" y2="0.426" gradientUnits="objectBoundingBox">
      <stop offset="0" stop-color="#fff"/>
      <stop offset="1" stop-color="#fff" stop-opacity="0"/>
    </linearGradient>
    <linearGradient id="linear-gradient-3" x1="-2.117" y1="0.031" x2="-1.824" y2="0.479" xlink:href="#linear-gradient-2"/>
    <linearGradient id="linear-gradient-4" x1="0.04" y1="0.057" x2="0.474" y2="0.837" xlink:href="#linear-gradient-2"/>
    <linearGradient id="linear-gradient-5" x1="2.332" y1="0.044" x2="2.842" y2="0.596" xlink:href="#linear-gradient-2"/>
    <linearGradient id="linear-gradient-6" x1="0.594" y1="0.048" x2="1.138" y2="0.587" xlink:href="#linear-gradient-2"/>
    <linearGradient id="linear-gradient-7" x1="2.914" y1="0.011" x2="3.168" y2="0.477" xlink:href="#linear-gradient-2"/>
    <clipPath id="clip-path-3">
      <path id="Path_1694" data-name="Path 1694" d="M757.389,441.73l-.745-7.818-.36-5.08-1.21-4.149-6.531-1.013-8.076,1.384-.387,1.568,1.553,14.523,7.79.584-.106-9.039,1.2,5.6-.049,3.436Z" transform="translate(-740.08 -423.67)" fill="none"/>
    </clipPath>
  </defs>
  <g id="Group_48" data-name="Group 48" transform="translate(-491.5 -438.5)">
    <g id="Group_47" data-name="Group 47" transform="translate(77 -746)">
      <rect id="Rectangle_116" data-name="Rectangle 116" width="200" height="200" transform="translate(415 1185)" fill="#b9e2e4"/>
      <g id="Group_42" data-name="Group 42" transform="translate(340 425)">
        <g id="Group_31" data-name="Group 31" transform="translate(75 785)">
          <g id="Layer_2" data-name="Layer 2" transform="translate(0 0)">
            <g id="Layer_4" data-name="Layer 4" transform="translate(0 0)">
              <g id="Group_29" data-name="Group 29" clip-path="url(#clip-path)">
                <g id="Group_16" data-name="Group 16" transform="translate(-21.166 4.538)" clip-path="url(#clip-path-2)">
                  <path id="Path_1828" data-name="Path 1828" d="M21.266-29.838h199.2L298.2,119.63H0Z" fill="url(#linear-gradient)"/>
                  <path id="Path_1554" data-name="Path 1554" d="M1391.389,0l-46.143,118.34H1308.51L1357.141,0Z" transform="translate(-1093.191)" opacity="0.34" fill="url(#linear-gradient-2)"/>
                  <path id="Path_1555" data-name="Path 1555" d="M1170,0l-53.464,118.34H1097.39L1156.736,0Z" transform="translate(-922.104)" opacity="0.34" fill="url(#linear-gradient-3)"/>
                  <path id="Path_1556" data-name="Path 1556" d="M740.29,0,681.42,118.34H642.05L703.7,0Z" transform="translate(-553.107)" opacity="0.34" fill="url(#linear-gradient-4)"/>
                  <path id="Path_1557" data-name="Path 1557" d="M267.215,0,210.724,118.34H191.58L250.926,0Z" transform="translate(-188.057)" opacity="0.34" fill="url(#linear-gradient-5)"/>
                  <path id="Path_1558" data-name="Path 1558" d="M632.362,0l-60.85,118.34H563.15L622.5,0Z" transform="translate(-489.169)" opacity="0.34" fill="url(#linear-gradient-6)"/>
                  <path id="Path_1559" data-name="Path 1559" d="M87.232,0,22.963,118.34H0L71.183,0Z" transform="translate(-32.805)" opacity="0.34" fill="url(#linear-gradient-7)"/>
                  <path id="Path_1560" data-name="Path 1560" d="M471.2,354.143V287.824s-31.656-3.322-57.042.129-68.845,4.718-86.633-.129-64.449-6.371-88.254,1.39S173,283.842,173,283.842v70.3Z" transform="translate(-173 -234.515)" fill="#8ec9ce"/>
                  <path id="Path_1561" data-name="Path 1561" d="M471.2,407.531V352.99s-31.656-2.732-57.042.106-68.845,3.88-86.633-.106-64.455-5.241-88.254,1.138S173,349.715,173,349.715v57.816Z" transform="translate(-173 -287.904)" fill="#a5d0d6"/>
                  <path id="Path_1562" data-name="Path 1562" d="M471.2,463.458V421.251s-31.656-2.114-57.042.082-68.845,3-86.633-.082-64.449-4.056-88.254.886S173,418.724,173,418.724v44.734Z" transform="translate(-173 -343.83)" fill="#bfdade"/>
                  <path id="Path_1563" data-name="Path 1563" d="M471.2,516.728H173V495.376s28.692-10.956,127.427-10.956,170.761,8.12,170.761,8.12Z" transform="translate(-173 -397.1)" fill="#ffe3ac"/>
                  <path id="Path_1564" data-name="Path 1564" d="M173,569.61s38.348,5.444,150.771,5.444S471.2,569.61,471.2,569.61v16.154H173Z" transform="translate(-173 -466.136)" fill="#fcc787"/>
                  <circle id="Ellipse_58" data-name="Ellipse 58" cx="12.049" cy="12.049" r="12.049" transform="matrix(0.159, -0.987, 0.987, 0.159, 129.708, 34.967)" fill="#ffd600"/>
                  <circle id="Ellipse_59" data-name="Ellipse 59" cx="8.423" cy="8.423" r="8.423" transform="translate(135.105 16.565)" fill="#faac18"/>
                  <path id="Path_1565" data-name="Path 1565" d="M927.538,53.278a.833.833,0,1,0-1.648.011l.03,3.806a.832.832,0,1,0,1.648,0Z" transform="translate(-783.125 -46.945)" fill="#ffd600"/>
                  <path id="Path_1566" data-name="Path 1566" d="M927.538,229.068a.833.833,0,1,0-1.648.009l.03,3.806a.833.833,0,1,0,1.648-.009Z" transform="translate(-783.125 -189.401)" fill="#ffd600"/>
                  <path id="Path_1567" data-name="Path 1567" d="M984.885,82.756a.829.829,0,1,0-1.178-1.138l-2.67,2.712a.832.832,0,1,0,1.177,1.153Z" transform="translate(-827.572 -70.417)" fill="#ffd600"/>
                  <path id="Path_1568" data-name="Path 1568" d="M860.565,207.083a.833.833,0,1,0-1.178-1.155l-2.674,2.712a.833.833,0,1,0,1.177,1.155Z" transform="translate(-726.822 -171.165)" fill="#ffd600"/>
                  <path id="Path_1569" data-name="Path 1569" d="M1007.974,152.528a.832.832,0,1,0,0-1.648l-3.806.028a.833.833,0,1,0,.009,1.65Z" transform="translate(-845.791 -126.807)" fill="#ffd600"/>
                  <path id="Path_1570" data-name="Path 1570" d="M832.143,152.528a.833.833,0,1,0-.009-1.648l-3.806.028a.833.833,0,1,0,0,1.65Z" transform="translate(-703.294 -126.807)" fill="#ffd600"/>
                  <path id="Path_1571" data-name="Path 1571" d="M983.65,209.872a.833.833,0,1,0,1.155-1.178l-2.712-2.67a.833.833,0,1,0-1.155,1.178Z" transform="translate(-827.482 -171.251)" fill="#ffd600"/>
                  <path id="Path_1572" data-name="Path 1572" d="M859.345,85.564a.833.833,0,1,0,1.155-1.178l-2.714-2.672a.832.832,0,1,0-1.153,1.176Z" transform="translate(-726.747 -70.513)" fill="#ffd600"/>
                  <path id="Path_1573" data-name="Path 1573" d="M306.372,536.132c-2.19,1.877,16.8,4.9,21.7.466S311.279,531.928,306.372,536.132Z" transform="translate(-280.94 -436.566)" fill="#fcc787"/>
                  <path id="Path_1574" data-name="Path 1574" d="M437.828,554.729c-2.465,2.476,4.667,4.433,7.932,2.1S441.331,551.231,437.828,554.729Z" transform="translate(-387.199 -452.835)" fill="#fcc787"/>
                  <path id="Path_1575" data-name="Path 1575" d="M1044.529,562.261c-3.74,2.118,7.05,3.792,11.986,1.8S1049.817,559.265,1044.529,562.261Z" transform="translate(-878.641 -459.117)" fill="#fcc787"/>
                  <path id="Path_1576" data-name="Path 1576" d="M780.212,511.826c-6.447,3.337,12.832,3.5,17.732,1.166S786.978,508.327,780.212,511.826Z" transform="translate(-664.013 -417.864)" fill="#fcc787"/>
                  <path id="Path_1577" data-name="Path 1577" d="M655.887,539.662c-4.248,2.624,11.781,4.741,14.5,1.307S660.641,536.725,655.887,539.662Z" transform="translate(-563.743 -440.408)" fill="#fcc787"/>
                  <path id="Path_1578" data-name="Path 1578" d="M1141.733,493.625c-13.255.948-20.521,1.82-22.821,7.648-3.034,7.685,82.154,9.034,99.173,5.207C1237.912,502.01,1205.549,489.023,1141.733,493.625Z" transform="translate(-939.481 -403.772)" fill="#fcc787"/>
                  <path id="Path_1579" data-name="Path 1579" d="M941.061,231.2s-.869-3.413.049-4.433,3.6-2.224,4.1-1.441a42.2,42.2,0,0,1,1.752,4.158Z" transform="translate(-795.118 -186.932)" fill="#fff588"/>
                  <path id="Path_1580" data-name="Path 1580" d="M946.876,226.276a35.564,35.564,0,0,1,1.583,3.713l1.741-.506a42.964,42.964,0,0,0-1.752-4.158c-.444-.7-2.655.19-3.768,1.121C945.636,226.022,946.6,225.84,946.876,226.276Z" transform="translate(-798.352 -186.931)" fill="#ffd26c"/>
                  <path id="Path_1581" data-name="Path 1581" d="M1179.65,184.141s2.7-4.906,4.405-6.447,28.567-3.051,31.438-1.574,3.758,8.469,3.493,10.752S1179.65,184.141,1179.65,184.141Z" transform="translate(-988.766 -146.772)" fill="#ffd26c"/>
                  <path id="Path_1582" data-name="Path 1582" d="M1187.936,180.419c1.517-1.367,22.7-2.7,29.557-1.97a4.966,4.966,0,0,0-2-2.391c-2.871-1.477-29.735.028-31.438,1.574s-4.4,6.447-4.4,6.447,2.021.26,5.143.633A23.351,23.351,0,0,1,1187.936,180.419Z" transform="translate(-988.766 -146.721)" fill="#fff588"/>
                  <path id="Path_1583" data-name="Path 1583" d="M890.92,251.489s.173,8.2.99,10.837a18.952,18.952,0,0,0,2.714,5.1s33.814,6.115,39.218,6.273,38.334-3.089,38.334-3.089l15.985-5.391a122.369,122.369,0,0,0,1.872-27.787c-.732-15.356-4.361-22.351-4.98-22.99s-12.229-4.56-46.564-2.145c-27.8,1.955-39.127,7.949-41.7,9.86S891.085,228.611,890.92,251.489Z" transform="translate(-754.786 -175.945)" fill="#e84e41"/>
                  <path id="Path_1584" data-name="Path 1584" d="M1046.8,270.609l15.985-5.391a122.367,122.367,0,0,0,1.872-27.787c-.732-15.356-4.361-22.351-4.979-22.99-.525-.535-8.789-3.385-31.745-2.858,6.948.741,17.43,3.487,20.925,13.12,5.393,14.868-5.414,27.363-28,37.506S983,268.431,983,268.431l5.641,2.38c8.58,1.443,17.3,2.806,19.819,2.888C1013.865,273.858,1046.8,270.609,1046.8,270.609Z" transform="translate(-829.405 -175.948)" fill="#cb4438"/>
                  <path id="Path_1585" data-name="Path 1585" d="M979.269,395.7s-2.238-15.194-1.2-21.443a133.332,133.332,0,0,1,2.768,21.46Z" transform="translate(-825.185 -307.829)" fill="#bf3f34"/>
                  <path id="Path_1586" data-name="Path 1586" d="M1276.245,407.911s-2.238-15.193-1.206-21.441a133.168,133.168,0,0,1,2.771,21.46Z" transform="translate(-1065.846 -317.724)" fill="#bf3f34"/>
                  <path id="Path_1587" data-name="Path 1587" d="M890.2,437.016c-.77.521.527,9.4,1.417,10.579s3.423.758,3.792.758-.082-8.848-.427-10.3S892.289,435.593,890.2,437.016Z" transform="translate(-754.01 -358.13)" fill="#fff57e"/>
                  <path id="Path_1588" data-name="Path 1588" d="M901.307,443.21c.174,1.65.5,5.605-.19,7.615a2.825,2.825,0,0,1-3.127,2.135v.009c.19.083,1.386.59,2.482,1.033.677.009,1.259-.072,1.418-.07.362,0-.082-8.848-.427-10.3A1.707,1.707,0,0,0,901.307,443.21Z" transform="translate(-760.515 -363.705)" fill="#ffd000"/>
                  <path id="Path_1589" data-name="Path 1589" d="M922.651,457.492c-.159.284-.19,4.648.216,4.93s1.574.6,1.849.2a18.193,18.193,0,0,0-.123-5.146C924.375,456.844,922.928,457,922.651,457.492Z" transform="translate(-780.411 -374.928)" fill="#fff57e"/>
                  <path id="Path_1590" data-name="Path 1590" d="M925.451,457.6a.643.643,0,0,0-.514-.379c.209.834.366,4.68.1,5.069-.209.305-.923.19-1.437,0a.484.484,0,0,0,.125.256c.4.275,1.574.6,1.849.2A18.2,18.2,0,0,0,925.451,457.6Z" transform="translate(-781.269 -375.058)" fill="#ffd000"/>
                  <path id="Path_1591" data-name="Path 1591" d="M1386.922,412.694c-.453-.612-4.325-.711-5.19,1.267s-1.464,7.086-1.111,7.871,3.468,1.906,4.678,1.437S1388.226,414.453,1386.922,412.694Z" transform="translate(-1151.544 -338.659)" fill="#ec1c24"/>
                  <path id="Path_1592" data-name="Path 1592" d="M1382.283,414.749c.759-1.726,3.792-1.87,4.866-1.471a1.924,1.924,0,0,0-.267-.584c-.453-.612-4.325-.711-5.19,1.267s-1.464,7.086-1.111,7.871a1.386,1.386,0,0,0,.525.506A22.515,22.515,0,0,1,1382.283,414.749Z" transform="translate(-1151.512 -338.659)" fill="#c2151c"/>
                  <path id="Path_1593" data-name="Path 1593" d="M1384.415,475.161c-.277-.523-3.777-1.246-4.145-.709a2.111,2.111,0,0,0,.157,2.169,9.85,9.85,0,0,0,3.971.1A1.3,1.3,0,0,0,1384.415,475.161Z" transform="translate(-1151.162 -388.869)" fill="#fff"/>
                  <path id="Path_1594" data-name="Path 1594" d="M1380.625,474.988c.328-.478,3.133.042,3.942.531a2.065,2.065,0,0,0-.152-.368c-.277-.523-3.777-1.246-4.145-.709a2.111,2.111,0,0,0,.157,2.169.5.5,0,0,0,.064.032A2.3,2.3,0,0,1,1380.625,474.988Z" transform="translate(-1151.162 -388.861)" fill="#fff100"/>
                  <path id="Path_1595" data-name="Path 1595" d="M895.084,298.234c-.461,1.327-2.264,17.055-1.5,21.111.256,1.356,10.934-.692,12.326-3.565s.391-18.773-.759-20.595S895.645,296.609,895.084,298.234Z" transform="translate(-756.793 -243.311)" fill="#cb4438"/>
                  <path id="Path_1596" data-name="Path 1596" d="M891.623,295.676c-.463,1.327-2.264,17.055-1.5,21.111.256,1.356,10.932-.69,12.326-3.565s.389-18.773-.759-20.593S892.182,294.055,891.623,295.676Z" transform="translate(-753.989 -241.241)" fill="#c4e8fa"/>
                  <path id="Path_1597" data-name="Path 1597" d="M908.221,292.623c-1.153-1.819-9.5,1.428-10.05,3.047a5.681,5.681,0,0,0-.161.732c1.894-1.678,8.544-4.041,9.565-2.437,1.071,1.691,2.008,15.549,1.02,19.8a2.334,2.334,0,0,0,.391-.554C910.372,310.343,909.374,294.441,908.221,292.623Z" transform="translate(-760.531 -241.237)" fill="#91c6eb"/>
                  <path id="Path_1598" data-name="Path 1598" d="M992.644,274.5c-.673.7-.061,13.541,1.284,14.37s9.2.379,9.76-.794-.118-13.725-1.367-15S994.005,273.07,992.644,274.5Z" transform="translate(-836.997 -225.403)" fill="#cb4438"/>
                  <path id="Path_1599" data-name="Path 1599" d="M1076.729,261.42c-.872,1.373.827,15,1.813,15.64s9.917,1.284,10.924.03.9-16.33-.349-17.256S1077.923,259.533,1076.729,261.42Z" transform="translate(-905.165 -214.759)" fill="#cb4438"/>
                  <path id="Path_1600" data-name="Path 1600" d="M995.144,270.878c-.673.7-.061,13.543,1.284,14.372s9.2.379,9.76-.794-.118-13.725-1.367-15S996.513,269.45,995.144,270.878Z" transform="translate(-839.023 -222.469)" fill="#c4e8fa"/>
                  <path id="Path_1601" data-name="Path 1601" d="M1079.229,257.784c-.872,1.375.827,15,1.813,15.64s9.917,1.286,10.924.032.9-16.332-.349-17.256S1080.423,255.9,1079.229,257.784Z" transform="translate(-907.191 -211.816)" fill="#c4e8fa"/>
                  <path id="Path_1602" data-name="Path 1602" d="M1178.921,258.353c-1.238,1.214.463,15.265,1.9,16.093s10.547,1.382,11.925-.679.064-13.9-1.181-15.549S1180.747,256.569,1178.921,258.353Z" transform="translate(-987.828 -212.804)" fill="#cb4438"/>
                  <path id="Path_1603" data-name="Path 1603" d="M1276.107,254.467c-.948,1.138-.611,14.349.825,15.17s10.361,1.832,11.567-.413,1.058-13.892-.011-15.17S1278.212,251.962,1276.107,254.467Z" transform="translate(-1066.499 -209.432)" fill="#f6921e"/>
                  <path id="Path_1604" data-name="Path 1604" d="M1175.166,254.506c-1.24,1.214.461,15.265,1.9,16.093s10.549,1.382,11.926-.679.064-13.905-1.179-15.549S1176.99,252.722,1175.166,254.506Z" transform="translate(-984.785 -209.687)" fill="#c4e8fa"/>
                  <path id="Path_1605" data-name="Path 1605" d="M1272.344,250.617c-.948,1.138-.613,14.349.823,15.17s10.363,1.83,11.567-.413,1.058-13.892-.011-15.17S1274.449,248.112,1272.344,250.617Z" transform="translate(-1063.45 -206.312)" fill="#c4e8fa"/>
                  <path id="Path_1606" data-name="Path 1606" d="M1005.154,269.453c-1.25-1.278-8.307,0-9.671,1.426a1.966,1.966,0,0,0-.2.882c1.945-1.3,8.154-2.332,9.324-1.138,1.107,1.138,1.76,11.1,1.517,14.182a.9.9,0,0,0,.411-.347C1007.076,283.288,1006.4,270.731,1005.154,269.453Z" transform="translate(-839.357 -222.47)" fill="#91c6eb"/>
                  <path id="Path_1607" data-name="Path 1607" d="M1091.838,256.2c-1.253-.918-11.188-.305-12.388,1.576a2.117,2.117,0,0,0-.19.8c2.148-1.593,10.854-2.065,12.022-1.21,1.106.808,1.316,12.636.658,16.273a.859.859,0,0,0,.247-.19C1093.193,272.209,1093.091,257.128,1091.838,256.2Z" transform="translate(-907.412 -211.819)" fill="#91c6eb"/>
                  <path id="Path_1608" data-name="Path 1608" d="M1176.051,255.262c1.612-1.578,9.257-1.748,11.884-.639a1.809,1.809,0,0,0-.136-.224c-1.246-1.638-10.809-1.655-12.642.129-1.24,1.214.461,15.265,1.9,16.093a2.529,2.529,0,0,0,.5.19C1176.228,268.073,1174.923,256.369,1176.051,255.262Z" transform="translate(-984.777 -209.708)" fill="#91c6eb"/>
                  <path id="Path_1609" data-name="Path 1609" d="M1273.239,251.371c1.845-2.2,9.149-1.832,11.637-.848a1.142,1.142,0,0,0-.159-.288c-1.069-1.276-10.268-2.1-12.373.4-.948,1.138-.613,14.349.823,15.17a2.821,2.821,0,0,0,.531.214C1272.576,263.423,1272.373,252.4,1273.239,251.371Z" transform="translate(-1063.45 -206.333)" fill="#91c6eb"/>
                  <path id="Path_1610" data-name="Path 1610" d="M1370.872,255.444c-.313-.485-4.591-1.225-5.6.389s-2.23,13.609-.622,15.17,7.829,2.255,8.651,1.542S1374.955,261.815,1370.872,255.444Z" transform="translate(-1138.053 -211.059)" fill="#c4e8fa"/>
                  <path id="Path_1611" data-name="Path 1611" d="M1367.51,258.287c-.313-.485-4.593-1.225-5.6.379s-2.228,13.609-.62,15.17,7.83,2.255,8.651,1.542S1371.6,264.653,1367.51,258.287Z" transform="translate(-1135.327 -213.362)" fill="#f6921e"/>
                  <path id="Path_1612" data-name="Path 1612" d="M1370.872,255.444c-.313-.485-4.591-1.225-5.6.389s-2.23,13.609-.622,15.17,7.829,2.255,8.651,1.542S1374.955,261.815,1370.872,255.444Z" transform="translate(-1138.053 -211.059)" fill="#c4e8fa"/>
                  <path id="Path_1613" data-name="Path 1613" d="M1366.073,256.775c.857-1.367,4.062-1.045,5.209-.618q-.19-.347-.41-.683c-.313-.485-4.591-1.225-5.6.389s-2.23,13.609-.622,15.17a2.835,2.835,0,0,0,.478.358C1364.034,268.562,1365.14,258.263,1366.073,256.775Z" transform="translate(-1138.052 -211.083)" fill="#91c6eb"/>
                  <path id="Path_1614" data-name="Path 1614" d="M1024.223,398.607c-.379.279-.307.66.112.9s3.423.641,3.792.343.675-1.014.256-1.327A8.837,8.837,0,0,0,1024.223,398.607Z" transform="translate(-862.611 -327.324)" fill="#41322b"/>
                  <path id="Path_1615" data-name="Path 1615" d="M1028.4,399.128a.69.69,0,0,0-.2-.078,1.286,1.286,0,0,1-.451.9c-.354.288-3.2-.076-3.741-.322a.615.615,0,0,0,.355.48c.417.246,3.423.641,3.792.343S1028.816,399.435,1028.4,399.128Z" transform="translate(-862.631 -327.919)" fill="#342620"/>
                  <path id="Path_1616" data-name="Path 1616" d="M1324.8,386.747c-.379.277-.307.658.11.9s3.425.641,3.792.345.673-1.016.256-1.327A8.732,8.732,0,0,0,1324.8,386.747Z" transform="translate(-1106.193 -317.711)" fill="#41322b"/>
                  <path id="Path_1617" data-name="Path 1617" d="M1328.977,387.25a.655.655,0,0,0-.2-.08,1.278,1.278,0,0,1-.451.9c-.354.29-3.2-.076-3.741-.322a.616.616,0,0,0,.353.48c.419.246,3.425.641,3.792.345S1329.4,387.555,1328.977,387.25Z" transform="translate(-1106.214 -318.291)" fill="#342620"/>
                  <path id="Path_1618" data-name="Path 1618" d="M1071.3,404.353s-2.251-24.7-1.005-28.423c0,0,2.636,22.542,2.446,28.8" transform="translate(-899.842 -309.183)" fill="#bf3f34"/>
                  <path id="Path_1619" data-name="Path 1619" d="M1363.288,384.6s-.19-24.8,1.356-28.407c0,0,.759,22.683.049,28.9" transform="translate(-1137.576 -293.186)" fill="#bf3f34"/>
                  <path id="Path_1620" data-name="Path 1620" d="M904.707,493.858a98.9,98.9,0,0,1-11.049-2.291c-1.559-.5-2.92,2.856.787,5.065s36.279,6.787,51.691,6.476,35.812-2.742,44.258-6.847c1.7-.825-.3-5.541-2.351-5.084S961.116,498.823,942.22,498A323.846,323.846,0,0,1,904.707,493.858Z" transform="translate(-755.718 -402.551)" fill="#fcb813"/>
                  <path id="Path_1621" data-name="Path 1621" d="M989.655,491.177c-.171.04-.506.125-.98.25.237.948.133,1.853-.522,2.171-8.444,4.105-28.844,6.54-44.256,6.849-13.918.279-41.823-3.427-49.837-5.774a5.152,5.152,0,0,0,2,1.959c3.707,2.209,36.279,6.787,51.691,6.476s35.812-2.742,44.258-6.847C993.7,495.436,991.7,490.72,989.655,491.177Z" transform="translate(-757.33 -402.551)" fill="#f6921e"/>
                  <path id="Path_1622" data-name="Path 1622" d="M961.555,475.865c-5.744.569-9.942,4.991-7.754,11.2s8.389,8.761,13.679,3.855S971.408,474.894,961.555,475.865Z" transform="translate(-805.265 -390.119)" fill="#41322b"/>
                  <path id="Path_1623" data-name="Path 1623" d="M982.739,480.91c3.7,3.167,3.32,9.86-.465,13.365-3.167,2.937-6.66,3.2-9.424,1.608,2.9,2.395,6.931,2.524,10.543-.827C987.529,491.224,987.6,483.6,982.739,480.91Z" transform="translate(-821.18 -394.256)" fill="#342620"/>
                  <path id="Path_1624" data-name="Path 1624" d="M983.864,502.786a5.146,5.146,0,1,1-5.091-5.2A5.146,5.146,0,0,1,983.864,502.786Z" transform="translate(-821.764 -407.772)" fill="#342620"/>
                  <circle id="Ellipse_60" data-name="Ellipse 60" cx="5.146" cy="5.146" r="5.146" transform="translate(149.621 97.447) rotate(-68.89)" fill="#fcb813"/>
                  <path id="Path_1625" data-name="Path 1625" d="M983.493,496.134a5.141,5.141,0,0,1-3.576,8.893,5.21,5.21,0,0,1-1.3-.19,5.143,5.143,0,1,0,4.873-8.707Z" transform="translate(-825.856 -406.59)" fill="#f6921e"/>
                  <path id="Path_1626" data-name="Path 1626" d="M985.017,507.627a.948.948,0,1,1-.948-.967A.96.96,0,0,1,985.017,507.627Z" transform="translate(-829.503 -415.123)" fill="#4b3b34"/>
                  <path id="Path_1627" data-name="Path 1627" d="M985.445,507.25a.95.95,0,0,1-1.155,1.473.948.948,0,1,0,1.155-1.473Z" transform="translate(-830.451 -415.601)" fill="#41322b"/>
                  <path id="Path_1628" data-name="Path 1628" d="M1005.077,507.867a.948.948,0,1,1-.948-.967A.958.958,0,0,1,1005.077,507.867Z" transform="translate(-845.759 -415.318)" fill="#4b3b34"/>
                  <path id="Path_1629" data-name="Path 1629" d="M1005.507,507.47a.953.953,0,0,1-.728,1.587.936.936,0,0,1-.429-.112.948.948,0,1,0,1.157-1.473Z" transform="translate(-846.707 -415.78)" fill="#41322b"/>
                  <path id="Path_1630" data-name="Path 1630" d="M984.787,527.577a.948.948,0,1,1-.271-.683A.948.948,0,0,1,984.787,527.577Z" transform="translate(-829.317 -431.29)" fill="#4b3b34"/>
                  <path id="Path_1631" data-name="Path 1631" d="M985.225,527.19a.948.948,0,0,1-1.155,1.475.948.948,0,1,0,1.155-1.475Z" transform="translate(-830.272 -431.76)" fill="#41322b"/>
                  <path id="Path_1632" data-name="Path 1632" d="M1004.9,527.8a.948.948,0,1,1-.271-.683.948.948,0,0,1,.271.683Z" transform="translate(-845.614 -431.468)" fill="#4b3b34"/>
                  <path id="Path_1633" data-name="Path 1633" d="M1005.285,527.42a.948.948,0,0,1-.726,1.583.932.932,0,0,1-.429-.11.957.957,0,1,0,1.155-1.473Z" transform="translate(-846.528 -431.947)" fill="#41322b"/>
                  <path id="Path_1634" data-name="Path 1634" d="M1280.214,479.424c-5.746.569-9.942,4.991-7.754,11.2s8.389,8.763,13.679,3.855S1290.067,478.451,1280.214,479.424Z" transform="translate(-1063.499 -393.003)" fill="#41322b"/>
                  <path id="Path_1635" data-name="Path 1635" d="M1301.407,484.47c3.7,3.169,3.322,9.86-.463,13.367-3.169,2.937-6.661,3.2-9.424,1.606,2.894,2.395,6.931,2.524,10.543-.827C1306.2,494.784,1306.269,487.161,1301.407,484.47Z" transform="translate(-1079.423 -397.141)" fill="#342620"/>
                  <path id="Path_1636" data-name="Path 1636" d="M1302.524,506.352a5.146,5.146,0,1,1-5.088-5.2A5.146,5.146,0,0,1,1302.524,506.352Z" transform="translate(-1079.999 -410.657)" fill="#342620"/>
                  <path id="Path_1637" data-name="Path 1637" d="M1299.014,503.932a5.146,5.146,0,1,1-5.089-5.2A5.146,5.146,0,0,1,1299.014,503.932Z" transform="translate(-1077.155 -408.696)" fill="#fcb813"/>
                  <path id="Path_1638" data-name="Path 1638" d="M1302.181,499.71a5.135,5.135,0,0,1-4.871,8.708,5.143,5.143,0,1,0,4.871-8.708Z" transform="translate(-1084.115 -409.491)" fill="#f6921e"/>
                  <path id="Path_1639" data-name="Path 1639" d="M1303.667,511.187a.948.948,0,1,1-.271-.683A.948.948,0,0,1,1303.667,511.187Z" transform="translate(-1087.73 -418.008)" fill="#4b3b34"/>
                  <path id="Path_1640" data-name="Path 1640" d="M1304.065,510.81a.948.948,0,0,1-1.155,1.473.957.957,0,1,0,1.155-1.473Z" transform="translate(-1088.653 -418.486)" fill="#41322b"/>
                  <path id="Path_1641" data-name="Path 1641" d="M1323.737,511.417a.948.948,0,1,1-.948-.967.96.96,0,0,1,.948.967Z" transform="translate(-1103.994 -418.194)" fill="#4b3b34"/>
                  <path id="Path_1642" data-name="Path 1642" d="M1324.165,511a.951.951,0,0,1-1.155,1.475.948.948,0,1,0,1.155-1.475Z" transform="translate(-1104.941 -418.64)" fill="#41322b"/>
                  <path id="Path_1643" data-name="Path 1643" d="M1303.447,531.137a.948.948,0,1,1-.271-.682.948.948,0,0,1,.271.682Z" transform="translate(-1087.552 -434.175)" fill="#4b3b34"/>
                  <path id="Path_1644" data-name="Path 1644" d="M1303.885,530.75a.948.948,0,0,1-1.155,1.475.948.948,0,1,0,1.155-1.475Z" transform="translate(-1088.507 -434.645)" fill="#41322b"/>
                  <path id="Path_1645" data-name="Path 1645" d="M1323.507,531.359a.948.948,0,1,1-.27-.684A.948.948,0,0,1,1323.507,531.359Z" transform="translate(-1103.808 -434.353)" fill="#4b3b34"/>
                  <path id="Path_1646" data-name="Path 1646" d="M1323.945,531a.948.948,0,0,1-.726,1.585.934.934,0,0,1-.429-.112.957.957,0,1,0,1.155-1.473Z" transform="translate(-1104.763 -434.848)" fill="#41322b"/>
                  <path id="Path_1647" data-name="Path 1647" d="M898.754,313.721s-1.441-.258-1.817.948-1.434,9.86-.758,13.6C896.185,328.26,896.439,316.344,898.754,313.721Z" transform="translate(-758.869 -258.751)" fill="#fff"/>
                  <path id="Path_1648" data-name="Path 1648" d="M901.446,320.484c-.7-.533-2.431,2.139-1.363,3.476S902.4,321.218,901.446,320.484Z" transform="translate(-761.936 -264.194)" fill="#fff"/>
                  <path id="Path_1649" data-name="Path 1649" d="M909.65,259.284s2.822-4.665,14.176-8.154C923.826,251.136,912.75,251.864,909.65,259.284Z" transform="translate(-769.964 -208.048)" fill="#fff"/>
                  <path id="Path_1650" data-name="Path 1650" d="M894.4,444.42s-.411,4.45,1,7.234C895.405,451.654,895.7,446.722,894.4,444.42Z" transform="translate(-757.563 -364.685)" fill="#fff"/>
                  <path id="Path_1651" data-name="Path 1651" d="M1206,184.044a43.336,43.336,0,0,1,16.031-1.746S1210.93,184.821,1206,184.044Z" transform="translate(-1010.119 -152.164)" fill="#fff"/>
                  <path id="Path_1652" data-name="Path 1652" d="M1000.568,289.44a16.516,16.516,0,0,0,.512,8.072S1001.985,291.863,1000.568,289.44Z" transform="translate(-843.416 -239.093)" fill="#fff"/>
                  <path id="Path_1653" data-name="Path 1653" d="M1084.729,275.15a15.533,15.533,0,0,0,.275,7.828S1086.5,278.421,1084.729,275.15Z" transform="translate(-911.537 -227.513)" fill="#fff"/>
                  <path id="Path_1654" data-name="Path 1654" d="M1186.236,270a12.506,12.506,0,0,0,.027,8.307C1186.262,278.3,1187.644,273.258,1186.236,270Z" transform="translate(-993.529 -223.339)" fill="#fff"/>
                  <path id="Path_1655" data-name="Path 1655" d="M1282.954,265.3a25.563,25.563,0,0,0,.268,8.309S1284.72,268.81,1282.954,265.3Z" transform="translate(-1072.3 -219.531)" fill="#fff"/>
                  <path id="Path_1656" data-name="Path 1656" d="M1377.244,270.21a8.655,8.655,0,0,0-.683,7.215A10.5,10.5,0,0,0,1377.244,270.21Z" transform="translate(-1147.942 -223.51)" fill="#fff"/>
                  <path id="Path_1657" data-name="Path 1657" d="M977.41,500.09s-3.385,1.166-2.6,5.99C974.814,506.08,972.7,501.122,977.41,500.09Z" transform="translate(-822.389 -409.799)" fill="#fff"/>
                  <path id="Path_1658" data-name="Path 1658" d="M1296.139,504.29s-3.019.808-2.714,5.747C1293.426,510.037,1291.683,504.36,1296.139,504.29Z" transform="translate(-1080.695 -413.203)" fill="#fff"/>
                  <path id="Path_1659" data-name="Path 1659" d="M943.592,232.94s-1.327.18-.776,2.9C942.816,235.843,942.651,233.71,943.592,232.94Z" transform="translate(-796.732 -193.307)" fill="#fff"/>
                  <path id="Path_1660" data-name="Path 1660" d="M1100.511,85.525h20.7c3.971,0,2.16-4.181,0-3.9,0,0,.068-4.172-4.39-3.2a5,5,0,0,0-9.9,1.426s-4.111-1.426-4.947,2.615c0,0-2.16-.068-2.509.906S1099.534,85.525,1100.511,85.525Z" transform="translate(-923.685 -64.638)" fill="#fff"/>
                  <path id="Path_1661" data-name="Path 1661" d="M558.416,69.084H574.06c3,0,1.633-3.159,0-2.949,0,0,.051-3.161-3.318-2.423a3.778,3.778,0,0,0-7.479,1.079s-3.108-1.079-3.739,1.976c0,0-1.633-.053-1.9.685S557.678,69.084,558.416,69.084Z" transform="translate(-484.618 -53.563)" fill="#fff"/>
                  <path id="Path_1662" data-name="Path 1662" d="M1494.156,111.967H1513.2c3.654,0,1.987-3.847,0-3.59,0,0,.065-3.847-4.039-2.951a4.6,4.6,0,0,0-9.1,1.314s-3.783-1.314-4.551,2.4c0,0-1.987-.063-2.308.834S1493.261,111.967,1494.156,111.967Z" transform="translate(-1242.769 -86.802)" fill="#fff"/>
                  <path id="Path_1663" data-name="Path 1663" d="M194.751,183.443h13.78c2.645,0,1.439-2.784,0-2.6a2.147,2.147,0,0,0-2.924-2.133,3.328,3.328,0,0,0-6.588.95s-2.738-.948-3.3,1.741c0,0-1.437-.047-1.669.6S194.1,183.443,194.751,183.443Z" transform="translate(-189.997 -147.066)" fill="#fff"/>
                  <path id="Path_1664" data-name="Path 1664" d="M948.949,545.671l.011-.023s.011-.025.017-.04l.013-.029.027-.066c0-.015.011-.027.017-.044s.021-.057.034-.089.011-.034.019-.053.025-.072.038-.112.013-.038.021-.059.027-.085.04-.131.011-.04.019-.062.025-.095.038-.144a.433.433,0,0,0,.015-.068c0-.023.023-.1.034-.154l.011-.07a1.231,1.231,0,0,1,.025-.161V544.3a.7.7,0,0,1,.013-.165v-.068a1.514,1.514,0,0,0,0-.163v-.066a1.5,1.5,0,0,0-.023-.157.1.1,0,0,0-.013-.061c-.013-.051-.026-.1-.044-.15l-.025-.051a.964.964,0,0,0-.07-.14c-.01-.013-.021-.027-.03-.042a1.087,1.087,0,0,0-.1-.125c-.011,0-.025-.017-.034-.027a.991.991,0,0,0-.362-.211c-1.72-.569-4.511,1.866-4.511,1.866s-4.086-.84-5.327-.326l-.036.015a.8.8,0,0,0-.138.078.087.087,0,0,0-.036.076.262.262,0,0,0,.03.119,1.138,1.138,0,0,0,.089.154,3.825,3.825,0,0,0,.319.391c.131.144.284.3.446.457s.33.317.5.468c.586.535,1.138.99,1.138.99s-3.887,1.032-4.777,2.276h0a1.049,1.049,0,0,0-.108.19h0a.872.872,0,0,0-.055.163.372.372,0,0,0,0,.044.754.754,0,0,0,0,.131v.047a.626.626,0,0,0,.042.171c.136.341.6.518,1.24.586.093,0,.19.017.286.023.19,0,.406.013.624,0a33.771,33.771,0,0,0,5.937-.929,12.718,12.718,0,0,0,1.105,1.189,7.152,7.152,0,0,0,2.014,1.411,2.37,2.37,0,0,0,1.081.2c1.868-.155.146-3.442.146-3.442s.717-.2,1.549-.487a14.54,14.54,0,0,0,2.016-.817,1.241,1.241,0,0,0,.489-.379C952.993,546.917,948.949,545.671,948.949,545.671Z" transform="translate(-791.451 -444.399)" fill="#fcc787"/>
                  <path id="Path_1665" data-name="Path 1665" d="M947.341,539.182c-1.72-.569-4.511,1.866-4.511,1.866s-4.54-.933-5.5-.233c-.379.281,2.48,2.655,2.48,2.655s-5.531,1.468-4.909,3.023,8.087-.311,8.087-.311,2.334,2.956,4.2,2.8.146-3.442.146-3.442,3.743-1.069,4.054-1.691-3.734-1.868-3.734-1.868S948.742,539.646,947.341,539.182Z" transform="translate(-790.388 -441.408)" fill="#da3080"/>
                  <path id="Path_1666" data-name="Path 1666" d="M947.36,546.33s3.743-1.07,4.054-1.691-3.734-1.868-3.734-1.868.965-2.071-.095-2.7c.489,1.176-.643,2.655-.643,2.655s3.811,1.282,3.034,1.866a12.1,12.1,0,0,1-3.034,1.128s.893,2.605-.311,2.8-3.224-2.41-3.224-2.41-5.249,1.361-7.31,1.011c-.658-.112-.948-.334-1.033-.586a.758.758,0,0,0-.133.741c.622,1.555,8.087-.311,8.087-.311s2.334,2.956,4.2,2.8S947.36,546.33,947.36,546.33Z" transform="translate(-790.416 -442.198)" fill="#bc266f"/>
                  <path id="Path_1667" data-name="Path 1667" d="M951.042,549.836s-2.414-1.517-2.939-2.486a1.075,1.075,0,0,0-.351.154c-.379.281,2.48,2.655,2.48,2.655C950.684,549.969,951.042,549.836,951.042,549.836Z" transform="translate(-800.813 -448.097)" fill="#bc266f"/>
                  <path id="Path_1668" data-name="Path 1668" d="M959.983,543.943c-.379-.283-3.189,1.707-3.189,1.707s-2.643-.622-2.954-.311,1.327,1.707,1.327,1.707-3.466,1.248-3.466,1.875,5.484-.628,5.484-.628,1.633,1.828,2.332,1.593-.19-1.944-.19-1.944,2.1-.273,2.139-.662-2.177-1.36-2.177-1.36S960.449,544.291,959.983,543.943Z" transform="translate(-804.04 -445.314)" fill="#ee5595"/>
                  <path id="Path_1669" data-name="Path 1669" d="M456.02,517.845a2.971,2.971,0,0,0-.922-.5c-.133-.053-.267-.1-.394-.15s-.246-.087-.351-.121c-.2-.07-.343-.114-.343-.114v-.013l.009-.021v-.015l.017-.04a.178.178,0,0,0,0-.019.18.18,0,0,1,.021-.055.112.112,0,0,1,.009-.023.23.23,0,0,1,.021-.064l.011-.03a.279.279,0,0,1,.021-.072l.011-.036a.418.418,0,0,1,.019-.078.276.276,0,0,0,.009-.038.5.5,0,0,1,.019-.085v-.038a.694.694,0,0,1,.013-.087v-.129a.246.246,0,0,0,0-.038v-.125a.7.7,0,0,0-.011-.087c0-.009,0-.021,0-.032a.509.509,0,0,0-.025-.082.188.188,0,0,0-.013-.03.579.579,0,0,0-.038-.076l-.017-.023a.494.494,0,0,0-.057-.068l-.017-.015a.551.551,0,0,0-.2-.116c-.948-.315-2.476,1.024-2.476,1.024a9.635,9.635,0,0,0-2.827-.209h0l-.019.01a.54.54,0,0,0-.173.076c-.212.154,1.36,1.456,1.36,1.456s-2.137.569-2.619,1.257h0c-.015.023-.027.045-.04.068a.138.138,0,0,0-.015.028.421.421,0,0,0-.038.133.225.225,0,0,0,0,.036.332.332,0,0,0,.023.14h0a.33.33,0,0,0,.106.14.686.686,0,0,0,.19.1,1.954,1.954,0,0,0,.55.095,16.406,16.406,0,0,0,3.6-.5s.125.159.328.379a3.9,3.9,0,0,0,.279.281,5.483,5.483,0,0,0,.52.434,2.824,2.824,0,0,0,.586.339,1.309,1.309,0,0,0,.594.11.47.47,0,0,0,.379-.207.586.586,0,0,0,.085-.269,1.294,1.294,0,0,0-.015-.328,2.507,2.507,0,0,0-.08-.345,4.72,4.72,0,0,0-.3-.74s2.056-.588,2.226-.929A.111.111,0,0,0,456.02,517.845Z" transform="translate(-395.016 -422.188)" fill="#fcc787"/>
                  <path id="Path_1670" data-name="Path 1670" d="M452.057,512.965c-.948-.315-2.476,1.024-2.476,1.024s-2.492-.512-3.021-.127c-.212.154,1.361,1.456,1.361,1.456s-3.034.806-2.695,1.659,4.439-.171,4.439-.171,1.282,1.623,2.306,1.538.08-1.9.08-1.9,2.056-.586,2.226-.927-2.05-1.026-2.05-1.026S452.827,513.221,452.057,512.965Z" transform="translate(-393.585 -420.194)" fill="#f89c1c"/>
                  <path id="Path_1671" data-name="Path 1671" d="M452.047,516.894s2.056-.586,2.226-.927-2.05-1.026-2.05-1.026.531-1.138-.051-1.481c.267.645-.355,1.46-.355,1.46s2.086.705,1.667,1.024a6.632,6.632,0,0,1-1.667.62s.491,1.43-.171,1.538-1.771-1.327-1.771-1.327a15.228,15.228,0,0,1-4.014.554c-.36-.061-.518-.19-.569-.32a.406.406,0,0,0-.072.406c.341.855,4.439-.171,4.439-.171s1.282,1.623,2.306,1.538S452.047,516.894,452.047,516.894Z" transform="translate(-393.581 -420.634)" fill="#f37721"/>
                  <path id="Path_1672" data-name="Path 1672" d="M454.107,518.815a6.332,6.332,0,0,1-1.612-1.365.568.568,0,0,0-.19.085c-.212.154,1.361,1.456,1.361,1.456C453.912,518.882,454.107,518.815,454.107,518.815Z" transform="translate(-399.327 -423.867)" fill="#f37721"/>
                  <path id="Path_1673" data-name="Path 1673" d="M459.015,515.577c-.207-.154-1.752.948-1.752.948s-1.451-.341-1.621-.171.724.939.724.939-1.9.683-1.9,1.024,3.011-.341,3.011-.341.9,1,1.28.876-.106-1.068-.106-1.068,1.153-.15,1.174-.362-1.195-.747-1.195-.747S459.271,515.771,459.015,515.577Z" transform="translate(-401.097 -422.338)" fill="#fbb216"/>
                </g>
                <g id="Group_17" data-name="Group 17" transform="translate(-20.335 119.267)" opacity="0.4">
                  <path id="Path_1674" data-name="Path 1674" d="M257.912,628.976a137.83,137.83,0,0,0-15.413.74c-1.934.224-3.828.715-5.768.914-3.874.4-7.678,1.138-11.567,1.477-3.129.275-6.273.438-9.394.787a31.826,31.826,0,0,1-9.07-.3,57.783,57.783,0,0,1-6.423-1.267,25.3,25.3,0,0,0-7.4-1.214c-3.514.026-6.935.03-10.3,1.3a10.056,10.056,0,0,0-3.519,2.111c-2.052,2.141-2.33,7.479-.281,9.7,3.449,3.734,10.809,5.2,15.648,5.268,5.3.076,10.448-.334,15.756-.569,4.93-.224,9.849-.542,14.791-.531,10.088.023,20.178,0,30.249-.7,9.46-.658,18.945-.432,28.426-.432,9.724,0,19.381.08,29.035,1.424,4.206.586,8.489.791,12.718,1.2a58.512,58.512,0,0,0,11.188-.347,25.881,25.881,0,0,0,9.187-2.56c2.275-1.138,6.337-4.648,7.035-7.348,1.957-7.574-27.586-7.4-32.124-7.374-5.074.019-10.188.19-15.259,0a34.651,34.651,0,0,1-6.316-.994,47.662,47.662,0,0,0-6.258-.552c-8.77-.829-17.557-.707-26.358-.707C263.641,628.986,260.775,628.959,257.912,628.976Z" transform="translate(-177.381 -628.971)" fill="#f7f7f7"/>
                </g>
                <path id="Path_1675" data-name="Path 1675" d="M801.64,500.56l.091,5.469c-.038,1.517.1,3.034.19,4.551.085,1.4-.19,2.844.468,4.153.211.41.654.694.992.222.262-.364.142-.992.207-1.415.484-3.169,1.384-6.258,1.834-9.437C805.893,500.767,804.608,500.854,801.64,500.56Z" transform="translate(-703.601 -405.642)" fill="#eac1a4"/>
                <path id="Path_1676" data-name="Path 1676" d="M801.781,545.588l-.351.914,1.729,1.523,1.585.064.512-.836-2.131-1.853Z" transform="translate(-703.431 -437.442)" fill="#3b455a"/>
                <path id="Path_1677" data-name="Path 1677" d="M762.333,499.476l-.988,5.378c-.345,2.4-1.138,4.741-1.477,7.153a6.261,6.261,0,0,1-.269,1.68c-.231.521-.669.531-1.06.19-.523-.463-.283-1.291-.273-1.927.065-4.221-.267-8.383-.347-12.61a.139.139,0,0,1,.173-.18C758.5,499.182,762.312,499.591,762.333,499.476Z" transform="translate(-668.168 -404.505)" fill="#eac1a4"/>
                <path id="Path_1678" data-name="Path 1678" d="M757.308,547.58l-.548.81,1.341,1.873,1.53.421.686-.7L758.66,547.7Z" transform="translate(-667.231 -439.208)" fill="#3b455a"/>
                <g id="Group_18" data-name="Group 18" transform="translate(86.366 80.338)" clip-path="url(#clip-path-3)">
                  <path id="Path_1679" data-name="Path 1679" d="M754.409,487.606l-.034-.08a.239.239,0,0,0-.319-.083c-.612.275-.9,1.545-1.071,2.124a5.615,5.615,0,0,0-.3,2.674.22.22,0,0,0,.419,0c.2-.709.142-1.5.317-2.232a10.011,10.011,0,0,1,.294-.988c.1-.265.3-1.071.6-1.183a.161.161,0,0,0,.095-.231Z" transform="translate(-750.235 -475.326)" fill="none"/>
                  <path id="Path_1680" data-name="Path 1680" d="M753.924,462.322a.643.643,0,0,0-.825-.436.745.745,0,0,0-.5.861.7.7,0,0,0,.664.516h.046a.628.628,0,0,0,.569-.417.586.586,0,0,0,.029-.254A.541.541,0,0,0,753.924,462.322Z" transform="translate(-750.214 -454.612)" fill="none"/>
                  <path id="Path_1681" data-name="Path 1681" d="M769.606,507.22a1.08,1.08,0,0,0-1.864-.087c-.173-.154-.29-.36-.537-.436a1.138,1.138,0,0,0-.794.11c-.36.165-.709.466-.506.878.03.064.12.04.14-.017.144-.421.8-.793,1.2-.478.174.137.25.324.461.432a.214.214,0,0,0,.29-.078.662.662,0,0,1,1.215-.095C769.363,507.7,769.759,507.467,769.606,507.22Z" transform="translate(-760.959 -490.907)" fill="none"/>
                  <path id="Path_1682" data-name="Path 1682" d="M778.155,497.858a1.2,1.2,0,0,0-2.086-.54c-.419-.3-1.077-.393-1.164.267-.019.144.176.152.243.064l.758.1a.228.228,0,0,0,.379,0c.258-.406,1.261-.582,1.327.1C777.648,498.2,778.2,498.2,778.155,497.858Z" transform="translate(-768.3 -483.03)" fill="none"/>
                  <path id="Path_1683" data-name="Path 1683" d="M753.91,477.211a2.77,2.77,0,0,0-2.676-.264,2.022,2.022,0,0,0,.1-.284,2.583,2.583,0,0,1,.853-.429c.425-.123.908,0,1.3-.148a.082.082,0,0,0,.036-.135c-.379-.364-1.149-.19-1.6-.047a2.9,2.9,0,0,0-.512.229,3.365,3.365,0,0,0-.286-1.551c-.074-.159-.317-.046-.275.116a4.133,4.133,0,0,1,.163,1.208,2.751,2.751,0,0,1-.1.582c-.076.066-.148.138-.22.214a2.989,2.989,0,0,0-.569-1.183,1.369,1.369,0,0,0-1.362-.466.08.08,0,0,0,0,.152,1.938,1.938,0,0,1,1.341.948,2.847,2.847,0,0,1,.173.582,2.362,2.362,0,0,0-.694,0c-.379.046-1,.116-1.085.586a.08.08,0,0,0,.116.089,2.152,2.152,0,0,1,1.824-.241,5.047,5.047,0,0,0-.66.411c-.252.19-.584.379-.681.7a.112.112,0,0,0,.135.135,2.945,2.945,0,0,0,.851-.535c.133-.085.267-.167.4-.243a2.014,2.014,0,0,1,.178.8c-.011.351-.133.686-.165,1.035-.011.135.171.157.235.064a2.117,2.117,0,0,0,.19-2.023.208.208,0,0,0,.127-.023l.106-.049a2.086,2.086,0,0,1,.791.569,1.579,1.579,0,0,1,.317.948.119.119,0,0,0,.19.053c.324-.379.065-.969-.218-1.3a2.7,2.7,0,0,0-.51-.468,4.308,4.308,0,0,1,2.038.19C753.91,477.455,754.022,477.294,753.91,477.211Z" transform="translate(-746.909 -464.866)" fill="none"/>
                  <path id="Path_1684" data-name="Path 1684" d="M817.614,448.657l-.036-.08a.237.237,0,0,0-.317-.083c-.612.275-.906,1.545-1.071,2.124a5.567,5.567,0,0,0-.3,2.674.22.22,0,0,0,.419,0c.2-.709.142-1.5.317-2.232a9.077,9.077,0,0,1,.294-.988c.095-.266.3-1.071.6-1.183a.163.163,0,0,0,.095-.231Z" transform="translate(-801.454 -443.762)" fill="none"/>
                  <path id="Path_1685" data-name="Path 1685" d="M794.535,495.869a.643.643,0,0,0-.825-.434.741.741,0,0,0-.5.859.7.7,0,0,0,.664.518h.042a.624.624,0,0,0,.569-.415.568.568,0,0,0,.03-.256A.588.588,0,0,0,794.535,495.869Z" transform="translate(-783.123 -481.799)" fill="none"/>
                  <path id="Path_1686" data-name="Path 1686" d="M816.046,491.781a1.079,1.079,0,0,0-1.864-.085c-.174-.154-.29-.362-.537-.438a1.149,1.149,0,0,0-.795.112c-.36.163-.709.465-.506.878a.076.076,0,0,0,.138-.019c.146-.421.8-.791,1.2-.478.174.138.248.326.459.432a.216.216,0,0,0,.292-.076.662.662,0,0,1,1.215-.095C815.8,492.263,816.2,492.033,816.046,491.781Z" transform="translate(-798.593 -478.396)" fill="none"/>
                  <path id="Path_1687" data-name="Path 1687" d="M824.6,482.418a1.2,1.2,0,0,0-2.086-.54c-.417-.3-1.075-.393-1.162.267-.019.146.176.154.243.066l.758.1a.226.226,0,0,0,.379,0c.26-.4,1.263-.58,1.327.1C824.1,482.764,824.643,482.762,824.6,482.418Z" transform="translate(-805.942 -470.518)" fill="none"/>
                  <path id="Path_1688" data-name="Path 1688" d="M817.163,438.261a2.773,2.773,0,0,0-2.677-.264,2.033,2.033,0,0,0,.1-.284,2.582,2.582,0,0,1,.853-.429c.425-.123.906,0,1.3-.148a.081.081,0,0,0,.036-.135c-.379-.364-1.149-.19-1.6-.047a2.9,2.9,0,0,0-.512.229,3.366,3.366,0,0,0-.286-1.551c-.074-.159-.317-.046-.275.116a4.135,4.135,0,0,1,.163,1.208,2.864,2.864,0,0,1-.1.582,2.92,2.92,0,0,0-.22.214,2.988,2.988,0,0,0-.569-1.183,1.366,1.366,0,0,0-1.36-.466.08.08,0,0,0,0,.152,1.934,1.934,0,0,1,1.339.948,2.726,2.726,0,0,1,.174.582,2.361,2.361,0,0,0-.694,0c-.379.045-1,.116-1.087.586a.082.082,0,0,0,.118.089,2.148,2.148,0,0,1,1.822-.241,5.309,5.309,0,0,0-.66.411c-.25.19-.582.379-.679.7a.11.11,0,0,0,.135.135,2.947,2.947,0,0,0,.851-.535c.133-.085.266-.167.4-.243a2.048,2.048,0,0,1,.178.8c-.013.351-.133.686-.165,1.035-.011.135.171.157.235.065a2.122,2.122,0,0,0,.19-2.023.209.209,0,0,0,.127-.023l.1-.049a2.057,2.057,0,0,1,.791.569,1.581,1.581,0,0,1,.319.948.118.118,0,0,0,.19.053c.326-.379.066-.969-.216-1.3a2.7,2.7,0,0,0-.51-.468,4.321,4.321,0,0,1,2.038.19C817.153,438.505,817.265,438.344,817.163,438.261Z" transform="translate(-798.168 -433.302)" fill="none"/>
                  <path id="Path_1689" data-name="Path 1689" d="M743.469,431.316l-.034-.08a.239.239,0,0,0-.319-.083c-.612.275-.9,1.545-1.071,2.124a5.6,5.6,0,0,0-.3,2.672.218.218,0,0,0,.419,0c.2-.707.142-1.5.319-2.23a9.361,9.361,0,0,1,.292-.988c.1-.265.3-1.071.6-1.183a.161.161,0,0,0,.095-.231Z" transform="translate(-741.37 -429.71)" fill="none"/>
                  <path id="Path_1690" data-name="Path 1690" d="M758.666,450.921a1.079,1.079,0,0,0-1.864-.085c-.173-.154-.29-.36-.537-.438a1.151,1.151,0,0,0-.795.112c-.358.165-.709.466-.506.878.03.064.119.04.14-.017.146-.421.8-.793,1.2-.478.174.137.25.324.461.432a.214.214,0,0,0,.29-.078.662.662,0,0,1,1.215-.095.229.229,0,0,0,.394-.231Z" transform="translate(-752.094 -445.284)" fill="none"/>
                  <path id="Path_1691" data-name="Path 1691" d="M767.225,441.565a1.2,1.2,0,0,0-2.086-.54c-.419-.3-1.077-.393-1.164.267-.019.144.176.152.243.064l.759.1a.228.228,0,0,0,.379,0c.258-.406,1.263-.582,1.327.1C766.716,441.91,767.264,441.906,767.225,441.565Z" transform="translate(-759.443 -437.41)" fill="none"/>
                  <path id="Path_1692" data-name="Path 1692" d="M743,420.921a2.77,2.77,0,0,0-2.676-.264,2.112,2.112,0,0,0,.1-.284,2.582,2.582,0,0,1,.853-.429c.425-.123.908,0,1.307-.148a.082.082,0,0,0,.034-.135c-.379-.364-1.149-.19-1.6-.047a2.9,2.9,0,0,0-.512.229,3.366,3.366,0,0,0-.286-1.551c-.074-.159-.317-.046-.275.116a4.139,4.139,0,0,1,.163,1.208,2.708,2.708,0,0,1-.095.58,2.946,2.946,0,0,0-.22.216,2.976,2.976,0,0,0-.569-1.183,1.368,1.368,0,0,0-1.362-.466.08.08,0,0,0,0,.152,1.938,1.938,0,0,1,1.341.948,2.963,2.963,0,0,1,.171.588,2.374,2.374,0,0,0-.7,0c-.379.046-1,.116-1.085.586a.08.08,0,0,0,.116.089,2.16,2.16,0,0,1,1.824-.243,5.272,5.272,0,0,0-.66.413c-.25.19-.584.379-.679.7a.11.11,0,0,0,.135.135c.311-.063.586-.366.851-.535.131-.085.265-.167.4-.243a2.015,2.015,0,0,1,.178.8c-.011.351-.133.686-.163,1.035-.013.135.171.157.233.064a2.117,2.117,0,0,0,.19-2.023.209.209,0,0,0,.127-.023l.106-.049a2.066,2.066,0,0,1,.791.569,1.579,1.579,0,0,1,.317.948.119.119,0,0,0,.19.053c.324-.379.064-.969-.218-1.3a2.636,2.636,0,0,0-.51-.468,4.308,4.308,0,0,1,2.038.19C742.995,421.163,743.106,421,743,420.921Z" transform="translate(-738.068 -419.25)" fill="none"/>
                  <path id="Path_1693" data-name="Path 1693" d="M792.931,426.743a.71.71,0,0,0-.245-.138.69.69,0,0,0-.6-.049.666.666,0,0,0-.569.408.379.379,0,0,0,.1.41.286.286,0,0,0,.015.036.492.492,0,0,0,.019.119.546.546,0,0,0,.6.351.908.908,0,0,0,.586-.258.607.607,0,0,0,.19-.18.52.52,0,0,0-.1-.7Z" transform="translate(-781.749 -425.972)" fill="none"/>
                </g>
                <path id="Path_1695" data-name="Path 1695" d="M881.74,560.413a5.745,5.745,0,0,1-1.051-.142,18.086,18.086,0,0,1,.421-3.671c.548.609,1.011.254.992,1.4A18.758,18.758,0,0,0,881.74,560.413Z" transform="translate(-767.661 -451.056)" fill="#eac1a4"/>
                <path id="Path_1696" data-name="Path 1696" d="M873.33,572.626c-.413-.148-.506.84-.51,1.073a1.706,1.706,0,0,1-.021.417,1.107,1.107,0,0,1-.233.393l-.6.758a1.328,1.328,0,0,0-.229.366.772.772,0,0,0,.4.9c1.111.569,2.126-.8,2.366-1.7.036-.137.063-.277.089-.417.057-.288.275-.92.161-1.2-.135-.33-.54-.091-.806-.214S873.5,572.685,873.33,572.626Z" transform="translate(-760.381 -464.031)" fill="#3b455a"/>
                <path id="Path_1697" data-name="Path 1697" d="M884.646,425.045a71.448,71.448,0,0,0-2.913,8.533c-.842,3.646-2.2,7.206-2.9,10.856a9.163,9.163,0,0,1-1.348-.059c-.514-.061-1.327-.19-1.517-.759a3.25,3.25,0,0,1,.019-1.049c.047-.948.114-1.9.19-2.854a71.678,71.678,0,0,1,.829-8.063c.521-2.789,1.02-5.588,1.477-8.378.237-1.441.529-2.873.887-4.289a29.344,29.344,0,0,1,1.242-4.1,17.61,17.61,0,0,1,6.29,2.257.9.9,0,0,1,.44.448.828.828,0,0,1-.055.554c-.584,1.733-1.361,3.36-1.983,5.086C885.092,423.822,884.872,424.429,884.646,425.045Z" transform="translate(-763.805 -336.216)" fill="#3b455a"/>
                <path id="Path_1698" data-name="Path 1698" d="M925.06,558.583a5.776,5.776,0,0,0,1.045.176,18.023,18.023,0,0,0,.69-3.629c-.7.417-1.039-.057-1.362,1.039A18.91,18.91,0,0,1,925.06,558.583Z" transform="translate(-803.618 -449.864)" fill="#eac1a4"/>
                <path id="Path_1699" data-name="Path 1699" d="M925.822,570.234a5.341,5.341,0,0,0,.827,2.01.568.568,0,0,1,.072.226.551.551,0,0,1-.14.318.848.848,0,0,1-.353.332.826.826,0,0,1-.474,0c-.264-.057-.523-.127-.781-.209a.568.568,0,0,1-.19-.083.58.58,0,0,1-.135-.19,1.965,1.965,0,0,1-.326-1.031,6.337,6.337,0,0,0-.013-1.272c-.038-.2-.089-.461.083-.569.135-.087.379.032.525.055a1.983,1.983,0,0,1,.732.161.362.362,0,0,1,.125.108A.3.3,0,0,1,925.822,570.234Z" transform="translate(-802.979 -461.699)" fill="#3b455a"/>
                <path id="Path_1700" data-name="Path 1700" d="M921.159,422.192a71.4,71.4,0,0,1,.245,9.009c-.281,3.73-.042,7.528-.463,11.224a9.1,9.1,0,0,0,1.3.347c.508.095,1.327.2,1.671-.275a3.394,3.394,0,0,0,.292-1.007c.239-.923.457-1.851.673-2.78a73.4,73.4,0,0,0,1.606-7.945c.334-2.818.69-5.638,1.083-8.436.2-1.447.349-2.9.429-4.361a29.6,29.6,0,0,0,.032-4.282,17.634,17.634,0,0,0-6.677.284.9.9,0,0,0-.552.3.832.832,0,0,0-.114.546c.042,1.828.3,3.612.379,5.446C921.1,420.9,921.119,421.536,921.159,422.192Z" transform="translate(-800.068 -335.085)" fill="#3b455a"/>
                <path id="Path_1701" data-name="Path 1701" d="M893.06,331.173l-.108.04a6.061,6.061,0,0,0-1.618,1.045,3.249,3.249,0,0,0-1.416,1.777,21.741,21.741,0,0,0-.607,2.6c-.853,4.449-1.018,8.876-1.631,13.359-.167,1.219-.3,2.655.607,3.491,1.6-1.246,3.612-1.318,5.554-1.327a36.531,36.531,0,0,1,4.062-.29c1.307.146,2.448-.18,3.773-.095.319.021.726.017.851-.277a17.43,17.43,0,0,1-.554-4.3c-.269-3.739-1.517-7.329-2.008-11.044-.169-1.261-.26-3.358-1.238-4.314-1.062-1.037-3.485-1.058-4.851-.855A4.634,4.634,0,0,0,893.06,331.173Z" transform="translate(-773.229 -268.136)" fill="#f7f7f7"/>
                <path id="Path_1702" data-name="Path 1702" d="M872.832,266.878a.349.349,0,0,1,.269.286.855.855,0,0,1-.19.542,8.668,8.668,0,0,0-1.151,2.029c-.129.408-.178,1.166-.758,1.159a1.208,1.208,0,0,1-.421-.053,1.069,1.069,0,0,1-.294-.19c-.068-.059-.19-.137-.2-.226a11.094,11.094,0,0,1,.379-1.8,28.832,28.832,0,0,1,.758-4.094l.779.146a.3.3,0,0,1,.142.053.292.292,0,0,1,.068.173,4.693,4.693,0,0,1-.055,1.667.842.842,0,0,0-.025.438.273.273,0,0,0,.343.19c.131-.064.135-.2.231-.273A.19.19,0,0,1,872.832,266.878Z" transform="translate(-759.066 -214.368)" fill="#eac1a4"/>
                <path id="Path_1703" data-name="Path 1703" d="M858.563,296.762c.546-2.422,1.576-6.637,2.075-6.557a6.048,6.048,0,0,1,2.234.817,16.694,16.694,0,0,0-.825,5.27c.14,1.447,1.57,1.733,2.767,1.9,1.674.235,3.254.459,4.959.55a.522.522,0,0,1,.322.089.493.493,0,0,1,.125.341,4.776,4.776,0,0,1-.019.789,5.135,5.135,0,0,1-1,2.744,3.086,3.086,0,0,1-2.562,1.233,5.036,5.036,0,0,1-1.619-.5,25.209,25.209,0,0,1-3.108-1.883,29.1,29.1,0,0,1-3.483-2.558.644.644,0,0,1-.233-.3.659.659,0,0,1,.011-.3C858.238,298.243,858.371,297.614,858.563,296.762Z" transform="translate(-749.423 -235.175)" fill="#f7f7f7"/>
                <path id="Path_1704" data-name="Path 1704" d="M915.136,300.333a.51.51,0,0,0,.093.125,1.06,1.06,0,0,0,.6.277,2.674,2.674,0,0,0,.867-.061c.379-.074.379-.3.427-.65.032-.19.051-.379.064-.569,0-.106-.032-.485.034-.559s.233-.032.315-.076a.9.9,0,0,0,.315-.313,2.492,2.492,0,0,0,.262-.641l.353-1.159a6.115,6.115,0,0,0,.281-1.2,2.551,2.551,0,0,0-.51-1.944,2.8,2.8,0,0,0-1.616-.63,3.369,3.369,0,0,0-2.188.442,1.811,1.811,0,0,0-.667.66,2.836,2.836,0,0,0-.19,1.517l.07,1.437a1.922,1.922,0,0,0,.508,1.483c.22.159.506.19.694.4a1.423,1.423,0,0,1,.229.959A1.183,1.183,0,0,0,915.136,300.333Z" transform="translate(-794.291 -237.359)" fill="#eac1a4"/>
                <path id="Path_1705" data-name="Path 1705" d="M926.836,287.681a.845.845,0,0,1,.064.14c.089.254.028.54.116.794.135.4.607.647.677,1.068.059.343-.176.669-.19,1.018-.023.379.222.74.19,1.113a2.506,2.506,0,0,1-.434,1.045c.061-.08.6-.051.747-.138a.569.569,0,0,0,.305-.442,4.782,4.782,0,0,1,.114-.675c.123-.281.379-.487.463-.789.119-.41-.1-.844-.082-1.27.027-.647.586-1.255.379-1.87-.119-.36-.47-.59-.666-.916a4.914,4.914,0,0,1-.309-.806.967.967,0,0,0-.557-.618c-.154-.046-.32-.027-.478-.057a6.174,6.174,0,0,1-.758-.326,1.435,1.435,0,0,0-1.255.569c-.22.317-.108.584.116.863C925.637,286.849,926.53,287.154,926.836,287.681Z" transform="translate(-803.603 -230.898)" fill="#3b455a"/>
                <path id="Path_1706" data-name="Path 1706" d="M901.967,283.371a7.15,7.15,0,0,0-.709.478,2.106,2.106,0,0,0-.489,1.517,10.2,10.2,0,0,0-.174,1.432,1.241,1.241,0,0,0,.459.889c.347.252.891.294,1.045.692.169.434-.281.98,0,1.358.15.207.446.237.66.379a2.077,2.077,0,0,1,.51.681.864.864,0,0,0,.654.5,2.388,2.388,0,0,0-.161-1.178c-.108-.231-.429-.66-.19-.91.154-.209.518-.277.527-.537a.587.587,0,0,0-.148-.328,1.494,1.494,0,0,1-.11-1.358,1.947,1.947,0,0,1,.965-.994c.5-.241.417-.362.569-.838.133-.44.379-.542.777-.7a.831.831,0,0,0,.6-.569.955.955,0,0,0,.074-.8,1.65,1.65,0,0,0-.5-.518,2.132,2.132,0,0,0-1.358-.592c-.281.021-.544.152-.825.167-.19.011-.379-.03-.559-.036a1.475,1.475,0,0,0-.914.277c-.26.19-.254.391-.4.664A.964.964,0,0,1,901.967,283.371Z" transform="translate(-783.784 -228.498)" fill="#3b455a"/>
                <path id="Path_1707" data-name="Path 1707" d="M891.31,270.462c.049-.3.017-.7-.273-.8a2.913,2.913,0,0,0-.5-.028c-.351-.072-.472-.5-.656-.8a.266.266,0,0,0-.108-.116.442.442,0,0,0-.228,0c-.351.044-.616-.3-.948-.427a.825.825,0,0,0-1.043.518c-.051.173-.042.357-.089.529-.19.7-1.217,1-1.244,1.726-.017.489.463.959.277,1.413-.119.292-.493.489-.451.8a.436.436,0,0,0,.444.334.874.874,0,0,0,.538-.247c.241-.21.423-.482.654-.705a1.094,1.094,0,0,1,.853-.364c.309.038.588.279.893.228.245-.042.427-.26.667-.322a2.105,2.105,0,0,1,.69.046c.231.013.518-.106.523-.339a.546.546,0,0,1,0-.167c.049-.15.305-.142.353-.292-.121-.19-.292-.12-.379-.362A1.327,1.327,0,0,1,891.31,270.462Z" transform="translate(-771.999 -217.379)" fill="#3b455a"/>
                <path id="Path_1708" data-name="Path 1708" d="M.025,0H.973a.034.034,0,0,1,.034.034V.649H0V.034A.034.034,0,0,1,.025,0Z" transform="translate(121.446 47.323) rotate(-14.07)" fill="#ccd2d9"/>
                <path id="Path_1709" data-name="Path 1709" d="M.036,0H2.461A.036.036,0,0,1,2.5.036V.774H0V.036A.036.036,0,0,1,.036,0Z" transform="translate(122.605 46.862) rotate(-14.07)" fill="#ccd2d9"/>
                <path id="Path_1710" data-name="Path 1710" d="M.034,0H2.459A.036.036,0,0,1,2.5.036V.774H0V.036A.036.036,0,0,1,.034,0Z" transform="translate(134.055 44.075) rotate(-14.07)" fill="#ccd2d9"/>
                <rect id="Rectangle_73" data-name="Rectangle 73" width="19.3" height="13.513" rx="0.42" transform="translate(119.924 48.288) rotate(-14.07)" fill="#b3b8bc"/>
                <rect id="Rectangle_74" data-name="Rectangle 74" width="19.29" height="9.574" transform="translate(120.634 51.064) rotate(-14.07)" fill="#3b455a"/>
                <path id="Path_1711" data-name="Path 1711" d="M951.6,213.146l-.087-2.861.9-2.1,3.119-.783,1.644,1.464,1.3,2.556Z" transform="translate(-825.052 -163.534)" fill="#ccd2d9"/>
                <rect id="Rectangle_75" data-name="Rectangle 75" width="3.072" height="1.159" rx="0.21" transform="translate(121.149 49.036) rotate(-14.07)" fill="#fff"/>
                <path id="Path_1712" data-name="Path 1712" d="M944.293,253.469a.55.55,0,1,1-.664-.379A.542.542,0,0,1,944.293,253.469Z" transform="translate(-818.331 -205.083)" fill="#3b455a"/>
                <path id="Path_1713" data-name="Path 1713" d="M1005.458,267.055a.534.534,0,0,0-.14-.057l-.226-.9a.266.266,0,0,0-.516.129l.226.9a.476.476,0,0,0-.1.116.522.522,0,0,0,.19.732.569.569,0,0,0,.758-.19.521.521,0,0,0-.2-.732Z" transform="translate(-868.049 -215.477)" fill="#fff"/>
                <path id="Path_1714" data-name="Path 1714" d="M951.97,230.326l.533,1.608,6.785-1.6-.434-1.735Z" transform="translate(-825.425 -180.714)" fill="#000100" opacity="0.09"/>
                <path id="Path_1715" data-name="Path 1715" d="M968.063,263.972a4.647,4.647,0,0,0-.967-.882c.063.066.121.133.19.2a4.551,4.551,0,0,1,1.013,3.36,4.7,4.7,0,0,1-1.138,2.6,4.917,4.917,0,0,1-2.429,1.508,4.982,4.982,0,0,1-2.949-.127,4.685,4.685,0,0,1-1.052-.542,4.741,4.741,0,0,0,1.841,1.221,4.93,4.93,0,0,0,5.378-1.382,4.687,4.687,0,0,0,1.138-2.6,4.848,4.848,0,0,0,.017-.722A4.551,4.551,0,0,0,968.063,263.972Z" transform="translate(-832.524 -213.202)" fill="#000100" opacity="0.15"/>
                <ellipse id="Ellipse_61" data-name="Ellipse 61" cx="4.748" cy="4.61" rx="4.748" ry="4.61" transform="translate(125.467 49.83) rotate(-14.07)" fill="#3b455a"/>
                <ellipse id="Ellipse_62" data-name="Ellipse 62" cx="4.092" cy="3.973" rx="4.092" ry="3.973" transform="translate(126.258 50.287) rotate(-14.07)" fill="#fff"/>
                <path id="Path_1716" data-name="Path 1716" d="M958.505,255.915a5,5,0,0,0-2.706-1.123,5.145,5.145,0,0,0-3.006.637,5.008,5.008,0,0,0-2.027,2.137,4.721,4.721,0,0,0,.946,5.507,4.963,4.963,0,0,0,2.609,1.312,5.161,5.161,0,0,0,3.034-.417,5.033,5.033,0,0,0,2.184-1.98,4.788,4.788,0,0,0,.656-2.844,5.121,5.121,0,0,0-.123-.738A4.765,4.765,0,0,0,958.505,255.915Zm1.153,5.347a4.78,4.78,0,0,1-1.771,2.162,4.943,4.943,0,0,1-2.824.817,4.822,4.822,0,0,1-2.655-.882,4.551,4.551,0,0,1-1.69-5.072,4.779,4.779,0,0,1,1.6-2.275,4.913,4.913,0,0,1,2.751-1.018,4.725,4.725,0,0,1,4.566,2.784,4.359,4.359,0,0,1,.229.681,4.564,4.564,0,0,1-.209,2.8Z" transform="translate(-824.049 -206.459)" fill="#ccd2d9"/>
                <ellipse id="Ellipse_63" data-name="Ellipse 63" cx="2.64" cy="2.564" rx="2.64" ry="2.564" transform="translate(128.009 51.302) rotate(-14.07)" fill="#3b455a"/>
                <path id="Path_1717" data-name="Path 1717" d="M977.029,297.626h-.178a.282.282,0,0,0-.1.019.288.288,0,0,0-.078.066,4.338,4.338,0,0,0-.6.969c-.064.131-.076.138-.013.277s.156.3.239.448c.04.224.089.448.11.675.055.578-.446,1.853.226,2.148a1.116,1.116,0,0,0,.4.119.918.918,0,0,0,.332-.068c.083-.03.224-.055.262-.14a1.489,1.489,0,0,0-.013-.438c0-.294-.017-.588-.025-.882s0-.628.222-.783a1.272,1.272,0,0,0,.144-.1.5.5,0,0,0,.1-.176,3.543,3.543,0,0,0,.216-.745c.038-.233-.093-.353-.211-.537s-.123-.425-.228-.622a.511.511,0,0,0-.5-.239C977.229,297.624,977.13,297.624,977.029,297.626Z" transform="translate(-844.908 -241.184)" fill="#eac1a4"/>
                <path id="Path_1718" data-name="Path 1718" d="M943.619,323.278c.1-.611.19-1.234.317-1.868a19.408,19.408,0,0,0,.336-5.436,5.351,5.351,0,0,0-2.311-.108s-.948,4.24-1.147,4.667c-.531,1.1-.487.971-1.456.5-.848-.41-1.629-1.033-2.465-1.483a4.366,4.366,0,0,0-2.6-.722c-.083,1.047-.127,2.1-.133,3.15a3.02,3.02,0,0,0,.14,1.115,3.148,3.148,0,0,0,.618.891,16.629,16.629,0,0,0,5.1,4.4.906.906,0,0,0,.318.1.948.948,0,0,0,.495-.165C942.758,327.251,943.287,325.366,943.619,323.278Z" transform="translate(-810.984 -255.907)" fill="#f7f7f7"/>
                <path id="Path_1719" data-name="Path 1719" d="M494.1,343.743c-.013-.728-.04-1.456-.087-2.184a47.988,47.988,0,0,0-4.346-16.419c-.836-1.836-2.376-5.4-4.435-6.094a6.579,6.579,0,0,0-4.606.379l-.08.04c-1.274.631-2.114,3.011-2.592,4.409A27.628,27.628,0,0,0,476.536,332c-.087,2.861-.349,5.772-.484,8.588-.057,1.174-.095,2.351-.093,3.536l.034,13.012,1.242.138a1.768,1.768,0,0,0,.19.1,6.764,6.764,0,0,0,3.085.258c4.215.465,7.7-.252,11.914.211a17.285,17.285,0,0,0,1.052-5.48C493.54,349.623,494.148,346.488,494.1,343.743Z" transform="translate(-439.677 -258.336)" fill="#ccd2d9"/>
                <path id="Path_1720" data-name="Path 1720" d="M569.75,292.455a15.974,15.974,0,0,0,.831-1.849l-.8-.326-.745,1.217-.307-.322a6.732,6.732,0,0,1-2.329,3.66c-.125.125-.26.32-.152.461a.379.379,0,0,0,.156.1l.759.33a1.126,1.126,0,0,0,.453.125c.438,0,.705-.468.893-.867C568.515,294.977,569.175,293.64,569.75,292.455Z" transform="translate(-512.815 -235.236)" fill="#eac1a4"/>
                <path id="Path_1721" data-name="Path 1721" d="M525.08,285.562l4.505,1.238,2.92-3.61,4.722,2.463-6.972,8.977-4.335-5.021Z" transform="translate(-479.483 -224.953)" fill="#ccd2d9"/>
                <path id="Path_1722" data-name="Path 1722" d="M491.76,413.459l.728,13.044-.3,9.874,1.492.529,1.707-8.808,3.533-16.078Z" transform="translate(-452.481 -329.354)" fill="#eac1a4"/>
                <path id="Path_1723" data-name="Path 1723" d="M494.573,542.429l.127,1-.453,1.873L493,545.146l-.123-2.806.2-.44Z" transform="translate(-453.389 -434.605)" fill="#3b455a"/>
                <path id="Path_1724" data-name="Path 1724" d="M529.488,414.46l-1.115,11.233-3.449,15.627-1.528-.08,1.261-14.567L523.21,413.14Z" transform="translate(-477.968 -330.261)" fill="#eac1a4"/>
                <path id="Path_1725" data-name="Path 1725" d="M523.945,560.33l1.9,1.352-.281.942-3.548-.9.345-1.363Z" transform="translate(-477.003 -449.541)" fill="#3b455a"/>
                <path id="Path_1726" data-name="Path 1726" d="M499.826,406.546l-.127-9.716-1.28-4.568-4.464-.387.057-.535-5.937-1.39-.948,3.976-.62,9.007-.537,2.423,6.451.886.639-5.979.15,6.644Z" transform="translate(-447.789 -311.469)" fill="#3b455a"/>
                <path id="Path_1727" data-name="Path 1727" d="M503.092,339.631c-4.528.211-8.023-.463-11.326.685.068-.023-.22-3.946-.216-4.346a40.793,40.793,0,0,1,.275-4.187,15.117,15.117,0,0,1,.868-3.813,18.848,18.848,0,0,0,1.064-4.4,12.684,12.684,0,0,1,.309-2.033,2.1,2.1,0,0,1,1.6-1.756,2.489,2.489,0,0,1,2.454.611c1.1,1.593,1.5,4.267,2.086,6.1C501.507,330.649,502.154,335.372,503.092,339.631Z" transform="translate(-452.311 -259.081)" fill="#f7f7f7"/>
                <path id="Path_1728" data-name="Path 1728" d="M496.275,286.464c.758-2.488,4.293-3.413,5.167-.569a5.817,5.817,0,0,1,.275,2.655,2.851,2.851,0,0,1-1.471,2.12h-.013a9.523,9.523,0,0,0,.614,1.566,4.077,4.077,0,0,1,.3,1.568,4.966,4.966,0,0,1-.984,2.331q-.758-.948-1.424-1.966a2.1,2.1,0,0,1-.345-.7,2.556,2.556,0,0,1,.038-.9,6.614,6.614,0,0,0,.049-1.21c-.021-.438-.015-.51-.322-.758a5.523,5.523,0,0,1-1.2-1.049A3.536,3.536,0,0,1,496.275,286.464Z" transform="translate(-456.043 -230.262)" fill="#eac1a4"/>
                <path id="Path_1729" data-name="Path 1729" d="M512.751,281.466a3.142,3.142,0,0,1,.19,2.147c-.125.715-.076,1.388-.266,2.086.07.112.239.046.347-.03q.948-.666,1.868-1.358a.542.542,0,0,0,.165-.163.556.556,0,0,0,.044-.29,9.259,9.259,0,0,0-1.8-5c-.5-.77-1.9-1.654-2.729-.793a1.5,1.5,0,0,0-.328.745,1.264,1.264,0,0,0-.034.491c.121.645.721.633,1.181.857A3.262,3.262,0,0,1,512.751,281.466Z" transform="translate(-467.422 -225.052)" fill="#3b455a"/>
                <path id="Path_1730" data-name="Path 1730" d="M482.765,275.865A6.029,6.029,0,0,0,483,277.61c.051.19.379.63.392.758.019.362-.758,1.181-.965,1.49l-3.413-2.074a.569.569,0,0,1-.212-.2.58.58,0,0,1-.046-.275,11.894,11.894,0,0,1,1.314-5.12,4.389,4.389,0,0,1,4.238-2.734c1.492.154,2.5,1.3,1.9,2.818-.459,1.138-1.915,1.327-2.736,2.1a1.945,1.945,0,0,0-.7,1.5Z" transform="translate(-441.939 -218.341)" fill="#3b455a"/>
                <path id="Path_1731" data-name="Path 1731" d="M749.417,303.691c-.011.265-.019.529-.025.793-.093,5.361.2,10.791.235,16.2a59.83,59.83,0,0,1,8.372-.715c.649-.009,3.6.446,4.009.059.557-.527-.055-.427-.015-1.113.053-.886-.379-1.61-.212-2.655.19-1.234.569-2.454.781-3.688a53.931,53.931,0,0,0,.774-7.494,13.974,13.974,0,0,0-.963-6.546c-2.361-4.961-9.972-4.871-12.062.307A14.9,14.9,0,0,0,749.417,303.691Z" transform="translate(-661.246 -238.965)" fill="#eac1a4"/>
                <path id="Path_1732" data-name="Path 1732" d="M822.465,228.055a8.995,8.995,0,0,0,1.462-3.646c.243-1.069.444-2.152.641-3.224a11.466,11.466,0,0,0,.252-2.054c0-.6.328-1.432-.2-1.9a.449.449,0,0,1,.664-.165.277.277,0,0,0,.1.068.19.19,0,0,0,.176-.095,1.518,1.518,0,0,0,.173-.592,2.367,2.367,0,0,1,.423-1.1,2.159,2.159,0,0,1,.711-.41.233.233,0,0,1,.146-.027.228.228,0,0,1,.1.078,10.121,10.121,0,0,1,.793.9c-.353.3-.408.743-.607,1.138a3.882,3.882,0,0,0-.618,1.544c-.057.948-.04,1.9-.108,2.844-.137,1.853-.379,3.692-.624,5.531a13.736,13.736,0,0,1-.81,3.6,6.844,6.844,0,0,1-2.086,2.6,2.087,2.087,0,0,1-.7.457,1.452,1.452,0,0,1-1.21-.245,2.391,2.391,0,0,1-.758-2.987,5.355,5.355,0,0,1,1.2-1.346A7.13,7.13,0,0,0,822.465,228.055Z" transform="translate(-718.597 -174.164)" fill="#eac1a4"/>
                <path id="Path_1733" data-name="Path 1733" d="M786.065,283.75,784,287.518l.324,11.417q.074,2.632.15,5.262c.017.609.032,1.219.051,1.828,0,.273-.066.734.089.948.338.485,1.576.334,2.116.379a9.336,9.336,0,0,1,2.488.427,8.6,8.6,0,0,0,1.585.569.476.476,0,0,0,.362-.059.525.525,0,0,0,.138-.389c.19-2.613.19-5.309.343-7.947a47.817,47.817,0,0,0,.233-6.608,1.056,1.056,0,0,0-.013-.108,34.225,34.225,0,0,1,0-4.479c0-.146.5-.52.6-.618l1.475-1.517c.98-1.013,2.875-2.266,2.114-3.9a2.122,2.122,0,0,0-.379-.533c-1.111-1.191-2.531-1.858-3.328-3.326-1.394.688-2.528,2.046-4.011,2.611a4,4,0,0,1-2.393.19c-.474-.116-1.5-.485-1.24.453C784.846,282.649,785.707,283.32,786.065,283.75Z" transform="translate(-689.306 -225.982)" fill="#d34e4e"/>
                <path id="Path_1734" data-name="Path 1734" d="M745.4,296.812l2.067,3.768c-.042,0-.262,9.235-.279,9.86q-.1,3.555-.2,7.113a12.993,12.993,0,0,1-.059,2.086c-.19.9-1.138.726-1.942.8a40.351,40.351,0,0,1-5.423.379c-.512-.027.163-10.736.161-11.736,0-3.6-.745-7.585,1.081-10.845.533-.948,1.47-2.465,2.5-2.937a19.993,19.993,0,0,1,3.389-.759l.055.677Z" transform="translate(-653.138 -238.688)" fill="#d34e4e"/>
                <path id="Path_1735" data-name="Path 1735" d="M481.967,248.033a4.956,4.956,0,0,0-.366-.4,4.754,4.754,0,0,0-7.49,5.677,4.345,4.345,0,0,0,.228.379l.652.975.025-.011a31.709,31.709,0,0,0,7.879-5.273h0l-.654-.977A2.641,2.641,0,0,0,481.967,248.033Z" transform="translate(-437.713 -199.586)" fill="#d34e4e"/>
                <g id="Group_19" data-name="Group 19" transform="translate(38.987 46.729)" opacity="0.1">
                  <path id="Path_1736" data-name="Path 1736" d="M495.488,248.148a4.95,4.95,0,0,0-.366-.4,4.741,4.741,0,0,0-2.9-1.316s4.117,3.387-2,7.488c.795-.436,1.627-.948,2.465-1.5a29.734,29.734,0,0,0,3.728-2.924h0l-.654-.977A2.576,2.576,0,0,0,495.488,248.148Z" transform="translate(-490.22 -246.43)" fill="#3b455a"/>
                </g>
                <path id="Path_1737" data-name="Path 1737" d="M481.917,255.559a12.231,12.231,0,0,0-3.389.857l.313.465h0a31.71,31.71,0,0,1-7.879,5.273l-.023.013h0l-.305-.459h0a12.281,12.281,0,0,0-2.063,2.776.334.334,0,0,0,.313.495c1.572-.095,4.452-1.356,7.446-3.362s5.222-4.158,5.924-5.575a.334.334,0,0,0-.338-.484Z" transform="translate(-433.656 -207.097)" fill="#d34e4e"/>
                <path id="Path_1738" data-name="Path 1738" d="M479.63,265.447l.307.459.025-.011a31.709,31.709,0,0,0,7.879-5.273h0l-.3-.451a31.468,31.468,0,0,1-7.907,5.277Z" transform="translate(-442.652 -210.836)" fill="#fff"/>
                <path id="Path_1739" data-name="Path 1739" d="M506.688,239.375l-2.152-.355-.036.92,1.872-.3Z" transform="translate(-462.806 -189.159)" fill="#fff"/>
                <path id="Path_1740" data-name="Path 1740" d="M515.087,231.624l-.247-2.194.986.193-.537,1.792Z" transform="translate(-471.185 -181.387)" fill="#fff"/>
                <g id="Group_20" data-name="Group 20" transform="translate(41.702 48.461)" opacity="0.1">
                  <path id="Path_1741" data-name="Path 1741" d="M511.1,255.564a12.23,12.23,0,0,0-3.389.857l.311.461h0s2.423,1.4-3.481,5.361q.478-.3.965-.624c2.969-1.991,5.222-4.158,5.924-5.575a.334.334,0,0,0-.33-.48Z" transform="translate(-504.54 -255.563)" fill="#000100"/>
                </g>
                <path id="Path_1742" data-name="Path 1742" d="M478.374,250c-.118.049-.235.1-.353.163a4.371,4.371,0,0,0-1.959,5.729A6.392,6.392,0,0,1,478.374,250Z" transform="translate(-439.429 -202.594)" fill="#000100" opacity="0.2"/>
                <rect id="Rectangle_76" data-name="Rectangle 76" width="0.302" height="6.028" transform="translate(62.956 38.889) rotate(25.67)" fill="#3b455a"/>
                <path id="Path_1743" data-name="Path 1743" d="M600.706,173l-4.906.025.77.548.842.586,1.058.6,1.151.6,1.185.525,1.166.47.982.292.8.2Z" transform="translate(-536.793 -135.657)" fill="#3b455a"/>
                <path id="Path_1744" data-name="Path 1744" d="M600.706,173l-4.136.573-.77-.548Z" transform="translate(-536.793 -135.657)" fill="#ccd2d9"/>
                <path id="Path_1745" data-name="Path 1745" d="M604.3,174.159,607.594,173l-2.236,1.758Z" transform="translate(-543.681 -135.657)" fill="#ccd2d9"/>
                <path id="Path_1746" data-name="Path 1746" d="M615.95,175.355,617.035,173l.1,2.88Z" transform="translate(-553.122 -135.657)" fill="#ccd2d9"/>
                <path id="Path_1747" data-name="Path 1747" d="M622.937,176.351,621.67,173l2.249,3.643Z" transform="translate(-557.757 -135.657)" fill="#ccd2d9"/>
                <rect id="Rectangle_77" data-name="Rectangle 77" width="2.746" height="2.744" rx="1.372" transform="translate(52.838 43.411) rotate(-73.51)" fill="#efefef"/>
                <g id="Group_21" data-name="Group 21" transform="translate(53.322 41.192)" opacity="0.6">
                  <path id="Path_1748" data-name="Path 1748" d="M567.68,217.492s-.019-.025-.027-.027l-.758-.2a.686.686,0,0,0-.851.463l-.224.758v.021A1.54,1.54,0,0,1,567.68,217.492Z" transform="translate(-565.82 -217.232)" fill="#fff"/>
                </g>
                <path id="Path_1749" data-name="Path 1749" d="M593.19,216.972l.758-.88a.793.793,0,0,1,1.119-.091l.88.758a.8.8,0,0,1,.089,1.121l-.758.88a.793.793,0,0,1-1.119.091l-.88-.758A.8.8,0,0,1,593.19,216.972Z" transform="translate(-534.525 -174.889)" fill="#efefef"/>
                <g id="Group_22" data-name="Group 22" transform="translate(60.583 41.433)" opacity="0.6">
                  <path id="Path_1750" data-name="Path 1750" d="M604.279,220.607l.015-.017.51-.6a.686.686,0,0,0-.076-.967l-.6-.51-.017-.013A1.542,1.542,0,0,1,604.279,220.607Z" transform="translate(-604.11 -218.5)" fill="#fff"/>
                </g>
                <path id="Path_1751" data-name="Path 1751" d="M581.257,212.127l-1,.58a.8.8,0,0,1-1.085-.29l-.578-.992a.8.8,0,0,1,.288-1.087l1-.578a.793.793,0,0,1,1.085.288l.58,1A.8.8,0,0,1,581.257,212.127Z" transform="translate(-522.762 -169.898)" fill="#efefef"/>
                <g id="Group_23" data-name="Group 23" transform="translate(55.956 40.17)" opacity="0.6">
                  <path id="Path_1752" data-name="Path 1752" d="M580.712,211.84a.076.076,0,0,0-.021.011l-.664.423a.684.684,0,0,0-.211.948l.423.664a.069.069,0,0,0,.013.019A1.54,1.54,0,0,1,580.712,211.84Z" transform="translate(-579.709 -211.84)" fill="#fff"/>
                </g>
                <path id="Path_1753" data-name="Path 1753" d="M557.726,221.968a4.811,4.811,0,0,0-.876,2.774v6.271a4.822,4.822,0,0,0,4.824,4.818h1.851a4.824,4.824,0,0,0,4.815-4.83v-6.269a4.783,4.783,0,0,0-.88-2.772Z" transform="translate(-505.229 -179.871)" fill="#eaca42"/>
                <path id="Path_1754" data-name="Path 1754" d="M543.268,202.792l-.023.711-.317-.645a4.253,4.253,0,0,0-1.779.886l.339.635-.6-.4a4.285,4.285,0,0,0-1.031,1.606l.65.4-.758-.049a4.261,4.261,0,0,0-.142,1.105v.152h3.751a1.123,1.123,0,0,1,1.054-.831v-3.618a7.8,7.8,0,0,0-1.147.044Z" transform="translate(-491.258 -164.299)" fill="#eaca42"/>
                <path id="Path_1755" data-name="Path 1755" d="M545.15,199.035v.137l2.166-.138-2.166-.133Z" transform="translate(-495.747 -156.646)" fill="#ebb044"/>
                <path id="Path_1756" data-name="Path 1756" d="M547.09,191.206l-.07.118,1.934.984-1.8-1.217Z" transform="translate(-497.263 -150.317)" fill="#ebb044"/>
                <path id="Path_1757" data-name="Path 1757" d="M553.371,184.944l-.121.063,1.128,1.855-.887-1.982Z" transform="translate(-502.311 -145.285)" fill="#ebb044"/>
                <path id="Path_1758" data-name="Path 1758" d="M561.406,182.954l-.136,0,.18,2.164.091-2.169Z" transform="translate(-508.811 -143.721)" fill="#ebb044"/>
                <path id="Path_1759" data-name="Path 1759" d="M585.912,222h-.332l.165.165Z" transform="translate(-528.511 -179.904)" fill="#ebb044"/>
                <rect id="Rectangle_78" data-name="Rectangle 78" width="1.508" height="1.508" transform="matrix(0.707, -0.708, 0.708, 0.707, 53.357, 44.002)" fill="#ebb044"/>
                <path id="Path_1760" data-name="Path 1760" d="M574.5,223.564l1.064-1.068-.5-.5h-1.119l-.506.506Z" transform="translate(-518.665 -179.904)" fill="#ebb044"/>
                <rect id="Rectangle_79" data-name="Rectangle 79" width="1.508" height="1.508" transform="matrix(0.707, -0.708, 0.708, 0.707, 58.982, 43.996)" fill="#ebb044"/>
                <rect id="Rectangle_80" data-name="Rectangle 80" width="1.508" height="1.508" transform="matrix(0.706, -0.708, 0.708, 0.706, 60.392, 45.41)" fill="#ebb044"/>
                <path id="Path_1761" data-name="Path 1761" d="M589.318,223.512l1.064-1.066-.508-.506h-1.117l-.506.508Z" transform="translate(-530.675 -179.855)" fill="#ebb044"/>
                <rect id="Rectangle_81" data-name="Rectangle 81" width="1.508" height="1.508" transform="matrix(0.707, -0.708, 0.708, 0.707, 51.955, 45.41)" fill="#ebb044"/>
                <rect id="Rectangle_82" data-name="Rectangle 82" width="1.508" height="1.508" transform="matrix(0.706, -0.708, 0.708, 0.706, 51.964, 51.047)" fill="#ebb044"/>
                <rect id="Rectangle_83" data-name="Rectangle 83" width="1.508" height="1.508" transform="matrix(0.706, -0.708, 0.708, 0.706, 53.371, 52.451)" fill="#ebb044"/>
                <path id="Path_1762" data-name="Path 1762" d="M556.86,217.4l0,2.116,1.056-1.06Z" transform="translate(-505.237 -171.638)" fill="#ebb044"/>
                <path id="Path_1763" data-name="Path 1763" d="M581.974,261.84l-1.064,1.068.7.7.736,0,.7-.7Z" transform="translate(-524.726 -207.651)" fill="#ebb044"/>
                <rect id="Rectangle_84" data-name="Rectangle 84" width="1.508" height="1.508" transform="matrix(0.707, -0.708, 0.708, 0.707, 57.587, 53.845)" fill="#ebb044"/>
                <rect id="Rectangle_85" data-name="Rectangle 85" width="1.508" height="1.508" transform="matrix(0.707, -0.708, 0.708, 0.707, 54.774, 53.848)" fill="#ebb044"/>
                <rect id="Rectangle_86" data-name="Rectangle 86" width="1.508" height="1.508" transform="matrix(0.707, -0.708, 0.708, 0.707, 58.991, 52.437)" fill="#ebb044"/>
                <path id="Path_1764" data-name="Path 1764" d="M610.52,218.366l1.066,1.066.25-.252,0-1.629-.25-.25Z" transform="translate(-548.722 -171.557)" fill="#ebb044"/>
                <path id="Path_1765" data-name="Path 1765" d="M556.88,232.24l0,2.116,1.056-1.06Z" transform="translate(-505.253 -183.664)" fill="#ebb044"/>
                <rect id="Rectangle_87" data-name="Rectangle 87" width="1.508" height="1.508" transform="matrix(0.707, -0.708, 0.708, 0.707, 58.984, 46.81)" fill="#ebb044"/>
                <rect id="Rectangle_88" data-name="Rectangle 88" width="1.508" height="1.508" transform="matrix(0.706, -0.708, 0.708, 0.706, 57.581, 45.412)" fill="#ebb044"/>
                <rect id="Rectangle_89" data-name="Rectangle 89" width="1.508" height="1.508" transform="matrix(0.707, -0.708, 0.708, 0.707, 57.582, 48.22)" fill="#ebb044"/>
                <rect id="Rectangle_90" data-name="Rectangle 90" width="1.508" height="1.508" transform="matrix(0.707, -0.708, 0.708, 0.707, 56.169, 44)" fill="#ebb044"/>
                <rect id="Rectangle_91" data-name="Rectangle 91" width="1.508" height="1.508" transform="matrix(0.707, -0.708, 0.708, 0.707, 56.176, 49.626)" fill="#ebb044"/>
                <rect id="Rectangle_92" data-name="Rectangle 92" width="1.508" height="1.508" transform="matrix(0.707, -0.708, 0.708, 0.707, 56.173, 46.813)" fill="#ebb044"/>
                <rect id="Rectangle_93" data-name="Rectangle 93" width="1.508" height="1.508" transform="matrix(0.707, -0.708, 0.708, 0.707, 54.768, 48.22)" fill="#ebb044"/>
                <rect id="Rectangle_94" data-name="Rectangle 94" width="1.508" height="1.508" transform="matrix(0.707, -0.708, 0.708, 0.707, 57.582, 51.031)" fill="#ebb044"/>
                <rect id="Rectangle_95" data-name="Rectangle 95" width="1.508" height="1.508" transform="matrix(0.707, -0.708, 0.708, 0.707, 60.39, 48.216)" fill="#ebb044"/>
                <rect id="Rectangle_96" data-name="Rectangle 96" width="1.508" height="1.508" transform="matrix(0.707, -0.708, 0.708, 0.707, 58.989, 49.622)" fill="#ebb044"/>
                <rect id="Rectangle_97" data-name="Rectangle 97" width="1.508" height="1.508" transform="matrix(0.707, -0.708, 0.708, 0.707, 54.773, 51.035)" fill="#ebb044"/>
                <rect id="Rectangle_98" data-name="Rectangle 98" width="1.508" height="1.508" transform="matrix(0.706, -0.708, 0.708, 0.706, 53.368, 49.639)" fill="#ebb044"/>
                <rect id="Rectangle_99" data-name="Rectangle 99" width="1.508" height="1.508" transform="matrix(0.706, -0.708, 0.708, 0.706, 54.769, 45.416)" fill="#ebb044"/>
                <rect id="Rectangle_100" data-name="Rectangle 100" width="1.508" height="1.508" transform="matrix(0.707, -0.708, 0.708, 0.707, 53.362, 46.816)" fill="#ebb044"/>
                <rect id="Rectangle_101" data-name="Rectangle 101" width="1.508" height="1.508" transform="matrix(0.707, -0.708, 0.708, 0.707, 51.957, 48.226)" fill="#ebb044"/>
                <rect id="Rectangle_102" data-name="Rectangle 102" width="1.508" height="1.508" transform="matrix(0.706, -0.708, 0.708, 0.706, 56.182, 52.449)" fill="#ebb044"/>
                <path id="Path_1766" data-name="Path 1766" d="M568.149,285.79l-.829.832a4.775,4.775,0,0,0,1.415.713l.482-.482Z" transform="translate(-513.714 -231.598)" fill="#ebb044"/>
                <path id="Path_1767" data-name="Path 1767" d="M592.06,293.538h0a4.741,4.741,0,0,0,.662-.047l-.311-.311Z" transform="translate(-533.762 -237.586)" fill="#ebb044"/>
                <path id="Path_1768" data-name="Path 1768" d="M561.029,278.38l-.759.758a4.806,4.806,0,0,0,.948,1.178l.878-.87Z" transform="translate(-508 -225.593)" fill="#ebb044"/>
                <path id="Path_1769" data-name="Path 1769" d="M556.93,271a4.822,4.822,0,0,0,.408,1.7l.643-.645Z" transform="translate(-505.294 -219.612)" fill="#ebb044"/>
                <path id="Path_1770" data-name="Path 1770" d="M577.67,293.443a4.839,4.839,0,0,0,.631.066l-.349-.349Z" transform="translate(-522.101 -237.57)" fill="#ebb044"/>
                <path id="Path_1771" data-name="Path 1771" d="M595.74,286.826l.539.539a4.8,4.8,0,0,0,1.464-.667l-.939-.937Z" transform="translate(-536.744 -231.573)" fill="#ebb044"/>
                <path id="Path_1772" data-name="Path 1772" d="M603.14,279.454l.988.988a4.885,4.885,0,0,0,.994-1.138l-.918-.914Z" transform="translate(-542.741 -225.601)" fill="#ebb044"/>
                <path id="Path_1773" data-name="Path 1773" d="M611.614,270.9l-1.064,1.068.821.819a4.8,4.8,0,0,0,.47-1.659Z" transform="translate(-548.746 -219.531)" fill="#ebb044"/>
                <path id="Path_1774" data-name="Path 1774" d="M611.566,228.967l.25-.25a4.821,4.821,0,0,0-.357-1.777l-.959.959Z" transform="translate(-548.706 -183.907)" fill="#ebb044"/>
                <path id="Path_1775" data-name="Path 1775" d="M604.146,223.494l1.064-1.068-.506-.506h-1.117l-.506.506Z" transform="translate(-542.693 -179.839)" fill="#ebb044"/>
                <path id="Path_1776" data-name="Path 1776" d="M610.53,233.2l1.066,1.066.252-.252,0-1.629-.252-.252Z" transform="translate(-548.73 -183.575)" fill="#ebb044"/>
                <rect id="Rectangle_103" data-name="Rectangle 103" width="1.508" height="1.508" transform="matrix(0.706, -0.708, 0.708, 0.706, 60.399, 51.039)" fill="#ebb044"/>
                <path id="Path_1777" data-name="Path 1777" d="M600.734,221.93H600.4l.167.167Z" transform="translate(-540.521 -179.847)" fill="#ebb044"/>
                <path id="Path_1778" data-name="Path 1778" d="M561.386,222.5l-.506-.5H559.8a4.819,4.819,0,0,0-.391.662l.912.91Z" transform="translate(-507.303 -179.904)" fill="#ebb044"/>
                <path id="Path_1779" data-name="Path 1779" d="M557.134,228a4.807,4.807,0,0,0-.284,1.633v.2l1.056-1.058Z" transform="translate(-505.229 -184.766)" fill="#ebb044"/>
                <path id="Path_1780" data-name="Path 1780" d="M571.082,222h-.332l.167.167Z" transform="translate(-516.493 -179.904)" fill="#ebb044"/>
                <g id="Group_24" data-name="Group 24" transform="translate(53.214 44.895)" opacity="0.1">
                  <path id="Path_1781" data-name="Path 1781" d="M565.25,246.571a4.811,4.811,0,0,0,3.239,1.248h1.851a4.824,4.824,0,0,0,4.815-4.83V236.76C575.084,237.693,574.236,246.556,565.25,246.571Z" transform="translate(-565.25 -236.76)" fill="#000100"/>
                </g>
                <path id="Path_1782" data-name="Path 1782" d="M754.677,337.529l15.813-1.174a1.906,1.906,0,0,1,2.046,1.752l.8,10.759a1.906,1.906,0,0,1-1.765,2.035l-15.815,1.172a1.906,1.906,0,0,1-2.046-1.758l-.8-10.759a1.9,1.9,0,0,1,1.767-2.027Z" transform="translate(-664.107 -272.57)" fill="#3b455a"/>
                <path id="Path_1783" data-name="Path 1783" d="M824.185,357.375l3.768-.279a.514.514,0,0,0,.476-.55l-.277-3.741a.512.512,0,0,0-.552-.472l-3.768.279a.514.514,0,0,0-.478.548l.279,3.743a.512.512,0,0,0,.552.472Z" transform="translate(-721.197 -285.521)" fill="#fff"/>
                <path id="Path_1784" data-name="Path 1784" d="M826.533,387.215l3.77-.281a.512.512,0,0,0,.476-.548l-.286-3.741a.514.514,0,0,0-.552-.472l-3.77.279a.514.514,0,0,0-.476.548l.279,3.743a.514.514,0,0,0,.559.472Z" transform="translate(-723.093 -309.703)" fill="#fff"/>
                <path id="Path_1785" data-name="Path 1785" d="M793.163,359.675l3.768-.279a.514.514,0,0,0,.476-.55l-.277-3.741a.512.512,0,0,0-.552-.472l-3.768.279a.514.514,0,0,0-.476.548l.277,3.743a.512.512,0,0,0,.552.472Z" transform="translate(-696.059 -287.385)" fill="#fff"/>
                <path id="Path_1786" data-name="Path 1786" d="M795.535,389.539l3.775-.279a.516.516,0,0,0,.476-.55l-.286-3.736a.512.512,0,0,0-.552-.472l-3.768.283a.514.514,0,0,0-.476.548l.279,3.743a.514.514,0,0,0,.552.463Z" transform="translate(-697.98 -311.591)" fill="#fff"/>
                <path id="Path_1787" data-name="Path 1787" d="M762.133,361.975l3.768-.279a.516.516,0,0,0,.478-.55l-.279-3.741a.512.512,0,0,0-.552-.472l-3.768.279a.514.514,0,0,0-.476.55l.277,3.734a.512.512,0,0,0,.552.48Z" transform="translate(-670.913 -289.249)" fill="#fff"/>
                <path id="Path_1788" data-name="Path 1788" d="M764.521,391.815l3.768-.279a.516.516,0,0,0,.476-.55l-.273-3.741a.512.512,0,0,0-.552-.472l-3.768.279a.514.514,0,0,0-.478.548l.279,3.743A.512.512,0,0,0,764.521,391.815Z" transform="translate(-672.85 -313.43)" fill="#fff"/>
                <path id="Path_1789" data-name="Path 1789" d="M831.839,328.823l.55-.04a.544.544,0,0,1,.584.5l.15,2.019a.54.54,0,0,1-.5.58l-.55.042a.544.544,0,0,1-.584-.5l-.15-2.02A.546.546,0,0,1,831.839,328.823Z" transform="translate(-727.664 -266.437)" fill="#ccd2d9"/>
                <path id="Path_1790" data-name="Path 1790" d="M766.839,333.665l.55-.042a.546.546,0,0,1,.584.5l.15,2.021a.543.543,0,0,1-.5.58l-.548.04a.542.542,0,0,1-.584-.5l-.152-2.021A.546.546,0,0,1,766.839,333.665Z" transform="translate(-674.99 -270.36)" fill="#ccd2d9"/>
                <path id="Path_1791" data-name="Path 1791" d="M733.569,298.718a6.73,6.73,0,0,0-1.591,1.138,5.936,5.936,0,0,0-1.049,1.726,22.4,22.4,0,0,0-1.439,4.479q2.41.569,4.8,1.2a20.306,20.306,0,0,1,2.422-4.308,2.748,2.748,0,0,0,.493-.855,2.43,2.43,0,0,0,.019-.929c-.074-.641-.176-1.282-.309-1.915-.085-.408-.15-1.409-.467-1.7C735.844,297.012,734.157,298.386,733.569,298.718Z" transform="translate(-645.132 -241.033)" fill="#d34e4e"/>
                <path id="Path_1792" data-name="Path 1792" d="M727.785,334.779c.3-1.4.506-2.981,2.325-3.106a1.809,1.809,0,0,1,1.942,1.718,2.981,2.981,0,0,1-.442,1.233l-1.627,3.019a1.044,1.044,0,0,0-.152.423.993.993,0,0,0,.154.5,13.706,13.706,0,0,0,2.507,3.39,2.132,2.132,0,0,0,1.2.711c.235.053,1.365.26.692.728a.379.379,0,0,1-.523-.112,5.335,5.335,0,0,1,1.3,1.045.305.305,0,0,1,.08.4c-.091.233-.19.465-.277.7a.156.156,0,0,1-.057.085.17.17,0,0,1-.119,0l-1.358-.266c-.849-.167-1.138-1.3-1.739-1.909l-3.686-3.77a4.043,4.043,0,0,1-.8-1.024c-.294-.618-.028-1.014.1-1.6Q727.55,335.858,727.785,334.779Z" transform="translate(-643.177 -268.777)" fill="#eac1a4"/>
                <path id="Path_1793" data-name="Path 1793" d="M790.117,252.02a4.187,4.187,0,0,1,.51,1.885.6.6,0,0,0,.161.478c.15.11.019.353.133.2a3.294,3.294,0,0,0,.523-.846,7.054,7.054,0,0,0,0-1.312,1.9,1.9,0,0,0-.364-1.064,2.108,2.108,0,0,0-.537-.41,2.752,2.752,0,0,0-.891-.4c-.554-.1-.9.1-.4.484A3.391,3.391,0,0,1,790.117,252.02Z" transform="translate(-693.368 -203.023)" fill="#3b455a"/>
                <path id="Path_1794" data-name="Path 1794" d="M768.056,260c0,.269-.051.546.19.758a.815.815,0,0,0,.417.165,2.592,2.592,0,0,0,1.162-.083,1.054,1.054,0,0,0,.425-.224.525.525,0,0,0,.15-.429,4.908,4.908,0,0,1,.076-.614,13.462,13.462,0,0,0,.1-1.354c.666-.114,1.447-.328,1.674-1.026a2.266,2.266,0,0,0,.076-.69l.021-2.9a2.785,2.785,0,0,0-.11-.988,2.019,2.019,0,0,0-1.21-1.071,4.346,4.346,0,0,0-3.938.241,2.149,2.149,0,0,0-.791.795,3.29,3.29,0,0,0-.19,1.8l.12,1.693a2.242,2.242,0,0,0,.647,1.741c.269.19.614.216.846.451.4.411.21,1.026.33,1.517A1.014,1.014,0,0,1,768.056,260Z" transform="translate(-674.774 -203.557)" fill="#eac1a4"/>
                <path id="Path_1795" data-name="Path 1795" d="M772.52,275.087c-.011-.178-.089-.7-.358-.379a.533.533,0,0,0-.093.322,1.2,1.2,0,0,1-.034.341.6.6,0,0,1-.6.357.613.613,0,0,1-.282-.066.88.88,0,0,1-.214-.19l-.47-.54c-.269-.309-.8-.176-1.168-.129a2.33,2.33,0,0,0-1.179.457l-.1.085a1.256,1.256,0,0,1-.262.19.792.792,0,0,1-.948-.3c-.1-.135-.2-.309-.362-.332a.332.332,0,0,0-.315.19.948.948,0,0,0-.091.394,2.935,2.935,0,0,0,.252,1.456A2.169,2.169,0,0,0,768.574,278l1.081-.027a3.41,3.41,0,0,0,1.908-.425,2.359,2.359,0,0,0,.9-1.517A3.68,3.68,0,0,0,772.52,275.087Zm-2.408,1.36a1.263,1.263,0,0,1-1.113.129c-.165-.049-.095-.326.068-.277a1.016,1.016,0,0,0,.912-.1C770.123,276.1,770.256,276.348,770.112,276.447Z" transform="translate(-674.741 -222.533)" fill="#3b455a"/>
                <path id="Path_1796" data-name="Path 1796" d="M769.964,243.821a5.335,5.335,0,0,0,.14-.713,1.387,1.387,0,0,1-.7.061v-.417c0-.14-1.562-.19-1.689-.207a5.257,5.257,0,0,0-3.347.448,3.223,3.223,0,0,0-1.646,2.416,4.941,4.941,0,0,0,.781,3.172,7.166,7.166,0,0,1-.095-1.16,2.277,2.277,0,0,1,.248-.732,3.014,3.014,0,0,1,1.06-1.113,5.846,5.846,0,0,1,2.313-.779,6.289,6.289,0,0,1,2.374,0c.353.095.41.19.624-.173a5.818,5.818,0,0,0,.305-.795Z" transform="translate(-672.046 -196.497)" fill="#3b455a"/>
                <path id="Path_1797" data-name="Path 1797" d="M684.839,273.892l1.231-.112.053-2.055-1.14-.6-.96.559.539.819-.231.021-.25-.214-.21.256Z" transform="translate(-608.163 -215.172)" fill="#eac1a4"/>
                <path id="Path_1798" data-name="Path 1798" d="M666.967,319.475a17.927,17.927,0,0,1-3.176-8.946c-.028-.4.074-.948.476-.969a.7.7,0,0,1,.438.173c1.064.774,1.557,2.1,2.4,3.112.167.2.457.4.662.241a.5.5,0,0,0,.148-.343c.11-.891-.049-1.847.009-2.761.044-.675-.125-2.7.393-3.034.11-.068,1.65-.19,1.646-.216l.9,4.9.671,3.682c.336,1.836.15,4.731-.969,6.282a1.186,1.186,0,0,1-.819.569,1.383,1.383,0,0,1-1.035-.569A17.421,17.421,0,0,1,666.967,319.475Z" transform="translate(-591.888 -248.567)" fill="#f7f7f7"/>
                <path id="Path_1799" data-name="Path 1799" d="M636.332,555.683l-.182,1.005-1.955.673-.705-1.168,1.069-.838,1.953-.675Z" transform="translate(-567.336 -444.962)" fill="#3b455a"/>
                <path id="Path_1800" data-name="Path 1800" d="M638.649,424.073,634.6,448.781l-1.83.072-1.087-17.18-.516-8.533Z" transform="translate(-565.456 -338.365)" fill="#3b455a"/>
                <path id="Path_1801" data-name="Path 1801" d="M667.914,426.68l-2.6,24.217-1.678.161L661.859,432.5l-1.409-5.471Z" transform="translate(-589.184 -341.234)" fill="#3b455a"/>
                <path id="Path_1802" data-name="Path 1802" d="M679.015,553.11l-1.815.173.082,1.041,1.9.87.825-1.128Z" transform="translate(-602.758 -443.69)" fill="#3b455a"/>
                <path id="Path_1803" data-name="Path 1803" d="M629.957,404.381l-.827-2.854.827-3.237,12.576.472v4.911Z" transform="translate(-563.803 -318.227)" fill="#484f5b"/>
                <path id="Path_1804" data-name="Path 1804" d="M643.827,276.41c-1.271.855-3.066.366-4.229,1.4a3.273,3.273,0,0,0-.855,2.941,2.722,2.722,0,0,0,.582,1.356,2.285,2.285,0,0,0,.74.535,2.982,2.982,0,0,0,1.138.286,7.013,7.013,0,0,1-.178,1.138l2.19-.267q-.07-.69-.138-1.379a3.128,3.128,0,0,0,.5-.4,4.133,4.133,0,0,0,1.009-3.823A7.884,7.884,0,0,0,643.827,276.41Z" transform="translate(-571.55 -223.996)" fill="#eac1a4"/>
                <path id="Path_1805" data-name="Path 1805" d="M633.292,260.674l.157-.059a5.285,5.285,0,0,1,2.385-.248,2.1,2.1,0,0,1,.851.258,1.9,1.9,0,0,1,.77,1.113,4.978,4.978,0,0,1,.152,1.405.879.879,0,0,0,.425-.366,4.228,4.228,0,0,0,.777-1.614,9.247,9.247,0,0,1,.14-1.83,3.145,3.145,0,0,1,.484-.658,2,2,0,0,0,.305-1.716,1.43,1.43,0,0,0-.666-.88c-.539-.279-1.187-.038-1.773-.176-.3-.07-.569-.237-.868-.29a2.113,2.113,0,0,0-1.724.736,6.215,6.215,0,0,1-1.5,1.269c-.47.22-1,.248-1.485.429a3.019,3.019,0,0,0-1.735,1.911,3.163,3.163,0,0,0,.432,2.968,10.453,10.453,0,0,1,.893,1.246c.1.15.656.7.614.121-.032-.451-.2-.882-.229-1.327A2.352,2.352,0,0,1,633.292,260.674Z" transform="translate(-564.35 -207.127)" fill="#3b455a"/>
                <path id="Path_1806" data-name="Path 1806" d="M627.7,314.716l-6.081-.546s-2,2.812-4.213,10.9a34.633,34.633,0,0,0-.569,15.251,58.338,58.338,0,0,1,16.548-.135l-2.824-20.073Z" transform="translate(-553.363 -254.596)" fill="#f7f7f7"/>
                <path id="Path_1807" data-name="Path 1807" d="M641.272,405.946H641.2v-1.284a1.415,1.415,0,0,0-1.413-1.413h-7.244a1.413,1.413,0,0,0-1.413,1.413v1.284h-.076a.429.429,0,0,0-.429.427v.812h2.183v-.81a.429.429,0,0,0-.429-.427h-.19v-1.039a.6.6,0,0,1,.6-.607h6.722a.607.607,0,0,1,.607.607v1.039h-.19a.427.427,0,0,0-.427.427v.81H641.7v-.81a.427.427,0,0,0-.427-.429Z" transform="translate(-565.018 -326.784)" fill="#3b455a"/>
                <rect id="Rectangle_104" data-name="Rectangle 104" width="27.657" height="21.126" rx="10.563" transform="translate(57.317 80.087)" fill="#ebb044"/>
                <rect id="Rectangle_105" data-name="Rectangle 105" width="1.386" height="21.568" rx="0.693" transform="translate(61.732 79.922)" fill="#3b455a"/>
                <rect id="Rectangle_106" data-name="Rectangle 106" width="1.386" height="21.568" rx="0.693" transform="translate(79.044 79.922)" fill="#3b455a"/>
                <circle id="Ellipse_64" data-name="Ellipse 64" cx="1.428" cy="1.428" r="1.428" transform="translate(75.383 99.296) rotate(-78.73)" fill="#474ebb"/>
                <path id="Path_1808" data-name="Path 1808" d="M684.744,458.536l-2.695-1.016-.04,3.827,2.674-1.17-1.978-.747Z" transform="translate(-606.656 -366.226)" fill="#d34e4e"/>
                <rect id="Rectangle_107" data-name="Rectangle 107" width="2.078" height="1.741" transform="translate(72.783 96.283)" fill="#7fc5a3"/>
                <path id="Path_1809" data-name="Path 1809" d="M622.075,322.6a18.981,18.981,0,0,1-.948,1.792,31.787,31.787,0,0,0-2.435,6.692,2.877,2.877,0,0,0-.118,1.574c.118.444.334.6.19,1.068-.351,1.1-1.094,1.178-1.836.527a22.206,22.206,0,0,1-2.888-3.066,2.2,2.2,0,0,1-.457-.815,2.229,2.229,0,0,1,.072-1.028,29.429,29.429,0,0,1,4.813-10.517,2.215,2.215,0,0,1,1.138-.965,1.738,1.738,0,0,1,1.417.408,3.573,3.573,0,0,1,1.339,3.33A4.379,4.379,0,0,1,622.075,322.6Z" transform="translate(-551.18 -257.561)" fill="#f7f7f7"/>
                <path id="Path_1810" data-name="Path 1810" d="M636.246,376.99l-.686.923,1.492,1.42,1.162-.375.184-1.039-.944-.182.131-.173.315-.03-.059-.317Z" transform="translate(-569.014 -300.966)" fill="#eac1a4"/>
                <path id="Path_1811" data-name="Path 1811" d="M819.047,197.939a16.739,16.739,0,0,0-4.578-1.562,3.47,3.47,0,0,1-.978-.393,16.712,16.712,0,0,0-4.394-2.023c-.284-.08-.569-.148-.868-.2l-.229.6a.658.658,0,0,1,.334.878l-.144.355a1.944,1.944,0,0,0,.03,1.494,2.156,2.156,0,0,0,1.191,1.073,3.69,3.69,0,0,0,1.379.379,2.6,2.6,0,0,0,1.138-.218,2.636,2.636,0,0,0,.948-.7,2.592,2.592,0,0,0,.246-.339c.034-.059.068-.118.1-.178a.55.55,0,0,1,.138-.19.379.379,0,0,1,.432-.015.393.393,0,0,1,.15.207.4.4,0,0,1,0,.235h0c-.025.08-.046.157-.063.237a2.618,2.618,0,0,0,.817,2.518,3.378,3.378,0,0,0,2.243.872,1.945,1.945,0,0,0,1.671-1.215l.142-.353a.656.656,0,0,1,.846-.406s.1-.252.239-.6C819.567,198.229,819.309,198.08,819.047,197.939Z" transform="translate(-708.755 -157.019)" fill="#3b455a"/>
                <path id="Path_1812" data-name="Path 1812" d="M815.232,199.653a14.493,14.493,0,0,0-3.478-1.581l-.19-.051-.379.961-.03.072-.072.19a1.35,1.35,0,0,0,.059,1.092,1.807,1.807,0,0,0,.948.812,3.223,3.223,0,0,0,1.085.309,2.086,2.086,0,0,0,.88-.133,1.87,1.87,0,0,0,.722-.487,1.772,1.772,0,0,0,.19-.243c.027-.042.051-.083.074-.127h0l.3-.741Z" transform="translate(-711.182 -160.471)" fill="#ebb044"/>
                <path id="Path_1813" data-name="Path 1813" d="M841.676,210.719a14.413,14.413,0,0,1,3.6,1.25l.173.093-.379.961-.03.074c-.03.074-.072.19-.072.19a1.346,1.346,0,0,1-.8.749,1.809,1.809,0,0,1-1.251-.07,3.2,3.2,0,0,1-1-.523,2.132,2.132,0,0,1-.546-.7,1.862,1.862,0,0,1-.19-.851,1.631,1.631,0,0,1,.034-.3c.009-.047.021-.1.034-.142h0l.3-.743A.562.562,0,0,1,841.676,210.719Z" transform="translate(-735.65 -170.746)" fill="#ebb044"/>
                <g id="Group_25" data-name="Group 25" transform="translate(99.813 37.549)" opacity="0.1">
                  <path id="Path_1814" data-name="Path 1814" d="M811.2,199.167l.028-.072.379-.961c.063.015.125.034.19.051a14.441,14.441,0,0,1,3.476,1.581l.028.017.03-.072-.108-.059a14.494,14.494,0,0,0-3.474-1.581l-.19-.051-.379.961-.03.072-.072.19a1.339,1.339,0,0,0,.045,1.062,1.328,1.328,0,0,1,0-.948Z" transform="translate(-810.994 -198.02)" fill="#000100"/>
                </g>
                <g id="Group_26" data-name="Group 26" transform="translate(105.546 39.946)" opacity="0.1">
                  <path id="Path_1815" data-name="Path 1815" d="M841.3,211.646a1.31,1.31,0,0,1,.036-.142h0l.3-.741.118.03a14.462,14.462,0,0,1,3.6,1.252l.1.055.027-.064-.173-.093a14.411,14.411,0,0,0-3.6-1.25.484.484,0,0,1-.118-.032l-.3.743h0c-.013.046-.025.095-.034.142a1.636,1.636,0,0,0-.034.3,1.85,1.85,0,0,0,.171.819,1.847,1.847,0,0,1-.129-.719,1.634,1.634,0,0,1,.03-.3Z" transform="translate(-841.227 -210.66)" fill="#ffd559"/>
                </g>
                <g id="Group_27" data-name="Group 27" transform="translate(99.945 39.316)" opacity="0.1">
                  <path id="Path_1816" data-name="Path 1816" d="M811.69,207.844l.015.032a1.807,1.807,0,0,0,.948.812,3.222,3.222,0,0,0,1.085.309,2.086,2.086,0,0,0,.88-.133,1.811,1.811,0,0,0,.74-.506,1.676,1.676,0,0,0,.167-.224c.027-.042.051-.083.074-.127h0l.267-.667S814.549,208.982,811.69,207.844Z" transform="translate(-811.69 -207.34)" fill="#000100"/>
                </g>
                <g id="Group_28" data-name="Group 28" transform="translate(105.834 42.096)" opacity="0.1">
                  <path id="Path_1817" data-name="Path 1817" d="M842.75,222.083a2.119,2.119,0,0,0,.44.508,3.2,3.2,0,0,0,1,.523,1.809,1.809,0,0,0,1.251.07,1.346,1.346,0,0,0,.8-.749s.042-.108.072-.19l.03-.074L846.4,222A3.868,3.868,0,0,1,842.75,222.083Z" transform="translate(-842.75 -222)" fill="#000100"/>
                </g>
                <path id="Path_1818" data-name="Path 1818" d="M813.711,199.419c-.228-.085-.466-.165-.711-.233h0a.178.178,0,0,0-.212.114l-.267.666-.025.063-.045.112A1.208,1.208,0,0,1,813.711,199.419Z" transform="translate(-712.361 -161.411)" fill="#fff"/>
                <path id="Path_1819" data-name="Path 1819" d="M843.065,211.972a5.051,5.051,0,0,0-.664-.19h0a.165.165,0,0,0-.19.1l-.239.6-.023.055-.04.1A1.138,1.138,0,0,1,843.065,211.972Z" transform="translate(-736.235 -171.621)" fill="#fff"/>
                <path id="Path_1820" data-name="Path 1820" d="M479.833,350.431a11.843,11.843,0,0,1,.051,2.729,19.422,19.422,0,0,1-.853,2.954,14.165,14.165,0,0,0-.556,5.454,6.987,6.987,0,0,0,1.2,3.6,8.83,8.83,0,0,1,1.471,1.949,33.971,33.971,0,0,1-5.309-.394c-.948-7.991.654-16.044.933-24.082.121-4.02-.006-8.287,2.08-11.719.264-.436,1.073-1.54,1.5-.8.294.512-.3,2.076-.389,2.641a52.354,52.354,0,0,0-.556,5.89A88.744,88.744,0,0,0,479.833,350.431Z" transform="translate(-439.341 -267.325)" fill="#ccd2d9"/>
                <path id="Path_1821" data-name="Path 1821" d="M521.831,329.387c.394,1.9.994,3.749,1.289,5.662.5,3.252.108,6.576.4,9.86.294,3.345,1.3,6.705.69,10.008a15.075,15.075,0,0,0-.622,3.982l2.645.557a1.221,1.221,0,0,0,.732,0,1.02,1.02,0,0,0,.438-.448,5.682,5.682,0,0,0,.6-2.3,97.985,97.985,0,0,0,.353-11.095,43.291,43.291,0,0,0-3.186-18.634c-.758-2.133-1.591-4.361-3.328-5.821-.379-.317-1.617-1.382-1.83-.586-.146.55.685,2.228.817,2.863C521.235,325.4,521.421,327.413,521.831,329.387Z" transform="translate(-475.358 -259.55)" fill="#ccd2d9"/>
                <path id="Path_1822" data-name="Path 1822" d="M469.16,270.174l.611-1.834.789.237-.142,1.354.421-.063-.711,1.5-.851-.137Z" transform="translate(-434.167 -212.919)" fill="#eac1a4"/>
                <path id="Path_1823" data-name="Path 1823" d="M464.849,318.6a5.348,5.348,0,0,0,.779-.028,2.484,2.484,0,0,0,1.382-.506,2.946,2.946,0,0,0,.781-1.707c.252-1.27.776-3.294.457-4.574-.328-1.327-1.756.057-2.368.705a2.861,2.861,0,0,1-.673.6.819.819,0,0,1-.859,0,1.2,1.2,0,0,1-.36-.87,37.752,37.752,0,0,1-.3-4.4l-2.966-.317-.267,5.076c-.085,1.606-.7,3.413.624,4.54A6.155,6.155,0,0,0,464.849,318.6Z" transform="translate(-426.939 -249.199)" fill="#ccd2d9"/>
              </g>
            </g>
          </g>
          <g id="Group_30" data-name="Group 30" transform="translate(87.192 80.994)">
            <path id="Path_1824" data-name="Path 1824" d="M452.435,966.906s-.949,11.348.588,12.478,5.832,1.673,5.832,1.673h1.085V967.9l.995,1.085.543,11.212a7.555,7.555,0,0,0,4.431,2.125,1.986,1.986,0,0,0,2.4-2.125s-.362-12.795-1.266-13.292-7.1-1.04-7.1-1.04l-4.558.632Z" transform="translate(-452.145 -965.867)" fill="#ffb603"/>
          </g>
        </g>
      </g>
      <path id="Path_1829" data-name="Path 1829" d="M417.5,1269.815l50-83.315H443.3l-28.8,55.6C414.5,1240.9,417.5,1269.815,417.5,1269.815Z" fill="#d6edec"/>
      <path id="Path_1830" data-name="Path 1830" d="M489.1,1185l-19.2,34.9-13.6-2.6,13.6-32.3Z" fill="#d7eeec"/>
      <path id="Path_1831" data-name="Path 1831" d="M536.3,1214.7l14.4-30.2c-.2.4-14.4,0-14.4,0l-9.6,30.2Z" fill="#cbeaed"/>
      <path id="Path_1832" data-name="Path 1832" d="M578.3,1214.7l15-29.8H554.9l-12.4,29.8Z" fill="#c8e8eb"/>
      <rect id="Rectangle_117" data-name="Rectangle 117" width="200" height="61" transform="translate(415 1324)" fill="#fcc787"/>
    </g>
  </g>
</svg>
