<svg xmlns="http://www.w3.org/2000/svg" xmlns:xlink="http://www.w3.org/1999/xlink" width="200" height="200" viewBox="0 0 200 200">
  <defs>
    <clipPath id="clip-path">
      <rect id="Rectangle_12" data-name="Rectangle 12" width="48" height="34" transform="translate(47.559 33.83) rotate(180)" fill="none"/>
    </clipPath>
  </defs>
  <g id="Group_57" data-name="Group 57" transform="translate(-1407 -727)">
    <g id="Group_46" data-name="Group 46" transform="translate(619 -420)">
      <rect id="Rectangle_112" data-name="Rectangle 112" width="200" height="200" transform="translate(788 1147)" fill="#ffb603"/>
      <g id="Group_39" data-name="Group 39" transform="translate(366 758)">
        <g id="Group_15" data-name="Group 15" transform="translate(422 437)">
          <path id="Path_1186" data-name="Path 1186" d="M293.3,334.225H197.168c-25.479-5.642-46.287-25.077-46.287-54.14a60.52,60.52,0,0,1,1.418-13.073l77.49-12.482,59.779-9.628a106.909,106.909,0,0,1,12.228,9.321l-57.22,21.827-26.993,10.3,30.314-7.534,62.918-15.638a107.316,107.316,0,0,1,10.388,13.67L302.176,291.07l21.5-10.175q.136.235.272.471C337.432,304.9,320.431,334.225,293.3,334.225Z" transform="translate(-150.881 -227.518)" fill="#f2f2f2"/>
          <path id="Path_1187" data-name="Path 1187" d="M284.391,177.607c-14.552,3.006-32.443,6.8-50.838,10.753-26.6,5.711-54.246,11.739-74.375,16.146l.013-.052a17.989,17.989,0,0,1,5.139-8.609,106.6,106.6,0,0,1,55.1-27.484h0a107.611,107.611,0,0,1,18.126-1.531A106.488,106.488,0,0,1,284.391,177.607Z" transform="translate(-157.331 -166.829)" fill="#f2f2f2"/>
          <path id="Path_1188" data-name="Path 1188" d="M616.119,215.67v98.415H712.53V215.67Zm87.5,69.469H625.248V224.131h78.376Z" transform="translate(-512.53 -204.795)" fill="#3f3d56"/>
          <path id="Path_1189" data-name="Path 1189" d="M791.462,316.17a9.233,9.233,0,0,0-7.079-4.2s-4.582-.586-7.522,5.531c-2.74,5.7-6.521,11.206-.609,12.54l1.068-3.324.661,3.571a23.141,23.141,0,0,0,2.53.043c6.332-.2,12.361.06,12.167-2.212C792.421,325.1,793.749,320.034,791.462,316.17Z" transform="translate(-634.575 -279.639)" fill="#2f2e41"/>
          <path id="Path_1190" data-name="Path 1190" d="M745.772,502.17l-8.016,5.566s-4.676,4.9-1.336,4.9S741.1,508.4,741.1,508.4l10.242-4.453Z" transform="translate(-605.11 -427.504)" fill="#ffb8b8"/>
          <path id="Path_1191" data-name="Path 1191" d="M778.882,404.67s-7.014,21.709-4.787,22.822,7.125,1.781,7.125,1.781Z" transform="translate(-634.992 -351.713)" fill="#d0cde1"/>
          <path id="Path_1192" data-name="Path 1192" d="M778.882,404.67s-7.014,21.709-4.787,22.822,7.125,1.781,7.125,1.781Z" transform="translate(-634.992 -351.713)" opacity="0.1"/>
          <path id="Path_1193" data-name="Path 1193" d="M841.028,507.848H825.239l11.218-5.678a7.14,7.14,0,0,1,.71.525A14.242,14.242,0,0,1,841.028,507.848Z" transform="translate(-675.088 -427.504)" fill="#2f2e41"/>
          <circle id="Ellipse_46" data-name="Ellipse 46" cx="5.789" cy="5.789" r="5.789" transform="translate(142.554 35.813)" fill="#ffb8b8"/>
          <path id="Path_1194" data-name="Path 1194" d="M816.131,365.065s1.336,4.231,0,5.789,7.348-2.227,7.348-2.227-3.117-4.453-2.227-6.457Z" transform="translate(-667.899 -318.676)" fill="#ffb8b8"/>
          <path id="Path_1195" data-name="Path 1195" d="M807.123,393.781l-.468,3.048s.236.692.523,1.7a27.187,27.187,0,0,1,.966,4.725c.136,1.576-.069,2.846-1.044,2.926-1.4.116-2.126.964-2.852,2.227H788.141c.042-.695.094-1.416.154-2.158q.05-.668.111-1.354c.045-.526,1.622-10.4.436-12.52-2.449-4.386.668-6.9.668-6.9s.445-3.34.445-4.453c0-.873,3.42-1.881,4.9-2.278.1-.024.18-.049.258-.067.256-.067.41-.1.41-.1l1.169-.479s3.284-.635,3.507-1.08a1.131,1.131,0,0,1,.57-.405,8.069,8.069,0,0,0,1.211-.485,5.666,5.666,0,0,0,.55-.748,2.976,2.976,0,0,1,1.639-.957c2.391-.6,5.827.592,5.827.592l-1.2,7.849Z" transform="translate(-646.066 -328.063)" fill="#d0cde1"/>
          <path id="Path_1196" data-name="Path 1196" d="M868.772,440.17l-8.016,5.566s-4.676,4.9-1.336,4.9S864.1,446.4,864.1,446.4l10.242-4.453Z" transform="translate(-700.723 -379.308)" fill="#ffb8b8"/>
          <path id="Path_1197" data-name="Path 1197" d="M800.523,320.663l-4.646-2.433-2.915.452a5.211,5.211,0,0,0-4.283,4l-.545,2.407,3.3-.127.923-2.154v2.118l1.525-.059.885-3.429.553,3.65,5.42-.111Z" transform="translate(-646.245 -284.519)" fill="#2f2e41"/>
          <path id="Path_1198" data-name="Path 1198" d="M880.119,378.115l1.559-.445s15.809,6.457,15.363,12.024.223,5.566-2.449,5.789-10.465-2.449-10.242-2.895,1.781-2.672,1.781-2.672l-6.012-4.676Z" transform="translate(-717.748 -330.725)" fill="#d0cde1"/>
          <circle id="Ellipse_47" data-name="Ellipse 47" cx="0.891" cy="0.891" r="0.891" transform="translate(153.242 40.711)" fill="#ffb8b8"/>
          <path id="Path_1199" data-name="Path 1199" d="M150.941,417.671v50.766h49.732V417.671Zm45.023,35.835H155.535v-31.47h40.429Z" transform="translate(-150.928 -361.819)" fill="#3f3d56"/>
          <path id="Path_1210" data-name="Path 1210" d="M405.087,531.908a13.459,13.459,0,0,1-2.7,3.419l1.982-.374A51,51,0,0,1,307.7,546.016l2.015-.086a13.456,13.456,0,0,1-3.4-2.717,13.448,13.448,0,0,1-.513,4.325l1.491-1.353a51.446,51.446,0,0,0,97.518-11.161l1.759.978A13.443,13.443,0,0,1,405.087,531.908Z" transform="translate(-271.306 -450.62)" fill="#ffb603"/>
          <path id="Path_1211" data-name="Path 1211" d="M956.332,354.509a14.053,14.053,0,0,1-1.484-5.561c-.34-3.4-.121-9.125,2.849-17.113a34.51,34.51,0,0,0-1.368-27.466l.342-.2a30.311,30.311,0,0,1,2.86,8.1,35.344,35.344,0,0,1-1.464,19.7c-5.617,15.108-1.441,22.26-1.4,22.331Z" transform="translate(-775.745 -273.59)" fill="#3f3d56"/>
          <circle id="Ellipse_50" data-name="Ellipse 50" cx="2.566" cy="2.566" r="2.566" transform="translate(175.82 24.757)" fill="#ffb603"/>
          <circle id="Ellipse_51" data-name="Ellipse 51" cx="2.566" cy="2.566" r="2.566" transform="translate(183.913 34.232)" fill="#3f3d56"/>
          <circle id="Ellipse_52" data-name="Ellipse 52" cx="2.566" cy="2.566" r="2.566" transform="translate(178.386 40.548)" fill="#ffb603"/>
          <circle id="Ellipse_53" data-name="Ellipse 53" cx="2.566" cy="2.566" r="2.566" transform="translate(185.098 45.878)" fill="#ffb603"/>
          <circle id="Ellipse_54" data-name="Ellipse 54" cx="2.566" cy="2.566" r="2.566" transform="translate(176.413 54.168)" fill="#3f3d56"/>
          <path id="Path_1212" data-name="Path 1212" d="M967.459,492.084s-2.566-6.316,5.132-11.054Z" transform="translate(-785.322 -411.071)" fill="#3f3d56"/>
          <path id="Path_1213" data-name="Path 1213" d="M919.085,506.909s-1.168-6.717-10.207-6.659Z" transform="translate(-740.104 -426.011)" fill="#3f3d56"/>
        </g>
        <g id="Layer_2" data-name="Layer 2" transform="translate(424.441 495.17)">
          <g id="OBJECTS" transform="translate(0 0)">
            <g id="Group_12" data-name="Group 12" transform="translate(0 0)" clip-path="url(#clip-path)">
              <path id="Path_11" data-name="Path 11" d="M144.682,328.843a40.583,40.583,0,0,0-3.137-2.855c-.231-.069-.361.1-.5.2-2.013,1.422-4.053,2.805-6.064,4.227-.14.1-.3.191-.208.39a.416.416,0,0,0,.119.074c1.788.766,3.668,1.321,5.527,1.926a8.6,8.6,0,0,1,2.114,1.063c.074.048.153.088.228.136a2.345,2.345,0,0,0,.66.365h0c.4.484.963.838,1.36,1.332a1.514,1.514,0,0,0,.567.519l.059.073a1.157,1.157,0,0,0,.462.621h0a2.675,2.675,0,0,0,.5.981,13.17,13.17,0,0,1,1.592,4.586c.046.289.237.536.237.829l.021.311a4.79,4.79,0,0,1-.038,1.019,3.3,3.3,0,0,0,.175,1c.025.021.068.048.076.04.417-.458,1.022-.35,1.564-.4.43-.038.867-.023,1.3-.067a2.681,2.681,0,0,0,.184-1.138,11.048,11.048,0,0,0-.136-2.6c-.143-.674-.175-1.364-.35-2.033a.75.75,0,0,0-.256-.5h.005a7,7,0,0,0-.963-2.639l-.109-.252a3.871,3.871,0,0,0-.8-1.576v0a1.722,1.722,0,0,0-.639-1.066.065.065,0,0,1-.033-.074.8.8,0,0,0-.4-.613h0a.562.562,0,0,0-.254-.364l-.046-.081a5.956,5.956,0,0,0-1.366-1.838l-.18-.2a3.021,3.021,0,0,0-.994-1.107h0c-.041-.13-.175-.192-.267-.281Z" transform="translate(-122.94 -297.352)" fill="#4b4b4b"/>
              <path id="Path_12" data-name="Path 12" d="M131.384,384.077a5.157,5.157,0,0,0-2.006-1.107c-1.851-.655-3.78-1.132-5.556-1.956a.578.578,0,0,0-.193-.009c.059.313.418.333.619.509h0a1.706,1.706,0,0,0,.771.715h0c.052.1.088.208.221.246a2.58,2.58,0,0,0,.689.963l-.006-.005a2.121,2.121,0,0,0,.542,1.075l.053.163a10.558,10.558,0,0,0,.256,1.533,7.216,7.216,0,0,1-.592,3.67,14.407,14.407,0,0,1-2.368,3.665,1.371,1.371,0,0,0-.35.518h0c-.291.161-.565.333-.572.684a.525.525,0,0,1,.362.105,6.649,6.649,0,0,0,1.527.5,2.138,2.138,0,0,1-1.734-.052.247.247,0,0,0-.263.088h0c-.214.052-.234.213-.263.372a2.2,2.2,0,0,0-.013,1.238c.1.14.279.145.432.2a2.273,2.273,0,0,0,.427.066c.463.025.8.175.836.64a.072.072,0,0,0,.121-.011l-.007.008c.154-.336.4-.379.741-.207a3.171,3.171,0,0,0,1.154.214l.175.016a1,1,0,0,0,.333.054c.544-.066,1.09-.016,1.634-.032.226-.007.457,0,.6-.208.13-.408-.2-.5-.517-.613a2.487,2.487,0,0,1-.677-.187,3.662,3.662,0,0,0-1.286-.575l-.088-.049a2.344,2.344,0,0,0-.468-.491c-.208-.175-.209-.316.042-.484a4.624,4.624,0,0,0,1.217-1.11l.088-.088a3.635,3.635,0,0,0,1.087-1.217v0c.287-.116.369-.366.486-.593.071-.094.141-.188.211-.283a2.481,2.481,0,0,0,.783-1.03,12.4,12.4,0,0,0,1.775-6.046,1.255,1.255,0,0,0-.036-.35C131.49,384.437,131.534,384.23,131.384,384.077Z" transform="translate(-111.692 -347.564)" fill="#353535"/>
              <path id="Path_13" data-name="Path 13" d="M131.8,37.011c-.033-.141-.075-.282-.1-.425a2.153,2.153,0,0,0-3.3-1.313,2.157,2.157,0,0,1-1.038.294,3.533,3.533,0,0,0-3.58,3.185c-.025.6-.022,1.191-.032,1.787l-.005.613c-.214.376-.3.832-.795,1.039-.07.029-.117.165-.059.181.328.088.405.455.734.525a.963.963,0,0,0,.81-.2,1,1,0,0,0,.735-1.128c0-.481-.159-.981.14-1.441.094-.2.309-.251.514-.312.623-.151.888.017.926.587.014.2-.005.407.016.613.017.162.046.326.263.377a.538.538,0,0,0,.559-.182.954.954,0,0,0,.2-.484c.075-.43.165-.859.228-1.291.088-.576.305-.788.937-.9.508-.1,1.014-.2,1.528-.263a2.458,2.458,0,0,0,.963-.285C131.925,37.652,131.991,37.46,131.8,37.011Z" transform="translate(-112.104 -31.787)"/>
              <path id="Path_14" data-name="Path 14" d="M59.1,360.877c.123.088.183-.022.263-.065.444-.191.578-.4.509-.8-.014-.088-.057-.164,0-.247h-.005a1.877,1.877,0,0,0,.186-1.019,1.377,1.377,0,0,1,.018-.592c.006-.1.013-.2.019-.307a6.228,6.228,0,0,0,.236-2.154c-.026-.291-.008-.582-.015-.875-.013-.538-.109-.621-.722-.625a.654.654,0,0,0-.505.579,3.2,3.2,0,0,0-.025.565c-.01.509-.045.541-.613.545-.656.005-.663-.012-.681-.607a6.736,6.736,0,0,1,.11-.861,1.475,1.475,0,0,0-1.34-.112.669.669,0,0,0-.438.788,8.121,8.121,0,0,1,.021,1.437,24.3,24.3,0,0,0,.425,3.727.685.685,0,0,0,.653.613A7.51,7.51,0,0,1,59.1,360.877Z" transform="translate(-51.166 -323.099)" fill="#292929"/>
              <path id="Path_15" data-name="Path 15" d="M111.736,110.036l-.235.263a1.555,1.555,0,0,0-.465.374,6.478,6.478,0,0,1-3.094,1.877,3.208,3.208,0,0,1-1.389.109,2.652,2.652,0,0,1-.824-.235,1.764,1.764,0,0,1-.334-.163c-.118-.08-.215-.18-.326-.269a4.076,4.076,0,0,1-.414-.3,7.647,7.647,0,0,0-3.386-1.313,1.058,1.058,0,0,0-.273.025,1.19,1.19,0,0,1-.488.053l-.061.005a.081.081,0,0,1-.088.027c-.39.109-.533.413-.7.7h0a.942.942,0,0,0-.236.137c-.1.107-.223.221-.17.371.064.181.242.2.427.175a4.738,4.738,0,0,1,3.737.251,2.035,2.035,0,0,1,.278.175,4.183,4.183,0,0,1,.782.695,3.532,3.532,0,0,0,1.269,1.165c.1.052.2.117.3.162a1.109,1.109,0,0,0,.574.088,2.914,2.914,0,0,1,1.016,0,1.053,1.053,0,0,0,.565-.088,7.529,7.529,0,0,0,3.134-2.143,18.923,18.923,0,0,0,1.231-1.828c.128-.35.36-.662.486-1.013.03-.056.057-.114.083-.175.049-.12.1-.238.16-.35.175-.474.321-.958.5-1.431a.669.669,0,0,0,.032-.462.2.2,0,0,0-.159-.127c-.305.2-.357.525-.506.808s-.331.587-.488.885a3.056,3.056,0,0,1-.36.578C112.174,109.408,111.8,109.646,111.736,110.036Z" transform="translate(-90.546 -97.355)" fill="#333"/>
              <path id="Path_16" data-name="Path 16" d="M44.416,301.541a6.283,6.283,0,0,0-.055-1.636c-.057-.219.118-.316.253-.43a1.807,1.807,0,0,1,1.384-.06c.016,0,.039.017.046.011a4.355,4.355,0,0,0,1.6-1.784.41.41,0,0,0-.254-.31,1.024,1.024,0,0,0-.607.014c-.06.021.018,0-.046.009.014-.019.041-.018.061-.033a.13.13,0,0,0,0-.114.358.358,0,0,1-.185-.447c.068-.282.164-.558.218-.845a7.064,7.064,0,0,0-.477-1.846.207.207,0,0,0-.281-.165,6.389,6.389,0,0,0-.645,2.193,4.186,4.186,0,0,0-.12.853.272.272,0,0,1-.188.275h-.2c-.164-.088-.32-.136-.411.081a2.5,2.5,0,0,0,.733.06c-.281-.044-.574.074-.846-.095a.981.981,0,0,0-.947.844,6.012,6.012,0,0,0-.256,2.188c.046.232-.109.477-.074.729a.581.581,0,0,0,.587.581c.408.008.45-.247.491-.525.032-.215.032-.429.054-.642-.031.218-.018.438-.044.656C44.189,301.268,44.173,301.461,44.416,301.541Z" transform="translate(-39.331 -268.079)" fill="#333"/>
              <path id="Path_17" data-name="Path 17" d="M293.095,544.9a4.905,4.905,0,0,0-1.733-.05,3.039,3.039,0,0,1-.377.046c-.408-.055-.673.049-.723.446a.175.175,0,0,0-.061.128,7.422,7.422,0,0,0,.057.985c.088.192.289.163.458.185a5.064,5.064,0,0,1,1.18.256c.538.151,1.071.316,1.621.432a.328.328,0,0,0,.137-.034.447.447,0,0,1,.22-.073c-.033.043-.165.023-.1.129.162.122.36.021.533.073.561-.066,1.125-.017,1.687-.032a1.588,1.588,0,0,0,.571-.058c.309-.35.01-.507-.27-.668a.055.055,0,0,1-.067-.027,7.274,7.274,0,0,0-1.462-.562c-.175-.073-.357-.135-.539-.2a.04.04,0,0,1-.055-.029,3.069,3.069,0,0,0-.806-.647l-.088-.11C293.219,545.024,293.275,544.872,293.095,544.9Z" transform="translate(-264.791 -497.023)" fill="#353535"/>
              <path id="Path_18" data-name="Path 18" d="M69.35,428.946l.134.079,1.722-.018c-.038-.042-.076-.12-.115-.12A6.208,6.208,0,0,0,69.35,428.946Z" transform="translate(-63.271 -391.228)" fill="#191919"/>
              <path id="Path_19" data-name="Path 19" d="M108.788,174.33c.137-.175.289-.04.431-.014a10.712,10.712,0,0,0,1.838.268c.814-.006,1.627.008,2.441.006a9.452,9.452,0,0,0,2.064-.279.45.45,0,0,0,.392-.395.414.414,0,0,0,.11-.326,9.235,9.235,0,0,0-.411-2.046,1.442,1.442,0,0,0-1.066-.121,7.975,7.975,0,0,1-5.538-.8c-.027-.016-.322-.037-.056-.163-.074-.243-.37-.239-.539-.389a4.759,4.759,0,0,1-1.041-1.3,3.506,3.506,0,0,1-.363-.613,9.5,9.5,0,0,1-.567-2.2,4.657,4.657,0,0,0-.588-1.644,3.365,3.365,0,0,0-.516-.493,2.585,2.585,0,0,0-3.708,1.225,4.3,4.3,0,0,0,.088,3.535,8.436,8.436,0,0,0,2.925,3.747,12.806,12.806,0,0,0,1.262.811A13.2,13.2,0,0,0,108.788,174.33Z" transform="translate(-92.448 -149.034)" fill="#ffb603"/>
              <path id="Path_20" data-name="Path 20" d="M107.715,275.171c-.209-.284-.575-.3-.886-.4-.688-.215-1.284-.6-1.961-.832-.223.024-.267.2-.34.337a35.244,35.244,0,0,1-4.077,5.806,1.032,1.032,0,0,0-.3.492.748.748,0,0,0,.361.532c.52.645,1,1.313,1.576,1.926.325.35.613.669,1.132.263.126-.317.483-.411.741-.593,2-1.4,4.011-2.8,6.021-4.192.392-.182.374-.342.049-.613A12.036,12.036,0,0,1,107.715,275.171Z" transform="translate(-91.375 -249.874)" fill="#ffb603"/>
              <path id="Path_21" data-name="Path 21" d="M169.751,142.576a4.016,4.016,0,0,0,1.148,1.434c.155.139.373.088.513.214,3.007.492,5.222-.438,6.32-2.652a9.319,9.319,0,0,0,.832-2.817,13.669,13.669,0,0,0,.112-2.18c0-.313.065-.645-.275-.886-.107-.075-.047-.221-.06-.334-.026-.228.066-.466-.065-.685a.236.236,0,0,0-.088.093c-.135.24.105.555-.193.76a2.133,2.133,0,0,1-.659.032.5.5,0,0,0-.534.193l-1.179,1.82a5.168,5.168,0,0,0-.294,1.05,2.985,2.985,0,0,1-2.99,2.188,2.059,2.059,0,0,1-1.442-.626,2.668,2.668,0,0,0-.549-.488.256.256,0,0,0-.209-.152.221.221,0,0,0-.1.193,6.091,6.091,0,0,1-.289,2.151A2.4,2.4,0,0,0,169.751,142.576Z" transform="translate(-154.862 -122.795)" fill="#ad7904"/>
              <path id="Path_22" data-name="Path 22" d="M136.752,73.842c-.018.525.128,1.067-.288,1.529-.008.088.063.128.14.151a12.611,12.611,0,0,1,2.294,1.13c.157.088.3.175.27.374-.045.239-.267.442-.175.707a.627.627,0,0,0,.315.242c.216.01.2-.159.242-.269a3.851,3.851,0,0,1,.5-.937,1,1,0,0,1,.94-.584,2.639,2.639,0,0,0,1.692-.865c.2-.215.2-.382-.088-.525a1.145,1.145,0,0,1-.574-.463c.138-.042.219.051.315.088.656.22.958.186,1.107-.406.067-.27.319-.282.568-.319.6-.092.846-.35.753-.767a.18.18,0,0,0-.088-.1c-.074-.057-.137-.146-.221-.165-.754-.175-.794-.649-.652-1.2.072-.281-.161-.613.175-.848a.2.2,0,0,0-.008-.188c-.1-.388.03-.788-.088-1.177a.192.192,0,0,0-.1-.1,16.664,16.664,0,0,1-2.513.5c-.546.106-.875.342-.95.847-.069.46-.162.917-.237,1.377a1.225,1.225,0,0,1-.167.5.411.411,0,0,1-.455.182c-.2-.046-.139-.207-.143-.329-.006-.2.007-.407,0-.613-.018-.7-.486-.949-1.192-.634a.834.834,0,0,0-.35.98.818.818,0,0,0,.488.557.819.819,0,0,1-.466-.463,1.017,1.017,0,0,1-.032-.633c.023-.088.031-.175-.12-.169a1.211,1.211,0,0,0-.246.906c.01.175.02.35.035.525C137.478,73.19,137.431,73.663,136.752,73.842Z" transform="translate(-124.51 -63.009)" fill="#fbb97e"/>
              <path id="Path_23" data-name="Path 23" d="M282.724,226.749a3.258,3.258,0,0,1,1.117.28,3.941,3.941,0,0,0,1.715.247c.295-.032.592-.079.588-.448,0-.235.213-.3.418-.366s.361-.171.187-.384c-.214-.263-.06-.375.206-.488.572-.242.579-.309.1-.709-.247-.2-.25-.358.061-.495.144-.064.319-.111.294-.3s-.168-.272-.34-.34a5.532,5.532,0,0,0-2.242-.307c-.405.015-.639-.06-.659-.483a1.263,1.263,0,0,0-.431-.859.408.408,0,0,0-.424-.151c-.186.06-.2.211-.2.36a7.063,7.063,0,0,1-.088,1.26,1.571,1.571,0,0,1-.686,1.155c-.025.019-.062.04-.063.063A3.108,3.108,0,0,0,282.724,226.749Z" transform="translate(-257.554 -202.416)" fill="#fbb97f"/>
              <path id="Path_24" data-name="Path 24" d="M356.278,78.348a3.028,3.028,0,0,0-.912-.254c-.128-.039-.27-.074-.273-.209s.138-.18.263-.218l.779-.241c.19-.06.306-.169.249-.36a.311.311,0,0,0-.378-.2c-.593.07-1.188.135-1.778.222-.359.053-.31.364-.4.582a5.1,5.1,0,0,0-.076,1.468c0,.766-.044,1.533.028,2.3.075.53.438.709,1,.714a8.069,8.069,0,0,1,1.105.139c.226.031.445.021.5-.219.051-.215-.13-.305-.327-.365-.245-.074-.493-.143-.735-.224-.117-.04-.263-.088-.23-.237.025-.113.144-.136.252-.175.329-.121.752-.027,1-.345A16.99,16.99,0,0,0,356.278,78.348Z" transform="translate(-322.765 -70.045)" fill="#4d4d4d"/>
              <path id="Path_25" data-name="Path 25" d="M250.127,82.856a12.653,12.653,0,0,0,.9-1.769.363.363,0,0,0,.185-.263c-.04.106-.039.232-.088.35a11.032,11.032,0,0,1-.587,1.926,1.766,1.766,0,0,0,1.119.1c.175-.012.346-.062.525-.078l.121-.032a.688.688,0,0,0,.606-.7,11.664,11.664,0,0,0-.005-2.013,2.149,2.149,0,0,0-2.037-1.774c-.5-.018-.694.117-.767.525v3.142c-.007.079-.115.014-.05.025.107-1.069.017-2.14.046-3.211-.023-.131.081-.279-.064-.4-.1.08-.053.193-.088.287a.58.58,0,0,0-.148.491c-.006.888-.015,1.777.005,2.664C249.806,82.407,249.766,82.712,250.127,82.856Z" transform="translate(-227.915 -71.634)" fill="#4d4d4d"/>
              <path id="Path_26" data-name="Path 26" d="M303.611,91c.029.14.126.175.279.175.618-.005,1.236,0,1.854,0,.126,0,.228-.018.221-.161a1.247,1.247,0,0,0,.088-.135,19.362,19.362,0,0,0,.054-2.22,1.259,1.259,0,0,1,.073-.6c.175-.182.425-.059.628-.13a.35.35,0,0,0,.134-.068.1.1,0,0,0-.016-.129,3.5,3.5,0,0,1-1.181-.059,17.253,17.253,0,0,0-1.9-.022.2.2,0,0,0-.234.175,1.106,1.106,0,0,0-.094.139,19.229,19.229,0,0,0-.026,2.7A.676.676,0,0,0,303.611,91Z" transform="translate(-276.883 -79.882)" fill="#4d4d4d"/>
              <path id="Path_27" data-name="Path 27" d="M251.8,35.949a.175.175,0,0,0,.158.144c.514.054.39.289.2.547a.175.175,0,0,0,.255-.011c.1-.1.046-.271.19-.355a.963.963,0,0,1,.53,0c.118.043.126.175.24.225.013-.256.109-.433.448-.384a.47.47,0,0,0,.175-.432q.017-1.147,0-2.292a.511.511,0,0,0-.137-.4c-.627-.025-1.254,0-1.881-.011l-.088-.005c-.057.088-.165.175-.164.256a19.274,19.274,0,0,0,.046,2.67,21.228,21.228,0,0,0,.075-2.358C251.8,34.336,251.907,35.142,251.8,35.949Z" transform="translate(-229.666 -29.996)" fill="#4d4d4d"/>
              <path id="Path_28" data-name="Path 28" d="M253.16,72.812a.223.223,0,0,1-.235.088.511.511,0,0,0-.384.425l.028.367c.024.046.052.048.083.006.1-.364.424-.361.733-.344a2.013,2.013,0,0,1,1.908,1.828c.01.551,0,1.1,0,1.655a.906.906,0,0,1-.488.884.963.963,0,0,0,.978-.35.489.489,0,0,0,.175-.3,7.631,7.631,0,0,0-.072-2.719,1.383,1.383,0,0,0-.106-.133,2.657,2.657,0,0,0-1.652-1.411c-.093.028-.151-.047-.23-.062a1.668,1.668,0,0,0-.625,0A.5.5,0,0,0,253.16,72.812Z" transform="translate(-230.427 -66.26)" fill="#333"/>
              <path id="Path_29" data-name="Path 29" d="M289.64,90.5a10.637,10.637,0,0,1,0,3.064l1.368.01q0-1.534.007-3.064A4.5,4.5,0,0,0,289.64,90.5Z" transform="translate(-264.28 -82.445)" fill="#1a1a1a"/>
              <path id="Path_30" data-name="Path 30" d="M266.935,255.067a12.9,12.9,0,0,1-.391-2.028c-.361-.2-.671.063-1.007.088a4.388,4.388,0,0,0-.565.113,10.239,10.239,0,0,0,.237,1.774c.018.2.045.4.063.6.469-.088.936-.191,1.407-.263C266.878,255.317,266.964,255.247,266.935,255.067Z" transform="translate(-241.764 -230.734)" fill="#ffb603"/>
              <path id="Path_31" data-name="Path 31" d="M341.755,86.278l.016.114a.906.906,0,0,0-.149.626c0,.767-.006,1.534,0,2.3.006.075.021.15.033.225.088.165.244.187.428.175a1.136,1.136,0,0,1,.639.088c.136-.074.118-.2.118-.31V86.24a.67.67,0,0,0-.067-.2C342.5,86.342,342.058,86.078,341.755,86.278Z" transform="translate(-311.709 -78.421)" fill="#333"/>
              <path id="Path_32" data-name="Path 32" d="M241.705,83.539a.892.892,0,0,1-.163-.619c0-1.084-.014-2.167-.022-3.251a2.429,2.429,0,0,0-.224-.163c-.161-.088-.319-.233-.525-.109s-.052.295-.018.438a3.169,3.169,0,0,1-.05,1.767,3.529,3.529,0,0,0,.133,2.352c.123.218.308.207.516.111Z" transform="translate(-219.493 -72.316)" fill="#f8b87d"/>
              <path id="Path_33" data-name="Path 33" d="M220.17,61l.077.074c.674.006,1-.252,1.007-.85s.041-1.248-.783-1.526a.833.833,0,0,1-.422.914l.007-.005c.139.3.029.621.065.929C220.14,60.69,220.077,60.851,220.17,61Z" transform="translate(-200.781 -53.474)"/>
              <path id="Path_34" data-name="Path 34" d="M258.866,130.073l-1.641-.023a.455.455,0,0,0-.1.342.274.274,0,0,0,.112.077c.183.049.377.027.561.075a.321.321,0,0,0,.206-.035.147.147,0,0,0,.011-.054C258.245,130.231,258.6,130.236,258.866,130.073Z" transform="translate(-234.604 -118.579)" fill="#f1b47b"/>
              <path id="Path_35" data-name="Path 35" d="M382.311,93.85a9.043,9.043,0,0,0,.068,2.376A6.037,6.037,0,0,0,382.311,93.85Z" transform="translate(-348.798 -85.548)" fill="#404040"/>
              <path id="Path_36" data-name="Path 36" d="M242.142,132.031a1.394,1.394,0,0,1-.515-.111c-.2.016-.2.142-.2.277.017.256.029.512.043.769A3.8,3.8,0,0,0,242.142,132.031Z" transform="translate(-220.289 -120.285)" fill="#ad7904"/>
              <path id="Path_37" data-name="Path 37" d="M214.961,289.917a7.44,7.44,0,0,0-2.441-.006A8.738,8.738,0,0,0,214.961,289.917Z" transform="translate(-193.91 -264.358)" fill="#ffb603"/>
              <path id="Path_38" data-name="Path 38" d="M252.544,40.611c.191-.3.07-.624.088-.937a6.276,6.276,0,0,0-.108-1.595v2.473a.039.039,0,0,0,.02.059Z" transform="translate(-230.406 -34.659)" fill="#414141"/>
              <path id="Path_39" data-name="Path 39" d="M289.64,89.905h1.375c0-.035-.006-.07-.009-.105l-1.365.008Z" transform="translate(-264.28 -81.852)" fill="#0d0d0d"/>
              <path id="Path_40" data-name="Path 40" d="M333.026,123.69l.1-.088a.894.894,0,0,0-.963,0l-.005.105Z" transform="translate(-303.078 -112.568)" fill="#0d0d0d"/>
              <path id="Path_41" data-name="Path 41" d="M268.493,69.492c.055.075.079.006.113-.02a.039.039,0,0,0,0-.051c-.08-.11.025-.263-.111-.361A.29.29,0,0,0,268.493,69.492Z" transform="translate(-244.896 -62.927)" fill="#0d0d0d"/>
              <path id="Path_42" data-name="Path 42" d="M124.707,565.3a5.052,5.052,0,0,0,1.57.027c-.006-.654-.175-.758-1.269-.779-.216-.088-.35-.045-.341.191A1.576,1.576,0,0,0,124.707,565.3Z" transform="translate(-113.741 -515.01)" fill="#202020"/>
              <path id="Path_43" data-name="Path 43" d="M173.442,571.25l-.081-.25c-.141.182-.35.167-.565.175a6.623,6.623,0,0,0-1.685.076A16.072,16.072,0,0,0,173.442,571.25Z" transform="translate(-156.124 -520.933)" fill="#303030"/>
              <path id="Path_44" data-name="Path 44" d="M124.163,564.829c0-.175.012-.341.005-.511-.009-.193.109-.248.3-.241-.1-.124-.252-.075-.385-.088A1.724,1.724,0,0,0,124.163,564.829Z" transform="translate(-113.198 -514.537)" fill="#222"/>
              <path id="Path_45" data-name="Path 45" d="M150.161,91.05a1.4,1.4,0,0,1,.288-1.05.572.572,0,0,0-.479.272c.049.286-.074.587.088.865C150.148,91.157,150.195,91.138,150.161,91.05Z" transform="translate(-136.835 -82.034)" fill="#da9e69"/>
              <path id="Path_46" data-name="Path 46" d="M75.995,272.532c.889-1.166,1.862-2.276,2.7-3.481.716-1.028,1.336-2.1,1.965-3.168a5.34,5.34,0,0,0-1.147-.773.464.464,0,0,0-.22.277,24.557,24.557,0,0,1-3.706,5.723,1.282,1.282,0,0,0-.193.3c-.109.421-.525.649-.781.979a7.508,7.508,0,0,1-.781.765c-.368.445-.139.951-.175,1.428a.163.163,0,0,0,.109.12c.438.01.875.017,1.308,0,.142-.005.126-.149.128-.247,0-.263.01-.525,0-.783a.7.7,0,0,1,.39-.694A.533.533,0,0,0,75.995,272.532Z" transform="translate(-67.164 -241.817)" fill="#4d4d4d"/>
              <path id="Path_47" data-name="Path 47" d="M96.565,349.9l-.405.446c.5-.011.651.211.593.634a6.025,6.025,0,0,0,0,.815c.139-.452.016-.921.112-1.375A1.4,1.4,0,0,0,96.565,349.9Z" transform="translate(-87.735 -319.186)" fill="#333331"/>
              <path id="Path_48" data-name="Path 48" d="M75.5,175.913a2.949,2.949,0,0,0,.83-.89,21.838,21.838,0,0,0,3.289-5.41,13.738,13.738,0,0,1-1.862-1.88,6.691,6.691,0,0,1-1.46-3.994,2.839,2.839,0,0,1,1.382-2.512,2.07,2.07,0,0,1,2.3-.1.91.91,0,0,0,.221.081c.145.011.171-.041.1-.146a4.71,4.71,0,0,0-3.632-.438,1.225,1.225,0,0,0-.289.152,7.519,7.519,0,0,0-2.041,3.667,14.813,14.813,0,0,0-.323,7.05,1.477,1.477,0,0,1,.032.646c.263.149.2.414.248.624a5.97,5.97,0,0,1,.358,1.38,4.9,4.9,0,0,0,.533,1.365.35.35,0,0,0,.15.132Z" transform="translate(-67.27 -146.32)" fill="#ffb603"/>
              <path id="Path_49" data-name="Path 49" d="M125.952,140.951c.139-.208-.059-.306-.194-.377a12.87,12.87,0,0,0-2.637-1.267c-.711-.17-.711-.17-1.281.752a8.558,8.558,0,0,1,3.428,1.33C125.633,141.413,125.724,141.1,125.952,140.951Z" transform="translate(-111.167 -126.946)" fill="#ffb603"/>
              <path id="Path_50" data-name="Path 50" d="M159.865,181.174a8.1,8.1,0,0,0,.387-3.038,4.011,4.011,0,0,1-1.269-1.166c-.175.209-.051.422.009.624a12.766,12.766,0,0,1,.494,3.041Z" transform="translate(-144.977 -161.392)" fill="#ffb603"/>
              <path id="Path_51" data-name="Path 51" d="M151.813,173.391a3.434,3.434,0,0,0-.068-1.838c-.1-.607-.286-1.22-.438-1.829a2.533,2.533,0,0,0-.788-.693c-.1.175.057.291.116.429a6.283,6.283,0,0,1,.67,2.165A8.333,8.333,0,0,0,151.813,173.391Z" transform="translate(-137.307 -154.147)" fill="#4d4c4c"/>
              <path id="Path_52" data-name="Path 52" d="M250.52,136.033c.409-.194.849-.031,1.27-.088a.664.664,0,0,0,.088-.8c-.088-.222-.387-.15-.607-.153a1.3,1.3,0,0,0-.241,0Q250.772,135.508,250.52,136.033Z" transform="translate(-228.584 -123.079)" fill="#ad7904"/>
              <path id="Path_53" data-name="Path 53" d="M170.106,156.1a1.389,1.389,0,0,0-.488-.374c-.429.329-.465.832-.689,1.251l.263.17a.888.888,0,0,0,.27-.158C169.68,156.691,170.021,156.469,170.106,156.1Z" transform="translate(-154.135 -142.011)" fill="#ffb603"/>
              <path id="Path_54" data-name="Path 54" d="M161.712,159c-.325.025-.418.337-.682.438l.376.281Z" transform="translate(-146.927 -144.995)" fill="#ad7904"/>
              <path id="Path_55" data-name="Path 55" d="M256.29,134.094c.063.039.125.109.191.111.727.031.826.175.574.845.3-.053.175-.267.188-.419a4.835,4.835,0,0,0,.005-.516l-.175-.032c-.19-.088-.412.02-.6-.074l-.1-.007Z" transform="translate(-233.849 -122.183)" fill="#ad7904"/>
              <path id="Path_56" data-name="Path 56" d="M183.43,191.895a1.98,1.98,0,0,0,1.071,0A1.581,1.581,0,0,0,183.43,191.895Z" transform="translate(-167.366 -174.925)" fill="#252525"/>
              <path id="Path_57" data-name="Path 57" d="M264.028,101.932a.819.819,0,0,0,.19-.582c-.267.13-.152.368-.288.5Z" transform="translate(-240.82 -92.391)" fill="#3c3c3c"/>
              <path id="Path_58" data-name="Path 58" d="M148,167.978l-.116-.429-.193-.149-.1.14Z" transform="translate(-134.663 -152.66)" fill="#ad7904"/>
              <path id="Path_59" data-name="Path 59" d="M113.393,148.627a.689.689,0,0,0-.493.021A.4.4,0,0,0,113.393,148.627Z" transform="translate(-103.009 -135.498)" fill="#232323"/>
              <path id="Path_60" data-name="Path 60" d="M82.44,332.12l-.109.011c-.138.06-.3-.015-.438.052l-.313.049.007.046h.905C82.474,332.225,82.457,332.173,82.44,332.12Z" transform="translate(-74.431 -302.962)" fill="#252627"/>
              <path id="Path_61" data-name="Path 61" d="M58.243,332.79a.053.053,0,0,0-.073.014c.281.183.583.029.875.018Z" transform="translate(-53.07 -303.566)" fill="#262626"/>
              <path id="Path_62" data-name="Path 62" d="M85.2,332.3l.438-.052-.413,0A.041.041,0,0,0,85.2,332.3Z" transform="translate(-77.732 -303.081)" fill="#df7f5c"/>
              <path id="Path_63" data-name="Path 63" d="M290.073,564.442c0,.135.008.271.012.405h.1a4.971,4.971,0,0,1,1.468,0c.207-.137.088-.333.115-.5-.457-.363-1.05-.256-1.583-.375C289.9,564.084,290.067,564.277,290.073,564.442Z" transform="translate(-264.626 -514.518)" fill="#222"/>
              <path id="Path_64" data-name="Path 64" d="M336.62,573l2.171.031c.081,0,.163,0,.16-.108h-1.875C336.922,572.927,336.752,572.885,336.62,573Z" transform="translate(-307.147 -522.685)" fill="#282828"/>
              <path id="Path_65" data-name="Path 65" d="M289.912,553.51c.047-.155-.057-.337.109-.47-.046-.35.093-.707-.088-1.05A3.884,3.884,0,0,0,289.912,553.51Z" transform="translate(-264.466 -503.587)" fill="#282828"/>
              <path id="Path_66" data-name="Path 66" d="M328.81,572.055l.175.024.277-.04A.412.412,0,0,0,328.81,572.055Z" transform="translate(-300.021 -521.828)" fill="#282828"/>
              <path id="Path_67" data-name="Path 67" d="M293.338,572.888a2.578,2.578,0,0,0-1.468,0A9.443,9.443,0,0,0,293.338,572.888Z" transform="translate(-266.314 -522.558)" fill="#121212"/>
              <path id="Path_68" data-name="Path 68" d="M198.973,86.408a.228.228,0,0,1,.117-.225c.2-.106.132-.215-.007-.3a.885.885,0,0,0-.748-.046.514.514,0,0,0-.35.487c-.01.088,0,.241.081.221.531-.12.324.326.485.482.215-.113.047-.395.277-.5A.34.34,0,0,0,198.973,86.408Z" transform="translate(-180.644 -78.18)" fill="#d49c6a"/>
              <path id="Path_69" data-name="Path 69" d="M196.649,74a2.125,2.125,0,0,0-.875.286c-.094.052-.229.117-.165.233.088.152.193.017.28-.021a1.775,1.775,0,0,1,.8-.156c.152.007.376.059.366-.165C197.049,73.933,196.8,74.022,196.649,74Z" transform="translate(-178.463 -67.435)" fill="#92663b"/>
              <path id="Path_70" data-name="Path 70" d="M204.5,93c-.443.088-.181.4-.245.613.1.124.2.327.395.2a.471.471,0,0,0,.125-.717A.223.223,0,0,1,204.5,93Z" transform="translate(-186.35 -84.772)" fill="#353433"/>
              <path id="Path_71" data-name="Path 71" d="M151.1,102l-.1.088a.713.713,0,0,0,.936.449A1.266,1.266,0,0,1,151.1,102Z" transform="translate(-137.775 -92.984)" fill="#e4a66f"/>
              <path id="Path_72" data-name="Path 72" d="M220.243,70.473c-.06-.463.13-.942-.113-1.393C220.226,69.54,220.038,70.018,220.243,70.473Z" transform="translate(-200.854 -62.946)" fill="#8b6238"/>
              <path id="Path_73" data-name="Path 73" d="M174.49,160.806l.682.375a1.487,1.487,0,0,0,.008-1.231A3.7,3.7,0,0,0,174.49,160.806Z" transform="translate(-159.208 -145.862)" fill="#ad7904"/>
              <path id="Path_74" data-name="Path 74" d="M252.943,83.936a.377.377,0,0,1-.083-.006v3.311h.083Z" transform="translate(-230.719 -76.496)" fill="#41464b"/>
              <path id="Path_75" data-name="Path 75" d="M332.052,93.064h.963q.005-1.531.011-3.064l-.122.019a2.792,2.792,0,0,1-.745,0c-.175.057-.115.192-.115.3C332.043,91.237,332.049,92.151,332.052,93.064Z" transform="translate(-302.964 -82.034)" fill="#1a1a1a"/>
              <path id="Path_76" data-name="Path 76" d="M333.45,90.28a.957.957,0,0,0,.745,0Z" transform="translate(-304.255 -82.29)" fill="#080808"/>
              <path id="Path_77" data-name="Path 77" d="M260.751,69.492V69.06h-.788a.469.469,0,0,0,0,.424Z" transform="translate(-237.154 -62.927)" fill="#1b1b1b"/>
              <path id="Path_78" data-name="Path 78" d="M255.745,32.652a8.532,8.532,0,0,0-1.855.035A5.179,5.179,0,0,0,255.745,32.652Z" transform="translate(-231.659 -29.676)" fill="#404040"/>
              <path id="Path_79" data-name="Path 79" d="M259.6,69.524V69.1c-.153.119-.053.277-.079.416l.039.009Z" transform="translate(-236.786 -62.964)" fill="#090909"/>
              <path id="Path_80" data-name="Path 80" d="M258.35,134.017c.182.148.4.058.6.074A1.087,1.087,0,0,0,258.35,134.017Z" transform="translate(-235.728 -122.194)" fill="#b16547"/>
              <path id="Path_81" data-name="Path 81" d="M130.45,567.925a2.054,2.054,0,0,0,.707.068c.156,0,.294-.014.3-.2.007-.166-.088-.2-.256-.244C130.82,567.458,130.553,567.522,130.45,567.925Z" transform="translate(-119.023 -517.751)" fill="#222"/>
            </g>
          </g>
        </g>
      </g>
    </g>
  </g>
</svg>
