<svg xmlns="http://www.w3.org/2000/svg" xmlns:xlink="http://www.w3.org/1999/xlink" width="200.324" height="200" viewBox="0 0 200.324 200">
  <defs>
    <linearGradient id="linear-gradient" y1="0.5" x2="1" y2="0.5" gradientUnits="objectBoundingBox">
      <stop offset="0" stop-color="#ff9f55"/>
      <stop offset="1" stop-color="#ffd255"/>
    </linearGradient>
    <linearGradient id="linear-gradient-2" x1="0" y1="0.5" x2="1" y2="0.5" xlink:href="#linear-gradient"/>
    <linearGradient id="linear-gradient-3" x1="0" y1="0.5" x2="1" y2="0.5" xlink:href="#linear-gradient"/>
  </defs>
  <g id="Group_55" data-name="Group 55" transform="translate(-954.676 -727)">
    <g id="Group_45" data-name="Group 45" transform="translate(-694 -424)">
      <rect id="Rectangle_113" data-name="Rectangle 113" width="200" height="200" transform="translate(1649 1151)" fill="#fff"/>
      <g id="Group_37" data-name="Group 37" transform="translate(194 1086)">
        <g id="Layer_2" data-name="Layer 2" transform="translate(1454.676 65)">
          <g id="Слой_1" data-name="Слой 1" transform="translate(0)">
            <path id="Path_388" data-name="Path 388" d="M499.515,82.345c-3-3.558-8.724-2.446-9.738-2.217a61.859,61.859,0,0,0-8.188,1.8l7.194,17.585a20.923,20.923,0,0,0,7.475-5.6l.844-.87S502.831,86.262,499.515,82.345Z" transform="translate(-300.223 -35.958)" fill="#0d2545"/>
            <path id="Path_389" data-name="Path 389" d="M486.946,100.5a5.729,5.729,0,0,1-4.99-.51,9,9,0,0,1-1.583-1.125,12.32,12.32,0,0,1-3.231-4.617c-1.962-4.852-.824-9.927,2.616-11.333s7.808,1.4,9.81,6.252S490.366,99.078,486.946,100.5Z" transform="translate(-298.353 -37.15)" fill="#102c52"/>
            <path id="Path_390" data-name="Path 390" d="M489.175,90.235c1.694,4.133.706,8.449-2.2,9.639s-6.644-1.184-8.338-5.317-.7-8.449,2.21-9.639S487.481,86.108,489.175,90.235Z" transform="translate(-298.914 -37.965)" fill="#fee9cc"/>
            <path id="Path_391" data-name="Path 391" d="M484.163,108.585V114.3H482.58v1.576h0V107.46a9,9,0,0,0,1.583,1.125Z" transform="translate(-300.566 -47.868)" fill="#0d2545"/>
            <rect id="Rectangle_14" data-name="Rectangle 14" width="1.583" height="1.576" transform="translate(182.021 65.737)" fill="#204257"/>
            <rect id="Rectangle_15" data-name="Rectangle 15" width="1.583" height="16.042" transform="translate(196.068 52.793)" fill="#0d2545"/>
            <rect id="Rectangle_16" data-name="Rectangle 16" width="15.597" height="1.583" transform="translate(182.021 65.737)" fill="#0d2545"/>
            <rect id="Rectangle_17" data-name="Rectangle 17" width="1.583" height="145.789" transform="translate(188.482 43.744)" fill="#0d2545"/>
            <rect id="Rectangle_18" data-name="Rectangle 18" width="12.988" height="1.818" transform="translate(182.779 187.715)" fill="#0d2545"/>
            <rect id="Rectangle_19" data-name="Rectangle 19" width="8.024" height="1.818" transform="translate(185.264 185.962)" fill="#0d2545"/>
            <path id="Path_392" data-name="Path 392" d="M433.281,19.763a21.58,21.58,0,0,0-2.308-5.572l2.348-3.538-3.27-3.27-3.27-3.27-3.538,2.354a21.58,21.58,0,0,0-5.572-2.308L416.847,0h-9.234l-.837,4.166A21.58,21.58,0,0,0,401.2,6.474L397.66,4.12l-3.27,3.27-3.27,3.27,2.354,3.538a21.582,21.582,0,0,0-2.315,5.572L387,20.6v9.234l4.159.837a21.58,21.58,0,0,0,2.315,5.572l-2.354,3.538,3.27,3.27,3.27,3.27,3.538-2.354a21.581,21.581,0,0,0,5.578,2.309l.837,4.166h9.234l.837-4.166a21.582,21.582,0,0,0,5.572-2.308l3.538,2.354,3.27-3.27,3.27-3.27-2.348-3.538a21.581,21.581,0,0,0,2.308-5.572l4.166-.837V20.6ZM412.23,41.4A16.179,16.179,0,1,1,428.4,25.219,16.179,16.179,0,0,1,412.23,41.4Z" transform="translate(-267.492)" fill="url(#linear-gradient)"/>
            <path id="Path_393" data-name="Path 393" d="M456.178,85.464a10.007,10.007,0,0,0-1.059-2.557l1.079-1.622-1.5-1.5-1.491-1.5-1.628,1.079a9.862,9.862,0,0,0-2.55-1.059l-.386-1.91h-4.231l-.386,1.91a10.005,10.005,0,0,0-2.557,1.059l-1.622-1.079-1.5,1.5-1.491,1.5,1.073,1.622a10,10,0,0,0-1.059,2.557l-1.9.379v4.238l1.9.379a10,10,0,0,0,1.059,2.557l-1.072,1.622,1.491,1.5,1.5,1.5,1.622-1.079a10,10,0,0,0,2.557,1.059l.386,1.91h4.231l.386-1.91a9.862,9.862,0,0,0,2.55-1.059l1.628,1.079,1.491-1.5,1.5-1.5-1.079-1.622a10.007,10.007,0,0,0,1.059-2.557l1.91-.379V85.843Zm-9.653,9.914a7.416,7.416,0,1,1,5.252-2.167,7.416,7.416,0,0,1-5.252,2.167Z" transform="translate(-284.091 -34.561)" fill="url(#linear-gradient-2)"/>
            <rect id="Rectangle_20" data-name="Rectangle 20" width="22.712" height="68.987" transform="translate(120.6 171.764) rotate(180)" fill="#aebecc"/>
            <rect id="Rectangle_21" data-name="Rectangle 21" width="196.118" height="138.353" rx="15.25" transform="translate(198.707 170.358) rotate(180)" fill="#f0f0f0"/>
            <rect id="Rectangle_22" data-name="Rectangle 22" width="180.756" height="131.395" transform="translate(192.574 148.673) rotate(180)" fill="#fff"/>
            <rect id="Rectangle_23" data-name="Rectangle 23" width="180.756" height="15.872" transform="translate(192.574 33.15) rotate(180)" fill="url(#linear-gradient-3)"/>
            <path id="Path_394" data-name="Path 394" d="M270,239.17a6.324,6.324,0,1,0,1.85-4.476A6.324,6.324,0,0,0,270,239.17Z" transform="translate(-166.848 -104.161)" fill="#757575"/>
            <rect id="Rectangle_24" data-name="Rectangle 24" width="63.526" height="4.702" rx="2.351" transform="translate(137.477 42.498) rotate(180)" fill="#dfe1e8"/>
            <rect id="Rectangle_25" data-name="Rectangle 25" width="63.526" height="4.702" rx="2.351" transform="translate(137.477 49.712) rotate(180)" fill="#dfe1e8"/>
            <rect id="Rectangle_26" data-name="Rectangle 26" width="63.526" height="4.702" rx="2.351" transform="translate(137.477 56.925) rotate(180)" fill="#dfe1e8"/>
            <path id="Path_395" data-name="Path 395" d="M232.228,180.565H164.478a10.261,10.261,0,0,1-10.248-10.248v-41.2a10.261,10.261,0,0,1,10.248-10.248h67.751a10.261,10.261,0,0,1,10.248,10.248v41.2a10.261,10.261,0,0,1-10.248,10.248Zm-67.751-60.426a8.979,8.979,0,0,0-8.966,8.966v41.2a8.979,8.979,0,0,0,8.966,8.966h67.751a8.979,8.979,0,0,0,8.966-8.966V129.1a8.979,8.979,0,0,0-8.966-8.966Z" transform="translate(-108.214 -56.598)" fill="#dfe1e8"/>
            <rect id="Rectangle_27" data-name="Rectangle 27" width="66.09" height="9.914" rx="4.957" transform="translate(122.196 80.501) rotate(180)" fill="#dfe1e8"/>
            <rect id="Rectangle_28" data-name="Rectangle 28" width="102.176" height="5.206" transform="translate(55.816 169.162)" fill="#f0f0f0"/>
            <path id="Path_396" data-name="Path 396" d="M371.185,131.786A14.714,14.714,0,0,1,363.9,144.5a14.949,14.949,0,0,1-2.792,1.262l-.262.085A14.708,14.708,0,1,1,371.185,131.8Z" transform="translate(-216.316 -53.352)" fill="#eef0f7"/>
            <path id="Path_397" data-name="Path 397" d="M358.841,133.805s-1-6.5,4.382-6.376,5.31,3.329,5.232,6.54-2.158,2.949.17,7.39-2.014,4.434-2.014,4.434l-3.368-4.63Z" transform="translate(-221.067 -57.346)" fill="#3c4145"/>
            <path id="Path_398" data-name="Path 398" d="M362.667,128.34s-3.649.575-3.793,5.755.987,6.285,4.179,5.232,4.192-6.5,4.264-7.337S367.584,127.719,362.667,128.34Z" transform="translate(-220.51 -57.308)" fill="#eea886"/>
            <path id="Path_399" data-name="Path 399" d="M367.4,153.209a3.544,3.544,0,0,1-2.047,3.27l-.262.085a14.753,14.753,0,0,1-10.908-.87c-.445-.883.2-2.138,1.5-4.068.9-1.308,1.772-2.681,3.27-3.335,2.217-.353,4.578-.373,6.219.562C366.5,149.586,367.376,150.933,367.4,153.209Z" transform="translate(-218.997 -66.005)" fill="#e55353"/>
            <path id="Path_400" data-name="Path 400" d="M356.764,151.851l-1.674,2.616s.111-.419.3-1.576c.039-.216.078-.464.118-.739a.429.429,0,0,1,.052-.249h0a7.739,7.739,0,0,1,3.034-2.923Z" transform="translate(-216.758 -66.174)" fill="#e55353"/>
            <path id="Path_401" data-name="Path 401" d="M373,155.615a14.948,14.948,0,0,1-2.792,1.262l-.262.085c-.373-.961-.693-1.792-.765-2.008a2.131,2.131,0,0,0-.131-.334,11.02,11.02,0,0,1-.987-3.649c0-.824.262-1.5,1.092-1.687a2.047,2.047,0,0,1,.883-.033,2.57,2.57,0,0,1,1.766,1.733v.039a5.806,5.806,0,0,1,.327,1.171.459.459,0,0,0,.046.163l.281,1.112C372.6,154.039,372.8,154.785,373,155.615Z" transform="translate(-225.099 -66.426)" fill="#eea886"/>
            <path id="Path_402" data-name="Path 402" d="M365.919,141.53a28.282,28.282,0,0,0-.654,4.3s-4.46,1.687-4,.732a3.643,3.643,0,0,0,.268-1.478,7.279,7.279,0,0,0-.046-.9v-.15S366.233,140.935,365.919,141.53Z" transform="translate(-220.853 -62.826)" fill="#eea886"/>
            <path id="Path_403" data-name="Path 403" d="M361.182,132.014a18.237,18.237,0,0,0,3.577,4.244c1.7,1.2.837,2.158.837,2.158s4.44-9.358.222-10.006-6.814-.693-6.939,5.637C358.88,134.048,360.8,131.968,361.182,132.014Z" transform="translate(-220.604 -57.181)" fill="#3c4145"/>
            <path id="Path_404" data-name="Path 404" d="M364.174,145.05a4.28,4.28,0,0,1-2.5,1.308h0a7.285,7.285,0,0,0-.046-.9A5.14,5.14,0,0,0,364.174,145.05Z" transform="translate(-220.472 -64.173)" fill="#a77860"/>
            <path id="Path_405" data-name="Path 405" d="M355.727,151.913h0a4.124,4.124,0,0,0-.177,1.007l.654-.987s1.171-1.681,1.576-2.119a6.134,6.134,0,0,1,.981-.824A6.732,6.732,0,0,0,355.727,151.913Z" transform="translate(-216.955 -66.079)" fill="#bd4444"/>
            <path id="Path_406" data-name="Path 406" d="M368.851,154.479a25.239,25.239,0,0,1,3.708-1.19s-.575-4.578-3.388-4.107S368.851,154.479,368.851,154.479Z" transform="translate(-224.897 -66.238)" fill="#e55353"/>
            <path id="Path_407" data-name="Path 407" d="M360.756,148.129s-2.1,3.231-1.393,3.512,4.578-.373,6.2-3.446a5.755,5.755,0,0,0-4.807-.065Z" transform="translate(-220.101 -65.487)" fill="#eea886"/>
            <path id="Path_408" data-name="Path 408" d="M374.8,63.815A19.135,19.135,0,1,1,355.665,44.68,19.135,19.135,0,0,1,374.8,63.815Z" transform="translate(-215.891 -15.461)" fill="#eef0f7"/>
            <path id="Path_409" data-name="Path 409" d="M371.632,87.754l-1.413,5.062a19.083,19.083,0,0,1-8.7,3.381c-.562.065-1.138.111-1.72.131h-.654a11.926,11.926,0,0,1-1.831-.092,19.791,19.791,0,0,1-1.995-.294,19.05,19.05,0,0,1-7.848-3.571c-.275-1.674-.562-3.525-.817-5.232,1.406-.53,5.886-2.047,8.711-3a.831.831,0,0,1,.118-.039l.183-.065.477-.163.438-.15,1.131-.379h.052l3.8.288.654.046h.281c.229.059.9.229,1.779.5h0C366.609,84.864,370.258,86.172,371.632,87.754Z" transform="translate(-217.977 -37.295)" fill="#d9c7c1"/>
            <path id="Path_410" data-name="Path 410" d="M364.389,59.383s4.578.772,3.786,7.9-4.794,6.54-5.062,6.494-4.048.092-4.244-8.632C358.87,65.144,358.811,58.7,364.389,59.383Z" transform="translate(-220.788 -26.592)" fill="#eea987"/>
            <path id="Path_411" data-name="Path 411" d="M367.2,77.824a16.588,16.588,0,0,0,.118,3.577c.275.641-3.656,2.662-6.1.353a25.5,25.5,0,0,0,.34-4.336C361.4,76.281,367.2,77.824,367.2,77.824Z" transform="translate(-221.26 -34.213)" fill="#eea987"/>
            <path id="Path_412" data-name="Path 412" d="M373.095,68.285s.5-.53.687,0-.811,2.949-.746,3.054c0,0-.1.209-.216.1a26.413,26.413,0,0,1,.275-3.152Z" transform="translate(-226.834 -30.167)" fill="#eea987"/>
            <path id="Path_413" data-name="Path 413" d="M358.618,67.991s-.484-.549-.687,0a8.235,8.235,0,0,0,.654,3.08s.157.249.281.137a26.157,26.157,0,0,0-.249-3.218Z" transform="translate(-217.75 -30.034)" fill="#eea987"/>
            <path id="Path_414" data-name="Path 414" d="M368.381,64.051c-.157.981-.307,1.707-.307,1.707l-.654.863a17,17,0,0,0-.065-2.217,4.963,4.963,0,0,1-.131-.536c-.072-.36-.15-.765-.2-.9a10.348,10.348,0,0,0-7.311.235,5.375,5.375,0,0,1,0,.621c0,.386-.039.811-.216.876-.327.118-.19,2.243-.19,2.243l-.53-.589s-.157-1.105-.307-2.38h0c-.033-.294-.072-.6-.1-.9-.072-1.308.052-3.61,1.72-4.977,1.125-.477,2.923-.889,5.918,0a2.021,2.021,0,0,1,.883.235C368.767,60.369,368.381,64.051,368.381,64.051Z" transform="translate(-220.665 -25.669)" fill="#e8734d"/>
            <path id="Path_415" data-name="Path 415" d="M362.22,80a2.9,2.9,0,0,0,2.413.968,3.316,3.316,0,0,0,2.426-.916A2.582,2.582,0,0,1,362.22,80Z" transform="translate(-221.498 -35.407)" fill="#c78d71"/>
            <path id="Path_416" data-name="Path 416" d="M360.51,83.913a4.957,4.957,0,0,0,3.538,2.328c1.465.124,2.74-1.74,3.335-2.655A8.9,8.9,0,0,0,360.51,83.913Z" transform="translate(-221.048 -36.807)" fill="#eea987"/>
            <path id="Path_417" data-name="Path 417" d="M368.83,82.85a12.68,12.68,0,0,1-2.91,2.524l1.229,1.9,2.093-3.76Z" transform="translate(-223.315 -36.763)" fill="#eddad3"/>
            <path id="Path_418" data-name="Path 418" d="M360.969,83.28a8.5,8.5,0,0,0,2.982,2.243L362.6,87.485l-2.367-3.427Z" transform="translate(-219.958 -36.946)" fill="#eddad3"/>
            <path id="Path_419" data-name="Path 419" d="M365.346,86.71l1.053,1.609a2.191,2.191,0,0,1-2.138-.039Z" transform="translate(-221.959 -38.382)" fill="#5073ab"/>
            <path id="Path_420" data-name="Path 420" d="M380.72,87.64c-.183.654-.451,1.609-1.171,4.218-.222.19-.445.379-.654.556s-.523.4-.791.589a19.083,19.083,0,0,1-8.724,3.381c.288-6.625,1.073-12.5,1.073-12.5q.935.249,1.766.49h0a40.494,40.494,0,0,1,8.155,3.08h0A3.658,3.658,0,0,1,380.72,87.64Z" transform="translate(-227.853 -37.518)" fill="#323657"/>
            <path id="Path_421" data-name="Path 421" d="M354.286,96.357a19.233,19.233,0,0,1-9.77-5.271l-.347-.36c-.334-1.426-.556-2.354-.569-2.413h0s2.367-1.556,10.745-3.793h0C354.358,84.716,354.358,90.066,354.286,96.357Z" transform="translate(-211.781 -37.779)" fill="#323657"/>
            <path id="Path_422" data-name="Path 422" d="M365.494,89.125c-.078,1.746-.085,5.127-.059,8.992h-.654a11.925,11.925,0,0,1-1.831-.092,58.8,58.8,0,0,1,1.269-8.92c.092-.386.15-.576.15-.576l1.118.183A2.141,2.141,0,0,1,365.494,89.125Z" transform="translate(-221.279 -39.482)" fill="#5073ab"/>
            <path id="Path_423" data-name="Path 423" d="M386.722,91.683a19.664,19.664,0,0,1-2.138,2.165c-.222.19-.445.379-.654.556l1.844-4.774A6.347,6.347,0,0,1,386.722,91.683Z" transform="translate(-234.144 -39.784)" fill="#323657"/>
            <path id="Path_424" data-name="Path 424" d="M344.173,93.093l-.347-.36c-.425-.458-.831-.929-1.216-1.426a2.112,2.112,0,0,1,.654-.987h0Z" transform="translate(-208.61 -40.014)" fill="#323657"/>
            <rect id="Rectangle_29" data-name="Rectangle 29" width="25.779" height="5.997" rx="2.998" transform="translate(56.671 22.215)" fill="#f5f7ff"/>
            <circle id="Ellipse_42" data-name="Ellipse 42" cx="14.708" cy="14.708" r="14.708" transform="matrix(1, -0.013, 0.013, 1, 125.218, 93.105)" fill="#eef0f7"/>
            <path id="Path_425" data-name="Path 425" d="M363.864,195.875a.746.746,0,0,1-.746-.739V184.889a.746.746,0,1,1,1.484,0v10.254a.745.745,0,0,1-.739.732Z" transform="translate(-221.075 -82.274)" fill="#949494"/>
            <path id="Path_426" data-name="Path 426" d="M366.277,193.5H356.029a.739.739,0,1,1,0-1.478h10.248a.739.739,0,0,1,0,1.478Z" transform="translate(-219.277 -84.967)" fill="#949494"/>
            <rect id="Rectangle_30" data-name="Rectangle 30" width="13.792" height="13.792" rx="4.41" transform="translate(114.146 66.161)" fill="#ffbf55"/>
            <path id="Path_427" data-name="Path 427" d="M307.444,131.786l-3.486-3.041a.654.654,0,0,1-.065-.968.693.693,0,0,1,.968-.065l2.465,2.152,3.512-3.924a.693.693,0,0,1,.974-.052.654.654,0,0,1,.052.968Z" transform="translate(-186.587 -55.87)" fill="#f3f3f3"/>
            <rect id="Rectangle_31" data-name="Rectangle 31" width="13.792" height="13.792" rx="4.41" transform="translate(114.146 81.085)" fill="#ffbf55"/>
            <path id="Path_428" data-name="Path 428" d="M307.444,158.836l-3.486-3.041a.654.654,0,0,1-.065-.968.693.693,0,0,1,.968-.065l2.465,2.152,3.512-3.924a.693.693,0,0,1,.974-.052.654.654,0,0,1,.052.968Z" transform="translate(-186.587 -67.892)" fill="#f3f3f3"/>
            <rect id="Rectangle_32" data-name="Rectangle 32" width="13.792" height="13.792" rx="4.41" transform="translate(114.146 96.009)" fill="#ffbf55"/>
            <path id="Path_429" data-name="Path 429" d="M212.462,325.66a10.524,10.524,0,0,1-1.308,2.2c-.589.654-2.858,1.74-2.864,3.6,0,2.014,3.813,1.458,5.31,1.38s1.615-1.144,2.243-2.289,1.269-.942,1.386-1.864a11.006,11.006,0,0,0-.484-2.976Z" transform="translate(-128.069 -147.036)" fill="#131c24"/>
            <path id="Path_430" data-name="Path 430" d="M214.511,324.628l-.111.955a8.325,8.325,0,0,0,4.578.085l-.124-1.308Z" transform="translate(-131.062 -146.586)" fill="#4f4946"/>
            <path id="Path_431" data-name="Path 431" d="M254.387,325.66a10.522,10.522,0,0,0,1.308,2.2c.589.654,2.851,1.74,2.864,3.6,0,2.014-3.813,1.458-5.317,1.38s-1.609-1.144-2.237-2.289-1.269-.942-1.386-1.864a11.006,11.006,0,0,1,.484-2.976Z" transform="translate(-153.48 -147.036)" fill="#131c24"/>
            <path id="Path_432" data-name="Path 432" d="M254.637,324.628l.111.955a8.331,8.331,0,0,1-4.578.085l.124-1.308Z" transform="translate(-152.928 -146.586)" fill="#4f4946"/>
            <path id="Path_433" data-name="Path 433" d="M240.341,265.524c0,2.485,2.322,25.138,2.322,25.138-.268.831-5.951.726-6.84.314s-3.466-22.889-3.63-25.367-3.865-24.269-4.643-24.2-4.467,23.405-5.088,25.308-3.44,24.458-3.44,24.458c-1.962,1.079-6.592-.268-6.592-.268s.974-23.163,1.086-23.863c.163-1.033,0-3.819.445-10.012.405-5.539,1.864-17.592,2.786-24.118.033-.235.065-.458.1-.654.177-1.269.314-2.2.379-2.649.033-.2.046-.3.046-.3.249-.1.51-.2.778-.294,6.5-2.178,18.867-2.04,18.867-2.04s.17,2.223.183,2.335.046.333.078.6c.072.576.183,1.432.307,2.426h0v.085c.432,3.544,1.053,8.73.994,9.267C238.406,242.543,240.341,263.045,240.341,265.524Z" transform="translate(-134.618 -112.888)" fill="#293e4f"/>
            <path id="Path_434" data-name="Path 434" d="M242.934,171.244l-3.191,11.451c-.111.373-.242.831-.379,1.36v.033a44.627,44.627,0,0,0-1.393,8.613c-.131,2.354.307,11.83.307,11.83a31.8,31.8,0,0,1-12.039,1.347s-7.776-.183-7.141-4.951c1.674-12.615.033-17.821-.183-19.083,0,0-.922-5.814-1.674-10.947l11.4-4.277,4.839.366S240.809,168.83,242.934,171.244Z" transform="translate(-136.746 -76.847)" fill="#d9c7c1"/>
            <path id="Path_435" data-name="Path 435" d="M235.318,141.842s4.728.8,3.924,8.194-4.97,6.742-5.232,6.736-4.2.085-4.4-8.959C229.589,147.813,229.53,141.129,235.318,141.842Z" transform="translate(-141.325 -63.583)" fill="#eea987"/>
            <path id="Path_436" data-name="Path 436" d="M238.226,160.967a17.018,17.018,0,0,0,.124,3.708c.288.661-3.8,2.76-6.33.373a26.439,26.439,0,0,0,.353-4.506C232.216,159.364,238.226,160.967,238.226,160.967Z" transform="translate(-142.165 -71.156)" fill="#eea987"/>
            <path id="Path_437" data-name="Path 437" d="M244.338,151.071s.523-.549.706,0-.837,3.061-.772,3.172c0,0-.1.216-.222.1a26.9,26.9,0,0,1,.288-3.27Z" transform="translate(-148.494 -66.87)" fill="#eea987"/>
            <path id="Path_438" data-name="Path 438" d="M229.268,150.766s-.5-.569-.706,0a9.311,9.311,0,0,0,.654,3.2s.163.255.294.137a28,28,0,0,0-.242-3.342Z" transform="translate(-139.043 -66.736)" fill="#eea987"/>
            <path id="Path_439" data-name="Path 439" d="M239.493,146.638c-.164,1.014-.314,1.766-.314,1.766l-.693.9a18.02,18.02,0,0,0-.059-2.3,4.016,4.016,0,0,1-.137-.556c-.078-.373-.163-.8-.216-.935a10.569,10.569,0,0,0-7.579.242,5.851,5.851,0,0,1,0,.654c0,.392-.046.837-.222.9-.34.124-.2,2.328-.2,2.328l-.556-.654s-.157-1.151-.314-2.472h0a8.457,8.457,0,0,0-.1-.942c-.078-1.308.052-3.741,1.779-5.16,1.171-.5,4.362-1.007,6.141,0,0,0,.955.6,1.158.785C240.107,143.362,239.493,146.638,239.493,146.638Z" transform="translate(-141.151 -62.374)" fill="#e8734d"/>
            <path id="Path_440" data-name="Path 440" d="M233.05,163.19a3.028,3.028,0,0,0,2.511,1.007,3.414,3.414,0,0,0,2.511-.955,3.058,3.058,0,0,1-2.524,1.713A3.09,3.09,0,0,1,233.05,163.19Z" transform="translate(-142.546 -72.229)" fill="#c78d71"/>
            <path id="Path_441" data-name="Path 441" d="M231.28,167.276a5.16,5.16,0,0,0,3.669,2.413c1.524.131,2.832-1.8,3.453-2.753A9.241,9.241,0,0,0,231.28,167.276Z" transform="translate(-141.858 -73.749)" fill="#eea987"/>
            <path id="Path_442" data-name="Path 442" d="M239.911,166.17a12.949,12.949,0,0,1-3.021,2.616l1.308,1.962,2.178-3.924Z" transform="translate(-144.602 -73.745)" fill="#eddad3"/>
            <path id="Path_443" data-name="Path 443" d="M231.759,166.62a8.783,8.783,0,0,0,3.093,2.328l-1.406,2.034L231,167.522Z" transform="translate(-141.074 -73.929)" fill="#eddad3"/>
            <path id="Path_444" data-name="Path 444" d="M236.295,170.18l1.1,1.668a2.282,2.282,0,0,1-2.223-.039Z" transform="translate(-143.316 -75.335)" fill="#5073ab"/>
            <path id="Path_445" data-name="Path 445" d="M219.63,226.782s5.931,2.191,19.338.131l-.177-2.433s-7.769,2.3-18.919.34Z" transform="translate(-136.992 -99.502)" fill="#1a2833"/>
            <path id="Path_446" data-name="Path 446" d="M241.55,167.22a147.5,147.5,0,0,0-1.19,19.305c.19,8.933,3.087,25.681,3.087,25.681s5.173-.5,6.455-2.119c0,0-2.969-16.127-2.884-18.514s3.806-20.358,3.806-20.358S249.371,169.273,241.55,167.22Z" transform="translate(-148.09 -77.699)" fill="#385369"/>
            <path id="Path_447" data-name="Path 447" d="M225.757,168.05s0,9.809-.2,18.762-1.367,25.564-1.367,25.564-6.069-.863-7.351-2.479c0,0,2.138-15.649,2.053-18.036s-2.74-20.181-2.74-20.181S217.066,170.365,225.757,168.05Z" transform="translate(-133.021 -78.015)" fill="#385369"/>
            <rect id="Rectangle_33" data-name="Rectangle 33" width="3.643" height="2.707" transform="translate(90.354 125.654)" fill="#3e5e78"/>
            <path id="Path_448" data-name="Path 448" d="M235.148,172.09s-1.628,5.552-1.766,16.578.2,14.2.2,14.2l1.308,2.511,1.687-2.616s-.543-25.38-.229-30.475Z" transform="translate(-142.392 -78.774)" fill="#5073ab"/>
            <path id="Path_449" data-name="Path 449" d="M246.49,194.647s2.407-1.21,2.74-1.426a32.852,32.852,0,0,1,4.865-.791c.51,0,.53.419.386.562s-4.166.8-4.231.9.34.059.34.059,4.329-.065,4.637.222-.046.569-.222.654c0,0,.392.451-.059.654a7.423,7.423,0,0,1-1.073.307s.569.294.2.556-4.97,1.687-4.97,1.687S247.392,194.765,246.49,194.647Z" transform="translate(-151.539 -85.483)" fill="#eea886"/>
            <path id="Path_450" data-name="Path 450" d="M248.385,195.25c-3.126.746-10.365-.471-13.119-1.079-.582-.124-1.243-.262-1.923-.392h0c-1.131-.222-2.309-.438-3.27-.608h0l-2.014-.353s15.185-3.407,15.741-3.407-1.393-8.887-1.393-8.887-1.962-7.429-.942-10.352a27.165,27.165,0,0,1,5.1,2.06c.693.5,1.2,3.721,1.681,5.886.6,2.779,1.995,9.1,2.152,10.463C250.55,189.809,251.518,194.5,248.385,195.25Z" transform="translate(-142.914 -77.17)" fill="#385369"/>
            <path id="Path_451" data-name="Path 451" d="M219.047,170.23s-4.663,1.6-4.885,2.2a54.936,54.936,0,0,0-1.687,6.481c-.373,1.373-1.216,5.474-1.439,6.814-.275,1.7-.8,7.743-.576,8.678.294,1.177,3.067,1.092,4.578.857s22.268-5.291,22.268-5.291-1.184-3.865-1.249-4.205c0,0-16.009,1.831-18.049,2.269-1.164.249-1.419.34-1.419.34S220.106,173.886,219.047,170.23Z" transform="translate(-132.678 -77.185)" fill="#385369"/>
            <path id="Path_452" data-name="Path 452" d="M223.287,194.674s-2.093-1.7-2.374-1.962a31.647,31.647,0,0,0-4.578-1.825.419.419,0,0,0-.543.5c.065.347,3.924,1.648,3.983,1.753s-.34,0-.34,0-4.218-.994-4.578-.778-.078.562.078.654c0,0-.484.36-.078.654a6.754,6.754,0,0,0,.981.53s-.621.163-.314.5a10.435,10.435,0,0,0,2.531.844A36.661,36.661,0,0,1,223.287,194.674Z" transform="translate(-131.939 -84.712)" fill="#eea886"/>
            <path id="Path_453" data-name="Path 453" d="M241.453,201.54l-7.043,3.093h0c-1.131-.222-2.309-.438-3.27-.608Z" transform="translate(-142.381 -89.315)" fill="#263947"/>
            <path id="Path_454" data-name="Path 454" d="M241.72,141.675s1.171-.6,1.8.183.7,4.983-.072,6.6S243.577,142.721,241.72,141.675Z" transform="translate(-147.321 -62.939)" fill="#e8734d"/>
            <path id="Path_455" data-name="Path 455" d="M160.081,214.262a6.8,6.8,0,1,1,6.8-6.8,6.8,6.8,0,0,1-6.8,6.8Zm0-12.811a6.016,6.016,0,1,0,6.01,6.01,6.016,6.016,0,0,0-6.01-6.01Z" transform="translate(-94.846 -89.853)" fill="#b5deff"/>
            <rect id="Rectangle_34" data-name="Rectangle 34" width="20.41" height="1.21" transform="translate(160.289 144.859) rotate(180)" fill="#e2d2ca"/>
            <rect id="Rectangle_35" data-name="Rectangle 35" width="1.785" height="55.097" transform="translate(155.764 138.484)" fill="#706865"/>
            <rect id="Rectangle_36" data-name="Rectangle 36" width="14.185" height="1.733" transform="translate(166.99 145.031) rotate(180)" fill="#ccbdb7"/>
            <rect id="Rectangle_37" data-name="Rectangle 37" width="5.369" height="16.316" transform="translate(163.733 145.519) rotate(180)" fill="#4667a8"/>
            <rect id="Rectangle_38" data-name="Rectangle 38" width="78.607" height="3.132" transform="translate(167.607 147.622) rotate(180)" fill="#b59074"/>
            <path id="Path_456" data-name="Path 456" d="M479.019,227.7s.863,12.053-1.5,13.5c-1.471.9-7.357,3.924-7.194,4.525s3.322,5.081,3.322,5.081,11.3-7.442,11.667-9.809-.556-17.657-2.112-18.363c-1.164-.53-1.779-.092-3.27,1C477.914,225.182,479.019,227.7,479.019,227.7Z" transform="translate(-296.325 -101.216)" fill="#323657"/>
            <path id="Path_457" data-name="Path 457" d="M451.6,234.06l-1-.366s1.243-2.917,1.785-2.845a12.5,12.5,0,0,1,1.406.288Z" transform="translate(-289.5 -102.315)" fill="#ead8cf"/>
            <path id="Path_458" data-name="Path 458" d="M451.78,234.454c.124-.1,2.119-3.924,2.119-3.924l4.251.576-2.3,4.532Z" transform="translate(-289.908 -102.359)" fill="#da9b5b"/>
            <path id="Path_459" data-name="Path 459" d="M462.36,336.834s.353,2.439.392,2.806,3.924-.216,3.924-.216l.314-2.9S462.844,336.513,462.36,336.834Z" transform="translate(-293.569 -150.793)" fill="#424773"/>
            <path id="Path_460" data-name="Path 460" d="M459.35,340.763a10.411,10.411,0,0,1-2.407,2.112c-1.184.654-3.047.889-3.747,1.556-.51.477-1.844,2.537,3.074,2.5s7.3.288,7.848-.5-.778-5.833-.778-5.833A10.513,10.513,0,0,1,459.35,340.763Z" transform="translate(-290.206 -152.205)" fill="#292c47"/>
            <path id="Path_461" data-name="Path 461" d="M424.49,336.9s.353,2.439.392,2.806,3.924-.216,3.924-.216l.314-2.9S424.974,336.557,424.49,336.9Z" transform="translate(-280.465 -150.817)" fill="#424773"/>
            <path id="Path_462" data-name="Path 462" d="M420.248,340.8a10.464,10.464,0,0,1-2.407,2.106c-1.19.654-5.546,1.171-6.245,1.831-.51.477-1.347,2.407,5.572,2.224,4.918-.124,7.292.294,7.848-.5s-.765-5.833-.765-5.833A9.5,9.5,0,0,1,420.248,340.8Z" transform="translate(-275.889 -152.216)" fill="#292c47"/>
            <path id="Path_463" data-name="Path 463" d="M460.084,272.6s-14.06,2.374-17.232,2.877-20.384,4.78-22.536,6.082c-1.713,1.04.9,25.989,1.5,35.51H428.6l.49-28.552c8.135.2,13.943-1.9,19.867-1.007s10.843,2.178,14.623-2.877C463.583,284.633,463.726,273.7,460.084,272.6Z" transform="translate(-278.822 -128.675)" fill="#292c47"/>
            <path id="Path_464" data-name="Path 464" d="M459.13,318.7l6.612-.405.654-28.166a40.051,40.051,0,0,0,7.534-.484l5.317-12.393c-4.676.935-19.652,4.709-21.646,5.918C455.893,284.208,458.522,309.183,459.13,318.7Z" transform="translate(-291.726 -130.284)" fill="#292c47"/>
            <path id="Path_465" data-name="Path 465" d="M467.2,191.87s-5.153-1.419-7.115,2.577-1.079,11.608,1.537,12.321,6.33-.1,7.4-2.616,1.962-6.023,1.681-8.318A5.118,5.118,0,0,0,467.2,191.87Z" transform="translate(-292.414 -85.966)" fill="#eea886"/>
            <path id="Path_466" data-name="Path 466" d="M464.849,211.7a15.783,15.783,0,0,1-.275,3.688c-.334.647,7.194.49,7.194.49a15.241,15.241,0,0,1-.51-6.769C471.931,206,464.849,211.7,464.849,211.7Z" transform="translate(-294.332 -92.669)" fill="#eea886"/>
            <path id="Path_467" data-name="Path 467" d="M469.672,201.971s-.4.817-2.341.654-4.506-2.479-5.336-2.688-.87-.654-.87-.654l-.438.778-.844.131s.569-2.354-.654-3.178.562-7.494,6.9-5.886c0,0,4.839.883,4.9,3.584S470.614,200.545,469.672,201.971Z" transform="translate(-292.347 -85.313)" fill="#3a3f47"/>
            <path id="Path_468" data-name="Path 468" d="M464,218.03s0-1.243.589-1.36,5.886-.857,6.592-.582l.294,1.635S470.147,218.54,464,218.03Z" transform="translate(-294.137 -95.652)" fill="#e2d2ca"/>
            <path id="Path_469" data-name="Path 469" d="M461.6,202.171c.144-1.02,1.308-2.184,1.962-.6s-.445,3.885-1.19,3.76S461.408,203.544,461.6,202.171Z" transform="translate(-293.284 -89.107)" fill="#eea886"/>
            <path id="Path_470" data-name="Path 470" d="M429.786,241.47h0C429.753,241.483,429.746,241.49,429.786,241.47Z" transform="translate(-282.288 -106.702)" fill="#323657"/>
            <path id="Path_471" data-name="Path 471" d="M473.83,193.15s6.285-.294,1.1,9.515Z" transform="translate(-297.538 -86.132)" fill="#3a3f47"/>
            <path id="Path_472" data-name="Path 472" d="M484.538,341.792l-.464,1.314-19.743-6.115.942-2.662Z" transform="translate(-294.251 -150.036)" fill="#918783"/>
            <rect id="Rectangle_39" data-name="Rectangle 39" width="2.243" height="21.463" transform="translate(171.642 186.014) rotate(180)" fill="#918783"/>
            <rect id="Rectangle_40" data-name="Rectangle 40" width="13.236" height="1.262" transform="translate(177.135 164.675) rotate(180)" fill="#5e5854"/>
            <path id="Path_473" data-name="Path 473" d="M434.51,341.7l.471,1.314,19.743-6.115-.87-2.832Z" transform="translate(-283.932 -149.946)" fill="#918783"/>
            <path id="Path_474" data-name="Path 474" d="M455.79,342.879V344.4l6.3-7.5-.87-2.832Z" transform="translate(-291.296 -149.946)" fill="#918783"/>
            <path id="Path_475" data-name="Path 475" d="M431.69,347.564a1.851,1.851,0,1,0,1.851-1.844A1.851,1.851,0,0,0,431.69,347.564Z" transform="translate(-282.956 -153.977)" fill="#bfb2ac"/>
            <path id="Path_476" data-name="Path 476" d="M455.55,347.564a1.844,1.844,0,1,0,1.844-1.844A1.844,1.844,0,0,0,455.55,347.564Z" transform="translate(-291.213 -153.977)" fill="#bfb2ac"/>
            <path id="Path_477" data-name="Path 477" d="M492.41,347.564a1.844,1.844,0,1,0,1.844-1.844A1.844,1.844,0,0,0,492.41,347.564Z" transform="translate(-303.967 -153.977)" fill="#bfb2ac"/>
            <rect id="Rectangle_41" data-name="Rectangle 41" width="31.358" height="4.794" rx="2.397" transform="translate(186.114 163.413) rotate(180)" fill="#e2d2ca"/>
            <rect id="Rectangle_42" data-name="Rectangle 42" width="1.792" height="55.097" transform="translate(140.859 193.587) rotate(180)" fill="#706865"/>
            <rect id="Rectangle_43" data-name="Rectangle 43" width="46.392" height="32.724" rx="3.61" transform="translate(159.171 139.333) rotate(180)" fill="#5f8be3"/>
            <rect id="Rectangle_44" data-name="Rectangle 44" width="42.756" height="25.825" transform="translate(157.353 134.638) rotate(180)" fill="#f5f7ff"/>
            <rect id="Rectangle_45" data-name="Rectangle 45" width="42.756" height="2.053" transform="translate(157.353 113.062) rotate(180)" fill="#cecfd6"/>
            <rect id="Rectangle_46" data-name="Rectangle 46" width="5.153" height="20.639" rx="2.23" transform="translate(153.432 132.991) rotate(180)" fill="#cecfd6"/>
            <rect id="Rectangle_47" data-name="Rectangle 47" width="9.404" height="1.91" rx="0.955" transform="translate(156.15 115.996) rotate(180)" fill="#cecfd6"/>
            <rect id="Rectangle_48" data-name="Rectangle 48" width="9.404" height="17.971" rx="2.49" transform="translate(156.15 133.273) rotate(180)" fill="#cecfd6"/>
            <path id="Path_478" data-name="Path 478" d="M409.9,241.688a1.491,1.491,0,1,0,.437-1.061A1.5,1.5,0,0,0,409.9,241.688Z" transform="translate(-275.416 -106.433)" fill="#59524f"/>
            <path id="Path_479" data-name="Path 479" d="M397.5,257.335v-.582s.817-3.623,6.612-3.623,5.67,4.205,5.67,4.205Z" transform="translate(-245.514 -112.296)" fill="#314875"/>
            <path id="Path_480" data-name="Path 480" d="M410.889,252.813a5.678,5.678,0,0,1-1.72-.379c-.458-.275-3.218-2.132-3.865-1.831s-4.957,1.556-4.807,2.21.549.569.85.458a21.53,21.53,0,0,1,3.715-.654s-3.074,1.118-3.087,1.962.654,1.014.935,1.308.654,1.079,1.432,1.138,4.656-1.308,5.454-1.347a15.537,15.537,0,0,0,2.367-.078A21.808,21.808,0,0,0,410.889,252.813Z" transform="translate(-247.158 -111.402)" fill="#eea886"/>
            <path id="Path_481" data-name="Path 481" d="M438.6,220.641c4.015-.706,8.233-1.713,8.233-1.713l7.475-.307a73.146,73.146,0,0,1,9.554,2.727c.255.118.262,6.121.961,7.691l-2.237,4.722s-1.308,9.358-1.563,13.517c-.124,1.91.347,18.461.347,18.461s-.654.334-5.768.9-17.84-.2-17.919-.8,2.465-22.424,2.577-23.543c.177-1.733-.5-9.751-.5-9.751-.961,1.308-3.407,7.122-5.964,9.895-1.5,1.628-8.933,2.616-10.339,2.675-3.047.1-8.613.706-8.776.412-.131-.177-.484-4.937-.137-5.055s10.64-.7,13.289-2.1c.968-.517,3.865-6.834,3.865-6.834S436.374,221.635,438.6,220.641Z" transform="translate(-276.975 -102.031)" fill="#323657"/>
            <path id="Path_482" data-name="Path 482" d="M4.532,0H17.075a4.538,4.538,0,0,1,4.539,4.539V25.413a4.538,4.538,0,0,1-4.538,4.539H4.532A4.539,4.539,0,0,1,0,25.413V4.545A4.545,4.545,0,0,1,4.532,0Z" transform="translate(193.426 162.782) rotate(180)" fill="#e2d2ca"/>
            <path id="Path_483" data-name="Path 483" d="M472.21,291.184a9.907,9.907,0,0,0,7.691-3.178c4.323-4.774,3.545-13.164,3.505-13.517a1.2,1.2,0,0,0-2.394.235c0,.1.7,7.7-2.9,11.667a7.494,7.494,0,0,1-5.886,2.387,1.2,1.2,0,0,0,0,2.407Z" transform="translate(-296.566 -122.977)" fill="#e2d2ca"/>
            <path id="Path_484" data-name="Path 484" d="M406.745,212.143A6.043,6.043,0,1,1,400.7,206.1,6.043,6.043,0,0,1,406.745,212.143Z" transform="translate(-243.694 -92.146)" fill="#eef0f7"/>
            <path id="Path_485" data-name="Path 485" d="M405.747,219.717l-.451,1.6a5.885,5.885,0,0,1-2.747,1.066,4.938,4.938,0,0,1-.543.039h-.2a5.569,5.569,0,0,1-.576,0,3.928,3.928,0,0,1-.654-.092,6.036,6.036,0,0,1-2.465-1.131c-.085-.53-.177-1.112-.255-1.661.438-.163,1.851-.654,2.747-.942h.092l.15-.052.144-.046.353-.124h0l1.2.092h.294a3.83,3.83,0,0,1,.556.157h0A6.023,6.023,0,0,1,405.747,219.717Z" transform="translate(-244.279 -96.862)" fill="#d9c7c1"/>
            <path id="Path_486" data-name="Path 486" d="M403.47,210.742s1.439.242,1.2,2.492-1.517,2.053-1.6,2.053-1.275,0-1.308-2.727C401.731,212.56,401.711,210.526,403.47,210.742Z" transform="translate(-245.06 -93.517)" fill="#eea987"/>
            <path id="Path_487" data-name="Path 487" d="M404.343,216.568a5.335,5.335,0,0,0,.039,1.125c.092.2-1.151.844-1.923.118a7.673,7.673,0,0,0,.1-1.373C402.519,216.111,404.343,216.568,404.343,216.568Z" transform="translate(-245.168 -95.751)" fill="#eea987"/>
            <path id="Path_488" data-name="Path 488" d="M406.205,213.552s.163-.163.216,0a5.167,5.167,0,0,1-.235.961c.02.033,0,.065-.065.033A7.932,7.932,0,0,1,406.205,213.552Z" transform="translate(-246.878 -94.427)" fill="#eea987"/>
            <path id="Path_489" data-name="Path 489" d="M401.626,213.458s-.15-.177-.216,0a3.054,3.054,0,0,0,.2.974s.052.078.092.039a9.723,9.723,0,0,0-.072-1.014Z" transform="translate(-244.009 -94.385)" fill="#eea987"/>
            <path id="Path_490" data-name="Path 490" d="M404.718,212.208c-.046.307-.1.536-.1.536l-.209.275a6.591,6.591,0,0,0,0-.7.277.277,0,0,0-.046-.17,1.959,1.959,0,0,0-.065-.288,3.08,3.08,0,0,0-2.3.078s0,.092,0,.2,0,.255-.072.275-.059.706-.059.706l-.164-.2s-.052-.347-.1-.746h0a.885.885,0,0,0-.033-.288,1.87,1.87,0,0,1,.543-1.57,2.616,2.616,0,0,1,1.87,0s.216,0,.275.072a2.668,2.668,0,0,1,.458,1.818Z" transform="translate(-245.017 -93.118)" fill="#e8734d"/>
            <path id="Path_491" data-name="Path 491" d="M402.77,217.24a.935.935,0,0,0,.765.307,1.046,1.046,0,0,0,.765-.294.935.935,0,0,1-.765.523A.948.948,0,0,1,402.77,217.24Z" transform="translate(-245.23 -96.042)" fill="#c78d71"/>
            <path id="Path_492" data-name="Path 492" d="M402.23,218.485a1.576,1.576,0,0,0,1.118.732c.464.039.863-.549,1.053-.837a2.805,2.805,0,0,0-2.171.1Z" transform="translate(-245.105 -96.513)" fill="#eea987"/>
            <path id="Path_493" data-name="Path 493" d="M404.862,218.14a3.977,3.977,0,0,1-.922.8l.392.6.654-1.184Z" transform="translate(-245.788 -96.517)" fill="#eddad3"/>
            <path id="Path_494" data-name="Path 494" d="M402.375,218.28a2.616,2.616,0,0,0,.942.706l-.425.621-.752-1.079Z" transform="translate(-244.734 -96.573)" fill="#eddad3"/>
            <path id="Path_495" data-name="Path 495" d="M403.77,219.36l.333.51a.7.7,0,0,1-.654,0Z" transform="translate(-245.365 -96.984)" fill="#5073ab"/>
            <path id="Path_496" data-name="Path 496" d="M408.621,219.678v.033c-.033.131-.177.654-.36,1.308l-.216.177c-.078.065-.163.124-.249.183a5.886,5.886,0,0,1-2.747,1.066c.092-2.093.34-3.924.34-3.924l.556.15h0a13.079,13.079,0,0,1,2.577.974h0Z" transform="translate(-247.276 -96.916)" fill="#323657"/>
            <path id="Path_497" data-name="Path 497" d="M400.268,222.411a6.036,6.036,0,0,1-2.465-1.131,5.232,5.232,0,0,1-.608-.536l-.111-.111c-.1-.451-.177-.746-.183-.765h0a13.839,13.839,0,0,1,3.394-1.2h0C400.294,218.735,400.294,220.429,400.268,222.411Z" transform="translate(-242.244 -96.966)" fill="#323657"/>
            <path id="Path_498" data-name="Path 498" d="M403.822,220.14v2.832h-.2a5.564,5.564,0,0,1-.575,0,17.747,17.747,0,0,1,.4-2.819.338.338,0,0,1,.046-.183l.353.059a.919.919,0,0,1-.026.111Z" transform="translate(-245.167 -97.475)" fill="#5073ab"/>
            <path id="Path_499" data-name="Path 499" d="M410.54,220.924a6.616,6.616,0,0,1-.654.654l-.216.177s.353-1.014.589-1.5A4.012,4.012,0,0,1,410.54,220.924Z" transform="translate(-275.337 -97.46)" fill="#323657"/>
            <path id="Path_500" data-name="Path 500" d="M397.087,221.376l-.111-.111c-.137-.144-.262-.294-.386-.451a.732.732,0,0,1,.2-.314h0Z" transform="translate(-241.144 -97.514)" fill="#323657"/>
            <path id="Path_501" data-name="Path 501" d="M331.113,331.718a5.231,5.231,0,0,0-1.87-1.785c-1.073-.5-3.27,1.249-3.479,2.223L323.2,335.9l.484.327,1.367-1.995c-.929,2.243-2.263,4.924-1.308,6.278,1.256,1.811,4.1,3.643,4.852,3.322s.6-5.585.6-5.585C328.366,333.6,331.113,331.718,331.113,331.718Z" transform="translate(-198.447 -148.483)" fill="#1d3b54"/>
            <path id="Path_502" data-name="Path 502" d="M332.464,331.765a28.773,28.773,0,0,0-1.413,3.191c-.484,1.393-.576,5.232-.876,5.526s-2.688-.935-3.008-2.38.654-4.329,1.576-5.846a9.344,9.344,0,0,1,1.851-2.276A2.4,2.4,0,0,1,332.464,331.765Z" transform="translate(-200.163 -148.53)" fill="#de9673"/>
            <path id="Path_503" data-name="Path 503" d="M342.3,281s-1.465,7.75-1.465,9.607a17,17,0,0,1-1.687,7.135c-1.177,2.25-6.357,17.6-6.8,19.39s-.837,3.479-.837,3.479-2.583-1.184-2.583-2.871,2.243-15.617,2.616-18.37,3.649-16.853,3.649-16.853Z" transform="translate(-203.466 -131.582)" fill="#de9673"/>
            <path id="Path_504" data-name="Path 504" d="M331.809,280.034s.5,6.455.445,8.142-.844,5.506-.844,6.54,0,21.967.844,24.491-2.361.791-2.361.791-5.559-13.786-5.559-19.534.654-8.613.281-12.268a44.4,44.4,0,0,0-2.145-8.456Z" transform="translate(-198.535 -131.146)" fill="#eea886"/>
            <path id="Path_505" data-name="Path 505" d="M321.775,232.63A20.083,20.083,0,0,0,318,241.184c-.791,4.885.929,14.1,1.537,16.768.536,2.341,1.563,9.81,1.622,10.62,0,0,10.051,1.138,17.69-1.308,0,0,.7-10.463,1.151-14.9s-1.746-19.429-1.746-19.429Z" transform="translate(-199.051 -106.869)" fill="#eb4747"/>
            <path id="Path_506" data-name="Path 506" d="M337.911,346.283c-3.6-3.146-2.616-6.376-2.616-6.376a5.337,5.337,0,0,0-2.616-.216c-1.171.288-1.8,3.08-1.308,3.97l.36,4.578.6-.046-.2-2.446c.7,2.361,1.36,5.323,2.956,5.788,2.138.654,5.552.255,5.938-.471S337.911,346.283,337.911,346.283Z" transform="translate(-203.891 -151.865)" fill="#1d3b54"/>
            <path id="Path_507" data-name="Path 507" d="M342.462,180.237s-.889,5.3-.124,7.082-4.087-2.08-4.087-2.08S340.264,179.4,342.462,180.237Z" transform="translate(-206.67 -80.188)" fill="#754836"/>
            <path id="Path_508" data-name="Path 508" d="M337.157,157.665s-7.8-1.785-8.77,6.54,2.537,9.378.164,15.041,5.8-1.838,5.8-1.838Z" transform="translate(-201.771 -71.309)" fill="#754836"/>
            <path id="Path_509" data-name="Path 509" d="M337.317,157.559a6.782,6.782,0,0,1,6.945,6.409,17.044,17.044,0,0,1-.576,2.537c-.379,1.112.53,4.453.262,4.578a7.057,7.057,0,0,1-1.354.334s-1.269,3.584-2.537,3.518a10.533,10.533,0,0,1-8.181-5.755C329.737,164.622,329.234,157.722,337.317,157.559Z" transform="translate(-204.555 -70.831)" fill="#eea886"/>
            <path id="Path_510" data-name="Path 510" d="M307.56,256.424s.183-3.211,1.033-3.708.36.5.36.5-.477,2.328-.582,3.27a4.787,4.787,0,0,1-.811-.059Z" transform="translate(-187.262 -112.019)" fill="#1d3b54"/>
            <path id="Path_511" data-name="Path 511" d="M311.542,246.264a23.128,23.128,0,0,0,.654,2.825c.432,1.38.837,1.825.654,2.616-.131.6-.811,1.053-.981.863s-.255-2.524-1.223-2.518.288,2.891-.281,2.681-2.792-1.426-2.649-2.616,1.02-2.021.968-3.78a3.806,3.806,0,0,1,.438-2.256Z" transform="translate(-188.252 -108.752)" fill="#eea886"/>
            <path id="Path_512" data-name="Path 512" d="M312.044,253.053s1.308.334,1.21,4.682l-1.458-.242a15.087,15.087,0,0,0-.405-3.715S311.462,252.929,312.044,253.053Z" transform="translate(-189.677 -112.31)" fill="#1d3b54"/>
            <path id="Path_513" data-name="Path 513" d="M314.55,260.018,303.21,256.8l.033,13.969,11.287,6.762Z" transform="translate(-187.036 -115.863)" fill="#eddad3"/>
            <path id="Path_514" data-name="Path 514" d="M313.959,277.531l-1.419.262-10.98-6.827.137-14.1.942-.065Z" transform="translate(-186.287 -115.897)" fill="#eddad3"/>
            <path id="Path_515" data-name="Path 515" d="M334.376,186.921s3.028,1.243,3.564,1.622,1.622,4.748,1.89,5.127,2.877,3.616,2.518,6.245a6.788,6.788,0,0,1-2.2,3.97c-.759.811-1.458,5.166-1.694,5.814s.517,9.156.517,9.156-8.874,3.453-16.807-2.433a66.832,66.832,0,0,0,1.583-6.723c0-1.027-1.02-8.253-3.773-12.523s.484-8.8,2.616-9.332,6.154-2.053,6.154-2.053Z" transform="translate(-200.095 -85.126)" fill="#eb4747"/>
            <path id="Path_516" data-name="Path 516" d="M321.008,187.936s-4.44-.275-6.67,2.315-2.1,5.67-2.668,7-1.864,7.089-2.145,8.018-.562,6.167-.968,10.378-.32,12.072-.32,12.072l4.244-.772s.17-7.494.281-11.843,3.643-12.02,4.977-15.381S324.428,190.041,321.008,187.936Z" transform="translate(-190.8 -86.726)" fill="#eb4747"/>
            <path id="Path_517" data-name="Path 517" d="M346.357,189.62a3.669,3.669,0,0,1,2.884,2.067,41.629,41.629,0,0,1,1.53,4.048c.222.484,3.61,6.886,3.813,8.305s-.124,4-1.9,4.7-8.181.752-8.181.752,1.622-3.27.124-4.99c0,0,4.643-.837,5.742-.948S344.886,191.078,346.357,189.62Z" transform="translate(-212.159 -85.473)" fill="#eb4747"/>
            <path id="Path_518" data-name="Path 518" d="M331.08,195.757l8.645,20.2,10.784-5.075-7.972-19.4Z" transform="translate(-206.534 -86.752)" fill="#1d3b54"/>
            <path id="Path_519" data-name="Path 519" d="M337.776,213.2s-1.171.314-1.537.366.085.739.543.759S337.776,213.2,337.776,213.2Z" transform="translate(-204.678 -94.307)" fill="#eea886"/>
            <path id="Path_520" data-name="Path 520" d="M338.568,218.675a2.381,2.381,0,0,0,.772-.157s.405-.262.706-.432l.235-.124a4.505,4.505,0,0,0,1.308-.654c.51-.392,2.158-1.962,2.158-1.962l-1.092-1.648-.844-1.308a21.244,21.244,0,0,0-4.068.412l-.144.1a5.474,5.474,0,0,0-.785.9c-.072.065-.746.8-.706,1.092a.988.988,0,0,0,.517.791,2.328,2.328,0,0,0,.556,1.144,1.452,1.452,0,0,0,.752,1.027S338.123,218.583,338.568,218.675Z" transform="translate(-206.296 -94.412)" fill="#eea886"/>
            <path id="Path_521" data-name="Path 521" d="M344.69,208.065s5.264-.942,6.723-1.092a18.087,18.087,0,0,0-.17-3.414,13.164,13.164,0,0,0-1.55-3.669l2.694,2.465s2.21,4.244,2.263,5.232a5.036,5.036,0,0,1-1,4.074c-1.314,1.556-7.494.844-7.494.844S346.672,210.6,344.69,208.065Z" transform="translate(-212.241 -89.432)" fill="#eb4747"/>
            <path id="Path_522" data-name="Path 522" d="M339.051,180.651s-.17.5-.366,1.249c-.1.379-.209.824-.307,1.308a8.881,8.881,0,0,0-.131,3.885s-2.838.9-4.944-3.132c0,0,1.073-4.251-.092-6.873S339.051,180.651,339.051,180.651Z" transform="translate(-203.984 -78.777)" fill="#eea886"/>
            <path id="Path_523" data-name="Path 523" d="M344.039,163.507a17.925,17.925,0,0,1-6.54,2.479c-3.231.353-5.036,5.232-5.036,5.232s-5.081-7.913-.988-12.779S344.915,157.386,344.039,163.507Z" transform="translate(-204.292 -70.056)" fill="#754836"/>
            <path id="Path_524" data-name="Path 524" d="M338.376,170.3a.994.994,0,0,0-1.713-.759c-1.046.824.242,3.826,1.086,3.558S338.376,170.945,338.376,170.3Z" transform="translate(-204.902 -75.055)" fill="#eea886"/>
            <path id="Path_525" data-name="Path 525" d="M339.058,186.821s1.308,3.924-1.785,3.924-4.473-2.472-5.363-4.65a11.524,11.524,0,0,1,2.1-.8C334.683,185.193,339.058,186.821,339.058,186.821Z" transform="translate(-203.661 -82.3)" fill="#eea886"/>
            <path id="Path_526" data-name="Path 526" d="M313.468,259.67l-1.458.19v-.68Z" transform="translate(-189.953 -114.599)" fill="#1d3b54"/>
            <path id="Path_527" data-name="Path 527" d="M308.391,258.26l-.811.1v-.327C307.58,257.946,308.365,258.208,308.391,258.26Z" transform="translate(-187.099 -114.048)" fill="#1d3b54"/>
            <path id="Path_528" data-name="Path 528" d="M335.963,339.8a28.857,28.857,0,0,0,.916,3.414c.51,1.406,2.9,4.506,2.832,4.911s-2.714.974-3.885.039-2.243-3.826-2.485-5.6a13.415,13.415,0,0,1-.118-2.936A2.622,2.622,0,0,1,335.963,339.8Z" transform="translate(-204.201 -151.755)" fill="#eea886"/>
            <path id="Path_529" data-name="Path 529" d="M339.8,182.192c-.1.379-.249.844-.366,1.308a13.537,13.537,0,0,1-3.786-3.78A15.858,15.858,0,0,0,339.8,182.192Z" transform="translate(-205.065 -79.697)" fill="#a77860"/>
            <path id="Path_530" data-name="Path 530" d="M158.327,67.74h30.161a4.447,4.447,0,0,1,4.447,4.447v12.2a4.447,4.447,0,0,1-4.447,4.447H158.327a4.447,4.447,0,0,1-4.447-4.447v-12.2a4.454,4.454,0,0,1,4.447-4.447Z" transform="translate(-98.84 -30.575)" fill="#dfe1e8"/>
            <path id="Path_531" data-name="Path 531" d="M123.15,229.69h0C123.176,229.7,123.183,229.7,123.15,229.69Z" transform="translate(-74.837 -101.496)" fill="#323657"/>
            <rect id="Rectangle_49" data-name="Rectangle 49" width="12.314" height="26.728" rx="4.14" transform="translate(58.976 84.864)" fill="#b5deff"/>
            <path id="Path_532" data-name="Path 532" d="M70.9,320.185c.347-1.308,4.355-.249,6.886.582v-.059l7.239.353v8.7l-7.632-1.511h0a12.144,12.144,0,0,0-4.826,7.848s-.791,2.956-2.668,3.2C69.9,339.28,70.39,322.133,70.9,320.185Z" transform="translate(-24.192 -144.928)" fill="#ed8d5d"/>
            <path id="Path_533" data-name="Path 533" d="M69.819,339.586s.876-16.885,6.474-20.07c0,0-1.753-1.053-5.886-.589a1.2,1.2,0,0,0-1.138,1.118v19.54Z" transform="translate(-23.974 -144.665)" fill="#962829"/>
            <path id="Path_534" data-name="Path 534" d="M70.6,340.109l2.531,1.439s.732-3.453,1.6-4.617l-3.165-2.021A26.709,26.709,0,0,0,70.6,340.109Z" transform="translate(-24.432 -150.236)" fill="#962829"/>
            <path id="Path_535" data-name="Path 535" d="M179.117,335.681V328.37h8.907l-1.138,7.311h0a12.556,12.556,0,0,0,8.292,4.283s3.074.621,3.427,2.426c0,0-17.657.4-19.684,0-1.38-.268-.471-4.212.249-6.71Z" transform="translate(-111.321 -147.973)" fill="#e38759"/>
            <path id="Path_536" data-name="Path 536" d="M199.253,346.011s-17.369-.844-20.639-6.291c0,0-1.086,1.707-.608,5.722a1.2,1.2,0,0,0,1.151,1.105h20.109Z" transform="translate(-111.278 -151.901)" fill="#962829"/>
            <path id="Path_537" data-name="Path 537" d="M199.786,346.745l1.478-2.459s-3.558-.713-4.754-1.556l-2.08,3.074A29.227,29.227,0,0,0,199.786,346.745Z" transform="translate(-119.21 -152.942)" fill="#962829"/>
            <path id="Path_538" data-name="Path 538" d="M146.558,171.987l11.457,8.26-1.635-15.761V164.3l4.643-.713.039.092a232.062,232.062,0,0,1,7.3,24.007l.177.726c1.2,5-4.512,8.9-8.92,6.062l-.111-.072c-7.3-4.715-14.028-10.025-18.161-15.512a6.272,6.272,0,0,1-.974-2.76C139.809,172.693,143.818,170.012,146.558,171.987Z" transform="translate(-88.677 -74.753)" fill="#e38759"/>
            <path id="Path_539" data-name="Path 539" d="M167.55,159.731s1.818-4.277,1.04-7.252a.281.281,0,0,0-.536-.072l-1.164,2.557s.327-3.924-.615-4.774a.2.2,0,0,0-.32.131l-.392,3.42s-.726-3.734-1.609-4.185-.157,4.578-.157,4.578-1.347-3.806-1.962-3.983.922,6.258.922,6.258-2.178-.955-2.616-.477,3.185,4.192,4.133,4.329Z" transform="translate(-98.407 -66.761)" fill="#e38759"/>
            <path id="Path_540" data-name="Path 540" d="M167.6,194.136a26.158,26.158,0,0,1-1.118-5.232l.222.1c-.392.2-.785.386-1.2.549.34-.281.687-.543,1.04-.8l.17-.124.052.222A25.852,25.852,0,0,1,167.6,194.136Z" transform="translate(-100.847 -83.787)" fill="#051934"/>
            <rect id="Rectangle_50" data-name="Rectangle 50" width="11.34" height="7.658" rx="0.99" transform="translate(71.979 93.62) rotate(180)" fill="#091a30"/>
            <path id="Path_541" data-name="Path 541" d="M0,0H1.785a.654.654,0,0,1,.654.654V7.017a.654.654,0,0,1-.654.654H.007V0Z" transform="translate(64.226 93.621) rotate(180)" fill="#050e1a"/>
            <rect id="Rectangle_51" data-name="Rectangle 51" width="1.19" height="3.303" transform="translate(66.143 87.906) rotate(180)" fill="#091a30"/>
            <rect id="Rectangle_52" data-name="Rectangle 52" width="5.951" height="3.558" rx="0.42" transform="translate(69.291 85.801) rotate(180)" fill="#0d2545"/>
            <rect id="Rectangle_53" data-name="Rectangle 53" width="0.889" height="3.558" rx="0.17" transform="translate(64.887 85.801) rotate(180)" fill="#050e1a"/>
            <path id="Path_542" data-name="Path 542" d="M0,0H4.421A.229.229,0,0,1,4.65.229V2.845a.229.229,0,0,1-.229.229H0V0Z" transform="translate(68.931 85.515) rotate(180)" fill="#fee9cc"/>
            <path id="Path_543" data-name="Path 543" d="M172.219,161.8h-4.113a.654.654,0,0,1-.6-.438v-.059a7.233,7.233,0,0,1,0-4.264h0a.654.654,0,0,1,.6-.432h4.113Z" transform="translate(-102.264 -69.543)" fill="#0d2545"/>
            <path id="Path_544" data-name="Path 544" d="M178.09,162.187h-5.421a.817.817,0,0,1-.791-.569v-.078a9.607,9.607,0,0,1,0-5.631h0a.837.837,0,0,1,.791-.569H178.1Z" transform="translate(-105.097 -69.09)" fill="#0d2545"/>
            <path id="Path_545" data-name="Path 545" d="M180.991,154.32h0c-.34,0-.621,1.844-.621,4.087s.281,4.055.621,4.087h1.687V154.32Z" transform="translate(-109.933 -68.726)" fill="#0d2545"/>
            <path id="Path_546" data-name="Path 546" d="M184.424,158.414c0,2.256-.608,4.087-1.36,4.087s-1.354-1.831-1.354-4.087.608-4.094,1.354-4.094S184.424,156.151,184.424,158.414Z" transform="translate(-110.808 -68.726)" fill="#284975"/>
            <path id="Path_547" data-name="Path 547" d="M184.364,158.615c0,2.047-.49,3.715-1.092,3.715s-1.092-1.668-1.092-3.715.484-3.715,1.092-3.715S184.364,156.561,184.364,158.615Z" transform="translate(-111.018 -68.933)" fill="#fee9cc"/>
            <path id="Path_548" data-name="Path 548" d="M143.078,182.063l2.152-10.915c-3.492-1.184-5.317-7.848-5.317-7.848l-7.442-5.1s.065,11.471-3.381,12.772l6.016,4.754Z" transform="translate(-80.159 -71.625)" fill="#ed8d5d"/>
            <path id="Path_549" data-name="Path 549" d="M142.75,166.14a3.211,3.211,0,0,1-.562,0c-3.054-.124-6.062-2.714-7.848-7.92h.052c1.831,4.4,4.578,6.6,7.4,6.716h.477A7.931,7.931,0,0,0,142.75,166.14Z" transform="translate(-82.542 -70.446)" fill="#e6794e"/>
            <path id="Path_550" data-name="Path 550" d="M90.687,269.69l20.593.765s-6.657-27.382-7.586-37.309c-.438-4.669,2.721-16.192,5.278-21.051-.739-3.27,1.537-5.755,2.616-10.084,1.164-4.669-3.407-17.3-1.7-21.437s6.657-5.644,6.657-5.644l12,12.183.386-11.883s6.265,2.557,7.508,5.565-1.707,16.094-2.786,20.613,5.264,11.431,5.264,11.431,22.235,16.846,23.451,23.916-5.415,43.476-5.415,43.476-5.578,1.655-9.6,0l-.314-37.008-19.017-12.6c1.373,18.821,2.923,44.8,1.373,48.851-2.479,6.468-10.529,7.069-14.865,6.016s-25.08-3.008-25.08-3.008S86.973,273.9,90.687,269.69Z" transform="translate(-60.454 -94.878)" fill="#962829"/>
            <path id="Path_551" data-name="Path 551" d="M147.688,229.191a3.224,3.224,0,0,0-3.093-.334c-1.033.334-1.962.942-3.041,1.308a9.4,9.4,0,0,1-3.322.392c-1.112-.046-2.21-.19-3.3-.32a28.407,28.407,0,0,0-6.54-.137c-2.184.177-4.362.523-6.54.824a60.47,60.47,0,0,1,6.54-1.158,26.734,26.734,0,0,1,6.625.039c2.171.288,4.382.654,6.474.039,1.033-.281,2-.863,3.08-1.164a4.349,4.349,0,0,1,1.668-.144,2.466,2.466,0,0,1,1.452.654Z" transform="translate(-76.718 -101.202)" fill="#051934"/>
            <path id="Path_552" data-name="Path 552" d="M148.75,260.146a16.613,16.613,0,0,1-2.792-.327,15.887,15.887,0,0,1-2.707-.759,17.971,17.971,0,0,1,5.5,1.086Z" transform="translate(-87.676 -114.589)" fill="#051934"/>
            <path id="Path_553" data-name="Path 553" d="M178.18,275.42a4.062,4.062,0,0,1,.039,1.406,4.133,4.133,0,0,1-.392,1.367,4.048,4.048,0,0,1-.039-1.4A4.231,4.231,0,0,1,178.18,275.42Z" transform="translate(-108.081 -122.019)" fill="#051934"/>
            <path id="Path_554" data-name="Path 554" d="M126.2,321.618a6.115,6.115,0,0,1-3.2-.471,5.474,5.474,0,0,1,1.635,0A5.382,5.382,0,0,1,126.2,321.618Z" transform="translate(-75.055 -145.453)" fill="#051934"/>
            <path id="Path_555" data-name="Path 555" d="M121.539,180.713c.419-3.453,5.016-5,7.122-2.387l10.463,13.079,5.232-18.265,4.578.974a227.532,227.532,0,0,1-2.394,26.558l-.039.242a6.326,6.326,0,0,1-10.9,3.132l-.078-.092c-6-6.625-11.287-13.733-13.851-20.332A6.187,6.187,0,0,1,121.539,180.713Z" transform="translate(-76.638 -79.224)" fill="#e38759"/>
            <path id="Path_556" data-name="Path 556" d="M159.605,170.071s3.27-3.348,3.682-6.4a.281.281,0,0,0-.471-.255l-2.04,1.962s1.766-3.525,1.21-4.663a.2.2,0,0,0-.347,0L160,163.767s.719-3.741.059-4.467-1.844,4.172-1.844,4.172.17-4.015-.353-4.4-1.484,6.147-1.484,6.147-1.674-1.655-2.25-1.36,1.393,5.029,2.23,5.487Z" transform="translate(-94.744 -71.035)" fill="#e38759"/>
            <path id="Path_557" data-name="Path 557" d="M144.31,202.363a28.117,28.117,0,0,1,2.753-1.811l.484-.281-.177.536a30.735,30.735,0,0,1-1.6,4.061,30.735,30.735,0,0,1,1.19-4.2l.307.255A26.92,26.92,0,0,1,144.31,202.363Z" transform="translate(-88.062 -88.879)" fill="#051934"/>
            <path id="Path_558" data-name="Path 558" d="M161.25,198.229c0-1.027.052-2.053.111-3.074s.157-2.047.229-3.074.2-2.04.327-3.054.268-2.04.451-3.047c0,1.027-.059,2.053-.111,3.074s-.157,2.047-.229,3.067-.2,2.047-.334,3.061S161.433,197.215,161.25,198.229Z" transform="translate(-98.128 -83.164)" fill="#051934"/>
            <path id="Path_559" data-name="Path 559" d="M133.575,142.916a9.888,9.888,0,0,1,9.724-1.962s3.047.942,3.59,7.226v.523c.222.844.556,1.681.8,2.518a.863.863,0,0,1,.033.543.831.831,0,0,1-.288.334,1.753,1.753,0,0,1-.687.327,2.976,2.976,0,0,1-.1.6l-.059.281a7.223,7.223,0,0,1-3.7,5.186,4.185,4.185,0,0,1-.883.275,3.976,3.976,0,0,1-.922.092c-3.054-.124-6.062-2.72-7.848-7.92C131.162,144.956,133.575,142.916,133.575,142.916Z" transform="translate(-82.121 -63.202)" fill="#ed8d5d"/>
            <path id="Path_560" data-name="Path 560" d="M151.25,158.07a2.106,2.106,0,0,0,1.308,1.223,1.883,1.883,0,0,0,.608.1l.059-.281a2,2,0,0,1-.562-.118,2.728,2.728,0,0,1-.726-.373A5.723,5.723,0,0,1,151.25,158.07Z" transform="translate(-92.145 -69.934)" fill="#051934"/>
            <path id="Path_561" data-name="Path 561" d="M140.94,155.5a.7.7,0,0,1,.464-.5.994.994,0,0,1,.739.039,1.145,1.145,0,0,1,.53.477,1.1,1.1,0,0,1,.144.654,2.034,2.034,0,0,0-.831-.791.957.957,0,0,0-1.046.124Z" transform="translate(-85.853 -68.542)" fill="#051934"/>
            <path id="Path_562" data-name="Path 562" d="M142.266,156.912a.425.425,0,0,1-.294-.3.654.654,0,0,1,0-.425.7.7,0,0,1,.262-.34.412.412,0,0,1,.432-.039.582.582,0,0,0-.222.242,2.053,2.053,0,0,0-.2.53A.961.961,0,0,0,142.266,156.912Z" transform="translate(-86.331 -68.902)" fill="#051934"/>
            <path id="Path_563" data-name="Path 563" d="M151.326,153.119c0,.49-.209.9-.5.9s-.517-.392-.53-.889.216-.9.5-.9S151.32,152.622,151.326,153.119Z" transform="translate(-91.453 -67.38)" fill="#051934"/>
            <path id="Path_564" data-name="Path 564" d="M148.3,157.5a1.8,1.8,0,1,1-1.838-1.72,1.779,1.779,0,0,1,1.838,1.72Z" transform="translate(-88.339 -69.069)" fill="#e6794e"/>
            <path id="Path_565" data-name="Path 565" d="M152.39,160.28a1.641,1.641,0,0,1,.405.131c.124.065.229.1.373.183a.5.5,0,0,1-.464,0A.654.654,0,0,1,152.39,160.28Z" transform="translate(-92.695 -70.849)" fill="#051934"/>
            <path id="Path_566" data-name="Path 566" d="M147.85,151.077a1.406,1.406,0,0,1,.314-.778,1.661,1.661,0,0,1,1.6-.621,1.589,1.589,0,0,1,.772.36,3.3,3.3,0,0,0-.785.059,2.484,2.484,0,0,0-.654.17,4.218,4.218,0,0,0-1.243.811Z" transform="translate(-90.156 -66.216)" fill="#051934"/>
            <path id="Path_567" data-name="Path 567" d="M150.009,152.938a2.139,2.139,0,0,1-.889-.118s.477.543.772.549Z" transform="translate(-90.719 -67.563)" fill="#051934"/>
            <path id="Path_568" data-name="Path 568" d="M113.035,156.742a7.494,7.494,0,0,1,2.394-4.578c1.02-.929,2.341-1.622,2.949-2.845.719-1.432.249-3.152.51-4.728a5.349,5.349,0,0,1,3.715-4.12,5.585,5.585,0,0,1,4.028.386,8.276,8.276,0,0,1,.889.5c3.224-1.674,9.3-2.805,11.353.183a10.239,10.239,0,0,1,1.962,4.447A.974.974,0,0,1,140.1,147c-1.249.36-3.839.929-5.042,0,0,0-1.857-.955-1.962-.222a7.3,7.3,0,0,0,.235,2,.249.249,0,0,1-.386.255,1.851,1.851,0,0,0-2.289.17c-1.511,1.236,1.622,2.989.987,4.454-.49,1.118-1.962,2.956-3.728,3.146a1.6,1.6,0,0,1-1.766-1.491,14.923,14.923,0,0,0-.778-4.473,12.216,12.216,0,0,1-.654-5.356,4.179,4.179,0,0,0-.314,2.55,14.316,14.316,0,0,1,.438,3.473c-.2,1.844-1.687,3.394-1.792,5.232a11.779,11.779,0,0,0,.778,3.558,3.471,3.471,0,0,1-.589,3.446,3.989,3.989,0,0,1-2.465.817,34.227,34.227,0,0,1-3.571,0,4.192,4.192,0,0,1-2.616-.693,3.924,3.924,0,0,1-1.059-2.309,14.727,14.727,0,0,1-.5-4.82Z" transform="translate(-71.359 -63.315)" fill="#e67200"/>
            <rect id="Rectangle_54" data-name="Rectangle 54" width="49.1" height="50.728" transform="translate(17.365 41.867)" fill="#12335e"/>
            <path id="Path_569" data-name="Path 569" d="M66.465,129.478H11.022a3.479,3.479,0,0,1-3.054-1.9l-3.924-7.364a34.817,34.817,0,0,1,.262-33.032l3.656-6.6a3.486,3.486,0,0,1,3.028-1.838H66.471l-4.924,9.2a34.8,34.8,0,0,0,.229,33.032Z" transform="translate(-0.007 -36.883)" fill="#0d2545"/>
            <rect id="Rectangle_55" data-name="Rectangle 55" width="9.6" height="9.293" transform="translate(22.995 61.168)" fill="#1b4c8c"/>
            <path id="Path_570" data-name="Path 570" d="M42.906,261.358H39.25V116.865a1.825,1.825,0,0,1,1.831-1.825h0a1.825,1.825,0,0,1,1.825,1.825Z" transform="translate(-13.586 -74.154)" fill="#143766"/>
            <path id="Path_571" data-name="Path 571" d="M9.546,314.549H5.89L27.667,248.74h3.656Z" transform="translate(-2.043 -120.419)" fill="#143766"/>
            <path id="Path_572" data-name="Path 572" d="M60.857,314.549h3.656L42.736,248.74H39.08Z" transform="translate(-13.528 -120.419)" fill="#143766"/>
            <rect id="Rectangle_56" data-name="Rectangle 56" width="6.095" height="2.819" transform="translate(24.369 136.983)" fill="#1b4c8c"/>
            <rect id="Rectangle_57" data-name="Rectangle 57" width="6.095" height="2.819" transform="translate(25.029 109.67)" fill="#1b4c8c"/>
            <circle id="Ellipse_43" data-name="Ellipse 43" cx="1.406" cy="1.406" r="1.406" transform="translate(29.699 109.67)" fill="#4c9bc9"/>
          </g>
        </g>
      </g>
    </g>
  </g>
</svg>
