<svg xmlns="http://www.w3.org/2000/svg" xmlns:xlink="http://www.w3.org/1999/xlink" width="191.907" height="175.25" viewBox="0 0 191.907 175.25"><defs><linearGradient id="a" y1="0.5" x2="1" y2="0.5" gradientUnits="objectBoundingBox"><stop offset="0" stop-color="gray" stop-opacity="0.251"/><stop offset="0.54" stop-color="gray" stop-opacity="0.122"/><stop offset="1" stop-color="gray" stop-opacity="0.102"/></linearGradient></defs><g transform="translate(-783.467 -113.5)"><path d="M310.378,756.332l-7.561.756s-2.52,4.536-7.057,4.536-3.024,5.04,3.528,4.536,13.609-2.268,13.861-2.772S312.394,756.08,310.378,756.332Z" transform="translate(508.749 -477.764)" fill="#3f3d56"/><path d="M310.378,756.332l-7.561.756s-2.52,4.536-7.057,4.536-3.024,5.04,3.528,4.536,13.609-2.268,13.861-2.772S312.394,756.08,310.378,756.332Z" transform="translate(508.749 -477.764)" opacity="0.1"/><path d="M318,525.253s8.569,1.26,11.845,5.292,1.008-15.373,1.008-15.373l-1.008-8.821-6.8.5L317.5,518.2Z" transform="translate(490.538 -290.789)" fill="#3f3d56"/><path d="M318,525.253s8.569,1.26,11.845,5.292,1.008-15.373,1.008-15.373l-1.008-8.821-6.8.5L317.5,518.2Z" transform="translate(490.538 -290.789)" opacity="0.1"/><path d="M420.968,347.68s4.032-11.089,0-11.341-3.528,10.837-3.528,10.837Z" transform="translate(415.8 -163.619)" fill="#a0616a"/><path d="M378.791,371.441s5.542.356,6.046,3.38S380.8,387.17,380.8,387.17l-6.048-.5L374,380.617Z" transform="translate(448.277 -189.878)" fill="#3f3d56"/><path d="M277,476.852s5.67,41.2,7.435,43.725,7.813,25.2,7.813,25.2l6.552-2.268a30.185,30.185,0,0,1-.252-8.317c.5-4.536-3.78-16.633-3.78-16.633l-6.3-37.3Z" transform="translate(520.832 -268.723)" fill="#2f2e41"/><path d="M277,476.852s5.67,41.2,7.435,43.725,7.813,25.2,7.813,25.2l6.552-2.268a30.185,30.185,0,0,1-.252-8.317c.5-4.536-3.78-16.633-3.78-16.633l-6.3-37.3Z" transform="translate(520.832 -268.723)" opacity="0.1"/><path d="M270.724,469.352l5.544,15.877s-11.593,20.917-2.016,27.722c0,0,11.089,12.1,12.1,22.682,0,0,5.8-.5,6.552-5.04,0,0-5.292-11.593-5.544-15.625s-6.048-8.821-6.048-8.821,11.089-17.893,13.609-20.917,2.772-14.617-3.528-14.617S270.724,469.352,270.724,469.352Z" transform="translate(525.722 -263.113)" fill="#2f2e41"/><path d="M330.006,712.02s-4.284,5.292-5.544,4.536c0,0-1.008,10.837-3.276,13.861s4.788,2.772,7.309,0S335.8,717.06,335.8,715.8,331.518,711.264,330.006,712.02Z" transform="translate(488.113 -444.541)" fill="#3f3d56"/><path d="M302.378,354.612s.252,4.284,4.032,5.292a8.167,8.167,0,0,0,6.8-1.512l1.008,2.016-3.276,8.065L304.9,388.13s-17.893,2.52-19.405-1.764,2.52-16.381,2.52-16.381l5.8-8.317,2.268-5.544,2.52-2.772Z" transform="translate(514.733 -176.347)" fill="#ffb603"/><path d="M258.691,345.9s-3.906-3.906-6.426-3.906a8.678,8.678,0,0,1-4.662-1.638,125.368,125.368,0,0,0-13.357,26.714c-5.04,14.617-12.1,19.153-8.569,22.682s9.073,2.772,11.341,6.552,2.268,3.276,3.78-2.52-.252-21.674,7.056-28.478S258.691,345.9,258.691,345.9Z" transform="translate(559.932 -166.624)" fill="#3f3d56"/><path d="M365.971,371.352s-4.284.252-6.8,13.609-2.268,44.607,0,47.127c0,0,2.268,2.772,2.52-2.268s4.032-28.478,3.024-34.526,1.26-19.153,4.536-21.421S365.971,371.352,365.971,371.352Z" transform="translate(460.716 -189.811)" fill="#3f3d56"/><path d="M374.272,415.352s8.317,3.78,8.065,6.552-.5,8.317-10.837-.756Z" transform="translate(450.147 -222.722)" fill="#3f3d56"/><path d="M390.62,383.895s-3.528,8.317,1.008,9.829,5.8-7.056,5.8-7.056,3.528-9.577,3.276-11.593-5.292-2.268-5.8-1.008S390.62,383.895,390.62,383.895Z" transform="translate(436.824 -191.265)" fill="#3f3d56"/><path d="M436.356,640.809a5.245,5.245,0,1,0,2.1-9.862l-.248,2.691-.94-2.47a5.225,5.225,0,0,0-3.08,2.548,5.144,5.144,0,0,0-.5,1.363A5.244,5.244,0,0,0,436.356,640.809Z" transform="translate(403.717 -383.974)" fill="#ffb603"/><path d="M452.014,663.459c-.125-2.336,2.1-4.078,4.191-5.117s4.511-2.01,5.478-4.141c1.389-3.062-.988-6.383-2.8-9.214a31.579,31.579,0,0,1-3.256-6.711,8.52,8.52,0,0,1-.592-2.926,9.713,9.713,0,0,1,1.333-4.071q3.246-6.426,6.793-12.694" transform="translate(389.928 -374.736)" fill="none" stroke="#3f3d56" stroke-miterlimit="10" stroke-width="1"/><path d="M437.591,638.2a5.245,5.245,0,1,0,2.1-9.862l-.248,2.691-.94-2.47a5.225,5.225,0,0,0-3.08,2.548,5.141,5.141,0,0,0-.5,1.363A5.244,5.244,0,0,0,437.591,638.2Z" transform="translate(402.793 -382.021)" fill="none" stroke="#3f3d56" stroke-miterlimit="10" stroke-width="1"/><path d="M473.786,603.721a5.239,5.239,0,0,1,4.2-2.764l.068,2.6L479.228,601a5.245,5.245,0,1,1-5.443,2.719Z" transform="translate(374.099 -361.552)" fill="#ffb603"/><path d="M475.433,600.24a5.239,5.239,0,0,1,4.2-2.764l.068,2.6,1.171-2.557a5.244,5.244,0,1,1-5.443,2.719Z" transform="translate(372.867 -358.948)" fill="none" stroke="#3f3d56" stroke-miterlimit="10" stroke-width="1"/><path d="M467.366,693.727a5.244,5.244,0,0,0,5.9-8.588l-.9,1.965-.068-2.632-.013-.007a5.245,5.245,0,0,0-4.924,9.262Z" transform="translate(380.524 -423.554)" fill="#ffb603"/><path d="M468.869,690.178a5.244,5.244,0,0,0,5.9-8.588l-.9,1.965-.068-2.632-.013-.007a5.245,5.245,0,0,0-4.924,9.262Z" transform="translate(379.4 -420.899)" fill="none" stroke="#3f3d56" stroke-miterlimit="10" stroke-width="1"/><path d="M449.321,738.148a5.242,5.242,0,1,0,1.576-3.925l1.821,3.81-2.9-2.3A5.2,5.2,0,0,0,449.321,738.148Z" transform="translate(391.941 -460.116)" fill="#ffb603"/><path d="M450.556,735.537a5.242,5.242,0,1,0,1.576-3.925l1.821,3.81-2.9-2.3A5.2,5.2,0,0,0,450.556,735.537Z" transform="translate(391.017 -458.163)" fill="none" stroke="#3f3d56" stroke-miterlimit="10" stroke-width="1"/><line x2="102.571" transform="translate(784.601 288.144)" fill="none" stroke="#3f3d56" stroke-miterlimit="10" stroke-width="1"/><g transform="translate(100.962 5.767)"><g transform="translate(767 125)"><path d="M248.677,48.8a22.256,22.256,0,0,0-3.623-5.776l-50.261-.493,41.381-5.811a23.478,23.478,0,0,0-8.4-1.663,23.533,23.533,0,0,0-28.112-.955,23.43,23.43,0,0,0-10.758-2.592A22.847,22.847,0,0,0,166.35,49.5Z" transform="translate(-158.151 -29.903)" opacity="0.5"/><path d="M174.99,259.469a21.73,21.73,0,0,0-1.566-8.119l-87.108,9.144a21.868,21.868,0,0,0-2.041,5.154l26.98,4.021L83.66,272.6c.83,11.611,10.784,20.78,22.944,20.78a23.282,23.282,0,0,0,15.8-6.112,23.372,23.372,0,0,0,36.727-6.549,22.679,22.679,0,0,0,15.12-15.627L140.142,259.8h34.845C174.988,259.69,174.99,259.58,174.99,259.469Z" transform="translate(-82.697 -231.972)" opacity="0.5"/><path d="M751.53,697.792s2.757-4.884,6.913-6.292a8.5,8.5,0,0,0,4.3-3.219,14.365,14.365,0,0,0,1.266-2.28" transform="translate(-692.124 -628.587)" fill="none" stroke="#535461" stroke-miterlimit="10" stroke-width="2"/><path d="M896.087,654.259a9.484,9.484,0,0,1-2.677.934,9.458,9.458,0,0,1,1.014-2.647,1.194,1.194,0,1,1,1.663,1.713Z" transform="translate(-821.588 -597.752)" fill="#6c63ff"/><path d="M881.065,696.279a9.449,9.449,0,0,1-2.755-.671,9.47,9.47,0,0,1,2.29-1.671,1.194,1.194,0,0,1,.465,2.342Z" transform="translate(-807.81 -635.813)" fill="#6c63ff"/><path d="M836.65,745.768c-.623-.216-2.04-1.97-2.04-1.97a9.48,9.48,0,0,1,2.821-.287,1.194,1.194,0,0,1-.781,2.257Z" transform="translate(-767.934 -681.016)" fill="#6c63ff"/><path d="M785.9,773.409a9.476,9.476,0,0,1-2.343-1.6,9.456,9.456,0,0,1,2.731-.759,1.194,1.194,0,0,1-.389,2.356Z" transform="translate(-721.351 -706.189)" fill="#6c63ff"/><path d="M857.31,681.58a9.472,9.472,0,0,0,1.193,2.573,9.489,9.489,0,0,0,1.2-2.571,1.194,1.194,0,0,0-2.388,0Z" transform="translate(-788.647 -623.494)" fill="#6c63ff"/><path d="M801.7,711.82a9.467,9.467,0,0,0,1.908,2.1,9.467,9.467,0,0,0,.371-2.811,1.194,1.194,0,0,0-2.275.713Z" transform="translate(-737.873 -650.785)" fill="#6c63ff"/><path d="M752.88,754.181a9.462,9.462,0,0,0,1.526,2.389,9.469,9.469,0,0,0,.841-2.708,1.195,1.195,0,0,0-2.363.318Z" transform="translate(-693.356 -689.635)" fill="#6c63ff"/><path d="M896.087,654.259a9.484,9.484,0,0,1-2.677.934,9.458,9.458,0,0,1,1.014-2.647,1.194,1.194,0,1,1,1.663,1.713Z" transform="translate(-821.588 -597.752)" fill="#ffb603"/><path d="M881.065,696.279a9.449,9.449,0,0,1-2.755-.671,9.47,9.47,0,0,1,2.29-1.671,1.194,1.194,0,0,1,.465,2.342Z" transform="translate(-807.81 -635.813)" fill="#ffb603"/><path d="M836.65,745.768c-.623-.216-2.04-1.97-2.04-1.97a9.48,9.48,0,0,1,2.821-.287,1.194,1.194,0,0,1-.781,2.257Z" transform="translate(-767.934 -681.016)" fill="#ffb603"/><path d="M785.9,773.409a9.476,9.476,0,0,1-2.343-1.6,9.456,9.456,0,0,1,2.731-.759,1.194,1.194,0,0,1-.389,2.356Z" transform="translate(-721.351 -706.189)" fill="#ffb603"/><path d="M857.31,681.58a9.472,9.472,0,0,0,1.193,2.573,9.489,9.489,0,0,0,1.2-2.571,1.194,1.194,0,0,0-2.388,0Z" transform="translate(-788.647 -623.494)" fill="#ffb603"/><path d="M801.7,711.82a9.467,9.467,0,0,0,1.908,2.1,9.467,9.467,0,0,0,.371-2.811,1.194,1.194,0,0,0-2.275.713Z" transform="translate(-737.873 -650.785)" fill="#ffb603"/><path d="M752.88,754.181a9.462,9.462,0,0,0,1.526,2.389,9.469,9.469,0,0,0,.841-2.708,1.195,1.195,0,0,0-2.363.318Z" transform="translate(-693.356 -689.635)" opacity="0.25"/><path d="M753.34,654.442s.542-5.582,3.763-8.552a8.5,8.5,0,0,0,2.63-4.688,14.3,14.3,0,0,0,.235-2.6" transform="translate(-693.775 -585.334)" fill="none" stroke="#535461" stroke-miterlimit="10" stroke-width="2"/><path d="M828.3,599.963c-.247.613-2.069,1.939-2.069,1.939a9.478,9.478,0,0,1-.146-2.832,1.194,1.194,0,1,1,2.215.893Z" transform="translate(-760.081 -548.581)" fill="#ffb603"/><path d="M828.461,641.585a9.487,9.487,0,0,1-2.791.5,9.4,9.4,0,0,1,1.417-2.456,1.194,1.194,0,0,1,1.374,1.953Z" transform="translate(-759.776 -586.078)" fill="#ffb603"/><path d="M802.233,705.145a9.467,9.467,0,0,1-2.663-.974,9.459,9.459,0,0,1,2.462-1.405,1.194,1.194,0,1,1,.2,2.379Z" transform="translate(-735.96 -643.881)" fill="#ffb603"/><path d="M768.829,750.569a9.463,9.463,0,0,1-2.789-.51,9.492,9.492,0,0,1,2.188-1.8,1.194,1.194,0,1,1,.6,2.312Z" transform="translate(-705.364 -685.361)" fill="#ffb603"/><path d="M797.456,643.09a9.465,9.465,0,0,0,2.133,1.868,9.463,9.463,0,0,0,.051-2.834,1.2,1.2,0,1,0-2.188.963Z" transform="translate(-733.934 -587.899)" fill="#ffb603"/><path d="M758.617,693.137a9.474,9.474,0,0,0,2.595,1.145,9.468,9.468,0,0,0-.8-2.72,1.194,1.194,0,0,0-1.795,1.575Z" transform="translate(-698.32 -633.291)" fill="#ffb603"/><path d="M731.155,751.457a9.553,9.553,0,0,0,2.363,1.566,9.447,9.447,0,0,0-.329-2.816,1.194,1.194,0,1,0-2.034,1.25Z" transform="translate(-673.37 -686.656)" fill="#6c63ff"/><ellipse cx="2.919" cy="0.401" rx="2.919" ry="0.401" transform="translate(0 67.746)" fill="#6c63ff" opacity="0.1"/><ellipse cx="2.919" cy="0.401" rx="2.919" ry="0.401" transform="translate(4.103 72.152)" fill="#6c63ff" opacity="0.1"/><path d="M132.469,829.229a1.159,1.159,0,0,0,.384-.58.515.515,0,0,0-.269-.59c-.246-.094-.509.077-.709.25a.948.948,0,0,1-.69.332,1.05,1.05,0,0,0,.325-.983.414.414,0,0,0-.087-.2c-.137-.146-.384-.087-.548.031a2.034,2.034,0,0,0-.669,1.711,3.23,3.23,0,0,1-.01-.7.732.732,0,0,0-.263-.623.8.8,0,0,0-.4-.1.832.832,0,0,0-.655.187.65.65,0,0,0,.025.8,2.579,2.579,0,0,0,.677.543,1.507,1.507,0,0,1,.485.461.558.558,0,0,1,.036.087h1.462A4.106,4.106,0,0,0,132.469,829.229Z" transform="translate(-123.84 -757.588)" fill="#ffb603"/><path d="M86.2,779.158a1.158,1.158,0,0,0,.384-.579.516.516,0,0,0-.269-.59c-.246-.094-.509.076-.709.249a.952.952,0,0,1-.69.333,1.05,1.05,0,0,0,.325-.983.41.41,0,0,0-.088-.2c-.137-.146-.384-.088-.548.031a2.031,2.031,0,0,0-.669,1.711,3.271,3.271,0,0,1-.01-.705.726.726,0,0,0-.263-.623.8.8,0,0,0-.4-.095.834.834,0,0,0-.655.186.651.651,0,0,0,.025.8,2.573,2.573,0,0,0,.677.542,1.511,1.511,0,0,1,.485.462.513.513,0,0,1,.036.082h1.467A4.051,4.051,0,0,0,86.2,779.158Z" transform="translate(-81.616 -711.899)" fill="#ffb603"/><ellipse cx="4.106" cy="0.564" rx="4.106" ry="0.564" transform="translate(73.172 72.076)" fill="#6c63ff" opacity="0.1"/><path d="M953.944,788.19s.55.719-.254,1.805-1.468,2-1.2,2.68c0,0,1.214-2.017,2.2-2.045S955.03,789.4,953.944,788.19Z" transform="translate(-875.444 -721.834)" fill="#ffb603"/><path d="M954.272,788.19a.9.9,0,0,1,.112.226c.963,1.131,1.477,2.188.551,2.215-.863.025-1.9,1.567-2.146,1.957a.789.789,0,0,0,.029.088s1.215-2.016,2.2-2.044S955.358,789.4,954.272,788.19Z" transform="translate(-875.772 -721.834)" opacity="0.1"/><path d="M980.1,796.979c0,.253-.029.459-.064.459s-.063-.206-.063-.459.035-.134.07-.134S980.1,796.725,980.1,796.979Z" transform="translate(-900.574 -729.706)" fill="#ffd037"/><path d="M980.9,800.316c-.222.122-.416.194-.433.164s.15-.154.372-.275.135-.033.151,0S981.126,800.2,980.9,800.316Z" transform="translate(-901.027 -732.741)" fill="#ffd037"/><path d="M923.64,788.19s-.55.719.254,1.805,1.468,2,1.2,2.68c0,0-1.213-2.017-2.2-2.045S922.554,789.4,923.64,788.19Z" transform="translate(-848.046 -721.834)" fill="#ffb603"/><path d="M923.672,788.19a.877.877,0,0,0-.113.226c-.963,1.131-1.476,2.188-.55,2.215.863.025,1.9,1.567,2.146,1.957a.648.648,0,0,1-.03.088s-1.213-2.016-2.2-2.044S922.586,789.4,923.672,788.19Z" transform="translate(-848.078 -721.834)" opacity="0.1"/><path d="M924.83,796.979c0,.253.029.459.064.459s.063-.206.063-.459-.035-.134-.07-.134S924.83,796.725,924.83,796.979Z" transform="translate(-850.259 -729.706)" fill="#ffd037"/><path d="M919.406,800.316c.222.122.417.194.433.164s-.15-.154-.373-.275-.134-.033-.151,0S919.184,800.2,919.406,800.316Z" transform="translate(-845.186 -732.741)" fill="#ffd037"/><path d="M926.83,829.71a5.627,5.627,0,0,0,2-.378c.464-.331,2.363-.724,2.481-.194s2.312,2.633.575,2.647a14.71,14.71,0,0,1-4.5-.552C926.927,830.951,926.83,829.71,926.83,829.71Z" transform="translate(-852.084 -758.962)" fill="#a8a8a8"/><path d="M931.929,840.272a14.715,14.715,0,0,1-4.5-.552c-.35-.214-.493-.984-.54-1.34h-.052s.1,1.241.56,1.523a14.714,14.714,0,0,0,4.5.552c.5,0,.675-.183.665-.447C932.493,840.168,932.3,840.272,931.929,840.272Z" transform="translate(-852.093 -767.632)" opacity="0.2"/><ellipse cx="30.791" cy="3.921" rx="30.791" ry="3.921" transform="translate(11.589 65.683)" fill="#6c63ff" opacity="0.1"/><path d="M382.782,199.544a2.4,2.4,0,0,1-.263-.838s-.445-.235-.267-.97a1.083,1.083,0,0,0-.5-1.138h0a8.521,8.521,0,0,1-.175-1.232,2.313,2.313,0,0,0-.5-1.027,2.748,2.748,0,0,0-.208-1.369,4.483,4.483,0,0,0-1.63-1.828,14.322,14.322,0,0,0-2.045-2.6,1.689,1.689,0,0,1-.592-.788h0a1.266,1.266,0,0,1,0-.144.113.113,0,0,1,0-.019h0v-.074a1.934,1.934,0,0,0,.5-.649,5.13,5.13,0,0,1,.286-1.441h0c.018-.048.037-.1.057-.142s.047-.109.074-.164a5.7,5.7,0,0,0,.453-.914c.007-.024.013-.049.019-.073h0a1.925,1.925,0,0,0-.292-1.442,4.068,4.068,0,0,0-1.138-1.106,5.09,5.09,0,0,0-1.444-.753,2.639,2.639,0,0,0-1.611-.011c-.515.178-.963.562-1.494.7a5.439,5.439,0,0,0-.675.157,1.434,1.434,0,0,0-.8,1.068,1.476,1.476,0,0,0-.033.322.9.9,0,0,0,.06.314.448.448,0,0,0,.313.3l.048.012.059.012c-.016.031-.033.062-.048.095a3.1,3.1,0,0,0-.289,1.313,3.143,3.143,0,0,0,2.231,3c.014.033.028.067.041.1.048.121.092.246.128.371a14.7,14.7,0,0,0-2.532,1.674,4.726,4.726,0,0,0-.337-1.86,2.8,2.8,0,0,0-1.681-1.612c-.438-.131-.9-.129-1.342-.22-.35-.071-.683-.2-1.031-.27a2.33,2.33,0,0,0-.42-.048,3.686,3.686,0,0,0-.769-.629,2.849,2.849,0,0,0-.88-.438,4.818,4.818,0,0,0-1.663.081c-.585.063-1.151-.088-1.728-.055a5.563,5.563,0,0,0-1.488.267,2.143,2.143,0,0,0-.344.158c.007-.011.016-.021.023-.032s.016-.031.024-.046a.357.357,0,0,0,.016-.032c0-.011.014-.039.02-.059a.192.192,0,0,0,.008-.025.624.624,0,0,0,.016-.07v-.015a.638.638,0,0,0,.008-.081.015.015,0,0,0,0-.006.928.928,0,0,0-.015-.221,2.779,2.779,0,0,0-.289-.693,1.372,1.372,0,0,1-.188-.719.164.164,0,0,1,.008-.061.667.667,0,0,1,.015-.072v-.005a.712.712,0,0,1,.02-.071h0c.008-.024.016-.047.025-.071h0c.009-.024.018-.046.028-.07h0l.031-.07h0c.01-.025.022-.048.033-.072.024-.047.046-.095.069-.142s.039-.087.057-.125l.01-.024c.036-.087.068-.175.1-.262a.1.1,0,0,1,.009-.026,2.443,2.443,0,0,0,.066-.263v-.028a1.862,1.862,0,0,0,.026-.269v-.028a1.3,1.3,0,0,0-.1-.514,2.019,2.019,0,0,0-.755-.814,1.23,1.23,0,0,0-.7-.277c-.3.006-.564.21-.861.252a1.3,1.3,0,0,1-.568-.071c-.415-.13-.8-.35-1.213-.476a3.034,3.034,0,0,0-1.234-.117.789.789,0,0,0-.48.181,1.384,1.384,0,0,0-.236.477,1.387,1.387,0,0,1-.506.621c-.248.167-.543.251-.8.4a.949.949,0,0,0-.473.554h0a.365.365,0,0,0-.01.061.079.079,0,0,0,0,.013.385.385,0,0,0,0,.064h0a2.644,2.644,0,0,0,.061.339h0v.019a1.141,1.141,0,0,1-.214.763,2.073,2.073,0,0,0-.313.545c-.062.014-.125.03-.189.046H349.7a.175.175,0,0,0-.175.175v.1a19.262,19.262,0,0,0-1.9.851s-1.467,1.937-1.623,2.2a.6.6,0,0,0-.046.158h0c-.289.087-.62,2.5-.62,2.5s.419.625.885,1.208c.184.537.725.963.745,1.676.028,1.078,0,2.817,0,2.817a14.215,14.215,0,0,1,.117,3.874,10.77,10.77,0,0,0,.143,3.632,12.451,12.451,0,0,1,0,3.015c-.156.77-.222,1.959,0,1.541v.175c0,.364.01,1.2,0,1.587a7.218,7.218,0,0,1,0,1.789,9.559,9.559,0,0,0-.193,2.055,3.519,3.519,0,0,1-.236,1.526,13.387,13.387,0,0,0,0,3.492s-.916,1.965-.636,2.347-.52.263-.52.263a5.6,5.6,0,0,1-1.038,2.788c-.863.909-2.312,7.307-2.1,8.921a6.177,6.177,0,0,0-.682.763,12.836,12.836,0,0,0-.01,1.527.6.6,0,0,0-.2.307c-.207.807-.459,2.3-.459,2.3s-.282.836,1.541.909,1.793-.235,1.793-.235a11.953,11.953,0,0,1,.06-1.7,7.088,7.088,0,0,0,.087-1.239.551.551,0,0,1,.123.03c.326.146.8-.438.563-1s.652-3.55.652-3.55,2.49-4.743,2.49-6.749a9.864,9.864,0,0,0,1.1-2.083,7.352,7.352,0,0,1,.445-1.527,6.19,6.19,0,0,1,0,2.817c-.414.792-.92,6.985-.534,7.6s-.237,1.555-.326,1.731-.207,2.2-.207,2.2h.2l-.078,1.631a19.24,19.24,0,0,1,3.763.235,20.771,20.771,0,0,0,3.883.262s1.541-.572.682-1.159a5.536,5.536,0,0,0-2.4-.645,13.631,13.631,0,0,0-1.517-1.825c-.16-.049-.409-.253-.634-.207a4.656,4.656,0,0,1,.22-1.01c.5-1.643.3-7.982.3-7.982a3.127,3.127,0,0,0,.386-1.32,1.947,1.947,0,0,1,.592-1.2s1.72-7.043,2.1-8.656a13.648,13.648,0,0,0,.592-4.535.047.047,0,0,0-.006-.028,12.186,12.186,0,0,0-.052-2.413c-.175-.485-.487-2.994-.487-2.994s-.059-.242-.117-.572l1.508.5a1.951,1.951,0,0,1,.1,1.127l-.018.044a1.618,1.618,0,0,0-.122,1.188,5.345,5.345,0,0,1,.125.993c.02.438.018.889.022,1.208v2.759h0v3.462a41.51,41.51,0,0,0,.185,4.357,8.378,8.378,0,0,1-.007,2.059h0c-.034.282-.074.521-.108.7h0c-.039.2-.069.324-.069.324a11.607,11.607,0,0,0-.34,4.423c.289,2.443-.077,1.98-.077,1.98a5.649,5.649,0,0,0,.143,1.233c.111.176-.143.924-.143.924s.1.088.249.2c-.01.048-.021.1-.031.154a3.959,3.959,0,0,0-.053.989c.005.073.007.149.005.229v.1a14.924,14.924,0,0,1-.7,1.872c-.34.722.578,1.566,1.031,1.925a.811.811,0,0,0,.507.175h.58a.813.813,0,0,0,.648-.321,2.216,2.216,0,0,0,.546-1.253,8.657,8.657,0,0,0-.569-1.925.737.737,0,0,0,0-.077,2.142,2.142,0,0,0-.114-.569l-.181-.935-.026-.135a.841.841,0,0,0,.074-.141s-.2-1.056,0-1.342a24.753,24.753,0,0,0,1.356-5.986,9.266,9.266,0,0,0,.912-3.037,11.678,11.678,0,0,1,.333-2.927,25.349,25.349,0,0,0,.733-3.279l.181,2.288.152,3.961s-.333,1.387,0,1.849a3.816,3.816,0,0,1,.222,1.783l-.244,4.622a4.356,4.356,0,0,1-.111.946c-.089.176-.141,2.418-.491,2.616,0,0,.054.041.144.1l-.088.119a2.408,2.408,0,0,0-.361,1.089.913.913,0,0,1-.01.1.756.756,0,0,0-.169.328.473.473,0,0,0,.056.328c-.152.325-.726,1.634-.3,2.028.358.33,1.593.235,2.228.161a.409.409,0,0,0,.362-.432,10.855,10.855,0,0,0-.158-1.313l4.638.118c-.512.4-1.153,1.007-1.153,1.007a7.061,7.061,0,0,1-1.3.913c-.433.164-.719.826-.126.88s2.893.087,2.893.087l.081-.013c.007.138.088.256.312.3.556.1,5.624-.638,5.624-.638s-.007-.186-.021-.438a8.3,8.3,0,0,0,2.659-.114,11.3,11.3,0,0,0,1.956-.939v-.225c0-.137,0-.309-.007-.5a2.472,2.472,0,0,0-.068-.655,7.02,7.02,0,0,1-.415-1.127,1.061,1.061,0,0,0,.719-.413s-.749-.646-.534-.788.289-.793.289-.793a5.141,5.141,0,0,1-.007-3.287,17.436,17.436,0,0,0-.29-7.068,1.587,1.587,0,0,1-.118-1.119c.415-.675-.408-2.67-.408-2.67s.319-3.464.081-3.773.115-1.457.115-1.457a3.015,3.015,0,0,0,.451-.753,1.758,1.758,0,0,0,.319.443s.04-.132.094-.35a1.183,1.183,0,0,0,.087.088,8.339,8.339,0,0,0,.326-2.33c-.03-1.173-.118-3.5-.118-3.5l-.005-.284,1.25-1.6a4.074,4.074,0,0,0,1.163-2.226.438.438,0,0,0,.109-.1C383.2,200.434,383,199.961,382.782,199.544Zm-16.745,2.888.02.362a4.826,4.826,0,0,1-.083-.484l.065.115Zm10.27-14.717a.783.783,0,0,0,.119-.073l-.113.1A.059.059,0,0,0,376.306,187.715Zm-17.755-1.893a1.576,1.576,0,0,0-.129.125c-.421.463-.556,1.173-1.087,1.505-.151.094-.322.15-.47.247a1.662,1.662,0,0,0-.606,1.087.642.642,0,0,1,.01-.093c-.029.117-.053.236-.074.35a1.382,1.382,0,0,0-.015.469c.015.217.093.411.294.462.1.025.21,0,.313.02a.5.5,0,0,1,.367.43.164.164,0,0,1,0,.022v-.005c0,.024.007.048.009.072a.085.085,0,0,0,0,.016,2.337,2.337,0,0,1-.175.591l-.005-.021c-.023.062-.045.124-.062.187a.535.535,0,0,0-.02.279.312.312,0,0,0,.035.156.394.394,0,0,0,.284.175.8.8,0,0,0,.4-.035.875.875,0,0,0-.088.311,1.069,1.069,0,0,0-.809.763c-.021.072-.043.143-.066.214-.059.187-.124.372-.192.55a2.274,2.274,0,0,0-.088-.713,10.631,10.631,0,0,1-.533-1.651V190.3c0-.635-1.172-1.075-1.182-1.079a6.387,6.387,0,0,1,.232-1.079c.009-.03.019-.059.029-.087A3.38,3.38,0,0,0,358,185.86c.01-.026.018-.053.027-.079a.828.828,0,0,0,.35.068A.64.64,0,0,0,358.551,185.822Zm-2.219,14.3c0-.686-.076-1.436-.076-1.436s.011-.152.03-.408c.431-.383.856-.775,1.037-.944a1.07,1.07,0,0,0,.088-.087.662.662,0,0,1,.228.393,1.445,1.445,0,0,1,.01.576,5.072,5.072,0,0,0,.2,1.419h0a4.064,4.064,0,0,1,.078,1.017Zm8.051,31.923a6.07,6.07,0,0,1,.69-2.288,30.922,30.922,0,0,0,1.4-5.194,21.385,21.385,0,0,0,.133-2.883,37.412,37.412,0,0,1,.27-4.182c.045.291.076.49.077.507,0,.056.585,2.507.77,3.588v4.993a2,2,0,0,1-.179.828l-.573,1.272a1.8,1.8,0,0,0-.015,1.442c.093.222.147.42.06.445a1.382,1.382,0,0,0-.213.087.506.506,0,0,0-.094-.073l-1.887,1.541-.555.075v-.07a.368.368,0,0,0,.12-.087Zm7.461,2.495-.074-.327-.02-.087.175.013a8.627,8.627,0,0,1-.156-3.191,3.624,3.624,0,0,0,.139-.7c.017-.137.031-.284.045-.438.144.438.271.889.193.988a3.212,3.212,0,0,0,.024,1.386c.043.066.333.438.132.756a3.552,3.552,0,0,0-.175,1.3s.051.006.136.013A3.025,3.025,0,0,0,371.843,234.539Zm2.492-.487c-.014-.024-.027-.05-.04-.074a2.126,2.126,0,0,1,.715-.066,10.634,10.634,0,0,1-.466-2.967c.2-.529-.845-5.635-1.356-6.8s.175-4.424.175-4.424l1.117-2.948.925,3.057a5.184,5.184,0,0,0,.593,3.113,1.006,1.006,0,0,1,.175,1.262,10.221,10.221,0,0,0,.087,2.406,23.657,23.657,0,0,1-.087,3.023,1.489,1.489,0,0,0,.385,1.467c.3.352-.326.323-.682.658a.55.55,0,0,0,0,.751l.131-.01a1.972,1.972,0,0,1,.119.508.3.3,0,0,1-.088.221c-.238.206-.623,1.218-.963,1.467a1.661,1.661,0,0,0-.134.109.335.335,0,0,0-.068.015,5.823,5.823,0,0,1-.542-.764Zm-24.948-47.274a3.19,3.19,0,0,0,1.511-.7h.849a3.288,3.288,0,0,0,.323.561c-.008.019-.014.038-.022.058a2.23,2.23,0,0,1-.17.333h0a3.888,3.888,0,0,0-1.51.324,1.034,1.034,0,0,0-.16.111,2.315,2.315,0,0,1-1.445.3l-.2-.123-.036.16-.021.018.012-1.476Zm10.343,45.231v.119a.911.911,0,0,1,0-.119Zm0,.137.01.1c0-.036,0-.067-.006-.1Z" transform="translate(-317.646 -166.808)" fill="url(#a)"/><rect width="3.645" height="2.161" transform="matrix(0.948, 0.32, -0.32, 0.948, 37.763, 33.317)" fill="#d38884"/><path d="M680.173,507.68a2.067,2.067,0,0,1-.466,2.217s-.35,1.133-.116,1.442a19.484,19.484,0,0,1-.08,3.75s.809,1.984.4,2.655a1.594,1.594,0,0,0,.116,1.112,17.524,17.524,0,0,1,.284,7.026,5.158,5.158,0,0,0,.007,3.267s-.073.641-.284.788.525.788.525.788a1.018,1.018,0,0,1-1.175.35,11.654,11.654,0,0,0-2.945-.088.55.55,0,0,1,0-.746c.35-.333.963-.3.67-.655a1.487,1.487,0,0,1-.379-1.459,23.527,23.527,0,0,0,.088-3,10.389,10.389,0,0,1-.088-2.392,1.013,1.013,0,0,0-.175-1.255,5.2,5.2,0,0,1-.584-3.093l-1.633-5.453-3.209-5.25,4.714-.68Z" transform="translate(-618.759 -465.251)" fill="#4c4981"/><path d="M692.049,252.273V255.6h-4.463l-.116-.326a7.215,7.215,0,0,1,1.021-1.888c.29-.333.155-.948-.055-1.482a6.705,6.705,0,0,0-.5-1s4.026-2.538,3.822-.991a5.253,5.253,0,0,0-.041,1A3.154,3.154,0,0,0,692.049,252.273Z" transform="translate(-633.67 -230.204)" fill="#febfba"/><path d="M696.621,249.892a5.274,5.274,0,0,0-.041,1,3.128,3.128,0,0,1-3.281.993,6.729,6.729,0,0,0-.5-1S696.825,248.346,696.621,249.892Z" transform="translate(-638.533 -230.186)" opacity="0.1"/><path d="M679.183,210.118a3.116,3.116,0,1,1-.913-2.206A3.121,3.121,0,0,1,679.183,210.118Z" transform="translate(-620.411 -191.503)" fill="#febfba"/><path d="M672.629,290.34l-1.371,2.188-.788,5.887v4.826l.175,1.72,3.251.234,1.446-4.858,1.109-4.972,1.2-1.021-2.829-3.209a6.148,6.148,0,0,1-1.163,1.211.525.525,0,0,1-.8-.612c.175-.459.333-.968.212-1.089a1.265,1.265,0,0,0-.584-.3" transform="translate(-618.157 -267.55)" opacity="0.1"/><path d="M671.629,291.34l-1.371,2.188-.788,5.887v4.826l.175,1.72,3.251.234,1.446-4.858,1.109-4.972,1.2-1.021-2.829-3.209a6.149,6.149,0,0,1-1.163,1.211.525.525,0,0,1-.8-.613c.175-.459.333-.968.212-1.09a1.264,1.264,0,0,0-.584-.3" transform="translate(-617.245 -268.462)" fill="#e6e8ec"/><path d="M675.15,466.689h2.829l-.379-1.838-.058-.8-1.371.86Z" transform="translate(-616.069 -423.443)" opacity="0.1"/><path d="M675.15,464.689h2.829l-.379-1.838-.058-.8-1.371.86Z" transform="translate(-616.069 -421.618)" fill="#e6e8ec"/><path d="M666.825,282.57s-2.567,1.418-2.655,1.855-.7,3.442-.7,3.442v2.713l2.538-.93-.145-3.71.9-2.215A2.394,2.394,0,0,0,666.825,282.57Z" transform="translate(-611.77 -260.46)" opacity="0.1"/><path d="M665.825,281.57s-2.567,1.418-2.655,1.855-.7,3.442-.7,3.442v2.713l2.538-.93-.145-3.709.9-2.215A2.394,2.394,0,0,0,665.825,281.57Z" transform="translate(-610.857 -259.547)" fill="#ff718d"/><path d="M707.081,293.538a8.385,8.385,0,0,1-.321,2.316,5.619,5.619,0,0,1-.939-2.247c-.22.747-1.978,2.09-1.978,2.09v.408c-.088,1.138-3.763.35-3.763.35l.234-14.643s.291-2.771-.088-3.608a6.094,6.094,0,0,1-.263-2.343,2.543,2.543,0,0,1,.729-.816c.379-.2,2.5-2.211,2.565-2.275h0a1.822,1.822,0,0,0,0,.25h0c.054.734.583.781.583.781a14.049,14.049,0,0,1,2.013,2.585,4.445,4.445,0,0,1,1.6,1.817,2.754,2.754,0,0,1,.2,1.362,2.3,2.3,0,0,1,.5,1.021,8.317,8.317,0,0,0,.175,1.225l-1.458,3.379.088,4.872S707.052,292.372,707.081,293.538Z" transform="translate(-645.055 -251.517)" opacity="0.1"/><path d="M709.063,290.575a8.39,8.39,0,0,1-.321,2.316,5.622,5.622,0,0,1-.939-2.247c-.22.747-1.978,2.09-1.978,2.09v.408c-.088,1.138-3.763.35-3.763.35l.019-1.194h0v-.113l.213-13.332s.291-2.771-.088-3.608a6.093,6.093,0,0,1-.262-2.343,2.542,2.542,0,0,1,.729-.816c.379-.2,2.5-2.211,2.565-2.275h0a1.783,1.783,0,0,0,0,.25h0c.054.734.583.781.583.781a14.056,14.056,0,0,1,2.013,2.585,4.446,4.446,0,0,1,1.6,1.817,2.753,2.753,0,0,1,.2,1.362,2.3,2.3,0,0,1,.5,1.021,8.318,8.318,0,0,0,.175,1.225l-1.291,3-.164.378.087,4.872S709.034,289.408,709.063,290.575Z" transform="translate(-646.862 -248.816)" fill="#ff718d"/><path d="M719.412,773.851a11.056,11.056,0,0,1-1.925.934,8.277,8.277,0,0,1-3.281,0c-.449-.127-.212-.561.1-.908a3.012,3.012,0,0,1,.43-.4c.336-.249.715-1.255.949-1.459s-.073-.919-.073-.919a3.424,3.424,0,0,1,.8-.729c.263-.088,1.56.656,1.56.656l.948.16c-.1.131.335,1.225.423,1.385a2.473,2.473,0,0,1,.067.651C719.417,773.538,719.412,773.851,719.412,773.851Z" transform="translate(-657.838 -705.563)" opacity="0.1"/><path d="M719.412,774.851a11.063,11.063,0,0,1-1.925.934,8.277,8.277,0,0,1-3.281,0c-.449-.127-.212-.561.1-.908a3.019,3.019,0,0,1,.43-.4c.336-.249.715-1.255.949-1.459s-.073-.919-.073-.919a3.422,3.422,0,0,1,.8-.729c.263-.088,1.56.656,1.56.656l.948.16c-.1.131.335,1.225.423,1.385a2.474,2.474,0,0,1,.067.651C719.417,774.538,719.412,774.851,719.412,774.851Z" transform="translate(-657.838 -706.475)" fill="#626696"/><path d="M719.412,804.636a11.069,11.069,0,0,1-1.925.934,8.284,8.284,0,0,1-3.281,0c-.449-.127-.212-.561.1-.908a29.141,29.141,0,0,0,3.551.018l1.555-.68C719.417,804.323,719.412,804.636,719.412,804.636Z" transform="translate(-657.838 -736.261)" opacity="0.1"/><path d="M730.84,800.185s-1.3-.7-1.94-.394S730.84,800.185,730.84,800.185Z" transform="translate(-671.38 -732.35)" opacity="0.1"/><path d="M625.558,625.1v7.766a2.006,2.006,0,0,1-.175.823l-.568,1.263a1.8,1.8,0,0,0-.015,1.432c.088.221.144.417.059.442a4.862,4.862,0,0,0-.7.359s2.829,3.4,3.879,2.558.555-6.476.555-6.476.059-4.958.116-5.046.146-2.8.146-2.8Z" transform="translate(-575.9 -573.016)" fill="#4c4981"/><path d="M706.019,271.8l-2.713,2.059H702.14a2.542,2.542,0,0,1,.729-.816c.379-.2,2.5-2.211,2.565-2.275h0a.577.577,0,0,0,0,.25h0A1.7,1.7,0,0,0,706.019,271.8Z" transform="translate(-647.056 -249.692)" opacity="0.1"/><path d="M706.019,270.8l-2.713,2.059H702.14a2.542,2.542,0,0,1,.729-.816c.379-.2,2.5-2.211,2.565-2.275h0a.577.577,0,0,0,0,.25h0A1.7,1.7,0,0,0,706.019,270.8Z" transform="translate(-647.056 -248.78)" fill="#ff718d"/><path d="M682.121,210.094a3.116,3.116,0,0,1-.972,2.265v-.042c.029-.492-.06.006.088-.51a.481.481,0,0,0-.163-.416.3.3,0,0,0-.405-.059c-.115.1-.106.29-.216.4a.33.33,0,0,1-.479-.129,1.069,1.069,0,0,1-.076-.56.773.773,0,0,0-.127-.543c-.127-.145-.3-.19-.4-.34-.137-.221.016-.525-.077-.767a.588.588,0,0,0-.591-.313c-.557.027-1.107.4-1.671.179-.222-.087-.382-.316-.6-.4a1.365,1.365,0,0,0-.276-.065,3.121,3.121,0,0,1,5.958,1.3Z" transform="translate(-623.349 -191.479)" opacity="0.1"/><path d="M671.368,195.21a1.11,1.11,0,0,1-.027-.632,1.423,1.423,0,0,1,.788-1.061,4.887,4.887,0,0,1,.664-.156c.525-.137.957-.516,1.469-.695a2.554,2.554,0,0,1,1.587.011,5,5,0,0,1,1.42.748,4.057,4.057,0,0,1,1.116,1.1,1.9,1.9,0,0,1,.27,1.506,5.69,5.69,0,0,1-.446.909,4.713,4.713,0,0,0-.411,1.735c-.013.182-.762,1.014-.9.851a.645.645,0,0,1-.088-.461c.029-.493-.06.005.088-.51a.485.485,0,0,0-.164-.417.3.3,0,0,0-.4-.06c-.114.1-.107.291-.217.4a.331.331,0,0,1-.48-.129,1.059,1.059,0,0,1-.075-.559.766.766,0,0,0-.128-.544c-.128-.145-.3-.19-.4-.339-.136-.222.015-.525-.078-.768a.588.588,0,0,0-.591-.313c-.557.028-1.107.4-1.671.179-.222-.088-.381-.316-.6-.4C671.792,195.49,671.524,195.595,671.368,195.21Z" transform="translate(-618.921 -178.313)" fill="#36123a"/><path d="M585.346,762.722l-7.248-.186c-.437-.242-.549-.494-.507-.722.08-.42.682-.75.682-.75l1.925-.262,1.856-1.531c.3.175.375.7.375.7a28.212,28.212,0,0,0,2.7,1.663c.161.029.215.3.229.567A3.865,3.865,0,0,1,585.346,762.722Z" transform="translate(-533.398 -695.445)" opacity="0.1"/><path d="M584.346,763.722l-7.248-.186c-.437-.242-.55-.495-.507-.722.08-.42.682-.75.682-.75l1.925-.263,1.856-1.531c.3.175.375.7.375.7a28.236,28.236,0,0,0,2.7,1.663c.161.029.215.3.229.567A3.856,3.856,0,0,1,584.346,763.722Z" transform="translate(-532.486 -696.357)" fill="#626696"/><path d="M584.346,790.248l-7.248-.186c-.437-.242-.55-.494-.507-.722l7.765.386A3.856,3.856,0,0,1,584.346,790.248Z" transform="translate(-532.486 -722.884)" opacity="0.1"/><g transform="translate(52.386 15.922)" opacity="0.1"><path d="M676.9,216.165a1.6,1.6,0,0,0,.088-.263.485.485,0,0,0-.164-.417.3.3,0,0,0-.4-.06c-.114.1-.107.291-.217.4a.33.33,0,0,1-.479-.129,1.058,1.058,0,0,1-.075-.559.767.767,0,0,0-.128-.544c-.128-.145-.3-.19-.4-.339-.136-.222.015-.525-.078-.768a.588.588,0,0,0-.591-.313c-.556.028-1.107.4-1.671.179-.222-.087-.381-.316-.6-.4-.307-.115-.575-.01-.731-.4a1.108,1.108,0,0,1-.027-.632c.005-.025.011-.051.017-.075a1.786,1.786,0,0,0-.105.338,1.11,1.11,0,0,0,.026.638c.156.386.424.281.731.4.217.081.375.308.6.4.564.225,1.115-.151,1.671-.179a.582.582,0,0,1,.591.313c.093.244-.059.546.078.768.088.149.283.206.4.339a.831.831,0,0,1,.128.544,1.062,1.062,0,0,0,.075.559c.094.166.341.263.48.129.11-.1.1-.3.217-.4a.3.3,0,0,1,.4.059A.483.483,0,0,1,676.9,216.165Z" transform="translate(-671.303 -211.85)"/><path d="M734.287,261.955a.645.645,0,0,1-.087-.461.95.95,0,0,0,0-.244c-.148.508-.06.016-.088.507a.626.626,0,0,0,.088.461c.139.163.888-.669.9-.851,0-.032.006-.066.009-.1C734.911,261.568,734.4,262.087,734.287,261.955Z" transform="translate(-728.611 -256.927)"/><path d="M748.916,232.249a3.381,3.381,0,0,0-.216.566,3.215,3.215,0,0,1,.129-.3,5.837,5.837,0,0,0,.446-.909c.007-.024.013-.048.018-.073C749.189,231.779,749.036,232.009,748.916,232.249Z" transform="translate(-741.927 -229.808)"/></g><path d="M642.67,725.77a.984.984,0,0,0,.726.656C643.938,726.5,642.67,725.77,642.67,725.77Z" transform="translate(-592.79 -664.877)" opacity="0.1"/><path d="M635.67,759.2s.525.015,1.043,0S635.67,759.2,635.67,759.2Z" transform="translate(-586.402 -695.376)" opacity="0.1"/><path d="M739.83,682.5a1.993,1.993,0,0,0,1.05-.248C741.274,681.979,739.83,682.5,739.83,682.5Z" transform="translate(-681.448 -625.097)" opacity="0.1"/><path d="M759.722,644.93s-1.036.525-.831.744S759.722,644.93,759.722,644.93Z" transform="translate(-698.816 -591.111)" opacity="0.1"/><path d="M761.67,656.3c.073-.044.613-.335.744-.627S761.67,656.3,761.67,656.3Z" transform="translate(-701.376 -600.862)" opacity="0.1"/><path d="M525.815,751.247l-.656.262-.984.219-.863-.306-.231-.7a9.352,9.352,0,0,0,.4-2.092c0-.079,0-.156-.005-.227a3.953,3.953,0,0,1,.052-.984,3.534,3.534,0,0,1,.144-.57h1.378l.15.777.175.929a2.137,2.137,0,0,1,.112.565.49.49,0,0,1-.025.168.153.153,0,0,0-.009.04h0a2.059,2.059,0,0,0,.042.458v.006C525.6,750.382,525.815,751.247,525.815,751.247Z" transform="translate(-483.665 -684.112)" fill="#b15885"/><path d="M577.355,772.057l-2.275-.285s.122-.445.222-1.05c.037-.227.072-.476.1-.733a2.419,2.419,0,0,1,.356-1.082A1.5,1.5,0,0,1,576,768.6l1.356.306s.011.263.015.588a4.71,4.71,0,0,1-.081,1.261l-.005.01A4.1,4.1,0,0,0,577.355,772.057Z" transform="translate(-531.114 -703.958)" fill="#b15885"/><path d="M550.175,772.005l-.005-.305.039.1a.493.493,0,0,1-.025.168A.152.152,0,0,0,550.175,772.005Z" transform="translate(-508.384 -706.787)" opacity="0.1"/><path d="M525.815,768.147l-.656.262-.984.219-.863-.306-.231-.7a9.351,9.351,0,0,0,.4-2.091c.031-.1.047-.16.047-.16l-.175,2.1a.476.476,0,0,0,.48.515l1.275-.018a.475.475,0,0,0,.466-.525l-.077-.75C525.6,767.281,525.815,768.147,525.815,768.147Z" transform="translate(-483.665 -701.011)" opacity="0.1"/><path d="M519.685,766.37a15.409,15.409,0,0,1-.742,2.033c-.334.718.569,1.558,1.014,1.914a.8.8,0,0,0,.5.175h.572a.8.8,0,0,0,.639-.318,2.217,2.217,0,0,0,.536-1.245,9.581,9.581,0,0,0-.593-2l.006.361.118,1.159a.476.476,0,0,1-.466.525l-1.275.018a.475.475,0,0,1-.48-.514Z" transform="translate(-479.823 -701.924)" fill="#626696"/><path d="M529.7,746.85l.15.777c-.369.669-1.26.106-1.672-.207a3.534,3.534,0,0,1,.144-.57Z" transform="translate(-488.319 -684.112)" opacity="0.1"/><path d="M584.387,769.494c-.45.211-1.372-.412-1.617-.587a1.5,1.5,0,0,1,.246-.307l1.356.306S584.383,769.167,584.387,769.494Z" transform="translate(-538.132 -703.958)" opacity="0.1"/><path d="M535.2,518.758a36.662,36.662,0,0,0-.547,5.972,21.572,21.572,0,0,1-.131,2.866,30.975,30.975,0,0,1-1.378,5.163,6.091,6.091,0,0,0-.678,2.275c-.438.481-1.794-.547-1.794-.547.35-.2.394-2.428.481-2.6a4.39,4.39,0,0,0,.109-.941l.241-4.594a3.828,3.828,0,0,0-.219-1.772c-.328-.459,0-1.838,0-1.838l-.151-3.938-.175-2.275a25.414,25.414,0,0,1-.722,3.26,11.722,11.722,0,0,0-.328,2.91,9.29,9.29,0,0,1-.9,3.019,24.821,24.821,0,0,1-1.334,5.951c-.2.284,0,1.334,0,1.334-.437,1.072-1.935-.285-1.935-.285s.25-.744.141-.919a5.661,5.661,0,0,1-.141-1.225s.36.459.075-1.969a11.667,11.667,0,0,1,.335-4.4,9.236,9.236,0,0,0,.182-3.063,41.506,41.506,0,0,1-.182-4.332v-3.442l.365-.671s8.247-1.291,8.86-.5a1.213,1.213,0,0,1,.175.5A22.689,22.689,0,0,1,535.2,518.758Z" transform="translate(-486.095 -469.758)" fill="#e6e8ec"/><path d="M616.248,646.22s-.766.23-.8.383C615.45,646.6,616.172,646.376,616.248,646.22Z" transform="translate(-567.952 -592.288)" opacity="0.1"/><path d="M595.729,656.079s-1.849.843-2.658-.109A3.875,3.875,0,0,0,595.729,656.079Z" transform="translate(-547.53 -601.185)" opacity="0.1"/><path d="M596,664.6s1.9.416,2.242,0Z" transform="translate(-550.204 -609.059)" opacity="0.1"/><path d="M533.115,639.22s-.533.276-.715.11Z" transform="translate(-492.169 -585.9)" opacity="0.1"/><path d="M532.072,646.22s-.855.088-.875.192S532.072,646.22,532.072,646.22Z" transform="translate(-491.071 -592.288)" opacity="0.1"/><path d="M534,532.426a30.384,30.384,0,0,1,4.5.219,1.053,1.053,0,0,0,1.127-.295l-1.05,2.308s-.449-2.658-4.387-1.663Z" transform="translate(-493.629 -488.382)" opacity="0.1"/><path d="M525.935,285.474c-.088.14-.175.322-.088.46a1.459,1.459,0,0,0,.118.126.573.573,0,0,1,.1.238,1.613,1.613,0,0,1-.108,1.257,5.269,5.269,0,0,0-.357.484,1.368,1.368,0,0,0-.051.83,3.133,3.133,0,0,0,.3,1,1.36,1.36,0,0,0,.762.676c.194.06.429.077.543.245.126.184.053.487.242.6a.47.47,0,0,0,.438-.051.807.807,0,0,0,.473-.412c.041-.13.017-.282.1-.393.063-.087.175-.133.239-.226a.472.472,0,0,0,.057-.2l.117-.889a.919.919,0,0,0,.01-.245.994.994,0,0,0-.321-.514,1.978,1.978,0,0,1-.525-.818,4.777,4.777,0,0,1,.14-1.506.788.788,0,0,0-.024-.3.985.985,0,0,0-.232-.338,1.759,1.759,0,0,0-.35-.316,1.656,1.656,0,0,0-.949-.142C526.233,285.047,526.111,285.2,525.935,285.474Z" transform="translate(-485.884 -262.713)" fill="#1e1637"/><path d="M485.653,363.546l-.35.656-.087.087a20.7,20.7,0,0,1-2.169,1.867c-.241.044-1.467-1.908-1.467-1.908l1.845-1.557.074-.062Z" transform="translate(-445.796 -333.514)" fill="#b15885"/><path d="M553.459,298.664l-2.975,1.181s-2.932.35-2.013-1.269a3.034,3.034,0,0,0,.291-.71,4.312,4.312,0,0,0-.291-2.747s3.457-3.063,3.019-.788a4.089,4.089,0,0,0,.816,3.014A7.379,7.379,0,0,0,553.459,298.664Z" transform="translate(-506.671 -270.425)" fill="#b15885"/><circle cx="2.888" cy="2.888" r="2.888" transform="translate(40.057 19.838)" opacity="0.1"/><circle cx="2.888" cy="2.888" r="2.888" transform="translate(40.057 19.75)" fill="#b15885"/><path d="M553.459,338.858l-2.975,1.181s-2.932.35-2.013-1.269a3.032,3.032,0,0,0,.291-.71,2.737,2.737,0,0,0,1.677.972c1.182.123,1.408-.773,1.866-1.493A7.378,7.378,0,0,0,553.459,338.858Z" transform="translate(-506.671 -310.62)" opacity="0.1"/><path d="M504.743,363.519l-.35.656-.087.088-.482-.42-1.323-1.155.014-.025.074-.062Z" transform="translate(-464.886 -333.487)" opacity="0.1"/><path d="M539.813,512.692a9,9,0,0,1-2.672.472,6.871,6.871,0,0,0-3.107.788c-1.546.729-3.625-.408-3.625-.408v-.175l.365-.671s8.247-1.291,8.86-.5A1.212,1.212,0,0,1,539.813,512.692Z" transform="translate(-490.353 -469.758)" opacity="0.1"/><path d="M515.916,338.768c-.117.875-2.6,1.079-3.34,1.108a6.86,6.86,0,0,0-3.107.788c-1.546.729-3.625-.408-3.625-.408v-.119c0-.341,0-1.346,0-2.045v-.578c0-.318,0-.765-.022-1.2a5.355,5.355,0,0,0-.116-.986,1.618,1.618,0,0,1,.12-1.181l.018-.044a2.358,2.358,0,0,0-.138-1.283,4.145,4.145,0,0,1-.088-.805c-.008-.269,0-.479,0-.479a3.165,3.165,0,0,0,.109-1.825h0a5.112,5.112,0,0,1-.2-1.412,1.447,1.447,0,0,0-.009-.572.659.659,0,0,0-.225-.39l-.485-.423-1.323-1.153s.267-.48.568-1.171a13.47,13.47,0,0,0,.505-1.33c.023-.07.044-.141.065-.212.408-1.4,2.6-.584,2.6-.584a2.655,2.655,0,0,0,2.246,2.771c1.4.146,1.459-1.138,2.151-1.867s3.187,1.138,3.187,1.138.019.676-.013,1.581a19.1,19.1,0,0,1-.224,2.412,5.515,5.515,0,0,1-.463,1.575,3.256,3.256,0,0,0-.175.4,3.851,3.851,0,0,0-.236,1.371,2.44,2.44,0,0,0,.009.256,4.674,4.674,0,0,0,.138.875,3.069,3.069,0,0,0,.093.3s.078.171.2.453c.175.395.438,1.006.716,1.674.154.375.312.769.456,1.152.212.558.4,1.092.506,1.509A2.253,2.253,0,0,1,515.916,338.768Z" transform="translate(-465.789 -296.645)" fill="#ffcde5"/><path d="M520.734,336.848a19.1,19.1,0,0,1-.224,2.412,3.717,3.717,0,0,1-.726.1c-.37.01-.737-.066-1.107-.075-.4-.01-.793.054-1.19.078a11.937,11.937,0,0,1-2.372-.175l-.74-.108a5.679,5.679,0,0,1-.606-.11c-.167-.042-.329-.1-.494-.151a9.053,9.053,0,0,0-1.81-.333.659.659,0,0,0-.225-.39l-.485-.423q-.335-1.019-.668-2.037c-.032-.094-.062-.19-.088-.286a13.494,13.494,0,0,0,.5-1.33,7.007,7.007,0,0,0,.4,1.013,2.786,2.786,0,0,0,.355.575,2.952,2.952,0,0,0,1.363.81,18.523,18.523,0,0,0,4.076.714,11.365,11.365,0,0,0,1.348.078c.35-.009.7-.05,1.05-.087A11.8,11.8,0,0,0,520.734,336.848Z" transform="translate(-471.729 -307.407)" fill="#ff90c9"/><path d="M536.093,408.469a3.849,3.849,0,0,0-.236,1.371h-.01a8.549,8.549,0,0,1-.888.374,4.039,4.039,0,0,1-1.012.115q-.762.022-1.526.04a15.492,15.492,0,0,1-4.638-.365c-.008-.269,0-.479,0-.479a3.166,3.166,0,0,0,.109-1.825c.151.074.314.19.383.222a6.372,6.372,0,0,0,.859.33,9.813,9.813,0,0,0,2.382.35,31.321,31.321,0,0,0,3.93-.06A4.834,4.834,0,0,0,536.093,408.469Z" transform="translate(-487.954 -374.64)" fill="#ff90c9"/><path d="M537.288,455.463c-.134.024-.267.052-.4.079a9.578,9.578,0,0,0-1.086.268c-.324.108-.634.249-.963.359a8.425,8.425,0,0,1-2.408.361,27.186,27.186,0,0,1-4.176-.165,5.365,5.365,0,0,0-.116-.986,1.618,1.618,0,0,1,.12-1.181,9.347,9.347,0,0,1,.988.175,14.175,14.175,0,0,0,2.023.243,11.836,11.836,0,0,0,1.231-.07l1.01-.093a8.1,8.1,0,0,0,.932-.122c.3-.063.589-.159.884-.24.407-.11.83-.192,1.241-.3C536.747,454.184,537.013,454.8,537.288,455.463Z" transform="translate(-488.226 -416.697)" fill="#ff90c9"/><path d="M540.35,487.606a7.769,7.769,0,0,0-1.424.6c-.35.2-.686.438-1.056.606a5.782,5.782,0,0,1-1.265.36q-1.241.242-2.495.428a11.27,11.27,0,0,1-3.73.068c0-.341,0-1.346,0-2.045a5.951,5.951,0,0,1,1.426-.008,25.647,25.647,0,0,0,2.609.157,9.9,9.9,0,0,0,1.318-.2l2.472-.5a1.2,1.2,0,0,0,.387-.124,1.713,1.713,0,0,0,.3-.263,3.4,3.4,0,0,1,.95-.591A14.037,14.037,0,0,1,540.35,487.606Z" transform="translate(-490.326 -446.179)" fill="#ff90c9"/><path d="M610.563,474.624c.287-.035.574.113.861.074-.1.153-.309.175-.489.2a5.011,5.011,0,0,0-.576.132c-.076.02-.513.184-.567.13C609.663,475.03,610.445,474.638,610.563,474.624Z" transform="translate(-562.776 -435.702)" opacity="0.1"/><path d="M609.789,484.794a2.349,2.349,0,0,0-.362.29,1.8,1.8,0,0,1-.687.355.74.74,0,0,0,.836-.064.84.84,0,0,1,.222-.169c.067-.026.143-.024.211-.052.088-.038.273-.256.224-.363C610.17,484.657,609.877,484.745,609.789,484.794Z" transform="translate(-561.829 -444.921)" opacity="0.1"/><path d="M603.428,445.483c.079.088.213.088.325.13a1.519,1.519,0,0,1,.21.112,1.094,1.094,0,0,0,.894.073.9.9,0,0,0-.43-.4,1.03,1.03,0,0,0-.494.016.881.881,0,0,1-.385.007C603.442,445.388,603.272,445.31,603.428,445.483Z" transform="translate(-556.924 -409.014)" opacity="0.1"/><path d="M512.446,244.606c-.414.46-.547,1.166-1.07,1.5-.147.093-.317.149-.462.245a1.95,1.95,0,0,0-.65,1.343c-.06.318-.049.754.263.834.1.025.207,0,.309.02a.55.55,0,0,1,.372.618,4.016,4.016,0,0,1-.224.757.454.454,0,0,0,0,.34.39.39,0,0,0,.278.175.978.978,0,0,0,.916-.431,2.535,2.535,0,0,0,.375-.99,14.508,14.508,0,0,0,.263-1.744,3.685,3.685,0,0,1,.308-1.472,1.082,1.082,0,0,1,1.256-.584c.332.132.573.494.931.508a.68.68,0,0,1,.313.03.411.411,0,0,1,.146.187,4.5,4.5,0,0,1,.627,2.432,8.2,8.2,0,0,0-.234,1.571c.033.382.206.745.2,1.128a3.861,3.861,0,0,1-.277,1.081A3.425,3.425,0,0,0,516,253.71a1.03,1.03,0,0,0,.185.483.438.438,0,0,0,.464.164l.135.924a.4.4,0,0,0,.062.19c.162.208.487-.059.749-.029a1.013,1.013,0,0,0,.822.63c.356.071.728.045,1.083.12.335.071.648.23.989.27a1.5,1.5,0,0,0,1.6-1.477,5.9,5.9,0,0,0-.564-1.614c-.525-1.528.311-3.286-.247-4.8-.175-.485-.489-.91-.7-1.383a8.927,8.927,0,0,0-.947-2.268,3.538,3.538,0,0,0-.774-.645,2.855,2.855,0,0,0-.866-.438,4.637,4.637,0,0,0-1.632.081c-.577.062-1.132-.088-1.7-.055a5.425,5.425,0,0,0-1.46.263,1.829,1.829,0,0,0-.746.485Z" transform="translate(-471.944 -225.064)" opacity="0.1"/><path d="M512.446,243.606c-.414.46-.547,1.166-1.07,1.5-.147.093-.317.149-.462.245a1.95,1.95,0,0,0-.65,1.343c-.06.318-.049.754.263.834.1.025.207,0,.309.02a.55.55,0,0,1,.372.618,4.016,4.016,0,0,1-.224.757.454.454,0,0,0,0,.34.39.39,0,0,0,.278.175.978.978,0,0,0,.916-.431,2.536,2.536,0,0,0,.375-.99,14.509,14.509,0,0,0,.263-1.744,3.685,3.685,0,0,1,.308-1.472,1.082,1.082,0,0,1,1.256-.584c.332.132.573.494.931.508a.681.681,0,0,1,.313.03.411.411,0,0,1,.146.187,4.5,4.5,0,0,1,.627,2.432,8.2,8.2,0,0,0-.234,1.571c.033.382.206.745.2,1.128a3.861,3.861,0,0,1-.277,1.081A3.425,3.425,0,0,0,516,252.71a1.03,1.03,0,0,0,.185.483.437.437,0,0,0,.464.164l.135.924a.4.4,0,0,0,.062.19c.162.208.487-.059.749-.029a1.013,1.013,0,0,0,.822.63c.356.071.728.045,1.083.12.335.071.648.23.989.27a1.5,1.5,0,0,0,1.6-1.477,5.9,5.9,0,0,0-.564-1.614c-.525-1.528.311-3.286-.247-4.8-.175-.485-.489-.91-.7-1.383a8.926,8.926,0,0,0-.947-2.268,3.539,3.539,0,0,0-.774-.645,2.855,2.855,0,0,0-.866-.437,4.637,4.637,0,0,0-1.632.08c-.577.062-1.132-.088-1.7-.055a5.425,5.425,0,0,0-1.46.263A1.827,1.827,0,0,0,512.446,243.606Z" transform="translate(-471.944 -224.152)" fill="#1e1637"/><path d="M527.648,319.518c.072.238.292.4.438.6a1.065,1.065,0,0,1,.175.809c-.088.454-.467.875-.342,1.32a1.225,1.225,0,0,0,.257.423,2.406,2.406,0,0,0,1.329.993.525.525,0,0,0,.263-.01.539.539,0,0,0,.227-.185,1.333,1.333,0,0,0,.256-1.061,4.683,4.683,0,0,1-.117-.511,1.989,1.989,0,0,1,.361-1.05,1.227,1.227,0,0,0,.166-1.07,1.206,1.206,0,0,0-.6-.507,5.966,5.966,0,0,0-1.663-.529c-.263-.044-.387-.081-.575.134A.7.7,0,0,0,527.648,319.518Z" transform="translate(-487.812 -293.432)" opacity="0.1"/><path d="M527.648,318.518c.072.238.292.4.438.6a1.065,1.065,0,0,1,.175.809c-.088.454-.467.875-.342,1.32a1.225,1.225,0,0,0,.257.423,2.406,2.406,0,0,0,1.329.993.525.525,0,0,0,.263-.01.539.539,0,0,0,.227-.185,1.333,1.333,0,0,0,.256-1.061,4.681,4.681,0,0,1-.117-.511,1.989,1.989,0,0,1,.361-1.05,1.227,1.227,0,0,0,.166-1.07,1.206,1.206,0,0,0-.6-.507,5.963,5.963,0,0,0-1.663-.529c-.263-.044-.387-.081-.575.134A.7.7,0,0,0,527.648,318.518Z" transform="translate(-487.812 -292.519)" fill="#1e1637"/><path d="M605.546,424.277a.789.789,0,0,1-.22-.088,1.814,1.814,0,0,1-.367-.3,4.764,4.764,0,0,1-.542-.613,1.892,1.892,0,0,1-.424-1c.088-.013.262.095.341.14a1.233,1.233,0,0,1,.309.316,2.307,2.307,0,0,0,.438.415,3.054,3.054,0,0,1,.314.234l.01.01A4.668,4.668,0,0,0,605.546,424.277Z" transform="translate(-557.496 -387.942)" opacity="0.1"/><g transform="translate(38.282 19.565)" opacity="0.1"><path d="M519.639,299.158a.974.974,0,0,1-.915.43.387.387,0,0,1-.279-.175.3.3,0,0,1-.03-.088c-.022.061-.044.123-.062.186a.46.46,0,0,0,0,.34.387.387,0,0,0,.279.175.974.974,0,0,0,.915-.43,2.549,2.549,0,0,0,.376-.99c.026-.125.051-.251.074-.377A2.392,2.392,0,0,1,519.639,299.158Z" transform="translate(-517.606 -294.314)"/><path d="M511.108,285.164a1.51,1.51,0,0,0,.088-.36.558.558,0,0,0-.373-.618c-.1-.018-.208.005-.308-.02-.285-.073-.319-.442-.278-.746-.028.116-.052.235-.074.35-.059.318-.049.754.263.834.1.025.207,0,.308.02A.534.534,0,0,1,511.108,285.164Z" transform="translate(-510.135 -280.8)"/><path d="M544.773,257.13a.814.814,0,0,1-.014.112,4.61,4.61,0,0,0,.1-.549,4.534,4.534,0,0,0-.627-2.432.411.411,0,0,0-.146-.187.683.683,0,0,0-.314-.03c-.358-.015-.6-.376-.931-.509a1.083,1.083,0,0,0-1.255.585,2.411,2.411,0,0,0-.248.837,1.919,1.919,0,0,1,.16-.4,1.084,1.084,0,0,1,1.255-.585c.333.133.573.494.931.509a.63.63,0,0,1,.314.03.412.412,0,0,1,.146.187A4.5,4.5,0,0,1,544.773,257.13Z" transform="translate(-538.609 -253.481)"/><path d="M580.045,343.237c-.34-.04-.654-.2-.988-.27-.356-.075-.727-.048-1.083-.12a1.014,1.014,0,0,1-.822-.63c-.263-.03-.587.237-.749.029a.4.4,0,0,1-.062-.19q-.068-.462-.135-.924a.437.437,0,0,1-.464-.164,1.03,1.03,0,0,1-.186-.483,3.439,3.439,0,0,1-.018-1.025,3.437,3.437,0,0,0-.069,1.462,1.032,1.032,0,0,0,.185.483.438.438,0,0,0,.464.164q.066.462.135.924a.4.4,0,0,0,.062.19c.162.208.487-.059.749-.029a1.013,1.013,0,0,0,.822.63c.356.071.727.045,1.083.12.334.071.648.23.988.27a1.5,1.5,0,0,0,1.6-1.4A1.506,1.506,0,0,1,580.045,343.237Z" transform="translate(-569.708 -331.936)"/><path d="M578.16,304.256c0-.383-.175-.746-.2-1.128a2.036,2.036,0,0,1,.021-.478,2.968,2.968,0,0,0-.108.915c.033.382.206.745.2,1.128a.506.506,0,0,1-.005.088A1.877,1.877,0,0,0,578.16,304.256Z" transform="translate(-571.938 -298.347)"/></g><path d="M577.355,794.166l-2.275-.284s.122-.445.222-1.05l-.032.525a.241.241,0,0,0,.222.256l1.47.116a.243.243,0,0,0,.263-.222v-.414l.043-.263c.006.012.011.026.017.04A4.119,4.119,0,0,0,577.355,794.166Z" transform="translate(-531.114 -726.068)" opacity="0.1"/><path d="M572.708,792.22s-.81,1.643-.325,2.09c.35.328,1.567.234,2.193.16a.4.4,0,0,0,.356-.43,6.78,6.78,0,0,0-.263-1.675l-.043.262v.414a.241.241,0,0,1-.262.221l-1.47-.116a.242.242,0,0,1-.222-.255Z" transform="translate(-528.512 -725.512)" fill="#626696"/><path d="M576.188,271.849a2.853,2.853,0,0,0,.251,1.082,2.62,2.62,0,0,1-.166,1.9,5.412,5.412,0,0,0-.344.688,1.354,1.354,0,0,0,.88,1.654,2.508,2.508,0,0,1,.552.16,1.117,1.117,0,0,1,.429,1.036,2.368,2.368,0,0,0,.122,1.159,1.377,1.377,0,0,0,.763.6,2.587,2.587,0,0,0,1.723.027,1.366,1.366,0,0,0,.514-.29,1.433,1.433,0,0,0,.373-.907,3.041,3.041,0,0,0-.371-1.774c-.25-.447-.613-.823-.891-1.251a4.2,4.2,0,0,1-.68-2.065,7.715,7.715,0,0,0-.067-1.122,2.019,2.019,0,0,0-.875-1.28c-.218-.14-.462-.235-.675-.382s-.317-.391-.557-.35A1.516,1.516,0,0,0,576.188,271.849Z" transform="translate(-531.837 -249.653)" fill="#985c7e"/><g transform="translate(44.035 21.87)" opacity="0.1"><path d="M579.684,282.645a2.624,2.624,0,0,0,.076-1.694,2.858,2.858,0,0,1-.251-1.082.326.326,0,0,1,.007-.039,1.007,1.007,0,0,0-.094.3,2.853,2.853,0,0,0,.251,1.082A2.62,2.62,0,0,1,579.684,282.645Z" transform="translate(-579.106 -279.83)"/><path d="M581,327.788a1.364,1.364,0,0,1-.514.29,2.586,2.586,0,0,1-1.723-.027,1.368,1.368,0,0,1-.763-.6,2.419,2.419,0,0,1-.122-1.159,1.132,1.132,0,0,0-.429-1.037,2.5,2.5,0,0,0-.552-.159,1.36,1.36,0,0,1-.911-1.535c-.02.046-.039.095-.056.143a1.354,1.354,0,0,0,.88,1.655,2.506,2.506,0,0,1,.552.159,1.119,1.119,0,0,1,.429,1.037,2.367,2.367,0,0,0,.122,1.159,1.377,1.377,0,0,0,.763.6,2.587,2.587,0,0,0,1.723.027,1.365,1.365,0,0,0,.514-.29,1.22,1.22,0,0,0,.322-.608A1.069,1.069,0,0,1,581,327.788Z" transform="translate(-575.872 -319.733)"/></g><path d="M587.044,762.643l-.77.285-1.914-.6.31-.728.269-.633,1.762.136.158.705Z" transform="translate(-533.224 -694.381)" fill="#ffd2c6"/><path d="M695.693,790.658l-.984.492-1.127-.263-.251-.839-.16-.525s2.068-.93,1.728-.536c-.136.158-.034.458.135.76A6.278,6.278,0,0,0,695.693,790.658Z" transform="translate(-638.871 -722.473)" fill="#ffd2c6"/><path d="M662.7,791.692l-2.188-.163a.286.286,0,0,0-.005-.046l.27-.633,1.761.137Z" transform="translate(-609.069 -724.262)" opacity="0.1"/><path d="M632.977,518.5l-.22.125-2.888,1.625.219,9.013a37.621,37.621,0,0,1-.125,3.894,3.683,3.683,0,0,1-.137.7,8.657,8.657,0,0,0,.153,3.172l-2.332-.175a5.429,5.429,0,0,1-.009-1.272,30.058,30.058,0,0,0-.5-3.716,38.255,38.255,0,0,0-.7-4.7,5.514,5.514,0,0,1-.525-2.167c0-.5-.809-3.938-.813-4s-.438-2.756-.438-3.194a32.687,32.687,0,0,1-.128-3.959c.059-.274.143-.64.223-.982.124-.531.239-1.009.239-1.009s7.635.5,8.27,1.531a1.272,1.272,0,0,1,.146.4C633.719,515.188,632.977,518.5,632.977,518.5Z" transform="translate(-576.197 -469.676)" fill="#ceddf9"/><path d="M657.194,567.22l.094,1.805-.047.125-2.888,1.625.219,9.013a37.638,37.638,0,0,1-.125,3.894c-.146-.541-.438-1.283-.422-1.356a19.52,19.52,0,0,0-1.838-3.828,5.618,5.618,0,0,1-.867-2.013,14.343,14.343,0,0,1,.386-3.325,39.669,39.669,0,0,0,.841-5.292Z" transform="translate(-600.683 -520.201)" opacity="0.1"/><path d="M695,789.744a.412.412,0,0,0-.255.17c-.1.188-.912.168-1.448.134l-.16-.525s2.068-.93,1.728-.536C694.733,789.142,694.834,789.442,695,789.744Z" transform="translate(-638.843 -722.473)" opacity="0.1"/><path d="M654.423,566.463s-.372,5.053-.678,5.447a14.344,14.344,0,0,0-.385,3.325,5.607,5.607,0,0,0,.866,2.013,19.52,19.52,0,0,1,1.838,3.828c-.022.109.634,1.706.481,1.9a3.219,3.219,0,0,0,.024,1.378c.043.066.326.43.13.751a3.6,3.6,0,0,0-.175,1.29s1.772.191,1.925-.094.919-.222.919-.222a10.681,10.681,0,0,1-.459-2.95c.2-.525-.831-5.6-1.334-6.76s.175-4.4.175-4.4l1.575-4.2.044-1.925Z" transform="translate(-602.544 -518.951)" fill="#ceddf9"/><path d="M549.94,390.63l1.779,1.238.263,2.816v2.465l-.233,1.152-1.578-.116.057-4.562Z" transform="translate(-501.816 -356.448)" fill="#4c4981"/><path d="M549.94,390.63l1.779,1.238.263,2.816v2.465l-.233,1.152-1.578-.116.057-4.562Z" transform="translate(-501.816 -356.448)" opacity="0.1"/><path d="M609.88,305.49s2.5,2.109,2.363,4.7,2.484-1.2,2.484-1.2l.7-1.867s-3.108-1.513-2.773-3.471S609.88,305.49,609.88,305.49Z" transform="translate(-562.869 -279.193)" fill="#ffd2c6"/><circle cx="2.686" cy="2.686" r="2.686" transform="translate(45.311 21.645)" opacity="0.1"/><circle cx="2.686" cy="2.686" r="2.686" transform="translate(45.311 21.47)" fill="#ffd2c6"/><path d="M619.115,363.58s-.788.839-1.042.839.218,3.352-.236,4,.236,1.885.236,1.885l.185,3.307s-.488,3.662-.421,3.821.7,0,.7,0l.276-3.688a28.5,28.5,0,0,1,.029-3.109c.116-.584-.079-2.609.136-3.084a4.339,4.339,0,0,0,.185-1.437Z" transform="translate(-569.989 -334.381)" opacity="0.1"/><path d="M618.115,362.58s-.787.839-1.042.839.218,3.352-.236,4,.236,1.885.236,1.885l.185,3.307s-.488,3.662-.421,3.821.7,0,.7,0l.276-3.688a28.485,28.485,0,0,1,.029-3.109c.116-.584-.079-2.609.136-3.084a4.336,4.336,0,0,0,.185-1.437Z" transform="translate(-569.076 -333.468)" fill="#4c4981"/><path d="M636.194,513.776c-1.078.088-4.427.336-5.061-.03a31.434,31.434,0,0,0-3.593-.887c.124-.531.239-1.009.239-1.009s7.635.5,8.27,1.531A1.267,1.267,0,0,1,636.194,513.776Z" transform="translate(-578.984 -469.676)" opacity="0.1"/><path d="M634.212,377.382s-4.638.438-5.4,0-3.311-.687-3.688-.934.186-2.484.407-2.962.481-.8.447-1a1.931,1.931,0,0,1,.175-.788c.082-.2.294-.73.294-.73s-.231-.2,0-.794.031-.139-.639-1.014-.244-3.238-.244-3.238l.139-3.321.621.669.738.795,1.138,1.215,1.546.438,1.516,1.721,1.546,3.226s.15.781.393,1.694c.113.424.247.875.395,1.293A17.857,17.857,0,0,1,634.212,377.382Z" transform="translate(-576.666 -333.487)" fill="#f86280"/><path d="M640.658,379.308a11.659,11.659,0,0,0-2.96,2.008c-.67.627-1.9.6-1.808,0s-1.692-4.868-1.692-4.868a18.418,18.418,0,0,0-.851-2.752,5,5,0,0,1,.438-3.476l.738.795,1.138,1.215,1.546.437,1.517,1.721,1.546,3.226S640.416,378.394,640.658,379.308Z" transform="translate(-584.119 -340.44)" opacity="0.1"/><path d="M635.463,337.587l-.644,1.625s-1.058,2.068-.469,3.548a18.4,18.4,0,0,1,.851,2.752s1.779,4.27,1.692,4.868,1.138.627,1.809,0,2.779-2.3,3.752-2.147a2.128,2.128,0,0,0,1.547-.289s-1.77-2.291-1.683-3.261a12.726,12.726,0,0,0-.7-3.3,26.155,26.155,0,0,0-.6-3.17c-.249-.621-1.086-1.826-1.687-1.691a13.883,13.883,0,0,1-2.439-.01Z" transform="translate(-585.035 -309.679)" fill="#4c4981"/><path d="M680.846,674.22s-.875.394-1.192.481S680.737,674.745,680.846,674.22Z" transform="translate(-626.495 -617.838)" opacity="0.1"/><path d="M674.911,676.35s-2.265.809-2.177,1.006S674.911,676.35,674.911,676.35Z" transform="translate(-620.221 -619.781)" opacity="0.1"/><path d="M686.351,681.35s-.919,1.116-.667,1.181S686.351,681.35,686.351,681.35Z" transform="translate(-632 -624.344)" opacity="0.1"/><path d="M643.579,509.6s-1.28.076.219.47a3.313,3.313,0,0,0,2.4-.131Z" transform="translate(-593.155 -467.623)" opacity="0.1"/><circle cx="0.206" cy="0.206" r="0.206" transform="translate(49.578 32.46)" fill="#fff"/><circle cx="0.206" cy="0.206" r="0.206" transform="translate(51.55 31.639)" fill="#fff"/><circle cx="0.206" cy="0.206" r="0.206" transform="translate(50.405 35.214)" fill="#fff"/><circle cx="0.206" cy="0.206" r="0.206" transform="translate(51.447 37.942)" fill="#fff"/><path d="M575.11,363.335h1.531l1.473-.875.073.333-1.442.82h-1.556Z" transform="translate(-524.784 -330.743)" fill="#fff"/><path d="M568.91,313.3l1.578.276.01-2.754-.943.711Z" transform="translate(-519.126 -283.622)" fill="#4c4981"/><path d="M589.52,258.915a1.173,1.173,0,0,1,.5-.006,1.459,1.459,0,0,1,.516.294,2.017,2.017,0,0,1,.886,1.112c.088.477-.186,1.026.027,1.475.151.323.536.545.542.9a1.4,1.4,0,0,1-.109.424,3.217,3.217,0,0,0,.41,2.257.793.793,0,0,0,.667.565l.444.122a.524.524,0,0,0,.245.028c.2-.043.277-.29.3-.5a4.635,4.635,0,0,1,.143-.837,1.093,1.093,0,0,1,.507-.655c.508-.251,1.1.105,1.663.116a.626.626,0,0,0,.367-.087.58.58,0,0,0,0-.84,2.567,2.567,0,0,0-.811-.486,2.842,2.842,0,0,1-.755-.535,1.355,1.355,0,0,1-.325-.478,2.08,2.08,0,0,1-.05-.83,5.186,5.186,0,0,0-.317-2.336,2.765,2.765,0,0,0-1.655-1.6c-.427-.131-.883-.129-1.32-.22-.343-.071-.672-.2-1.015-.268a1.607,1.607,0,0,0-1.028.073c-.443.219-.683.715-1.1.981-.24.153-.557.25-.656.517-.118.318.153.682.039,1-.038.1-.113.191-.158.291a.271.271,0,0,0,.026.308.279.279,0,0,0,.142.061.854.854,0,0,0,.844-.407A1.748,1.748,0,0,1,589.52,258.915Z" transform="translate(-542.396 -236.66)" opacity="0.1"/><path d="M658.614,342.881a.769.769,0,0,0-.637.525,4.22,4.22,0,0,0-.251,1.986c.2,1.007.369,1.97.369,1.97v1.706a7.116,7.116,0,0,0,.307,2.056c.262.416-1.028,4.005-1.028,4.005l-1.182,3.343s-1.794,4.091-.153,4.222,1.432-3.778,1.432-3.778l1.916-3.341,1.028-2.179a15.657,15.657,0,0,0,.263-3.172c-.023-1.86-.11-3.426-.11-3.426s-.459-2.9-.984-3.422A1.244,1.244,0,0,0,658.614,342.881Z" transform="translate(-604.358 -315.49)" opacity="0.1"/><path d="M656.614,341.881a.769.769,0,0,0-.637.525,4.22,4.22,0,0,0-.251,1.986c.2,1.007.369,1.97.369,1.97v1.706a7.118,7.118,0,0,0,.307,2.056c.262.416-1.028,4.005-1.028,4.005l-1.182,3.343s-1.794,4.091-.153,4.222,1.432-3.778,1.432-3.778l1.916-3.341,1.028-2.179a15.658,15.658,0,0,0,.263-3.172c-.023-1.86-.11-3.426-.11-3.426s-.459-2.9-.984-3.421A1.244,1.244,0,0,0,656.614,341.881Z" transform="translate(-602.533 -314.577)" fill="#ffd2c6"/><path d="M590.52,257.915a1.176,1.176,0,0,1,.5-.006,1.462,1.462,0,0,1,.515.294,2.018,2.018,0,0,1,.886,1.112c.088.477-.186,1.026.027,1.475.151.323.536.545.542.9a1.4,1.4,0,0,1-.109.424,3.218,3.218,0,0,0,.41,2.257.793.793,0,0,0,.667.565l.444.122a.525.525,0,0,0,.245.028c.2-.043.277-.29.3-.5a4.609,4.609,0,0,1,.143-.837,1.092,1.092,0,0,1,.507-.655c.507-.251,1.1.105,1.663.116a.627.627,0,0,0,.368-.087.58.58,0,0,0,0-.84,2.57,2.57,0,0,0-.811-.486,2.843,2.843,0,0,1-.755-.535,1.356,1.356,0,0,1-.325-.478,2.08,2.08,0,0,1-.05-.83,5.188,5.188,0,0,0-.317-2.336,2.765,2.765,0,0,0-1.655-1.6c-.427-.131-.883-.13-1.321-.22-.343-.071-.672-.2-1.015-.268a1.607,1.607,0,0,0-1.028.073c-.443.219-.683.715-1.1.981-.24.153-.557.25-.656.517-.118.318.153.682.039,1-.038.1-.113.191-.158.291a.271.271,0,0,0,.026.308.279.279,0,0,0,.142.061.854.854,0,0,0,.844-.407A1.748,1.748,0,0,1,590.52,257.915Z" transform="translate(-543.309 -235.747)" fill="#985c7e"/><g transform="translate(45.147 21.901)" opacity="0.1"><path d="M669.493,338.98c-.566-.011-1.158-.368-1.663-.116a.978.978,0,0,0-.431.455.839.839,0,0,1,.253-.2c.507-.252,1.1.105,1.663.116a.622.622,0,0,0,.367-.088.4.4,0,0,0,.166-.257A.634.634,0,0,1,669.493,338.98Z" transform="translate(-660.503 -333.646)"/><path d="M594.951,287.386a.525.525,0,0,1-.245-.027l-.445-.123a1.065,1.065,0,0,1-.427-.19,1.05,1.05,0,0,1-.24-.375,3.21,3.21,0,0,1-.41-2.257,1.324,1.324,0,0,0,.11-.424c-.005-.357-.39-.579-.543-.9-.212-.45.064-.985-.026-1.474a1.99,1.99,0,0,0-.887-1.113,1.488,1.488,0,0,0-.514-.294,1.209,1.209,0,0,0-.5.006,1.713,1.713,0,0,0-1.024.448.852.852,0,0,1-.843.407.287.287,0,0,1-.143-.06.273.273,0,0,1-.026-.309c.046-.1.1-.35-.017-.029-.037.1-.112.191-.158.291a.272.272,0,0,0,.026.309.286.286,0,0,0,.143.06.852.852,0,0,0,.843-.407,1.712,1.712,0,0,1,1.024-.448,1.206,1.206,0,0,1,.5-.006,1.487,1.487,0,0,1,.515.294,2.021,2.021,0,0,1,.886,1.113c.088.478-.186,1.025.026,1.474.152.323.537.545.542.9a1.327,1.327,0,0,1-.11.424,3.22,3.22,0,0,0,.41,2.257,1.052,1.052,0,0,0,.24.375,1.067,1.067,0,0,0,.427.19l.445.122a.526.526,0,0,0,.245.027.388.388,0,0,0,.262-.3A.262.262,0,0,1,594.951,287.386Z" transform="translate(-588.58 -280.184)"/></g><path d="M625.432,796.393a7.1,7.1,0,0,1-1.27-.939c-.111-.227-1.742,1.327-1.742,1.327a6.949,6.949,0,0,1-1.279.907c-.426.164-.708.821-.124.875s2.848.087,2.848.087l1.947-.251,1.215-.214-.23-1.792S625.534,796.641,625.432,796.393Z" transform="translate(-572.729 -728.442)" fill="#cc8294"/><path d="M662.211,801.192s-1.026-.963-1.447-.735a10.885,10.885,0,0,0-1.41,1.216s-.934.777-1.185.952-.547.766,0,.864,5.535-.634,5.535-.634-.062-1.819-.23-1.846S662.576,801.389,662.211,801.192Z" transform="translate(-606.65 -732.996)" fill="#cc8294"/><path d="M710.444,407.8l.087,4.872-2.217,2.862-.519.729s-1.582,3.238-3.61,2.246a.78.78,0,0,1-.519-.641h0a.7.7,0,0,1,0-.113c.1-1.217,3.042-3.006,3.042-3.006s2.129-3.7,2.275-3.769a14.378,14.378,0,0,0,.817-2.035l.292-1.413a3.859,3.859,0,0,1,.514-.108Z" transform="translate(-648.446 -374.394)" opacity="0.1"/><path d="M709.109,405l-.291,1.413a14.383,14.383,0,0,1-.817,2.035c-.146.065-2.275,3.769-2.275,3.769s-4.55,2.771-2.525,3.763,3.611-2.246,3.611-2.246l.519-.729,3.529-4.559s1.692-1.715.963-2.882S709.109,405,709.109,405Z" transform="translate(-647.55 -372.035)" fill="#febfba"/><path d="M745.735,320.863l.788.584a1.092,1.092,0,0,1,.5,1.138c-.175.732.262.963.262.963a2.423,2.423,0,0,0,.263.833c.234.451.438.963,0,1.187a17.645,17.645,0,0,1-3.208.226s.2-.185-.438-.968a6.356,6.356,0,0,1-1.43-2.243c-.059-.552-.845-2.04-.758-2.45s-.028-1.909-.007-2.3.415-1.453.765-1.358,1.6-.622,2.421.963A8.781,8.781,0,0,1,745.735,320.863Z" transform="translate(-683.154 -291.327)" opacity="0.1"/><path d="M746.735,319.863l.787.584a1.092,1.092,0,0,1,.5,1.138c-.175.732.263.963.263.963a2.419,2.419,0,0,0,.262.833c.234.451.438.963,0,1.187a17.645,17.645,0,0,1-3.208.226s.2-.186-.437-.968a6.353,6.353,0,0,1-1.43-2.243c-.059-.552-.845-2.04-.758-2.45s-.028-1.909-.007-2.3.415-1.453.765-1.358,1.6-.622,2.421.963A8.782,8.782,0,0,1,746.735,319.863Z" transform="translate(-684.067 -290.415)" fill="#ff718d"/><path d="M454.18,250.5a4.19,4.19,0,0,0-.607,1.246,8.706,8.706,0,0,0-.2,3.523l-2.581-1.181s-2.1-1.838-.919-2.691a2.491,2.491,0,0,0,.891-1.092,1.775,1.775,0,0,0,.137-.833S455.493,248.711,454.18,250.5Z" transform="translate(-416.533 -230.114)" fill="#d38884"/><path d="M467.228,250.5a4.193,4.193,0,0,0-.607,1.246h-.071a3.325,3.325,0,0,1-2.741-1.442,1.775,1.775,0,0,0,.137-.833S468.541,248.706,467.228,250.5Z" transform="translate(-429.581 -230.109)" opacity="0.1"/><path d="M463.779,203.54a3.325,3.325,0,1,1-1.935-3.016A3.325,3.325,0,0,1,463.779,203.54Z" transform="translate(-423.485 -185.315)" fill="#d38884"/><path d="M463.8,203.485a3.318,3.318,0,0,1-.2,1.143h-.005a2.051,2.051,0,0,1-.59-.493l-.809-.869a.893.893,0,0,0-.594-.367c-.12,0-.247.045-.354-.008s-.152-.193-.2-.307a1.009,1.009,0,0,0-.915-.564.483.483,0,0,0-.465.2,2.5,2.5,0,0,1-.417.613.985.985,0,0,1-.788.287.272.272,0,0,0-.213.018.205.205,0,0,0-.06.113c-.057.223-.04.459-.08.685a.657.657,0,0,1-.378.538.53.53,0,0,1-.453-.088,3.325,3.325,0,1,1,6.526-.9Z" transform="translate(-423.503 -185.26)" opacity="0.1"/><path d="M451.739,187.445c.051.115.088.252.2.308s.234.007.354.008a.892.892,0,0,1,.594.367l.809.869a2.042,2.042,0,0,0,.591.492.623.623,0,0,0,.922-.732,2.855,2.855,0,0,0-.284-.69,1.407,1.407,0,0,1-.185-.714,1.875,1.875,0,0,1,.231-.641,1.923,1.923,0,0,0,.168-1.532,1.994,1.994,0,0,0-.743-.809,1.21,1.21,0,0,0-.686-.276c-.3.006-.554.208-.847.25a1.273,1.273,0,0,1-.559-.07c-.408-.13-.788-.35-1.194-.473a2.955,2.955,0,0,0-1.215-.116.766.766,0,0,0-.472.179,1.361,1.361,0,0,0-.232.474,1.383,1.383,0,0,1-.5.618c-.244.166-.535.249-.787.4a.852.852,0,0,0-.48.694,3.6,3.6,0,0,0,.065.355,1.139,1.139,0,0,1-.21.759c-.16.247-.388.509-.316.795.051.2.235.334.373.491.165.189.267.427.427.621a.629.629,0,0,0,.658.263.654.654,0,0,0,.378-.537c.039-.227.023-.462.08-.685a.216.216,0,0,1,.059-.114c.057-.046.14-.028.213-.018a.985.985,0,0,0,.787-.287,2.59,2.59,0,0,0,.418-.613.481.481,0,0,1,.464-.2A1.01,1.01,0,0,1,451.739,187.445Z" transform="translate(-414.201 -170.211)" fill="#1e1637"/><g transform="translate(32.752 15.347)" opacity="0.1"><path d="M452.4,209.536c-.011-.08-.034-.158-.049-.236a.551.551,0,0,0-.016.143,2.615,2.615,0,0,0,.061.336A.907.907,0,0,0,452.4,209.536Z" transform="translate(-451.865 -208.948)"/><path d="M536.161,206.171a1.9,1.9,0,0,0-.231.641.83.83,0,0,0,.008.2,2.175,2.175,0,0,1,.223-.581,2.342,2.342,0,0,0,.263-1.153A2.616,2.616,0,0,1,536.161,206.171Z" transform="translate(-528.139 -205.28)"/><path d="M455,219.961a.7.7,0,0,1-.731.046,2.037,2.037,0,0,1-.59-.492l-.809-.869a.893.893,0,0,0-.594-.367c-.12,0-.247.045-.354-.008s-.152-.193-.2-.308a1.01,1.01,0,0,0-.915-.564.485.485,0,0,0-.465.2,2.48,2.48,0,0,1-.417.613.985.985,0,0,1-.788.287c-.073-.01-.156-.029-.213.017a.211.211,0,0,0-.06.114c-.057.223-.04.459-.08.685a.551.551,0,0,1-1.036.275c-.16-.19-.262-.432-.428-.621a1.422,1.422,0,0,1-.367-.474.468.468,0,0,0-.005.246c.05.2.235.334.372.491.166.189.268.427.428.621a.629.629,0,0,0,.658.262.654.654,0,0,0,.378-.537c.039-.227.023-.462.08-.685a.211.211,0,0,1,.06-.114c.057-.046.14-.028.213-.017a.985.985,0,0,0,.788-.287,2.564,2.564,0,0,0,.417-.613.483.483,0,0,1,.465-.2,1.01,1.01,0,0,1,.915.564c.051.116.088.252.2.308s.235.007.354.008a.893.893,0,0,1,.594.367l.809.869a2.049,2.049,0,0,0,.59.492.7.7,0,0,0,.731-.046.713.713,0,0,0,.2-.642A.612.612,0,0,1,455,219.961Z" transform="translate(-446.931 -216.339)"/></g><path d="M430.232,789.365l-.1,2.173a18.706,18.706,0,0,1,3.7.234,20.193,20.193,0,0,0,3.821.263s1.516-.569.671-1.153a5.407,5.407,0,0,0-2.363-.641,13.6,13.6,0,0,0-1.488-1.794c-.233-.073-.656-.481-.919.073a3.922,3.922,0,0,1-.989,1.109Z" transform="translate(-398.849 -721.873)" fill="#4c4981"/><path d="M362.954,464.271c-.379,1.6-2.071,8.6-2.071,8.6a1.944,1.944,0,0,0-.583,1.2,3.134,3.134,0,0,1-.38,1.313s.2,6.3-.291,7.934c-.478,1.575-.036,1.5,0,1.488l-1.425,1.166-2.625.029s.116-2.013.2-2.188.7-1.108.321-1.72.116-6.768.525-7.555a6.2,6.2,0,0,0,0-2.8,7.373,7.373,0,0,0-.438,1.517,9.8,9.8,0,0,1-1.08,2.07c0,1.994-2.45,6.709-2.45,6.709s-.875,2.975-.641,3.529-.234,1.138-.554.992a19.031,19.031,0,0,0-2.888,0s-.059-1.75,0-1.9a6.4,6.4,0,0,1,.67-.759c-.2-1.6,1.225-7.963,2.071-8.867a5.614,5.614,0,0,0,1.017-2.771s.788.117.512-.263.626-2.333.626-2.333a13.459,13.459,0,0,1,0-3.471,3.525,3.525,0,0,0,.233-1.516,9.6,9.6,0,0,1,.19-2.042,7.26,7.26,0,0,0,0-1.779c.011-.382.005-1.216,0-1.575v-.175l.219-1.371.991-2.567,3.618.846,2.713.525a11.2,11.2,0,0,1,1.983,2.771,2.4,2.4,0,0,1,.116.451A13.58,13.58,0,0,1,362.954,464.271Z" transform="translate(-324.41 -417.956)" fill="#c4e0ff"/><path d="M343.574,805.057s-1.779-.161-1.984.641-.452,2.29-.452,2.29-.277.831,1.516.9,1.765-.234,1.765-.234a11.885,11.885,0,0,1,.058-1.685,7.18,7.18,0,0,0,.087-1.232S344.263,804.751,343.574,805.057Z" transform="translate(-317.631 -737.172)" fill="#4c4981"/><path d="M419.287,459.762c-.024.692-.057,1.271-.057,1.271s-1.257.022-1.23-3.347c0,0-.279,2.56-.585,2.625s-.437-.394-1.488-.328-2.385-.459-2.538-.984a5.582,5.582,0,0,0-2.3-1.9c-.284.066-.35,1.138-.35,1.138a4.849,4.849,0,0,0-1.092,1.05v-.175l.219-1.371.991-2.567,3.618.846,2.713.525a11.2,11.2,0,0,1,1.983,2.771A2.4,2.4,0,0,1,419.287,459.762Z" transform="translate(-380.161 -417.956)" opacity="0.1"/><path d="M408.277,286.855s-1.257.022-1.23-3.347c0,0-.279,2.56-.585,2.625s-.438-.394-1.488-.328-2.385-.459-2.538-.984a5.583,5.583,0,0,0-2.3-1.9c-.284.066-.35,1.138-.35,1.138a4.945,4.945,0,0,0-1.094,1.05c-.219.416-.153-.766,0-1.531a12.484,12.484,0,0,0,0-3,10.716,10.716,0,0,1-.141-3.61,14.134,14.134,0,0,0-.115-3.85s.028-1.728,0-2.8-1.231-1.488-.619-2.625a11.571,11.571,0,0,1,2.21-2.494,2.6,2.6,0,0,0,1.6-.284,1.006,1.006,0,0,1,.158-.11,3.8,3.8,0,0,1,1.488-.322l1.617,1.653a16.638,16.638,0,0,1,.853,2.1.237.237,0,0,1,0,.053l.277-1.625s1.164.438,1.164,1.073v1.028a10.312,10.312,0,0,0,.525,1.641c.263.525-.131,5.666-.131,5.666a11.745,11.745,0,0,1,.022,2.253,6.8,6.8,0,0,0,.2,2.035s.3,2.494.479,2.975A23.417,23.417,0,0,1,408.277,286.855Z" transform="translate(-369.208 -243.953)" fill="#ffd765"/><path d="M448.3,558a11.247,11.247,0,0,1-1.138,3.4,35.3,35.3,0,0,0-1.867,3.4" transform="translate(-412.691 -511.788)" opacity="0.1"/><rect width="5.013" height="2.042" rx="1.021" transform="translate(31.749 17.54)" fill="#3a3768"/><circle cx="0.212" cy="0.212" r="0.212" transform="translate(35.572 18.349)" fill="#e6e8ec"/><path d="M392.427,274.4s-1.721.525-2.319.131a11.3,11.3,0,0,1-1.728-2.1s.326-2.4.613-2.49.14,2.275.14,2.275.409.912.562.912,1.2-.131,1.335-.394a14.9,14.9,0,0,0,.35-1.881l.175-.788.875.547.678,1.681Z" transform="translate(-360.752 -248.938)" fill="#ffd765"/><path d="M394.828,235.751a1.247,1.247,0,0,1-1.313-1.313,11.981,11.981,0,0,1,.2-2.121c.153-.263,1.6-2.188,1.6-2.188s4.572-2.428,4.091-.525a2.931,2.931,0,0,1-2.363,2.144l-.853-.438-.022,2.757S395.979,235.668,394.828,235.751Z" transform="translate(-365.437 -211.465)" fill="#d38884"/><path d="M412.789,622.17s-.263.583.7.758S412.789,622.17,412.789,622.17Z" transform="translate(-382.995 -570.342)" opacity="0.1"/><path d="M400.13,649.5s.088,1.138.584,1.371S400.13,649.5,400.13,649.5Z" transform="translate(-371.474 -595.281)" opacity="0.1"/><path d="M444.9,680.83a.826.826,0,0,0,.276.9C445.644,682.056,444.9,680.83,444.9,680.83Z" transform="translate(-412.292 -623.869)" opacity="0.1"/><path d="M445.282,672.5a.849.849,0,0,0,.744.875" transform="translate(-412.673 -616.268)" opacity="0.1"/><path d="M441.46,710.5s.538.7.707.641S441.46,710.5,441.46,710.5Z" transform="translate(-409.187 -650.943)" opacity="0.1"/><path d="M475.419,811.425s-1.779-.087-1.341.35,1.341-.175,1.341-.175Z" transform="translate(-438.888 -743.03)" opacity="0.1"/><path d="M350.8,825.477s2.245-.4,2.1,0S350.8,825.477,350.8,825.477Z" transform="translate(-326.461 -755.698)" opacity="0.1"/><path d="M411.13,330.041a3.89,3.89,0,0,0,2.039-.2c.586-.408.761.263.35.583S411.13,330.041,411.13,330.041Z" transform="translate(-381.511 -303.474)" opacity="0.1"/><path d="M413.46,352.051c.467.059.364.613,1.2.116S413.46,352.051,413.46,352.051Z" transform="translate(-383.637 -323.734)" opacity="0.1"/><path d="M415.38,371.811s1.976.321,2.363-.641" transform="translate(-385.389 -341.307)" opacity="0.1"/><path d="M448.885,269.242v.07l-3.955-3.5a3.8,3.8,0,0,1,1.488-.322l1.617,1.653A16.66,16.66,0,0,1,448.885,269.242Z" transform="translate(-412.354 -244.874)" opacity="0.1"/><path d="M448.885,268.242v.07l-3.955-3.5a3.8,3.8,0,0,1,1.488-.322l1.617,1.653A16.66,16.66,0,0,1,448.885,268.242Z" transform="translate(-412.354 -243.962)" fill="#ffd765"/><path d="M408.46,299.133s2.334-.2,2.363-2.113C410.823,297.018,411.22,299.162,408.46,299.133Z" transform="translate(-379.075 -273.645)" opacity="0.1"/><circle cx="0.186" cy="0.186" r="0.186" transform="translate(36.389 24.164)" fill="#fff"/></g></g><ellipse cx="13.105" cy="16.003" rx="13.105" ry="16.003" transform="translate(816.985 160.497)" fill="#2f2e41"/><path d="M5,131h8.189a.632.632,0,0,1,.632.632v3.524a.632.632,0,0,1-.632.632H5Z" transform="translate(779.727 15.888)" fill="#6c63ff"/><path d="M.667,131H8.945a.632.632,0,0,1,.632.632v3.524a.632.632,0,0,1-.632.632H.667A.667.667,0,0,1,0,135.121v-3.455A.667.667,0,0,1,.667,131Z" transform="translate(783.467 15.888)" fill="#2f2e41"/><circle cx="0.504" cy="0.504" r="0.504" transform="translate(790.523 148.652)" fill="#6c63ff"/><path d="M227.167,232.986s-6.3-12.1-6.8-6.3,3.276,10.585,3.276,10.585Z" transform="translate(563.23 -80.427)" fill="#a0616a"/><path d="M344.981,326.875s2.016,10.333-4.536,6.048,2.52,7.561,2.52,7.561,7.056,1.764,9.325-.5-3.4-2.646-.252-11.593C355.424,318.769,344.981,326.875,344.981,326.875Z" transform="translate(475.154 -154.155)" fill="#a0616a"/><path d="M344.981,326.875s2.016,10.333-4.536,6.048,2.52,7.561,2.52,7.561,7.056,1.764,9.325-.5-3.4-2.646-.252-11.593C355.424,318.769,344.981,326.875,344.981,326.875Z" transform="translate(475.154 -154.155)" opacity="0.1"/><circle cx="6.804" cy="6.804" r="6.804" transform="translate(817.615 163.395)" fill="#a0616a"/><path d="M247.64,275.744s-10.081-9.073-11.341-12.853-6.048-10.837-7.056-9.829-6.552,3.276-5.292,5.04,4.284,4.032,6.048,10.333S244.112,282.8,244.112,282.8Z" transform="translate(560.651 -101.26)" fill="#3f3d56"/><ellipse cx="3.024" cy="11.089" rx="3.024" ry="11.089" transform="translate(827.066 166.042)" fill="#2f2e41"/><ellipse cx="9.073" cy="4.41" rx="9.073" ry="4.41" transform="translate(818.749 160.245)" fill="#2f2e41"/><path d="M369.829,299.824c-5.011,0-9.073-1.975-9.073-4.41a3.052,3.052,0,0,1,1.38-2.338c-1.332.768-2.136,1.759-2.136,2.842,0,2.436,4.062,4.41,9.073,4.41C372.317,300.328,372.612,299.824,369.829,299.824Z" transform="translate(458.749 -131.262)" opacity="0.1"/><rect width="121.725" height="96.019" transform="translate(853.149 114)" fill="none" stroke="#3f3d56" stroke-miterlimit="10" stroke-width="1"/><line x2="122" transform="translate(853 120)" fill="none" stroke="#3f3d56" stroke-miterlimit="10" stroke-width="1"/><circle cx="1.26" cy="1.26" r="1.26" transform="translate(854.41 115.764)" fill="#f86b75"/><circle cx="1.26" cy="1.26" r="1.26" transform="translate(857.938 115.764)" fill="#fad375"/><circle cx="1.26" cy="1.26" r="1.26" transform="translate(861.466 115.764)" fill="#8bcc55"/><circle cx="1.26" cy="1.26" r="1.26" transform="translate(854.914 115.008)" fill="none" stroke="#3f3d56" stroke-miterlimit="10" stroke-width="1"/><circle cx="1.26" cy="1.26" r="1.26" transform="translate(858.442 115.008)" fill="none" stroke="#3f3d56" stroke-miterlimit="10" stroke-width="1"/><circle cx="1.26" cy="1.26" r="1.26" transform="translate(861.97 115.008)" fill="none" stroke="#3f3d56" stroke-miterlimit="10" stroke-width="1"/></g></svg>