<svg xmlns="http://www.w3.org/2000/svg" width="251.734" height="259.725" viewBox="0 0 251.734 259.725"><g transform="translate(-1024 -437)"><g transform="translate(1024.07 437.015)"><path d="M201.35,158.54v71.42a1.26,1.26,0,0,1-1.33.2c-.23-.11-.45-.21-.68-.3a10.362,10.362,0,0,0-2.36-.12H1.63a1.28,1.28,0,0,1-.74-.19c-.43-.08-.75-.27-.76-.75s0-1.18,0-1.77V55.55C0,53.83.1,53,2.36,53.07c7.69.22,15.39,0,23.09.12,1.5,0,1.92-.48,1.87-1.93-.09-2.95,0-5.92,0-8.88,0-.63-.2-1.33.36-1.86a2.14,2.14,0,0,1,.62,1.79q.09,7.55,0,15.1a4,4,0,0,1-.35,1.71c-.89,1.39-2.19,2.42-3.16,3.76-7.37,10.21.87,22.38,10.28,23.05A14.82,14.82,0,0,0,51.14,71.56a14.23,14.23,0,0,0-4.43-10.64,6,6,0,0,1-1.45-1.6c-.46-2.08-.88-4.16.22-6.18H98.59c1,0,2.22-.53,2.91.78a1.25,1.25,0,0,1,.27,1.27c-1,3-1.3,6.21-2.28,9.24-2,5.23-2.75,10.73-3.34,16.26A54.71,54.71,0,0,0,96,92.64a2.18,2.18,0,0,1-.18,1.15c-.47.77-1.26.84-2,1-2.46.43-3.45,1.47-3.52,3.94-.09,3.54-.08,7.09,0,10.63.06,2.57,1.51,3.88,4.13,4,1.82.1,3.68-.28,5.47.33,1.61,1.42,1.9,3.51,2.65,5.35.36.88-.14,1.51-1.11,1.67-.64.11-1.3.06-2,.12H94.32c-2.75.1-4,1.28-4.06,4-.09,3.54-.09,7.09,0,10.63a3.67,3.67,0,0,0,3.83,3.89c3.67.12,7.35.1,11,0,2.31-.06,3.53-1.4,3.7-3.76.07-1-.27-2.14.78-2.89a1.56,1.56,0,0,1,1.64.83,81.709,81.709,0,0,0,10.59,11.56,1,1,0,0,1,.37.87c-.52,1.07-1.54.83-2.41.88-3.16.21-4.54,1.49-4.65,4.64s-.12,6.55,0,9.83c.1,2.71,1.52,4.06,4.24,4.11,3.48.06,6.95.05,10.43,0,2.64,0,4-1.46,4.24-4.14.17-2.15-.26-4.33.31-6.46a.63.63,0,0,1,.8-.36c1.86.86,3.91,1.38,5.31,3a13.17,13.17,0,0,1,.29,3.7c.17,2.83,1.5,4.19,4.32,4.24s5.63-.1,8.43.05c2.5.13,4.67-.27,6.27-2.37,2.24-.41,4.39.19,6.56.53a2.689,2.689,0,0,1,.6.27,5.61,5.61,0,0,0,4.3,1.57c3.09-.08,6.19-.1,9.27,0a4.6,4.6,0,0,0,4.61-2.38,2.12,2.12,0,0,1,.77-.59,93.318,93.318,0,0,0,13.8-4C200.22,158.36,200.79,158.06,201.35,158.54Z" fill="#f1f1f1"/><path d="M99.09,64.2q1.2-5.13,2.41-10.26a80.661,80.661,0,0,1,10.55-21.25c14.09-19.41,33-30.59,57-32.45a76.44,76.44,0,0,1,81.11,60.94,48.389,48.389,0,0,1,1.33,11.32,35.829,35.829,0,0,0,0,8.28,68.74,68.74,0,0,1-3.76,20.38l-1,3.18c-2.27,8.15-6.9,15-12.15,21.44a76.92,76.92,0,0,1-30.84,22.63c-1,.4-2,.69-3,1.09a71.29,71.29,0,0,1-15,3.68,70.09,70.09,0,0,1-19.62.34c-1.85-.38-3.75-.41-5.59-.88a82.789,82.789,0,0,1-18-5.8,110.68,110.68,0,0,1-11.5-6.56,93.41,93.41,0,0,1-11.73-10c-1.66-1.75-3.2-3.6-4.73-5.46A76,76,0,0,1,99.44,93.13c-1-4.69-2-9.36-1.53-14.2a9,9,0,0,0,0-4.63C97.36,70.82,98.37,67.53,99.09,64.2Z" fill="#ed1d25"/><path d="M45.48,53.14c.1,2.13-.38,4.28.33,6.37A35.19,35.19,0,0,1,46,64.94c-.08,2,0,4.07,0,6.1a9.44,9.44,0,1,1-18.88-.18c0-2,0-3.94,0-5.91a35.781,35.781,0,0,1,.18-5.48,3.53,3.53,0,0,0,.4-1.89q0-8.535,0-17.06a8.75,8.75,0,0,1,10.06-8.3,8.92,8.92,0,0,1,7.75,9.12C45.37,45.27,45.47,49.21,45.48,53.14Z" fill="#d0d2d4"/><path d="M200.94,149a98.081,98.081,0,0,0,15.59-7.85,76.74,76.74,0,0,0,29.52-35.64c.17-.42.41-.81.62-1.21a25.8,25.8,0,0,1-1.74,7.19,77,77,0,0,1-25.16,36.06,62.83,62.83,0,0,1-18,10.54,2.65,2.65,0,0,1-.94-2.45,56.616,56.616,0,0,1,.11-6.64Z" fill="#ddd"/><path d="M200.15,229.9l1.19.06a.5.5,0,0,1,0,.38,2.11,2.11,0,0,1-1.05.51,35,35,0,0,1-3.55.07H4.76c-3.74,0-3.74,0-3.74,3.77v20.72A7.25,7.25,0,0,0,1.21,258a1.49,1.49,0,0,0,1.36.65H197.24c3.54,0,3.54,0,3.54-3.55V233.21c0-1-.18-2,.57-2.83.52.48.31,1.11.31,1.68v25.65c0,1.57-.41,2-2,2q-98.86-.06-197.73,0c-1.54,0-2-.39-2-2,.08-8.62,0-17.24.05-25.85,0-.73-.35-1.66.8-1.94a6.17,6.17,0,0,1,2.52-.32H197.84a3.92,3.92,0,0,1,2.31.3Z" fill="#ed8186"/><path d="M200.94,149c.47.42.44.92.45,1.54,0,2.52-.4,5.06.34,7.55l-.38.41c-4.57,1.56-9.08,3.32-13.87,4.15-.51.09-1,.11-1.55.16a2.3,2.3,0,0,1-.56-1.81c-.06-2.34,0-4.69-.05-7,0-.53,0-1.05.62-1.32a110.382,110.382,0,0,0,15-3.68Z" fill="#d1d1d1"/><path d="M200.15,229.9c-.72,0-1.45.06-2.17.06H3c-.72,0-1.44-.05-2.16-.07v-.31h.4a4.28,4.28,0,0,1,2.13-.18H198a4.28,4.28,0,0,1,2.13.18Z" fill="#f0fefc"/><path d="M251.45,80.78a18.66,18.66,0,0,1,0-8.28,40.2,40.2,0,0,1,0,8.28Z" fill="#ed0d17"/><path d="M134.64,208.27v5.12c0,3.22-1.92,5.09-5.17,5.11s-6.43,0-9.65,0a4.88,4.88,0,0,1-5.26-5.08c-.1-3.41-.08-6.83,0-10.24.07-3,1.8-4.72,4.84-4.77q5.4-.09,10.82,0a4.4,4.4,0,0,1,4.43,4.55C134.67,204.73,134.64,206.5,134.64,208.27Z" fill="#d0d2d4"/><path d="M26,198.4h5.12c3,0,4.78,1.7,4.86,4.73q.12,5.12,0,10.23c-.07,3.17-2,5.07-5.23,5.13s-6.69.06-10,0a4.63,4.63,0,0,1-4.82-4.85c-.06-3.48-.07-7,0-10.43.06-3.13,1.85-4.79,5-4.81C22.56,198.38,24.26,198.39,26,198.4Z" fill="#d0d2d4"/><path d="M175.87,192.09h-5.92a4,4,0,0,1-4.11-4.12q-.08-5.72,0-11.44a4.24,4.24,0,0,1,4.11-4.16c3.82,0,7.63-.05,11.45,0a4.38,4.38,0,0,1,4.52,4.46c.06,3.48.07,7,0,10.45-.07,3.19-1.79,4.82-4.93,4.82Z" fill="#d0d2d4"/><path d="M41.09,208.29v-5.51a4.15,4.15,0,0,1,4.43-4.38H56.34a4.27,4.27,0,0,1,4.47,4.22c.09,3.87.08,7.74,0,11.61-.06,2.59-1.82,4.19-4.68,4.26-3.55.08-7.09.07-10.63,0A4.3,4.3,0,0,1,41.1,214C41.08,212.09,41.09,210.19,41.09,208.29Z" fill="#d0d2d4"/><path d="M150.22,192.09H144.7a4.28,4.28,0,0,1-4.5-4.22c-.1-3.74-.09-7.49,0-11.24a4.26,4.26,0,0,1,4.43-4.28h10.84c3.05,0,4.78,1.73,4.81,4.74v10.25c0,3.11-1.68,4.74-4.74,4.75Z" fill="#d0d2d4"/><path d="M25.85,192.09H20.13a4,4,0,0,1-4.26-4.16V176.88a4.3,4.3,0,0,1,4.61-4.53H31.33A4.32,4.32,0,0,1,36,176.88c.06,3.48.08,7,0,10.44-.06,2.42-1.4,5.11-5,4.8C29.28,192,27.56,192.09,25.85,192.09Z" fill="#d0d2d4"/><path d="M85.31,208.58v4.93c0,3.2-1.61,4.91-4.79,5q-5.33.12-10.65,0a4.31,4.31,0,0,1-4.31-4.62V202.84a4.15,4.15,0,0,1,4.23-4.4q5.63-.13,11.24,0a4.18,4.18,0,0,1,4.27,4.44C85.35,204.77,85.31,206.67,85.31,208.58Z" fill="#d0d2d4"/><path d="M109.4,208.58v4.93c0,3.1-1.52,4.86-4.56,5-3.68.13-7.36.11-11,0a4.27,4.27,0,0,1-4.16-4.56V203.31c0-3.15,1.73-4.86,4.87-4.88h10c3.3,0,4.82,1.66,4.83,4.86Z" fill="#d0d2d4"/><path d="M25.88,140H20.36a4.27,4.27,0,0,1-4.48-4.23c-.09-3.74-.09-7.49,0-11.23a4.29,4.29,0,0,1,4.62-4.29H31.14c2.92,0,4.69,1.56,4.79,4.53.13,3.54.14,7.09,0,10.63-.1,2.43-1.51,4.91-4.93,4.61C29.3,139.87,27.59,140,25.88,140Z" fill="#d0d2d4"/><path d="M124.55,192.09h-5.12c-3.07,0-4.72-1.36-4.86-4.4-.16-3.61-.14-7.23,0-10.83.1-2.91,1.94-4.5,4.87-4.51h10.44a4.45,4.45,0,0,1,4.76,4.82v10.24c0,3.17-1.6,4.67-4.76,4.68Z" fill="#d0d2d4"/><path d="M25.94,166H20.42a4.3,4.3,0,0,1-4.55-4.36q-.1-5.52,0-11a4.26,4.26,0,0,1,4.39-4.34q5.61-.09,11.22,0c2.67,0,4.4,1.85,4.47,4.72.08,3.54.07,7.09,0,10.63a4.2,4.2,0,0,1-4.5,4.38C29.61,166.05,27.77,166,25.94,166Z" fill="#d0d2d4"/><path d="M60.84,156.38v5.72a3.71,3.71,0,0,1-4,3.93H45.4c-2.82,0-4.35-1.58-4.35-4.39V150.8c0-3.13,1.44-4.5,4.6-4.51H56.29c2.81,0,4.48,1.73,4.5,4.57C60.86,152.7,60.85,154.54,60.84,156.38Z" fill="#d0d2d4"/><path d="M65.56,130.1v-5.71c0-2.61,1.34-4.08,3.94-4.13,3.93-.08,7.87-.07,11.81,0a3.88,3.88,0,0,1,4,4c.06,3.94.07,7.88,0,11.81A4.08,4.08,0,0,1,81.35,140c-3.93.06-7.87.07-11.81,0a3.87,3.87,0,0,1-4-4.16C65.54,133.91,65.56,132,65.56,130.1Z" fill="#d0d2d4"/><path d="M99.49,192.09H93.78c-2.46,0-4-1.39-4.1-3.79-.1-4.07-.09-8.14,0-12.21a4.1,4.1,0,0,1,3.91-3.73c3.94-.05,7.88-.06,11.81,0a4.12,4.12,0,0,1,4,4.22c0,3.67,0,7.35,0,11,0,3.2-1.36,4.49-4.59,4.49Z" fill="#d0d2d4"/><path d="M65.56,156.14v-5.7c0-2.48,1.36-4.06,3.79-4.12,4.06-.1,8.14-.08,12.2,0a4.1,4.1,0,0,1,3.73,3.91q.09,5.91,0,11.81a3.88,3.88,0,0,1-4,4c-4,.06-8,0-12,0a3.82,3.82,0,0,1-3.72-3.77C65.53,160.21,65.57,158.18,65.56,156.14Z" fill="#d0d2d4"/><path d="M51,120.24h5.52a4,4,0,0,1,4.31,4.26v11.42a4.11,4.11,0,0,1-4,4.05c-3.94.06-7.88.07-11.81,0a4,4,0,0,1-4-4.2q0-5.7,0-11.42a3.91,3.91,0,0,1,4.2-4.11Z" fill="#d0d2d4"/><path d="M75.41,192.09H69.5a3.72,3.72,0,0,1-3.93-4q0-5.805,0-11.61a4,4,0,0,1,4-4.17c3.81-.06,7.61-.07,11.42,0,2.69,0,4.3,1.82,4.32,4.55v10.62c0,3.06-1.53,4.55-4.59,4.55Z" fill="#d0d2d4"/><path d="M99.71,166H93.8a4,4,0,0,1-4.14-4.09V150.47a4.11,4.11,0,0,1,4.07-4.19c3.88-.05,7.76-.06,11.64,0a3.89,3.89,0,0,1,4,4q.09,6.11,0,12.23a3.51,3.51,0,0,1-3.54,3.5C103.79,166.09,101.75,166,99.71,166Z" fill="#d0d2d4"/><path d="M50.64,192.09H45.13a3.72,3.72,0,0,1-4-3.88q-.12-6,0-12a4,4,0,0,1,4.17-3.84h11a4.26,4.26,0,0,1,4.49,4.21c.1,3.87.09,7.75,0,11.62a3.9,3.9,0,0,1-4.07,3.9C54.72,192.13,52.68,192.09,50.64,192.09Z" fill="#d0d2d4"/><path d="M110.17,132.87c-1.29.33-.73,1.39-.75,2.13-.07,3.53-1.47,5-5,5H94.23a4.193,4.193,0,0,1-4.58-4.48V124.69c0-2.88,1.61-4.41,4.55-4.44h5.32a8.67,8.67,0,0,0,3.21.29c1.07.68,1.3,1.9,1.88,2.9,1.54,2.63,3.16,5.21,4.74,7.82C109.61,131.8,110.4,132.08,110.17,132.87Z" fill="#d0d2d4"/><path d="M134.67,154.61v6.7c0,3-1.81,4.72-4.8,4.73H119.03a4.15,4.15,0,0,1-4.44-4.23c-.09-3.62-.1-7.24,0-10.85.08-3,1.89-4.57,4.94-4.7.83,0,2,.73,2.5-.74.73-.2.81.58,1.24.82A108.679,108.679,0,0,0,134,153.76a2.18,2.18,0,0,1,.67.85Z" fill="#d0d2d4"/><path d="M134.67,154.61a.93.93,0,0,1-.82-.41,9.39,9.39,0,0,0,.18-3.5,3.89,3.89,0,0,0-4.15-3.84c-2.36-.07-4.71.08-7.06-.17l-.83-1.18c-2.69-1.48-4.5-3.94-6.56-6.09a42.17,42.17,0,0,1-5.26-6.55L109,131.69c-.21-2.33-.11-4.66-.16-7-.06-2.58-1.21-3.75-3.84-3.89a14,14,0,0,1-2.33-.17c-1.15.67-2.12-.07-3.14-.39h1.17c1.61.15,1.76-.48,1.1-1.8s-1.28-3-1.91-4.47l.25-.26a22.39,22.39,0,0,1,7.35-.22,130.833,130.833,0,0,0,7.4,11.12c.46,2.74.14,5.51.23,8.26a19.309,19.309,0,0,0,.14,2.95,3.86,3.86,0,0,0,4,3.54c2.89.08,5.78,0,8.68,0a8.54,8.54,0,0,1,3.28.54c3.68,2.29,7.41,4.5,11.29,6.44a.67.67,0,0,1,0,.9c-2,1.83-1.84,4.22-1.81,6.6a7.07,7.07,0,0,1-.32,3.29,2.728,2.728,0,0,1-.25.23Z" fill="#d1d1d1"/><path d="M45.45,65c.17-1.84-.39-3.73.36-5.53A15.06,15.06,0,0,1,38.65,86.3a14.77,14.77,0,0,1-15.83-8.69c-3-6.55-1.17-13.49,4.47-18.18.83,1.81.21,3.72.39,5.58-1,2.76-2.27,5.4-1.53,8.53a10.65,10.65,0,0,0,21-2C47.24,69.29,46.17,67.2,45.45,65Z" fill="#bcbdc1"/><path d="M185.94,152.68v10.17l-.4.39c-2.18,1.36-4.7,1.11-7.07,1.34-3.25.31-6.54.09-9.81.08a4.519,4.519,0,0,1-2.06-.57h0a2.24,2.24,0,0,1-1.3-1.84,68.478,68.478,0,0,1,0-8.23,1.48,1.48,0,0,1,.52-1,90.758,90.758,0,0,0,20.12-.34Z" fill="#b5b7b8"/><path d="M99.88,114H93.97a4.17,4.17,0,0,1-4.32-4.36c0-3.55,0-7.09,0-10.64,0-3.19,1.27-4.54,4.41-4.73a3.5,3.5,0,0,0,1.5-.41,1.21,1.21,0,0,1,.39.53,93,93,0,0,0,3.93,18.06,1.94,1.94,0,0,1,.05,1.53Z" fill="#d0d2d4"/><path d="M159.94,163.31a4.49,4.49,0,0,1-4.73,2.77c-3.48-.14-7,0-10.46,0a4.26,4.26,0,0,1-4.57-4.53v-4.14l.06-.05a2.78,2.78,0,0,1,2.07.4,74.831,74.831,0,0,0,15.62,4.72,4.82,4.82,0,0,1,1.86.62,2.35,2.35,0,0,0,.15.21Z" fill="#d1d3d4"/><path d="M200.15,229.57H1.25c.58-.65,1.36-.38,2.05-.38H198.11C198.8,229.19,199.57,228.93,200.15,229.57Z" fill="#f1eded"/><path d="M95.57,94.2v-.41a70.61,70.61,0,0,1,3-28.55,7.541,7.541,0,0,1,.49-1c-.19,3.43-1,6.82-.73,10.28a12.06,12.06,0,0,1,0,4.32c-.21,5,.8,9.77,1.58,14.61.35.74-.09,1-.69,1C98,94.29,96.78,94.61,95.57,94.2Z" fill="#d1d1d0"/><path d="M165.83,153v8.38a4.08,4.08,0,0,0,.79,2.72l-6.65-.77-.05-.06c-.44-3.46-.1-6.94-.18-10.41,0-.38.11-.81.68-.71Z" fill="#d1d1d1"/><path d="M166.59,164.09a124.881,124.881,0,0,0,18.94-.85,4.1,4.1,0,0,1-4.4,2.82c-3.52-.09-7-.07-10.57,0a4.2,4.2,0,0,1-3.97-1.97Z" fill="#d0d2d3"/><path d="M175,7.51a69.16,69.16,0,1,1-69.15,68.74C105.87,38.43,137,7.47,175,7.51Z" fill="#fefefe"/><path d="M160.39,152.13c0,2.89-.07,5.78-.1,8.67a4.23,4.23,0,0,1-.4,2.45,68.29,68.29,0,0,1-16.49-4.49c-1.09-.43-2.14-1-3.2-1.44,0-1.44.1-2.89,0-4.32a7.43,7.43,0,0,1,2.4-6.65,95,95,0,0,0,17.79,5.78Z" fill="#b5b7b8"/><path d="M95.57,94.2c1.07-.61,2.24-.36,3.38-.35.45,0,.9.25,1-.44a91.239,91.239,0,0,0,7.54,20.08c-2.47.9-5,.27-7.55.42A69.4,69.4,0,0,1,95.57,94.2Z" fill="#b5b7b8"/><path d="M131.26,139.91c-4.26,0-8.53.11-12.79.05a3.54,3.54,0,0,1-3.56-3.08,38.55,38.55,0,0,1,0-12.27,92.09,92.09,0,0,0,16.35,15.3Z" fill="#b5b7b8"/><path d="M98.36,78.8V74.48a5.41,5.41,0,0,1,0,4.32Z" fill="#ef1119"/><path d="M36.53,33.57c-3.17,1.94-4.17,4.88-4.14,8.46.08,8.95.12,17.89,0,26.83-.07,4,.55,7.43,4.35,9.86a5.07,5.07,0,0,1-5.3-2.46,10.06,10.06,0,0,1-1.76-5.55V41.51c0-4,2.3-7.42,5.43-8.26C35.63,33.11,36.11,32.9,36.53,33.57Z" fill="#f0f1f1"/><path d="M45.45,65a10.52,10.52,0,0,1,.47,12.3,11.08,11.08,0,0,1-11.73,5,11.26,11.26,0,0,1-8.53-8.82,9.79,9.79,0,0,1,2-8.45c0,2,0,4.07,0,6.1A8.76,8.76,0,0,0,36.55,80a8.91,8.91,0,0,0,8.89-8.85C45.47,69.11,45.45,67.08,45.45,65Z" fill="#fdfdfd"/><path d="M201.36,230.34c0,8.95-.08,17.89,0,26.83,0,1.57-.31,2.11-2,2.11q-98.43-.07-196.87-.07c-.67,0-1.83.66-2-.83a1,1,0,0,1,.63-.19H197.19c1,0,2.13.44,2.9-.63a7.42,7.42,0,0,0,.23-2.34c0-8,.06-16.07-.06-24.11a1.25,1.25,0,0,1,.29-.69l.81-.09Z" fill="#ea1017"/><path d="M.85,258.38H.49c0-8.87,0-17.75-.09-26.63,0-1.18.45-1.5,1.51-1.4a11.582,11.582,0,0,0,1.18,0h195.1c.79,0,1.57,0,2.36.07v.32a1.55,1.55,0,0,1-.66.42,17.46,17.46,0,0,1-3.54.14H4.86c-1.07,0-2.28-.39-3.1.72a6.78,6.78,0,0,0-.27,2.72c0,6.69,0,13.37,0,20a9.94,9.94,0,0,1-.2,2.93,1.45,1.45,0,0,1-.44.71Z" fill="#f00d19"/><path d="M102.66,120.64c3.12-1.3,7.34.3,6.79,4.37a36.1,36.1,0,0,0,0,6.06c0,.45-.15.57-.51.62C106.88,128,104.47,124.5,102.66,120.64Z" fill="#b5b7b8"/><path d="M122.82,146.69a20.29,20.29,0,0,1,8.87-.16c2.85.49,4.16,5.77,2.16,7.67a131.351,131.351,0,0,1-11.03-7.51Z" fill="#b5b6b8"/><path d="M174.78,72.82Q183.5,60.4,192.22,48c3.06-4.35,6.15-8.68,9.22-13,.71-1,1.46-2.08,2.85-1.13s.75,2,0,3.08Q192.27,55,180.23,73.18a5.048,5.048,0,0,0-.28.51,1.74,1.74,0,0,1-2.6.77A8.28,8.28,0,0,1,174.78,72.82Z" fill="#6c6e71"/><path d="M179.05,76.6,195.5,89.08c2.56,1.94,5.13,3.88,7.71,5.78.94.7,1.63,1.5.87,2.63s-1.88.89-2.91.19Q188.63,89,176.08,80.35C177.15,79.16,177.78,77.62,179.05,76.6Z" fill="#6c6e71"/><path d="M179.05,76.6c-.66,1.5-1.25,3.08-3,3.75l-.81.13a1.83,1.83,0,0,1-2-.06,5.07,5.07,0,0,0-3.45-.9c-10.67,3.25-21.34,6.51-32,9.7-.92.27-2.41,1.55-2.88,0s1.48-1.31,2.4-1.62c11.09-3.67,22.21-7.25,33.33-10.86.51-1.73.92-3.55,3.17-3.85l1-.11c.69.21,1.56.23,2,.67a2.22,2.22,0,0,0,3.15.2c.86-.08,1.57.08,1.69,1.11s-.57,1.19-1.29,1.38C179.91,76.3,179.49,76.46,179.05,76.6Z" fill="#ed1d26"/><path d="M172.93,135.48a26.559,26.559,0,0,0,0-3.34c-.2-1.7.5-2,2.08-2s2.07.34,2,2a58.62,58.62,0,0,0,0,7.26c.1,1.63-.52,2-2,1.91-1.32-.05-2.3,0-2.07-1.82A32,32,0,0,0,172.93,135.48Z" fill="#6c6e71"/><path d="M176.92,17.64A24.637,24.637,0,0,0,177,21c.24,1.84-.49,2.35-2.26,2.25-1.29-.07-1.86-.27-1.79-1.72a76.131,76.131,0,0,0,0-7.85c-.1-1.91,1.13-1.44,2.16-1.52s2.06,0,1.9,1.59A26.409,26.409,0,0,0,176.92,17.64Z" fill="#6c6e71"/><path d="M110.59,78.41c.16-1.2-1-2.64.61-3.6a62.2,62.2,0,0,1,10,0h0a8,8,0,0,1,0,3.6h0a63.361,63.361,0,0,1-10.61,0Z" fill="#6d6e72"/><path d="M229.9,109.92c-3-1.75-6-3.44-8.94-5.33-.58-.37.35-1.1.6-1.66s.66-.48,1.13-.2c2.66,1.55,5.34,3.08,8,4.62.44.25.78.52.41,1.07S230.64,109.67,229.9,109.92Z" fill="#6e6f73"/><path d="M202.24,122.54c.82-.05.91.41,1.09.72,1.49,2.55,2.91,5.13,4.45,7.65.67,1.1-.11,1.3-.75,1.75s-1.09.36-1.51-.4c-1.4-2.52-2.88-5-4.3-7.51a1.49,1.49,0,0,1,1.02-2.21Z" fill="#6e6f72"/><path d="M143,133a1.45,1.45,0,0,1-.77-2.28c1.37-2.39,2.81-4.73,4.11-7.15.56-1,1-1,2-.5,1.11.58.68,1.15.27,1.86-1.39,2.37-2.74,4.77-4.14,7.13C144.24,132.42,144.16,133.07,143,133Z" fill="#6e6f73"/><path d="M203.11,30.77c-1.64.05-2.44-1.23-1.89-2.19,1.38-2.45,2.82-4.86,4.18-7.32.48-.87.91-1.05,1.82-.51s1,1,.47,1.85c-1.46,2.4-2.83,4.85-4.25,7.28a5.1,5.1,0,0,0-.33.89Z" fill="#6e6f72"/><path d="M119.91,109.88c-.72-.2-.76-1-1.14-1.46s0-.81.41-1c2.67-1.54,5.35-3.06,8-4.64.77-.46,1.09-.09,1.33.51s1.11,1.06.14,1.64c-2.77,1.62-5.57,3.21-8.36,4.81a3.348,3.348,0,0,1-.38.14Z" fill="#6d6e72"/><path d="M127.63,50.84l-.68-.39c-2.5-1.44-5-3-7.51-4.3-1.06-.56-.77-1.06-.36-1.82s.78-1,1.64-.49c2.52,1.54,5.1,3,7.65,4.46.47.26,1,.5.52,1.17C128.52,50,128.48,50.76,127.63,50.84Z" fill="#6d6e72"/><path d="M231.28,45.18c0,.62-.46.71-.78.9-2.55,1.48-5.13,2.91-7.65,4.44-1,.58-1.2,0-1.63-.62s-.53-1.19.36-1.68c2.53-1.39,5-2.88,7.51-4.3.35-.2.75-.76,1.19-.29a10.389,10.389,0,0,1,1,1.55Z" fill="#6d6f72"/><path d="M149.13,29.42c-.06.79-.88.8-1.35,1.18s-.79.27-1.09-.27q-2.33-4.09-4.72-8.17c-.39-.66-.11-1,.44-1.2s1.12-1.15,1.66-.27c1.71,2.8,3.31,5.66,5,8.5C149.05,29.25,149.08,29.3,149.13,29.42Z" fill="#6d6e72"/><path d="M228.56,78v-.39c.46-2.56.46-2.56,3.24-2.56h6.12c1,0,1.3.45,1.29,1.32s.13,2-1.07,2C234.94,78.32,231.73,78.84,228.56,78Z" fill="#6d6e71"/><path d="M173.78,72.93c-1.79.68-2.1,2.58-3.17,3.85-.57-.44-1.13-.89-1.71-1.31-1.76-1.28-1.84-1.94-.56-3.7.95-1.31,2-1.66,3.29-.54C172.33,71.82,173.06,72.37,173.78,72.93Z" fill="#6d6e71"/><path d="M169.8,79.52c1.09-.68,2.08-.85,3.1.22a3.56,3.56,0,0,0,2.37.74c-.34.55-.66,1.11-1,1.65-1.48,2.23-2.06,2.47-3.63,1.5C168.64,82.41,168.53,81.83,169.8,79.52Z" fill="#6d6e71"/><path d="M228.56,78h8.81c1.1,0,1.5-.37,1.49-1.48s-.5-1.33-1.45-1.31c-2.35,0-4.71.13-7,0-2.08-.14-.93,1.82-1.8,2.41-.18-2.91-.18-2.91,2.59-2.91h7.26c.9,0,1.25.33,1.06,1.13-.23,1,.78,2.65-.79,2.77-3.25.26-6.53.06-9.79,0C228.58,78.62,228.56,78.28,228.56,78Z" fill="#626366"/><path d="M110.59,78.41h10.67a36.68,36.68,0,0,1-10.67,0Z" fill="#78797d"/><path d="M121.23,74.86h-10a43.14,43.14,0,0,1,10,0Z" fill="#78797d"/><path d="M121.25,78.45v-3.6a4.73,4.73,0,0,1,0,3.6Z" fill="#78797d"/><path d="M200.15,230.76h.4a4.43,4.43,0,0,1,.4,2.48q0,12.39,0,24.76a1.73,1.73,0,0,1-1.09.37q-48.34.06-96.68,0H3.73c-1,0-2,.25-2.88-.38V231.54A1.17,1.17,0,0,1,2,231H197.63a5.38,5.38,0,0,0,2.52-.24Z" fill="#ed1d25"/><path d="M200.16,258h.78a.8.8,0,0,1-.93.78H1.25c-.05-.43.21-.55.59-.57h196a4.73,4.73,0,0,0,2.32-.21Z" fill="#ed1d2a"/><path d="M200.16,258c-.72.71-1.63.38-2.44.38H3.72c-.82,0-1.72-.33-2.44.37l-.4-.39V258Z" fill="#ec1c1f"/><path d="M200.15,230.76c-.72.7-1.63.37-2.44.37H3.71a5.09,5.09,0,0,0-2.88.39c.06-.43.25-.74.73-.76s1.05,0,1.58,0Z" fill="#e82126"/><path d="M176.9,76.78a2,2,0,0,1-3.94-.15,1.81,1.81,0,0,1,2-1.9A1.844,1.844,0,0,1,176.9,76.78Z" fill="#6f6b6e"/></g></g></svg>