<svg xmlns="http://www.w3.org/2000/svg" xmlns:xlink="http://www.w3.org/1999/xlink" width="257" height="204.741" viewBox="0 0 257 204.741"><defs><linearGradient id="a" y1="0.5" x2="1" y2="0.5" gradientUnits="objectBoundingBox"><stop offset="0" stop-color="gray" stop-opacity="0.251"/><stop offset="0.54" stop-color="gray" stop-opacity="0.122"/><stop offset="1" stop-color="gray" stop-opacity="0.102"/></linearGradient></defs><g transform="translate(-75 -99)"><g transform="translate(75 98.987)"><path d="M395.6,82.519a61.976,61.976,0,0,0-10.088-16.083L245.554,65.065,360.786,48.882a65.376,65.376,0,0,0-23.378-4.63,65.532,65.532,0,0,0-78.281-2.659,65.244,65.244,0,0,0-29.958-7.218c-31.1,0-57.008,21.536-62.82,50.1Z" transform="translate(-143.52 -29.89)" opacity="0.5"/><path d="M337.98,273.958a60.511,60.511,0,0,0-4.362-22.608L91.053,276.812a60.9,60.9,0,0,0-5.683,14.353l75.13,11.2L83.66,310.524c2.312,32.333,30.031,57.866,63.889,57.866a64.831,64.831,0,0,0,44.008-17.021,65.081,65.081,0,0,0,102.271-18.237c20.613-6.543,36.624-22.969,42.1-43.516l-94.992-14.735H337.97C337.975,274.575,337.98,274.268,337.98,273.958Z" transform="translate(-80.98 -197.376)" opacity="0.5"/><path d="M751.53,718.835s7.678-13.6,19.25-17.52a23.678,23.678,0,0,0,11.986-8.965,39.977,39.977,0,0,0,3.526-6.35" transform="translate(-586.106 -526.112)" fill="none" stroke="#535461" stroke-miterlimit="10" stroke-width="2"/><path d="M900.864,657.918c-1.318,1.277-7.454,2.6-7.454,2.6s1.506-6.092,2.824-7.371a3.324,3.324,0,0,1,4.63,4.771Z" transform="translate(-693.413 -500.554)" fill="#6c63ff"/><path d="M885.981,700.491c-1.8.358-7.671-1.869-7.671-1.869s4.576-4.3,6.377-4.654a3.326,3.326,0,0,1,1.294,6.523Z" transform="translate(-681.993 -532.101)" fill="#6c63ff"/><path d="M840.29,749.891c-1.735-.6-5.68-5.485-5.68-5.485s6.121-1.4,7.856-.8a3.326,3.326,0,0,1-2.176,6.284Z" transform="translate(-648.941 -569.568)" fill="#6c63ff"/><path d="M790.083,777.63c-1.81-.3-6.523-4.447-6.523-4.447s5.795-2.412,7.605-2.113a3.324,3.324,0,0,1-1.082,6.56Z" transform="translate(-610.331 -590.433)" fill="#6c63ff"/><path d="M857.31,683.651c0,1.837,3.321,7.164,3.321,7.164s3.326-5.324,3.329-7.159a3.326,3.326,0,0,0-6.65,0Z" transform="translate(-666.11 -521.891)" fill="#6c63ff"/><path d="M801.765,714.483c.548,1.755,5.312,5.848,5.312,5.848s1.581-6.075,1.033-7.827a3.324,3.324,0,0,0-6.336,1.986Z" transform="translate(-624.025 -544.512)" fill="#6c63ff"/><path d="M752.88,756.462c.244,1.818,4.25,6.652,4.25,6.652s2.585-5.719,2.342-7.539a3.326,3.326,0,0,0-6.579.887Z" transform="translate(-587.127 -576.712)" fill="#6c63ff"/><path d="M900.864,657.918c-1.318,1.277-7.454,2.6-7.454,2.6s1.506-6.092,2.824-7.371a3.324,3.324,0,0,1,4.63,4.771Z" transform="translate(-693.413 -500.554)" fill="#ffb603"/><path d="M885.981,700.491c-1.8.358-7.671-1.869-7.671-1.869s4.576-4.3,6.377-4.654a3.326,3.326,0,0,1,1.294,6.523Z" transform="translate(-681.993 -532.101)" fill="#ffb603"/><path d="M840.29,749.891c-1.735-.6-5.68-5.485-5.68-5.485s6.121-1.4,7.856-.8a3.326,3.326,0,0,1-2.176,6.284Z" transform="translate(-648.941 -569.568)" fill="#ffb603"/><path d="M790.083,777.63c-1.81-.3-6.523-4.447-6.523-4.447s5.795-2.412,7.605-2.113a3.324,3.324,0,0,1-1.082,6.56Z" transform="translate(-610.331 -590.433)" fill="#ffb603"/><path d="M857.31,683.651c0,1.837,3.321,7.164,3.321,7.164s3.326-5.324,3.329-7.159a3.326,3.326,0,0,0-6.65,0Z" transform="translate(-666.11 -521.891)" fill="#ffb603"/><path d="M801.765,714.483c.548,1.755,5.312,5.848,5.312,5.848s1.581-6.075,1.033-7.827a3.324,3.324,0,0,0-6.336,1.986Z" transform="translate(-624.025 -544.512)" fill="#ffb603"/><path d="M752.88,756.462c.244,1.818,4.25,6.652,4.25,6.652s2.585-5.719,2.342-7.539a3.326,3.326,0,0,0-6.579.887Z" transform="translate(-587.127 -576.712)" opacity="0.25"/><path d="M753.34,682.715s1.508-15.544,10.478-23.814a23.664,23.664,0,0,0,7.325-13.054,39.827,39.827,0,0,0,.656-7.247" transform="translate(-587.475 -490.262)" fill="none" stroke="#535461" stroke-miterlimit="10" stroke-width="2"/><path d="M832.4,602.891c-.687,1.706-5.76,5.4-5.76,5.4s-1.092-6.182-.407-7.885a3.325,3.325,0,0,1,6.167,2.485Z" transform="translate(-642.432 -459.799)" fill="#ffb603"/><path d="M833.441,645.459c-1.5,1.055-7.771,1.4-7.771,1.4s2.437-5.782,3.945-6.84a3.325,3.325,0,0,1,3.826,5.439Z" transform="translate(-642.18 -490.878)" fill="#ffb603"/><path d="M806.985,709.4c-1.83.154-7.415-2.712-7.415-2.712s5.027-3.76,6.857-3.913a3.325,3.325,0,1,1,.558,6.626Z" transform="translate(-622.44 -538.789)" fill="#ffb603"/><path d="M773.806,754.764c-1.779.461-7.766-1.421-7.766-1.421s4.318-4.554,6.092-5.017a3.326,3.326,0,1,1,1.669,6.439Z" transform="translate(-597.08 -573.169)" fill="#ffb603"/><path d="M797.645,646.089c.743,1.679,5.938,5.2,5.938,5.2s.885-6.214.141-7.893a3.328,3.328,0,1,0-6.092,2.68Z" transform="translate(-620.761 -492.387)" fill="#ffb603"/><path d="M759.146,696.673c1.218,1.382,7.225,3.187,7.225,3.187s-1.016-6.194-2.227-7.573a3.325,3.325,0,0,0-5,4.386Z" transform="translate(-591.242 -530.011)" fill="#ffb603"/><path d="M731.471,754.7c.975,1.564,6.579,4.362,6.579,4.362s.046-6.277-.916-7.841a3.324,3.324,0,1,0-5.663,3.48Z" transform="translate(-570.562 -574.243)" fill="#6c63ff"/><ellipse cx="8.129" cy="1.116" rx="8.129" ry="1.116" transform="translate(0 188.661)" fill="#6c63ff" opacity="0.1"/><ellipse cx="8.129" cy="1.116" rx="8.129" ry="1.116" transform="translate(11.426 200.93)" fill="#6c63ff" opacity="0.1"/><path d="M139.11,832.542a3.228,3.228,0,0,0,1.07-1.616,1.434,1.434,0,0,0-.748-1.642c-.685-.263-1.418.214-1.974.694a2.64,2.64,0,0,1-1.92.926,2.924,2.924,0,0,0,.9-2.736,1.152,1.152,0,0,0-.244-.556c-.38-.407-1.07-.244-1.525.088-1.462,1.021-1.854,2.99-1.864,4.764a8.987,8.987,0,0,1-.027-1.949,2.038,2.038,0,0,0-.731-1.735,2.218,2.218,0,0,0-1.123-.266,2.316,2.316,0,0,0-1.823.519,1.812,1.812,0,0,0,.071,2.237,7.185,7.185,0,0,0,1.886,1.513,4.2,4.2,0,0,1,1.35,1.284,1.543,1.543,0,0,1,.1.244h4.072A11.453,11.453,0,0,0,139.11,832.542Z" transform="translate(-115.081 -633.035)" fill="#ffb603"/><path d="M92.837,782.47a3.221,3.221,0,0,0,1.07-1.613,1.435,1.435,0,0,0-.748-1.642c-.685-.263-1.418.212-1.974.692a2.651,2.651,0,0,1-1.92.928,2.924,2.924,0,0,0,.9-2.736,1.14,1.14,0,0,0-.244-.556c-.38-.407-1.07-.244-1.525.088-1.462,1.021-1.857,2.99-1.864,4.764a9.112,9.112,0,0,1-.027-1.964,2.023,2.023,0,0,0-.731-1.735,2.222,2.222,0,0,0-1.123-.263,2.324,2.324,0,0,0-1.823.517,1.812,1.812,0,0,0,.071,2.239,7.166,7.166,0,0,0,1.886,1.511,4.206,4.206,0,0,1,1.35,1.287,1.411,1.411,0,0,1,.1.229h4.086A11.286,11.286,0,0,0,92.837,782.47Z" transform="translate(-80.083 -595.166)" fill="#ffb603"/><ellipse cx="11.433" cy="1.569" rx="11.433" ry="1.569" transform="translate(203.757 200.718)" fill="#6c63ff" opacity="0.1"/><path d="M956.646,788.19s1.533,2-.707,5.027-4.086,5.58-3.341,7.464c0,0,3.38-5.617,6.128-5.695S959.67,791.567,956.646,788.19Z" transform="translate(-738.052 -603.401)" fill="#ffb603"/><path d="M956.918,788.19a2.511,2.511,0,0,1,.312.629c2.68,3.151,4.113,6.092,1.535,6.167-2.4.068-5.285,4.364-5.975,5.449a2.231,2.231,0,0,0,.08.244s3.382-5.614,6.128-5.692S959.942,791.567,956.918,788.19Z" transform="translate(-738.324 -603.401)" opacity="0.1"/><path d="M980.323,797.268c0,.7-.08,1.277-.178,1.277s-.175-.573-.175-1.277.1-.373.195-.373S980.323,796.562,980.323,797.268Z" transform="translate(-758.881 -609.925)" fill="#ffd037"/><path d="M981.676,800.625c-.619.339-1.16.541-1.206.456s.417-.429,1.036-.765.375-.093.422,0S982.3,800.289,981.676,800.625Z" transform="translate(-759.256 -612.441)" fill="#ffd037"/><path d="M925.845,788.19s-1.533,2,.707,5.027,4.086,5.58,3.338,7.464c0,0-3.377-5.617-6.128-5.695S922.821,791.567,925.845,788.19Z" transform="translate(-715.343 -603.401)" fill="#ffb603"/><path d="M925.871,788.19a2.46,2.46,0,0,0-.314.629c-2.68,3.151-4.111,6.092-1.533,6.167,2.4.068,5.285,4.364,5.975,5.449a1.829,1.829,0,0,1-.083.244s-3.377-5.614-6.121-5.692S922.847,791.567,925.871,788.19Z" transform="translate(-715.369 -603.401)" opacity="0.1"/><path d="M924.83,797.268c0,.7.08,1.277.178,1.277s.175-.573.175-1.277-.1-.373-.195-.373S924.83,796.562,924.83,797.268Z" transform="translate(-717.177 -609.925)" fill="#ffd037"/><path d="M919.648,800.625c.619.339,1.16.541,1.206.456s-.417-.429-1.038-.765-.373-.093-.422,0S919.029,800.289,919.648,800.625Z" transform="translate(-712.972 -612.441)" fill="#ffd037"/><path d="M926.83,831.194s4.284-.132,5.575-1.053,6.579-2.015,6.908-.541,6.438,7.332,1.6,7.371-11.236-.753-12.525-1.538S926.83,831.194,926.83,831.194Z" transform="translate(-718.689 -634.174)" fill="#a8a8a8"/><path d="M941.012,843.648c-4.837.039-11.236-.753-12.525-1.538-.975-.6-1.372-2.741-1.5-3.731h-.144s.273,3.455,1.56,4.24,7.69,1.577,12.525,1.538c1.4-.012,1.879-.509,1.852-1.245C942.581,843.358,942.048,843.648,941.012,843.648Z" transform="translate(-718.697 -641.361)" opacity="0.2"/><ellipse cx="85.742" cy="10.919" rx="85.742" ry="10.919" transform="translate(32.272 182.915)" fill="#6c63ff" opacity="0.1"/><path d="M457.1,234.536a6.692,6.692,0,0,1-.731-2.334s-1.238-.653-.743-2.7a3.017,3.017,0,0,0-1.4-3.168h0a23.73,23.73,0,0,1-.487-3.431c0-1.143-1.4-2.861-1.4-2.861a7.655,7.655,0,0,0-.58-3.814c-.824-1.413-2.476-4.184-4.54-5.09,0,0-4.386-6.716-5.695-7.24a4.7,4.7,0,0,1-1.647-2.193h0a3.563,3.563,0,0,1,0-.4.349.349,0,0,1,0-.054h0v-.207a5.38,5.38,0,0,0,1.406-1.808,14.3,14.3,0,0,1,.8-4.013h0c.051-.134.1-.266.158-.395s.132-.3.207-.456a15.865,15.865,0,0,0,1.262-2.546c.019-.068.037-.136.054-.2h0a5.36,5.36,0,0,0-.814-4.016,11.324,11.324,0,0,0-3.168-3.08,14.168,14.168,0,0,0-4.021-2.1,7.346,7.346,0,0,0-4.486-.032c-1.435.495-2.68,1.564-4.16,1.949a15.135,15.135,0,0,0-1.879.436A3.992,3.992,0,0,0,423,187.752a4.117,4.117,0,0,0-.093.9,2.49,2.49,0,0,0,.168.875,1.248,1.248,0,0,0,.872.838l.134.034.166.034c-.044.088-.093.173-.134.263a8.629,8.629,0,0,0-.8,3.655,8.753,8.753,0,0,0,6.214,8.351c.039.093.078.188.115.28.134.336.256.685.356,1.033-1.067.592-5.887,3.307-7.052,4.662a13.159,13.159,0,0,0-.938-5.181,7.785,7.785,0,0,0-4.681-4.489c-1.218-.366-2.5-.361-3.738-.614-.975-.2-1.9-.553-2.871-.753a6.491,6.491,0,0,0-1.17-.134,10.263,10.263,0,0,0-2.142-1.752,7.935,7.935,0,0,0-2.451-1.218c-1.5-.375-3.075.061-4.63.227-1.63.175-3.2-.244-4.813-.154a15.491,15.491,0,0,0-4.142.743,5.977,5.977,0,0,0-.958.441c.02-.032.044-.058.063-.09s.044-.085.066-.129a.951.951,0,0,0,.044-.09c.012-.032.039-.107.056-.163a.558.558,0,0,0,.022-.068,1.738,1.738,0,0,0,.044-.195v-.041a1.786,1.786,0,0,0,.022-.227.037.037,0,0,0,0-.017,2.588,2.588,0,0,0-.041-.614,7.748,7.748,0,0,0-.8-1.93,3.822,3.822,0,0,1-.524-2,.456.456,0,0,1,.022-.171,1.811,1.811,0,0,1,.041-.2v-.015a2,2,0,0,1,.056-.2h0c.022-.066.044-.132.068-.2h0c.024-.066.051-.129.078-.195h0l.088-.195h0c.029-.068.061-.134.093-.2.066-.132.129-.263.192-.395s.107-.244.158-.348l.029-.066c.1-.244.19-.487.268-.731a.288.288,0,0,1,.024-.073,6.763,6.763,0,0,0,.185-.731v-.078a5.19,5.19,0,0,0,.073-.748v-.078a3.618,3.618,0,0,0-.275-1.43,5.624,5.624,0,0,0-2.1-2.266,3.424,3.424,0,0,0-1.949-.772c-.836.017-1.569.585-2.4.7a3.616,3.616,0,0,1-1.581-.2c-1.155-.363-2.22-.975-3.377-1.326a8.448,8.448,0,0,0-3.436-.327,2.2,2.2,0,0,0-1.335.5,3.855,3.855,0,0,0-.658,1.328,3.862,3.862,0,0,1-1.408,1.73c-.69.465-1.513.7-2.237,1.116a2.643,2.643,0,0,0-1.316,1.542h0a1,1,0,0,0-.029.171.183.183,0,0,0,0,.037,1.069,1.069,0,0,0,0,.178h0a7.364,7.364,0,0,0,.171.943h0v.054a3.179,3.179,0,0,1-.595,2.125,5.775,5.775,0,0,0-.872,1.518c-.173.039-.348.083-.526.129h-1.818a.487.487,0,0,0-.487.487v.285a53.614,53.614,0,0,0-5.28,2.371s-4.086,5.393-4.52,6.128a1.691,1.691,0,0,0-.129.441h0c-.8.244-1.728,6.974-1.728,6.974s1.167,1.74,2.464,3.363c.512,1.5,2.02,2.68,2.074,4.666.078,3,0,7.844,0,7.844s1.157,7.418.326,10.788.151,8.212.4,10.113a34.663,34.663,0,0,1,0,8.395c-.434,2.144-.619,5.456,0,4.291V258c.012,1.014.029,3.348,0,4.42-.041,1.389.453,4,0,4.983s-.536,5.149-.536,5.722a9.8,9.8,0,0,1-.658,4.25c-.828,2.042,0,9.725,0,9.725s-2.551,5.473-1.771,6.535-1.447.731-1.447.731-.487,5.232-2.89,7.763-6.438,20.347-5.86,24.84a17.2,17.2,0,0,0-1.9,2.125,35.719,35.719,0,0,0-.029,4.252,1.667,1.667,0,0,0-.548.855c-.578,2.247-1.279,6.416-1.279,6.416s-.785,2.327,4.291,2.532,4.993-.653,4.993-.653a33.278,33.278,0,0,1,.166-4.722,19.723,19.723,0,0,0,.244-3.45,1.539,1.539,0,0,1,.344.083c.906.407,2.227-1.218,1.567-2.78s1.815-9.886,1.815-9.886,6.933-13.207,6.933-18.795c0-.407,2.722-3.677,3.056-5.8a20.469,20.469,0,0,1,1.238-4.252s1.153,5.639,0,7.844-2.561,19.45-1.486,21.166-.66,4.33-.909,4.82-.577,6.128-.577,6.128h.546l-.217,4.542s8.955-.122,10.478.653,10.812.731,10.812.731,4.291-1.594,1.9-3.229-6.684-1.8-6.684-1.8-3.558-4.876-4.225-5.081c-.446-.136-1.138-.7-1.767-.578a12.972,12.972,0,0,1,.612-2.812c1.4-4.576.824-22.228.824-22.228a8.709,8.709,0,0,0,1.075-3.677,5.421,5.421,0,0,1,1.65-3.351s4.788-19.611,5.848-24.1c.945-3.967,2.215-9.206,1.647-12.63a.131.131,0,0,0-.017-.078c.1-2.576.151-5.919-.144-6.721-.487-1.35-1.355-8.336-1.355-8.336s-.163-.675-.327-1.594l4.2,1.4c.3,1.165.619,2.344.273,3.139l-.051.122a4.507,4.507,0,0,0-.339,3.309,14.866,14.866,0,0,1,.348,2.766c.056,1.218.049,2.476.061,3.365v7.683h0v9.64a115.589,115.589,0,0,0,.514,12.133,23.336,23.336,0,0,1-.019,5.734h0c-.1.785-.207,1.45-.3,1.949h0c-.11.57-.193.9-.193.9a32.322,32.322,0,0,0-.948,12.318c.8,6.8-.214,5.514-.214,5.514a15.724,15.724,0,0,0,.4,3.433c.309.49-.4,2.573-.4,2.573s.27.244.694.556c-.029.134-.058.275-.085.429a11.012,11.012,0,0,0-.149,2.754c.015.2.02.414.015.638v.28a41.531,41.531,0,0,1-1.949,5.212c-.945,2.01,1.608,4.362,2.871,5.361a2.259,2.259,0,0,0,1.411.487h1.616a2.264,2.264,0,0,0,1.806-.894c.69-.906,1.6-2.337,1.521-3.489a24.114,24.114,0,0,0-1.584-5.361,2.006,2.006,0,0,0,.012-.214,5.957,5.957,0,0,0-.317-1.584l-.5-2.6-.073-.375a2.368,2.368,0,0,0,.207-.392s-.558-2.941,0-3.738,3.775-12.074,3.775-16.67c0,0,2.354-4.657,2.539-8.458,0,0,0-5.821.928-8.151s2.042-9.131,2.042-9.131l.5,6.372.424,11.031s-.928,3.862,0,5.149.619,4.964.619,4.964l-.68,12.871a12.134,12.134,0,0,1-.309,2.634c-.249.49-.392,6.733-1.367,7.283,0,0,.151.115.4.285-.073.1-.151.2-.244.331a6.706,6.706,0,0,0-1.006,3.031,2.61,2.61,0,0,1-.029.278,2.105,2.105,0,0,0-.47.914,1.316,1.316,0,0,0,.156.914c-.424.9-2.023,4.549-.833,5.648,1,.919,4.435.655,6.2.448a1.138,1.138,0,0,0,1.009-1.2,30.2,30.2,0,0,0-.441-3.655l12.915.329c-1.426,1.121-3.209,2.8-3.209,2.8a19.659,19.659,0,0,1-3.621,2.542c-1.206.458-2,2.3-.351,2.451s8.056.244,8.056.244l.227-.037c.02.385.244.714.87.824,1.547.275,15.661-1.776,15.661-1.776s-.02-.519-.059-1.218a23.108,23.108,0,0,0,7.4-.317,31.464,31.464,0,0,0,5.446-2.615V333.1c0-.383,0-.86-.02-1.391a6.871,6.871,0,0,0-.19-1.825,19.568,19.568,0,0,1-1.155-3.139,2.956,2.956,0,0,0,2-1.15s-2.086-1.8-1.486-2.193.8-2.208.8-2.208a14.315,14.315,0,0,1-.02-9.152c1.633-5.229.02-18.631-.807-19.682s-.329-3.117-.329-3.117c1.155-1.879-1.136-7.435-1.136-7.435s.887-9.645.227-10.507.322-4.057.322-4.057a8.4,8.4,0,0,0,1.255-2.1,4.9,4.9,0,0,0,.889,1.233s.112-.368.261-.975a3.29,3.29,0,0,0,.244.244,23.224,23.224,0,0,0,.909-6.489c-.083-3.268-.329-9.747-.329-9.747l-.015-.79,3.48-4.45s3.221-3.234,3.238-6.2a1.219,1.219,0,0,0,.3-.27C458.253,237.014,457.715,235.7,457.1,234.536Zm-46.63,8.041.056,1.009a13.416,13.416,0,0,1-.231-1.348l.18.319Zm28.6-40.981a2.169,2.169,0,0,0,.331-.2l-.314.29A.162.162,0,0,0,439.064,201.6Zm-49.442-5.271a4.387,4.387,0,0,0-.358.348c-1.172,1.289-1.547,3.265-3.026,4.191-.419.261-.9.417-1.309.687a4.628,4.628,0,0,0-1.689,3.026,1.817,1.817,0,0,1,.027-.258c-.08.327-.146.658-.207.975a3.85,3.85,0,0,0-.041,1.306c.041.6.258,1.145.819,1.287.283.071.585,0,.872.056a1.4,1.4,0,0,1,1.023,1.2.534.534,0,0,1,0,.061v-.015c0,.066.02.134.024.2a.263.263,0,0,0,0,.044,6.508,6.508,0,0,1-.487,1.645l-.015-.058c-.063.173-.124.346-.173.521a1.489,1.489,0,0,0-.056.777.865.865,0,0,0,.1.434,1.1,1.1,0,0,0,.79.487,2.227,2.227,0,0,0,1.116-.1,2.436,2.436,0,0,0-.244.865,2.975,2.975,0,0,0-2.254,2.125c-.059.2-.119.4-.183.595-.166.521-.346,1.036-.534,1.533a6.329,6.329,0,0,0-.244-1.986,29.618,29.618,0,0,1-1.484-4.6v-2.878c0-1.769-3.263-2.992-3.292-3a17.8,17.8,0,0,1,.646-3c.024-.083.054-.163.08-.244a9.411,9.411,0,0,0,8.558-6.109c.027-.073.049-.146.076-.219a2.307,2.307,0,0,0,.975.19A1.784,1.784,0,0,0,389.622,196.325Zm-6.18,39.819c0-1.91-.212-4-.212-4s.032-.424.083-1.136c1.2-1.067,2.383-2.159,2.888-2.629a2.944,2.944,0,0,0,.244-.244,1.842,1.842,0,0,1,.636,1.094,4.021,4.021,0,0,1,.027,1.6,14.117,14.117,0,0,0,.556,3.952h0a11.331,11.331,0,0,1,.217,2.832Zm22.418,88.893a16.9,16.9,0,0,1,1.92-6.372c1.733-3.187,3.9-14.465,3.9-14.465a59.548,59.548,0,0,0,.37-8.029,104.164,104.164,0,0,1,.753-11.645c.124.809.212,1.365.214,1.411,0,.156,1.628,6.981,2.144,9.991v13.9a5.576,5.576,0,0,1-.5,2.305l-1.6,3.543a5.005,5.005,0,0,0-.041,4.016c.258.619.409,1.17.168,1.238a3.84,3.84,0,0,0-.592.244,1.414,1.414,0,0,0-.263-.2l-5.254,4.291-1.545.21v-.195a1.027,1.027,0,0,0,.334-.241Zm20.776,6.947-.2-.911-.056-.244.487.037s-1.362-6.25-.434-8.887a10.093,10.093,0,0,0,.387-1.962c.046-.38.088-.789.124-1.218.4,1.218.755,2.476.539,2.751-.434.551-.054,3.677.066,3.86s.926,1.218.368,2.105-.487,3.611-.487,3.611.141.017.378.037A8.452,8.452,0,0,0,426.636,331.984Zm6.94-1.355c-.039-.068-.076-.139-.112-.207a5.921,5.921,0,0,1,1.991-.185s-1.857-6.791-1.3-8.263-2.354-15.69-3.777-18.938.487-12.318.487-12.318l3.109-8.209,2.576,8.512c-.412,2.364.414,7.442,1.652,8.668a2.8,2.8,0,0,1,.487,3.514c-.5.655.244,6.7.244,6.7a65.829,65.829,0,0,1-.244,8.417,4.146,4.146,0,0,0,1.072,4.086c.828.98-.906.9-1.9,1.832a1.531,1.531,0,0,0,0,2.091l.366-.027a5.485,5.485,0,0,1,.331,1.413.848.848,0,0,1-.244.614c-.663.573-1.735,3.392-2.68,4.086a4.629,4.629,0,0,0-.373.3.929.929,0,0,0-.19.041,16.212,16.212,0,0,1-1.508-2.127ZM364.1,198.988a8.882,8.882,0,0,0,4.208-1.962h2.364a9.184,9.184,0,0,0,.9,1.562c-.022.054-.039.1-.061.161a6.193,6.193,0,0,1-.473.928h0a10.826,10.826,0,0,0-4.2.9,2.889,2.889,0,0,0-.446.309c-1.028.88-3.08.885-4.023.833l-.551-.344-.1.446-.058.049.034-4.111Zm28.8,125.951v.331a2.6,2.6,0,0,1,0-.331Zm0,.38.027.266c0-.1-.01-.188-.017-.27Z" transform="translate(-275.718 -143.364)" fill="url(#a)"/><rect width="10.149" height="6.016" transform="matrix(0.948, 0.32, -0.32, 0.948, 105.157, 92.789)" fill="#d38884"/><path d="M696.311,508.893s1.462,2.68-1.3,6.172c0,0-.975,3.156-.324,4.016s-.224,10.442-.224,10.442,2.254,5.524,1.118,7.393c0,0-.487,2.052.324,3.1s2.4,14.365.792,19.565a14.362,14.362,0,0,0,.019,9.1s-.2,1.786-.792,2.193,1.462,2.193,1.462,2.193a2.834,2.834,0,0,1-3.273.975c-2.11-.731-8.2-.244-8.2-.244a1.531,1.531,0,0,1,0-2.076c.975-.928,2.68-.848,1.867-1.823a4.142,4.142,0,0,1-1.055-4.062,65.5,65.5,0,0,0,.244-8.365s-.731-6.011-.244-6.66a2.82,2.82,0,0,0-.487-3.494c-1.218-1.218-2.03-6.265-1.625-8.614l-4.547-15.183-8.936-14.621L684.257,507Z" transform="translate(-525.297 -390.73)" fill="#4c4981"/><path d="M700.221,257.378v9.26H687.794l-.324-.909a20.092,20.092,0,0,1,2.844-5.258c.807-.928.431-2.639-.154-4.125a18.7,18.7,0,0,0-1.391-2.78s11.209-7.067,10.641-2.761a14.673,14.673,0,0,0-.115,2.775A8.785,8.785,0,0,0,700.221,257.378Z" transform="translate(-537.656 -195.91)" fill="#febfba"/><path d="M703.441,250.783a14.668,14.668,0,0,0-.115,2.775,8.711,8.711,0,0,1-9.135,2.766,18.7,18.7,0,0,0-1.391-2.78S704.009,246.478,703.441,250.783Z" transform="translate(-541.687 -195.895)" opacity="0.1"/><path d="M690.324,215.682a8.677,8.677,0,1,1-2.544-6.143,8.692,8.692,0,0,1,2.544,6.143Z" transform="translate(-526.666 -163.833)" fill="#febfba"/><path d="M676.482,290.34l-3.818,6.092-2.193,16.392v13.439l.487,4.791,9.052.651,4.026-13.526,3.087-13.846,3.329-2.844-7.878-8.936a17.119,17.119,0,0,1-3.238,3.372,1.462,1.462,0,0,1-2.225-1.706c.487-1.277.928-2.7.59-3.034a3.518,3.518,0,0,0-1.625-.836" transform="translate(-524.798 -226.865)" opacity="0.1"/><path d="M675.482,291.34l-3.818,6.092-2.193,16.392v13.439l.487,4.791,9.052.651,4.026-13.526,3.087-13.846,3.329-2.844-7.878-8.936a17.119,17.119,0,0,1-3.238,3.372,1.462,1.462,0,0,1-2.225-1.706c.487-1.277.928-2.7.59-3.034a3.518,3.518,0,0,0-1.625-.836" transform="translate(-524.042 -227.621)" fill="#e6e8ec"/><path d="M675.15,471.4h7.878l-1.055-5.117-.163-2.232-3.816,2.4Z" transform="translate(-510.632 -350.962)" opacity="0.1"/><path d="M675.15,469.4h7.878l-1.055-5.117-.163-2.232-3.816,2.4Z" transform="translate(-510.632 -349.45)" fill="#e6e8ec"/><path d="M672.813,282.57s-7.149,3.948-7.393,5.166-1.949,9.584-1.949,9.584v7.554l7.067-2.59-.4-10.329,2.517-6.167A6.664,6.664,0,0,0,672.813,282.57Z" transform="translate(-519.504 -220.988)" opacity="0.1"/><path d="M671.813,281.57s-7.149,3.948-7.393,5.166-1.949,9.584-1.949,9.584v7.554l7.067-2.59-.4-10.329,2.517-6.167A6.664,6.664,0,0,0,671.813,281.57Z" transform="translate(-518.748 -220.232)" fill="#ff718d"/><path d="M719.812,330.6a23.351,23.351,0,0,1-.894,6.45c-1.218-1.153-2.247-4.569-2.615-6.258-.614,2.081-5.507,5.819-5.507,5.819v1.136c-.244,3.168-10.478.975-10.478.975l.651-40.774s.811-7.717-.244-10.047-.731-6.523-.731-6.523a7.079,7.079,0,0,1,2.03-2.273c1.055-.568,6.957-6.158,7.142-6.336h0a5.068,5.068,0,0,0,0,.7h0c.151,2.044,1.623,2.176,1.623,2.176,1.3.521,5.6,7.2,5.6,7.2,2.03.9,3.655,3.655,4.467,5.059a7.667,7.667,0,0,1,.57,3.792s1.379,1.706,1.379,2.844a23.155,23.155,0,0,0,.487,3.411l-4.06,9.408.244,13.568S719.732,327.353,719.812,330.6Z" transform="translate(-547.093 -213.576)" opacity="0.1"/><path d="M721.8,327.632a23.349,23.349,0,0,1-.894,6.45c-1.218-1.153-2.247-4.569-2.615-6.258-.614,2.081-5.507,5.819-5.507,5.819v1.136c-.244,3.168-10.478.975-10.478.975l.054-3.326h0v-.314l.592-37.124s.811-7.717-.244-10.047-.731-6.523-.731-6.523a7.079,7.079,0,0,1,2.03-2.273c1.055-.568,6.957-6.158,7.142-6.336h0a5.068,5.068,0,0,0,0,.7h0c.151,2.044,1.623,2.176,1.623,2.176,1.3.521,5.6,7.2,5.6,7.2,2.03.9,3.655,3.655,4.467,5.059a7.667,7.667,0,0,1,.57,3.792s1.379,1.706,1.379,2.844a23.155,23.155,0,0,0,.487,3.411l-3.594,8.348-.456,1.053.244,13.568S721.717,324.384,721.8,327.632Z" transform="translate(-548.59 -211.337)" fill="#ff718d"/><path d="M729.148,780.084a30.807,30.807,0,0,1-5.361,2.6,23.054,23.054,0,0,1-9.138,0c-1.25-.353-.59-1.562.266-2.529a8.4,8.4,0,0,1,1.2-1.126c.936-.692,1.991-3.494,2.641-4.062s-.2-2.559-.2-2.559a9.526,9.526,0,0,1,2.234-2.03c.731-.244,4.345,1.828,4.345,1.828l2.641.446c-.285.366.933,3.411,1.177,3.857a6.914,6.914,0,0,1,.188,1.813C729.16,779.211,729.148,780.084,729.148,780.084Z" transform="translate(-557.688 -589.914)" opacity="0.1"/><path d="M729.148,781.084a30.809,30.809,0,0,1-5.361,2.6,23.053,23.053,0,0,1-9.138,0c-1.25-.353-.59-1.562.266-2.529a8.4,8.4,0,0,1,1.2-1.126c.936-.692,1.991-3.494,2.641-4.062s-.2-2.559-.2-2.559a9.526,9.526,0,0,1,2.234-2.03c.731-.244,4.345,1.828,4.345,1.828l2.641.446c-.285.366.933,3.411,1.177,3.857a6.914,6.914,0,0,1,.188,1.813C729.16,780.211,729.148,781.084,729.148,781.084Z" transform="translate(-557.688 -590.67)" fill="#626696"/><path d="M729.148,805.771a30.815,30.815,0,0,1-5.361,2.6,23.055,23.055,0,0,1-9.138,0c-1.25-.353-.59-1.562.266-2.529,2.205.4,9.888.051,9.888.051l4.33-1.893C729.16,804.9,729.148,805.771,729.148,805.771Z" transform="translate(-557.688 -615.358)" opacity="0.1"/><path d="M734.485,801.026s-3.614-1.949-5.4-1.1S734.485,801.026,734.485,801.026Z" transform="translate(-568.912 -612.117)" opacity="0.1"/><path d="M628.054,625.1v21.626a5.578,5.578,0,0,1-.487,2.291l-1.581,3.516a5.022,5.022,0,0,0-.041,3.989c.244.617.4,1.162.166,1.231a13.535,13.535,0,0,0-1.949,1s7.878,9.479,10.8,7.123,1.545-18.032,1.545-18.032.163-13.807.324-14.05.407-7.8.407-7.8Z" transform="translate(-489.773 -480.052)" fill="#4c4981"/><path d="M712.942,273.645l-7.554,5.734H702.14a7.08,7.08,0,0,1,2.03-2.273c1.055-.568,6.957-6.158,7.142-6.336h0a1.6,1.6,0,0,0,0,.7h0A4.717,4.717,0,0,0,712.942,273.645Z" transform="translate(-548.751 -212.063)" opacity="0.1"/><path d="M712.942,272.645l-7.554,5.734H702.14a7.08,7.08,0,0,1,2.03-2.273c1.055-.568,6.957-6.158,7.142-6.336h0a1.6,1.6,0,0,0,0,.7h0A4.717,4.717,0,0,0,712.942,272.645Z" transform="translate(-548.751 -211.307)" fill="#ff718d"/><path d="M692.759,215.662a8.677,8.677,0,0,1-2.707,6.306v-.117c.08-1.369-.168.017.244-1.421a1.339,1.339,0,0,0-.453-1.157.849.849,0,0,0-1.128-.166c-.319.275-.295.809-.6,1.1a.92.92,0,0,1-1.335-.358,2.98,2.98,0,0,1-.212-1.56,2.151,2.151,0,0,0-.353-1.513c-.353-.4-.848-.529-1.1-.945-.38-.617.044-1.462-.214-2.137a1.636,1.636,0,0,0-1.645-.872c-1.552.076-3.082,1.126-4.654.5-.619-.244-1.062-.88-1.664-1.106a3.8,3.8,0,0,0-.77-.18,8.692,8.692,0,0,1,16.589,3.626Z" transform="translate(-529.102 -163.813)" opacity="0.1"/><path d="M671.476,199.966a3.086,3.086,0,0,1-.076-1.759,3.962,3.962,0,0,1,2.193-2.956,13.6,13.6,0,0,1,1.849-.434c1.462-.38,2.663-1.438,4.091-1.935a7.111,7.111,0,0,1,4.418.032A13.921,13.921,0,0,1,687.907,195a11.293,11.293,0,0,1,3.107,3.061,5.287,5.287,0,0,1,.75,4.194,15.823,15.823,0,0,1-1.243,2.532,13.123,13.123,0,0,0-1.145,4.832c-.037.507-2.122,2.824-2.51,2.371a1.792,1.792,0,0,1-.244-1.284c.08-1.372-.168.015.244-1.421a1.35,1.35,0,0,0-.456-1.16.848.848,0,0,0-1.126-.166c-.317.273-.3.811-.6,1.1a.92.92,0,0,1-1.335-.358,2.946,2.946,0,0,1-.21-1.557,2.134,2.134,0,0,0-.356-1.516c-.356-.4-.848-.529-1.1-.943-.38-.619.041-1.462-.217-2.139a1.636,1.636,0,0,0-1.645-.872c-1.55.078-3.083,1.126-4.654.5-.619-.244-1.06-.88-1.664-1.1C672.658,200.744,671.912,201.036,671.476,199.966Z" transform="translate(-525.431 -152.9)" fill="#36123a"/><path d="M599.2,768.883l-20.184-.519c-1.218-.673-1.53-1.377-1.411-2.01.222-1.17,1.9-2.088,1.9-2.088l5.361-.731,5.168-4.264c.826.487,1.045,1.949,1.045,1.949s6.621,4.467,7.513,4.63c.448.08.6.841.638,1.579A10.745,10.745,0,0,1,599.2,768.883Z" transform="translate(-454.545 -581.528)" opacity="0.1"/><path d="M598.2,769.883l-20.184-.519c-1.218-.673-1.53-1.377-1.411-2.01.222-1.17,1.9-2.088,1.9-2.088l5.361-.731,5.168-4.264c.826.487,1.045,1.949,1.045,1.949s6.621,4.467,7.513,4.63c.448.08.6.841.638,1.579A10.756,10.756,0,0,1,598.2,769.883Z" transform="translate(-453.789 -582.284)" fill="#626696"/><path d="M598.2,791.869l-20.184-.519c-1.218-.673-1.53-1.377-1.411-2.01l21.624,1.075A10.756,10.756,0,0,1,598.2,791.869Z" transform="translate(-453.789 -604.27)" opacity="0.1"/><g transform="translate(145.875 44.349)" opacity="0.1"><path d="M686.878,223.866a4.452,4.452,0,0,0,.244-.731,1.35,1.35,0,0,0-.456-1.16.848.848,0,0,0-1.126-.166c-.317.273-.3.811-.6,1.1a.92.92,0,0,1-1.335-.358,2.946,2.946,0,0,1-.21-1.557,2.134,2.134,0,0,0-.356-1.516c-.356-.4-.848-.529-1.1-.943-.38-.619.041-1.462-.217-2.139a1.636,1.636,0,0,0-1.645-.872c-1.55.078-3.083,1.126-4.654.5-.619-.244-1.06-.88-1.664-1.1-.855-.319-1.6-.027-2.035-1.1a3.085,3.085,0,0,1-.076-1.759c.015-.071.032-.141.049-.21a4.944,4.944,0,0,0-.292.941,3.086,3.086,0,0,0,.073,1.776c.434,1.075,1.179.782,2.035,1.1.6.224,1.045.858,1.664,1.1,1.572.626,3.1-.422,4.654-.5a1.621,1.621,0,0,1,1.645.872c.258.68-.163,1.521.217,2.139.244.414.787.573,1.1.943a2.312,2.312,0,0,1,.356,1.516,2.957,2.957,0,0,0,.21,1.557c.261.463.95.731,1.335.358.307-.29.283-.824.6-1.1a.845.845,0,0,1,1.126.166A1.344,1.344,0,0,1,686.878,223.866Z" transform="translate(-671.303 -211.85)"/><path d="M734.609,263.214a1.792,1.792,0,0,1-.244-1.284,2.619,2.619,0,0,0,0-.68c-.412,1.416-.166.044-.244,1.411a1.745,1.745,0,0,0,.244,1.284c.387.453,2.473-1.864,2.51-2.371,0-.09.017-.183.024-.273C736.347,262.135,734.924,263.58,734.609,263.214Z" transform="translate(-718.803 -249.212)"/><path d="M749.3,233.533a9.418,9.418,0,0,0-.6,1.577,8.877,8.877,0,0,1,.358-.846,16.244,16.244,0,0,0,1.243-2.532c.019-.066.037-.134.051-.2C750.062,232.222,749.636,232.863,749.3,233.533Z" transform="translate(-729.84 -226.734)"/></g><path d="M642.67,725.77a2.739,2.739,0,0,0,2.023,1.828C646.2,727.8,642.67,725.77,642.67,725.77Z" transform="translate(-503.772 -556.191)" opacity="0.1"/><path d="M635.67,759.213s1.462.041,2.9,0S635.67,759.213,635.67,759.213Z" transform="translate(-498.478 -581.471)" opacity="0.1"/><path d="M739.83,683.09a5.549,5.549,0,0,0,2.924-.69C743.851,681.628,739.83,683.09,739.83,683.09Z" transform="translate(-577.257 -523.219)" opacity="0.1"/><path d="M761.253,644.93s-2.885,1.462-2.315,2.071S761.253,644.93,761.253,644.93Z" transform="translate(-591.653 -495.05)" opacity="0.1"/><path d="M761.67,657.521c.2-.122,1.706-.933,2.071-1.745S761.67,657.521,761.67,657.521Z" transform="translate(-593.775 -503.133)" opacity="0.1"/><path d="M530.695,759.095l-1.828.731-2.741.609-2.4-.853-.643-1.949a26.014,26.014,0,0,0,1.111-5.824c0-.222,0-.434-.015-.634a11.025,11.025,0,0,1,.146-2.739,9.87,9.87,0,0,1,.4-1.586h3.838l.417,2.164.487,2.588a5.95,5.95,0,0,1,.312,1.574,1.373,1.373,0,0,1-.068.468.428.428,0,0,0-.024.112h0a5.72,5.72,0,0,0,.117,1.274v.017C530.086,756.685,530.695,759.095,530.695,759.095Z" transform="translate(-413.324 -572.134)" fill="#b15885"/><path d="M581.416,778.225l-6.336-.792s.339-1.24.617-2.924c.1-.631.2-1.326.266-2.04a6.74,6.74,0,0,1,.992-3.014,4.162,4.162,0,0,1,.685-.855l3.777.853s.029.731.041,1.637a13.118,13.118,0,0,1-.224,3.511l-.015.029C580.882,775.323,581.416,778.225,581.416,778.225Z" transform="translate(-452.652 -588.584)" fill="#b15885"/><path d="M550.185,772.55l-.015-.85.107.27a1.375,1.375,0,0,1-.068.468A.425.425,0,0,0,550.185,772.55Z" transform="translate(-433.812 -590.929)" opacity="0.1"/><path d="M530.695,773.1l-1.828.731-2.741.609-2.4-.853-.643-1.949a26.014,26.014,0,0,0,1.111-5.824c.085-.283.132-.446.132-.446l-.487,5.848a1.326,1.326,0,0,0,1.338,1.433l3.55-.051a1.323,1.323,0,0,0,1.3-1.462l-.214-2.088C530.086,770.692,530.695,773.1,530.695,773.1Z" transform="translate(-413.324 -586.141)" opacity="0.1"/><path d="M521.139,766.37a42.907,42.907,0,0,1-2.066,5.661c-.931,2,1.584,4.337,2.824,5.329a2.217,2.217,0,0,0,1.389.487h1.591a2.222,2.222,0,0,0,1.779-.887,6.176,6.176,0,0,0,1.494-3.467,26.676,26.676,0,0,0-1.652-5.58l.017,1,.329,3.229a1.326,1.326,0,0,1-1.3,1.462l-3.55.049a1.323,1.323,0,0,1-1.338-1.43Z" transform="translate(-410.139 -586.898)" fill="#626696"/><path d="M532.42,746.85l.417,2.164c-1.028,1.864-3.509.295-4.657-.578a9.87,9.87,0,0,1,.4-1.586Z" transform="translate(-417.181 -572.134)" opacity="0.1"/><path d="M587.273,771.09c-1.253.587-3.821-1.148-4.5-1.635a4.162,4.162,0,0,1,.685-.855l3.777.853S587.261,770.179,587.273,771.09Z" transform="translate(-458.469 -588.584)" opacity="0.1"/><path d="M552.081,530.925c-.548,1.157-1.706,13.524-1.523,16.631a60.049,60.049,0,0,1-.365,7.98s-2.132,11.209-3.838,14.377a16.962,16.962,0,0,0-1.889,6.336c-1.218,1.34-5-1.523-5-1.523.975-.548,1.1-6.762,1.34-7.249a12.253,12.253,0,0,0,.3-2.62l.67-12.793s.3-3.655-.609-4.934,0-5.117,0-5.117l-.419-10.965-.487-6.336s-1.1,6.762-2.01,9.077-.914,8.1-.914,8.1c-.183,3.777-2.5,8.407-2.5,8.407,0,4.569-3.168,15.778-3.716,16.57s0,3.716,0,3.716c-1.218,2.985-5.388-.792-5.388-.792s.7-2.071.392-2.559a15.764,15.764,0,0,1-.392-3.411s1,1.279.21-5.483a32.478,32.478,0,0,1,.933-12.245,25.727,25.727,0,0,0,.507-8.529,115.627,115.627,0,0,1-.507-12.062v-9.584l1.016-1.869s22.966-3.594,24.672-1.4a3.378,3.378,0,0,1,.487,1.384C553.877,518.385,552.561,529.914,552.081,530.925Z" transform="translate(-415.338 -394.466)" fill="#e6e8ec"/><path d="M617.672,646.22s-2.132.641-2.222,1.067C615.45,647.287,617.46,646.654,617.672,646.22Z" transform="translate(-483.185 -496.025)" opacity="0.1"/><path d="M600.473,656.275s-5.149,2.347-7.4-.3A10.788,10.788,0,0,0,600.473,656.275Z" transform="translate(-466.259 -503.4)" opacity="0.1"/><path d="M596,664.6s5.3,1.157,6.243,0Z" transform="translate(-468.475 -509.927)" opacity="0.1"/><path d="M534.391,639.22s-1.484.768-1.991.307Z" transform="translate(-420.373 -490.731)" opacity="0.1"/><path d="M533.634,646.22s-2.381.244-2.437.534S533.634,646.22,533.634,646.22Z" transform="translate(-419.462 -496.025)" opacity="0.1"/><path d="M534,532.562s10.69-.093,12.518.609a2.933,2.933,0,0,0,3.139-.821l-2.924,6.426s-1.25-7.4-12.215-4.63Z" transform="translate(-421.583 -409.903)" opacity="0.1"/><path d="M526.689,286.248c-.244.39-.487.9-.244,1.282a4.067,4.067,0,0,0,.329.351,1.6,1.6,0,0,1,.285.663,4.492,4.492,0,0,1-.3,3.5,14.63,14.63,0,0,0-.994,1.347,3.808,3.808,0,0,0-.141,2.313,8.717,8.717,0,0,0,.826,2.778,3.789,3.789,0,0,0,2.122,1.884c.541.166,1.194.214,1.511.682.351.512.149,1.355.675,1.684a1.31,1.31,0,0,0,1.218-.141,2.247,2.247,0,0,0,1.316-1.148c.115-.361.049-.785.266-1.094.175-.244.487-.37.665-.629a1.318,1.318,0,0,0,.158-.556l.327-2.476a2.567,2.567,0,0,0,.029-.682,2.77,2.77,0,0,0-.894-1.43,5.5,5.5,0,0,1-1.462-2.278c-.348-1.372.285-2.783.39-4.194a2.192,2.192,0,0,0-.066-.833,2.74,2.74,0,0,0-.646-.941,4.9,4.9,0,0,0-.975-.88,4.61,4.61,0,0,0-2.641-.395C527.52,285.062,527.178,285.473,526.689,286.248Z" transform="translate(-415.163 -222.856)" fill="#1e1637"/><path d="M492.923,365.181l-.975,1.828-.244.244c-1.1,1.028-5.456,5.09-6.041,5.2-.67.122-4.084-5.312-4.084-5.312l5.137-4.335.2-.173Z" transform="translate(-381.936 -281.539)" fill="#b15885"/><path d="M562.679,307.895l-8.285,3.29s-8.163.975-5.6-3.533a8.442,8.442,0,0,0,.811-1.976,12,12,0,0,0-.811-7.649s9.625-8.529,8.407-2.193c-.607,3.168.755,6.17,2.273,8.392a20.547,20.547,0,0,0,3.209,3.67Z" transform="translate(-432.392 -229.248)" fill="#b15885"/><circle cx="8.041" cy="8.041" r="8.041" transform="translate(111.543 55.254)" opacity="0.1"/><circle cx="8.041" cy="8.041" r="8.041" transform="translate(111.543 55.01)" fill="#b15885"/><path d="M562.679,341.21l-8.285,3.29s-8.163.975-5.6-3.533a8.442,8.442,0,0,0,.811-1.976,7.622,7.622,0,0,0,4.671,2.707c3.292.344,3.921-2.152,5.2-4.157A20.551,20.551,0,0,0,562.679,341.21Z" transform="translate(-432.392 -262.563)" opacity="0.1"/><path d="M508.745,365.159l-.975,1.828-.244.244-1.343-1.17-3.684-3.216.039-.071.2-.173Z" transform="translate(-397.758 -281.517)" opacity="0.1"/><path d="M556.593,514.033a25.073,25.073,0,0,1-7.439,1.316,19.136,19.136,0,0,0-8.651,2.193c-4.306,2.03-10.093-1.135-10.093-1.135v-.487l1.016-1.869s22.966-3.594,24.672-1.4A3.381,3.381,0,0,1,556.593,514.033Z" transform="translate(-418.867 -394.466)" opacity="0.1"/><path d="M538.092,368.291c-.327,2.437-7.23,3-9.3,3.085a19.1,19.1,0,0,0-8.651,2.193c-4.306,2.03-10.093-1.136-10.093-1.136V372.1c0-.95.012-3.748,0-5.695V364.8c0-.885,0-2.13-.061-3.346a14.935,14.935,0,0,0-.324-2.746,4.507,4.507,0,0,1,.334-3.29l.051-.122c.385-.892-.061-2.273-.385-3.572a11.551,11.551,0,0,1-.244-2.242c-.022-.748,0-1.333,0-1.333a8.813,8.813,0,0,0,.3-5.083h0a14.232,14.232,0,0,1-.548-3.93,4.026,4.026,0,0,0-.024-1.594,1.835,1.835,0,0,0-.626-1.087l-1.35-1.177-3.684-3.212s.743-1.338,1.581-3.26a37.476,37.476,0,0,0,1.406-3.7c.063-.195.122-.392.18-.59,1.135-3.9,7.227-1.625,7.227-1.625.083,6.986,6.255,7.717,6.255,7.717,3.9.407,4.062-3.168,5.99-5.2S535,328.572,535,328.572s.054,1.884-.036,4.4a53.229,53.229,0,0,1-.624,6.716,15.356,15.356,0,0,1-1.289,4.386,9.088,9.088,0,0,0-.487,1.111,10.721,10.721,0,0,0-.658,3.818,6.812,6.812,0,0,0,.024.714,13.031,13.031,0,0,0,.385,2.437,8.564,8.564,0,0,0,.258.846s.217.475.565,1.262c.487,1.1,1.218,2.8,1.993,4.662.429,1.045.867,2.142,1.27,3.207.59,1.555,1.1,3.041,1.409,4.2A6.276,6.276,0,0,1,538.092,368.291Z" transform="translate(-398.507 -250.981)" fill="#ffcde5"/><path d="M539.892,341.9a53.2,53.2,0,0,1-.624,6.716,10.341,10.341,0,0,1-2.02.283c-1.031.027-2.052-.183-3.082-.21-1.106-.029-2.208.151-3.314.217a33.238,33.238,0,0,1-6.606-.487l-2.061-.3a15.822,15.822,0,0,1-1.689-.307c-.465-.117-.916-.28-1.374-.422a25.216,25.216,0,0,0-5.042-.928,1.835,1.835,0,0,0-.626-1.087l-1.35-1.177q-.933-2.836-1.859-5.673c-.088-.263-.173-.529-.244-.8a37.5,37.5,0,0,0,1.406-3.7,19.521,19.521,0,0,0,1.119,2.822,7.76,7.76,0,0,0,.989,1.6,8.223,8.223,0,0,0,3.8,2.256,51.585,51.585,0,0,0,11.35,1.988,31.7,31.7,0,0,0,3.753.217c.975-.024,1.949-.139,2.924-.244A32.832,32.832,0,0,0,539.892,341.9Z" transform="translate(-403.431 -259.901)" fill="#ff90c9"/><path d="M550.929,409.842a10.72,10.72,0,0,0-.658,3.818h-.027a23.816,23.816,0,0,1-2.473,1.04,11.253,11.253,0,0,1-2.817.319q-2.122.061-4.25.112c-4.335.1-8.758.173-12.915-1.016-.022-.748,0-1.333,0-1.333a8.813,8.813,0,0,0,.3-5.083c.422.207.875.529,1.067.619a17.749,17.749,0,0,0,2.393.919,27.336,27.336,0,0,0,6.633.975,87.227,87.227,0,0,0,10.943-.168A13.425,13.425,0,0,0,550.929,409.842Z" transform="translate(-416.878 -315.627)" fill="#ff90c9"/><path d="M553.724,458.449c-.373.068-.743.144-1.114.219a26.709,26.709,0,0,0-3.024.746c-.9.3-1.767.694-2.68,1a23.461,23.461,0,0,1-6.706,1,75.675,75.675,0,0,1-11.628-.461,14.935,14.935,0,0,0-.324-2.746,4.507,4.507,0,0,1,.334-3.29,26.077,26.077,0,0,1,2.751.487,39.458,39.458,0,0,0,5.634.677,32.913,32.913,0,0,0,3.429-.195l2.812-.258a22.562,22.562,0,0,0,2.6-.341c.831-.175,1.64-.444,2.461-.668,1.133-.307,2.313-.534,3.455-.833C552.215,454.887,552.958,456.59,553.724,458.449Z" transform="translate(-417.104 -350.486)" fill="#ff90c9"/><path d="M558.142,490.294a21.623,21.623,0,0,0-3.965,1.681c-.975.556-1.91,1.218-2.941,1.686a16.094,16.094,0,0,1-3.524,1q-3.455.673-6.947,1.192a31.385,31.385,0,0,1-10.385.19c0-.95.012-3.748,0-5.695a16.566,16.566,0,0,1,3.972-.022c2.437.1,4.842.59,7.264.439a27.6,27.6,0,0,0,3.67-.565l6.884-1.379a3.34,3.34,0,0,0,1.077-.346,4.756,4.756,0,0,0,.829-.731,9.457,9.457,0,0,1,2.646-1.645A39.019,39.019,0,0,1,558.142,490.294Z" transform="translate(-418.845 -374.923)" fill="#ff90c9"/><path d="M611.964,474.633c.8-.1,1.6.314,2.4.2-.278.426-.86.487-1.362.56a13.9,13.9,0,0,0-1.6.368c-.212.056-1.428.512-1.579.361C609.459,475.764,611.637,474.672,611.964,474.633Z" transform="translate(-478.895 -366.239)" opacity="0.1"/><path d="M611.662,484.925a6.526,6.526,0,0,0-1.009.809,5,5,0,0,1-1.913.989,2.061,2.061,0,0,0,2.327-.178,2.339,2.339,0,0,1,.619-.47c.188-.073.4-.066.587-.144.244-.1.76-.714.624-1.011C612.722,484.545,611.905,484.789,611.662,484.925Z" transform="translate(-478.11 -373.879)" opacity="0.1"/><path d="M603.542,445.684c.219.244.595.244.9.363a4.206,4.206,0,0,1,.585.312,3.049,3.049,0,0,0,2.49.2,2.516,2.516,0,0,0-1.2-1.121,2.871,2.871,0,0,0-1.377.044,2.45,2.45,0,0,1-1.072.02C603.578,445.421,603.105,445.2,603.542,445.684Z" transform="translate(-474.045 -344.118)" opacity="0.1"/><path d="M516.391,246.08c-1.153,1.282-1.523,3.246-2.98,4.167-.409.258-.882.414-1.287.682-1.189.787-1.547,2.339-1.81,3.74-.166.885-.136,2.1.731,2.322.28.071.578,0,.86.056a1.533,1.533,0,0,1,1.036,1.72,11.2,11.2,0,0,1-.624,2.108,1.262,1.262,0,0,0,.012.948,1.084,1.084,0,0,0,.775.487,2.723,2.723,0,0,0,2.551-1.2,7.054,7.054,0,0,0,1.045-2.756,40.39,40.39,0,0,0,.731-4.856,10.265,10.265,0,0,1,.858-4.1,3.013,3.013,0,0,1,3.5-1.625c.926.368,1.6,1.374,2.593,1.416a1.894,1.894,0,0,1,.872.083,1.143,1.143,0,0,1,.407.521c1.057,2.115,2,4.42,1.747,6.772-.158,1.462-.782,2.9-.653,4.374.093,1.062.575,2.074.568,3.141a10.756,10.756,0,0,1-.772,3.009,9.535,9.535,0,0,0-.263,4.337,2.865,2.865,0,0,0,.514,1.345,1.218,1.218,0,0,0,1.292.456l.375,2.573a1.106,1.106,0,0,0,.173.529c.451.58,1.355-.163,2.086-.08a2.821,2.821,0,0,0,2.288,1.754c.992.2,2.027.124,3.017.334.933.2,1.806.641,2.754.753a4.163,4.163,0,0,0,4.447-4.113c-.061-1.594-1.05-2.983-1.572-4.493-1.462-4.255.867-9.15-.687-13.378-.487-1.35-1.362-2.534-1.949-3.85-.931-2.1-1.162-4.557-2.637-6.316a9.87,9.87,0,0,0-2.156-1.8,7.954,7.954,0,0,0-2.412-1.218c-1.479-.375-3.026.058-4.545.224-1.606.173-3.153-.244-4.737-.154a15.108,15.108,0,0,0-4.065.731,5.09,5.09,0,0,0-2.079,1.35Z" transform="translate(-403.608 -191.65)" opacity="0.1"/><path d="M516.391,245.08c-1.153,1.282-1.523,3.246-2.98,4.167-.409.258-.882.414-1.287.682-1.189.787-1.547,2.339-1.81,3.74-.166.885-.136,2.1.731,2.322.28.071.578,0,.86.056a1.533,1.533,0,0,1,1.036,1.72,11.2,11.2,0,0,1-.624,2.108,1.262,1.262,0,0,0,.012.948,1.084,1.084,0,0,0,.775.487,2.723,2.723,0,0,0,2.551-1.2,7.054,7.054,0,0,0,1.045-2.756,40.39,40.39,0,0,0,.731-4.856,10.266,10.266,0,0,1,.858-4.1,3.013,3.013,0,0,1,3.5-1.625c.926.368,1.6,1.374,2.593,1.416a1.9,1.9,0,0,1,.872.083,1.143,1.143,0,0,1,.407.521c1.057,2.115,2,4.42,1.747,6.772-.158,1.462-.782,2.9-.653,4.374.093,1.062.575,2.074.568,3.141a10.756,10.756,0,0,1-.772,3.009,9.534,9.534,0,0,0-.263,4.337,2.866,2.866,0,0,0,.514,1.345,1.218,1.218,0,0,0,1.292.456l.375,2.573a1.106,1.106,0,0,0,.173.529c.451.58,1.355-.163,2.086-.08a2.821,2.821,0,0,0,2.288,1.754c.992.2,2.027.124,3.017.334.933.2,1.806.641,2.754.753a4.163,4.163,0,0,0,4.447-4.113c-.061-1.594-1.05-2.983-1.572-4.493-1.462-4.255.867-9.15-.687-13.378-.487-1.35-1.362-2.534-1.949-3.85-.931-2.1-1.162-4.557-2.637-6.316a9.87,9.87,0,0,0-2.156-1.8,7.954,7.954,0,0,0-2.412-1.218c-1.479-.375-3.026.058-4.545.224-1.606.173-3.153-.244-4.737-.154a15.108,15.108,0,0,0-4.065.731A5.09,5.09,0,0,0,516.391,245.08Z" transform="translate(-403.608 -190.894)" fill="#1e1637"/><path d="M527.69,320.969c.2.663.814,1.106,1.218,1.672a2.965,2.965,0,0,1,.487,2.252c-.244,1.265-1.3,2.437-.953,3.675a3.411,3.411,0,0,0,.716,1.177c.994,1.218,2.149,2.5,3.7,2.766a1.462,1.462,0,0,0,.731-.029,1.5,1.5,0,0,0,.631-.514,3.711,3.711,0,0,0,.714-2.956,13.081,13.081,0,0,1-.327-1.423,5.537,5.537,0,0,1,1.006-2.924,3.418,3.418,0,0,0,.463-2.98,3.358,3.358,0,0,0-1.664-1.411,16.608,16.608,0,0,0-4.63-1.474c-.731-.122-1.077-.227-1.6.373A1.963,1.963,0,0,0,527.69,320.969Z" transform="translate(-416.761 -248.317)" opacity="0.1"/><path d="M527.69,319.969c.2.663.814,1.106,1.218,1.672a2.965,2.965,0,0,1,.487,2.252c-.244,1.265-1.3,2.437-.953,3.675a3.41,3.41,0,0,0,.716,1.177c.994,1.218,2.149,2.5,3.7,2.766a1.462,1.462,0,0,0,.731-.029,1.5,1.5,0,0,0,.631-.514,3.711,3.711,0,0,0,.714-2.956,13.083,13.083,0,0,1-.327-1.423,5.537,5.537,0,0,1,1.006-2.924,3.418,3.418,0,0,0,.463-2.98,3.358,3.358,0,0,0-1.664-1.411,16.609,16.609,0,0,0-4.63-1.474c-.731-.122-1.077-.227-1.6.373A1.963,1.963,0,0,0,527.69,319.969Z" transform="translate(-416.761 -247.561)" fill="#1e1637"/><path d="M608.321,427.846a2.192,2.192,0,0,1-.612-.244,5.055,5.055,0,0,1-1.023-.843,13.257,13.257,0,0,1-1.508-1.706A5.27,5.27,0,0,1,604,422.28c.244-.037.731.263.95.39a3.435,3.435,0,0,1,.86.88,6.42,6.42,0,0,0,1.218,1.155,8.492,8.492,0,0,1,.875.653l.027.027a13.026,13.026,0,0,0,.395,2.461Z" transform="translate(-474.519 -326.652)" opacity="0.1"/><g transform="translate(106.602 54.494)" opacity="0.1"><path d="M521.989,300.813a2.713,2.713,0,0,1-2.549,1.2,1.079,1.079,0,0,1-.777-.487.83.83,0,0,1-.083-.244c-.061.171-.122.344-.173.519a1.284,1.284,0,0,0,.012.948,1.079,1.079,0,0,0,.777.487,2.713,2.713,0,0,0,2.549-1.2,7.1,7.1,0,0,0,1.048-2.756c.073-.348.141-.7.2-1.05A6.656,6.656,0,0,1,521.989,300.813Z" transform="translate(-516.327 -287.326)"/><path d="M512.846,288.276a4.2,4.2,0,0,0,.244-1,1.554,1.554,0,0,0-1.038-1.72c-.283-.051-.58.015-.858-.056-.794-.2-.889-1.231-.775-2.079-.078.324-.144.653-.2.975-.166.885-.136,2.1.731,2.322.278.071.575,0,.858.056A1.488,1.488,0,0,1,512.846,288.276Z" transform="translate(-510.135 -276.125)"/><path d="M550.9,263.642a2.276,2.276,0,0,1-.039.312,12.8,12.8,0,0,0,.283-1.53c.244-2.351-.69-4.657-1.745-6.772a1.142,1.142,0,0,0-.407-.521,1.9,1.9,0,0,0-.875-.083c-1-.041-1.664-1.048-2.593-1.418a3.015,3.015,0,0,0-3.494,1.628,6.7,6.7,0,0,0-.69,2.332,5.346,5.346,0,0,1,.446-1.114,3.018,3.018,0,0,1,3.494-1.628c.928.37,1.6,1.377,2.593,1.418a1.752,1.752,0,0,1,.875.083,1.143,1.143,0,0,1,.407.521C550.21,258.985,551.153,261.29,550.9,263.642Z" transform="translate(-533.736 -253.481)"/><path d="M588.3,349.977c-.945-.112-1.82-.556-2.751-.753-.992-.21-2.025-.134-3.017-.334a2.821,2.821,0,0,1-2.288-1.754c-.731-.083-1.635.66-2.086.08a1.107,1.107,0,0,1-.173-.529q-.19-1.287-.375-2.573a1.218,1.218,0,0,1-1.291-.456,2.87,2.87,0,0,1-.517-1.345,9.579,9.579,0,0,1-.051-2.853,9.573,9.573,0,0,0-.193,4.072,2.871,2.871,0,0,0,.517,1.345,1.218,1.218,0,0,0,1.292.456q.185,1.287.375,2.573a1.106,1.106,0,0,0,.173.529c.451.58,1.355-.163,2.086-.08a2.821,2.821,0,0,0,2.288,1.754c.992.2,2.025.124,3.017.334.931.2,1.806.641,2.751.753a4.185,4.185,0,0,0,4.445-3.911A4.193,4.193,0,0,1,588.3,349.977Z" transform="translate(-559.513 -318.509)"/><path d="M578.685,307.121c0-1.067-.487-2.079-.57-3.141a5.659,5.659,0,0,1,.058-1.33,8.26,8.26,0,0,0-.3,2.549c.093,1.062.575,2.074.57,3.141a1.394,1.394,0,0,1-.015.244A5.233,5.233,0,0,0,578.685,307.121Z" transform="translate(-561.361 -290.669)"/></g><path d="M581.416,796.551l-6.336-.792s.339-1.24.617-2.924l-.09,1.462a.67.67,0,0,0,.619.711l4.094.324a.675.675,0,0,0,.731-.619v-1.153l.119-.731c.017.034.032.073.049.112C580.882,793.649,581.416,796.551,581.416,796.551Z" transform="translate(-452.652 -606.91)" opacity="0.1"/><path d="M573.564,792.22s-2.256,4.576-.9,5.819c.975.914,4.364.653,6.106.446a1.126,1.126,0,0,0,.992-1.2,18.9,18.9,0,0,0-.731-4.664l-.119.731v1.153a.672.672,0,0,1-.731.616l-4.094-.322a.675.675,0,0,1-.619-.712Z" transform="translate(-450.495 -606.449)" fill="#626696"/><path d="M576.751,273.849a7.948,7.948,0,0,0,.7,3.012,7.3,7.3,0,0,1-.463,5.283,15.092,15.092,0,0,0-.958,1.915,3.769,3.769,0,0,0,2.449,4.605,6.973,6.973,0,0,1,1.538.446A3.11,3.11,0,0,1,581.211,292a6.59,6.59,0,0,0,.339,3.229,3.834,3.834,0,0,0,2.125,1.672,7.2,7.2,0,0,0,4.8.076,3.8,3.8,0,0,0,1.43-.807,3.991,3.991,0,0,0,1.038-2.524,8.468,8.468,0,0,0-1.033-4.939c-.7-1.245-1.706-2.291-2.481-3.482a11.7,11.7,0,0,1-1.893-5.751,21.5,21.5,0,0,0-.185-3.124,5.624,5.624,0,0,0-2.437-3.565c-.607-.39-1.287-.655-1.879-1.065s-.882-1.089-1.55-.975C578.269,270.918,576.878,272.719,576.751,273.849Z" transform="translate(-453.251 -212.031)" fill="#985c7e"/><g transform="translate(122.621 60.914)" opacity="0.1"><path d="M580.162,287.669a7.31,7.31,0,0,0,.212-4.718,7.951,7.951,0,0,1-.7-3.012.945.945,0,0,1,.02-.11,2.809,2.809,0,0,0-.263.841,7.948,7.948,0,0,0,.7,3.012A7.291,7.291,0,0,1,580.162,287.669Z" transform="translate(-578.552 -279.83)"/><path d="M590.146,335.334a3.8,3.8,0,0,1-1.43.807,7.2,7.2,0,0,1-4.8-.076,3.809,3.809,0,0,1-2.125-1.672,6.739,6.739,0,0,1-.339-3.229,3.153,3.153,0,0,0-1.194-2.888,6.968,6.968,0,0,0-1.538-.444,3.788,3.788,0,0,1-2.537-4.274c-.056.129-.11.263-.156.4a3.771,3.771,0,0,0,2.449,4.608,6.97,6.97,0,0,1,1.538.444,3.116,3.116,0,0,1,1.194,2.888,6.591,6.591,0,0,0,.339,3.229,3.834,3.834,0,0,0,2.125,1.672,7.2,7.2,0,0,0,4.8.076,3.8,3.8,0,0,0,1.43-.807,3.4,3.4,0,0,0,.9-1.694A2.98,2.98,0,0,1,590.146,335.334Z" transform="translate(-575.872 -312.904)"/></g><path d="M591.833,765.629l-2.144.792-5.329-1.659.863-2.027.75-1.764,4.905.38.439,1.964Z" transform="translate(-441.966 -575.53)" fill="#ffd2c6"/><path d="M700.2,793.814l-2.741,1.369-3.139-.731-.7-2.337-.446-1.462s5.758-2.59,4.813-1.494c-.378.439-.095,1.274.375,2.118a17.487,17.487,0,0,0,1.837,2.537Z" transform="translate(-541.967 -603.93)" fill="#ffd2c6"/><path d="M666.616,793.194l-6.092-.453a.788.788,0,0,0-.015-.127l.75-1.764,4.905.383Z" transform="translate(-517.265 -605.412)" opacity="0.1"/><path d="M648.131,530.369l-.614.348-8.041,4.525.609,25.1a104.727,104.727,0,0,1-.348,10.844,10.235,10.235,0,0,1-.383,1.949c-.914,2.62.426,8.833.426,8.833l-6.494-.487a15.109,15.109,0,0,1-.024-3.543c.244-1.408-1.4-10.349-1.4-10.349s-1.34-12.732-1.949-13.1-1.462-4.63-1.462-6.033-2.254-10.965-2.264-11.146-1.218-7.676-1.218-8.894-.777-9.075-.356-11.024c.166-.763.4-1.781.621-2.734.346-1.479.665-2.81.665-2.81s21.261,1.4,23.027,4.262a3.54,3.54,0,0,1,.407,1.1C650.2,521.146,648.131,530.369,648.131,530.369Z" transform="translate(-490.019 -394.398)" fill="#ceddf9"/><path d="M667.678,567.22l.261,5.027-.132.348-8.041,4.525.609,25.1a104.762,104.762,0,0,1-.348,10.844c-.407-1.506-1.218-3.572-1.175-3.777.061-.3-3.594-9.016-5.117-10.661s-2.415-5.6-2.415-5.6.222-8.163,1.075-9.26,2.342-14.737,2.342-14.737Z" transform="translate(-510.315 -436.276)" opacity="0.1"/><path d="M698.328,791.27a1.145,1.145,0,0,0-.709.473c-.283.524-2.539.468-4.033.373l-.446-1.462s5.758-2.59,4.813-1.494C697.575,789.591,697.858,790.427,698.328,791.27Z" transform="translate(-541.944 -603.93)" opacity="0.1"/><path d="M656.321,567.556s-1.036,14.072-1.889,15.169-1.072,9.26-1.072,9.26.889,3.96,2.412,5.6,5.178,10.356,5.117,10.661,1.767,4.752,1.34,5.3-.054,3.655.066,3.838.909,1.2.361,2.091-.487,3.592-.487,3.592,4.934.531,5.361-.261,2.559-.619,2.559-.619-1.828-6.752-1.279-8.214-2.315-15.6-3.716-18.824.487-12.245.487-12.245l4.386-11.7.122-5.361Z" transform="translate(-511.857 -435.24)" fill="#ceddf9"/><path d="M549.94,390.63l4.954,3.448.731,7.841v6.864l-.648,3.207-4.393-.324.158-12.7Z" transform="translate(-415.933 -295.433)" fill="#4c4981"/><path d="M549.94,390.63l4.954,3.448.731,7.841v6.864l-.648,3.207-4.393-.324.158-12.7Z" transform="translate(-415.933 -295.433)" opacity="0.1"/><path d="M609.88,309.757s6.969,5.873,6.579,13.1,6.918-3.329,6.918-3.329l1.949-5.2s-8.655-4.213-7.722-9.664S609.88,309.757,609.88,309.757Z" transform="translate(-478.973 -236.515)" fill="#ffd2c6"/><circle cx="7.478" cy="7.478" r="7.478" transform="translate(126.175 60.286)" opacity="0.1"/><circle cx="7.478" cy="7.478" r="7.478" transform="translate(126.175 59.798)" fill="#ffd2c6"/><path d="M621.673,363.58s-2.193,2.337-2.9,2.337.607,9.333-.658,11.131.658,5.249.658,5.249l.514,9.209s-1.36,10.2-1.172,10.641,1.949,0,1.949,0l.77-10.268a79.324,79.324,0,0,1,.08-8.658c.324-1.625-.219-7.264.378-8.587a12.072,12.072,0,0,0,.517-4Z" transform="translate(-484.874 -282.258)" opacity="0.1"/><path d="M620.673,362.58s-2.193,2.337-2.9,2.337.607,9.333-.658,11.131.658,5.249.658,5.249l.514,9.209s-1.36,10.2-1.172,10.641,1.949,0,1.949,0l.77-10.268a79.321,79.321,0,0,1,.08-8.658c.324-1.625-.219-7.264.378-8.587a12.072,12.072,0,0,0,.517-4Z" transform="translate(-484.117 -281.501)" fill="#4c4981"/><path d="M651.64,517.213c-3,.244-12.328.936-14.094-.083-1.981-1.143-8.351-1.825-10.005-2.471.346-1.479.665-2.81.665-2.81s21.261,1.4,23.027,4.262A3.539,3.539,0,0,1,651.64,517.213Z" transform="translate(-492.329 -394.398)" opacity="0.1"/><path d="M650.652,403.762s-12.915,1.218-15.027,0-9.221-1.913-10.271-2.6.517-6.918,1.133-8.248,1.34-2.23,1.245-2.79a5.375,5.375,0,0,1,.487-2.193c.229-.56.819-2.032.819-2.032s-.643-.568,0-2.21.088-.387-1.779-2.824-.68-9.016-.68-9.016l.388-9.247,1.73,1.864,2.054,2.213,3.168,3.382,4.306,1.218,4.223,4.793,4.306,8.982s.417,2.174,1.094,4.718c.314,1.182.687,2.437,1.1,3.6C650.245,397.019,650.652,403.762,650.652,403.762Z" transform="translate(-490.408 -281.517)" fill="#f86280"/><path d="M654.025,395.526c-2.924,1.126-6.791,4.235-8.244,5.592-1.867,1.747-5.278,1.664-5.034,0s-4.713-13.556-4.713-13.556a51.225,51.225,0,0,0-2.369-7.664c-1.462-3.667.714-8.631,1.218-9.679l2.054,2.213,3.168,3.382,4.306,1.218,4.223,4.793,4.306,8.982S653.352,392.982,654.025,395.526Z" transform="translate(-496.586 -287.28)" opacity="0.1"/><path d="M637.768,339.512l-1.793,4.525s-2.946,5.758-1.306,9.879a51.239,51.239,0,0,1,2.369,7.664s4.954,11.891,4.71,13.556,3.168,1.747,5.037,0,7.739-6.4,10.449-5.98a5.927,5.927,0,0,0,4.308-.8s-4.93-6.379-4.686-9.082-1.949-9.194-1.949-9.194-.975-7.1-1.669-8.828-3.024-5.086-4.7-4.708-6.791-.029-6.791-.029Z" transform="translate(-497.345 -261.784)" fill="#4c4981"/><path d="M683.056,674.22s-2.437,1.1-3.319,1.34S682.752,675.682,683.056,674.22Z" transform="translate(-531.709 -517.202)" opacity="0.1"/><path d="M678.8,676.35s-6.306,2.254-6.063,2.8S678.8,676.35,678.8,676.35Z" transform="translate(-526.509 -518.813)" opacity="0.1"/><path d="M687.619,681.35s-2.559,3.107-1.857,3.29S687.619,681.35,687.619,681.35Z" transform="translate(-536.272 -522.595)" opacity="0.1"/><path d="M644.488,509.6s-3.565.212.609,1.309,6.669-.366,6.669-.366Z" transform="translate(-504.075 -392.696)" opacity="0.1"/><circle cx="0.573" cy="0.573" r="0.573" transform="translate(138.057 90.401)" fill="#fff"/><circle cx="0.573" cy="0.573" r="0.573" transform="translate(143.547 88.116)" fill="#fff"/><circle cx="0.573" cy="0.573" r="0.573" transform="translate(140.36 98.072)" fill="#fff"/><circle cx="0.573" cy="0.573" r="0.573" transform="translate(143.259 105.668)" fill="#fff"/><path d="M575.11,364.9h4.264l4.1-2.437.2.928-4.016,2.283h-4.333Z" transform="translate(-434.97 -274.127)" fill="#fff"/><path d="M568.91,317.718l4.393.77.027-7.668L570.7,312.8Z" transform="translate(-430.28 -235.071)" fill="#4c4981"/><path d="M593.225,263.248a3.27,3.27,0,0,1,1.391-.017,4.067,4.067,0,0,1,1.435.819c1.072.824,2.22,1.769,2.466,3.1s-.517,2.856.076,4.108c.422.9,1.494,1.518,1.508,2.51a3.9,3.9,0,0,1-.3,1.182c-.682,2.074.244,4.3,1.14,6.284a2.208,2.208,0,0,0,1.857,1.574l1.235.339a1.462,1.462,0,0,0,.682.078c.565-.119.772-.807.848-1.379a12.9,12.9,0,0,1,.4-2.33,3.042,3.042,0,0,1,1.411-1.823c1.413-.7,3.061.292,4.63.324a1.745,1.745,0,0,0,1.023-.244,1.616,1.616,0,0,0,0-2.339,7.15,7.15,0,0,0-2.259-1.352,7.917,7.917,0,0,1-2.1-1.489,3.775,3.775,0,0,1-.9-1.33,5.789,5.789,0,0,1-.139-2.31,14.443,14.443,0,0,0-.882-6.506,7.7,7.7,0,0,0-4.608-4.462c-1.189-.366-2.459-.361-3.677-.612-.955-.2-1.871-.551-2.827-.746a4.475,4.475,0,0,0-2.863.2c-1.233.609-1.9,1.991-3.063,2.732-.668.426-1.55.7-1.825,1.44-.329.885.426,1.9.11,2.785-.1.29-.314.531-.441.811a.756.756,0,0,0,.073.858.779.779,0,0,0,.395.171,2.377,2.377,0,0,0,2.349-1.133A4.867,4.867,0,0,1,593.225,263.248Z" transform="translate(-462.003 -201.261)" opacity="0.1"/><path d="M664.444,342.888a2.142,2.142,0,0,0-1.774,1.462,11.746,11.746,0,0,0-.7,5.531c.543,2.8,1.028,5.485,1.028,5.485v4.752s.124,4.569.855,5.726S660.992,377,660.992,377l-3.292,9.308s-5,11.392-.426,11.757,3.989-10.519,3.989-10.519l5.334-9.3,2.863-6.068a43.6,43.6,0,0,0,.731-8.833c-.063-5.178-.307-9.54-.307-9.54s-1.279-8.066-2.741-9.528C666.17,343.3,665.346,342.8,664.444,342.888Z" transform="translate(-513.361 -266.6)" opacity="0.1"/><path d="M662.444,341.888a2.142,2.142,0,0,0-1.774,1.462,11.746,11.746,0,0,0-.7,5.531c.543,2.8,1.028,5.485,1.028,5.485v4.752s.124,4.569.855,5.726S658.992,376,658.992,376l-3.292,9.308s-5,11.392-.426,11.757,3.989-10.519,3.989-10.519l5.334-9.3,2.863-6.068a43.6,43.6,0,0,0,.731-8.833c-.063-5.178-.307-9.54-.307-9.54s-1.279-8.066-2.741-9.528C664.17,342.3,663.346,341.8,662.444,341.888Z" transform="translate(-511.848 -265.844)" fill="#ffd2c6"/><path d="M594.225,262.248a3.27,3.27,0,0,1,1.391-.017,4.067,4.067,0,0,1,1.435.819c1.072.824,2.22,1.769,2.466,3.1s-.517,2.856.076,4.108c.422.9,1.494,1.518,1.508,2.51a3.9,3.9,0,0,1-.3,1.182c-.682,2.074.244,4.3,1.14,6.284a2.208,2.208,0,0,0,1.857,1.574l1.235.339a1.462,1.462,0,0,0,.682.078c.565-.119.772-.807.848-1.379a12.892,12.892,0,0,1,.4-2.33,3.042,3.042,0,0,1,1.411-1.823c1.413-.7,3.061.292,4.63.324a1.745,1.745,0,0,0,1.023-.244,1.616,1.616,0,0,0,0-2.339,7.15,7.15,0,0,0-2.259-1.352,7.919,7.919,0,0,1-2.1-1.489,3.774,3.774,0,0,1-.9-1.33,5.788,5.788,0,0,1-.139-2.31,14.444,14.444,0,0,0-.882-6.506,7.7,7.7,0,0,0-4.608-4.462c-1.189-.366-2.459-.361-3.677-.612-.955-.2-1.871-.551-2.827-.746a4.475,4.475,0,0,0-2.863.2c-1.233.609-1.9,1.991-3.063,2.732-.668.426-1.55.7-1.825,1.44-.329.885.427,1.9.11,2.785-.1.29-.314.531-.441.811a.756.756,0,0,0,.073.858.78.78,0,0,0,.395.171,2.377,2.377,0,0,0,2.349-1.133A4.867,4.867,0,0,1,594.225,262.248Z" transform="translate(-462.76 -200.505)" fill="#985c7e"/><g transform="translate(125.717 61.001)" opacity="0.1"><path d="M673.229,339.348c-1.577-.032-3.224-1.026-4.63-.324a2.722,2.722,0,0,0-1.2,1.267,2.332,2.332,0,0,1,.7-.546c1.413-.7,3.061.292,4.63.324a1.732,1.732,0,0,0,1.023-.244,1.126,1.126,0,0,0,.463-.716A1.766,1.766,0,0,1,673.229,339.348Z" transform="translate(-648.193 -324.497)"/><path d="M606.322,300.24a1.462,1.462,0,0,1-.682-.076l-1.238-.341a2.968,2.968,0,0,1-1.189-.529,2.925,2.925,0,0,1-.668-1.045c-.9-1.986-1.82-4.211-1.14-6.284a3.688,3.688,0,0,0,.307-1.179c-.015-.994-1.087-1.613-1.511-2.512-.59-1.252.178-2.744-.073-4.106s-1.4-2.273-2.469-3.1a4.143,4.143,0,0,0-1.433-.819,3.361,3.361,0,0,0-1.394.017,4.769,4.769,0,0,0-2.851,1.248,2.374,2.374,0,0,1-2.347,1.133.8.8,0,0,1-.4-.168.76.76,0,0,1-.073-.86c.127-.28.273-.975-.046-.08-.1.29-.312.531-.441.811a.756.756,0,0,0,.073.86.8.8,0,0,0,.4.168,2.374,2.374,0,0,0,2.347-1.133A4.769,4.769,0,0,1,594.345,281a3.361,3.361,0,0,1,1.394-.017,4.143,4.143,0,0,1,1.433.819c1.072.826,2.222,1.769,2.468,3.1s-.517,2.853.073,4.106c.424.9,1.5,1.518,1.511,2.512a3.687,3.687,0,0,1-.307,1.179c-.68,2.074.244,4.3,1.14,6.284a2.924,2.924,0,0,0,.668,1.045,2.968,2.968,0,0,0,1.189.529l1.238.341a1.463,1.463,0,0,0,.682.076,1.082,1.082,0,0,0,.731-.833A.731.731,0,0,1,606.322,300.24Z" transform="translate(-588.58 -280.184)"/></g><path d="M633.9,798.109s-3.226-1.984-3.536-2.615-4.852,3.694-4.852,3.694a19.356,19.356,0,0,1-3.562,2.527c-1.187.456-1.971,2.286-.346,2.437s7.929.244,7.929.244l5.422-.7,3.382-.6-.641-4.99S634.188,798.8,633.9,798.109Z" transform="translate(-487.145 -608.878)" fill="#cc8294"/><path d="M669.975,802.566s-2.858-2.68-4.03-2.047a30.278,30.278,0,0,0-3.926,3.387s-2.6,2.164-3.3,2.651-1.523,2.132,0,2.405,15.412-1.767,15.412-1.767-.173-5.066-.641-5.142S670.994,803.114,669.975,802.566Z" transform="translate(-515.261 -612.652)" fill="#cc8294"/><path d="M722.543,408.473l.244,13.568-6.175,7.971-1.445,2.03s-4.406,9.016-10.052,6.255a2.173,2.173,0,0,1-1.445-1.784h0a1.944,1.944,0,0,1,0-.314c.288-3.39,8.47-8.37,8.47-8.37s5.929-10.315,6.336-10.5,2.273-5.668,2.273-5.668l.814-3.935a10.766,10.766,0,0,1,1.43-.3Z" transform="translate(-549.904 -315.423)" opacity="0.1"/><path d="M720.581,405.277l-.811,3.935s-1.869,5.488-2.276,5.668-6.336,10.5-6.336,10.5-12.671,7.717-7.03,10.478,10.054-6.255,10.054-6.255l1.445-2.03,9.827-12.7s4.71-4.776,2.68-8.024S720.581,405.277,720.581,405.277Z" transform="translate(-549.16 -313.468)" fill="#febfba"/><path d="M752.936,328.833l2.193,1.625a3.04,3.04,0,0,1,1.379,3.168c-.487,2.04.731,2.68.731,2.68a6.741,6.741,0,0,0,.731,2.32c.651,1.255,1.218,2.68,0,3.307s-8.933.629-8.933.629.568-.517-1.218-2.7-3.818-4.708-3.982-6.245-2.354-5.68-2.11-6.823-.078-5.317-.02-6.392,1.155-4.045,2.13-3.782,4.469-1.733,6.742,2.68A24.453,24.453,0,0,1,752.936,328.833Z" transform="translate(-578.671 -246.573)" opacity="0.1"/><path d="M753.936,327.833l2.193,1.625a3.04,3.04,0,0,1,1.379,3.168c-.487,2.04.731,2.68.731,2.68a6.741,6.741,0,0,0,.731,2.32c.651,1.255,1.218,2.68,0,3.307s-8.933.629-8.933.629.568-.517-1.218-2.7-3.818-4.708-3.982-6.245-2.354-5.68-2.11-6.823-.078-5.317-.019-6.392,1.155-4.045,2.13-3.782,4.469-1.733,6.743,2.68A24.454,24.454,0,0,1,753.936,327.833Z" transform="translate(-579.428 -245.816)" fill="#ff718d"/><path d="M462.515,252.63a11.674,11.674,0,0,0-1.691,3.47,24.245,24.245,0,0,0-.563,9.81l-7.188-3.29s-5.848-5.117-2.559-7.493a6.937,6.937,0,0,0,2.481-3.041,4.941,4.941,0,0,0,.383-2.32S466.17,247.634,462.515,252.63Z" transform="translate(-357.681 -195.836)" fill="#d38884"/><path d="M473.33,252.625a11.674,11.674,0,0,0-1.691,3.47h-.2a9.26,9.26,0,0,1-7.632-4.016,4.941,4.941,0,0,0,.383-2.32S476.985,247.63,473.33,252.625Z" transform="translate(-368.496 -195.832)" opacity="0.1"/><path d="M475.648,209.466a9.26,9.26,0,1,1-5.388-8.4A9.26,9.26,0,0,1,475.648,209.466Z" transform="translate(-363.443 -158.704)" fill="#d38884"/><path d="M475.663,209.421a9.24,9.24,0,0,1-.56,3.182h-.015a5.714,5.714,0,0,1-1.642-1.372l-2.252-2.42a2.486,2.486,0,0,0-1.655-1.021c-.334,0-.687.124-.987-.022s-.424-.536-.565-.855a2.81,2.81,0,0,0-2.549-1.572,1.346,1.346,0,0,0-1.294.551,6.949,6.949,0,0,1-1.162,1.706,2.744,2.744,0,0,1-2.193.8.758.758,0,0,0-.592.051.573.573,0,0,0-.166.314c-.158.621-.112,1.277-.222,1.908a1.828,1.828,0,0,1-1.053,1.5,1.477,1.477,0,0,1-1.262-.244,9.26,9.26,0,1,1,18.173-2.52Z" transform="translate(-363.458 -158.658)" opacity="0.1"/><path d="M460.277,194.187c.141.322.244.7.565.858s.653.02.987.022a2.486,2.486,0,0,1,1.655,1.021l2.252,2.42a5.683,5.683,0,0,0,1.645,1.369,1.735,1.735,0,0,0,2.568-2.037,7.952,7.952,0,0,0-.789-1.92,3.916,3.916,0,0,1-.517-1.988,5.226,5.226,0,0,1,.643-1.786,5.353,5.353,0,0,0,.468-4.267,5.551,5.551,0,0,0-2.069-2.252,3.367,3.367,0,0,0-1.91-.768c-.824.017-1.542.58-2.359.7a3.548,3.548,0,0,1-1.557-.195c-1.135-.361-2.193-.975-3.324-1.318a8.229,8.229,0,0,0-3.382-.324,2.135,2.135,0,0,0-1.313.5,3.8,3.8,0,0,0-.646,1.321,3.853,3.853,0,0,1-1.387,1.72c-.68.463-1.491.694-2.193,1.109a2.373,2.373,0,0,0-1.338,1.932,10.05,10.05,0,0,0,.18.989,3.168,3.168,0,0,1-.585,2.113c-.446.687-1.079,1.418-.88,2.213.141.563.655.931,1.038,1.367.461.526.743,1.189,1.189,1.73a1.752,1.752,0,0,0,1.832.731,1.821,1.821,0,0,0,1.053-1.5c.11-.631.063-1.287.222-1.908a.6.6,0,0,1,.166-.317c.158-.129.39-.078.592-.049a2.744,2.744,0,0,0,2.193-.8,7.217,7.217,0,0,0,1.165-1.706,1.338,1.338,0,0,1,1.292-.548A2.812,2.812,0,0,1,460.277,194.187Z" transform="translate(-355.748 -146.185)" fill="#1e1637"/><g transform="translate(91.201 42.748)" opacity="0.1"><path d="M452.519,209.958c-.032-.222-.1-.439-.136-.658a1.547,1.547,0,0,0-.044.4,7.328,7.328,0,0,0,.171.936A2.522,2.522,0,0,0,452.519,209.958Z" transform="translate(-451.021 -208.32)"/><path d="M536.578,207.761a5.282,5.282,0,0,0-.643,1.786,2.29,2.29,0,0,0,.022.563,6.068,6.068,0,0,1,.621-1.618,6.519,6.519,0,0,0,.731-3.212,7.28,7.28,0,0,1-.731,2.481Z" transform="translate(-514.241 -205.28)"/><path d="M469.4,224.532a1.942,1.942,0,0,1-2.037.127,5.673,5.673,0,0,1-1.642-1.369l-2.252-2.42a2.486,2.486,0,0,0-1.655-1.021c-.334,0-.687.124-.987-.022s-.424-.536-.565-.858a2.812,2.812,0,0,0-2.549-1.569,1.349,1.349,0,0,0-1.294.548,6.9,6.9,0,0,1-1.162,1.706,2.744,2.744,0,0,1-2.193.8c-.2-.029-.434-.08-.592.049a.587.587,0,0,0-.166.317c-.158.621-.112,1.277-.222,1.908a1.534,1.534,0,0,1-2.885.765c-.446-.529-.731-1.2-1.192-1.73a3.967,3.967,0,0,1-1.021-1.321,1.3,1.3,0,0,0-.015.685c.139.563.655.931,1.036,1.367.463.526.746,1.189,1.192,1.73a1.752,1.752,0,0,0,1.832.731,1.821,1.821,0,0,0,1.053-1.5c.11-.631.063-1.287.222-1.908a.587.587,0,0,1,.166-.317c.158-.129.39-.078.592-.049a2.744,2.744,0,0,0,2.193-.8,7.136,7.136,0,0,0,1.162-1.706,1.345,1.345,0,0,1,1.294-.548,2.812,2.812,0,0,1,2.549,1.569c.141.322.244.7.565.858s.653.019.987.022a2.486,2.486,0,0,1,1.655,1.021l2.252,2.42a5.705,5.705,0,0,0,1.642,1.369,1.943,1.943,0,0,0,2.037-.127,1.985,1.985,0,0,0,.551-1.789A1.706,1.706,0,0,1,469.4,224.532Z" transform="translate(-446.931 -214.446)"/></g><path d="M430.415,791.385l-.285,6.05s8.814-.122,10.315.651,10.641.731,10.641.731,4.223-1.584,1.869-3.209-6.579-1.786-6.579-1.786-3.494-4.793-4.142-5-1.828-1.34-2.559.2a10.919,10.919,0,0,1-2.754,3.087Z" transform="translate(-343.023 -603.433)" fill="#4c4981"/><path d="M388.656,480.512c-1.055,4.467-5.768,23.961-5.768,23.961a5.412,5.412,0,0,0-1.623,3.331,8.727,8.727,0,0,1-1.058,3.655s.57,17.545-.811,22.094c-1.33,4.386-.1,4.167,0,4.143l-3.967,3.246-7.31.08s.324-5.6.568-6.092,1.949-3.085.894-4.791.324-18.846,1.462-21.039,0-7.8,0-7.8a20.524,20.524,0,0,0-1.218,4.225c-.327,2.11-3.007,5.361-3.007,5.765,0,5.553-6.823,18.683-6.823,18.683s-2.437,8.285-1.786,9.827-.651,3.168-1.542,2.763-8.041,0-8.041,0-.163-4.874,0-5.28a17.819,17.819,0,0,1,1.867-2.113c-.568-4.467,3.411-22.174,5.768-24.692s2.832-7.715,2.832-7.715,2.193.327,1.426-.731,1.742-6.5,1.742-6.5-.814-7.637,0-9.667a9.817,9.817,0,0,0,.648-4.223c0-.57.083-4.713.529-5.687s-.041-3.572,0-4.954c.032-1.065.015-3.387,0-4.386v-.487l.609-3.818,2.761-7.147,10.074,2.356,7.554,1.462s4.3,4.467,5.522,7.715a6.7,6.7,0,0,1,.322,1.255C390.834,471.362,389.6,476.572,388.656,480.512Z" transform="translate(-281.324 -351.53)" fill="#c4e0ff"/><path d="M347.948,805.162s-4.954-.448-5.524,1.786-1.257,6.377-1.257,6.377-.772,2.315,4.223,2.517,4.915-.651,4.915-.651a33.124,33.124,0,0,1,.161-4.693,19.981,19.981,0,0,0,.244-3.431S349.865,804.309,347.948,805.162Z" transform="translate(-275.705 -616.113)" fill="#4c4981"/><path d="M436.486,467.958c-.066,1.927-.158,3.538-.158,3.538s-3.5.061-3.426-9.321c0,0-.777,7.128-1.63,7.31s-1.218-1.1-4.143-.914-6.64-1.279-7.067-2.741-5.6-5.483-6.4-5.3-.975,3.168-.975,3.168a13.5,13.5,0,0,0-3.041,2.924v-.487l.609-3.818,2.761-7.147,10.074,2.356,7.554,1.462s4.3,4.467,5.522,7.715A6.7,6.7,0,0,1,436.486,467.958Z" transform="translate(-327.534 -351.53)" opacity="0.1"/><path d="M427.249,326.785s-3.5.061-3.426-9.321c0,0-.777,7.128-1.63,7.31s-1.218-1.1-4.143-.914-6.64-1.279-7.067-2.741-5.6-5.483-6.4-5.3-.975,3.168-.975,3.168a13.772,13.772,0,0,0-3.046,2.924c-.609,1.157-.426-2.132,0-4.264a34.761,34.761,0,0,0,0-8.346c-.244-1.888-1.218-6.7-.392-10.052s-.322-10.722-.322-10.722.078-4.813,0-7.8-3.429-4.142-1.723-7.31,6.153-6.945,6.153-6.945,3.107.366,4.447-.792a2.8,2.8,0,0,1,.439-.307,10.581,10.581,0,0,1,4.142-.9l4.5,4.6a46.31,46.31,0,0,1,2.376,5.848.662.662,0,0,1,0,.149l.772-4.525s3.241,1.218,3.241,2.987v2.863a28.7,28.7,0,0,0,1.462,4.569c.731,1.462-.366,15.778-.366,15.778a32.7,32.7,0,0,1,.061,6.275c-.366,1.828.556,5.665.556,5.665s.846,6.945,1.333,8.285S427.249,326.785,427.249,326.785Z" transform="translate(-318.455 -207.306)" fill="#ffd765"/><path d="M453.665,558s-1.138,6.538-3.168,9.462a98.324,98.324,0,0,0-5.2,9.464" transform="translate(-354.497 -429.302)" opacity="0.1"/><rect width="13.96" height="5.685" rx="2" transform="translate(88.408 48.855)" fill="#3a3768"/><circle cx="0.59" cy="0.59" r="0.59" transform="translate(99.054 51.109)" fill="#e6e8ec"/><path d="M399.65,282.365s-4.793,1.462-6.457.365-4.813-5.848-4.813-5.848.909-6.689,1.706-6.933.39,6.336.39,6.336,1.138,2.539,1.564,2.539,3.351-.365,3.716-1.1a41.483,41.483,0,0,0,.975-5.239l.487-2.193,2.437,1.523,1.888,4.681Z" transform="translate(-311.447 -211.438)" fill="#ffd765"/><path d="M397.173,248.02a3.471,3.471,0,0,1-3.655-3.655,33.344,33.344,0,0,1,.57-5.907c.426-.731,4.447-6.092,4.447-6.092s12.732-6.762,11.392-1.462a8.161,8.161,0,0,1-6.579,5.97l-2.376-1.218-.061,7.676S400.378,247.789,397.173,248.02Z" transform="translate(-315.33 -180.378)" fill="#d38884"/><path d="M412.847,622.17s-.731,1.623,1.949,2.11S412.847,622.17,412.847,622.17Z" transform="translate(-329.883 -477.836)" opacity="0.1"/><path d="M400.13,649.5s.244,3.168,1.625,3.818S400.13,649.5,400.13,649.5Z" transform="translate(-320.333 -498.506)" opacity="0.1"/><path d="M444.969,680.83a2.3,2.3,0,0,0,.77,2.52C447.038,684.244,444.969,680.83,444.969,680.83Z" transform="translate(-354.166 -522.202)" opacity="0.1"/><path d="M445.285,672.5a2.363,2.363,0,0,0,2.071,2.437" transform="translate(-354.482 -515.902)" opacity="0.1"/><path d="M441.46,710.5s1.5,1.949,1.969,1.786S441.46,710.5,441.46,710.5Z" transform="translate(-351.592 -544.642)" opacity="0.1"/><path d="M477.937,811.438s-4.954-.244-3.736.975,3.736-.487,3.736-.487Z" transform="translate(-376.21 -620.969)" opacity="0.1"/><path d="M350.8,825.791s6.253-1.1,5.848,0S350.8,825.791,350.8,825.791Z" transform="translate(-283.024 -631.469)" opacity="0.1"/><path d="M411.13,330.633s4.045.568,5.678-.568,2.12.731.975,1.623S411.13,330.633,411.13,330.633Z" transform="translate(-328.653 -256.641)" opacity="0.1"/><path d="M413.46,352.3c1.3.163,1.014,1.706,3.351.324S413.46,352.3,413.46,352.3Z" transform="translate(-330.415 -273.433)" opacity="0.1"/><path d="M415.38,372.956s5.5.894,6.579-1.786" transform="translate(-331.867 -287.998)" opacity="0.1"/><path d="M455.944,275.939v.195l-11.014-9.747a10.58,10.58,0,0,1,4.142-.9l4.5,4.6A46.406,46.406,0,0,1,455.944,275.939Z" transform="translate(-354.217 -208.07)" opacity="0.1"/><path d="M455.944,274.939v.195l-11.014-9.747a10.58,10.58,0,0,1,4.142-.9l4.5,4.6A46.4,46.4,0,0,1,455.944,274.939Z" transform="translate(-354.217 -207.314)" fill="#ffd765"/><path d="M408.46,302.9s6.5-.558,6.579-5.885C415.039,297.015,416.146,302.985,408.46,302.9Z" transform="translate(-326.634 -231.917)" opacity="0.1"/><circle cx="0.519" cy="0.519" r="0.519" transform="translate(101.33 67.301)" fill="#fff"/></g></g></svg>