<svg xmlns="http://www.w3.org/2000/svg" xmlns:xlink="http://www.w3.org/1999/xlink" width="200" height="200" viewBox="0 0 200 200">
  <defs>
    <linearGradient id="linear-gradient" x1="0.5" y1="1" x2="0.5" gradientUnits="objectBoundingBox">
      <stop offset="0" stop-color="gray" stop-opacity="0.251"/>
      <stop offset="0.54" stop-color="gray" stop-opacity="0.122"/>
      <stop offset="1" stop-color="gray" stop-opacity="0.102"/>
    </linearGradient>
    <linearGradient id="linear-gradient-2" x1="0.5" y1="1" x2="0.5" y2="0" xlink:href="#linear-gradient"/>
    <linearGradient id="linear-gradient-3" x1="0.146" y1="1.023" x2="0.933" y2="-0.011" xlink:href="#linear-gradient"/>
    <linearGradient id="linear-gradient-4" x1="0.5" y1="1" x2="0.5" gradientUnits="objectBoundingBox">
      <stop offset="0" stop-color="#fcfdff"/>
      <stop offset="1" stop-color="#b2ebf2"/>
    </linearGradient>
    <linearGradient id="linear-gradient-5" x1="0.5" y1="1" x2="0.5" y2="0" xlink:href="#linear-gradient"/>
    <linearGradient id="linear-gradient-6" x1="0.5" y1="1" x2="0.5" y2="-0.001" xlink:href="#linear-gradient"/>
    <linearGradient id="linear-gradient-7" x1="0.5" y1="1" x2="0.5" y2="0" xlink:href="#linear-gradient"/>
    <linearGradient id="linear-gradient-8" x1="0.5" y1="1" x2="0.5" y2="0" xlink:href="#linear-gradient"/>
  </defs>
  <g id="Group_54" data-name="Group 54" transform="translate(-726 -727)">
    <g id="Group_44" data-name="Group 44" transform="translate(-177 -430)">
      <rect id="Rectangle_109" data-name="Rectangle 109" width="200" height="200" transform="translate(903 1157)" fill="#fff"/>
      <g id="Group_33" data-name="Group 33" transform="translate(432.079 1069.559)">
        <g id="Group_2" data-name="Group 2" transform="translate(545.921 106)">
          <path id="Path_1" data-name="Path 1" d="M404.55,245.87h0a8.55,8.55,0,0,1-11.755,2.671l-24.9-16.406a8.55,8.55,0,0,1-2.671-11.755h0a8.55,8.55,0,0,1,11.755-2.671l24.9,16.406A8.55,8.55,0,0,1,404.55,245.87Z" transform="translate(-363.926 -182.937)" fill="url(#linear-gradient)"/>
          <path id="Path_2" data-name="Path 2" d="M407.575,248.422h0a7.947,7.947,0,0,1-10.928,2.484L373.5,235.642a7.947,7.947,0,0,1-2.484-10.928h0a7.947,7.947,0,0,1,10.928-2.484l23.145,15.251a7.947,7.947,0,0,1,2.482,10.941Z" transform="translate(-368.325 -186.432)" fill="#be7c5e"/>
          <path id="Path_3" data-name="Path 3" d="M563.423,588.3a18.184,18.184,0,0,0-36.048-3.39l-55.884-1.513.633,9.6s-7.967,18.386,33.912,23.291v18.59h48.424V603.983a18.174,18.174,0,0,0,8.963-15.687Z" transform="translate(-444.361 -456.333)" fill="url(#linear-gradient-2)"/>
          <path id="Path_4" data-name="Path 4" d="M452.585,637.93c-.288,5.173,3.213,15.957,35.841,19.481v17.806h50.3V628.054L452.56,625.9l.028.416A92.988,92.988,0,0,1,452.585,637.93Z" transform="translate(-430.206 -498.046)" fill="#be7c5e"/>
          <g id="Group_1" data-name="Group 1" transform="translate(19.343)" opacity="0.5">
            <path id="Path_5" data-name="Path 5" d="M518.121,73.13l-74.449.182a3.059,3.059,0,0,0-3.052,3.064l.348,139.247a3.059,3.059,0,0,0,3.067,3.052l74.449-.182a3.059,3.059,0,0,0,3.052-3.067l-.346-139.244A3.059,3.059,0,0,0,518.121,73.13Z" transform="translate(-440.62 -73.13)" fill="url(#linear-gradient-3)"/>
          </g>
          <rect id="Rectangle_1" data-name="Rectangle 1" width="78.391" height="141.499" rx="13.64" transform="translate(20.429 2.084) rotate(-0.14)" fill="#fff"/>
          <path id="_Path_" data-name="&lt;Path&gt;" d="M509.688,94.785a6.356,6.356,0,0,1-6.25,5.42l-27.077.066a6.356,6.356,0,0,1-6.277-5.39l-14.343.035A2.979,2.979,0,0,0,452.77,97.9l.31,128.45a2.979,2.979,0,0,0,2.984,2.971l68.507-.166a2.979,2.979,0,0,0,2.971-2.984l-.313-128.45a2.979,2.979,0,0,0-2.984-2.971Z" transform="translate(-430.363 -89.297)" fill="#6c63ff"/>
          <rect id="Rectangle_2" data-name="Rectangle 2" width="17.468" height="1.092" rx="0.546" transform="translate(50.19 7.372) rotate(-0.86)" fill="#dbdbdb"/>
          <circle id="Ellipse_1" data-name="Ellipse 1" cx="0.656" cy="0.656" r="0.656" transform="translate(70.709 6.844) rotate(-0.86)" fill="#dbdbdb"/>
          <circle id="Ellipse_2" data-name="Ellipse 2" cx="6.27" cy="6.27" r="6.27" transform="translate(53.479 113.983)" fill="#eee" opacity="0.5"/>
          <circle id="Ellipse_3" data-name="Ellipse 3" cx="4.419" cy="4.419" r="4.419" transform="translate(55.331 115.878)" fill="none" stroke="#6c63ff" stroke-miterlimit="10" stroke-width="1" opacity="0.2"/>
          <rect id="Rectangle_3" data-name="Rectangle 3" width="7.612" height="7.612" transform="translate(31.091 116.505)" fill="#eee" opacity="0.5"/>
          <path id="Path_6" data-name="Path 6" d="M692.558,567.42v-.837a.252.252,0,0,0-.252-.252h-2.943a.252.252,0,0,0-.252.252v.837h-1.14v-.5h-.676v.5h-.845v5.062h8.774V567.42Z" transform="translate(-605.107 -449.757)" fill="#eee" opacity="0.5"/>
          <rect id="Rectangle_4" data-name="Rectangle 4" width="74.785" height="93.817" transform="translate(22.357 20.265)" fill="url(#linear-gradient-4)"/>
          <circle id="Ellipse_4" data-name="Ellipse 4" cx="2.015" cy="2.015" r="2.015" transform="translate(87.066 12.429)" fill="#eee" opacity="0.7"/>
          <circle id="Ellipse_5" data-name="Ellipse 5" cx="2.015" cy="2.015" r="2.015" transform="translate(88.41 14.444)" fill="#eee" opacity="0.7"/>
          <circle id="Ellipse_6" data-name="Ellipse 6" cx="2.015" cy="2.015" r="2.015" transform="translate(85.5 14.444)" fill="#eee" opacity="0.5"/>
          <path id="Path_7" data-name="Path 7" d="M105.044,49.28l3.135,2.015L103.7,53.31l2.24,2.015" transform="translate(-77.537 -36.851)" fill="#eee" opacity="0.7"/>
          <rect id="Rectangle_5" data-name="Rectangle 5" width="22.167" height="56.873" transform="translate(22.357 52.247)" fill="#6c63ff" opacity="0.3"/>
          <rect id="Rectangle_6" data-name="Rectangle 6" width="10.971" height="13.435" transform="translate(75.87 94.063)" fill="#6c63ff" opacity="0.3"/>
          <rect id="Rectangle_7" data-name="Rectangle 7" width="9.405" height="24.853" transform="translate(86.844 83.196)" fill="#6c63ff" opacity="0.3"/>
          <path id="Path_8" data-name="Path 8" d="M517.04,373.434h-3.581s-1.112-39.183,3.581-51.274h.9S514.808,366.493,517.04,373.434Z" transform="translate(-475.659 -264.582)" fill="#fff8e1"/>
          <path id="Path_9" data-name="Path 9" d="M483.715,255.738s-2.91,8.071-1.566,11.645c0,0,2.018-7.39,4.366-8.51s4.815,8.51,4.815,8.51,1.344-6.053-1.12-10.971a19.464,19.464,0,0,1,7.39,7.836s.449-3.359-5.375-10.3a22.73,22.73,0,0,1,8.51,4.479s1.12-2.464-5.821-6.494c0,0,.9-2.91,6.27-1.566,0,0,0-3.806-8.51-3.135,0,0,0-2.464,5.6-2.018,0,0,0-3.135-6.494-2.018a9.825,9.825,0,0,1,2.24-2.464,4.5,4.5,0,0,0-3.135.9s.225-4.035-3.135-5.6l-.449,5.6s-3.763-4.436-2.91-3.581a9.807,9.807,0,0,1,.671,4.255,6.979,6.979,0,0,0-8.509.224s5.821.449,6.716,2.464c0,0-4.926-.9-6.053-.224,0,0,3.806,1.344,3.581,2.24,0,0-6.716,0-7.612,2.464,0,0,6.941.9,7.39,1.566,0,0-8.071,5.821-8.51,7.39,0,0,8.285-4.926,9.627-4.926s-6.053,7.165-5.6,8.956C476.1,262.454,482.146,255.291,483.715,255.738Z" transform="translate(-444.788 -197.937)" fill="#c8e6c9"/>
          <path id="Path_10" data-name="Path 10" d="M516.482,443.68s-9.945,3.256-7.425,20.628h4.7l5.609-17.74Z" transform="translate(-472.148 -356.599)" fill="#be7c5e"/>
          <path id="Path_11" data-name="Path 11" d="M653.828,443.68s9.612,3.7,7.09,21.075l-4.615-.035L650.94,446.56Z" transform="translate(-578.552 -356.615)" fill="#be7c5e"/>
          <path id="Path_12" data-name="Path 12" d="M520.554,330.82s-4.54,23.337-7.014,22.1c0,0,23.882,20.626,44.966,0,0,0-3.712-16.737-9.079-22.1Z" transform="translate(-475.806 -270.558)" fill="#333"/>
          <circle id="Ellipse_7" data-name="Ellipse 7" cx="17.738" cy="17.738" r="17.738" transform="translate(42.319 42.575)" fill="#333"/>
          <path id="Path_13" data-name="Path 13" d="M562.352,464.719a16.144,16.144,0,0,0,.414-10.313c-1.649-5.773-.414-.414-.414-.414l-2.888-10.313H528.528l-2.888,12.376s-1.695,5.73.414,8.25" transform="translate(-484.373 -356.614)" opacity="0.1"/>
          <path id="Path_14" data-name="Path 14" d="M558.642,443.68H527.7l-2.888,12.376s-2.873,8.209.414,8.25c36.474.449.2,0,36.3.414a16.144,16.144,0,0,0,.414-10.313c-1.649-5.773-.414-.414-.414-.414Z" transform="translate(-483.367 -356.614)" fill="#f55f44"/>
          <path id="Path_15" data-name="Path 15" d="M213.373,329.84h12.376v14.391a1.7,1.7,0,0,1-1.7,1.7h-8.984a1.7,1.7,0,0,1-1.7-1.7V329.84Z" transform="translate(-159.548 -252.178)" opacity="0.1"/>
          <path id="Path_16" data-name="Path 16" d="M213.373,328h12.376v14.394a1.7,1.7,0,0,1-1.7,1.7h-8.984a1.7,1.7,0,0,1-1.7-1.7V328Z" transform="translate(-159.548 -250.771)" fill="#be7c5e"/>
          <path id="Path_17" data-name="Path 17" d="M577.42,403.838a17.811,17.811,0,0,0,12.376.035V402.36H577.42Z" transform="translate(-523.575 -324.445)" opacity="0.1"/>
          <circle id="Ellipse_8" data-name="Ellipse 8" cx="17.738" cy="17.738" r="17.738" transform="translate(42.319 46.139)" fill="#be7c5e"/>
          <path id="Path_18" data-name="Path 18" d="M534.81,276.421h33.826s-2.888-13.66-15.675-12.789S534.81,276.421,534.81,276.421Z" transform="translate(-491.712 -218.688)" fill="#333"/>
          <ellipse id="Ellipse_9" data-name="Ellipse 9" cx="1.649" cy="3.095" rx="1.649" ry="3.095" transform="translate(41.035 59.746)" fill="#be7c5e"/>
          <ellipse id="Ellipse_10" data-name="Ellipse 10" cx="1.649" cy="3.095" rx="1.649" ry="3.095" transform="translate(75.689 59.746)" fill="#be7c5e"/>
          <path id="Path_19" data-name="Path 19" d="M534.81,278.241h33.826s-2.888-13.66-15.675-12.789S534.81,278.241,534.81,278.241Z" transform="translate(-491.712 -220.079)" opacity="0.1"/>
          <circle id="Ellipse_11" data-name="Ellipse 11" cx="17.412" cy="17.412" r="17.412" transform="translate(82.302 117.277)" fill="#be7c5e"/>
          <path id="Path_20" data-name="Path 20" d="M740.083,473.339h0c-5.044,1.168-8.522-2.126-9.69-7.178l-11.6-43.128a9.458,9.458,0,0,1,7.062-11.312h0a9.458,9.458,0,0,1,11.312,7.062l9.478,44.232C747.8,468.083,745.147,472.171,740.083,473.339Z" transform="translate(-629.113 -333.853)" fill="url(#linear-gradient-5)"/>
          <rect id="Rectangle_8" data-name="Rectangle 8" width="15.849" height="63.279" rx="7.924" transform="translate(89.513 81.599) rotate(-13.01)" fill="#be7c5e"/>
          <path id="Path_21" data-name="Path 21" d="M416.181,463.4h0a8.446,8.446,0,0,1-11.6,2.641l-16.7-10.8a8.446,8.446,0,0,1-2.641-11.6h0a8.446,8.446,0,0,1,11.6-2.641l16.7,10.8A8.446,8.446,0,0,1,416.181,463.4Z" transform="translate(-378.908 -353.833)" fill="url(#linear-gradient-6)"/>
          <path id="Path_22" data-name="Path 22" d="M417.953,563.332h0A8.522,8.522,0,0,1,406.235,566l-10.341-7.544a8.522,8.522,0,0,1-2.663-11.718h0a8.522,8.522,0,0,1,11.718-2.663l10.341,7.544A8.522,8.522,0,0,1,417.953,563.332Z" transform="translate(-384.87 -432.594)" fill="url(#linear-gradient-7)"/>
          <path id="Path_23" data-name="Path 23" d="M419.847,565.2h0a7.947,7.947,0,0,1-10.928,2.484l-9.644-7.042a7.947,7.947,0,0,1-2.484-10.928h0a7.947,7.947,0,0,1,10.928-2.484l9.644,7.034a7.947,7.947,0,0,1,2.484,10.936Z" transform="translate(-387.596 -434.997)" fill="#be7c5e"/>
          <path id="Path_24" data-name="Path 24" d="M418.152,465.155h0a7.947,7.947,0,0,1-10.928,2.484l-15.71-10.164a7.947,7.947,0,0,1-2.484-10.928h0a7.947,7.947,0,0,1,10.941-2.484l15.7,10.172A7.947,7.947,0,0,1,418.152,465.155Z" transform="translate(-381.793 -356.169)" fill="#be7c5e"/>
          <path id="Path_25" data-name="Path 25" d="M419.807,364.106h0a8.484,8.484,0,0,1-11.667,2.651l-21.16-13.778a8.484,8.484,0,0,1-2.651-11.672h0A8.484,8.484,0,0,1,396,338.656l21.16,13.778A8.484,8.484,0,0,1,419.807,364.106Z" transform="translate(-378.214 -275.553)" fill="url(#linear-gradient-8)"/>
          <path id="Path_26" data-name="Path 26" d="M422.261,366.247h0a7.947,7.947,0,0,1-10.928,2.484l-19.819-12.9A7.947,7.947,0,0,1,389.03,344.9h0a7.947,7.947,0,0,1,10.941-2.5l19.819,12.9A7.947,7.947,0,0,1,422.261,366.247Z" transform="translate(-381.793 -278.427)" fill="#be7c5e"/>
        </g>
        <g id="magic-wand" transform="translate(569.287 87.441) rotate(81)">
          <path id="Path_379" data-name="Path 379" d="M.953.953a3.256,3.256,0,0,1,4.6,0L63,58.394a3.255,3.255,0,0,1-4.6,4.6L.953,5.557A3.255,3.255,0,0,1,.953.953Z" transform="translate(30.341 35.641)" fill="#a66300"/>
          <path id="Path_380" data-name="Path 380" d="M.953.163C1.011.1,1.072.053,1.133,0L63.16,62.027c-.053.061-.1.122-.163.18a3.255,3.255,0,0,1-4.6,0L.953,4.766A3.255,3.255,0,0,1,.953.163Z" transform="translate(30.341 36.432)" fill="#875100"/>
          <path id="Path_381" data-name="Path 381" d="M.647,30.311l7.541-10.1L4.138,8.266A3.255,3.255,0,0,1,8.266,4.138l11.94,4.049L30.312.646a3.255,3.255,0,0,1,5.2,2.65L35.352,15.9l10.295,7.28a3.255,3.255,0,0,1-.913,5.766l-12.04,3.743-3.742,12.04a3.255,3.255,0,0,1-5.766.913L15.9,35.352,3.3,35.513a3.255,3.255,0,0,1-2.65-5.2Z" transform="translate(8.717 12.429)" fill="#face17"/>
          <path id="Path_382" data-name="Path 382" d="M7.35,0l-2.6,4.751L0,7.35l4.751,2.6L7.35,14.7l2.6-4.751L14.7,7.35l-4.751-2.6Z" transform="translate(58.102 8.335)" fill="#e6bd15"/>
          <g id="Group_13" data-name="Group 13" transform="translate(0 0)">
            <path id="Path_383" data-name="Path 383" d="M5.945,0l-2.1,3.843L0,5.945l3.843,2.1,2.1,3.843,2.1-3.843,3.843-2.1-3.843-2.1Z" transform="translate(23.294 70.946)" fill="#face17"/>
            <path id="Path_384" data-name="Path 384" d="M5.945,0l-2.1,3.843L0,5.945l3.843,2.1,2.1,3.843,2.1-3.843,3.843-2.1-3.843-2.1Z" transform="translate(20.338 0)" fill="#face17"/>
            <path id="Path_385" data-name="Path 385" d="M3.558,0,2.3,2.3,0,3.558,2.3,4.816l1.258,2.3,1.258-2.3,2.3-1.258L4.816,2.3Z" transform="translate(0 25.421)" fill="#face17"/>
          </g>
          <g id="Group_14" data-name="Group 14" transform="translate(1.913 17.184)">
            <path id="Path_386" data-name="Path 386" d="M0,0,1.524,5.2,0,10.406,5.2,8.882l5.2,1.524L8.882,5.2,10.406,0,5.2,1.524Z" transform="translate(0 40.027)" fill="#e6bd15"/>
            <path id="Path_387" data-name="Path 387" d="M.355,28.982a3.255,3.255,0,0,1,.292-3.425l7.541-10.1L4.138,3.512A3.255,3.255,0,0,1,4.919.165C4.976.107,5.035.053,5.1,0L32.954,27.858l-.261.081L28.95,39.979a3.255,3.255,0,0,1-5.766.913L15.9,30.6,3.3,30.759A3.275,3.275,0,0,1,.355,28.982Z" transform="translate(6.805 0)" fill="#e6bd15"/>
          </g>
        </g>
      </g>
    </g>
  </g>
</svg>
